<svg xmlns="http://www.w3.org/2000/svg" width="48" height="48" viewBox="0 0 48 48">
    <g fill="none" fill-rule="evenodd">
        <g fill-rule="nonzero">
            <g>
                <path fill="#000" d="M44.037 0H3.902C1.748.002.002 1.748 0 3.902v31.216c.002 2.154 1.748 3.9 3.902 3.902h14.493c.308 0 .558-.25.558-.557 0-.308-.25-.558-.558-.558H3.902c-1.539-.002-2.785-1.248-2.787-2.787V7.804h45.71v27.314c-.003 1.539-1.25 2.785-2.788 2.787H29.544c-.308 0-.558.25-.558.558 0 .308.25.557.558.557h14.493c2.154-.002 3.9-1.748 3.902-3.902V3.902C47.937 1.748 46.191.002 44.037 0zm2.787 6.69H1.114V3.901c.003-1.539 1.25-2.785 2.788-2.787h40.135c1.539.002 2.785 1.248 2.787 2.787v2.787z"/>
                <path fill="#000" d="M3.902 2.23c-.924 0-1.672.748-1.672 1.672 0 .924.748 1.672 1.672 1.672.924 0 1.672-.748 1.672-1.672 0-.923-.749-1.671-1.672-1.672zm0 2.23c-.308 0-.557-.25-.557-.558 0-.308.25-.557.557-.557.308 0 .557.25.557.557 0 .308-.25.557-.557.557zM8.361 2.23c-.923 0-1.672.748-1.672 1.672 0 .924.749 1.672 1.672 1.672.924 0 1.673-.748 1.673-1.672-.001-.923-.75-1.671-1.673-1.672zm0 2.23c-.307 0-.557-.25-.557-.558 0-.308.25-.557.557-.557.308 0 .558.25.558.557 0 .308-.25.557-.558.557zM12.82 2.23c-.923 0-1.671.748-1.671 1.672 0 .924.748 1.672 1.672 1.672.923 0 1.672-.748 1.672-1.672 0-.923-.749-1.671-1.672-1.672zm0 2.23c-.307 0-.557-.25-.557-.558 0-.308.25-.557.558-.557.308 0 .557.25.557.557 0 .308-.25.557-.557.557zM44.037 3.345H27.314c-.308 0-.557.25-.557.557 0 .308.25.557.557.557h16.723c.308 0 .557-.25.557-.557 0-.308-.25-.557-.557-.557zM34.56 22.855c0-5.85-4.741-10.592-10.59-10.592-5.85 0-10.592 4.742-10.592 10.592 0 5.849 4.742 10.59 10.592 10.59 5.846-.006 10.584-4.744 10.59-10.59zm-20.067 0c0-5.234 4.243-9.477 9.477-9.477 5.233 0 9.476 4.243 9.476 9.477 0 5.233-4.243 9.476-9.476 9.476-5.232-.006-9.471-4.245-9.477-9.476z"/>
                <path fill="#EA2327" d="M27.314 22.855c0-1.353-.815-2.573-2.065-3.09-1.25-.518-2.688-.232-3.644.725-.957.956-1.243 2.395-.725 3.645.517 1.25 1.737 2.064 3.09 2.064 1.846-.002 3.342-1.498 3.344-3.344zm-3.344 2.23c-1.232 0-2.23-.999-2.23-2.23 0-1.232.998-2.23 2.23-2.23 1.231 0 2.23.998 2.23 2.23-.002 1.23-1 2.228-2.23 2.23z"/>
                <path fill="#000" d="M27.314 36.79h-.557v-1.423c6.382-1.421 10.671-7.417 9.957-13.916-.715-6.5-6.206-11.42-12.744-11.42-6.539 0-12.03 4.92-12.745 11.42-.714 6.499 3.576 12.495 9.957 13.916v1.423h-.557c-.308 0-.557.25-.557.558v6.689c0 2.155 1.746 3.902 3.902 3.902 2.155 0 3.902-1.747 3.902-3.902v-6.69c0-.307-.25-.557-.558-.557zm-15.05-13.935c-.004-4.736 2.846-9.007 7.22-10.821 4.374-1.815 9.41-.815 12.76 2.532 3.35 3.347 4.353 8.383 2.541 12.758-1.811 4.375-6.08 7.228-10.815 7.228-6.46-.007-11.695-5.239-11.707-11.697zm13.378 12.712v1.223h-3.345v-1.223c.555.07 1.113.106 1.673.109.559-.005 1.117-.04 1.672-.11zm1.115 8.47c0 1.54-1.248 2.787-2.787 2.787-1.54 0-2.788-1.248-2.788-2.787v-6.132h5.575v6.132z"/>
                <path fill="#BE282C" d="M26.246 30.323l.133-1.07.41-.17.851.661c.406.316.984.28 1.348-.083l1.788-1.788c.363-.364.399-.941.083-1.347l-.662-.852.17-.41 1.07-.133c.51-.064.893-.498.894-1.013v-2.527c0-.514-.384-.948-.894-1.012l-1.07-.134-.17-.41.663-.851c.315-.407.279-.984-.084-1.348l-1.787-1.787c-.364-.364-.942-.4-1.348-.084l-.85.66-.412-.17-.133-1.068c-.065-.51-.498-.893-1.012-.894h-2.529c-.514 0-.947.384-1.011.894l-.134 1.068-.412.17-.85-.66c-.405-.316-.983-.28-1.347.084l-1.788 1.787c-.363.364-.399.941-.083 1.348l.662.851-.17.41-1.07.134c-.51.063-.893.497-.894 1.012v2.527c0 .515.384.948.894 1.013l1.07.133.17.41-.663.852c-.315.406-.279.983.084 1.347l1.788 1.787c.363.364.941.4 1.347.085l.85-.662.412.17.134 1.07c.064.51.497.892 1.011.893h2.529c.514 0 .947-.383 1.012-.893zm-3.457-.222l-.163-1.307c-.025-.2-.155-.37-.34-.446l-1.01-.419c-.185-.077-.398-.048-.556.075l-1.04.809-1.67-1.669.81-1.041c.124-.159.153-.37.076-.556l-.418-1.009c-.077-.185-.247-.315-.446-.34l-1.31-.163v-2.36l1.31-.164c.2-.025.37-.155.446-.34l.418-1.009c.077-.185.048-.397-.075-.556l-.81-1.041 1.669-1.669 1.04.809c.158.123.37.152.556.075l1.01-.419c.185-.076.315-.247.34-.446l.163-1.307h2.36l.164 1.307c.025.2.155.37.34.446l1.01.419c.186.076.398.048.556-.075l1.04-.809 1.67 1.67-.81 1.04c-.124.159-.152.371-.076.556l.418 1.009c.077.185.247.315.446.34l1.31.163v2.36l-1.31.164c-.2.025-.37.155-.446.34l-.418 1.009c-.077.185-.048.398.075.556l.81 1.041-1.669 1.669-1.042-.81c-.158-.123-.37-.151-.555-.075l-1.009.418c-.185.077-.315.247-.34.446l-.163 1.31h-2.36z"/>
            </g>
        </g>
    </g>
</svg>
