<svg xmlns="http://www.w3.org/2000/svg" width="45" height="39" viewBox="0 0 45 39">
    <g fill="none" fill-rule="evenodd">
        <g fill-rule="nonzero">
            <g>
                <path fill="#000" d="M41.285 0H3.658C1.638.002.002 1.651 0 3.685v31.589c.002 2.034 1.639 3.682 3.658 3.685h37.627c2.019-.003 3.655-1.651 3.658-3.685V3.685C44.94 1.651 43.304.002 41.285 0zM3.658 1.053h37.627c1.442.002 2.611 1.18 2.613 2.632v2.633H1.045V3.685c.002-1.453 1.17-2.63 2.613-2.632zm37.627 36.853H3.658c-1.442-.002-2.611-1.18-2.613-2.632V7.37h42.853v27.903c-.002 1.453-1.17 2.63-2.613 2.632z"/>
                <path fill="#000" d="M4.18 5.265c.867 0 1.569-.707 1.569-1.58 0-.872-.702-1.58-1.568-1.58-.866 0-1.568.708-1.568 1.58 0 .872.702 1.579 1.568 1.58zm0-2.106c.29 0 .523.236.523.526 0 .291-.234.527-.522.527-.289 0-.523-.236-.523-.527 0-.29.234-.526.523-.526zM8.361 5.265c.866 0 1.568-.707 1.568-1.58 0-.872-.702-1.58-1.568-1.58-.865 0-1.567.708-1.567 1.58 0 .872.702 1.579 1.567 1.58zm0-2.106c.29 0 .523.236.523.526 0 .291-.234.527-.523.527-.288 0-.522-.236-.522-.527 0-.29.234-.526.522-.526zM12.542 5.265c.866 0 1.568-.707 1.568-1.58 0-.872-.702-1.58-1.568-1.58-.866 0-1.568.708-1.568 1.58.001.872.703 1.579 1.568 1.58zm0-2.106c.289 0 .523.236.523.526 0 .291-.234.527-.523.527-.288 0-.522-.236-.522-.527 0-.29.234-.526.522-.526zM25.607 4.212h15.678c.288 0 .522-.236.522-.527 0-.29-.234-.526-.522-.526H25.607c-.289 0-.523.236-.523.526 0 .291.234.527.523.527z"/>
                <path fill="#BE282C" d="M28.436 21.585l5.036-5.073c.879-.885 1.222-2.175.9-3.385-.321-1.21-1.259-2.154-2.46-2.478-1.2-.324-2.481.022-3.36.907l-5.035 5.073-6.425-6.472c-.098-.099-.23-.154-.37-.154-.138 0-.27.055-.369.154l-6.27 6.318c-.099.099-.154.232-.154.372 0 .14.055.274.153.372l6.425 6.472-4.857 4.893c-.069.076-.118.168-.143.269l-1.045 5.264c-.034.173.02.351.143.476.123.124.3.178.472.144l5.226-1.053c.1-.025.191-.075.267-.144l4.856-4.893 6.424 6.472c.098.1.231.155.37.155.139 0 .271-.056.37-.155l6.27-6.317c.099-.099.154-.233.154-.373 0-.14-.055-.273-.154-.372l-6.424-6.472zM16.2 32.423l-3.441-3.467 14.938-15.05 3.442 3.468L16.2 32.424zm13.091-20.122c.952-.947 2.484-.942 3.43.011.946.953.951 2.497.012 3.456l-.855.861-3.442-3.467.855-.861zm-12.568-1.027l1.874 1.888-.937.944c-.198.206-.195.535.006.738.202.203.528.206.733.006l.937-.944 1.351 1.362-.937.944c-.198.206-.195.535.007.738.201.203.527.206.732.006l.937-.944 1.352 1.362-3.965 3.993-6.054-6.1 3.964-3.993zm-5.532 5.573l.829-.835 6.054 6.1-.828.835-6.055-6.1zm1.15 13.177l2.8 2.82-3.5.706.7-3.526zm15.879 3.979l-6.055-6.1.829-.835 6.055 6.1-.83.835zm1.568-1.58l-6.055-6.1 3.964-3.993 1.352 1.361-.937.944c-.198.207-.195.535.006.738.202.203.528.206.733.007l.937-.944 1.351 1.361-.937.944c-.198.207-.195.535.006.738.202.203.528.206.733.006l.937-.943 1.874 1.887-3.964 3.994z"/>
            </g>
        </g>
    </g>
</svg>
