<?xml version="1.0" standalone="no"?>
<!DOCTYPE svg PUBLIC "-//W3C//DTD SVG 1.1//EN" "http://www.w3.org/Graphics/SVG/1.1/DTD/svg11.dtd" >
<svg xmlns="http://www.w3.org/2000/svg" xmlns:xlink="http://www.w3.org/1999/xlink" version="1.1">
<metadata>
Created by FontForge 20170731 at Sun Feb 14 20:08:52 2021
 By Aleksey,,,
Copyright (c) 2005-2009 Parachute :, www.parachute.gr.  All rights reserved.
</metadata>
<defs>
<font id="PFEncoreSansPro-Hairline" horiz-adv-x="1116" >
  <font-face 
    font-family="PF Encore Sans Pro Hairline"
    font-weight="50"
    font-stretch="normal"
    units-per-em="2048"
    panose-1="2 0 5 6 4 0 0 2 0 4"
    ascent="1638"
    descent="-410"
    x-height="979"
    cap-height="1378"
    bbox="-250 -453 2226 1757"
    underline-thickness="20"
    underline-position="-204"
    unicode-range="U+0020-2212"
  />
<missing-glyph horiz-adv-x="876" 
d="M0 0v1432h877v-1432h-877zM438 702l-420 -690h836zM20 1419l418 -690l418 690h-836zM446 715l418 -690v1378zM430 715l-418 690v-1376z" />
    <glyph glyph-name="fj" unicode="fj" horiz-adv-x="864" 
d="M725 979v-1202q0 -108 -29.5 -152.5t-113.5 -44.5h-33v12h33q77 0 104 41.5t27 143.5v1190h-471v-967h-13v967h-192v12h192v221q0 146 77 212.5t233 66.5q62 0 149 -11v-12q-79 10 -149 10q-150 0 -223.5 -63t-73.5 -203v-221h483z" />
    <glyph glyph-name="ffj" unicode="ffj" horiz-adv-x="1347" 
d="M1196 967h-477v-967h-12v967h-482v-967h-12v967h-176v12h176v211q0 159 60 224t200 65q59 0 117 -15l-2 -10q-55 12 -115 12q-137 0 -192.5 -61t-55.5 -215v-211h482v262q0 146 76.5 212.5t232.5 66.5q62 0 149 -11v-12q-79 10 -149 10q-150 0 -223.5 -63t-73.5 -203
v-262h489v-1202q0 -108 -29.5 -152.5t-113.5 -44.5h-33v12h33q77 0 104 41.5t27 143.5v1190z" />
    <glyph glyph-name="fb" unicode="fb" horiz-adv-x="1628" 
d="M731 0h-12v1454q-79 12 -180 12q-297 0 -297 -266v-221h317v-12h-317v-967h-13v967h-192v12h192v221q0 279 310 279q104 0 192 -13v-813q29 159 133 247.5t262 88.5q104 0 181.5 -36t125 -103t70.5 -156.5t23 -201.5q0 -113 -23.5 -203t-72 -157.5t-129.5 -103.5
t-191 -36q-50 0 -94.5 8t-92 29.5t-84.5 55.5t-66 89t-42 127v-301zM731 522v-88q0 -106 25 -186t63 -125.5t91 -73t100 -36.5t100 -9q108 0 187 35.5t125.5 101.5t68.5 153t22 198q0 226 -93.5 355.5t-293.5 129.5q-61 0 -116.5 -14.5t-107 -49t-89 -86t-60 -129.5
t-22.5 -176z" />
    <glyph glyph-name="ffb" unicode="ffb" horiz-adv-x="2091" 
d="M1182 0v1495q-79 12 -181 12q-296 0 -296 -266v-262h317v-12h-317v-967h-13v967h-467v-967h-12v967h-176v12h176v211q0 159 60 224t200 65q59 0 117 -15l-2 -10q-55 12 -115 12q-137 0 -192.5 -61t-55.5 -215v-211h467v262q0 279 309 279q105 0 193 -13v-854
q29 159 133 247.5t262 88.5q104 0 181.5 -36t125 -103t70.5 -156.5t23 -201.5q0 -113 -23.5 -203t-72 -157.5t-129.5 -103.5t-191 -36q-50 0 -94.5 8t-92 29.5t-84.5 55.5t-66 89t-42 127v-301h-12zM1194 522v-88q0 -106 25 -186t63 -125.5t91 -73t100 -36.5t100 -9
q108 0 187 35.5t125.5 101.5t68.5 153t22 198q0 226 -93.5 355.5t-293.5 129.5q-61 0 -116.5 -14.5t-107 -49t-89 -86t-60 -129.5t-22.5 -176z" />
    <glyph glyph-name="fh" unicode="fh" horiz-adv-x="1593" 
d="M731 666q15 74 47.5 133t72 93.5t86.5 57.5t86.5 31t76.5 8q88 0 154.5 -22t107 -58t65.5 -90.5t34 -112.5t9 -131v-575h-12v575q0 70 -8.5 126t-32.5 109.5t-63 88.5t-103.5 56.5t-150.5 21.5q-39 0 -82 -9.5t-96 -40t-94 -77.5t-69 -130.5t-28 -191.5v-528h-12v1454
q-79 12 -180 12q-297 0 -297 -266v-221h317v-12h-317v-967h-13v967h-192v12h192v221q0 279 310 279q104 0 192 -13v-800z" />
    <glyph glyph-name="ffh" unicode="ffh" horiz-adv-x="2056" 
d="M1194 0h-12v1495q-79 12 -181 12q-296 0 -296 -266v-262h317v-12h-317v-967h-13v967h-467v-967h-12v967h-176v12h176v211q0 159 60 224t200 65q59 0 117 -15l-2 -10q-55 12 -115 12q-137 0 -192.5 -61t-55.5 -215v-211h467v262q0 279 309 279q105 0 193 -13v-841
q15 74 47.5 133t72 93.5t86.5 57.5t86.5 31t76.5 8q88 0 154.5 -22t107 -58t65.5 -90.5t34 -112.5t9 -131v-575h-12v575q0 70 -8.5 126t-32.5 109.5t-63 88.5t-103.5 56.5t-150.5 21.5q-39 0 -82 -9.5t-96 -40t-94 -77.5t-69 -130.5t-28 -191.5v-528z" />
    <glyph glyph-name="fk" unicode="fk" horiz-adv-x="1439" 
d="M1401 979h14l-362 -438l370 -541h-16l-365 535h-311v-535h-12v1454q-79 12 -180 12q-297 0 -297 -266v-221h317v-12h-317v-967h-13v967h-192v12h192v221q0 279 310 279q104 0 192 -13v-919h311z" />
    <glyph glyph-name="ffk" unicode="ffk" horiz-adv-x="1902" 
d="M1864 979h14l-362 -438l370 -541h-16l-365 535h-311v-535h-12v1495q-79 12 -181 12q-296 0 -296 -266v-262h317v-12h-317v-967h-13v967h-467v-967h-12v967h-176v12h176v211q0 159 60 224t200 65q59 0 117 -15l-2 -10q-55 12 -115 12q-137 0 -192.5 -61t-55.5 -215v-211
h467v262q0 279 309 279q105 0 193 -13v-960h311z" />
    <glyph glyph-name="r_y" unicode="ry" horiz-adv-x="1263" 
d="M528 989l351 -983h47l350 973h14l-409 -1135q-12 -33 -16.5 -45.5t-16.5 -41.5t-20 -42t-22.5 -36t-27 -34t-32 -26t-40 -22t-47.5 -12t-57 -5h-76v12h76q130 0 196 100q27 41 70 156l54 148h-52l-352 979q-41 -2 -82 -13t-91 -42.5t-88 -78.5t-63.5 -128.5t-25.5 -186.5
v-526h-12v979h12v-313q15 74 46.5 132.5t69 92.5t83.5 57t84.5 31.5t76.5 9.5z" />
    <glyph glyph-name="ff" unicode="ff" horiz-adv-x="1089" 
d="M1067 979v-12h-342v-967h-12v967h-488v-967h-12v967h-176v12h176v211q0 159 60 224t200 65q59 0 117 -15l-2 -10q-55 12 -115 12q-137 0 -192.5 -61t-55.5 -215v-211h488v252q0 160 59 224.5t201 64.5q59 0 117 -15l-3 -10q-55 12 -114 12q-137 0 -192.5 -61t-55.5 -215
v-252h342z" />
    <glyph glyph-name="fi" unicode="fi" horiz-adv-x="864" 
d="M37 967v12h192v221q0 146 77 212.5t233 66.5q62 0 149 -11v-12q-79 10 -149 10q-150 0 -223.5 -63t-73.5 -203v-221h483v-979h-12v967h-471v-967h-13v967h-192z" />
    <glyph glyph-name="fl" unicode="fl" horiz-adv-x="874" 
d="M37 967v12h192v221q0 279 310 279q104 0 192 -13v-1462h-12v1450q-79 12 -180 12q-297 0 -297 -266v-221h317v-12h-317v-967h-13v967h-192z" />
    <glyph glyph-name="ffi" unicode="ffi" horiz-adv-x="1347" 
d="M225 967v-967h-12v967h-176v12h176v211q0 159 60 224t200 65q59 0 117 -15l-2 -10q-55 12 -115 12q-137 0 -192.5 -61t-55.5 -215v-211h482v262q0 146 76.5 212.5t232.5 66.5q62 0 149 -11v-12q-79 10 -149 10q-150 0 -223.5 -63t-73.5 -203v-262h489v-979h-12v967h-477
v-967h-12v967h-482z" />
    <glyph glyph-name="ffl" unicode="ffl" horiz-adv-x="1337" 
d="M225 967v-967h-12v967h-176v12h176v211q0 159 60 224t200 65q59 0 117 -15l-2 -10q-55 12 -115 12q-137 0 -192.5 -61t-55.5 -215v-211h467v262q0 279 309 279q105 0 193 -13v-1503h-12v1491q-79 12 -181 12q-296 0 -296 -266v-262h317v-12h-317v-967h-13v967h-467z" />
    <glyph glyph-name="ft" unicode="ft" horiz-adv-x="1060" 
d="M1016 979v-12h-314v-691q0 -155 62 -213.5t199 -58.5q39 0 98 6v-12q-59 -6 -98 -6q-143 0 -208 61.5t-65 222.5v691h-465v-967h-12v967h-176v12h176v211q0 159 60 224t200 65q59 0 117 -15l-2 -10q-55 12 -115 12q-137 0 -192.5 -61t-55.5 -215v-211h465v268h12v-268
h314z" />
    <glyph glyph-name=".notdef" horiz-adv-x="876" 
d="M0 0v1432h877v-1432h-877zM438 702l-420 -690h836zM20 1419l418 -690l418 690h-836zM446 715l418 -690v1378zM430 715l-418 690v-1376z" />
    <glyph glyph-name=".null" horiz-adv-x="0" 
 />
    <glyph glyph-name="nonmarkingreturn" horiz-adv-x="682" 
 />
    <glyph glyph-name="space" unicode=" " horiz-adv-x="512" 
 />
    <glyph glyph-name="exclam" unicode="!" horiz-adv-x="448" 
d="M227 223h-12l-2 1200h18zM199 16q0 9 5 15t13 6q9 0 15 -6t6 -15q0 -8 -6 -13t-15 -5q-7 0 -12.5 5t-5.5 13z" />
    <glyph glyph-name="quotedbl" unicode="&#x22;" horiz-adv-x="489" 
d="M176 967h-10l-2 413h16zM322 967h-11l-2 413h17z" />
    <glyph glyph-name="numbersign" unicode="#" 
d="M92 891v12h275l75 438h13l-76 -438h418l75 438h13l-76 -438h276v-12h-278l-70 -406h275v-12h-277l-80 -473h-12l80 473h-418l-80 -473h-12l80 473h-264v12h266l70 406h-273zM377 891l-70 -406h418l70 406h-418z" />
    <glyph glyph-name="dollar" unicode="$" 
d="M621 -174v1669h12v-158q92 -8 162.5 -37.5t111.5 -72.5t61.5 -92.5t20.5 -104.5q0 -19 -2 -33h-12q2 12 2 31q0 53 -19.5 101.5t-59.5 90.5t-108 70.5t-157 36.5v-598q199 -32 301 -117t102 -243q0 -66 -21.5 -125.5t-67 -112.5t-126 -89t-188.5 -46v-170h-12zM498 1495
v-1669h-13v168q-202 13 -304.5 113.5t-102.5 254.5q0 17 4 37h12q-4 -24 -4 -37q0 -148 100 -246.5t295 -111.5v735q-89 16 -148 35t-106.5 51.5t-69.5 81.5t-22 119q0 120 87.5 206.5t258.5 104.5v158h13zM1024 369q0 150 -99 234t-292 116v-713q105 10 183 44.5t122 86
t65 109.5t21 123zM152 1026q0 -67 21.5 -114.5t68.5 -78t102.5 -48.5t140.5 -33v575q-164 -18 -248.5 -102.5t-84.5 -198.5z" />
    <glyph glyph-name="percent" unicode="%" horiz-adv-x="1556" 
d="M360 -63l-12 4l854 1501l12 -4zM389 1399q94 0 161 -33t103 -92t52 -127.5t16 -153.5q0 -78 -18 -146t-55.5 -125.5t-103.5 -90.5t-155 -33q-334 0 -334 393q0 190 80 299t254 109zM389 1386q-168 0 -244.5 -105.5t-76.5 -289.5q0 -381 321 -381q86 0 150 32.5t100 88.5
t53 121.5t17 140.5q0 64 -9 119t-31.5 106.5t-58 88t-92 58t-129.5 21.5zM1169 791q94 0 161 -33t103 -92t52 -127.5t16 -153.5q0 -78 -18 -146t-55.5 -125.5t-103.5 -90.5t-155 -33q-333 0 -333 393q0 191 79.5 299.5t253.5 108.5zM1169 778q-168 0 -244.5 -105.5
t-76.5 -289.5q0 -381 321 -381q86 0 150 32.5t100 88.5t53 121.5t17 140.5q0 64 -9 119t-31.5 106.5t-58 88t-92 58t-129.5 21.5z" />
    <glyph glyph-name="ampersand" unicode="&#x26;" horiz-adv-x="1501" 
d="M1137 1079l6 11q79 -41 130.5 -105t73 -134.5t21.5 -152.5q0 -109 -34.5 -212.5t-102.5 -192t-161.5 -155.5t-220 -105.5t-269.5 -38.5q-81 0 -150.5 10.5t-131 35.5t-104 63t-67.5 96.5t-25 132.5q0 60 21.5 117t51.5 100t82.5 91.5t93.5 80t106 76.5q40 28 52 36.5
t47 34.5t47.5 37.5t40.5 36.5t39 40t29 39.5t25 45t13 45.5t6 51q0 95 -59.5 155t-166.5 60q-68 0 -117.5 -24.5t-74 -64t-35 -77t-10.5 -75.5q0 -132 100 -300.5t258 -328.5t336 -302t352 -249l-6 -10q-137 84 -280.5 192t-282.5 237.5t-247.5 258.5t-175 261.5
t-66.5 240.5q0 39 11.5 79t37 81.5t77.5 67.5t123 26q114 0 176 -63t62 -165q0 -46 -18 -90t-42 -77.5t-69.5 -74t-80 -66t-93.5 -67.5q-51 -36 -74 -53t-68.5 -53t-68 -59.5t-54 -61t-47 -70t-27 -74t-11.5 -85.5q0 -89 36 -154t102 -101.5t146.5 -53.5t180.5 -17
q141 0 265 37t216.5 103t159.5 153t101 189t34 210q0 79 -21 148t-71.5 131t-126.5 102z" />
    <glyph glyph-name="quotesingle" unicode="'" horiz-adv-x="344" 
d="M176 967h-10l-2 413h16z" />
    <glyph glyph-name="parenleft" unicode="(" horiz-adv-x="540" 
d="M461 1466l8 -6q-162 -196 -251 -407.5t-89 -464.5q0 -225 89 -444t231 -400l-9 -8q-145 183 -234 403t-89 449q0 256 89 467.5t255 410.5z" />
    <glyph glyph-name="parenright" unicode=")" horiz-adv-x="540" 
d="M55 1460l8 6q166 -199 255.5 -410.5t89.5 -467.5q0 -229 -89.5 -448.5t-234.5 -403.5l-8 8q142 180 230.5 399t88.5 445q0 253 -89 464.5t-251 407.5z" />
    <glyph glyph-name="asterisk" unicode="*" horiz-adv-x="815" 
d="M414 1087l252 89l6 -19l-256 -82l170 -217l-19 -12l-159 223l-162 -221l-19 12l172 215l-256 82l9 21l251 -91l-2 275h21z" />
    <glyph glyph-name="plus" unicode="+" 
d="M565 559v-348h-14v348h-356v14h356v371h14v-371h355v-14h-355z" />
    <glyph glyph-name="comma" unicode="," horiz-adv-x="280" 
d="M76 -193l69 183q-11 0 -19.5 7t-8.5 19q0 11 8 19t18 8q11 0 19 -7.5t8 -17.5t-6 -22l-80 -193z" />
    <glyph glyph-name="hyphen" unicode="-" horiz-adv-x="917" 
d="M211 506v18h496v-18h-496z" />
    <glyph glyph-name="period" unicode="." horiz-adv-x="286" 
d="M117 16q0 11 8 19t18 8q11 0 19 -8.5t8 -18.5t-8 -18t-19 -8t-18.5 8t-7.5 18z" />
    <glyph glyph-name="slash" unicode="/" horiz-adv-x="958" 
d="M18 -94h-16l936 1577h14z" />
    <glyph glyph-name="zero" unicode="0" 
d="M559 1329q-131 0 -226.5 -50.5t-150.5 -144t-80.5 -212t-25.5 -267.5q0 -324 119 -487.5t364 -163.5q224 0 352.5 171.5t128.5 481.5q0 149 -27.5 269t-83.5 211.5t-150 141.5t-220 50zM559 1341q103 0 186 -33.5t140 -93.5t95 -146t55.5 -188t17.5 -223
q0 -316 -131.5 -490.5t-362.5 -174.5q-496 0 -496 663q0 121 16 222t52.5 188t93 147.5t141.5 94.5t193 34z" />
    <glyph glyph-name="one" unicode="1" 
d="M180 0v12h383v1299l-340 -54v13l340 53h12v-1311h359v-12h-754z" />
    <glyph glyph-name="two" unicode="2" 
d="M152 985h-13q-5 65 19 126t75.5 113.5t142.5 84.5t210 32q195 0 294 -82.5t99 -222.5q0 -51 -22.5 -102t-57 -93t-88 -87.5t-103.5 -80t-116 -75.5q-58 -36 -91.5 -57.5t-82.5 -54.5t-77 -55.5t-64.5 -55.5t-57.5 -60.5t-44 -63.5t-34.5 -71.5t-19.5 -78t-8 -89.5h903
v-12h-916v16q0 65 13 121t43 106.5t66 92t96 89t118 87t146 94.5q67 42 117 76t103.5 79t87 86t55.5 90.5t22 98.5q0 134 -96 213.5t-285 79.5q-116 0 -204.5 -30.5t-138.5 -81t-73 -110t-18 -122.5z" />
    <glyph glyph-name="three" unicode="3" 
d="M1004 1323v-12l-525 -516q27 4 76 4q68 0 133.5 -14.5t125 -45.5t104.5 -75.5t71.5 -109.5t26.5 -142q0 -187 -126 -303.5t-349 -116.5q-116 0 -206 31.5t-143 87t-76 127.5t-14 155h13q-9 -80 13 -150t73.5 -123.5t139 -84.5t200.5 -31q218 0 340.5 112.5t122.5 295.5
q0 93 -39 166.5t-104 117.5t-143 67t-163 23q-53 0 -90 -6l-6 11l528 520h-797v12h814z" />
    <glyph glyph-name="four" unicode="4" 
d="M827 1323h13v-932h235v-12h-235v-379h-13v379h-786v12q126 152 392.5 465t393.5 467zM827 1307l-770 -916h770v916z" />
    <glyph glyph-name="five" unicode="5" 
d="M526 848q98 0 182.5 -23.5t154.5 -71.5t110.5 -133t40.5 -198q0 -190 -125 -310t-350 -120q-119 0 -209 32.5t-142 88.5t-73.5 129t-10.5 157h13q-11 -81 10 -152t71.5 -125.5t138 -86t202.5 -31.5q219 0 340.5 117t121.5 301q0 110 -39.5 192.5t-108 129.5t-150.5 69.5
t-177 22.5q-147 0 -305 -48l-10 5l78 530h647v-12h-635l-76 -508q155 45 301 45z" />
    <glyph glyph-name="six" unicode="6" 
d="M567 819q-180 0 -306 -120.5t-126 -299.5q0 -171 112.5 -283t311.5 -112q207 0 324.5 117t117.5 303t-118.5 290.5t-315.5 104.5zM567 831q203 0 325 -107.5t122 -299.5t-121 -312t-334 -120q-174 0 -289 88q-87 65 -128.5 186.5t-41.5 319.5q0 115 15 218t52 203.5
t94.5 172.5t148.5 116.5t206 44.5q73 0 139.5 -18.5t123 -55.5t87.5 -103.5t25 -153.5h-12q5 66 -13 120.5t-53 91t-84 61t-102 35.5t-111 11q-113 0 -202 -43.5t-144.5 -114.5t-91.5 -169.5t-50.5 -200t-14.5 -215.5q0 -106 10 -191q2 101 40.5 185t100.5 138t140.5 83.5
t162.5 29.5z" />
    <glyph glyph-name="seven" unicode="7" 
d="M991 1323v-12l-649 -1311h-14l649 1311h-852v12h866z" />
    <glyph glyph-name="eight" unicode="8" 
d="M557 1341q104 0 184.5 -26.5t127 -70.5t69.5 -96.5t23 -109.5q0 -27 -7.5 -58t-31 -72.5t-60.5 -77t-103.5 -67.5t-152.5 -48q76 -11 139 -33t104 -49t71.5 -61t47.5 -65t27 -65.5t12.5 -57.5t2.5 -46q0 -67 -29 -128.5t-83.5 -110.5t-142.5 -78t-198 -29
q-214 0 -333.5 90.5t-119.5 251.5q0 36 8.5 74t35.5 86.5t70 89.5t120.5 77t177.5 54q-356 67 -356 319q0 56 24.5 109.5t71.5 98t125 72t176 27.5zM997 338q0 150 -107.5 249.5t-330.5 121.5q-207 -26 -324.5 -127t-117.5 -252q0 -69 24 -124.5t65 -92.5t97.5 -62
t119.5 -36t134 -11q123 0 222 38.5t158.5 115.5t59.5 180zM557 1329q-163 0 -274 -81t-111 -214q0 -255 385 -315q190 25 290.5 113t100.5 204q0 140 -108.5 216.5t-282.5 76.5z" />
    <glyph glyph-name="nine" unicode="9" 
d="M553 539q177 3 300.5 116.5t123.5 280.5q0 78 -27.5 148t-79 125t-134 87.5t-185.5 32.5q-104 0 -187.5 -33.5t-137 -91.5t-81.5 -133t-28 -160q0 -181 116 -276.5t320 -95.5zM1012 756v-39q0 -725 -500 -725q-185 0 -288 93.5t-83 250.5h13q-21 -147 76.5 -239.5
t283.5 -92.5q485 0 485 713q0 149 -10 223q-1 -93 -38.5 -171.5t-99 -130.5t-139 -81t-159.5 -31q-203 0 -326 97.5t-123 279.5q0 121 47 217t148 157t244 64q308 0 413 -239q53 -119 56 -346z" />
    <glyph glyph-name="colon" unicode=":" horiz-adv-x="286" 
d="M117 16q0 11 8 19t18 8q11 0 19 -8.5t8 -18.5t-8 -18t-19 -8t-18.5 8t-7.5 18zM117 743q0 11 8 19t18 8q11 0 19 -8t8 -19q0 -10 -8 -18t-19 -8t-18.5 7.5t-7.5 18.5z" />
    <glyph glyph-name="semicolon" unicode=";" horiz-adv-x="286" 
d="M117 743q0 11 8 19t18 8q11 0 19 -8t8 -19q0 -10 -8 -18t-19 -8t-18.5 7.5t-7.5 18.5zM76 -193l69 183q-11 0 -19.5 7t-8.5 19q0 11 8 19t18 8q11 0 19 -7.5t8 -17.5t-6 -22l-80 -193z" />
    <glyph glyph-name="less" unicode="&#x3c;" 
d="M924 205v-15l-734 361v12l734 361v-15l-717 -352z" />
    <glyph glyph-name="equal" unicode="=" 
d="M920 700h-725v15h725v-15zM920 393h-725v15h725v-15z" />
    <glyph glyph-name="greater" unicode="&#x3e;" 
d="M190 190v15l717 352l-717 352v15l734 -361v-12z" />
    <glyph glyph-name="question" unicode="?" horiz-adv-x="1114" 
d="M193 1081h-13q-4 53 5 101.5t36.5 94.5t72 80t115.5 54.5t162 20.5q189 0 278 -79.5t89 -209.5q0 -47 -14 -89t-43.5 -81t-55 -66t-69.5 -67q-45 -41 -73.5 -70t-64 -75.5t-55.5 -90t-34.5 -104t-14.5 -127.5v-154h-12v154q0 60 9 112t29.5 97.5t39.5 78.5t53.5 71.5
t55 58.5t59.5 57q40 39 55 53.5t45.5 49.5t43 59t23.5 60t11 73q0 125 -84.5 200.5t-270.5 75.5q-88 0 -156.5 -19.5t-111 -52t-69.5 -77t-36 -91.5t-5 -98zM485 16q0 9 5.5 15t13.5 6q20 0 20 -21q0 -18 -20 -18q-8 0 -13.5 5.5t-5.5 12.5z" />
    <glyph glyph-name="at" unicode="@" horiz-adv-x="1699" 
d="M563 829h-12q-3 57 21.5 101t66.5 68.5t89 36.5t95 12q279 0 279 -248v-324q0 -67 40 -108t109 -41q124 0 198.5 108t74.5 324q0 115 -36 212.5t-98.5 167.5t-145.5 119t-177.5 73t-194.5 24q-142 0 -270 -52t-223 -142.5t-151 -221.5t-56 -281q0 -222 88 -382.5
t246.5 -242t370.5 -81.5q228 0 419 74l4 -13q-188 -73 -423 -73q-216 0 -377 83t-250.5 246t-89.5 389q0 204 97 367.5t259 252.5t356 89q129 0 247 -39.5t211.5 -113.5t149.5 -192t56 -263q0 -222 -77.5 -333.5t-207.5 -111.5q-75 0 -118 44.5t-43 117.5v60
q-23 -78 -82 -136t-125 -84t-129 -26q-104 0 -170 49.5t-66 148.5q0 107 88.5 178.5t261.5 71.5q105 0 222 -24v86q0 235 -267 235q-46 0 -90.5 -11t-85 -34t-64 -64.5t-20.5 -95.5zM754 301q59 0 118.5 23.5t108 64t79 101.5t30.5 131v79q-122 25 -222 25
q-167 0 -252.5 -68.5t-85.5 -169.5q0 -93 63 -139.5t161 -46.5z" />
    <glyph glyph-name="A" unicode="A" horiz-adv-x="1120" 
d="M1092 0h-15l-149 389h-738l-147 -389h-12l518 1378h16zM557 1366l-362 -965h729z" />
    <glyph glyph-name="B" unicode="B" horiz-adv-x="1232" 
d="M143 1378h535q191 0 297 -88t106 -237q0 -50 -17 -102t-49.5 -100t-88 -83t-125.5 -45q66 -8 120.5 -33.5t91.5 -61t62.5 -79.5t37 -88.5t11.5 -89.5q0 -57 -12 -108t-43 -100t-78.5 -84.5t-123.5 -57t-173 -21.5h-551v1378zM1112 371q0 65 -22.5 124.5t-67 110t-121 81
t-174.5 30.5h-571v-705h538q95 0 169 20.5t120 54.5t76 82t41.5 97t11.5 105zM156 1366v-639h585q101 0 177.5 49t113.5 122.5t37 154.5q0 141 -101.5 227t-289.5 86h-522z" />
    <glyph glyph-name="C" unicode="C" horiz-adv-x="1226" 
d="M1104 1020h-12q8 72 -12.5 133t-61 101.5t-97.5 69t-118.5 41.5t-126.5 13q-115 0 -206 -33.5t-153.5 -94.5t-103.5 -149t-59.5 -192.5t-18.5 -230.5q0 -124 15.5 -223t52.5 -185t96 -143.5t150 -90t210 -32.5q238 0 357.5 111t103.5 278h13q16 -173 -107.5 -287
t-366.5 -114q-122 0 -214.5 33t-153 91t-98.5 145.5t-54 188.5t-16 228q0 161 31 288.5t96 224t173 148.5t253 52q66 0 130 -13.5t122 -43t100 -72t63 -105t13 -137.5z" />
    <glyph glyph-name="D" unicode="D" horiz-adv-x="1253" 
d="M532 0h-389v1378h387q80 0 157.5 -16.5t164 -63t150.5 -119.5t106.5 -197.5t42.5 -285.5q0 -118 -22.5 -217t-59.5 -169t-88.5 -125.5t-107 -89.5t-117.5 -56t-116.5 -30.5t-107.5 -8.5zM156 12h376q76 0 152 17t160 64.5t147.5 121t105.5 198t42 283.5q0 158 -41.5 281
t-104.5 194.5t-147.5 117t-160.5 61.5t-155 16h-374v-1354z" />
    <glyph glyph-name="E" unicode="E" horiz-adv-x="1064" 
d="M905 715v-13h-749v-690h852v-12h-865v1378h815v-12h-802v-651h749z" />
    <glyph glyph-name="F" unicode="F" horiz-adv-x="1017" 
d="M905 705v-13h-749v-692h-13v1378h836v-12h-823v-661h749z" />
    <glyph glyph-name="G" unicode="G" horiz-adv-x="1259" 
d="M721 659v11h420v-197q0 -62 -10 -120t-41.5 -126.5t-82 -118t-141 -83t-209.5 -33.5q-268 0 -401 167.5t-133 518.5q0 160 32 289t96 224.5t167.5 147.5t240.5 52q120 0 210 -31.5t139 -84.5t71 -114t17 -127h-13q4 51 -8 99t-43.5 93t-79.5 78.5t-123.5 53.5t-169.5 20
q-135 0 -237 -51t-164 -145t-92.5 -220t-30.5 -284q0 -346 129.5 -510t392.5 -164q83 0 152.5 17t117.5 45t84.5 67.5t58 80.5t35.5 89t18.5 88.5t4.5 81.5v186h-407z" />
    <glyph glyph-name="H" unicode="H" horiz-adv-x="1294" 
d="M143 1378h13v-663h983v663h12v-1378h-12v702h-983v-702h-13v1378z" />
    <glyph glyph-name="I" unicode="I" horiz-adv-x="380" 
d="M184 1378h13v-1378h-13v1378z" />
    <glyph glyph-name="J" unicode="J" horiz-adv-x="1067" 
d="M43 342h12q-5 -63 14.5 -119.5t65.5 -105t131 -77t199 -28.5q207 0 316.5 111t109.5 305v950h12v-950q0 -200 -112.5 -314t-325.5 -114q-117 0 -204.5 30t-134.5 80.5t-68 109t-15 122.5z" />
    <glyph glyph-name="K" unicode="K" horiz-adv-x="1083" 
d="M1063 0h-14l-517 705h-376v-705h-13v1378h13v-661h376l496 661h14l-499 -667z" />
    <glyph glyph-name="L" unicode="L" horiz-adv-x="1054" 
d="M1024 12v-12h-881v1378h13v-1366h868z" />
    <glyph glyph-name="M" unicode="M" horiz-adv-x="1583" 
d="M788 217h-8l-624 1135v-1352h-13v1378h11l630 -1142l643 1142h13v-1378h-13v1354z" />
    <glyph glyph-name="N" unicode="N" horiz-adv-x="1302" 
d="M143 1378h13l991 -1358v1358h12v-1378h-12l-991 1360v-1360h-13v1378z" />
    <glyph glyph-name="O" unicode="O" horiz-adv-x="1341" 
d="M678 1378q-116 0 -208 -35.5t-154 -97.5t-103 -150t-59.5 -190t-18.5 -221q0 -346 128 -513t396 -167q256 0 401.5 174.5t145.5 507.5q0 123 -17 225t-56.5 190t-99.5 148.5t-150 94.5t-205 34zM678 1391q117 0 209 -34.5t154 -96t102.5 -151t58 -194t17.5 -229.5
q0 -340 -149 -517t-411 -177q-275 0 -405.5 169.5t-130.5 522.5q0 122 18.5 225.5t61 193.5t106 153t157.5 99t212 36z" />
    <glyph glyph-name="P" unicode="P" horiz-adv-x="1120" 
d="M143 1378h488q205 0 321.5 -120t116.5 -306q0 -58 -11.5 -111.5t-42.5 -109.5t-78.5 -97t-126 -67t-179.5 -26h-475v-541h-13v1378zM631 1366h-475v-813h475q98 0 175 25t123 65t76 94t41 106.5t11 108.5q0 179 -114 296.5t-312 117.5z" />
    <glyph glyph-name="Q" unicode="Q" horiz-adv-x="1341" 
d="M678 1391q117 0 209 -34.5t154 -96t102.5 -151t58 -194t17.5 -229.5q0 -334 -143 -511t-396 -183q178 -93 420 -168l-6 -14q-280 91 -437 182q-273 0 -403.5 169.5t-130.5 522.5q0 122 18.5 225.5t61 193.5t106 153t157.5 99t212 36zM678 1378q-116 0 -208 -35.5
t-154 -97.5t-103 -150t-59.5 -190t-18.5 -221q0 -346 128 -513t396 -167q256 0 401.5 174.5t145.5 507.5q0 123 -17 225t-56.5 190t-99.5 148.5t-150 94.5t-205 34z" />
    <glyph glyph-name="R" unicode="R" horiz-adv-x="1099" 
d="M610 604h-63l469 -604h-15l-469 604h-376v-604h-13v1378h469q205 0 321 -106t116 -287q0 -54 -11.5 -104.5t-42.5 -102t-79 -89t-126.5 -61.5t-179.5 -24zM612 1366h-456v-750h456q97 0 172 22t121.5 57.5t77 85t42 99t11.5 105.5q0 175 -112.5 278t-311.5 103z" />
    <glyph glyph-name="S" unicode="S" horiz-adv-x="1189" 
d="M1040 1036h-12q2 12 2 31q0 61 -24.5 115.5t-73.5 100t-133.5 72.5t-194.5 27q-107 0 -190.5 -26t-134 -71t-76 -101t-25.5 -119q0 -34 5 -63t17.5 -52.5t26 -43t37.5 -35.5t44.5 -28t56 -23t62 -18.5t71.5 -15.5t76.5 -13t84.5 -13q213 -32 323 -121t110 -256
q0 -59 -16 -113t-53.5 -105.5t-94 -89t-144.5 -60.5t-198 -23q-239 0 -361.5 107t-122.5 278q0 15 4 39h13q-4 -28 -4 -39q0 -165 119 -270t352 -105q107 0 193 22t141 58.5t92 87t52 103t15 110.5q0 159 -106 247t-314 118q-76 11 -125.5 19t-106.5 21.5t-92.5 29t-71 38.5
t-54.5 52t-31 68.5t-12 88.5q0 139 111.5 233.5t326.5 94.5q91 0 165.5 -18.5t124.5 -49.5t84 -73t49 -88t15 -95q0 -19 -2 -33z" />
    <glyph glyph-name="T" unicode="T" horiz-adv-x="1060" 
d="M541 1366v-1366h-13v1366h-508v12h1020v-12h-499z" />
    <glyph glyph-name="U" unicode="U" horiz-adv-x="1327" 
d="M143 1378h13v-805q0 -135 25.5 -235.5t83 -177.5t158 -116.5t243.5 -39.5q134 0 233 42.5t157.5 121t86.5 180t28 227.5v803h13v-803q0 -129 -29 -232.5t-89.5 -183.5t-162 -123.5t-237.5 -43.5q-117 0 -206.5 27t-149 75.5t-97.5 121.5t-54 160t-16 197v805z" />
    <glyph glyph-name="V" unicode="V" horiz-adv-x="1130" 
d="M1096 1378h14l-545 -1378h-10l-535 1378h15l526 -1360z" />
    <glyph glyph-name="W" unicode="W" horiz-adv-x="1759" 
d="M874 1378h13l452 -1360l385 1360h15l-393 -1378h-11l-454 1360l-457 -1360h-10l-394 1378h15l385 -1360z" />
    <glyph glyph-name="X" unicode="X" horiz-adv-x="1097" 
d="M27 0l514 713l-475 665h14l469 -655l471 655h14l-479 -663l512 -715h-14l-506 705l-508 -705h-12z" />
    <glyph glyph-name="Y" unicode="Y" horiz-adv-x="993" 
d="M963 1378h14l-481 -790v-588h-13v588l-467 790h15l458 -776z" />
    <glyph glyph-name="Z" unicode="Z" horiz-adv-x="1019" 
d="M20 0v12l932 1354h-884v12h899v-12l-930 -1354h962v-12h-979z" />
    <glyph glyph-name="bracketleft" unicode="[" horiz-adv-x="530" 
d="M184 -254v1708h244v-12h-231v-1684h231v-12h-244z" />
    <glyph glyph-name="backslash" unicode="\" horiz-adv-x="958" 
d="M952 -94h-16l-934 1577h14z" />
    <glyph glyph-name="bracketright" unicode="]" horiz-adv-x="530" 
d="M342 1454v-1708h-244v12h232v1684h-232v12h244z" />
    <glyph glyph-name="asciicircum" unicode="^" horiz-adv-x="1171" 
d="M1010 569h-15l-401 791q-67 -132 -201 -395.5t-200 -395.5h-15l408 803h16z" />
    <glyph glyph-name="underscore" unicode="_" horiz-adv-x="1024" 
d="M0 -178v14h1024v-14h-1024z" />
    <glyph glyph-name="grave" unicode="`" horiz-adv-x="960" 
d="M733 1139l-8 -6l-221 245l14 13z" />
    <glyph glyph-name="a" unicode="a" horiz-adv-x="960" 
d="M842 0h-13v258q-35 -118 -140 -192t-279 -74q-139 0 -228.5 65t-89.5 199q0 68 28 127t83 106t147.5 74t212.5 27q105 0 266 -31v96q0 32 -2 57t-9.5 60t-20.5 61.5t-37.5 55t-57.5 46.5t-84 30t-114 12q-85 0 -149.5 -21.5t-99 -57t-50 -77t-12.5 -86.5h-13
q-4 46 12 89.5t52.5 81t103.5 60.5t156 23q90 0 155.5 -23.5t100 -56.5t54 -82.5t24 -87t4.5 -84.5v-655zM410 4q196 0 307.5 99t111.5 259v185q-164 31 -266 31q-117 0 -207 -26.5t-144 -72t-81 -102t-27 -121.5q0 -128 86.5 -190t219.5 -62z" />
    <glyph glyph-name="b" unicode="b" horiz-adv-x="1032" 
d="M135 0h-12v1470h12v-817q29 159 133 247.5t262 88.5q104 0 181.5 -36t125 -103t70.5 -156.5t23 -201.5q0 -113 -23.5 -203t-72 -157.5t-129.5 -103.5t-191 -36q-50 0 -94.5 8t-92 29.5t-84.5 55.5t-66 89t-42 127v-301zM135 522v-88q0 -106 25 -186t63 -125.5t91 -73
t100 -36.5t100 -9q108 0 187 35.5t126 101.5t69 153t22 198q0 226 -94 355.5t-294 129.5q-61 0 -116.5 -14.5t-107 -49t-89 -86t-60 -129.5t-22.5 -176z" />
    <glyph glyph-name="c" unicode="c" horiz-adv-x="917" 
d="M840 737h-13q3 56 -15 99.5t-49 69.5t-75 42.5t-87 22.5t-91 6q-86 0 -154.5 -28t-113 -75t-73.5 -112t-41.5 -134.5t-12.5 -146.5q0 -107 17.5 -188t49 -135.5t80.5 -89t108.5 -49.5t135.5 -15q79 0 140.5 17t99 44.5t60.5 65t31 75.5t5 79h12q3 -54 -12 -102.5t-52 -93
t-110 -71t-174 -26.5q-201 0 -302.5 111.5t-101.5 377.5q0 100 21.5 187t67.5 161t127.5 117t191.5 43q64 0 119.5 -11.5t107.5 -38t80 -78.5t23 -124z" />
    <glyph glyph-name="d" unicode="d" horiz-adv-x="1032" 
d="M909 0h-12v324q-65 -332 -397 -332q-110 0 -188 34.5t-123.5 101t-66 153.5t-20.5 202q0 87 14.5 162t46.5 139t79.5 109t117 70.5t156.5 25.5q157 0 255 -86.5t126 -247.5v815h12v-1470zM897 471v51q0 119 -29.5 208.5t-83 142.5t-120.5 78.5t-148 25.5
q-106 0 -185 -38.5t-125 -107t-68.5 -155.5t-22.5 -193q0 -113 20.5 -198.5t65 -149.5t119.5 -97.5t180 -33.5q89 0 159.5 25.5t124.5 79.5t83.5 145.5t29.5 216.5z" />
    <glyph glyph-name="e" unicode="e" horiz-adv-x="966" 
d="M516 977q-383 0 -401 -457h745q18 122 -12 224t-115.5 167.5t-216.5 65.5zM514 -8q-100 0 -174 24.5t-119 66t-72 107.5t-37 138t-10 168q0 106 22.5 193t70 155.5t129.5 106.5t192 38q82 0 148.5 -25.5t109 -70.5t70.5 -106t32 -131.5t-6 -147.5h-755v-12
q0 -94 9.5 -164t35 -134.5t69.5 -105t115.5 -64.5t169.5 -24q79 0 141.5 19t100.5 49.5t62.5 71t33.5 80.5t6 81h12q3 -42 -6 -83.5t-34.5 -84t-65 -74t-104.5 -51.5t-146 -20z" />
    <glyph glyph-name="f" unicode="f" horiz-adv-x="589" 
d="M567 979v-12h-342v-967h-12v967h-176v12h176v211q0 159 60 224t200 65q59 0 117 -15l-2 -10q-55 12 -115 12q-137 0 -192.5 -61t-55.5 -215v-211h342z" />
    <glyph glyph-name="g" unicode="g" horiz-adv-x="1005" 
d="M121 225q0 77 115 140q-68 41 -102 113t-34 159q0 159 106.5 255.5t282.5 96.5q55 0 113 -10h299v-12h-248q116 -36 182 -120.5t66 -207.5q0 -69 -25 -131t-73 -110t-125 -76.5t-174 -28.5q-153 0 -258 63q-113 -58 -113 -131q0 -32 24 -56t74 -40t98.5 -25.5
t123.5 -19.5l108 -14q96 -13 163 -29.5t121.5 -44t81.5 -70.5t27 -102q0 -66 -38 -116.5t-106 -80t-154 -44.5t-189 -15q-147 0 -236.5 30.5t-124 81t-34.5 125.5q0 84 59 161t160 134q-85 20 -127.5 49t-42.5 76zM889 639q0 156 -109.5 247t-290.5 91q-172 0 -274 -95
t-102 -245q0 -86 31.5 -151t86 -104t123.5 -58t150 -19q96 0 171.5 28.5t121 76t69 106t23.5 123.5zM305 96q-103 -56 -162 -131.5t-59 -159.5q0 -109 86.5 -167t296.5 -58q135 0 238.5 24t170 80t66.5 140q0 45 -18 80t-49 59.5t-80 43t-104 30.5t-128 22q-170 21 -258 37z
" />
    <glyph glyph-name="h" unicode="h" horiz-adv-x="997" 
d="M135 0h-12v1470h12v-804q15 74 47.5 133t72 93.5t86.5 57.5t86.5 31t76.5 8q88 0 154.5 -22t107 -58t65.5 -90.5t34 -112.5t9 -131v-575h-12v575q0 70 -8.5 126t-32.5 109.5t-63 88.5t-103.5 56.5t-150.5 21.5q-39 0 -82 -9.5t-96 -40t-94 -77.5t-69 -130.5t-28 -191.5
v-528z" />
    <glyph glyph-name="i" unicode="i" horiz-adv-x="342" 
d="M166 979h12v-979h-12v979zM152 1272q0 7 5 12.5t15 5.5q8 0 13 -5.5t5 -12.5q0 -8 -5.5 -13.5t-12.5 -5.5q-8 0 -14 5t-6 14z" />
    <glyph glyph-name="j" unicode="j" horiz-adv-x="370" 
d="M184 979h13v-1202q0 -108 -30 -152.5t-114 -44.5h-33v12h33q77 0 104 41.5t27 143.5v1202zM170 1272q0 7 5 12.5t15 5.5q8 0 13.5 -5.5t5.5 -12.5q0 -8 -6 -13.5t-13 -5.5q-8 0 -14 5t-6 14z" />
    <glyph glyph-name="k" unicode="k" horiz-adv-x="843" 
d="M805 979h14l-362 -438l370 -541h-16l-365 535h-311v-535h-12v1470h12v-923h311z" />
    <glyph glyph-name="l" unicode="l" horiz-adv-x="317" 
d="M143 1470h13v-1351q0 -57 24 -82t101 -25v-12q-84 0 -111 27t-27 92v1351z" />
    <glyph glyph-name="m" unicode="m" horiz-adv-x="1695" 
d="M854 0h-12v580q0 70 -7.5 124t-30 107t-60 88t-101 56.5t-149.5 21.5q-41 0 -83.5 -9.5t-94 -40t-90 -77.5t-65 -130.5t-26.5 -191.5v-528h-12v979h12v-313q12 63 35.5 115t55 86t65.5 59t71.5 38t69.5 19t62 6q97 0 167 -26.5t110 -75.5t59 -109.5t22 -138.5
q11 80 41 143.5t68.5 101.5t85.5 62.5t86.5 33.5t76.5 9q88 0 153.5 -22t105 -58t63.5 -91t32.5 -112.5t8.5 -130.5v-575h-12v575q0 71 -8 126.5t-30.5 109t-60 88.5t-101 56.5t-149.5 21.5q-39 0 -81 -9.5t-93.5 -40t-90.5 -77.5t-66 -130.5t-27 -191.5v-528z" />
    <glyph glyph-name="n" unicode="n" horiz-adv-x="997" 
d="M135 0h-12v979h12v-313q15 74 47.5 133t72 93.5t86.5 57.5t86.5 31t76.5 8q88 0 154.5 -22t107 -58t65.5 -90.5t34 -112.5t9 -131v-575h-12v575q0 70 -8.5 126t-32.5 109.5t-63 88.5t-103.5 56.5t-150.5 21.5q-39 0 -82 -9.5t-96 -40t-94 -77.5t-69 -130.5t-28 -191.5
v-528z" />
    <glyph glyph-name="o" unicode="o" horiz-adv-x="1013" 
d="M510 977q-105 0 -182.5 -37.5t-123 -106t-67.5 -156.5t-22 -198q0 -242 93 -358.5t302 -116.5q181 0 285 121.5t104 361.5q0 107 -21 193t-65.5 154t-121.5 105.5t-181 37.5zM510 989q86 0 154.5 -25.5t114.5 -69.5t76 -108t43 -138t13 -161q0 -246 -106.5 -370.5
t-294.5 -124.5q-216 0 -312 119.5t-96 367.5q0 89 14 165t45 140.5t78 109t115.5 70t155.5 25.5z" />
    <glyph glyph-name="p" unicode="p" horiz-adv-x="1032" 
d="M123 981h12v-324q67 332 402 332q200 0 296.5 -130t96.5 -361q0 -111 -22 -200t-69.5 -159t-129 -108.5t-193.5 -38.5q-158 0 -256.5 85t-124.5 249v-746h-12v1401zM135 510v-51q0 -120 29 -209t81.5 -142t120 -78.5t150.5 -25.5q87 0 156 25.5t114.5 70t75.5 107.5
t43 135t13 156q0 226 -94.5 352.5t-286.5 126.5q-87 0 -157 -24.5t-126.5 -77t-87.5 -145.5t-31 -220z" />
    <glyph glyph-name="q" unicode="q" horiz-adv-x="1032" 
d="M897 981h12v-1401h-12v748q-29 -158 -134 -247t-261 -89q-400 0 -400 497q0 113 23.5 203t72 157.5t129.5 103.5t191 36q62 0 118.5 -16t111 -51t94 -100t55.5 -154v313zM897 459v71q0 106 -25 187.5t-63 129.5t-90.5 78.5t-100.5 41t-100 10.5q-108 0 -187 -35.5
t-125.5 -101.5t-68.5 -153t-22 -198q0 -485 387 -485q61 0 116.5 14.5t107 49t89 86t60 129.5t22.5 176z" />
    <glyph glyph-name="r" unicode="r" horiz-adv-x="559" 
d="M537 989v-14q-41 0 -84 -9.5t-96 -39.5t-93.5 -76.5t-68 -130t-27.5 -191.5v-528h-12v979h12v-313q15 74 47.5 133t72 93.5t86.5 57.5t86.5 31t76.5 8z" />
    <glyph glyph-name="s" unicode="s" horiz-adv-x="911" 
d="M444 -8q-174 0 -270.5 89.5t-77.5 217.5h13q-19 -123 74 -209t261 -86q99 0 171.5 21.5t113 59t59.5 82t19 97.5q0 60 -23 105t-66.5 74t-96 46.5t-121.5 28.5q-76 12 -120.5 21t-94 27t-75.5 41.5t-43 62t-17 90.5q0 99 77.5 164t229.5 65q95 0 162.5 -22t101 -59.5
t46 -80t7.5 -92.5h-12q4 48 -8 88.5t-43.5 76.5t-96 56.5t-157.5 20.5q-149 0 -222 -61.5t-73 -155.5q0 -42 9.5 -73.5t32.5 -54.5t47.5 -38t69.5 -27.5t81.5 -19.5t99.5 -17q151 -24 234 -86t83 -180q0 -117 -91.5 -194.5t-283.5 -77.5z" />
    <glyph glyph-name="t" unicode="t" horiz-adv-x="591" 
d="M547 979v-12h-314v-691q0 -155 62 -213.5t199 -58.5q40 0 98 6v-12q-58 -6 -98 -6q-143 0 -208 61.5t-65 222.5v691h-190v12h190v268h12v-268h314z" />
    <glyph glyph-name="u" unicode="u" horiz-adv-x="987" 
d="M852 979h12v-977h-12v313q-15 -74 -47.5 -133t-72 -93.5t-86.5 -57.5t-86.5 -31t-76.5 -8q-89 0 -155 22t-104.5 57.5t-62 91t-31 112.5t-7.5 131v573h12v-573q0 -72 7 -126.5t29 -109t59.5 -89t101 -56t151.5 -21.5q39 0 82 9.5t96 40t94 77.5t69 130.5t28 191.5v526z
" />
    <glyph glyph-name="v" unicode="v" horiz-adv-x="833" 
d="M422 0h-16l-390 979h13l385 -969l387 969h12z" />
    <glyph glyph-name="w" unicode="w" horiz-adv-x="1353" 
d="M336 0h-17l-299 979h13l295 -969l338 969h12l334 -969l299 969h12l-303 -979h-16l-332 963z" />
    <glyph glyph-name="x" unicode="x" horiz-adv-x="800" 
d="M20 0l369 502l-350 477h14l342 -469l346 469h15l-353 -475l373 -504h-14l-365 494l-362 -494h-15z" />
    <glyph glyph-name="y" unicode="y" horiz-adv-x="806" 
d="M776 979h15l-410 -1135q-12 -33 -16.5 -45.5t-16.5 -41.5t-20 -42t-22.5 -36t-27 -34t-32 -26t-40 -22t-47.5 -12t-57 -5h-75v12h75q61 0 105 17.5t75 61t44.5 72.5t38.5 95q1 2 1.5 3.5l1 3t1.5 3.5l53 148h-51l-355 983h15l348 -973h47z" />
    <glyph glyph-name="z" unicode="z" horiz-adv-x="774" 
d="M16 0v12l709 955h-651v12h667v-12l-706 -955h708v-12h-727z" />
    <glyph glyph-name="braceleft" unicode="{" horiz-adv-x="634" 
d="M223 616v9q35 11 57.5 35t32 59.5t12.5 65.5t3 73v371q0 31 1 51t4.5 49t12.5 47t23 36t37.5 27t54.5 9h71v-12h-71q-34 0 -57.5 -13.5t-35.5 -31.5t-19 -49.5t-8 -54t-1 -58.5v-371q0 -94 -19.5 -153.5t-76.5 -83.5q33 -15 53.5 -40t29 -62.5t11 -68t2.5 -81.5v-400
q0 -36 1 -58.5t8 -54t19 -49.5t35.5 -31.5t57.5 -13.5h71v-12h-71q-31 0 -54.5 9t-37.5 27t-23 36t-12.5 47t-4.5 49t-1 51v400q0 39 -1 64.5t-7 58.5t-16.5 55t-31 41t-49.5 28z" />
    <glyph glyph-name="bar" unicode="|" horiz-adv-x="477" 
d="M233 -254v1722h13v-1722h-13z" />
    <glyph glyph-name="braceright" unicode="}" horiz-adv-x="634" 
d="M428 625v-9q-29 -9 -49 -28.5t-30.5 -40.5t-16.5 -55t-7 -59t-1 -64v-400q0 -26 -0.5 -43.5t-3.5 -42.5t-8 -42t-15 -35.5t-24 -29.5t-35 -18.5t-48 -7.5h-71v12h71q34 0 57.5 13.5t35.5 31.5t19 49.5t8 54t1 58.5v400q0 103 17.5 163.5t79.5 88.5q-58 24 -77.5 83.5
t-19.5 153.5v371q0 36 -1 58.5t-8 54t-19 49.5t-35.5 31.5t-57.5 13.5h-71v12h71q27 0 48 -7.5t35 -18.5t24 -29.5t15 -35.5t8 -42t3.5 -42.5t0.5 -43.5v-371q0 -44 3 -73.5t12 -65t31.5 -59.5t57.5 -35z" />
    <glyph glyph-name="asciitilde" unicode="~" 
d="M971 643l12 -4q-37 -76 -101 -111.5t-137 -35.5q-79 0 -217 69q-52 24 -72.5 33t-60 21t-65.5 12q-60 0 -103.5 -25t-83.5 -94l-12 8q43 72 89 97.5t110 25.5q29 0 67.5 -11t62.5 -22l72 -33q142 -69 213 -69q69 0 130.5 33.5t95.5 105.5z" />
    <glyph glyph-name="exclamdown" unicode="&#xa1;" horiz-adv-x="448" 
d="M215 758h12l4 -1200h-18zM199 965q0 7 5.5 12.5t12.5 5.5q9 0 15 -5t6 -13q0 -9 -6 -15t-15 -6q-8 0 -13 6t-5 15z" />
    <glyph glyph-name="cent" unicode="&#xa2;" 
d="M920 920h-13q3 56 -14.5 99t-48.5 69t-74.5 42.5t-86.5 22.5t-91 6v-973q77 1 137.5 18t97 44.5t59.5 64.5t31 75t5 79h12q3 -54 -12 -102.5t-51.5 -92.5t-108 -70.5t-170.5 -27.5v-276h-10v276q-199 0 -299.5 112.5t-100.5 377.5q0 79 12.5 149.5t42.5 136.5t75 113.5
t114 77t156 30.5v224h10v-224q64 0 119.5 -11.5t106.5 -38t79 -78t23 -123.5zM195 664q0 -132 25.5 -225.5t77 -148.5t121 -79.5t163.5 -24.5v973q-85 -2 -152 -31t-110.5 -75.5t-72 -111t-40.5 -133t-12 -144.5z" />
    <glyph glyph-name="sterling" unicode="&#xa3;" 
d="M106 711v12h162q-47 159 -47 270q0 159 98 253.5t293 94.5q197 0 294 -81t87 -191h-12q10 106 -84 183t-285 77q-189 0 -284 -91.5t-95 -244.5q0 -114 50 -270h415v-12h-411q49 -145 49 -269q0 -101 -36.5 -218.5t-98.5 -211.5h778v-12h-875v12h82q63 93 100.5 211.5
t37.5 218.5q0 51 -8.5 102t-17.5 82.5t-26 84.5h-166z" />
    <glyph glyph-name="currency" unicode="&#xa4;" 
d="M913 229l-8 -8l-123 121q-91 -94 -229 -94q-132 0 -223 88l-115 -115l-8 8l115 115q-89 89 -89 217q0 129 84 219l-110 115l8 8l111 -115q95 95 227 95q139 0 233 -101l119 121l8 -8l-120 -123q77 -86 77 -211q0 -122 -79 -211zM246 561q0 -125 90 -213t217 -88
q128 0 216.5 88t88.5 213q0 129 -88 219t-217 90q-128 0 -217.5 -90t-89.5 -219z" />
    <glyph glyph-name="yen" unicode="&#xa5;" 
d="M129 410h864v-11h-438v-399h-12v399h-414v11zM993 573h-864v11h410l-428 745h14l426 -743l438 743h15l-441 -745h430v-11z" />
    <glyph glyph-name="brokenbar" unicode="&#xa6;" horiz-adv-x="477" 
d="M231 526h13v-780h-13v780zM244 739h-13v729h13v-729z" />
    <glyph glyph-name="section" unicode="&#xa7;" horiz-adv-x="1028" 
d="M145 604q0 -248 484 -321q111 20 188.5 98.5t77.5 173.5q0 128 -125.5 204.5t-378.5 119.5q-111 -32 -178.5 -112.5t-67.5 -162.5zM489 -254q-68 0 -131.5 16t-117 48t-85 85t-28.5 121h12q-6 -107 89.5 -182.5t260.5 -75.5q168 0 268.5 74t100.5 195q0 93 -64.5 156.5
t-166.5 84.5q-188 39 -275 74q-219 90 -219 262q0 82 63.5 162t180.5 119q-100 32 -151.5 91.5t-51.5 137.5q0 48 18 94t56.5 88.5t110 68.5t167.5 26q91 0 170.5 -29.5t131.5 -92t49 -145.5h-13q2 45 -17.5 88.5t-59.5 81t-108.5 61t-154.5 23.5q-157 0 -247.5 -73
t-90.5 -191q0 -93 70 -151t166 -78q56 -12 93.5 -20.5t93 -24.5t93 -32.5t79.5 -42.5t67 -55t42 -69t17 -86q0 -83 -66 -165.5t-190 -115.5q113 -31 166 -100t53 -151q0 -47 -20.5 -93t-63 -88.5t-119.5 -69t-178 -26.5z" />
    <glyph glyph-name="dieresis" unicode="&#xa8;" horiz-adv-x="958" 
d="M330 1204q0 7 6 13t14 6t13.5 -6t5.5 -13q0 -18 -19 -18q-20 0 -20 18zM631 1204q0 7 5 13t15 6q7 0 12 -6t5 -13q0 -18 -17 -18q-20 0 -20 18z" />
    <glyph glyph-name="copyright" unicode="&#xa9;" horiz-adv-x="1656" 
d="M1186 492h12q3 -64 -17.5 -116.5t-57.5 -87t-87 -58t-102.5 -34t-106.5 -10.5q-228 0 -328 122t-100 380q0 85 13 158.5t45 141.5t80.5 116.5t124 77t172.5 28.5q171 0 265 -73t81 -201h-13q13 122 -78 192t-255 70q-94 0 -168 -28t-121 -75.5t-77.5 -114t-43 -138.5
t-12.5 -154q0 -252 96.5 -370.5t318.5 -118.5q53 0 104 10t99 32.5t83.5 55.5t55.5 83t17 112zM834 1460q-199 0 -362.5 -96.5t-256 -263.5t-92.5 -369q0 -328 198 -530.5t513 -202.5q193 0 355.5 97t257.5 266t95 370q0 200 -95 368t-257.5 264.5t-355.5 96.5zM834 1473
q147 0 280.5 -58t229.5 -156.5t153 -236.5t57 -291q0 -154 -57 -292.5t-153 -237.5t-229.5 -157t-280.5 -58q-211 0 -375.5 92t-256 262t-91.5 391q0 154 55 291t150.5 236t230 157t287.5 58z" />
    <glyph glyph-name="ordfeminine" unicode="&#xaa;" horiz-adv-x="661" 
d="M328 1255q133 0 191.5 -60.5t58.5 -160.5v-420h-13v168q-19 -57 -57.5 -96t-86 -55t-82.5 -21.5t-71 -5.5q-91 0 -150 40.5t-59 125.5q0 92 80.5 152.5t235.5 60.5q82 0 190 -18v67q0 211 -235 211q-114 0 -169 -45.5t-52 -118.5h-11q-3 48 17 84t55.5 55t75 28t82.5 9z
M270 616q84 0 145.5 24.5t92 64t44 78.5t13.5 79v90q-100 19 -192 19q-148 0 -224.5 -57.5t-76.5 -143.5q0 -73 50.5 -113.5t147.5 -40.5z" />
    <glyph glyph-name="guillemotleft" unicode="&#xab;" horiz-adv-x="784" 
d="M453 66l-326 383v12l309 387l8 -6l-301 -387l318 -383zM672 66l-326 383v12l309 387l9 -6l-302 -387l318 -383z" />
    <glyph glyph-name="logicalnot" unicode="&#xac;" 
d="M920 573v-362h-15v348h-710v14h725z" />
    <glyph glyph-name="sfthyphen" unicode="&#xad;" horiz-adv-x="917" 
d="M211 506v18h496v-18h-496z" />
    <glyph glyph-name="registered" unicode="&#xae;" horiz-adv-x="1153" 
d="M780 662h-14l-129 249h-10h-191v-249h-12v565h186q76 0 125 -41t49 -119q0 -53 -35.5 -100.5t-97.5 -55.5zM610 1214h-174v-290h191q67 0 106 44t39 99q0 72 -46 109.5t-116 37.5zM575 1421q216 0 349 -140.5t133 -346.5q0 -131 -64 -241t-175 -174t-243 -64
q-216 0 -347.5 137t-131.5 342q0 133 61.5 244.5t172 177t245.5 65.5zM575 1409q-131 0 -238.5 -64.5t-167.5 -173t-60 -237.5q0 -199 128 -333t338 -134q128 0 236 62.5t170.5 170t62.5 234.5q0 130 -56.5 238t-164.5 172.5t-248 64.5z" />
    <glyph glyph-name="macron" unicode="&#xaf;" horiz-adv-x="958" 
d="M219 1212v17h559v-17h-559z" />
    <glyph glyph-name="degree" unicode="&#xb0;" horiz-adv-x="825" 
d="M408 1325q-86 0 -146.5 -59t-60.5 -150q0 -87 57 -145t150 -58q91 0 154 59t63 144q0 90 -62.5 149.5t-154.5 59.5zM408 1337q98 0 163.5 -62.5t65.5 -158.5q0 -91 -66 -153t-163 -62q-99 0 -159.5 61t-60.5 154q0 97 64 159t156 62z" />
    <glyph glyph-name="plusminus" unicode="&#xb1;" 
d="M199 14h725v-14h-725v14zM569 535v-349h-14v349h-356v14h356v371h14v-371h355v-14h-355z" />
    <glyph glyph-name="twosuperior" unicode="&#xb2;" horiz-adv-x="761" 
d="M670 805v-12h-611v26q0 39 8 71t28.5 61.5t42.5 52t64 51t77.5 50t97.5 56.5q56 31 93 54.5t75 55t57 65.5t19 71q0 76 -62 120t-184 44q-139 0 -203.5 -52.5t-62.5 -134.5h-13q-2 89 66 144t213 55q128 0 193 -47t65 -129q0 -39 -20 -75.5t-60 -69.5t-78 -57.5
t-94 -55.5q-85 -47 -133.5 -78t-93 -71.5t-63.5 -83.5t-19 -97v-14h598z" />
    <glyph glyph-name="threesuperior" unicode="&#xb3;" horiz-adv-x="761" 
d="M662 1573v-12l-322 -289h33q135 0 219 -66t84 -172q0 -114 -86 -183t-234 -69q-47 0 -95 10t-97 32t-76 67t-18 106h12q-8 -58 17.5 -100.5t73 -63t93 -29.5t90.5 -9q141 0 224.5 66t83.5 173q0 100 -81 163t-210 63q-19 0 -49 -3l-7 11l328 293h-528v12h545z" />
    <glyph glyph-name="acute" unicode="&#xb4;" horiz-adv-x="958" 
d="M459 1139l-8 6l215 252l14 -13z" />
    <glyph glyph-name="mu" unicode="&#xb5;" horiz-adv-x="987" 
d="M123 -420v1399h12v-573q0 -72 7 -126.5t29 -109t59.5 -89t101 -56t151.5 -21.5q39 0 82 9.5t96 40t94 77.5t69 130.5t28 191.5v526h12v-977h-12v313q-15 -74 -47.5 -133t-72 -93.5t-86.5 -57.5t-86.5 -31t-76.5 -8q-165 0 -244.5 67t-103.5 191v-670h-12z" />
    <glyph glyph-name="mu" unicode="&#x3bc;" horiz-adv-x="987" 
d="M123 -420v1399h12v-573q0 -72 7 -126.5t29 -109t59.5 -89t101 -56t151.5 -21.5q39 0 82 9.5t96 40t94 77.5t69 130.5t28 191.5v526h12v-977h-12v313q-15 -74 -47.5 -133t-72 -93.5t-86.5 -57.5t-86.5 -31t-76.5 -8q-165 0 -244.5 67t-103.5 191v-670h-12z" />
    <glyph glyph-name="paragraph" unicode="&#xb6;" horiz-adv-x="817" 
d="M637 1448h12v-1444q0 -164 -56 -228.5t-185 -64.5h-35v13h35q123 0 176 61t53 219v1444zM571 745h-94q-172 0 -273.5 100.5t-101.5 252.5q0 147 104 248.5t271 101.5h94v-703z" />
    <glyph glyph-name="periodcentered" unicode="&#xb7;" horiz-adv-x="286" 
d="M117 565q0 11 8 19t18 8q11 0 19 -8t8 -19q0 -10 -8 -18t-19 -8t-18.5 7.5t-7.5 18.5z" />
    <glyph glyph-name="cedilla" unicode="&#xb8;" horiz-adv-x="966" 
d="M444 -145l-8 8l80 137l10 -4l-73 -127q30 10 69 10q62 0 110 -36t48 -99q0 -59 -49 -99t-133 -40q-66 0 -146 26l4 13q83 -27 142 -27q82 0 125 36t43 91q0 58 -43 90.5t-101 32.5q-44 0 -78 -12z" />
    <glyph glyph-name="onesuperior" unicode="&#xb9;" horiz-adv-x="761" 
d="M129 793v12h250v754l-221 -37l-2 12l223 39h12v-768h254v-12h-516z" />
    <glyph glyph-name="ordmasculine" unicode="&#xba;" horiz-adv-x="735" 
d="M373 1255q82 0 141.5 -28t91.5 -77t46 -103.5t14 -118.5q0 -62 -15 -117t-47.5 -103t-91.5 -76t-139 -28q-291 0 -291 318q0 66 16.5 124t49.5 106t91 75.5t134 27.5zM373 1243q-73 0 -128.5 -27t-87.5 -73.5t-47.5 -102t-15.5 -118.5q0 -306 279 -306q62 0 111.5 18
t80.5 48t51.5 71t28.5 84t8 91q0 62 -13.5 115t-43.5 99.5t-87 73.5t-136 27z" />
    <glyph glyph-name="guillemotright" unicode="&#xbb;" horiz-adv-x="784" 
d="M438 449l-325 -383l-9 6l318 383l-301 387l8 6l309 -387v-12zM657 449l-325 -383l-8 6l317 383l-301 387l8 6l309 -387v-12z" />
    <glyph glyph-name="onequarter" unicode="&#xbc;" horiz-adv-x="1556" 
d="M115 608v13h250v753l-222 -37l-2 13l224 39h12v-768h254v-13h-516zM403 -63l-12 4l854 1501l12 -4zM1331 780h12v-557h134v-12h-134v-211h-12v211h-526v12zM1331 764l-510 -541h510v541z" />
    <glyph glyph-name="onehalf" unicode="&#xbd;" horiz-adv-x="1556" 
d="M76 608v13h250v753l-222 -37l-2 13l224 39h12v-768h254v-13h-516zM350 -63l-12 4l854 1501l12 -4zM1481 12v-12h-611v27q0 39 8 71t28.5 61.5t42.5 52t64 51t77.5 50t97.5 56.5q56 31 93 54.5t75 55t57 65t19 70.5q0 76 -62 120t-184 44q-139 0 -203.5 -52t-62.5 -134
h-13q-2 89 66 144t213 55q128 0 193 -47.5t65 -129.5q0 -39 -20 -75.5t-60 -69.5t-78 -57.5t-94 -55.5q-68 -38 -109 -63t-84 -57t-65 -61.5t-36.5 -67t-14.5 -80.5v-15h598z" />
    <glyph glyph-name="threequarters" unicode="&#xbe;" horiz-adv-x="1556" 
d="M659 1389v-13l-321 -289h33q135 0 219 -65.5t84 -171.5q0 -114 -86 -183t-234 -69q-47 0 -95 10t-97 32t-76 67t-18 106h12q-7 -47 10 -84.5t46.5 -59t70 -35.5t76.5 -19t71 -5q141 0 224.5 66.5t83.5 173.5q0 100 -81 162.5t-210 62.5q-29 0 -49 -2l-7 10l328 293h-528
v13h544zM432 -63l-12 4l854 1501l12 -4zM1350 780h12v-557h133v-12h-133v-211h-12v211h-527v12zM1350 764l-510 -541h510v541z" />
    <glyph glyph-name="questiondown" unicode="&#xbf;" horiz-adv-x="1114" 
d="M922 -102h12q4 -53 -5 -101.5t-36.5 -94.5t-72 -80t-115.5 -54.5t-162 -20.5q-189 0 -278 79.5t-89 209.5q0 47 14 89t43.5 81t55 66t69.5 67q45 41 73.5 70t64 75.5t55.5 90t34.5 104t14.5 127.5v154h12v-154q0 -71 -15.5 -134.5t-35.5 -106.5t-58.5 -91.5t-63.5 -73.5
t-72 -69q-90 -86 -120 -126q-59 -80 -59 -169q0 -125 84.5 -200.5t270.5 -75.5q88 0 156.5 19.5t111.5 52t69.5 77t36 91.5t5.5 98zM629 963q0 -9 -5.5 -15t-13.5 -6q-20 0 -20 21q0 18 20 18q8 0 13.5 -5.5t5.5 -12.5z" />
    <glyph glyph-name="Agrave" unicode="&#xc0;" horiz-adv-x="1120" 
d="M1092 0h-15l-149 389h-738l-147 -389h-12l518 1378h16zM557 1366l-362 -965h729zM569 1511l-8 -8l-252 213l13 13z" />
    <glyph glyph-name="Aacute" unicode="&#xc1;" horiz-adv-x="1120" 
d="M1092 0h-15l-149 389h-738l-147 -389h-12l518 1378h16zM557 1366l-362 -965h729zM539 1503l-9 8l248 218l13 -13z" />
    <glyph glyph-name="Acircumflex" unicode="&#xc2;" horiz-adv-x="1120" 
d="M1092 0h-15l-149 389h-738l-147 -389h-12l518 1378h16zM557 1366l-362 -965h729zM827 1473l-270 206l-274 -213l-9 9l277 219h14l271 -213z" />
    <glyph glyph-name="Atilde" unicode="&#xc3;" horiz-adv-x="1120" 
d="M1092 0h-15l-149 389h-738l-147 -389h-12l518 1378h16zM557 1366l-362 -965h729zM295 1567l-12 4q50 102 149 102q37 0 133 -45q92 -45 131 -45q79 0 127 86l13 -4q-54 -94 -140 -94q-43 0 -135 45q-96 45 -129 45q-90 0 -137 -94z" />
    <glyph glyph-name="Adieresis" unicode="&#xc4;" horiz-adv-x="1120" 
d="M1092 0h-15l-149 389h-738l-147 -389h-12l518 1378h16zM557 1366l-362 -965h729zM385 1595q0 7 6.5 13t14.5 6t13 -6t5 -13q0 -18 -18 -18q-21 0 -21 18zM686 1595q0 7 5.5 13t15.5 6q7 0 11.5 -6t4.5 -13q0 -18 -16 -18q-21 0 -21 18z" />
    <glyph glyph-name="Aring" unicode="&#xc5;" horiz-adv-x="1120" 
d="M1092 0h-15l-149 389h-738l-147 -389h-12l518 1378h16zM557 1366l-362 -965h729zM555 1745q-54 0 -89.5 -37.5t-35.5 -91.5q0 -58 36 -94.5t89 -36.5q58 0 92.5 38.5t34.5 92.5t-34 91.5t-93 37.5zM555 1757q65 0 102 -40.5t37 -100.5t-37.5 -101.5t-101.5 -41.5
q-59 0 -98 39.5t-39 103.5q0 60 38.5 100.5t98.5 40.5z" />
    <glyph glyph-name="AE" unicode="&#xc6;" horiz-adv-x="1789" 
d="M23 0h-17l914 1378h786v-12h-768v-618h700v-13h-700v-723h795v-12h-807v557h-535zM399 569h527v797z" />
    <glyph glyph-name="Ccedilla" unicode="&#xc7;" horiz-adv-x="1226" 
d="M569 -145l-8 8l76 131q-144 3 -246 53t-159.5 143.5t-83 212t-25.5 275.5q0 161 31 288.5t96 224t173 148.5t253 52q66 -1 130 -14.5t122 -43t100 -71.5t63 -104.5t13 -137.5h-12q8 72 -12.5 132.5t-61 101t-97.5 69t-118.5 41.5t-126.5 14q-115 0 -206 -33.5
t-153.5 -94.5t-103.5 -149t-59.5 -192.5t-18.5 -230.5q0 -124 15.5 -223t52.5 -185t96 -143.5t150 -90t210 -32.5q238 0 357.5 111t103.5 278h13q16 -173 -107.5 -287t-366.5 -114h-10l-71 -123q30 10 69 10q63 0 110.5 -36t47.5 -99q0 -59 -49 -99t-133 -40q-66 0 -146 26
l4 13q83 -27 142 -27q82 0 125 36t43 91q0 58 -43 90.5t-101 32.5q-43 0 -78 -12z" />
    <glyph glyph-name="Egrave" unicode="&#xc8;" horiz-adv-x="1064" 
d="M905 715v-13h-749v-690h852v-12h-865v1378h815v-12h-802v-651h749zM633 1511l-8 -8l-252 213l12 13z" />
    <glyph glyph-name="Eacute" unicode="&#xc9;" horiz-adv-x="1064" 
d="M905 715v-13h-749v-690h852v-12h-865v1378h815v-12h-802v-651h749zM512 1503l-8 8l248 218l12 -13z" />
    <glyph glyph-name="Ecircumflex" unicode="&#xca;" horiz-adv-x="1064" 
d="M905 715v-13h-749v-690h852v-12h-865v1378h815v-12h-802v-651h749zM827 1499l-270 207l-274 -213l-9 8l277 219h14l271 -213z" />
    <glyph glyph-name="Edieresis" unicode="&#xcb;" horiz-adv-x="1064" 
d="M905 715v-13h-749v-690h852v-12h-865v1378h815v-12h-802v-651h749zM379 1595q0 7 6 13t14 6t13.5 -6t5.5 -13q0 -18 -19 -18q-20 0 -20 18zM680 1595q0 7 5 13t15 6q7 0 12 -6t5 -13q0 -18 -17 -18q-20 0 -20 18z" />
    <glyph glyph-name="Igrave" unicode="&#xcc;" horiz-adv-x="380" 
d="M184 1378h13v-1378h-13v1378zM221 1511l-8 -8l-252 213l12 13z" />
    <glyph glyph-name="Iacute" unicode="&#xcd;" horiz-adv-x="380" 
d="M184 1378h13v-1378h-13v1378zM193 1503l-9 8l248 218l12 -13z" />
    <glyph glyph-name="Icircumflex" unicode="&#xce;" horiz-adv-x="380" 
d="M184 1378h13v-1378h-13v1378zM465 1499l-270 207l-275 -213l-8 8l276 219h15l270 -213z" />
    <glyph glyph-name="Idieresis" unicode="&#xcf;" horiz-adv-x="380" 
d="M184 1378h13v-1378h-13v1378zM25 1595q0 7 6 13t14 6t13 -6t5 -13q0 -18 -18 -18q-20 0 -20 18zM326 1595q0 7 5 13t15 6q7 0 11.5 -6t4.5 -13q0 -18 -16 -18q-20 0 -20 18z" />
    <glyph glyph-name="Eth" unicode="&#xd0;" horiz-adv-x="1253" 
d="M532 0h-389v721h-143v12h143v645h387q80 0 157.5 -16.5t164 -63t150.5 -119.5t106.5 -197.5t42.5 -285.5q0 -118 -22.5 -217t-59.5 -169t-88.5 -125.5t-107 -89.5t-117.5 -56t-116.5 -30.5t-107.5 -8.5zM156 12h376q76 0 152 17t160 64.5t147.5 121t105.5 198t42 283.5
q0 158 -41.5 281t-104.5 194.5t-147.5 117t-160.5 61.5t-155 16h-374v-633h585v-12h-585v-709z" />
    <glyph glyph-name="Ntilde" unicode="&#xd1;" horiz-adv-x="1302" 
d="M143 1378h13l991 -1358v1358h12v-1378h-12l-991 1360v-1360h-13v1378zM408 1548l-13 4q50 103 150 103q37 0 133 -45q92 -45 131 -45q79 0 127 86l12 -4q-54 -95 -139 -95q-43 0 -135 45q-96 45 -129 45q-90 0 -137 -94z" />
    <glyph glyph-name="Ograve" unicode="&#xd2;" horiz-adv-x="1341" 
d="M678 1378q-116 0 -208 -35.5t-154 -97.5t-103 -150t-59.5 -190t-18.5 -221q0 -346 128 -513t396 -167q256 0 401.5 174.5t145.5 507.5q0 123 -17 225t-56.5 190t-99.5 148.5t-150 94.5t-205 34zM678 1391q117 0 209 -34.5t154 -96t102.5 -151t58 -194t17.5 -229.5
q0 -340 -149 -517t-411 -177q-275 0 -405.5 169.5t-130.5 522.5q0 122 18.5 225.5t61 193.5t106 153t157.5 99t212 36zM723 1511l-8 -8l-252 213l12 13z" />
    <glyph glyph-name="Oacute" unicode="&#xd3;" horiz-adv-x="1341" 
d="M678 1378q-116 0 -208 -35.5t-154 -97.5t-103 -150t-59.5 -190t-18.5 -221q0 -346 128 -513t396 -167q256 0 401.5 174.5t145.5 507.5q0 123 -17 225t-56.5 190t-99.5 148.5t-150 94.5t-205 34zM678 1391q117 0 209 -34.5t154 -96t102.5 -151t58 -194t17.5 -229.5
q0 -340 -149 -517t-411 -177q-275 0 -405.5 169.5t-130.5 522.5q0 122 18.5 225.5t61 193.5t106 153t157.5 99t212 36zM657 1503l-8 8l248 218l12 -13z" />
    <glyph glyph-name="Ocircumflex" unicode="&#xd4;" horiz-adv-x="1341" 
d="M678 1378q-116 0 -208 -35.5t-154 -97.5t-103 -150t-59.5 -190t-18.5 -221q0 -346 128 -513t396 -167q256 0 401.5 174.5t145.5 507.5q0 123 -17 225t-56.5 190t-99.5 148.5t-150 94.5t-205 34zM678 1391q117 0 209 -34.5t154 -96t102.5 -151t58 -194t17.5 -229.5
q0 -340 -149 -517t-411 -177q-275 0 -405.5 169.5t-130.5 522.5q0 122 18.5 225.5t61 193.5t106 153t157.5 99t212 36zM944 1499l-270 207l-275 -213l-8 8l277 219h14l270 -213z" />
    <glyph glyph-name="Otilde" unicode="&#xd5;" horiz-adv-x="1341" 
d="M678 1378q-116 0 -208 -35.5t-154 -97.5t-103 -150t-59.5 -190t-18.5 -221q0 -346 128 -513t396 -167q256 0 401.5 174.5t145.5 507.5q0 123 -17 225t-56.5 190t-99.5 148.5t-150 94.5t-205 34zM678 1391q117 0 209 -34.5t154 -96t102.5 -151t58 -194t17.5 -229.5
q0 -340 -149 -517t-411 -177q-275 0 -405.5 169.5t-130.5 522.5q0 122 18.5 225.5t61 193.5t106 153t157.5 99t212 36zM418 1583l-12 4q50 103 149 103q37 0 133 -45q94 -46 131 -46q78 0 127 87l12 -5q-54 -94 -139 -94q-43 0 -135 45q-96 45 -129 45q-90 0 -137 -94z" />
    <glyph glyph-name="Odieresis" unicode="&#xd6;" horiz-adv-x="1341" 
d="M678 1378q-116 0 -208 -35.5t-154 -97.5t-103 -150t-59.5 -190t-18.5 -221q0 -346 128 -513t396 -167q256 0 401.5 174.5t145.5 507.5q0 123 -17 225t-56.5 190t-99.5 148.5t-150 94.5t-205 34zM678 1391q117 0 209 -34.5t154 -96t102.5 -151t58 -194t17.5 -229.5
q0 -340 -149 -517t-411 -177q-275 0 -405.5 169.5t-130.5 522.5q0 122 18.5 225.5t61 193.5t106 153t157.5 99t212 36zM506 1595q0 7 6 13t14 6t13.5 -6t5.5 -13q0 -18 -19 -18q-20 0 -20 18zM807 1595q0 7 5 13t15 6q7 0 12 -6t5 -13q0 -18 -17 -18q-20 0 -20 18z" />
    <glyph glyph-name="multiply" unicode="&#xd7;" 
d="M539 555l-252 -252l-11 10l252 252l-252 252l11 10l252 -252l249 250l11 -10l-250 -250l250 -250l-11 -10z" />
    <glyph glyph-name="Oslash" unicode="&#xd8;" horiz-adv-x="1341" 
d="M678 1391q268 0 405 -183l136 178l8 -8l-135 -180q127 -180 127 -512q0 -340 -149 -517t-411 -177q-247 0 -376 135l-129 -170l-9 8l129 170q-151 170 -151 549q0 122 18.5 225.5t61 193.5t106 153t157.5 99t212 36zM678 1378q-116 0 -208 -35.5t-154 -97.5t-103 -150
t-59.5 -190t-18.5 -221q0 -373 148 -537l792 1051q-134 180 -397 180zM1206 686q0 326 -123 502l-792 -1051q127 -133 368 -133q256 0 401.5 174.5t145.5 507.5z" />
    <glyph glyph-name="Ugrave" unicode="&#xd9;" horiz-adv-x="1327" 
d="M143 1378h13v-805q0 -135 25.5 -235.5t83 -177.5t158 -116.5t243.5 -39.5q134 0 233 42.5t157.5 121t86.5 180t28 227.5v803h13v-803q0 -129 -29 -232.5t-89.5 -183.5t-162 -123.5t-237.5 -43.5q-117 0 -206.5 27t-149 75.5t-97.5 121.5t-54 160t-16 197v805zM727 1511
l-8 -8l-252 213l12 13z" />
    <glyph glyph-name="Uacute" unicode="&#xda;" horiz-adv-x="1327" 
d="M143 1378h13v-805q0 -135 25.5 -235.5t83 -177.5t158 -116.5t243.5 -39.5q134 0 233 42.5t157.5 121t86.5 180t28 227.5v803h13v-803q0 -129 -29 -232.5t-89.5 -183.5t-162 -123.5t-237.5 -43.5q-117 0 -206.5 27t-149 75.5t-97.5 121.5t-54 160t-16 197v805zM592 1503
l-8 8l247 218l13 -13z" />
    <glyph glyph-name="Ucircumflex" unicode="&#xdb;" horiz-adv-x="1327" 
d="M143 1378h13v-805q0 -135 25.5 -235.5t83 -177.5t158 -116.5t243.5 -39.5q134 0 233 42.5t157.5 121t86.5 180t28 227.5v803h13v-803q0 -129 -29 -232.5t-89.5 -183.5t-162 -123.5t-237.5 -43.5q-117 0 -206.5 27t-149 75.5t-97.5 121.5t-54 160t-16 197v805zM932 1499
l-270 207l-275 -213l-8 8l276 219h15l270 -213z" />
    <glyph glyph-name="Udieresis" unicode="&#xdc;" horiz-adv-x="1327" 
d="M143 1378h13v-805q0 -135 25.5 -235.5t83 -177.5t158 -116.5t243.5 -39.5q134 0 233 42.5t157.5 121t86.5 180t28 227.5v803h13v-803q0 -129 -29 -232.5t-89.5 -183.5t-162 -123.5t-237.5 -43.5q-117 0 -206.5 27t-149 75.5t-97.5 121.5t-54 160t-16 197v805zM479 1595
q0 7 6.5 13t14.5 6t13 -6t5 -13q0 -18 -18 -18q-21 0 -21 18zM780 1595q0 7 5.5 13t15.5 6q7 0 11.5 -6t4.5 -13q0 -18 -16 -18q-21 0 -21 18z" />
    <glyph glyph-name="Yacute" unicode="&#xdd;" horiz-adv-x="993" 
d="M963 1378h14l-481 -790v-588h-13v588l-467 790h15l458 -776zM446 1468l-8 9l248 217l12 -13z" />
    <glyph glyph-name="Thorn" unicode="&#xde;" horiz-adv-x="1120" 
d="M143 1378h13v-262h477q206 0 321 -114.5t115 -299.5q0 -58 -11.5 -110.5t-42 -107t-77.5 -94t-125.5 -64.5t-179.5 -25h-477v-301h-13v1378zM633 1104h-477v-791h477q99 0 175 24t122 62.5t75.5 91t40.5 104t11 107.5q0 178 -112.5 290t-311.5 112z" />
    <glyph glyph-name="germandbls" unicode="&#xdf;" horiz-adv-x="1060" 
d="M467 -16v12h10q46 -4 62 -4q104 0 185 37.5t129 101t72.5 141.5t24.5 166q0 163 -79 277t-240 143v10q63 19 109.5 56.5t69.5 80.5t33.5 79.5t10.5 66.5q0 147 -93.5 231t-264.5 84q-183 0 -272 -113t-89 -302v-1051h-12v1051q0 196 92 312t281 116q178 0 274 -87.5
t96 -240.5q0 -29 -10 -65t-32 -79t-66 -82t-103 -61q155 -37 231.5 -150.5t76.5 -275.5q0 -91 -25.5 -171.5t-75.5 -145.5t-133 -103t-190 -38q-16 0 -62 4h-10z" />
    <glyph glyph-name="agrave" unicode="&#xe0;" horiz-adv-x="960" 
d="M842 0h-13v258q-35 -118 -140 -192t-279 -74q-139 0 -228.5 65t-89.5 199q0 68 28 127t83 106t147.5 74t212.5 27q105 0 266 -31v96q0 32 -2 57t-9.5 60t-20.5 61.5t-37.5 55t-57.5 46.5t-84 30t-114 12q-85 0 -149.5 -21.5t-99 -57t-50 -77t-12.5 -86.5h-13
q-4 46 12 89.5t52.5 81t103.5 60.5t156 23q90 0 155.5 -23.5t100 -56.5t54 -82.5t24 -87t4.5 -84.5v-655zM410 4q196 0 307.5 99t111.5 259v185q-164 31 -266 31q-117 0 -207 -26.5t-144 -72t-81 -102t-27 -121.5q0 -128 86.5 -190t219.5 -62zM569 1139l-8 -6l-221 245
l14 13z" />
    <glyph glyph-name="aacute" unicode="&#xe1;" horiz-adv-x="960" 
d="M842 0h-13v258q-35 -118 -140 -192t-279 -74q-139 0 -228.5 65t-89.5 199q0 68 28 127t83 106t147.5 74t212.5 27q105 0 266 -31v96q0 32 -2 57t-9.5 60t-20.5 61.5t-37.5 55t-57.5 46.5t-84 30t-114 12q-85 0 -149.5 -21.5t-99 -57t-50 -77t-12.5 -86.5h-13
q-4 46 12 89.5t52.5 81t103.5 60.5t156 23q90 0 155.5 -23.5t100 -56.5t54 -82.5t24 -87t4.5 -84.5v-655zM410 4q196 0 307.5 99t111.5 259v185q-164 31 -266 31q-117 0 -207 -26.5t-144 -72t-81 -102t-27 -121.5q0 -128 86.5 -190t219.5 -62zM469 1139l-8 6l215 252l14 -13
z" />
    <glyph glyph-name="acircumflex" unicode="&#xe2;" horiz-adv-x="960" 
d="M842 0h-13v258q-35 -118 -140 -192t-279 -74q-139 0 -228.5 65t-89.5 199q0 68 28 127t83 106t147.5 74t212.5 27q105 0 266 -31v96q0 32 -2 57t-9.5 60t-20.5 61.5t-37.5 55t-57.5 46.5t-84 30t-114 12q-85 0 -149.5 -21.5t-99 -57t-50 -77t-12.5 -86.5h-13
q-4 46 12 89.5t52.5 81t103.5 60.5t156 23q90 0 155.5 -23.5t100 -56.5t54 -82.5t24 -87t4.5 -84.5v-655zM410 4q196 0 307.5 99t111.5 259v185q-164 31 -266 31q-117 0 -207 -26.5t-144 -72t-81 -102t-27 -121.5q0 -128 86.5 -190t219.5 -62zM807 1120l-281 244l-284 -250
l-9 8l287 256h15l280 -250z" />
    <glyph glyph-name="atilde" unicode="&#xe3;" horiz-adv-x="960" 
d="M842 0h-13v258q-35 -118 -140 -192t-279 -74q-139 0 -228.5 65t-89.5 199q0 68 28 127t83 106t147.5 74t212.5 27q105 0 266 -31v96q0 32 -2 57t-9.5 60t-20.5 61.5t-37.5 55t-57.5 46.5t-84 30t-114 12q-85 0 -149.5 -21.5t-99 -57t-50 -77t-12.5 -86.5h-13
q-4 46 12 89.5t52.5 81t103.5 60.5t156 23q90 0 155.5 -23.5t100 -56.5t54 -82.5t24 -87t4.5 -84.5v-655zM410 4q196 0 307.5 99t111.5 259v185q-164 31 -266 31q-117 0 -207 -26.5t-144 -72t-81 -102t-27 -121.5q0 -128 86.5 -190t219.5 -62zM272 1214l-12 5
q50 102 150 102q37 0 133 -45q92 -45 131 -45q79 0 127 86l12 -4q-54 -94 -139 -94q-43 0 -135 45q-96 45 -129 45q-90 0 -138 -95z" />
    <glyph glyph-name="adieresis" unicode="&#xe4;" horiz-adv-x="960" 
d="M842 0h-13v258q-35 -118 -140 -192t-279 -74q-139 0 -228.5 65t-89.5 199q0 68 28 127t83 106t147.5 74t212.5 27q105 0 266 -31v96q0 32 -2 57t-9.5 60t-20.5 61.5t-37.5 55t-57.5 46.5t-84 30t-114 12q-85 0 -149.5 -21.5t-99 -57t-50 -77t-12.5 -86.5h-13
q-4 46 12 89.5t52.5 81t103.5 60.5t156 23q90 0 155.5 -23.5t100 -56.5t54 -82.5t24 -87t4.5 -84.5v-655zM410 4q196 0 307.5 99t111.5 259v185q-164 31 -266 31q-117 0 -207 -26.5t-144 -72t-81 -102t-27 -121.5q0 -128 86.5 -190t219.5 -62zM342 1204q0 7 6 13t14 6
t13.5 -6t5.5 -13q0 -18 -19 -18q-20 0 -20 18zM643 1204q0 7 5.5 13t15.5 6q7 0 11.5 -6t4.5 -13q0 -18 -16 -18q-21 0 -21 18z" />
    <glyph glyph-name="aring" unicode="&#xe5;" horiz-adv-x="960" 
d="M842 0h-13v258q-35 -118 -140 -192t-279 -74q-139 0 -228.5 65t-89.5 199q0 68 28 127t83 106t147.5 74t212.5 27q105 0 266 -31v96q0 32 -2 57t-9.5 60t-20.5 61.5t-37.5 55t-57.5 46.5t-84 30t-114 12q-85 0 -149.5 -21.5t-99 -57t-50 -77t-12.5 -86.5h-13
q-4 46 12 89.5t52.5 81t103.5 60.5t156 23q90 0 155.5 -23.5t100 -56.5t54 -82.5t24 -87t4.5 -84.5v-655zM410 4q196 0 307.5 99t111.5 259v185q-164 31 -266 31q-117 0 -207 -26.5t-144 -72t-81 -102t-27 -121.5q0 -128 86.5 -190t219.5 -62zM520 1425q-54 0 -89.5 -37.5
t-35.5 -91.5q0 -58 36 -94.5t89 -36.5q58 0 92.5 38.5t34.5 92.5t-34 91.5t-93 37.5zM520 1438q65 0 102 -41t37 -101t-37.5 -101.5t-101.5 -41.5q-59 0 -98 39.5t-39 103.5q0 60 38.5 101t98.5 41z" />
    <glyph glyph-name="ae" unicode="&#xe6;" horiz-adv-x="1693" 
d="M1241 -8q-193 0 -284.5 83t-116.5 244q-9 -70 -37 -126q-47 -92 -146 -146.5t-247 -54.5q-139 0 -228.5 65t-89.5 199q0 137 115.5 212t355.5 75h266v112q0 32 -2 57t-9.5 60t-20.5 61.5t-37.5 55t-57.5 46.5t-84 30t-114 12q-85 0 -149.5 -21.5t-99 -57t-50 -77
t-12.5 -86.5h-13q-4 46 12 89.5t52.5 81t103.5 60.5t156 23q90 0 155.5 -23.5t100 -56.5t54 -82.5t24 -87t4.5 -84.5v-16q28 162 127 256t276 94q136 0 224 -62.5t118.5 -164.5t9.5 -232h-755v-57q1 -89 11 -156.5t36.5 -128.5t70.5 -100t114.5 -61.5t166.5 -22.5
q79 0 141.5 19t100.5 49.5t62.5 71t33.5 80.5t6 81h12q3 -42 -6 -83.5t-34.5 -84t-65 -74t-104.5 -51.5t-146 -20zM410 4q196 0 307.5 99t111.5 259v168h-266q-234 0 -346.5 -71.5t-112.5 -202.5q0 -128 86.5 -190t219.5 -62zM1245 977q-104 0 -181.5 -34.5t-123.5 -96
t-69.5 -136.5t-28.5 -167h745q18 122 -11.5 218.5t-114.5 156t-216 59.5z" />
    <glyph glyph-name="ccedilla" unicode="&#xe7;" horiz-adv-x="917" 
d="M444 -145l-8 8l74 129h-4q-201 0 -302.5 111.5t-101.5 377.5q0 100 21.5 187t67.5 161t127.5 117t191.5 43q64 0 119.5 -11.5t107.5 -38t80 -78.5t23 -124h-13q3 56 -15 99.5t-49 69.5t-75 42.5t-87 22.5t-91 6q-86 0 -154.5 -28t-113 -75t-73.5 -112t-41.5 -134.5
t-12.5 -146.5q0 -107 17.5 -188t49 -135.5t80.5 -89t108.5 -49.5t135.5 -15q79 0 140.5 17t99 44.5t60.5 65t31 75.5t5 79h12q3 -53 -11.5 -100.5t-50 -91.5t-104.5 -71t-164 -30l-71 -123q30 10 69 10q62 0 110 -36t48 -99q0 -59 -49 -99t-133 -40q-66 0 -146 26l4 13
q83 -27 142 -27q82 0 125 36t43 91q0 58 -43 90.5t-101 32.5q-44 0 -78 -12z" />
    <glyph glyph-name="egrave" unicode="&#xe8;" horiz-adv-x="966" 
d="M516 977q-383 0 -401 -457h745q18 122 -12 224t-115.5 167.5t-216.5 65.5zM514 -8q-100 0 -174 24.5t-119 66t-72 107.5t-37 138t-10 168q0 106 22.5 193t70 155.5t129.5 106.5t192 38q82 0 148.5 -25.5t109 -70.5t70.5 -106t32 -131.5t-6 -147.5h-755v-12
q0 -94 9.5 -164t35 -134.5t69.5 -105t115.5 -64.5t169.5 -24q79 0 141.5 19t100.5 49.5t62.5 71t33.5 80.5t6 81h12q3 -42 -6 -83.5t-34.5 -84t-65 -74t-104.5 -51.5t-146 -20zM561 1139l-8 -6l-221 245l14 13z" />
    <glyph glyph-name="eacute" unicode="&#xe9;" horiz-adv-x="966" 
d="M516 977q-383 0 -401 -457h745q18 122 -12 224t-115.5 167.5t-216.5 65.5zM514 -8q-100 0 -174 24.5t-119 66t-72 107.5t-37 138t-10 168q0 106 22.5 193t70 155.5t129.5 106.5t192 38q82 0 148.5 -25.5t109 -70.5t70.5 -106t32 -131.5t-6 -147.5h-755v-12
q0 -94 9.5 -164t35 -134.5t69.5 -105t115.5 -64.5t169.5 -24q79 0 141.5 19t100.5 49.5t62.5 71t33.5 80.5t6 81h12q3 -42 -6 -83.5t-34.5 -84t-65 -74t-104.5 -51.5t-146 -20zM473 1139l-8 6l215 252l14 -13z" />
    <glyph glyph-name="ecircumflex" unicode="&#xea;" horiz-adv-x="966" 
d="M516 977q-383 0 -401 -457h745q18 122 -12 224t-115.5 167.5t-216.5 65.5zM514 -8q-100 0 -174 24.5t-119 66t-72 107.5t-37 138t-10 168q0 106 22.5 193t70 155.5t129.5 106.5t192 38q82 0 148.5 -25.5t109 -70.5t70.5 -106t32 -131.5t-6 -147.5h-755v-12
q0 -94 9.5 -164t35 -134.5t69.5 -105t115.5 -64.5t169.5 -24q79 0 141.5 19t100.5 49.5t62.5 71t33.5 80.5t6 81h12q3 -42 -6 -83.5t-34.5 -84t-65 -74t-104.5 -51.5t-146 -20zM791 1120l-281 244l-285 -250l-8 8l287 256h14l281 -250z" />
    <glyph glyph-name="edieresis" unicode="&#xeb;" horiz-adv-x="966" 
d="M516 977q-383 0 -401 -457h745q18 122 -12 224t-115.5 167.5t-216.5 65.5zM514 -8q-100 0 -174 24.5t-119 66t-72 107.5t-37 138t-10 168q0 106 22.5 193t70 155.5t129.5 106.5t192 38q82 0 148.5 -25.5t109 -70.5t70.5 -106t32 -131.5t-6 -147.5h-755v-12
q0 -94 9.5 -164t35 -134.5t69.5 -105t115.5 -64.5t169.5 -24q79 0 141.5 19t100.5 49.5t62.5 71t33.5 80.5t6 81h12q3 -42 -6 -83.5t-34.5 -84t-65 -74t-104.5 -51.5t-146 -20zM346 1204q0 6 6 12.5t15 6.5q8 0 13 -6t5 -13q0 -18 -18 -18q-21 0 -21 18zM647 1204
q0 7 5.5 13t15.5 6q7 0 11.5 -6t4.5 -13q0 -18 -16 -18q-21 0 -21 18z" />
    <glyph glyph-name="igrave" unicode="&#xec;" horiz-adv-x="342" 
d="M166 979h12v-979h-12v979zM203 1139l-8 -6l-222 245l15 13z" />
    <glyph glyph-name="iacute" unicode="&#xed;" horiz-adv-x="342" 
d="M166 979h12v-979h-12v979zM195 1139l-9 6l215 252l15 -13z" />
    <glyph glyph-name="icircumflex" unicode="&#xee;" horiz-adv-x="342" 
d="M166 979h12v-979h-12v979zM459 1120l-281 244l-284 -250l-9 8l287 256h14l281 -250z" />
    <glyph glyph-name="idieresis" unicode="&#xef;" horiz-adv-x="342" 
d="M166 979h12v-979h-12v979zM4 1204q0 6 6 12.5t15 6.5q8 0 13 -6t5 -13q0 -18 -18 -18q-21 0 -21 18zM305 1204q0 7 5.5 13t15.5 6q7 0 11.5 -6t4.5 -13q0 -18 -16 -18q-21 0 -21 18z" />
    <glyph glyph-name="eth" unicode="&#xf0;" horiz-adv-x="1013" 
d="M594 1137l-8 8l178 127q-114 160 -315 192v13q204 -32 325 -199l182 129l9 -8l-185 -131q140 -209 140 -568q0 -66 -1 -113t-5.5 -110.5t-12.5 -109t-23 -99.5t-36 -91.5t-52.5 -74.5t-71 -59.5t-93.5 -36.5t-119 -14q-218 0 -312 121.5t-94 357.5q0 89 14 165t45.5 142
t78 112t115.5 72.5t155 26.5q182 0 284 -109.5t113 -277.5q2 37 2 98q0 361 -137 562zM510 4q71 0 129 18t97.5 47t69.5 71.5t47 85t28 94.5t15 92.5t5 85.5q3 143 -37 248.5t-131 168t-225 62.5q-107 0 -185 -39t-123 -109.5t-66 -159t-21 -198.5q0 -233 90 -350t307 -117z
" />
    <glyph glyph-name="ntilde" unicode="&#xf1;" horiz-adv-x="997" 
d="M135 0h-12v979h12v-313q15 74 47.5 133t72 93.5t86.5 57.5t86.5 31t76.5 8q88 0 154.5 -22t107 -58t65.5 -90.5t34 -112.5t9 -131v-575h-12v575q0 70 -8.5 126t-32.5 109.5t-63 88.5t-103.5 56.5t-150.5 21.5q-39 0 -82 -9.5t-96 -40t-94 -77.5t-69 -130.5t-28 -191.5
v-528zM227 1214l-12 5q50 102 150 102q37 0 133 -45q92 -45 131 -45q79 0 127 86l12 -4q-54 -94 -139 -94q-43 0 -135 45q-96 45 -129 45q-91 0 -138 -95z" />
    <glyph glyph-name="ograve" unicode="&#xf2;" horiz-adv-x="1013" 
d="M510 977q-105 0 -182.5 -37.5t-123 -106t-67.5 -156.5t-22 -198q0 -242 93 -358.5t302 -116.5q181 0 285 121.5t104 361.5q0 107 -21 193t-65.5 154t-121.5 105.5t-181 37.5zM510 989q86 0 154.5 -25.5t114.5 -69.5t76 -108t43 -138t13 -161q0 -246 -106.5 -370.5
t-294.5 -124.5q-216 0 -312 119.5t-96 367.5q0 89 14 165t45 140.5t78 109t115.5 70t155.5 25.5zM565 1139l-8 -6l-221 245l14 13z" />
    <glyph glyph-name="oacute" unicode="&#xf3;" horiz-adv-x="1013" 
d="M510 977q-105 0 -182.5 -37.5t-123 -106t-67.5 -156.5t-22 -198q0 -242 93 -358.5t302 -116.5q181 0 285 121.5t104 361.5q0 107 -21 193t-65.5 154t-121.5 105.5t-181 37.5zM510 989q86 0 154.5 -25.5t114.5 -69.5t76 -108t43 -138t13 -161q0 -246 -106.5 -370.5
t-294.5 -124.5q-216 0 -312 119.5t-96 367.5q0 89 14 165t45 140.5t78 109t115.5 70t155.5 25.5zM481 1139l-8 6l215 252l14 -13z" />
    <glyph glyph-name="ocircumflex" unicode="&#xf4;" horiz-adv-x="1013" 
d="M510 977q-105 0 -182.5 -37.5t-123 -106t-67.5 -156.5t-22 -198q0 -242 93 -358.5t302 -116.5q181 0 285 121.5t104 361.5q0 107 -21 193t-65.5 154t-121.5 105.5t-181 37.5zM510 989q86 0 154.5 -25.5t114.5 -69.5t76 -108t43 -138t13 -161q0 -246 -106.5 -370.5
t-294.5 -124.5q-216 0 -312 119.5t-96 367.5q0 89 14 165t45 140.5t78 109t115.5 70t155.5 25.5zM803 1120l-281 244l-284 -250l-9 8l287 256h14l281 -250z" />
    <glyph glyph-name="otilde" unicode="&#xf5;" horiz-adv-x="1013" 
d="M510 977q-105 0 -182.5 -37.5t-123 -106t-67.5 -156.5t-22 -198q0 -242 93 -358.5t302 -116.5q181 0 285 121.5t104 361.5q0 107 -21 193t-65.5 154t-121.5 105.5t-181 37.5zM510 989q86 0 154.5 -25.5t114.5 -69.5t76 -108t43 -138t13 -161q0 -246 -106.5 -370.5
t-294.5 -124.5q-216 0 -312 119.5t-96 367.5q0 89 14 165t45 140.5t78 109t115.5 70t155.5 25.5zM266 1214l-12 5q50 102 149 102q38 0 134 -45q92 -45 131 -45q79 0 127 86l12 -4q-54 -94 -139 -94q-44 0 -136 45q-96 45 -129 45q-89 0 -137 -95z" />
    <glyph glyph-name="odieresis" unicode="&#xf6;" horiz-adv-x="1013" 
d="M510 977q-105 0 -182.5 -37.5t-123 -106t-67.5 -156.5t-22 -198q0 -242 93 -358.5t302 -116.5q181 0 285 121.5t104 361.5q0 107 -21 193t-65.5 154t-121.5 105.5t-181 37.5zM510 989q86 0 154.5 -25.5t114.5 -69.5t76 -108t43 -138t13 -161q0 -246 -106.5 -370.5
t-294.5 -124.5q-216 0 -312 119.5t-96 367.5q0 89 14 165t45 140.5t78 109t115.5 70t155.5 25.5zM342 1204q0 7 6 13t14 6t13.5 -6t5.5 -13q0 -18 -19 -18q-20 0 -20 18zM643 1204q0 7 5.5 13t15.5 6q7 0 11.5 -6t4.5 -13q0 -18 -16 -18q-21 0 -21 18z" />
    <glyph glyph-name="divide" unicode="&#xf7;" 
d="M926 557h-736v16h736v-16zM539 836q0 20 22 20q21 0 21 -20q0 -8 -6 -15.5t-15 -7.5q-22 0 -22 23zM539 291q0 8 6 15t16 7q9 0 15 -6.5t6 -15.5t-6 -15t-15 -6q-22 0 -22 21z" />
    <glyph glyph-name="oslash" unicode="&#xf8;" horiz-adv-x="1013" 
d="M510 989q199 0 301 -133l102 127l9 -8l-103 -127q92 -125 92 -361q0 -246 -106.5 -370.5t-294.5 -124.5q-201 0 -299 104l-105 -129l-8 8l105 129q-101 118 -101 375q0 89 14 165t45 140.5t78 109t115.5 70t155.5 25.5zM510 977q-105 0 -182.5 -37.5t-123 -106
t-67.5 -156.5t-22 -198q0 -251 96 -364l592 733q-98 129 -293 129zM899 487q0 224 -88 351l-592 -732q92 -102 291 -102q181 0 285 121.5t104 361.5z" />
    <glyph glyph-name="ugrave" unicode="&#xf9;" horiz-adv-x="987" 
d="M852 979h12v-977h-12v313q-15 -74 -47.5 -133t-72 -93.5t-86.5 -57.5t-86.5 -31t-76.5 -8q-89 0 -155 22t-104.5 57.5t-62 91t-31 112.5t-7.5 131v573h12v-573q0 -72 7 -126.5t29 -109t59.5 -89t101 -56t151.5 -21.5q39 0 82 9.5t96 40t94 77.5t69 130.5t28 191.5v526z
M547 1139l-8 -6l-222 245l15 13z" />
    <glyph glyph-name="uacute" unicode="&#xfa;" horiz-adv-x="987" 
d="M852 979h12v-977h-12v313q-15 -74 -47.5 -133t-72 -93.5t-86.5 -57.5t-86.5 -31t-76.5 -8q-89 0 -155 22t-104.5 57.5t-62 91t-31 112.5t-7.5 131v573h12v-573q0 -72 7 -126.5t29 -109t59.5 -89t101 -56t151.5 -21.5q39 0 82 9.5t96 40t94 77.5t69 130.5t28 191.5v526z
M455 1139l-9 6l216 252l14 -13z" />
    <glyph glyph-name="ucircumflex" unicode="&#xfb;" horiz-adv-x="987" 
d="M852 979h12v-977h-12v313q-15 -74 -47.5 -133t-72 -93.5t-86.5 -57.5t-86.5 -31t-76.5 -8q-89 0 -155 22t-104.5 57.5t-62 91t-31 112.5t-7.5 131v573h12v-573q0 -72 7 -126.5t29 -109t59.5 -89t101 -56t151.5 -21.5q39 0 82 9.5t96 40t94 77.5t69 130.5t28 191.5v526z
M776 1120l-280 244l-285 -250l-8 8l286 256h15l280 -250z" />
    <glyph glyph-name="udieresis" unicode="&#xfc;" horiz-adv-x="987" 
d="M852 979h12v-977h-12v313q-15 -74 -47.5 -133t-72 -93.5t-86.5 -57.5t-86.5 -31t-76.5 -8q-89 0 -155 22t-104.5 57.5t-62 91t-31 112.5t-7.5 131v573h12v-573q0 -72 7 -126.5t29 -109t59.5 -89t101 -56t151.5 -21.5q39 0 82 9.5t96 40t94 77.5t69 130.5t28 191.5v526z
M336 1204q0 7 6 13t14 6t13.5 -6t5.5 -13q0 -18 -19 -18q-20 0 -20 18zM637 1204q0 7 5 13t15 6q7 0 12 -6t5 -13q0 -18 -17 -18q-20 0 -20 18z" />
    <glyph glyph-name="yacute" unicode="&#xfd;" horiz-adv-x="806" 
d="M776 979h15l-410 -1135q-12 -33 -16.5 -45.5t-16.5 -41.5t-20 -42t-22.5 -36t-27 -34t-32 -26t-40 -22t-47.5 -12t-57 -5h-75v12h75q61 0 105 17.5t75 61t44.5 72.5t38.5 95q1 2 1.5 3.5l1 3t1.5 3.5l53 148h-51l-355 983h15l348 -973h47zM389 1120l-8 6l215 252l14 -12z
" />
    <glyph glyph-name="thorn" unicode="&#xfe;" horiz-adv-x="1032" 
d="M123 1475h12v-818q67 332 402 332q200 0 296.5 -130t96.5 -361q0 -111 -22 -200t-69.5 -159t-129 -108.5t-193.5 -38.5q-158 0 -256.5 85t-124.5 249v-746h-12v1895zM135 510v-51q0 -120 29 -209t81.5 -142t120 -78.5t150.5 -25.5q87 0 156 25.5t114.5 70t75.5 107.5
t43 135t13 156q0 226 -94.5 352.5t-286.5 126.5q-87 0 -157 -24.5t-126.5 -77t-87.5 -145.5t-31 -220z" />
    <glyph glyph-name="ydieresis" unicode="&#xff;" horiz-adv-x="806" 
d="M776 979h15l-410 -1135q-12 -33 -16.5 -45.5t-16.5 -41.5t-20 -42t-22.5 -36t-27 -34t-32 -26t-40 -22t-47.5 -12t-57 -5h-75v12h75q61 0 105 17.5t75 61t44.5 72.5t38.5 95q1 2 1.5 3.5l1 3t1.5 3.5l53 148h-51l-355 983h15l348 -973h47zM250 1196q0 6 6 12t14 6
t13.5 -5.5t5.5 -12.5q0 -18 -19 -18q-20 0 -20 18zM551 1196q0 7 5 12.5t15 5.5q7 0 12 -6t5 -12q0 -18 -17 -18q-20 0 -20 18z" />
    <glyph glyph-name="dotlessi" unicode="&#x131;" horiz-adv-x="342" 
d="M166 979h12v-979h-12v979z" />
    <glyph glyph-name="OE" unicode="&#x152;" horiz-adv-x="1638" 
d="M1479 756v-13h-711v-731h813v-12h-817q-66 -8 -105 -8q-275 0 -405.5 169.5t-130.5 522.5q0 122 18.5 225.5t61 193.5t106 153t157.5 99t212 36q68 0 131 -13h733v-12h-774v-610h711zM659 4q66 0 97 6v1364q-50 4 -78 4q-116 0 -208 -35.5t-154 -97.5t-103 -150
t-59.5 -190t-18.5 -221q0 -346 128 -513t396 -167z" />
    <glyph glyph-name="oe" unicode="&#x153;" horiz-adv-x="1767" 
d="M1315 -8q-110 0 -188 27.5t-123.5 82.5t-68.5 124.5t-30 166.5q-20 -200 -123.5 -300.5t-271.5 -100.5q-216 0 -312 119.5t-96 367.5q0 89 14 165t45 140.5t78 109t115.5 70t155.5 25.5q185 0 282 -109t115 -296q9 89 36.5 161t76 127.5t124.5 86t175 30.5
q82 0 148.5 -25.5t108.5 -70.5t69.5 -106t31.5 -131.5t-6 -147.5h-756v-12q0 -94 9.5 -164t35.5 -134.5t70 -105t115.5 -64.5t169.5 -24q79 0 141.5 19t100.5 49.5t62.5 71t33.5 80.5t6 81h12q3 -42 -6 -83.5t-34.5 -84t-65 -74t-104.5 -51.5t-146 -20zM510 977
q-105 0 -182.5 -37.5t-123 -106t-67.5 -156.5t-22 -198q0 -242 93 -358.5t302 -116.5q181 0 285 121.5t104 361.5q0 107 -21 193t-65.5 154t-121.5 105.5t-181 37.5zM1319 977q-105 0 -182.5 -34t-124 -97.5t-70 -144t-27.5 -181.5h746q18 123 -11.5 224.5t-114.5 167
t-216 65.5z" />
    <glyph glyph-name="circumflex" unicode="&#x2c6;" horiz-adv-x="960" 
d="M782 1120l-280 244l-285 -250l-8 8l287 256h14l281 -250z" />
    <glyph glyph-name="ring" unicode="&#x2da;" horiz-adv-x="958" 
d="M483 1425q-54 0 -89.5 -37.5t-35.5 -91.5q0 -58 36 -94.5t89 -36.5q58 0 92.5 38.5t34.5 92.5t-34 91.5t-93 37.5zM483 1438q65 0 102.5 -41t37.5 -101t-38 -101.5t-102 -41.5q-59 0 -98 39.5t-39 103.5q0 60 38.5 101t98.5 41z" />
    <glyph glyph-name="tilde" unicode="&#x2dc;" horiz-adv-x="960" 
d="M244 1214l-13 5q50 102 150 102q37 0 133 -45q92 -45 131 -45q79 0 127 86l12 -4q-54 -94 -139 -94q-43 0 -135 45q-96 45 -129 45q-89 0 -137 -95z" />
    <glyph glyph-name="tonos" unicode="&#x384;" horiz-adv-x="958" 
d="M479 1118l-10 4l156 293l18 -8z" />
    <glyph glyph-name="dieresistonos" unicode="&#x385;" horiz-adv-x="958" 
d="M330 1204q0 7 6 13t14 6t13.5 -6t5.5 -13q0 -18 -19 -18q-20 0 -20 18zM631 1204q0 19 18 19q19 0 19 -19q0 -18 -17 -18q-20 0 -20 18zM449 1118l-11 4l156 293l18 -8z" />
    <glyph glyph-name="Alphatonos" unicode="&#x386;" horiz-adv-x="1120" 
d="M1092 0h-15l-149 389h-738l-147 -389h-12l518 1378h16zM557 1366l-362 -965h729zM47 1118l-10 4l156 293l18 -8z" />
    <glyph glyph-name="anoteleia" unicode="&#x387;" horiz-adv-x="286" 
d="M117 743q0 11 8 19t18 8q11 0 19 -8t8 -19q0 -10 -8 -18t-19 -8t-18.5 7.5t-7.5 18.5z" />
    <glyph glyph-name="Epsilontonos" unicode="&#x388;" horiz-adv-x="1064" 
d="M905 715v-13h-749v-690h852v-12h-865v1378h815v-12h-802v-651h749zM-193 1118l-10 4l156 293l18 -8z" />
    <glyph glyph-name="Etatonos" unicode="&#x389;" horiz-adv-x="1294" 
d="M143 1378h13v-663h983v663h12v-1378h-12v702h-983v-702h-13v1378zM-195 1118l-10 4l156 293l18 -8z" />
    <glyph glyph-name="Iotatonos" unicode="&#x38a;" horiz-adv-x="380" 
d="M184 1378h13v-1378h-13v1378zM-166 1118l-10 4l156 293l18 -8z" />
    <glyph glyph-name="Omicrontonos" unicode="&#x38c;" horiz-adv-x="1341" 
d="M678 1378q-116 0 -208 -35.5t-154 -97.5t-103 -150t-59.5 -190t-18.5 -221q0 -346 128 -513t396 -167q256 0 401.5 174.5t145.5 507.5q0 123 -17 225t-56.5 190t-99.5 148.5t-150 94.5t-205 34zM678 1391q117 0 209 -34.5t154 -96t102.5 -151t58 -194t17.5 -229.5
q0 -340 -149 -517t-411 -177q-275 0 -405.5 169.5t-130.5 522.5q0 122 18.5 225.5t61 193.5t106 153t157.5 99t212 36zM-96 1118l-10 4l155 293l19 -8z" />
    <glyph glyph-name="Upsilontonos" unicode="&#x38e;" horiz-adv-x="993" 
d="M963 1378h14l-481 -790v-588h-13v588l-467 790h15l458 -776zM-236 1118l-10 4l156 293l18 -8z" />
    <glyph glyph-name="Omegatonos" unicode="&#x38f;" horiz-adv-x="1376" 
d="M694 1395q125 0 225.5 -40.5t165 -108t108 -161t61.5 -194t18 -211.5q0 -106 -15 -202.5t-49 -191.5t-99.5 -167.5t-156.5 -106.5h361v-12h-379v18q92 32 158.5 101.5t101.5 163t50.5 191t15.5 206.5t-17.5 207t-60 190t-106 158.5t-161.5 106.5t-221 40t-221 -40
t-161.5 -106.5t-105.5 -158.5t-59.5 -190t-17.5 -207q0 -548 326 -662v-18h-383v12h364q-94 35 -159.5 104t-99 162.5t-47 189.5t-13.5 212q0 111 18 211.5t61 194t108 161t165 108t225 40.5zM-129 1118l-10 4l155 293l19 -8z" />
    <glyph glyph-name="iotadieresistonos" unicode="&#x390;" horiz-adv-x="342" 
d="M166 979h12v-979h-12v979zM16 1204q0 6 6 12.5t15 6.5q8 0 13 -6t5 -13q0 -18 -18 -18q-21 0 -21 18zM317 1204q0 19 19 19q18 0 18 -19q0 -18 -16 -18q-21 0 -21 18zM135 1118l-10 4l156 293l18 -8z" />
    <glyph glyph-name="Alpha" unicode="&#x391;" horiz-adv-x="1120" 
d="M1092 0h-15l-149 389h-738l-147 -389h-12l518 1378h16zM557 1366l-362 -965h729z" />
    <glyph glyph-name="Beta" unicode="&#x392;" horiz-adv-x="1232" 
d="M143 1378h535q191 0 297 -88t106 -237q0 -50 -17 -102t-49.5 -100t-88 -83t-125.5 -45q66 -8 120.5 -33.5t91.5 -61t62.5 -79.5t37 -88.5t11.5 -89.5q0 -57 -12 -108t-43 -100t-78.5 -84.5t-123.5 -57t-173 -21.5h-551v1378zM1112 371q0 65 -22.5 124.5t-67 110t-121 81
t-174.5 30.5h-571v-705h538q95 0 169 20.5t120 54.5t76 82t41.5 97t11.5 105zM156 1366v-639h585q101 0 177.5 49t113.5 122.5t37 154.5q0 141 -101.5 227t-289.5 86h-522z" />
    <glyph glyph-name="Gamma" unicode="&#x393;" horiz-adv-x="1017" 
d="M156 1366v-1366h-13v1378h824v-12h-811z" />
    <glyph glyph-name="Delta" unicode="&#x394;" horiz-adv-x="1134" 
d="M1110 0h-1085l530 1378h16zM563 1366l-522 -1354h1051z" />
    <glyph glyph-name="Epsilon" unicode="&#x395;" horiz-adv-x="1064" 
d="M905 715v-13h-749v-690h852v-12h-865v1378h815v-12h-802v-651h749z" />
    <glyph glyph-name="Zeta" unicode="&#x396;" horiz-adv-x="1019" 
d="M20 0v12l932 1354h-884v12h899v-12l-930 -1354h962v-12h-979z" />
    <glyph glyph-name="Eta" unicode="&#x397;" horiz-adv-x="1294" 
d="M143 1378h13v-663h983v663h12v-1378h-12v702h-983v-702h-13v1378z" />
    <glyph glyph-name="Theta" unicode="&#x398;" horiz-adv-x="1372" 
d="M1044 719v-12h-710v12h710zM694 1382q-147 0 -256 -50.5t-174.5 -144.5t-97 -220t-31.5 -287q0 -348 130.5 -512t420.5 -164q265 0 408 169.5t143 508.5q0 162 -28 286t-90 219t-169 145t-256 50zM694 1395q152 0 261.5 -51t172.5 -147.5t92 -223t29 -291.5
q0 -345 -146 -517.5t-417 -172.5q-296 0 -429.5 167t-133.5 521q0 130 20 238t63.5 197.5t109.5 151t161.5 95t216.5 33.5z" />
    <glyph glyph-name="Iota" unicode="&#x399;" horiz-adv-x="380" 
d="M184 1378h13v-1378h-13v1378z" />
    <glyph glyph-name="Kappa" unicode="&#x39a;" horiz-adv-x="1083" 
d="M1063 0h-14l-517 705h-376v-705h-13v1378h13v-661h376l496 661h14l-499 -667z" />
    <glyph glyph-name="Lambda" unicode="&#x39b;" horiz-adv-x="1120" 
d="M1077 0l-520 1366l-514 -1366h-12l518 1378h16l527 -1378h-15z" />
    <glyph glyph-name="Mu" unicode="&#x39c;" horiz-adv-x="1583" 
d="M788 217h-8l-624 1135v-1352h-13v1378h11l630 -1142l643 1142h13v-1378h-13v1354z" />
    <glyph glyph-name="Nu" unicode="&#x39d;" horiz-adv-x="1302" 
d="M143 1378h13l991 -1358v1358h12v-1378h-12l-991 1360v-1360h-13v1378z" />
    <glyph glyph-name="Xi" unicode="&#x39e;" horiz-adv-x="1120" 
d="M72 12h977v-12h-977v12zM164 725h788v-12h-788v12zM1012 1366h-916v12h916v-12z" />
    <glyph glyph-name="Omicron" unicode="&#x39f;" horiz-adv-x="1341" 
d="M678 1378q-116 0 -208 -35.5t-154 -97.5t-103 -150t-59.5 -190t-18.5 -221q0 -346 128 -513t396 -167q256 0 401.5 174.5t145.5 507.5q0 123 -17 225t-56.5 190t-99.5 148.5t-150 94.5t-205 34zM678 1391q117 0 209 -34.5t154 -96t102.5 -151t58 -194t17.5 -229.5
q0 -340 -149 -517t-411 -177q-275 0 -405.5 169.5t-130.5 522.5q0 122 18.5 225.5t61 193.5t106 153t157.5 99t212 36z" />
    <glyph glyph-name="Pi" unicode="&#x3a0;" horiz-adv-x="1294" 
d="M1139 0v1366h-983v-1366h-13v1378h1008v-1378h-12z" />
    <glyph glyph-name="Rho" unicode="&#x3a1;" horiz-adv-x="1120" 
d="M143 1378h488q205 0 321.5 -120t116.5 -306q0 -58 -11.5 -111.5t-42.5 -109.5t-78.5 -97t-126 -67t-179.5 -26h-475v-541h-13v1378zM631 1366h-475v-813h475q98 0 175 25t123 65t76 94t41 106.5t11 108.5q0 179 -114 296.5t-312 117.5z" />
    <glyph glyph-name="Sigma" unicode="&#x3a3;" horiz-adv-x="1087" 
d="M78 0v12l516 731l-514 619v16h942v-12h-930l516 -623l-514 -731h963v-12h-979z" />
    <glyph glyph-name="Tau" unicode="&#x3a4;" horiz-adv-x="1060" 
d="M541 1366v-1366h-13v1366h-508v12h1020v-12h-499z" />
    <glyph glyph-name="Upsilon" unicode="&#x3a5;" horiz-adv-x="993" 
d="M963 1378h14l-481 -790v-588h-13v588l-467 790h15l458 -776z" />
    <glyph glyph-name="Phi" unicode="&#x3a6;" horiz-adv-x="1466" 
d="M737 1378h13v-61q136 -1 241.5 -37.5t170.5 -95t107 -140.5t58 -166t16 -180q0 -86 -17.5 -166t-61 -159.5t-109 -138.5t-170 -96t-235.5 -38v-100h-13v100q-159 1 -279 47.5t-192 129.5t-107.5 188t-35.5 231q0 133 35.5 242.5t107.5 195.5t192 134t279 49v61zM135 696
q0 -122 34.5 -225t105 -184t188.5 -127t274 -47v1192q-156 -1 -274 -48.5t-188.5 -131.5t-105 -191.5t-34.5 -237.5zM1331 698q0 95 -15.5 177.5t-56.5 163t-105 137.5t-167 92.5t-237 36.5v-1192q130 1 232.5 37t166.5 93.5t106 135.5t59 156t17 163z" />
    <glyph glyph-name="Chi" unicode="&#x3a7;" horiz-adv-x="1097" 
d="M27 0l514 713l-475 665h14l469 -655l471 655h14l-479 -663l512 -715h-14l-506 705l-508 -705h-12z" />
    <glyph glyph-name="Psi" unicode="&#x3a8;" horiz-adv-x="1441" 
d="M725 0h-12v383q-131 1 -232.5 31t-166 79.5t-106 121t-58.5 150t-17 171.5v442h12v-442q0 -91 16.5 -167.5t57 -146.5t104 -118.5t163 -78t227.5 -30.5v983h12v-983q259 0 417 145t158 398v440h13v-440q0 -259 -161.5 -407t-426.5 -148v-383z" />
    <glyph glyph-name="Omega" unicode="&#x3a9;" horiz-adv-x="1376" 
d="M694 1395q125 0 225.5 -40.5t165 -108t108 -161t61.5 -194t18 -211.5q0 -106 -15 -202.5t-49 -191.5t-99.5 -167.5t-156.5 -106.5h361v-12h-379v18q92 32 158.5 101.5t101.5 163t50.5 191t15.5 206.5t-17.5 207t-60 190t-106 158.5t-161.5 106.5t-221 40t-221 -40
t-161.5 -106.5t-105.5 -158.5t-59.5 -190t-17.5 -207q0 -548 326 -662v-18h-383v12h364q-94 35 -159.5 104t-99 162.5t-47 189.5t-13.5 212q0 111 18 211.5t61 194t108 161t165 108t225 40.5z" />
    <glyph glyph-name="Iotadieresis" unicode="&#x3aa;" horiz-adv-x="380" 
d="M184 1378h13v-1378h-13v1378zM27 1595q0 7 6 13t14 6t13.5 -6t5.5 -13q0 -18 -19 -18q-20 0 -20 18zM328 1595q0 7 5 13t15 6q7 0 12 -6t5 -13q0 -18 -17 -18q-20 0 -20 18z" />
    <glyph glyph-name="Upsilondieresis" unicode="&#x3ab;" horiz-adv-x="993" 
d="M963 1378h14l-481 -790v-588h-13v588l-467 790h15l458 -776zM319 1579q0 6 6 12t15 6q8 0 13 -5.5t5 -12.5q0 -18 -18 -18q-21 0 -21 18zM621 1579q0 7 5 12.5t15 5.5q7 0 11.5 -5.5t4.5 -12.5q0 -18 -16 -18q-20 0 -20 18z" />
    <glyph glyph-name="alphatonos" unicode="&#x3ac;" horiz-adv-x="1032" 
d="M897 981h12v-981h-12v328q-29 -158 -134 -247t-261 -89q-400 0 -400 497q0 113 23.5 203t72 157.5t129.5 103.5t191 36q62 0 118.5 -16t111 -51t94 -100t55.5 -154v313zM518 977q-108 0 -187 -35.5t-125.5 -101.5t-68.5 -153t-22 -198q0 -485 387 -485q61 0 116.5 14.5
t107 49t89 86t60 129.5t22.5 176v71q0 106 -25 187.5t-63 129.5t-90.5 78.5t-100.5 41t-100 10.5zM522 1118l-10 4l156 293l18 -8z" />
    <glyph glyph-name="epsilontonos" unicode="&#x3ad;" horiz-adv-x="884" 
d="M125 725q0 111 83 181.5t257 70.5q156 0 247 -70.5t76 -191.5h13q15 126 -79.5 200t-256.5 74q-180 0 -266 -73.5t-86 -190.5q0 -151 180 -188q-58 -16 -100 -48.5t-62.5 -71.5t-29.5 -73.5t-9 -67.5q0 -127 90 -205.5t285 -78.5q68 0 131 17.5t117 52.5t84.5 96
t25.5 139h-12q4 -61 -14.5 -111t-52.5 -83.5t-80.5 -56t-96.5 -32.5t-102 -10q-189 0 -276 74.5t-87 197.5q0 107 72 181.5t186 74.5h189v13h-184q-45 0 -84.5 8.5t-76.5 27.5t-59 56t-22 88zM426 1118l-10 4l155 293l19 -8z" />
    <glyph glyph-name="etatonos" unicode="&#x3ae;" horiz-adv-x="1007" 
d="M444 1118l-10 4l156 293l18 -8zM135 0h-12v979h12v-313q15 74 47.5 133t72 93.5t86.5 57.5t86.5 31t76.5 8q88 0 154.5 -22t107 -58t65.5 -90.5t34 -112.5t9 -131v-575h-12v575q0 70 -8.5 126t-32.5 109.5t-63 88.5t-103.5 56.5t-150.5 21.5q-39 0 -82 -9.5t-96 -40
t-94 -77.5t-69 -130.5t-28 -191.5v-528z" />
    <glyph glyph-name="iotatonos" unicode="&#x3af;" horiz-adv-x="342" 
d="M166 979h12v-979h-12v979zM178 1118l-10 4l156 293l18 -8z" />
    <glyph glyph-name="upsilondieresistonos" unicode="&#x3b0;" horiz-adv-x="1034" 
d="M123 979h12v-600q0 -185 94.5 -280t278.5 -95q185 0 288 95t103 280v600h12v-600q0 -191 -106 -289t-297 -98q-190 0 -287.5 98t-97.5 289v600zM352 1204q0 6 6 12.5t15 6.5q8 0 13 -6t5 -13q0 -18 -18 -18q-21 0 -21 18zM653 1204q0 19 19 19q18 0 18 -19q0 -18 -16 -18
q-21 0 -21 18zM471 1118l-10 4l155 293l19 -8z" />
    <glyph glyph-name="alpha" unicode="&#x3b1;" horiz-adv-x="1032" 
d="M897 981h12v-981h-12v328q-29 -158 -134 -247t-261 -89q-400 0 -400 497q0 113 23.5 203t72 157.5t129.5 103.5t191 36q62 0 118.5 -16t111 -51t94 -100t55.5 -154v313zM518 977q-108 0 -187 -35.5t-125.5 -101.5t-68.5 -153t-22 -198q0 -485 387 -485q61 0 116.5 14.5
t107 49t89 86t60 129.5t22.5 176v71q0 106 -25 187.5t-63 129.5t-90.5 78.5t-100.5 41t-100 10.5z" />
    <glyph glyph-name="beta" unicode="&#x3b2;" horiz-adv-x="1040" 
d="M135 -305h-12v1362q0 190 96.5 304t288.5 114q173 0 257.5 -86.5t84.5 -229.5q0 -54 -18.5 -107.5t-67 -104t-119.5 -70.5q135 -21 214 -140.5t79 -281.5q0 -74 -13 -139.5t-43.5 -126t-76.5 -104t-116.5 -69.5t-158.5 -26q-158 0 -262 81.5t-133 229.5v-606zM135 1057
v-625q0 -197 102 -313.5t293 -116.5q86 0 154.5 25.5t113 68.5t74 102t42 122.5t12.5 134.5q0 110 -38 203t-114.5 151.5t-177.5 58.5h-164v13h139q59 0 107 20t77 50.5t48.5 68.5t27 71.5t7.5 63.5q0 138 -80 222.5t-250 84.5q-186 0 -279.5 -110.5t-93.5 -294.5z" />
    <glyph glyph-name="gamma" unicode="&#x3b3;" horiz-adv-x="829" 
d="M795 979h14l-375 -950v-449h-12v449l-313 843q-26 68 -37.5 86.5t-26.5 18.5q-7 0 -25 -6l-4 12q18 6 29 6q22 0 34.5 -18t41.5 -94l307 -828z" />
    <glyph glyph-name="delta" unicode="&#x3b4;" horiz-adv-x="1013" 
d="M160 1454v12h688v-12h-668q206 -131 338 -235.5t224.5 -219.5t131.5 -235.5t39 -271.5q0 -110 -22 -198t-69 -156.5t-127.5 -106t-190.5 -37.5q-212 0 -307 123.5t-95 353.5q0 262 114 389t327 127q120 0 221 -39q-84 120 -228.5 239t-375.5 267zM901 492q0 250 -125 438
q-104 45 -233 45q-207 0 -317.5 -124t-110.5 -380q0 -224 91.5 -344.5t297.5 -120.5q107 0 185 37t123.5 104t67 152.5t21.5 192.5z" />
    <glyph glyph-name="epsilon" unicode="&#x3b5;" horiz-adv-x="884" 
d="M125 725q0 -51 22 -88t59 -56t76.5 -27.5t84.5 -8.5h184v-13h-189q-114 0 -186 -74.5t-72 -181.5q0 -123 87 -197.5t276 -74.5q52 0 102 10t96.5 32.5t80.5 56t52.5 83.5t14.5 111h12q5 -78 -25.5 -139t-84.5 -96t-117 -52.5t-131 -17.5q-195 0 -285 78.5t-90 205.5
q0 33 9 67.5t29.5 73.5t62.5 71.5t100 48.5q-180 37 -180 188q0 117 86 190.5t266 73.5q162 0 256.5 -74t79.5 -200h-13q15 121 -76 191.5t-247 70.5q-174 0 -257 -70.5t-83 -181.5z" />
    <glyph glyph-name="zeta" unicode="&#x3b6;" horiz-adv-x="790" 
d="M868 1458v-12q-148 -125 -271.5 -246.5t-237.5 -257.5t-179 -267.5t-65 -240.5q0 -74 26 -133.5t77.5 -104.5t108 -76.5t138.5 -66.5q184 -77 246.5 -119.5t62.5 -91.5q0 -39 -29 -89.5t-90 -127.5l-10 8q58 73 86.5 122t28.5 87q0 43 -59.5 83t-239.5 116
q-63 27 -105.5 48t-95 57t-83.5 74t-53 93.5t-22 120.5q0 370 748 1012h-684v12h702z" />
    <glyph glyph-name="eta" unicode="&#x3b7;" horiz-adv-x="997" 
d="M135 0h-12v979h12v-313q15 74 47.5 133t72 93.5t86.5 57.5t86.5 31t76.5 8q88 0 154.5 -22t107 -58t65.5 -90.5t34 -112.5t9 -131v-575h-12v575q0 70 -8.5 126t-32.5 109.5t-63 88.5t-103.5 56.5t-150.5 21.5q-39 0 -82 -9.5t-96 -40t-94 -77.5t-69 -130.5t-28 -191.5
v-528z" />
    <glyph glyph-name="theta" unicode="&#x3b8;" horiz-adv-x="1050" 
d="M528 1475q76 0 138 -21.5t105 -58t75.5 -92.5t51.5 -116.5t30.5 -139.5t15.5 -152t4 -162q0 -79 -4 -147.5t-15.5 -145.5t-30.5 -139.5t-51.5 -121t-75.5 -98t-105 -63.5t-138 -24q-102 0 -178 38.5t-122.5 102.5t-75.5 160.5t-39.5 199t-10.5 230.5q0 167 20.5 296.5
t67.5 235t132 162t206 56.5zM528 6q85 0 152 30t110.5 85.5t73.5 122.5t45 154t21 165t6 170v39h-821v-47q0 -126 10 -226.5t37.5 -195.5t73 -158t119.5 -101t173 -38zM528 1462q-91 0 -161 -34t-116 -93t-76 -146.5t-43.5 -185.5t-16.5 -219h821q-1 81 -6.5 149.5
t-18.5 139.5t-32.5 127t-51 106.5t-72.5 83.5t-99 52.5t-128 19.5z" />
    <glyph glyph-name="iota" unicode="&#x3b9;" horiz-adv-x="342" 
d="M166 979h12v-979h-12v979z" />
    <glyph glyph-name="kappa" unicode="&#x3ba;" horiz-adv-x="843" 
d="M805 979h14l-348 -471l356 -508h-16l-350 502h-326v-502h-12v979h12v-465h326z" />
    <glyph glyph-name="lambda" unicode="&#x3bb;" horiz-adv-x="874" 
d="M74 1456v12h78q81 0 117 -36.5t71 -133.5l434 -1212q16 -45 25.5 -59.5t27.5 -14.5q13 0 29 4l2 -12q-20 -4 -31 -4q-24 0 -35 15t-30 67l-309 860h-39l-369 -942h-14l375 954h43l-121 340q-35 96 -68.5 129t-107.5 33h-78z" />
    <glyph glyph-name="nu" unicode="&#x3bd;" horiz-adv-x="833" 
d="M422 0h-16l-390 979h13l385 -969l387 969h12z" />
    <glyph glyph-name="xi" unicode="&#x3be;" horiz-adv-x="825" 
d="M154 1157q0 -82 36.5 -143t97.5 -93.5t127 -47.5t138 -15h160v-12h-203q-82 0 -150 -25.5t-112.5 -67.5t-75 -97t-44 -112t-13.5 -116q0 -79 30 -139t96.5 -108t151.5 -84.5t215 -76.5q119 -36 156 -63t37 -66q0 -49 -96 -194l-11 6q43 65 68.5 117t25.5 71
q0 34 -35.5 58t-148.5 59q-102 32 -173 59.5t-137 65t-105.5 78t-63 95.5t-23.5 122q0 48 9 96.5t33 103t60.5 98.5t98 79.5t139.5 48.5q-88 15 -150.5 49t-93.5 79t-44 87.5t-13 89.5q0 134 94.5 224t280.5 90q170 0 263.5 -73t80.5 -200h-12q13 120 -77.5 190t-254.5 70
q-93 0 -164 -24t-113.5 -66.5t-63.5 -96t-21 -116.5z" />
    <glyph glyph-name="omicron" unicode="&#x3bf;" horiz-adv-x="1013" 
d="M510 977q-105 0 -182.5 -37.5t-123 -106t-67.5 -156.5t-22 -198q0 -242 93 -358.5t302 -116.5q181 0 285 121.5t104 361.5q0 107 -21 193t-65.5 154t-121.5 105.5t-181 37.5zM510 989q86 0 154.5 -25.5t114.5 -69.5t76 -108t43 -138t13 -161q0 -246 -106.5 -370.5
t-294.5 -124.5q-216 0 -312 119.5t-96 367.5q0 89 14 165t45 140.5t78 109t115.5 70t155.5 25.5z" />
    <glyph glyph-name="pi" unicode="&#x3c0;" horiz-adv-x="1019" 
d="M885 967h-750v-967h-12v979h774v-979h-12v967z" />
    <glyph glyph-name="rho" unicode="&#x3c1;" horiz-adv-x="1044" 
d="M537 989q204 0 304.5 -130.5t100.5 -360.5q0 -111 -22.5 -200t-70.5 -159t-131 -108.5t-196 -38.5q-159 0 -260 85t-127 249v-746h-12v946q0 100 23.5 182t72 146t130 99.5t188.5 35.5zM135 506v-47q0 -119 30 -208.5t83.5 -142.5t122 -78.5t151.5 -25.5q89 0 159 25.5
t116.5 70t76.5 107.5t43 135t13 156q0 225 -98.5 352t-294.5 127q-86 0 -156.5 -25t-127 -78.5t-87.5 -147t-31 -220.5z" />
    <glyph glyph-name="sigma1" unicode="&#x3c2;" horiz-adv-x="892" 
d="M868 717h-12q7 59 -11.5 105.5t-52.5 74.5t-81.5 46t-92.5 25t-92 7q-94 0 -166.5 -27.5t-119 -74.5t-76 -113.5t-41.5 -139t-12 -157.5q0 -66 15.5 -118t42 -91t75 -75t102 -64t135.5 -64q172 -75 210 -102q42 -29 42 -60q0 -18 -19.5 -55.5t-38 -66.5t-57.5 -86l-10 6
q113 164 113 202q0 30 -52.5 60t-191.5 90q-85 37 -141 67t-105 67t-76 77t-42 93t-15 120q0 88 12.5 162t43.5 142.5t78.5 116t122.5 75.5t171 28q49 0 96.5 -7.5t96.5 -26.5t84 -48.5t54 -78t11 -109.5z" />
    <glyph glyph-name="sigma" unicode="&#x3c3;" horiz-adv-x="1062" 
d="M520 979h461v-12h-346q150 -35 221.5 -163.5t71.5 -320.5q0 -245 -109.5 -368t-298.5 -123q-217 0 -315.5 118.5t-98.5 364.5q0 231 101.5 367.5t312.5 136.5zM520 967q-84 0 -151.5 -24t-114 -67.5t-77 -105.5t-44.5 -135t-14 -160q0 -240 95 -355.5t306 -115.5
q182 0 288.5 120t106.5 359q0 106 -22 191.5t-67.5 152.5t-123 103.5t-182.5 36.5z" />
    <glyph glyph-name="tau" unicode="&#x3c4;" horiz-adv-x="700" 
d="M643 979v-12h-338v-691q0 -155 61.5 -213.5t198.5 -58.5q41 0 99 6v-12q-58 -6 -99 -6q-143 0 -207.5 61.5t-64.5 222.5v691h-277v12h627z" />
    <glyph glyph-name="upsilon" unicode="&#x3c5;" horiz-adv-x="1034" 
d="M123 979h12v-600q0 -185 94.5 -280t278.5 -95q185 0 288 95t103 280v600h12v-600q0 -191 -106 -289t-297 -98q-190 0 -287.5 98t-97.5 289v600z" />
    <glyph glyph-name="phi" unicode="&#x3c6;" horiz-adv-x="1228" 
d="M608 -420h-12v412q-110 2 -197 32t-142 77t-90.5 112t-50 132.5t-14.5 143.5q0 104 23.5 190t80 157t142.5 108l4 -12q-83 -36 -137.5 -105t-77 -152.5t-22.5 -185.5q0 -75 14 -141t48.5 -129t87.5 -109t138 -75t193 -31v979h35q495 0 495 -494q0 -76 -14 -143
t-50.5 -133.5t-93 -114t-149 -77t-211.5 -29.5v-412zM608 971v-967q117 0 207 28.5t145.5 75t91 111.5t49 130.5t13.5 139.5q0 482 -483 482h-23z" />
    <glyph glyph-name="chi" unicode="&#x3c7;" horiz-adv-x="800" 
d="M20 0l369 502l-350 477h14l342 -469l346 469h15l-353 -475l373 -504h-14l-365 494l-362 -494h-15z" />
    <glyph glyph-name="psi" unicode="&#x3c8;" horiz-adv-x="1138" 
d="M557 979h12v-977q69 1 130.5 14t119 43t99 75t66 115t24.5 157v573h12v-573q0 -111 -37.5 -194t-103 -130t-143 -69t-167.5 -23v-410h-12v410q-213 2 -325.5 98t-112.5 313v578h12v-578q0 -108 29.5 -185.5t86.5 -123.5t133 -67.5t177 -22.5v977z" />
    <glyph glyph-name="omega" unicode="&#x3c9;" horiz-adv-x="1558" 
d="M1456 483q0 -52 -3 -96t-12.5 -95t-25.5 -92t-43.5 -80.5t-64 -65.5t-90 -42t-119.5 -16q-113 0 -207.5 65.5t-112.5 163.5q-30 -104 -114.5 -166.5t-202.5 -62.5q-66 0 -119 13.5t-90 37t-64.5 60t-43.5 75.5t-25.5 91t-13 100.5t-3.5 109.5q0 506 387 506v-12
q-105 0 -179 -36.5t-116 -105t-60.5 -155t-18.5 -197.5q0 -84 6.5 -147t28 -128t58.5 -106.5t101 -67.5t152 -26q140 0 226.5 85t86.5 212v326h12v-355q0 -119 94 -193.5t224 -74.5q85 0 148.5 30t99 75t57.5 111.5t28.5 126.5t6.5 132q0 88 -11.5 160.5t-38.5 135.5
t-69 106t-107 67.5t-149 24.5v12q108 -1 185 -39t120.5 -108t62.5 -158t19 -201z" />
    <glyph glyph-name="iotadieresis" unicode="&#x3ca;" horiz-adv-x="342" 
d="M166 979h12v-979h-12v979zM4 1204q0 6 6 12.5t15 6.5q8 0 13 -6t5 -13q0 -18 -18 -18q-21 0 -21 18zM305 1204q0 7 5.5 13t15.5 6q7 0 11.5 -6t4.5 -13q0 -18 -16 -18q-21 0 -21 18z" />
    <glyph glyph-name="upsilondieresis" unicode="&#x3cb;" horiz-adv-x="1034" 
d="M123 979h12v-600q0 -185 94.5 -280t278.5 -95q185 0 288 95t103 280v600h12v-600q0 -191 -106 -289t-297 -98q-190 0 -287.5 98t-97.5 289v600zM344 1204q0 6 6 12.5t15 6.5q8 0 13 -6t5 -13q0 -18 -18 -18q-21 0 -21 18zM645 1204q0 7 5.5 13t15.5 6q7 0 11.5 -6
t4.5 -13q0 -18 -16 -18q-21 0 -21 18z" />
    <glyph glyph-name="omicrontonos" unicode="&#x3cc;" horiz-adv-x="1013" 
d="M510 977q-105 0 -182.5 -37.5t-123 -106t-67.5 -156.5t-22 -198q0 -242 93 -358.5t302 -116.5q181 0 285 121.5t104 361.5q0 107 -21 193t-65.5 154t-121.5 105.5t-181 37.5zM510 989q86 0 154.5 -25.5t114.5 -69.5t76 -108t43 -138t13 -161q0 -246 -106.5 -370.5
t-294.5 -124.5q-216 0 -312 119.5t-96 367.5q0 89 14 165t45 140.5t78 109t115.5 70t155.5 25.5zM500 1118l-11 4l156 293l19 -8z" />
    <glyph glyph-name="upsilontonos" unicode="&#x3cd;" horiz-adv-x="1034" 
d="M123 979h12v-600q0 -185 94.5 -280t278.5 -95q185 0 288 95t103 280v600h12v-600q0 -191 -106 -289t-297 -98q-190 0 -287.5 98t-97.5 289v600zM492 1118l-11 4l156 293l18 -8z" />
    <glyph glyph-name="omegatonos" unicode="&#x3ce;" horiz-adv-x="1558" 
d="M1456 483q0 113 -19 201t-62.5 158t-120.5 108t-185 39v-12q84 0 149 -24.5t107 -67.5t69 -106t38.5 -135.5t11.5 -160.5q0 -72 -6.5 -132t-28.5 -126.5t-57.5 -111.5t-99 -75t-148.5 -30q-130 0 -224 74.5t-94 193.5v355h-12v-326q0 -127 -86.5 -212t-226.5 -85
q-88 0 -152 26t-101 67.5t-58.5 106.5t-28 128t-6.5 147q0 111 18.5 197.5t60.5 155t116 105t179 36.5v12q-387 0 -387 -506q0 -61 3.5 -109.5t13 -100.5t25.5 -91t43.5 -75.5t64.5 -60t90 -37t119 -13.5q118 0 202.5 62.5t114.5 166.5q18 -98 112.5 -163.5t207.5 -65.5
q66 0 119.5 16t90 42t64 65.5t43.5 80.5t25.5 92t12.5 95t3 96zM776 1118l-10 4l156 293l18 -8z" />
    <glyph glyph-name="Sampigreek" unicode="&#x3e0;" horiz-adv-x="1269" 
d="M397 248l-4 12q521 287 694 385q-69 191 -200 334l-686 -379l-4 12l680 377q-256 265 -709 328v12q244 -32 434 -126t312.5 -235.5t185.5 -323t63 -394.5q0 -208 -28 -330l-13 4q29 126 29 326q0 203 -59 383q-177 -100 -695 -385z" />
    <glyph glyph-name="sampigreek" unicode="&#x3e1;" horiz-adv-x="1083" 
d="M317 12l-8 13l602 358q-56 177 -174 313l-590 -352l-8 12l590 351q-222 252 -612 309v12q169 -24 309 -86.5t241.5 -154.5t172 -212t105 -261.5t34.5 -299.5q0 -182 -25 -309l-12 4q25 128 25 305q0 190 -52 355z" />
    <glyph glyph-name="endash" unicode="&#x2013;" horiz-adv-x="1024" 
d="M53 510v20h926v-20h-926z" />
    <glyph glyph-name="emdash" unicode="&#x2014;" horiz-adv-x="2048" 
d="M39 510v20h1982v-20h-1982z" />
    <glyph glyph-name="afii00208" unicode="&#x2015;" horiz-adv-x="2048" 
d="M39 510v20h1982v-20h-1982z" />
    <glyph glyph-name="quoteleft" unicode="&#x2018;" horiz-adv-x="299" 
d="M203 1397l-66 -162q12 0 20.5 -7.5t8.5 -19.5q0 -10 -8 -18t-19 -8t-18.5 7t-7.5 17q0 11 6 23l76 172z" />
    <glyph glyph-name="quoteright" unicode="&#x2019;" horiz-adv-x="299" 
d="M96 1171l66 162q-12 0 -20.5 7.5t-8.5 19.5q0 10 8 18t19 8q12 0 19 -7t7 -17q0 -11 -6 -23l-76 -172z" />
    <glyph glyph-name="quotesinglbase" unicode="&#x201a;" horiz-adv-x="280" 
d="M76 -193l69 183q-11 0 -19.5 7t-8.5 19q0 11 8 19t18 8q11 0 19 -7.5t8 -17.5t-6 -22l-80 -193z" />
    <glyph glyph-name="quotedblleft" unicode="&#x201c;" horiz-adv-x="391" 
d="M203 1397l-66 -162q12 0 20.5 -7.5t8.5 -19.5q0 -10 -8 -18t-19 -8t-18.5 7t-7.5 17q0 11 6 23l76 172zM295 1397l-66 -162q12 0 20.5 -7.5t8.5 -19.5q0 -10 -8 -18t-19 -8t-18.5 7t-7.5 17q0 11 6 23l76 172z" />
    <glyph glyph-name="quotedblright" unicode="&#x201d;" horiz-adv-x="399" 
d="M193 1171l65 162q-12 0 -20.5 7.5t-8.5 19.5q0 10 8 18t19 8q12 0 19.5 -7.5t7.5 -16.5t-7 -23l-75 -172zM100 1171l66 162q-12 0 -20.5 7.5t-8.5 19.5q0 10 8 18t19 8q12 0 19 -7t7 -17q0 -11 -6 -23l-75 -172z" />
    <glyph glyph-name="quotedblbase" unicode="&#x201e;" horiz-adv-x="385" 
d="M76 -193l69 183q-11 0 -19.5 7t-8.5 19q0 11 8 19t18 8q11 0 19 -7.5t8 -17.5t-6 -22l-80 -193zM176 -193l70 183q-11 0 -20 7.5t-9 18.5q0 10 8.5 18.5t18.5 8.5q11 0 18.5 -7.5t7.5 -17.5t-6 -22l-80 -193z" />
    <glyph glyph-name="dagger" unicode="&#x2020;" horiz-adv-x="1103" 
d="M158 975v12h356v436h12v-436h371v-12h-371v-1217h-12v1217h-356z" />
    <glyph glyph-name="daggerdbl" unicode="&#x2021;" horiz-adv-x="1103" 
d="M162 975v12h356v436h12v-436h371v-12h-371v-639h371v-12h-371v-566h-12v566h-356v12h356v639h-356z" />
    <glyph glyph-name="bullet" unicode="&#x2022;" horiz-adv-x="722" 
d="M242 514q0 50 34.5 84.5t83.5 34.5q50 0 84.5 -34.5t34.5 -84.5t-34.5 -84.5t-84.5 -34.5q-49 0 -83.5 34.5t-34.5 84.5z" />
    <glyph glyph-name="trianglebullet" unicode="&#x2023;" horiz-adv-x="708" 
d="M166 803l477 -236l-477 -258v494z" />
    <glyph glyph-name="ellipsis" unicode="&#x2026;" horiz-adv-x="778" 
d="M123 18q0 7 5 14t15 7q21 0 21 -21q0 -7 -5.5 -13.5t-15.5 -6.5q-20 0 -20 20zM369 18q0 7 5 14t15 7q21 0 21 -21q0 -7 -5.5 -13.5t-15.5 -6.5q-20 0 -20 20zM614 18q0 7 5.5 14t15.5 7q20 0 20 -21q0 -7 -5 -13.5t-15 -6.5q-21 0 -21 20z" />
    <glyph glyph-name="perthousand" unicode="&#x2030;" horiz-adv-x="2287" 
d="M356 -63l-12 4l854 1501l12 -4zM391 1399q94 0 161 -33t103 -92t52 -127.5t16 -153.5q0 -78 -18 -146t-55.5 -125.5t-103.5 -90.5t-155 -33q-334 0 -334 393q0 190 80 299t254 109zM391 1386q-168 0 -244.5 -105.5t-76.5 -289.5q0 -381 321 -381q86 0 150 32.5t100 88.5
t53 121.5t17 140.5q0 64 -9 119t-31.5 106.5t-58 88t-92 58t-129.5 21.5zM1171 791q94 0 161 -33t103 -92t52 -127.5t16 -153.5q0 -78 -18 -146t-55.5 -125.5t-103.5 -90.5t-155 -33q-333 0 -333 393q0 191 79.5 299.5t253.5 108.5zM1171 778q-168 0 -244.5 -105.5
t-76.5 -289.5q0 -381 321 -381q86 0 150 32.5t100 88.5t53 121.5t17 140.5q0 64 -9 119t-31.5 106.5t-58 88t-92 58t-129.5 21.5zM1894 791q94 0 161 -33t103 -92t52 -127.5t16 -153.5q0 -78 -18 -146t-55.5 -125.5t-103.5 -90.5t-155 -33q-333 0 -333 393q0 191 79.5 299.5
t253.5 108.5zM1894 778q-168 0 -244.5 -105.5t-76.5 -289.5q0 -381 321 -381q86 0 150 32.5t100 88.5t53 121.5t17 140.5q0 64 -9 119t-31.5 106.5t-58 88t-92 58t-129.5 21.5z" />
    <glyph glyph-name="guilsinglleft" unicode="&#x2039;" horiz-adv-x="565" 
d="M453 66l-326 383v12l309 387l8 -6l-301 -387l318 -383z" />
    <glyph glyph-name="guilsinglright" unicode="&#x203a;" horiz-adv-x="565" 
d="M440 449l-325 -383l-9 6l318 383l-301 387l8 6l309 -387v-12z" />
    <glyph glyph-name="fraction" unicode="&#x2044;" horiz-adv-x="319" 
d="M-238 -63l-12 4l854 1501l12 -4z" />
    <glyph glyph-name="fraction" unicode="&#x2215;" horiz-adv-x="319" 
d="M-238 -63l-12 4l854 1501l12 -4z" />
    <glyph glyph-name="foursuperior" unicode="&#x2074;" horiz-adv-x="761" 
d="M578 1573h12v-557h133v-12h-133v-211h-12v211h-527v12zM578 1556l-510 -540h510v540z" />
    <glyph glyph-name="Euro" unicode="&#x20ac;" 
d="M899 623v-13h-778q2 -140 29.5 -248t87 -190t159.5 -125t238 -43q116 0 206 30.5t144 83.5t78.5 122.5t17.5 148.5h13q7 -83 -18 -154t-80 -125.5t-148 -86t-213 -31.5q-114 0 -202 29t-148.5 81.5t-99.5 130t-57 170.5t-19 207h-89v13h879zM20 766v12h95
q12 170 72.5 294t178.5 196.5t285 72.5q83 0 160 -22.5t139.5 -65.5t95 -115.5t19.5 -162.5h-12q10 71 -9 130.5t-58.5 100t-94.5 69t-115.5 41.5t-124.5 13q-243 0 -374.5 -148.5t-149.5 -402.5h772v-12h-879z" />
    <glyph glyph-name="trademark" unicode="&#x2122;" horiz-adv-x="1333" 
d="M637 1378l266 -456l273 456h8v-745h-10v723l-267 -449h-8l-260 445v-719h-12v745h10zM319 1366v-733h-12v733h-235v12h479v-12h-232z" />
    <glyph glyph-name="onethird" horiz-adv-x="1556" 
d="M78 608v13h250v753l-222 -37l-2 13l224 39h12v-768h254v-13h-516zM334 -63l-12 4l854 1501l12 -4zM1464 780v-12l-321 -289h33q135 0 219 -65.5t84 -171.5q0 -114 -86 -183t-234 -69q-36 0 -74 5.5t-80.5 20.5t-74 38t-48.5 62t-10 89h13q-7 -47 10 -84.5t46.5 -59
t70 -35.5t76.5 -19t71 -5q141 0 224 66.5t83 173.5q0 100 -80.5 162.5t-209.5 62.5q-30 0 -50 -2l-6 10l328 293h-528v12h544z" />
    <glyph glyph-name="twothirds" horiz-adv-x="1556" 
d="M633 621v-13h-610v27q0 46 14 84.5t35.5 68t66.5 63.5t86 59t115 67q56 31 93 54.5t75 55t57 65.5t19 71q0 76 -62 119.5t-184 43.5q-139 0 -203.5 -52t-62.5 -134h-13q-2 89 66 144t213 55q128 0 193 -47t65 -129q0 -39 -20 -75.5t-60 -69.5t-78 -57.5t-94 -55.5
q-85 -47 -133.5 -78t-93 -71.5t-63.5 -83.5t-19 -97v-14h598zM381 -63l-12 4l854 1501l12 -4zM1499 780v-12l-321 -289h32q135 0 219 -65.5t84 -171.5q0 -114 -85.5 -183t-233.5 -69q-36 0 -74 5.5t-80.5 20.5t-74 38t-48.5 62t-10 89h13q-7 -47 10 -84.5t46.5 -59t70 -35.5
t76.5 -19t71 -5q141 0 224 66.5t83 173.5q0 100 -81 162.5t-210 62.5q-29 0 -49 -2l-6 10l328 293h-529v12h545z" />
    <glyph glyph-name="onefifth" horiz-adv-x="1556" 
d="M76 608v13h250v753l-222 -37l-2 13l224 39h12v-768h254v-13h-516zM344 -63l-12 4l854 1501l12 -4zM975 463l-10 6l45 311h438v-12h-426l-43 -291q98 19 188 19q66 0 120.5 -13t101 -40.5t72.5 -77.5t26 -119q0 -114 -83 -185t-235 -71q-43 0 -82 5.5t-80 20.5t-69.5 39
t-44 64.5t-8.5 93.5h12q-7 -50 8 -88.5t42 -61t66.5 -37t77 -19.5t78.5 -5q146 0 226 68t80 176q0 66 -25.5 113.5t-70 73.5t-97 38t-115.5 12q-95 0 -192 -20z" />
    <glyph glyph-name="twofifths" horiz-adv-x="1556" 
d="M629 621v-13h-611v27q0 39 8 71t28.5 61.5t42.5 52t64 51t77.5 50t97.5 56.5q56 31 93 54.5t75 55t57 65.5t19 71q0 76 -62 119.5t-184 43.5q-139 0 -203.5 -52t-62.5 -134h-13q-2 89 66 144t213 55q128 0 193 -47t65 -129q0 -39 -20 -75.5t-60 -69.5t-78 -57.5
t-94 -55.5q-85 -47 -133.5 -78t-93 -71.5t-63.5 -83.5t-19 -97v-14h598zM385 -63l-12 4l854 1501l12 -4zM1010 463l-11 6l45 311h439v-12h-426l-43 -291q98 19 188 19q66 0 120.5 -13t101 -40.5t72.5 -77.5t26 -119q0 -114 -83 -185t-235 -71q-43 0 -82 5.5t-80 20.5
t-69.5 39t-44 64.5t-8.5 93.5h12q-7 -50 8 -88.5t42 -61t66.5 -37t77 -19.5t78.5 -5q146 0 225.5 68t79.5 176q0 66 -25 113.5t-69.5 73.5t-97 38t-115.5 12q-94 0 -192 -20z" />
    <glyph glyph-name="threefifths" horiz-adv-x="1556" 
d="M627 1389v-13l-322 -289h33q135 0 219 -65.5t84 -171.5q0 -114 -85.5 -183t-233.5 -69q-36 0 -74 5.5t-80.5 20.5t-74 38t-48.5 62t-10 89h12q-7 -47 10 -84.5t46.5 -59t70.5 -35.5t77 -19t71 -5q141 0 224 66.5t83 173.5q0 100 -81 162.5t-210 62.5q-29 0 -49 -2l-6 10
l327 293h-528v13h545zM369 -63l-13 4l854 1501l13 -4zM1010 463l-11 6l45 311h439v-12h-426l-43 -291q98 19 188 19q66 0 120.5 -13t101 -40.5t72.5 -77.5t26 -119q0 -114 -83 -185t-235 -71q-43 0 -82 5.5t-80 20.5t-69.5 39t-44 64.5t-8.5 93.5h12q-7 -50 8 -88.5t42 -61
t66.5 -37t77 -19.5t78.5 -5q146 0 225.5 68t79.5 176q0 66 -25 113.5t-69.5 73.5t-97 38t-115.5 12q-94 0 -192 -20z" />
    <glyph glyph-name="fourfifths" horiz-adv-x="1556" 
d="M549 1389h12v-558h133v-12h-133v-211h-12v211h-526v12zM549 1372l-510 -541h510v541zM375 -63l-13 4l855 1501l12 -4zM1024 463l-10 6l45 311h438v-12h-426l-43 -291q98 19 189 19q66 0 120.5 -13t100.5 -40.5t72 -77.5t26 -119q0 -114 -82.5 -185t-234.5 -71
q-55 0 -103.5 9.5t-95 32.5t-70.5 69.5t-16 111.5h12q-8 -62 15 -106t68 -65.5t91.5 -30.5t98.5 -9q146 0 225.5 68t79.5 176q0 66 -25 113.5t-69.5 73.5t-97 38t-115.5 12q-95 0 -193 -20z" />
    <glyph glyph-name="onesixth" horiz-adv-x="1556" 
d="M68 608v13h249v753l-221 -37l-2 13l223 39h13v-768h254v-13h-516zM360 -63l-12 4l854 1501l12 -4zM1475 590h-13q3 55 -19 93.5t-61 57.5t-77.5 27t-81.5 8q-75 0 -132 -30.5t-91 -78.5t-55 -115t-28.5 -131t-7.5 -136q21 91 104.5 144.5t188.5 53.5q135 0 214 -62.5
t79 -176.5q0 -115 -76.5 -184.5t-220.5 -69.5q-208 0 -272 141q-29 68 -29 174q0 73 8.5 138t31.5 129.5t58.5 111t94 75.5t133.5 29q45 0 86 -8t82.5 -28t64.5 -61.5t19 -100.5zM1202 471q-70 0 -133.5 -25.5t-108.5 -81.5t-45 -131q0 -44 20 -92t58 -80q71 -59 205 -59
q138 0 211.5 67t73.5 175q0 107 -76 167t-205 60z" />
    <glyph glyph-name="fivesixths" horiz-adv-x="1556" 
d="M141 1071l-10 6l45 312h438v-13h-426l-43 -291q98 19 189 19q66 0 120.5 -13t100.5 -40.5t72 -77.5t26 -119q0 -114 -82.5 -185t-234.5 -71q-55 0 -103.5 9.5t-95 32.5t-70.5 69.5t-16 111.5h12q-8 -62 15 -106t68 -65.5t91.5 -30.5t98.5 -9q146 0 225.5 68t79.5 176
q0 66 -25 113.5t-69.5 74t-97 38.5t-115.5 12q-91 0 -193 -21zM375 -63l-13 4l855 1501l12 -4zM1491 590h-12q3 55 -19 93.5t-61 57.5t-78 27t-82 8q-75 0 -132 -30.5t-90.5 -78.5t-54.5 -115.5t-28.5 -131t-7.5 -135.5q21 91 104.5 144.5t188.5 53.5q135 0 213.5 -62.5
t78.5 -176.5q0 -115 -76.5 -184.5t-220.5 -69.5q-208 0 -272 141q-29 68 -29 174q0 73 8.5 138t31.5 129.5t58.5 111t94 75.5t133.5 29q45 0 86 -8t82.5 -28t64.5 -61.5t19 -100.5zM1219 471q-70 0 -133.5 -25.5t-108.5 -81.5t-45 -131q0 -44 20 -92t58 -80q71 -59 204 -59
q138 0 211.5 67t73.5 175q0 107 -75.5 167t-204.5 60z" />
    <glyph glyph-name="oneeighth" horiz-adv-x="1556" 
d="M59 608v13h250v753l-221 -37l-2 13l223 39h13v-768h253v-13h-516zM354 -63l-12 4l854 1501l12 -4zM1200 791q130 0 191 -52.5t61 -122.5q0 -16 -4 -34t-18.5 -43t-37 -46.5t-63.5 -41.5t-94 -31q66 -9 115 -30.5t75 -45.5t42 -54t20 -50t4 -39q0 -88 -76.5 -149.5
t-216.5 -61.5q-138 0 -214.5 54t-76.5 149q0 27 10 54.5t34.5 61t79.5 63.5t134 48q-219 46 -219 186q0 71 66.5 128t187.5 57zM1198 2q70 0 132 20t105.5 66t43.5 111q0 85 -69.5 143.5t-209.5 71.5q-125 -19 -202.5 -78t-77.5 -141q0 -95 76.5 -144t201.5 -49zM1198 778
q-104 0 -172 -48.5t-68 -123.5q0 -138 240 -180q118 14 180 68.5t62 117.5q0 80 -65 123t-177 43z" />
    <glyph glyph-name="threeeighths" horiz-adv-x="1556" 
d="M631 1389v-13l-322 -289h33q135 0 219 -65.5t84 -171.5q0 -114 -85.5 -183t-233.5 -69q-36 0 -74 5.5t-80.5 20.5t-74 38t-48.5 62t-10 89h12q-7 -47 10 -84.5t46.5 -59t70.5 -35.5t77 -19t71 -5q141 0 224 66.5t83 173.5q0 100 -81 162.5t-210 62.5q-29 0 -49 -2l-6 10
l327 293h-528v13h545zM381 -63l-12 4l854 1501l12 -4zM1214 791q130 0 191 -52.5t61 -122.5q0 -16 -4 -34t-18.5 -43t-37 -46.5t-63.5 -41.5t-94 -31q66 -9 115 -30.5t75 -45.5t42 -54t20 -50t4 -39q0 -88 -76.5 -149.5t-216.5 -61.5q-138 0 -214 53.5t-76 149.5
q0 27 10 54.5t34.5 61t79.5 63.5t134 48q-219 46 -219 186q0 71 66 128t187 57zM1212 2q70 0 132 20t105.5 66t43.5 111q0 85 -69.5 143.5t-209.5 71.5q-125 -19 -202.5 -78t-77.5 -141q0 -95 76.5 -144t201.5 -49zM1212 778q-104 0 -171.5 -48.5t-67.5 -123.5
q0 -138 239 -180q118 14 180 68.5t62 117.5q0 80 -65 123t-177 43z" />
    <glyph glyph-name="fiveeighths" horiz-adv-x="1556" 
d="M145 1071l-10 6l45 312h438v-13h-425l-43 -291q98 19 188 19q66 0 120.5 -13t100.5 -40.5t72 -77.5t26 -119q0 -114 -82.5 -185t-234.5 -71q-55 0 -103.5 9.5t-95 32.5t-70.5 69.5t-16 111.5h13q-7 -50 8 -88.5t42 -61t66.5 -37t77 -19.5t78.5 -5q146 0 225.5 68
t79.5 176q0 66 -25 113.5t-69.5 74t-97 38.5t-115.5 12q-91 0 -193 -21zM369 -63l-13 4l854 1501l13 -4zM1204 791q130 0 191 -52.5t61 -122.5q0 -16 -4 -34t-18.5 -43t-37 -46.5t-63.5 -41.5t-94 -31q66 -9 115 -30.5t75 -45.5t42 -54t20 -50t4 -39q0 -88 -76.5 -149.5
t-216.5 -61.5q-138 0 -214.5 54t-76.5 149q0 27 10 54.5t34.5 61t79.5 63.5t134 48q-219 46 -219 186q0 71 66.5 128t187.5 57zM1202 2q70 0 132 20t105.5 66t43.5 111q0 85 -69.5 143.5t-209.5 71.5q-125 -19 -202.5 -78t-77.5 -141q0 -95 76.5 -144t201.5 -49zM1202 778
q-104 0 -171.5 -48.5t-67.5 -123.5q0 -138 239 -180q118 14 180 68.5t62 117.5q0 80 -65 123t-177 43z" />
    <glyph glyph-name="seveneighths" horiz-adv-x="1556" 
d="M659 1389v-13l-415 -768h-15l416 768h-563v13h577zM272 -63l-12 4l854 1501l12 -4zM1176 791q130 0 190.5 -52t60.5 -123q0 -16 -4 -34t-18.5 -43t-37 -46.5t-63.5 -41.5t-94 -31q66 -9 115 -30.5t75 -45.5t42 -54t20 -50t4 -39q0 -88 -76 -149.5t-216 -61.5
q-138 0 -214.5 54t-76.5 149q0 27 10 54.5t34.5 61t79.5 63.5t134 48q-219 46 -219 186q0 71 66.5 128t187.5 57zM1174 2q52 0 100.5 12t89.5 35t65.5 62t24.5 88q0 85 -69.5 143.5t-208.5 71.5q-125 -19 -203 -78t-78 -141q0 -95 76.5 -144t202.5 -49zM1174 778
q-104 0 -172 -48.5t-68 -123.5q0 -138 240 -180q118 14 179.5 68.5t61.5 117.5q0 80 -64.5 123t-176.5 43z" />
    <glyph glyph-name="arrowup" unicode="&#x2191;" horiz-adv-x="993" 
d="M516 1315v-1311h-55v1311l-350 -361l-45 47l426 426l421 -426l-43 -47z" />
    <glyph glyph-name="arrowdown" unicode="&#x2193;" horiz-adv-x="993" 
d="M516 1430v-1311l354 360l43 -47l-421 -426l-426 426l45 47l350 -360v1311h55z" />
    <glyph glyph-name="minus" unicode="&#x2212;" 
d="M926 557h-738v18h738v-18z" />
    <glyph glyph-name="zero.numerator" horiz-adv-x="761" 
d="M383 1399q94 0 161 -33t103 -92t52 -127.5t16 -153.5q0 -78 -18 -146t-55.5 -125.5t-103.5 -90.5t-155 -33q-334 0 -334 393q0 190 80 299t254 109zM383 1386q-168 0 -245 -105.5t-77 -289.5q0 -381 322 -381q69 0 124.5 22t91 58t59.5 86t34 104t10 113q0 82 -15 148
t-49.5 123.5t-99 89.5t-155.5 32z" />
    <glyph glyph-name="one.numerator" horiz-adv-x="761" 
d="M129 608v13h250v753l-221 -37l-2 13l223 39h12v-768h254v-13h-516z" />
    <glyph glyph-name="two.numerator" horiz-adv-x="761" 
d="M670 621v-13h-611v27q0 39 8 71t28.5 61.5t42.5 52t64 51t77.5 50t97.5 56.5q56 31 93 54.5t75 55t57 65.5t19 71q0 76 -62 119.5t-184 43.5q-139 0 -203.5 -52t-62.5 -134h-13q-2 89 66 144t213 55q128 0 193 -47t65 -129q0 -39 -20 -75.5t-60 -69.5t-78 -57.5
t-94 -55.5q-85 -47 -133.5 -78t-93 -71.5t-63.5 -83.5t-19 -97v-14h598z" />
    <glyph glyph-name="three.numerator" horiz-adv-x="761" 
d="M662 1389v-13l-322 -289h33q135 0 219 -65.5t84 -171.5q0 -114 -86 -183t-234 -69q-47 0 -95 10t-97 32t-76 67t-18 106h12q-7 -47 10 -84.5t46.5 -59t70 -35.5t76.5 -19t71 -5q141 0 224.5 66.5t83.5 173.5q0 100 -81 162.5t-210 62.5q-29 0 -49 -2l-7 10l328 293h-528
v13h545z" />
    <glyph glyph-name="four.numerator" horiz-adv-x="761" 
d="M569 1389h13v-558h133v-12h-133v-211h-13v211h-526v12zM569 1372l-510 -541h510v541z" />
    <glyph glyph-name="five.numerator" horiz-adv-x="761" 
d="M170 1071l-10 6l45 312h438v-13h-426l-43 -291q98 19 188 19q66 0 120.5 -13t101 -40.5t72.5 -77.5t26 -119q0 -114 -82.5 -185t-234.5 -71q-55 0 -103.5 9.5t-95 32.5t-70.5 69.5t-16 111.5h12q-8 -62 15 -106t68 -65.5t91.5 -30.5t98.5 -9q146 0 225.5 68t79.5 176
q0 66 -25.5 113.5t-70 74t-97 38.5t-115.5 12q-90 0 -192 -21z" />
    <glyph glyph-name="six.numerator" horiz-adv-x="761" 
d="M664 1198h-13q3 55 -19 93.5t-61 57.5t-77.5 27t-81.5 8q-75 0 -132 -30.5t-91 -78.5t-55 -115t-28.5 -131t-7.5 -136q21 91 104.5 145t188.5 54q135 0 214 -63t79 -177q0 -115 -76.5 -184.5t-220.5 -69.5q-207 0 -272 141q-29 68 -29 174q0 73 8.5 138t31.5 130
t58.5 111.5t94 75.5t133.5 29q45 0 86 -8.5t82.5 -28.5t64.5 -61.5t19 -100.5zM391 1079q-70 0 -133.5 -25.5t-108.5 -81t-45 -130.5q0 -44 20 -92t58 -80q72 -60 205 -60q138 0 211.5 67t73.5 175q0 107 -76 167t-205 60z" />
    <glyph glyph-name="seven.numerator" horiz-adv-x="761" 
d="M672 1389v-13l-416 -768h-14l415 768h-563v13h578z" />
    <glyph glyph-name="eight.numerator" horiz-adv-x="761" 
d="M381 1399q130 0 191 -52t61 -122q0 -16 -4 -34t-18.5 -43t-37 -46.5t-63.5 -42t-94 -31.5q66 -9 115 -30.5t75 -45.5t42 -54t20 -50t4 -39q0 -88 -76.5 -149.5t-216.5 -61.5q-138 0 -214.5 54t-76.5 149q0 27 10 54.5t34.5 61t79.5 63.5t134 48q-219 46 -219 186
q0 71 66.5 128t187.5 57zM379 610q52 0 100.5 12t89.5 35t65.5 62t24.5 88q0 85 -69.5 143.5t-208.5 71.5q-125 -19 -203 -78t-78 -141q0 -95 76.5 -144t202.5 -49zM379 1386q-104 0 -172 -48.5t-68 -123.5q0 -138 240 -180q118 14 180 69t62 118q0 80 -64.5 122.5
t-177.5 42.5z" />
    <glyph glyph-name="nine.numerator" horiz-adv-x="761" 
d="M106 803h13q-7 -54 13 -93t58 -59t76.5 -28.5t79.5 -8.5q74 0 130.5 23.5t90.5 62.5t55 96.5t29 117t8 133.5v34q-27 -82 -104 -131t-188 -49q-132 0 -204.5 63.5t-72.5 178.5q0 113 72.5 182.5t214.5 69.5q153 0 224 -84.5t71 -263.5q0 -76 -8.5 -138t-30.5 -121
t-58 -98.5t-94 -63.5t-135 -24q-33 0 -66 5.5t-68 19.5t-60.5 36t-39 58t-6.5 82zM367 913q160 0 241 101q40 47 43 112q0 39 -8 70q-26 95 -91 140.5t-175 45.5q-135 0 -205 -66t-70 -173q0 -109 69.5 -169.5t195.5 -60.5z" />
    <glyph glyph-name="parenleft.numerator" horiz-adv-x="342" 
d="M279 1475l8 -9q-217 -235 -217 -499q0 -131 61 -261t154 -229l-9 -8q-95 101 -157 232.5t-62 265.5q0 268 222 508z" />
    <glyph glyph-name="parenright.numerator" horiz-adv-x="342" 
d="M57 1466l9 9q221 -239 221 -508q0 -134 -62 -265.5t-157 -232.5l-9 8q93 99 154 229t61 261q0 264 -217 499z" />
    <glyph glyph-name="comma.numerator" horiz-adv-x="208" 
d="M115 682q24 0 24 -23q0 -12 -6 -26l-47 -109l-8 4l39 105q-27 0 -27 24q0 11 7 18t18 7z" />
    <glyph glyph-name="period.numerator" horiz-adv-x="251" 
d="M92 657q0 11 6.5 18t16.5 7t17 -7t7 -18q0 -22 -24 -22q-23 0 -23 22z" />
    <glyph glyph-name="zero.denominator" horiz-adv-x="761" 
d="M383 791q94 0 161 -33t103 -92t52 -127.5t16 -153.5q0 -78 -18 -146t-55.5 -125.5t-103.5 -90.5t-155 -33q-334 0 -334 393q0 190 80 299t254 109zM383 778q-168 0 -245 -105.5t-77 -289.5q0 -381 322 -381q69 0 124.5 22t91 58t59.5 86t34 104t10 113q0 82 -15 148
t-49.5 123.5t-99 89.5t-155.5 32z" />
    <glyph glyph-name="one.denominator" horiz-adv-x="761" 
d="M129 0v12h250v754l-221 -37l-2 12l223 39h12v-768h254v-12h-516z" />
    <glyph glyph-name="two.denominator" horiz-adv-x="761" 
d="M670 12v-12h-611v27q0 39 8 71t28.5 61.5t42.5 52t64 51t77.5 50t97.5 56.5q56 31 93 54.5t75 55t57 65t19 70.5q0 76 -62 120t-184 44q-139 0 -203.5 -52t-62.5 -134h-13q-2 89 66 144t213 55q128 0 193 -47.5t65 -129.5q0 -39 -20 -75.5t-60 -69.5t-78 -57.5t-94 -55.5
q-68 -38 -109 -63t-84 -57t-65 -61.5t-36.5 -67t-14.5 -80.5v-15h598z" />
    <glyph glyph-name="three.denominator" horiz-adv-x="761" 
d="M662 780v-12l-322 -289h33q135 0 219 -65.5t84 -171.5q0 -114 -86 -183t-234 -69q-47 0 -95 10t-97 32t-76 67t-18 106h12q-7 -47 10 -84.5t46.5 -59t70 -35.5t76.5 -19t71 -5q141 0 224.5 66.5t83.5 173.5q0 100 -81 162.5t-210 62.5q-29 0 -49 -2l-7 10l328 293h-528
v12h545z" />
    <glyph glyph-name="four.denominator" horiz-adv-x="761" 
d="M569 780h13v-557h133v-12h-133v-211h-13v211h-526v12zM569 764l-510 -541h510v541z" />
    <glyph glyph-name="five.denominator" horiz-adv-x="761" 
d="M170 463l-10 6l45 311h438v-12h-426l-43 -291q98 19 188 19q66 0 120.5 -13t101 -40.5t72.5 -77.5t26 -119q0 -114 -82.5 -185t-234.5 -71q-55 0 -103.5 9.5t-95 32.5t-70.5 69.5t-16 111.5h12q-8 -62 15 -106t68 -65.5t91.5 -30.5t98.5 -9q146 0 225.5 68t79.5 176
q0 66 -25.5 113.5t-70 73.5t-97 38t-115.5 12q-94 0 -192 -20z" />
    <glyph glyph-name="six.denominator" horiz-adv-x="761" 
d="M664 590h-13q3 55 -19 93.5t-61 57.5t-77.5 27t-81.5 8q-75 0 -132 -30.5t-91 -78.5t-55 -115t-28.5 -131t-7.5 -136q21 91 104.5 144.5t188.5 53.5q135 0 214 -62.5t79 -176.5q0 -115 -76.5 -184.5t-220.5 -69.5q-207 0 -272 141q-29 68 -29 174q0 73 8.5 138
t31.5 129.5t58.5 111t94 75.5t133.5 29q45 0 86 -8t82.5 -28t64.5 -61.5t19 -100.5zM391 471q-70 0 -133.5 -25.5t-108.5 -81.5t-45 -131q0 -44 20 -92t58 -80q71 -59 205 -59q138 0 211.5 67t73.5 175q0 107 -76 167t-205 60z" />
    <glyph glyph-name="seven.denominator" horiz-adv-x="761" 
d="M672 780v-12l-416 -768h-14l415 768h-563v12h578z" />
    <glyph glyph-name="eight.denominator" horiz-adv-x="761" 
d="M381 791q130 0 191 -52.5t61 -122.5q0 -16 -4 -34t-18.5 -43t-37 -46.5t-63.5 -41.5t-94 -31q66 -9 115 -30.5t75 -45.5t42 -54t20 -50t4 -39q0 -88 -76.5 -149.5t-216.5 -61.5q-138 0 -214.5 54t-76.5 149q0 27 10 54.5t34.5 61t79.5 63.5t134 48q-219 46 -219 186
q0 71 66.5 128t187.5 57zM379 2q52 0 100.5 12t89.5 35t65.5 62t24.5 88q0 85 -69.5 143.5t-208.5 71.5q-125 -19 -203 -78t-78 -141q0 -95 76.5 -144t202.5 -49zM379 778q-104 0 -172 -48.5t-68 -123.5q0 -138 240 -180q118 14 180 68.5t62 117.5q0 80 -65 123t-177 43z
" />
    <glyph glyph-name="nine.denominator" horiz-adv-x="761" 
d="M106 195h13q-7 -54 13 -93t58 -59t76.5 -28.5t79.5 -8.5q74 0 130.5 23.5t90.5 62t55 96t29 117t8 133.5v35q-27 -82 -104 -131t-188 -49q-132 0 -204.5 63.5t-72.5 178.5q0 113 72.5 182t214.5 69q153 0 224 -84.5t71 -263.5q0 -76 -8.5 -138t-30.5 -120.5t-58 -98
t-94 -63.5t-135 -24q-33 0 -66 5.5t-68 19.5t-60.5 36t-39 58t-6.5 82zM367 305q160 0 241 101q40 47 43 112q0 39 -8 70q-26 95 -91 140.5t-175 45.5q-135 0 -205 -66t-70 -173q0 -109 69.5 -169.5t195.5 -60.5z" />
    <glyph glyph-name="parenleft.denominator" horiz-adv-x="342" 
d="M279 866l8 -8q-217 -235 -217 -500q0 -131 61 -260.5t154 -228.5l-9 -8q-95 101 -157 232t-62 265q0 268 222 508z" />
    <glyph glyph-name="parenright.denominator" horiz-adv-x="342" 
d="M57 858l9 8q221 -239 221 -508q0 -134 -62 -265t-157 -232l-9 8q93 99 154 228.5t61 260.5q0 265 -217 500z" />
    <glyph glyph-name="comma.denominator" horiz-adv-x="208" 
d="M113 49q24 0 24 -22q0 -13 -6 -27l-47 -109l-8 5l39 104q-11 0 -19 7t-8 18q0 10 7 17t18 7z" />
    <glyph glyph-name="period.denominator" horiz-adv-x="251" 
d="M92 16q0 11 6.5 18t16.5 7t17 -7t7 -18q0 -22 -24 -22q-23 0 -23 22z" />
    </font>
</defs>
</svg>
