<?xml version="1.0" standalone="no"?>
<!DOCTYPE svg PUBLIC "-//W3C//DTD SVG 1.1//EN" "http://www.w3.org/Graphics/SVG/1.1/DTD/svg11.dtd" >
<svg xmlns="http://www.w3.org/2000/svg" xmlns:xlink="http://www.w3.org/1999/xlink" version="1.1">
<metadata>
Created by FontForge 20170731 at Sun Feb 14 20:09:18 2021
 By Aleksey,,,
Copyright (c) 2005-2009 Parachute :, www.parachute.gr.  All rights reserved.
</metadata>
<defs>
<font id="PFEncoreSansPro-ThinItalic" horiz-adv-x="1150" >
  <font-face 
    font-family="PF Encore Sans Pro Thin"
    font-weight="300"
    font-style="italic"
    font-stretch="normal"
    units-per-em="2048"
    panose-1="2 0 5 6 0 0 0 9 0 4"
    ascent="1638"
    descent="-410"
    x-height="979"
    cap-height="1380"
    bbox="-336 -455 2304 1817"
    underline-thickness="61"
    underline-position="-265"
    unicode-range="U+0020-2212"
  />
<missing-glyph horiz-adv-x="882" 
d="M0 0v1434h883v-1434h-883zM440 768l334 608h-665zM479 717l346 -627v1260zM109 57h665l-334 607zM55 1341v-1249l348 625z" />
    <glyph glyph-name="fj" unicode="fj" horiz-adv-x="907" 
d="M186 0h-82q18 95 77.5 438t84.5 471h-162l9 56q61 4 163 16l29 154q32 172 137.5 252.5t266.5 80.5q87 0 182 -18l-12 -70q-86 13 -164 13q-144 0 -223 -58.5t-103 -197.5l-29 -156h486l-195 -1120q-23 -108 -68 -159.5t-151 -51.5q-31 0 -49 2l12 72q94 0 129 35t51 126
l177 1024h-404z" />
    <glyph glyph-name="ffj" unicode="ffj" horiz-adv-x="1406" 
d="M637 -215h-82l207 1124h-408l-161 -909h-82l159 909h-161l10 56l164 16l28 164q29 163 106 236t216 73q71 0 123 -14l-13 -70q-78 10 -116 10q-103 0 -155.5 -47.5t-76.5 -179.5l-28 -172h407l29 170q58 334 405 334q81 0 181 -19l-13 -69q-77 12 -164 12
q-144 0 -222.5 -58.5t-102.5 -197.5l-31 -172h487l-188 -1096q-11 -59 -23.5 -96t-36.5 -72.5t-65 -52t-100 -16.5q-31 0 -49 4l10 69q94 0 130 35.5t50 126.5l176 1026h-401z" />
    <glyph glyph-name="fb" unicode="fb" horiz-adv-x="1601" 
d="M127 -330h-82l219 1239h-160l9 56q61 4 163 16q5 26 13.5 79t13.5 79q57 329 406 329q84 0 161 -14h64l-80 -463q-17 -99 -55 -223q2 0 4.5 -1t3.5 -1q139 231 385 231q163 0 243.5 -97t80.5 -261q0 -108 -20.5 -206t-62 -180t-100.5 -142t-139.5 -93.5t-175.5 -33.5
q-112 0 -194 43.5t-113 136.5h-9q-23 -131 -38 -164h-66l242 1384q-75 11 -125 11q-143 0 -223.5 -63t-106.5 -208l-25 -143h285q-1 -15 -6 -41t-6 -31h-285q-27 -140 -116 -646.5t-105 -592.5zM1169 922q-88 0 -160.5 -39t-120 -101t-80 -142t-46.5 -158.5t-14 -153.5
q0 -271 262 -271q193 0 308.5 159t115.5 427q0 124 -66 201.5t-199 77.5z" />
    <glyph glyph-name="ffb" unicode="ffb" horiz-adv-x="2095" 
d="M635 -215h-82l205 1124h-410l-221 -1239h-84l223 1239h-162l9 56l163 16l29 162q29 165 106 238t218 73q60 0 121 -14l-13 -72q-59 10 -114 10q-104 0 -156 -46.5t-76 -178.5l-31 -172h408l31 174q20 115 78 190t139.5 107.5t187.5 32.5q72 0 172 -17h54l-78 -458
q-22 -129 -58 -242q1 0 3 -1t3 -1q64 106 161.5 168.5t224.5 62.5q163 0 243 -97t80 -261q0 -108 -20.5 -206t-62 -180t-100.5 -142t-139.5 -93.5t-175.5 -33.5q-112 0 -194 43.5t-111 136.5h-8q-21 -120 -41 -164h-65l245 1401q-57 8 -127 8q-144 0 -223.5 -57.5
t-103.5 -194.5l-31 -176h287l-13 -72h-286zM1663 922q-88 0 -161 -39.5t-120.5 -101.5t-80 -142.5t-46.5 -159t-14 -153.5q0 -269 262 -269q193 0 308.5 159t115.5 427q0 124 -65.5 201.5t-198.5 77.5z" />
    <glyph glyph-name="fh" unicode="fh" horiz-adv-x="1585" 
d="M123 -330h-82l223 1239h-160l9 56q61 4 163 16l29 158q59 329 404 329q97 0 176 -16h51q-6 -38 -25.5 -160.5t-30 -181t-30.5 -153.5t-41 -173h8q58 96 161 154.5t222 58.5q98 0 164 -33.5t95 -92t36.5 -137t-10.5 -169.5l-99 -565h-88l97 553q8 46 11.5 84t1.5 83.5
t-16 79.5t-39.5 63.5t-71 45t-107.5 15.5q-83 0 -155 -36t-121 -95t-81 -127.5t-45 -141.5l-90 -524h-84q75 421 242 1384q-75 11 -125 11q-164 0 -236 -65t-100 -236l-19 -113h285q-1 -15 -6 -41t-6 -31h-285q-29 -150 -121.5 -666t-103.5 -573z" />
    <glyph glyph-name="ffh" unicode="ffh" horiz-adv-x="2078" 
d="M635 -215h-84l207 1124h-410l-219 -1239h-82l219 1239h-162l11 56l164 16l28 164q27 163 105 236t217 73q71 0 123 -14l-15 -70q-75 10 -114 10q-104 0 -156 -47.5t-76 -179.5l-31 -172h410l29 174q30 170 135.5 250t267.5 80q79 0 176 -17h54l-82 -469
q-18 -109 -50 -215h9q59 96 162.5 154.5t220.5 58.5q87 0 148 -24t93 -62.5t45.5 -96t12 -116.5t-14.5 -133l-96 -565h-88l94 530q8 46 12.5 82t5 78.5t-6 74.5t-23 63.5t-43 51t-69 32t-97.5 12.5q-82 0 -153.5 -36t-120 -95t-80.5 -127.5t-45 -141.5l-90 -524h-84
l243 1401q-57 8 -127 8q-143 0 -222 -57.5t-103 -194.5l-31 -176h287l-13 -72h-284z" />
    <glyph glyph-name="fk" unicode="fk" horiz-adv-x="1445" 
d="M123 -330h-82l223 1239h-160l9 56q61 4 163 16l27 158q55 329 406 329q97 0 176 -16h53l-154 -879h197q62 60 131 128.5t153 151.5t130 128h104q-85 -83 -239.5 -236t-210.5 -208l299 -537h-95l-276 498h-207q-72 -415 -86 -498h-84q87 502 244 1384q-91 11 -129 11
q-162 0 -234 -63.5t-100 -229.5l-21 -121h285q-1 -15 -6 -41t-6 -31h-285z" />
    <glyph glyph-name="ffk" unicode="ffk" horiz-adv-x="1937" 
d="M633 -215h-84l209 1124h-410l-221 -1239h-82l221 1239h-162l11 56l164 16l28 164q29 163 106 236t216 73q71 0 123 -14l-15 -70q-75 10 -114 10q-104 0 -156 -47.5t-76 -179.5l-31 -172h410l31 176q58 330 403 330q75 0 172 -17h56l-156 -897h197l415 408h103l-451 -442
l299 -539h-94l-275 498h-208l-86 -498h-84l243 1403q-66 8 -125 8q-144 0 -222.5 -57.5t-102.5 -194.5l-33 -178h287l-13 -72h-284z" />
    <glyph glyph-name="r_y" unicode="ry" horiz-adv-x="1351" 
d="M721 -408h-92l209 404l-41 -4l-185 915q-94 -10 -163.5 -45t-112 -90t-66.5 -114.5t-37 -135.5q-47 -261 -90 -522h-84l172 981h64q2 -10 2 -31q0 -58 -25 -170h9q56 103 162 159t241 58l78 -403q10 -54 33 -165.5t39 -197t28 -168.5h10l265 523q62 125 86 204t39 189h84
q-15 -126 -43.5 -215t-96.5 -223z" />
    <glyph glyph-name="ff" unicode="ff" horiz-adv-x="1112" 
d="M666 -215h-82l196 1124h-409l-221 -1243h-82l219 1243h-162l8 56l166 16l31 168q30 167 102 238t219 71q69 0 121 -14l-12 -72q-68 12 -115 12q-111 0 -158.5 -46.5t-72.5 -180.5l-31 -176h410l36 207q31 169 100.5 238t215.5 69q71 0 127 -12l-12 -70q-75 10 -115 10
q-111 0 -159 -46.5t-73 -180.5l-39 -215h300l-13 -72h-299z" />
    <glyph glyph-name="fi" unicode="fi" horiz-adv-x="907" 
d="M123 -334h-82l227 1243h-164l11 56l164 16l26 156q30 170 135.5 250.5t268.5 80.5q101 0 182 -16l-12 -72q-99 15 -164 15q-144 0 -223 -59t-103 -197l-29 -158h490l-172 -981h-84l160 909h-404z" />
    <glyph glyph-name="fl" unicode="fl" horiz-adv-x="909" 
d="M119 -334h-82l229 1243h-162l11 56l164 16l26 158q29 171 135.5 251t268.5 80q82 0 176 -16h49l-256 -1454h-80l244 1384q-79 11 -127 11q-143 0 -222.5 -58t-103.5 -196l-29 -160h287l-12 -72h-287z" />
    <glyph glyph-name="ffi" unicode="ffi" horiz-adv-x="1406" 
d="M637 -215h-84l209 1124h-408l-219 -1243h-84l219 1243h-161l10 56l164 16l28 164q29 163 106 236t216 73q71 0 123 -14l-13 -70q-78 10 -116 10q-103 0 -155.5 -47.5t-76.5 -179.5l-28 -172h407l29 170q30 172 135.5 253t269.5 81q81 0 181 -19l-13 -69q-77 12 -164 12
q-144 0 -222.5 -58.5t-102.5 -197.5l-31 -172h492l-172 -981h-84l161 909h-407z" />
    <glyph glyph-name="ffl" unicode="ffl" horiz-adv-x="1402" 
d="M635 -215h-82l205 1124h-410l-223 -1243h-84l225 1243h-162l11 56l164 16l28 164q28 165 102 237t220 72q71 0 123 -14l-15 -70q-75 10 -114 10q-104 0 -156 -47.5t-76 -179.5l-31 -172h410l31 174q31 177 134.5 253.5t268.5 76.5q72 0 176 -17h50l-259 -1468h-79
l245 1401q-57 8 -127 8q-144 0 -223.5 -57.5t-103.5 -194.5l-31 -176h287l-13 -72h-284z" />
    <glyph glyph-name="ft" unicode="ft" horiz-adv-x="1144" 
d="M147 -301h-81l221 1214h-162l8 54l166 14l33 178q32 174 101.5 240.5t219.5 66.5q74 0 123 -14l-12 -68q-83 11 -117 11q-109 0 -158.5 -47t-72.5 -181l-33 -186h412l67 248h58l-43 -248h290l-12 -68h-291l-108 -612q-25 -133 12.5 -187.5t153.5 -54.5q70 0 131 7
l-11 -70q-65 -10 -143 -10q-157 0 -206.5 72.5t-18.5 252.5l106 602h-409z" />
    <glyph glyph-name=".notdef" horiz-adv-x="882" 
d="M0 0v1434h883v-1434h-883zM440 768l334 608h-665zM479 717l346 -627v1260zM109 57h665l-334 607zM55 1341v-1249l348 625z" />
    <glyph glyph-name=".null" horiz-adv-x="0" 
 />
    <glyph glyph-name="nonmarkingreturn" horiz-adv-x="682" 
 />
    <glyph glyph-name="space" unicode=" " horiz-adv-x="536" 
 />
    <glyph glyph-name="exclam" unicode="!" horiz-adv-x="563" 
d="M295 336h-68q14 90 82 506t90 563h103q-27 -138 -105.5 -545.5t-101.5 -523.5zM229 154q29 0 48.5 -20.5t19.5 -49.5q0 -37 -30.5 -67.5t-65.5 -30.5q-31 0 -50.5 19t-19.5 48q0 40 30 70.5t68 30.5z" />
    <glyph glyph-name="quotedbl" unicode="&#x22;" horiz-adv-x="575" 
d="M324 944h-58l58 430h92zM498 944h-58l58 430h94z" />
    <glyph glyph-name="numbersign" unicode="#" 
d="M1217 856h-238l-123 -358h234l-21 -64h-235l-146 -434h-74l152 434h-365l-151 -434h-70l150 434h-234l21 64h233l125 358h-239l22 62h238l139 407h67l-137 -407h365l137 407h72l-142 -407h238zM545 856l-123 -358h360l127 358h-364z" />
    <glyph glyph-name="dollar" unicode="$" 
d="M508 -164l291 1645h57l-25 -150q133 -14 218.5 -83.5t85.5 -186.5q0 -31 -13 -88h-75q4 28 4 45q0 44 -9.5 77.5t-33.5 66t-72.5 55t-120.5 32.5q-47 -277 -90 -520q157 -39 241.5 -111t84.5 -204q0 -163 -120 -281t-335 -135l-29 -162h-59zM725 1481l-289 -1645h-57
l27 160q-161 15 -252 92t-91 203q0 53 15 100h76q-2 -14 -2 -39q0 -45 4.5 -77.5t20.5 -69t44 -61t78.5 -44.5t120.5 -28l108 612q-151 35 -231 100t-80 181q0 147 116 254.5t310 113.5l25 148h57zM709 647l-101 -573q98 12 171 47.5t111 83.5t55.5 96t17.5 96
q0 100 -60 159t-194 91zM629 1253q-153 -10 -237.5 -92.5t-84.5 -189.5q0 -80 56 -125.5t180 -75.5z" />
    <glyph glyph-name="percent" unicode="%" horiz-adv-x="1636" 
d="M371 -61h-80l1032 1503h80zM557 1391q146 0 212.5 -86t66.5 -228q0 -63 -12.5 -127.5t-43.5 -131.5t-75.5 -118.5t-115.5 -84.5t-157 -33q-142 0 -210 74.5t-68 205.5q0 234 111 381.5t292 147.5zM547 1321q-147 0 -232.5 -128t-85.5 -327q0 -219 211 -219
q137 0 226.5 117t89.5 311q0 246 -209 246zM1276 797q146 0 212 -86t66 -228q0 -63 -12.5 -127.5t-43 -131.5t-75 -118.5t-115.5 -84.5t-157 -33q-142 0 -210.5 74t-68.5 206q0 235 111 382t293 147zM1266 727q-147 0 -232.5 -128t-85.5 -327q0 -219 211 -219
q137 0 226.5 117t89.5 311q0 246 -209 246z" />
    <glyph glyph-name="ampersand" unicode="&#x26;" horiz-adv-x="1421" 
d="M705 1384q104 0 170.5 -58t66.5 -148q0 -128 -87.5 -228t-266.5 -202q183 -305 418 -549q100 73 171.5 173.5t103.5 197.5t32 184q0 81 -33 141t-113 102l29 58q193 -71 193 -295q0 -149 -87.5 -319t-248.5 -289q106 -106 188 -170l-47 -58q-106 84 -207 182
q-207 -124 -481 -124q-90 0 -162 15t-129.5 48t-89 90t-31.5 135q0 284 387 498q-102 155 -102 285q0 60 20.5 117t59 105.5t103 78.5t143.5 30zM516 51q239 0 422 107q-229 236 -422 553q-342 -194 -342 -426q0 -113 91.5 -173.5t250.5 -60.5zM696 1313q-54 0 -97 -20
t-67.5 -48.5t-41 -65t-22 -66t-5.5 -54.5q0 -63 23 -120.5t67 -131.5q69 39 115.5 71.5t93.5 76.5t70.5 96t23.5 112q0 67 -43 108.5t-117 41.5z" />
    <glyph glyph-name="quotesingle" unicode="'" horiz-adv-x="430" 
d="M336 944h-60l56 430h92z" />
    <glyph glyph-name="parenleft" unicode="(" horiz-adv-x="565" 
d="M627 1454l37 -37q-212 -220 -337.5 -475t-125.5 -530q0 -319 176 -611q-3 -2 -14.5 -11t-21 -16.5t-13.5 -11.5q-99 133 -156 299.5t-57 352.5q0 156 41 307.5t114.5 282.5t161.5 241.5t195 208.5z" />
    <glyph glyph-name="parenright" unicode=")" horiz-adv-x="565" 
d="M221 1417l53 37q211 -287 211 -647q0 -201 -71.5 -401t-183 -358t-255.5 -288l-36 41q462 481 462 1006q0 323 -180 610z" />
    <glyph glyph-name="asterisk" unicode="*" horiz-adv-x="858" 
d="M586 1034l131 -211l-92 -59l-99 229l-174 -227l-69 55l198 213l-235 78l45 86l221 -104l35 260h88l-62 -260l261 104l16 -84z" />
    <glyph glyph-name="plus" unicode="+" 
d="M623 514l-62 -340h-78l62 340h-340l12 74h340l64 362h77l-63 -362h338l-12 -74h-338z" />
    <glyph glyph-name="comma" unicode="," horiz-adv-x="409" 
d="M147 162q35 0 55.5 -19.5t20.5 -52.5q0 -27 -24 -67l-199 -312l-35 13l135 262q-24 6 -39.5 24.5t-15.5 44.5q0 43 31.5 75t70.5 32z" />
    <glyph glyph-name="hyphen" unicode="-" horiz-adv-x="907" 
d="M201 467l14 90h506l-14 -90h-506z" />
    <glyph glyph-name="period" unicode="." horiz-adv-x="407" 
d="M147 162q32 0 53 -21t21 -53q0 -43 -28 -73.5t-76 -30.5q-32 0 -52 20t-20 51q0 42 32 74.5t70 32.5z" />
    <glyph glyph-name="slash" unicode="/" horiz-adv-x="987" 
d="M-6 -92h-84l1159 1560h88z" />
    <glyph glyph-name="zero" unicode="0" 
d="M717 1341q109 0 189.5 -36.5t127.5 -103t69.5 -151t22.5 -188.5q0 -103 -14.5 -203.5t-44.5 -200.5t-80.5 -184.5t-117.5 -150t-161 -102.5t-206 -37q-420 0 -420 448q0 100 15.5 202.5t47 205.5t84 192.5t120.5 159t163 109.5t205 40zM707 1266q-109 0 -201.5 -52
t-154 -136t-105 -192.5t-63 -220.5t-19.5 -221q0 -194 88.5 -291.5t257.5 -97.5q85 0 163 31t145.5 97t117.5 159.5t79 226.5t29 291q0 193 -81.5 299.5t-255.5 106.5z" />
    <glyph glyph-name="one" unicode="1" 
d="M907 74l-12 -74h-805l12 74h359l203 1149l-320 -58l10 58l332 96h82l-221 -1245h360z" />
    <glyph glyph-name="two" unicode="2" 
d="M721 1341q188 0 278.5 -78.5t90.5 -205.5q0 -49 -13.5 -94.5t-34 -82t-56 -74t-67.5 -65t-81 -60t-83.5 -53t-87.5 -51.5q-9 -5 -14 -8q-29 -17 -84 -48q-71 -41 -104 -60.5t-86 -53t-77.5 -55t-58.5 -55t-51 -64.5t-33 -71.5t-24 -87.5h811l-12 -74h-901l10 66
q14 79 50 147t69.5 112t119 105t130.5 88.5t171 99.5l15 9q64 36 102.5 59.5t91.5 58.5t84.5 65.5t62 68t44.5 79t14 86.5q0 102 -72.5 160t-213.5 58q-176 0 -277 -86.5t-125 -219.5h-80q0 7 1 17t1 12q15 112 89 194t177.5 121.5t223.5 40.5z" />
    <glyph glyph-name="three" unicode="3" 
d="M477 59q204 0 334.5 109.5t130.5 294.5q0 264 -387 264q-52 0 -72 -2l-26 66l547 444q0 3 -5 8h-694l14 78h830l-12 -74l-547 -442q4 -4 4 -8h18q189 0 303.5 -83t114.5 -245q0 -142 -73 -253t-200.5 -171.5t-287.5 -60.5q-172 0 -276.5 68t-104.5 198q0 52 14 98h72
q-4 -32 -4 -43q0 -56 14 -98t47 -76.5t95 -53t151 -18.5z" />
    <glyph glyph-name="four" unicode="4" 
d="M932 1321h76l-158 -895h221l-16 -76h-219l-60 -350h-86l60 350h-703l14 72zM176 436l2 -10h588l129 743l-6 5z" />
    <glyph glyph-name="five" unicode="5" 
d="M610 840q86 0 158 -19t130.5 -58.5t91 -108t32.5 -160.5q0 -223 -157.5 -366.5t-401.5 -143.5q-173 0 -277 68t-104 198q0 49 14 98h68q-2 -16 -2 -43q0 -55 14 -97t47.5 -77t96 -53.5t151.5 -18.5q203 0 334 120.5t131 305.5q0 142 -93.5 210.5t-244.5 68.5
q-163 0 -297 -45l-57 33l184 569h674l-15 -78h-602l-143 -440q118 37 268 37z" />
    <glyph glyph-name="six" unicode="6" 
d="M750 1268q-96 0 -179 -44t-142 -115t-104.5 -166t-72 -192t-39.5 -198l8 -2q60 117 183.5 195.5t259.5 78.5q168 0 264 -83t96 -238q0 -227 -141 -373.5t-381 -146.5q-193 2 -286 94.5t-93 286.5q0 96 15 200t45.5 215.5t83 210.5t120.5 178t165.5 125.5t211.5 46.5
q143 0 231 -64.5t88 -176.5q0 -44 -12 -78h-67q13 124 -54 185t-200 61zM522 55q185 0 303.5 119t118.5 315q0 123 -75 194t-226 71q-85 0 -164.5 -37t-137 -98t-92 -142t-34.5 -166q0 -128 81.5 -192t225.5 -64z" />
    <glyph glyph-name="seven" unicode="7" 
d="M322 0h-93l824 1243h-783l13 76h878l-12 -68q-160 -244 -459 -695.5t-368 -555.5z" />
    <glyph glyph-name="eight" unicode="8" 
d="M727 1341q177 0 264.5 -78.5t87.5 -193.5q0 -31 -8 -65.5t-29.5 -75.5t-54.5 -78t-88.5 -72t-126.5 -59v-8q72 -22 123 -60.5t75 -83.5t34 -85.5t10 -82.5q0 -81 -36.5 -155.5t-102.5 -132.5t-167.5 -92.5t-222.5 -34.5q-188 0 -291.5 77.5t-103.5 214.5q0 34 6.5 72
t31 93t64.5 102.5t114.5 94.5t172.5 75l2 8q-219 68 -219 252q0 63 30 126.5t85 118t147 89t203 34.5zM500 55q60 0 119 12t115.5 39.5t99.5 66.5t69.5 97.5t26.5 128.5q0 112 -81 187t-235 92q-199 -30 -320.5 -134.5t-121.5 -254.5q0 -79 47.5 -133.5t119.5 -77.5t161 -23
zM713 1268q-93 0 -174.5 -34t-135 -102.5t-53.5 -156.5t69.5 -142t205.5 -90q169 29 269.5 118.5t100.5 201.5q0 97 -78.5 151t-203.5 54z" />
    <glyph glyph-name="nine" unicode="9" 
d="M459 57q98 0 182 41t143.5 109.5t105 161.5t71 193t36.5 208l-8 2q-56 -121 -172.5 -196.5t-249.5 -75.5q-172 0 -265 81t-93 236q0 233 139 378.5t371 145.5q173 0 270.5 -98t97.5 -297q0 -136 -21 -267t-70.5 -258.5t-121.5 -223t-183.5 -154.5t-248.5 -59
q-149 0 -236 65t-87 178q0 31 10 76h72q-22 -125 52.5 -185.5t205.5 -60.5zM713 1268q-80 0 -153.5 -26.5t-134.5 -78t-97.5 -138t-36.5 -196.5q0 -260 295 -260q105 0 200.5 62t153 163.5t57.5 211.5q0 126 -79.5 194t-204.5 68z" />
    <glyph glyph-name="colon" unicode=":" horiz-adv-x="407" 
d="M147 162q32 0 53 -21t21 -53q0 -41 -31.5 -72.5t-72.5 -31.5q-32 0 -52 20t-20 51q0 42 32 74.5t70 32.5zM266 831q32 0 53 -21t21 -52q0 -41 -31.5 -73t-72.5 -32q-32 0 -52 20.5t-20 51.5q0 42 31.5 74t70.5 32z" />
    <glyph glyph-name="semicolon" unicode=";" horiz-adv-x="407" 
d="M266 831q32 0 53 -21t21 -52q0 -41 -31.5 -73t-72.5 -32q-32 0 -52 20.5t-20 51.5q0 42 31.5 74t70.5 32zM147 162q35 0 55.5 -19.5t20.5 -52.5q0 -27 -24 -67l-199 -312l-35 13l135 262q-24 6 -39.5 24.5t-15.5 44.5q0 43 32 75t70 32z" />
    <glyph glyph-name="less" unicode="&#x3c;" 
d="M197 514l14 76q51 22 409.5 184.5t428.5 194.5l-17 -86l-739 -334l622 -332l-14 -80q-40 23 -338 182t-366 195z" />
    <glyph glyph-name="equal" unicode="=" 
d="M985 668h-754l13 71h753zM932 362h-756l14 72h756z" />
    <glyph glyph-name="greater" unicode="&#x3e;" 
d="M981 590l-14 -76q-646 -288 -834 -377l12 88l740 334l-621 334l15 76q42 -24 348.5 -189t353.5 -190z" />
    <glyph glyph-name="question" unicode="?" horiz-adv-x="1097" 
d="M702 1432q157 0 243.5 -72t86.5 -193q0 -105 -61.5 -198.5t-186.5 -192.5q-116 -92 -182.5 -179t-91.5 -216l-8 -49h-88l8 39q28 131 91 233t177 195q135 111 192.5 190t57.5 168q0 92 -63.5 143.5t-186.5 51.5q-89 0 -157 -23t-110 -65t-66 -91t-35 -110h-74q0 7 1 18
t1 13q22 164 146 251t306 87zM432 154q29 0 48.5 -20.5t19.5 -49.5q0 -38 -31 -68t-68 -30q-28 0 -47.5 19.5t-19.5 49.5q0 38 30.5 68.5t67.5 30.5z" />
    <glyph glyph-name="at" unicode="@" horiz-adv-x="1703" 
d="M772 348q94 0 167.5 63t110.5 160t37 205q0 211 -196 211q-136 0 -226 -121.5t-90 -318.5q0 -199 197 -199zM1116 946q1 0 9.5 23t18.5 49t13 31h64l-105 -580q-10 -59 19.5 -92t87.5 -33q57 0 113 34.5t102.5 96t75 159.5t28.5 214t-41 208t-112 150t-163 88.5
t-198 30.5q-211 0 -389.5 -107t-281.5 -290.5t-103 -401.5q0 -249 151.5 -397.5t411.5 -148.5q226 0 408 77l20 -65q-224 -80 -426 -80q-293 0 -468 162.5t-175 443.5q0 175 64 334.5t175.5 279t273 190.5t345.5 71q260 0 421 -144t161 -391q0 -133 -34 -244.5t-91 -183.5
t-129.5 -111.5t-151.5 -39.5q-60 0 -112.5 33t-55.5 108h-10q-97 -146 -274 -146q-133 0 -197.5 72.5t-64.5 194.5q0 141 45.5 258t137.5 189.5t214 72.5q168 0 223 -115z" />
    <glyph glyph-name="A" unicode="A" 
d="M958 0l-73 375h-652l-200 -375h-94l747 1382h92l271 -1382h-91zM723 1268h-12q-96 -188 -199 -377l-238 -438h600l-86 434q-13 69 -34.5 200.5t-30.5 180.5z" />
    <glyph glyph-name="B" unicode="B" horiz-adv-x="1189" 
d="M864 733l-2 -10q102 -33 157.5 -115t55.5 -190q0 -80 -31 -153.5t-90 -133.5t-156 -95.5t-218 -35.5h-533l242 1380h518q159 0 250.5 -73.5t91.5 -214.5q0 -46 -12 -93.5t-41 -101.5t-89 -98t-143 -66zM778 1300h-418l-92 -530h432q93 0 171.5 31t132 101.5t55.5 170.5
q4 119 -74 173t-207 54zM690 692h-436l-109 -612h439q78 0 147.5 19.5t126.5 58t91 103t36 147.5q4 137 -81.5 210.5t-213.5 73.5z" />
    <glyph glyph-name="C" unicode="C" horiz-adv-x="1175" 
d="M582 -14q-457 0 -457 475q0 140 25 272.5t79 253.5t132.5 211t193.5 143.5t254 53.5q165 0 276 -79t111 -222q0 -53 -10 -84h-76q2 16 2 51q0 111 -76.5 182.5t-240.5 71.5q-102 0 -189.5 -37t-149.5 -101.5t-110 -147.5t-76.5 -179t-42.5 -191.5t-14 -189.5
q0 -203 92 -303t281 -100q85 0 155.5 19t119 50.5t84 75t54.5 90t27 98.5h82l-8 -53q-37 -174 -178.5 -267t-339.5 -93z" />
    <glyph glyph-name="D" unicode="D" horiz-adv-x="1236" 
d="M145 80h269q74 0 149.5 17t153 51.5t144 94t119 138.5t82.5 191.5t30 246.5q0 113 -32 200.5t-81.5 139t-116.5 84.5t-128.5 45t-125.5 12h-248zM47 0l242 1378h329q85 0 163 -18t152 -61t128 -106.5t86.5 -161.5t32.5 -220q0 -237 -99 -422.5t-272.5 -287t-390.5 -101.5
h-371z" />
    <glyph glyph-name="E" unicode="E" horiz-adv-x="1048" 
d="M47 0l242 1380h821l-14 -80h-736l-92 -528h686l-12 -80h-688l-109 -610h797l-12 -82h-883z" />
    <glyph glyph-name="F" unicode="F" horiz-adv-x="1011" 
d="M49 0l242 1380h852l-15 -80h-763l-97 -544h678l-16 -84h-676l-119 -672h-86z" />
    <glyph glyph-name="G" unicode="G" horiz-adv-x="1267" 
d="M825 1397q77 0 146.5 -18t126.5 -54t91 -96t34 -137q0 -40 -9 -80h-77q4 32 4 53q0 115 -82.5 183.5t-251.5 68.5q-99 0 -185.5 -34.5t-150.5 -95.5t-114 -142t-81 -176t-47 -195t-16 -201q0 -410 383 -410q101 0 183 29t132 72t87.5 103.5t54.5 113t28 111.5l25 147
h-369l15 78h448l-33 -225q-18 -110 -60 -199t-110.5 -159.5t-172.5 -109t-236 -38.5q-233 0 -347 127.5t-114 361.5q0 132 24.5 260.5t79.5 249t134.5 211.5t198 146t261.5 55z" />
    <glyph glyph-name="H" unicode="H" horiz-adv-x="1265" 
d="M969 0l118 688h-835l-121 -688h-84l244 1382h84l-109 -616h836l110 616h86l-243 -1382h-86z" />
    <glyph glyph-name="I" unicode="I" horiz-adv-x="421" 
d="M86 0l242 1380h88l-244 -1380h-86z" />
    <glyph glyph-name="J" unicode="J" horiz-adv-x="1064" 
d="M391 -14q-173 0 -278 73.5t-105 206.5q0 58 17 105h75q-6 -35 -6 -70q0 -49 15.5 -89.5t49 -74t95 -52t145.5 -19.5q194 0 295.5 99t134.5 284l166 931h84l-168 -952q-12 -70 -32 -128t-59.5 -118.5t-94 -101.5t-140.5 -67.5t-194 -26.5z" />
    <glyph glyph-name="K" unicode="K" horiz-adv-x="1056" 
d="M373 1380l-107 -610h238l579 610h107l-612 -647l389 -733h-101l-360 688h-254l-121 -688h-84l242 1380h84z" />
    <glyph glyph-name="L" unicode="L" horiz-adv-x="1019" 
d="M47 0l242 1380h88l-230 -1300h783l-12 -80h-871z" />
    <glyph glyph-name="M" unicode="M" horiz-adv-x="1587" 
d="M436 1380l162 -518l174 -557h12q219 358 361 555l346 520h106l-211 -1380h-86l193 1233h-8q-81 -127 -223 -342l-457 -684h-84l-234 727q-50 150 -88 297h-8q-102 -468 -266 -1231h-86q50 231 148.5 690.5t148.5 689.5h100z" />
    <glyph glyph-name="N" unicode="N" horiz-adv-x="1277" 
d="M358 1227q-8 0 -12 -2l-215 -1225h-84l242 1380h80l346 -678q44 -82 89 -170.5t106 -213t85 -171.5h11q45 268 215 1233h84l-240 -1380h-82l-461 889q-100 191 -164 338z" />
    <glyph glyph-name="O" unicode="O" horiz-adv-x="1323" 
d="M829 1395q119 0 206.5 -38.5t137.5 -108t73.5 -155.5t23.5 -192q0 -94 -11 -185t-36 -182.5t-63 -171.5t-95 -150t-127.5 -119.5t-165.5 -78t-205 -28.5q-121 0 -209.5 35.5t-138.5 99.5t-73 143t-23 176q0 99 12 195.5t38.5 192t66 179t97 155.5t128.5 123.5t164 80.5
t200 29zM813 1315q-129 0 -233.5 -52.5t-171.5 -137.5t-113 -198.5t-65 -230t-19 -237.5q0 -199 90 -297.5t279 -98.5q130 0 239.5 54.5t190.5 158t126.5 264t45.5 361.5q0 414 -369 414z" />
    <glyph glyph-name="P" unicode="P" horiz-adv-x="1095" 
d="M643 541h-416l-94 -541h-86l242 1380h502q180 0 273 -94.5t93 -255.5q0 -64 -14 -127t-51 -130t-93 -117t-148 -82.5t-208 -32.5zM770 1300h-410l-118 -677h403q62 0 118.5 11t111.5 39t96 71t66.5 111.5t27.5 154.5q4 138 -73 214t-222 76z" />
    <glyph glyph-name="Q" unicode="Q" horiz-adv-x="1316" 
d="M829 1395q119 0 206.5 -38.5t137.5 -108t73.5 -155.5t23.5 -192q0 -121 -18 -235.5t-61 -227t-107 -201t-162.5 -152.5t-221.5 -85q139 -75 324 -139l-45 -82q-245 92 -408 207q-99 1 -176.5 24.5t-128 64.5t-83.5 99t-46.5 123.5t-13.5 142.5q0 99 12 195.5t38.5 192
t66 179t97 155.5t128.5 123.5t164 80.5t200 29zM813 1315q-129 0 -233.5 -52.5t-171.5 -137.5t-113 -198.5t-65 -230t-19 -237.5q0 -199 90 -297.5t279 -98.5q130 0 239.5 54.5t190.5 158t126.5 264t45.5 361.5q0 414 -369 414z" />
    <glyph glyph-name="R" unicode="R" horiz-adv-x="1120" 
d="M233 582q-17 -94 -49.5 -288t-50.5 -294h-86l242 1380h485q184 0 281.5 -91t97.5 -253q0 -62 -14.5 -121.5t-52.5 -121t-95.5 -107.5t-152 -75t-213.5 -29q55 -97 164.5 -291.5t164.5 -290.5h-96q-95 166 -328 582h-297zM754 1300h-394q-82 -474 -112 -636h379
q68 0 130 12.5t119 40.5t98.5 70t66 105.5t24.5 141.5q0 130 -83.5 198t-227.5 68z" />
    <glyph glyph-name="S" unicode="S" horiz-adv-x="1193" 
d="M545 63q101 0 182 21.5t132 56t85 80.5t48 91.5t14 93.5q0 117 -79.5 178t-285.5 104q-84 17 -139.5 32t-111 39t-87 53.5t-51 73.5t-19.5 101q0 79 31.5 151t93 130.5t165.5 93.5t237 35q80 0 151.5 -18t130 -53t93 -93.5t34.5 -134.5q0 -42 -12 -101h-80q4 32 4 50
q0 57 -17 103.5t-53.5 84.5t-102 59t-156.5 21q-107 0 -191 -27t-134 -73.5t-75.5 -102.5t-25.5 -119q0 -92 84.5 -139.5t294.5 -91.5q198 -41 297.5 -118.5t99.5 -223.5q0 -190 -145.5 -311t-417.5 -121q-215 0 -342 81.5t-127 235.5q0 65 16 117h82q-8 -41 -8 -80
q0 -279 385 -279z" />
    <glyph glyph-name="T" unicode="T" horiz-adv-x="1081" 
d="M735 1300l-229 -1300h-88l229 1300h-471l14 80h1020l-14 -80h-461z" />
    <glyph glyph-name="U" unicode="U" horiz-adv-x="1280" 
d="M1311 1380l-146 -829q-22 -130 -64.5 -229t-113 -177t-178 -118.5t-248.5 -40.5q-117 0 -202 27.5t-133.5 79t-74 124t-23.5 162.5t19 196l142 805h86l-144 -809q-50 -272 36.5 -388.5t307.5 -116.5q205 0 331.5 115.5t172.5 373.5l146 825h86z" />
    <glyph glyph-name="V" unicode="V" horiz-adv-x="1140" 
d="M541 0h-109l-250 1380h90l136 -755q52 -280 88 -527h10q87 175 274 525l404 757h94z" />
    <glyph glyph-name="W" unicode="W" horiz-adv-x="1697" 
d="M987 1253h-8q-67 -172 -211 -477l-362 -776h-103l-123 1380h92l56 -743q1 -15 18.5 -209.5t22.5 -310.5h10q57 138 239 530l343 733h92l82 -706q44 -400 55 -557h10l238 553q226 532 303 710h96l-604 -1380h-103l-96 801q-4 33 -18.5 140.5t-21 177t-7.5 134.5z" />
    <glyph glyph-name="X" unicode="X" horiz-adv-x="1085" 
d="M877 0l-306 643l-526 -643h-106l593 715l-317 665h92l281 -598l489 598h103l-549 -667l344 -713h-98z" />
    <glyph glyph-name="Y" unicode="Y" horiz-adv-x="1046" 
d="M535 641h12q7 12 67 96t122.5 171t66.5 93l274 379h107l-613 -831l-96 -549h-88l96 549l-303 831h92l138 -370q67 -179 125 -369z" />
    <glyph glyph-name="Z" unicode="Z" horiz-adv-x="1077" 
d="M-29 0l13 78l1056 1222h-807l17 82h915l-14 -75l-1055 -1227h858l-12 -80h-971z" />
    <glyph glyph-name="bracketleft" unicode="[" horiz-adv-x="571" 
d="M27 -250l301 1704h282l-12 -70h-205l-274 -1564h203l-13 -70h-282z" />
    <glyph glyph-name="backslash" unicode="\" horiz-adv-x="1007" 
d="M885 -92h-86l-613 1560h84z" />
    <glyph glyph-name="bracketright" unicode="]" horiz-adv-x="571" 
d="M602 1454l-301 -1704h-283l13 70h202l275 1564h-201l12 70h283z" />
    <glyph glyph-name="asciicircum" unicode="^" 
d="M698 1374h70q44 -147 133.5 -427.5t130.5 -416.5h-84l-229 740q-62 -97 -245 -371t-243 -369h-94q84 128 272.5 409t288.5 435z" />
    <glyph glyph-name="underscore" unicode="_" horiz-adv-x="1003" 
d="M-113 -209l13 74h991l-12 -74h-992z" />
    <glyph glyph-name="grave" unicode="`" horiz-adv-x="1038" 
d="M868 1167l-39 -37l-264 232l74 72z" />
    <glyph glyph-name="a" unicode="a" horiz-adv-x="1046" 
d="M438 59q87 0 160 39.5t123 107t82 152.5t45 181q62 385 -254 385q-184 0 -303 -163.5t-119 -430.5q0 -271 266 -271zM1010 981l-172 -981h-66q-11 63 14 180h-10q-133 -196 -362 -196q-171 0 -249.5 91t-78.5 249q0 183 57.5 334t175 245t275.5 94q232 0 301 -168h8
q16 108 43 152h64z" />
    <glyph glyph-name="b" unicode="b" horiz-adv-x="1040" 
d="M457 -16q-112 0 -194 44t-111 136h-9q-21 -120 -41 -164h-65l256 1456h84l-80 -452q-28 -146 -57 -236l6 -2q64 106 161.5 168.5t223.5 62.5q163 0 243 -97t80 -261q0 -182 -56 -328.5t-170.5 -236.5t-270.5 -90zM608 922q-81 0 -148.5 -32.5t-112.5 -84.5t-78.5 -122.5
t-51 -140t-24.5 -143.5q-36 -342 256 -342q192 0 307.5 159.5t115.5 426.5q0 124 -65.5 201.5t-198.5 77.5z" />
    <glyph glyph-name="c" unicode="c" horiz-adv-x="946" 
d="M600 997q140 0 223.5 -61t83.5 -174q0 -24 -6 -62h-72v37q0 85 -56.5 135t-182.5 50q-131 0 -227 -82t-142.5 -213.5t-46.5 -294.5q0 -143 70 -208t207 -65q79 0 141.5 21.5t100.5 57.5t59.5 78.5t27.5 90.5h72q0 -23 -6 -47q-15 -89 -75.5 -153t-144 -93.5t-180.5 -29.5
q-358 0 -358 348q0 110 19.5 208t61 182t101 145t144 95.5t186.5 34.5z" />
    <glyph glyph-name="d" unicode="d" horiz-adv-x="1040" 
d="M586 922q-127 0 -223 -80.5t-144.5 -213.5t-48.5 -298q0 -275 270 -275q179 0 296.5 161t117.5 405q0 137 -66.5 219t-201.5 82zM1092 1454l-254 -1454h-66q-4 12 -4 41q0 45 16 127h-8q-133 -184 -358 -184q-91 0 -158 27.5t-104 76.5t-54.5 108.5t-17.5 131.5
q0 102 20 198.5t61 182t100 149.5t142 101.5t181 37.5q118 0 195 -59.5t102 -136.5h8l117 653h82z" />
    <glyph glyph-name="e" unicode="e" horiz-adv-x="997" 
d="M432 -16q-344 0 -344 356q0 99 19.5 192.5t62 178.5t104 148t151 100.5t196.5 37.5q87 0 150 -21t96 -56.5t48 -75t15 -84.5q0 -66 -36 -123t-109.5 -103.5t-200 -73t-293.5 -26.5q-72 0 -109 4q-8 -41 -8 -96q0 -63 12.5 -111.5t41.5 -88.5t82.5 -61.5t129.5 -21.5
q87 0 153.5 21.5t104.5 57.5t58.5 76t25.5 85h74q0 -15 -4 -43q-13 -87 -76 -150t-152 -92.5t-192 -29.5zM193 506q45 -6 112 -6q122 0 218 15t155.5 39.5t97.5 58.5t53 68t15 71q0 76 -60 123t-178 47q-92 0 -168 -38t-124.5 -100.5t-78.5 -132.5t-42 -145z" />
    <glyph glyph-name="f" unicode="f" horiz-adv-x="628" 
d="M150 -332h-82l227 1241h-172l10 56l174 16l31 176q30 167 99.5 237t215.5 70q71 0 127 -12l-12 -70q-82 11 -115 11q-111 0 -159.5 -47t-71.5 -181l-33 -184h299l-12 -72h-299z" />
    <glyph glyph-name="g" unicode="g" horiz-adv-x="1075" 
d="M354 -422q-88 0 -162.5 22t-125 74t-50.5 125q0 15 9 49h73v-22q0 -79 66.5 -125t200.5 -49q157 0 258 84.5t141 277.5q28 145 53 224h-8q-143 -252 -387 -252q-158 0 -239 91.5t-81 254.5q0 98 18.5 191.5t58.5 180t98 152t143.5 104.5t187.5 39q233 0 299 -194h8
q24 137 50 178h67l-188 -987q-42 -214 -158 -316t-332 -102zM442 57q85 0 160.5 48t128 125t87.5 167.5t48 182.5q5 51 4 100t-18.5 93.5t-46 78.5t-77.5 54t-114 20q-128 0 -225.5 -77.5t-148 -208t-50.5 -292.5q0 -138 61.5 -214.5t190.5 -76.5z" />
    <glyph glyph-name="h" unicode="h" horiz-adv-x="1024" 
d="M246 784h8q59 96 162.5 154.5t220.5 58.5q87 0 148 -23.5t93 -62.5t46 -96.5t12.5 -116.5t-14.5 -133l-97 -565h-88l94 530q8 46 12.5 82t5 78.5t-6 74.5t-23 63.5t-43 51t-69 32t-97.5 12.5q-82 0 -153.5 -36t-120 -95t-80.5 -127.5t-45 -141.5l-90 -524h-84l256 1454
h84l-82 -455q-19 -116 -49 -215z" />
    <glyph glyph-name="i" unicode="i" horiz-adv-x="442" 
d="M96 0l172 981h84l-172 -981h-84zM383 1380q23 0 37 -15.5t14 -39.5q0 -32 -22.5 -56t-53.5 -24q-26 0 -39.5 15t-13.5 40q0 32 23.5 56t54.5 24z" />
    <glyph glyph-name="j" unicode="j" horiz-adv-x="436" 
d="M272 981h82l-202 -1155q-21 -119 -70.5 -178.5t-165.5 -59.5q-25 0 -37 2q2 23 10 74q93 0 128 35.5t51 126.5zM383 1378q23 0 38 -15t15 -38q0 -32 -23.5 -56t-54.5 -24q-25 0 -39 15t-14 40q0 32 23.5 55t54.5 23z" />
    <glyph glyph-name="k" unicode="k" horiz-adv-x="882" 
d="M834 981h102l-451 -442l299 -539h-94l-274 498h-209l-86 -498h-84l256 1456h84l-156 -883h197z" />
    <glyph glyph-name="l" unicode="l" horiz-adv-x="405" 
d="M319 1454h82l-229 -1300q-8 -50 8.5 -71t75.5 -24l-8 -69q-14 -2 -41 -2q-82 0 -107.5 37t-11.5 122z" />
    <glyph glyph-name="m" unicode="m" horiz-adv-x="1677" 
d="M627 997q134 0 204.5 -69t75.5 -174q65 118 164.5 181.5t224.5 63.5q86 0 145.5 -25t90.5 -66t43.5 -101t9.5 -120t-16 -134l-92 -553h-86l92 551q11 63 14.5 113.5t-5 101t-31 84.5t-67.5 55t-110 21q-79 0 -148 -33.5t-117 -89.5t-79.5 -123t-44.5 -139l-96 -541h-84
l94 535q10 52 13.5 95t1.5 89.5t-16 81.5t-39 64t-68.5 44t-102.5 15q-80 0 -149 -35t-115.5 -93t-77 -125.5t-43.5 -140.5l-92 -530h-84l172 981h65q3 -82 -18 -188h8q132 204 363 204z" />
    <glyph glyph-name="n" unicode="n" horiz-adv-x="1024" 
d="M643 999q87 0 147.5 -25t91.5 -64.5t44.5 -98t11.5 -115.5t-14 -127l-99 -569h-88l97 553q9 50 12.5 88t3 84.5t-14.5 79.5t-39 62t-71 44t-109 15q-81 0 -152.5 -35t-122 -93.5t-85 -130.5t-47.5 -149l-88 -518h-84l172 981h65q5 -63 -20 -188h8q56 79 130 128
t132.5 63.5t118.5 14.5z" />
    <glyph glyph-name="o" unicode="o" horiz-adv-x="1046" 
d="M610 997q75 0 135 -19.5t100 -53t66.5 -81.5t38 -103t11.5 -119q0 -93 -17 -181t-56.5 -172t-97.5 -146t-147 -100t-199 -38q-356 0 -356 356q0 135 33 253t96.5 208.5t164.5 143t228 52.5zM604 924q-84 0 -155 -30.5t-121.5 -84.5t-86 -127t-52.5 -159t-17 -181
q0 -287 285 -287q184 0 302 146.5t118 416.5q0 141 -68 223.5t-205 82.5z" />
    <glyph glyph-name="p" unicode="p" horiz-adv-x="1040" 
d="M631 997q167 0 250.5 -96t83.5 -250q0 -138 -32 -257t-93 -211t-159 -144.5t-222 -52.5q-115 0 -193.5 58t-105.5 132h-8l-105 -584h-82l244 1389h65q7 -83 -16 -178h8q69 100 166 147t199 47zM608 928q-117 0 -211.5 -75.5t-148 -204t-55.5 -283.5q-3 -141 66.5 -224.5
t209.5 -83.5q128 0 223 78.5t142 208.5t47 293q0 139 -72.5 215t-200.5 76z" />
    <glyph glyph-name="q" unicode="q" horiz-adv-x="1040" 
d="M436 59q99 0 181.5 58t133.5 148.5t79 194.5t28 204q0 118 -67 189t-195 71q-191 0 -307.5 -163t-116.5 -431q0 -132 61.5 -201.5t202.5 -69.5zM891 817h8q21 122 45 164h66l-246 -1389h-84l68 383q26 154 57 242h-8q-143 -233 -379 -233q-175 0 -253.5 92.5t-78.5 251.5
q0 186 58 336t176 241.5t278 91.5q106 0 183.5 -43.5t109.5 -136.5z" />
    <glyph glyph-name="r" unicode="r" horiz-adv-x="585" 
d="M143 0h-84l172 981h64q0 -95 -23 -201h9q53 102 157 160.5t224 60.5l-9 -90q-106 -6 -183.5 -38t-124 -87.5t-72.5 -118t-40 -145.5q-47 -261 -90 -522z" />
    <glyph glyph-name="s" unicode="s" horiz-adv-x="913" 
d="M379 55q88 0 155 23t103 60.5t53 77.5t17 81q0 34 -13.5 60.5t-33.5 44t-54 31.5t-64.5 22.5t-76.5 17.5q-141 29 -188 49q-112 46 -124 147q-1 13 -1 27q0 128 101.5 214.5t295.5 86.5q79 0 143.5 -20t108 -67.5t43.5 -116.5q0 -41 -8 -72h-74q11 109 -51 156t-176 47
q-142 0 -219.5 -64.5t-77.5 -157.5q0 -26 7.5 -46t26.5 -35t35 -25t51 -19.5t54 -13.5t63 -13q23 -5 35 -7q64 -12 108.5 -27t86.5 -41.5t63 -69t20 -100.5q0 -137 -107 -229t-314 -92q-145 0 -232.5 57.5t-87.5 173.5q0 45 14 86h70q-10 -71 5 -121t52.5 -76.5t83.5 -37.5
t107 -11z" />
    <glyph glyph-name="t" unicode="t" horiz-adv-x="649" 
d="M420 1229l-45 -248h293l-13 -72h-293l-106 -608q-25 -138 19.5 -190t160.5 -52q56 0 117 9l-8 -72q-88 -10 -146 -10q-73 0 -120.5 16t-78.5 53.5t-35.5 100t9.5 155.5l107 598h-162l8 58l168 16l70 246h55z" />
    <glyph glyph-name="u" unicode="u" horiz-adv-x="1003" 
d="M387 -16q-90 0 -151.5 24.5t-93 63t-44 97.5t-9.5 117.5t17 133.5l99 561h86l-98 -561q-11 -64 -14 -111.5t5.5 -97.5t33 -81.5t74 -52t122.5 -20.5q101 0 184 56t131.5 139t65.5 180l96 549h84l-172 -981h-64q-4 14 -5 30t2.5 45t5.5 43t10 58h-9q-40 -56 -88.5 -96
t-97 -59.5t-89.5 -28t-81 -8.5z" />
    <glyph glyph-name="v" unicode="v" horiz-adv-x="864" 
d="M348 94h8l291 492q73 124 103.5 205.5t50.5 189.5h82q-20 -128 -54.5 -217t-113.5 -221l-332 -547h-96q-31 174 -89 503.5t-85 481.5h88l59 -350q7 -41 27 -154t35.5 -207.5t25.5 -175.5z" />
    <glyph glyph-name="w" unicode="w" horiz-adv-x="1351" 
d="M918 92l251 496q43 84 68 155t32.5 105t26.5 133h76q-25 -146 -49.5 -229t-91.5 -211l-285 -545h-92l-90 483q-36 198 -43 275h-8q-26 -58 -129 -269l-244 -489h-100q-83 630 -131 985h81l70 -528q5 -40 14.5 -111.5t17 -131.5t11.5 -112h10q31 70 98.5 203t80.5 160
l192 389h90l66 -354q57 -311 69 -404h9z" />
    <glyph glyph-name="x" unicode="x" horiz-adv-x="845" 
d="M647 0l-225 442l-377 -442h-106l440 508l-246 473h94l207 -410l350 410h105l-412 -473l264 -508h-94z" />
    <glyph glyph-name="y" unicode="y" horiz-adv-x="847" 
d="M217 -408h-92q40 79 116 226.5t91 177.5l-39 -4l-199 987h88l94 -483q6 -31 27.5 -129.5t34 -166.5t20.5 -137h11l262 523q64 126 88 205t39 188h84q-18 -130 -45.5 -219t-94.5 -219z" />
    <glyph glyph-name="z" unicode="z" horiz-adv-x="833" 
d="M-49 0l10 63l782 842h-583l14 76h688l-12 -70l-778 -839h635l-13 -72h-743z" />
    <glyph glyph-name="braceleft" unicode="{" horiz-adv-x="673" 
d="M289 598l-2 -8q26 -12 42.5 -33.5t22.5 -44.5t5.5 -56.5t-3.5 -57.5t-10 -60l-63 -367q-14 -82 3 -117.5t76 -35.5h60l-12 -70h-76q-76 0 -112 53t-17 144l65 377q24 111 8 165.5t-94 79.5l13 56q44 10 72 27t47 49.5t29 68t22 100.5l65 385q18 92 64.5 142.5t121.5 50.5
h86l-12 -66h-59q-61 0 -87 -36.5t-40 -112.5l-66 -385q-10 -52 -19 -83.5t-25.5 -66.5t-42 -58.5t-62.5 -39.5z" />
    <glyph glyph-name="bar" unicode="|" horiz-adv-x="559" 
d="M231 -250v1718h84v-1718h-84z" />
    <glyph glyph-name="braceright" unicode="}" horiz-adv-x="673" 
d="M455 586v8q-32 16 -49.5 39.5t-22 57.5t-2 66.5t11.5 82.5l70 391q12 76 -2 112.5t-76 36.5h-61l12 66h88q77 0 107 -51t12 -142l-68 -389q-26 -114 -11.5 -171.5t93.5 -76.5l-12 -55q-84 -23 -116 -74t-54 -170l-64 -372q-19 -92 -73 -144.5t-129 -52.5h-72l12 70h55
q60 0 92 36.5t46 116.5l63 361q7 44 15.5 76t25 70t44 65.5t65.5 42.5z" />
    <glyph glyph-name="asciitilde" unicode="~" 
d="M776 473q-61 0 -133 30.5t-136.5 60.5t-105.5 30q-54 0 -99.5 -25t-102.5 -90l-45 35q49 80 117 120t141 40q43 0 99 -19t100.5 -42.5t95 -42.5t84.5 -19q60 0 107 27t103 92l48 -31q-50 -82 -123.5 -124t-149.5 -42z" />
    <glyph glyph-name="exclamdown" unicode="&#xa1;" horiz-adv-x="563" 
d="M281 637h67l-170 -1071h-102q81 411 205 1071zM377 987q29 0 48 -20.5t19 -51.5q0 -38 -30.5 -67t-67.5 -29q-29 0 -48 20t-19 48q0 40 30 70t68 30z" />
    <glyph glyph-name="cent" unicode="&#xa2;" 
d="M690 1167l41 240h62l-43 -240q121 -5 199.5 -59.5t78.5 -161.5q0 -40 -10 -74h-70q2 12 2 37q0 87 -58.5 132t-154.5 51q-102 -574 -151 -859q140 3 220.5 75.5t90.5 170.5h72q0 -30 -6 -57q-16 -80 -78 -138.5t-141 -87t-173 -38.5q-6 -37 -47 -269h-59q6 37 47 269
q-303 17 -303 348q0 104 19 198.5t58 177t95 144.5t135.5 99t173.5 42zM524 233q119 664 152 857q-117 -11 -205.5 -91t-134 -208t-45.5 -285q0 -133 58.5 -198.5t174.5 -74.5z" />
    <glyph glyph-name="sterling" unicode="&#xa3;" 
d="M768 1341q156 0 256 -65t100 -174q0 -42 -12 -70h-70q2 12 2 35q0 98 -76.5 148.5t-201.5 50.5q-174 0 -277.5 -97t-103.5 -270q0 -58 12 -164h389q-1 -8 -4 -22t-5 -25.5t-3 -21.5h-373v-72q0 -152 -45 -275.5t-139 -244.5h713q-1 -11 -3 -23.5t-5 -27t-4 -23.5h-871
q1 11 3 23.5t5 27t4 23.5h68q95 106 142.5 240t47.5 247q0 27 -4 105h-149l12 69h135q0 9 -4 58.5t-4 111.5q6 192 125.5 314t339.5 122z" />
    <glyph glyph-name="currency" unicode="&#xa4;" horiz-adv-x="1159" 
d="M229 571q0 119 78 224l-100 102l61 61l99 -102q110 80 223 80q120 0 225 -84l100 100l60 -59l-103 -102q76 -102 76 -220q0 -114 -76 -219l105 -100l-62 -62l-102 101q-105 -78 -223 -78q-114 0 -225 78l-93 -98l-61 59l98 94q-80 103 -80 225zM305 569q0 -116 83 -198
t200 -82q119 0 200.5 82t81.5 198q0 122 -81 204.5t-201 82.5q-118 0 -200.5 -83t-82.5 -204z" />
    <glyph glyph-name="yen" unicode="&#xa5;" 
d="M1028 549h-862l10 59h350l-280 713h92l129 -336q72 -174 125 -336h16q110 158 238 326l262 346h102l-540 -713h368zM145 436h863l-11 -61h-399l-63 -375h-89l66 375h-377z" />
    <glyph glyph-name="brokenbar" unicode="&#xa6;" horiz-adv-x="669" 
d="M283 541h86v-789h-86v789zM369 723h-86v737h86v-737z" />
    <glyph glyph-name="section" unicode="&#xa7;" horiz-adv-x="1038" 
d="M682 1382q57 0 111 -12.5t101.5 -38t76 -71.5t28.5 -105q0 -29 -6 -59h-75q6 58 -11.5 101t-54 67t-82 35.5t-100.5 11.5q-141 0 -223 -68.5t-82 -171.5q0 -78 56.5 -117.5t180.5 -68.5q155 -35 242.5 -104t87.5 -187q0 -95 -67.5 -178t-188.5 -123q149 -63 149 -211
q0 -37 -12.5 -77t-44 -84.5t-78.5 -79.5t-123 -58t-170 -23q-83 0 -159 24.5t-129.5 79.5t-53.5 130q0 21 6 55h76q-3 -49 12.5 -87.5t42.5 -62.5t65 -39.5t75 -21.5t76 -6q149 0 239 72t90 172q0 77 -63.5 121.5t-181.5 74.5q-76 18 -131.5 40t-104 55t-73.5 80t-25 108
q0 95 66.5 178.5t181.5 128.5q-127 64 -127 197q0 42 12 84t41.5 86t73.5 77.5t115.5 54.5t160.5 21zM240 565q0 -51 24.5 -90t72.5 -65.5t102.5 -44t129.5 -31.5q119 17 201 89.5t82 160.5q0 99 -85 157t-267 86q-122 -34 -191 -107.5t-69 -154.5z" />
    <glyph glyph-name="dieresis" unicode="&#xa8;" horiz-adv-x="970" 
d="M485 1288q23 0 37.5 -14.5t14.5 -36.5q0 -30 -22 -52t-50 -22q-23 0 -36 14.5t-13 36.5q0 29 20.5 51.5t48.5 22.5zM801 1288q23 0 38 -15t15 -38q0 -29 -23 -50.5t-51 -21.5q-23 0 -36 14.5t-13 36.5q0 29 21 51.5t49 22.5z" />
    <glyph glyph-name="copyright" unicode="&#xa9;" horiz-adv-x="1665" 
d="M829 203q-222 0 -319.5 120.5t-97.5 368.5q0 106 22.5 194t70.5 160.5t131 113t195 40.5q92 0 168 -27t126.5 -88.5t50.5 -148.5q0 -19 -2 -29h-66q-2 44 -17 83t-46.5 72.5t-87.5 53t-130 19.5q-171 0 -254.5 -119t-83.5 -322q0 -227 83.5 -326.5t256.5 -99.5
q81 0 141 22.5t91.5 60.5t46.5 79t16 86h66q2 -10 2 -27q0 -134 -103 -210t-260 -76zM829 -27q-222 0 -389.5 97.5t-255.5 267.5t-88 387q0 213 99.5 385.5t267 267.5t366.5 95q147 0 280.5 -56t232 -154t156.5 -238t58 -300q0 -159 -58 -300t-156.5 -239.5t-232 -155.5
t-280.5 -57zM829 1401q-184 0 -335.5 -90t-237.5 -245t-86 -341q0 -200 83.5 -356t233.5 -242t342 -86q135 0 256.5 53.5t209 145t139 218.5t51.5 267q0 139 -51.5 264.5t-139 215.5t-209 143t-256.5 53z" />
    <glyph glyph-name="ordfeminine" unicode="&#xaa;" horiz-adv-x="710" 
d="M479 1247q64 0 118 -25.5t77 -78.5l8 4q12 63 33 94h55l-117 -651h-57q-3 60 6 106l-6 2q-41 -59 -102 -88.5t-127 -29.5q-236 0 -236 239q0 117 38.5 212.5t119 155.5t190.5 60zM379 645q63 0 115 32t84.5 84t50.5 115t18 128q0 89 -45.5 134.5t-130.5 45.5
q-119 0 -192.5 -96.5t-73.5 -264.5q0 -178 174 -178z" />
    <glyph glyph-name="guillemotleft" unicode="&#xab;" horiz-adv-x="833" 
d="M381 53l-262 387q4 13 8 35l379 393q7 -5 19.5 -16t19.5 -16l-326 -379l207 -371zM635 53q-29 43 -82 122t-96 143.5t-80 121.5l6 35l379 393q35 -29 39 -32q-63 -72 -177 -206.5t-147 -172.5q23 -42 64 -117t75.5 -137t65.5 -117z" />
    <glyph glyph-name="logicalnot" unicode="&#xac;" 
d="M973 588l-74 -414h-78l60 340h-676l12 74h756z" />
    <glyph glyph-name="sfthyphen" unicode="&#xad;" horiz-adv-x="907" 
d="M201 467l14 90h506l-14 -90h-506z" />
    <glyph glyph-name="registered" unicode="&#xae;" horiz-adv-x="1163" 
d="M1051 948q0 -97 -38 -186t-103 -153t-154.5 -102t-188.5 -38q-143 0 -253 65t-168 173.5t-58 240.5q0 98 38 187.5t102 154.5t153 103.5t186 38.5q208 0 346 -141t138 -343zM991 948q0 116 -57 215.5t-155 158t-212 58.5q-181 0 -301.5 -126.5t-120.5 -305.5
q0 -114 52.5 -211t150 -156t219.5 -59q114 0 212 58.5t155 156.5t57 211zM647 928l129 -252h-65l-121 246h-127v-246h-55v563h180q79 0 130.5 -41t51.5 -123q0 -52 -29.5 -92.5t-93.5 -54.5zM592 1186h-129v-215h131q119 0 119 106q0 55 -36.5 82t-84.5 27z" />
    <glyph glyph-name="macron" unicode="&#xaf;" horiz-adv-x="968" 
d="M338 1188l12 78h570l-13 -78h-569z" />
    <glyph glyph-name="degree" unicode="&#xb0;" horiz-adv-x="921" 
d="M451 846q-109 0 -188 75.5t-79 180.5q0 106 78.5 180t188.5 74q111 0 189.5 -73.5t78.5 -180.5q0 -106 -79 -181t-189 -75zM449 1290q-78 0 -135.5 -55t-57.5 -133q0 -76 58 -133.5t135 -57.5q79 0 136.5 57t57.5 134q0 78 -57 133t-137 55z" />
    <glyph glyph-name="plusminus" unicode="&#xb1;" 
d="M623 514l-60 -332h-78l58 332h-338l12 72h340l57 334h78l-57 -334h338l-15 -72h-335zM127 72h756l-13 -72h-755z" />
    <glyph glyph-name="twosuperior" unicode="&#xb2;" horiz-adv-x="735" 
d="M522 1577q126 0 187 -50t61 -130q0 -48 -23.5 -91.5t-68.5 -80t-86.5 -62t-99.5 -55.5q-163 -83 -206 -113q-87 -60 -107 -137q-2 -7 -3 -14h514l-12 -70h-596l8 53q4 26 13 49.5t17.5 42t27.5 39.5t30.5 34t41.5 33.5t44 30.5t55 32.5t58.5 32t68.5 36.5q56 29 92.5 51
t74.5 52t56.5 62t18.5 67q0 57 -42 88.5t-126 31.5q-110 0 -175.5 -50.5t-70.5 -123.5h-63q0 23 2 33q9 94 100.5 151.5t208.5 57.5z" />
    <glyph glyph-name="threesuperior" unicode="&#xb3;" horiz-adv-x="733" 
d="M477 1272l2 -8q119 -5 182.5 -57t63.5 -150q0 -129 -103.5 -210t-263.5 -81q-114 0 -184 43.5t-70 126.5q0 17 11 65h65q-6 -21 -6 -38q0 -62 48.5 -95.5t144.5 -33.5q126 0 203 60.5t77 164.5q0 141 -221 141q-39 0 -64 -4l-24 51l324 242v10h-422l12 66h549
q-7 -32 -10 -58q-33 -26 -135.5 -100.5t-178.5 -134.5z" />
    <glyph glyph-name="acute" unicode="&#xb4;" horiz-adv-x="970" 
d="M586 1120l-35 37l262 283l72 -70z" />
    <glyph glyph-name="mu" unicode="&#xb5;" horiz-adv-x="1005" 
d="M977 981l-174 -981h-66q-4 9 -1.5 45t2.5 41.5t5.5 40.5t6.5 41h-9q-139 -184 -348 -184q-104 0 -165 29.5t-93 88.5l-92 -522h-84q164 934 248 1401h84l-98 -565q-7 -39 -10.5 -67.5t-5.5 -64t2.5 -61.5t13 -53.5t27 -46.5t44.5 -35t64.5 -23.5t87.5 -7.5
q76 0 142.5 31.5t113.5 83.5t78.5 117.5t44.5 136.5l98 555h84z" />
    <glyph glyph-name="mu" unicode="&#x3bc;" horiz-adv-x="1005" 
d="M977 981l-174 -981h-66q-4 9 -1.5 45t2.5 41.5t5.5 40.5t6.5 41h-9q-139 -184 -348 -184q-104 0 -165 29.5t-93 88.5l-92 -522h-84q164 934 248 1401h84l-98 -565q-7 -39 -10.5 -67.5t-5.5 -64t2.5 -61.5t13 -53.5t27 -46.5t44.5 -35t64.5 -23.5t87.5 -7.5
q76 0 142.5 31.5t113.5 83.5t78.5 117.5t44.5 136.5l98 555h84z" />
    <glyph glyph-name="paragraph" unicode="&#xb6;" horiz-adv-x="948" 
d="M680 700h-168q-142 0 -221.5 85t-79.5 227q0 188 118.5 307t303.5 119h178zM983 1438l-252 -1422q-12 -67 -33 -119t-59 -100.5t-103 -75t-153 -26.5h-43l12 78q147 6 213 61.5t88 183.5l250 1420h80z" />
    <glyph glyph-name="periodcentered" unicode="&#xb7;" horiz-adv-x="403" 
d="M227 616q33 0 54.5 -22t21.5 -55q0 -43 -33.5 -75t-74.5 -32q-32 0 -53 21t-21 53q0 44 32 77t74 33z" />
    <glyph glyph-name="cedilla" unicode="&#xb8;" horiz-adv-x="956" 
d="M340 -420q-86 0 -160 35l25 51q72 -28 139 -28q56 0 104 30t48 86q0 38 -29.5 59t-77.5 21q-42 0 -72 -12l-34 24q16 23 60 84.5t67 94.5h67q-19 -24 -53 -70.5t-49 -65.5q5 0 14 1t14 1q90 0 130 -37.5t40 -89.5q0 -76 -63 -129.5t-170 -54.5z" />
    <glyph glyph-name="onesuperior" unicode="&#xb9;" horiz-adv-x="729" 
d="M666 842l-13 -68h-538l12 68h229l111 639l-203 -31l10 57l222 58h65l-127 -723h232z" />
    <glyph glyph-name="ordmasculine" unicode="&#xba;" horiz-adv-x="716" 
d="M489 1247q67 0 116 -21t76 -58.5t39.5 -83t12.5 -101.5q0 -58 -10.5 -112.5t-36.5 -108t-65 -92.5t-99.5 -63.5t-136.5 -24.5q-132 0 -193 64.5t-61 178.5q0 181 95 301.5t263 120.5zM477 1180q-67 0 -120 -30t-85.5 -80.5t-49.5 -113t-17 -131.5q0 -178 192 -178
q117 0 188.5 88t71.5 240q0 97 -41 151t-139 54z" />
    <glyph glyph-name="guillemotright" unicode="&#xbb;" horiz-adv-x="833" 
d="M743 436l-389 -387l-39 37l338 369q-35 66 -98.5 194t-93.5 187l49 30l242 -395q-3 -16 -9 -35zM489 436l-391 -387q-2 2 -17.5 15.5t-23.5 19.5l340 373l-190 379l45 30q33 -53 116.5 -187t127.5 -208z" />
    <glyph glyph-name="onequarter" unicode="&#xbc;" horiz-adv-x="1640" 
d="M428 -61h-80l1032 1503h80zM674 657l-12 -67h-539l12 67h230l110 639l-203 -30l11 57l221 57h65l-127 -723h232zM1393 791h65l-92 -521h141l-12 -69h-141l-35 -201h-80l35 201h-449l11 59zM942 270h344l70 398z" />
    <glyph glyph-name="onehalf" unicode="&#xbd;" horiz-adv-x="1640" 
d="M385 -61h-80l1032 1503h80zM662 657l-13 -67h-538l12 67h229l111 639l-203 -30l10 57l222 57h65l-127 -723h232zM1309 803q125 0 186 -50.5t61 -131.5q0 -47 -23.5 -90.5t-67.5 -80t-86 -63t-99 -55.5q-165 -83 -214 -118q-86 -61 -103 -144h514l-13 -70h-596l9 51
q5 29 13.5 54.5t24.5 48.5t29.5 41t41.5 39t46.5 35t58.5 36.5t64.5 35.5t75.5 40q59 32 93 52.5t73.5 50.5t57.5 61.5t18 66.5q0 57 -42 90t-126 33q-110 0 -174.5 -51t-69.5 -125h-64q-3 18 0 35q10 93 101.5 151t210.5 58z" />
    <glyph glyph-name="threequarters" unicode="&#xbe;" horiz-adv-x="1640" 
d="M428 -61h-80l1032 1503h80zM526 1087l2 -8q119 -5 182.5 -57t63.5 -150q0 -129 -103 -209.5t-263 -80.5q-114 0 -184 43.5t-70 126.5q0 21 10 65h65q-6 -21 -6 -39q0 -62 48.5 -95.5t144.5 -33.5q126 0 203 60.5t77 164.5q0 142 -221 142q-38 0 -63 -4l-25 51l324 242v10
h-422l12 65h549q-7 -33 -10 -57q-32 -25 -135 -100.5t-179 -135.5zM1407 791h66l-93 -521h142l-13 -69h-141l-35 -201h-80l35 201h-448l10 59zM956 270h344l70 398z" />
    <glyph glyph-name="questiondown" unicode="&#xbf;" horiz-adv-x="960" 
d="M336 -455q-157 0 -243.5 71.5t-86.5 193.5q0 105 61 197.5t187 193.5q116 92 182.5 179t91.5 216l9 49h88l-9 -41q-22 -127 -86 -228.5t-182 -197.5q-135 -113 -192.5 -192t-57.5 -168q0 -90 63.5 -141.5t186.5 -51.5q89 0 157 23t110.5 64.5t66.5 90.5t35 109h74
q0 -6 -1.5 -17t-1.5 -14q-22 -163 -146 -249.5t-306 -86.5zM645 993q29 0 48.5 -20t19.5 -51q0 -38 -30.5 -67.5t-66.5 -29.5q-30 0 -49.5 20t-19.5 48q0 39 30.5 69.5t67.5 30.5z" />
    <glyph glyph-name="Agrave" unicode="&#xc0;" 
d="M958 0l-73 375h-652l-200 -375h-94l747 1382h92l271 -1382h-91zM723 1268h-12q-96 -188 -199 -377l-238 -438h600l-86 434q-13 69 -34.5 200.5t-30.5 180.5zM809 1526l-33 -41l-293 196l64 80z" />
    <glyph glyph-name="Aacute" unicode="&#xc1;" 
d="M958 0l-73 375h-652l-200 -375h-94l747 1382h92l271 -1382h-91zM723 1268h-12q-96 -188 -199 -377l-238 -438h600l-86 434q-13 69 -34.5 200.5t-30.5 180.5zM702 1491l-26 45l317 215l51 -86z" />
    <glyph glyph-name="Acircumflex" unicode="&#xc2;" 
d="M958 0l-73 375h-652l-200 -375h-94l747 1382h92l271 -1382h-91zM723 1268h-12q-96 -188 -199 -377l-238 -438h600l-86 434q-13 69 -34.5 200.5t-30.5 180.5zM1008 1470l-228 185l-299 -187l-30 41l307 228h71l222 -228z" />
    <glyph glyph-name="Atilde" unicode="&#xc3;" 
d="M958 0l-73 375h-652l-200 -375h-94l747 1382h92l271 -1382h-91zM723 1268h-12q-96 -188 -199 -377l-238 -438h600l-86 434q-13 69 -34.5 200.5t-30.5 180.5zM862 1540q-48 0 -127 40.5t-112 41.5q-35 0 -66 -18.5t-74 -65.5l-47 31q38 61 90.5 93t104.5 32q47 0 126 -40
t113 -40q41 0 74 17.5t72 64.5l45 -29q-72 -127 -199 -127z" />
    <glyph glyph-name="Adieresis" unicode="&#xc4;" 
d="M958 0l-73 375h-652l-200 -375h-94l747 1382h92l271 -1382h-91zM723 1268h-12q-96 -188 -199 -377l-238 -438h600l-86 434q-13 69 -34.5 200.5t-30.5 180.5zM623 1665q23 0 37 -14.5t14 -36.5q0 -30 -23 -52t-51 -22q-21 0 -34 14.5t-13 36.5q0 29 21 51.5t49 22.5z
M940 1665q22 0 35.5 -15t13.5 -38q0 -29 -22 -50.5t-49 -21.5q-23 0 -37.5 14.5t-14.5 36.5q0 29 22.5 51.5t51.5 22.5z" />
    <glyph glyph-name="Aring" unicode="&#xc5;" 
d="M958 0l-73 375h-652l-200 -375h-94l747 1382h92l271 -1382h-91zM723 1268h-12q-96 -188 -199 -377l-238 -438h600l-86 434q-13 69 -34.5 200.5t-30.5 180.5zM745 1442q-68 0 -110.5 45t-42.5 112q0 93 63.5 155.5t155.5 62.5q69 0 111.5 -45.5t42.5 -114.5
q0 -92 -63 -153.5t-157 -61.5zM801 1759q-63 0 -104.5 -45.5t-41.5 -107.5q0 -46 27 -76.5t72 -30.5q71 0 111 46t40 108q0 46 -27.5 76t-76.5 30z" />
    <glyph glyph-name="AE" unicode="&#xc6;" horiz-adv-x="1857" 
d="M918 494h-517l-374 -494h-103l1047 1380h860q-2 -13 -4 -37t-4 -36h-723l-64 -566h678l-8 -73h-678q-14 -114 -37 -324t-30 -270h804q-3 -21 -8 -74h-897q10 82 29 247t29 247zM1012 1290q-1 0 -4 1t-4 1q-233 -315 -541 -719h463z" />
    <glyph glyph-name="Ccedilla" unicode="&#xc7;" horiz-adv-x="1175" 
d="M473 -420q-86 0 -160 35l25 51q72 -28 139 -28q56 0 104 30t48 86q0 38 -29.5 59t-77.5 21q-41 0 -71 -12l-35 24q19 28 54.5 76t47.5 66q-393 32 -393 473q0 140 25 272.5t79 253.5t132.5 211t193.5 143.5t254 53.5q165 0 276 -79t111 -222q0 -53 -10 -84h-76q2 16 2 51
q0 111 -76.5 182.5t-240.5 71.5q-102 0 -189.5 -37t-149.5 -101.5t-110 -147.5t-76.5 -179t-42.5 -191.5t-14 -189.5q0 -203 92 -303t281 -100q85 0 155.5 19t119 50.5t84 75t54.5 90t27 98.5h82l-8 -53q-37 -174 -178.5 -267t-339.5 -93h-2q-14 -18 -38.5 -52t-33.5 -45
q5 0 14.5 1t14.5 1q90 0 130 -37.5t40 -89.5q0 -76 -63.5 -129.5t-170.5 -54.5z" />
    <glyph glyph-name="Egrave" unicode="&#xc8;" horiz-adv-x="1048" 
d="M47 0l242 1380h821l-14 -80h-736l-92 -528h686l-12 -80h-688l-109 -610h797l-12 -82h-883zM836 1526l-33 -41l-293 196l63 80z" />
    <glyph glyph-name="Eacute" unicode="&#xc9;" horiz-adv-x="1056" 
d="M49 0l242 1380h821l-14 -80h-736l-92 -528h686l-12 -80h-688l-109 -610h797l-12 -82h-883zM643 1491l-27 45l318 215l51 -86z" />
    <glyph glyph-name="Ecircumflex" unicode="&#xca;" horiz-adv-x="1048" 
d="M47 0l242 1380h821l-14 -80h-736l-92 -528h686l-12 -80h-688l-109 -610h797l-12 -82h-883zM973 1489l-228 184l-299 -186l-30 41l307 227h72l221 -227z" />
    <glyph glyph-name="Edieresis" unicode="&#xcb;" horiz-adv-x="1048" 
d="M47 0l242 1380h821l-14 -80h-736l-92 -528h686l-12 -80h-688l-109 -610h797l-12 -82h-883zM578 1665q23 0 37 -14.5t14 -36.5q0 -30 -23 -52t-51 -22q-21 0 -34 14.5t-13 36.5q0 29 21 51.5t49 22.5zM895 1665q22 0 35.5 -15t13.5 -38q0 -29 -22.5 -50.5t-49.5 -21.5
q-23 0 -37 14.5t-14 36.5q0 29 22.5 51.5t51.5 22.5z" />
    <glyph glyph-name="Igrave" unicode="&#xcc;" horiz-adv-x="421" 
d="M86 0l242 1380h88l-244 -1380h-86zM442 1526l-32 -41l-293 196l63 80z" />
    <glyph glyph-name="Iacute" unicode="&#xcd;" horiz-adv-x="421" 
d="M86 0l242 1380h88l-244 -1380h-86zM365 1491l-27 45l317 215l52 -86z" />
    <glyph glyph-name="Icircumflex" unicode="&#xce;" horiz-adv-x="421" 
d="M86 0l242 1380h88l-244 -1380h-86zM645 1489l-227 184l-299 -186l-31 41l307 227h72l221 -227z" />
    <glyph glyph-name="Idieresis" unicode="&#xcf;" horiz-adv-x="421" 
d="M86 0l242 1380h88l-244 -1380h-86zM276 1665q23 0 37.5 -14.5t14.5 -36.5q0 -30 -23 -52t-51 -22q-21 0 -34 14.5t-13 36.5q0 29 20.5 51.5t48.5 22.5zM594 1665q22 0 35.5 -15t13.5 -38q0 -29 -22.5 -50.5t-49.5 -21.5q-23 0 -37 14.5t-14 36.5q0 29 22.5 51.5
t51.5 22.5z" />
    <glyph glyph-name="Eth" unicode="&#xd0;" horiz-adv-x="1236" 
d="M178 750l111 628h329q85 0 163 -18t152 -61t128 -106.5t86.5 -161.5t32.5 -220q0 -237 -99 -422.5t-272.5 -287t-390.5 -101.5h-371l119 680h-127l14 70h125zM145 80h269q74 0 149.5 17t153 51.5t144 94t119 138.5t82.5 191.5t30 246.5q0 113 -32 200.5t-81.5 139
t-116.5 84.5t-128.5 45t-125.5 12h-248l-98 -550h486l-15 -70h-481z" />
    <glyph glyph-name="Ntilde" unicode="&#xd1;" horiz-adv-x="1277" 
d="M358 1227q-8 0 -12 -2l-215 -1225h-84l242 1380h80l346 -678q44 -82 89 -170.5t106 -213t85 -171.5h11q45 268 215 1233h84l-240 -1380h-82l-461 889q-100 191 -164 338zM956 1516q-48 0 -127 40t-112 41q-35 0 -65.5 -18.5t-73.5 -65.5l-48 31q38 61 90.5 93t104.5 32
q47 0 126.5 -40t113.5 -40q40 0 73 17.5t72 64.5l45 -29q-71 -126 -199 -126z" />
    <glyph glyph-name="Ograve" unicode="&#xd2;" horiz-adv-x="1323" 
d="M829 1395q119 0 206.5 -38.5t137.5 -108t73.5 -155.5t23.5 -192q0 -94 -11 -185t-36 -182.5t-63 -171.5t-95 -150t-127.5 -119.5t-165.5 -78t-205 -28.5q-121 0 -209.5 35.5t-138.5 99.5t-73 143t-23 176q0 99 12 195.5t38.5 192t66 179t97 155.5t128.5 123.5t164 80.5
t200 29zM813 1315q-129 0 -233.5 -52.5t-171.5 -137.5t-113 -198.5t-65 -230t-19 -237.5q0 -199 90 -297.5t279 -98.5q130 0 239.5 54.5t190.5 158t126.5 264t45.5 361.5q0 414 -369 414zM956 1526l-32 -41l-293 196l63 80z" />
    <glyph glyph-name="Oacute" unicode="&#xd3;" horiz-adv-x="1323" 
d="M829 1395q119 0 206.5 -38.5t137.5 -108t73.5 -155.5t23.5 -192q0 -94 -11 -185t-36 -182.5t-63 -171.5t-95 -150t-127.5 -119.5t-165.5 -78t-205 -28.5q-121 0 -209.5 35.5t-138.5 99.5t-73 143t-23 176q0 99 12 195.5t38.5 192t66 179t97 155.5t128.5 123.5t164 80.5
t200 29zM813 1315q-129 0 -233.5 -52.5t-171.5 -137.5t-113 -198.5t-65 -230t-19 -237.5q0 -199 90 -297.5t279 -98.5q130 0 239.5 54.5t190.5 158t126.5 264t45.5 361.5q0 414 -369 414zM829 1491l-26 45l317 215l51 -86z" />
    <glyph glyph-name="Ocircumflex" unicode="&#xd4;" horiz-adv-x="1323" 
d="M829 1395q119 0 206.5 -38.5t137.5 -108t73.5 -155.5t23.5 -192q0 -94 -11 -185t-36 -182.5t-63 -171.5t-95 -150t-127.5 -119.5t-165.5 -78t-205 -28.5q-121 0 -209.5 35.5t-138.5 99.5t-73 143t-23 176q0 99 12 195.5t38.5 192t66 179t97 155.5t128.5 123.5t164 80.5
t200 29zM813 1315q-129 0 -233.5 -52.5t-171.5 -137.5t-113 -198.5t-65 -230t-19 -237.5q0 -199 90 -297.5t279 -98.5q130 0 239.5 54.5t190.5 158t126.5 264t45.5 361.5q0 414 -369 414zM1128 1489l-227 184l-299 -186l-31 41l308 227h71l221 -227z" />
    <glyph glyph-name="Otilde" unicode="&#xd5;" horiz-adv-x="1323" 
d="M829 1395q119 0 206.5 -38.5t137.5 -108t73.5 -155.5t23.5 -192q0 -94 -11 -185t-36 -182.5t-63 -171.5t-95 -150t-127.5 -119.5t-165.5 -78t-205 -28.5q-121 0 -209.5 35.5t-138.5 99.5t-73 143t-23 176q0 99 12 195.5t38.5 192t66 179t97 155.5t128.5 123.5t164 80.5
t200 29zM813 1315q-129 0 -233.5 -52.5t-171.5 -137.5t-113 -198.5t-65 -230t-19 -237.5q0 -199 90 -297.5t279 -98.5q130 0 239.5 54.5t190.5 158t126.5 264t45.5 361.5q0 414 -369 414zM1014 1548q-48 0 -127.5 40.5t-112.5 41.5q-35 0 -65.5 -18.5t-73.5 -65.5l-47 31
q38 61 90 93t104 32q47 0 126.5 -40t113.5 -40q40 0 73 17.5t72 64.5l45 -29q-72 -127 -198 -127z" />
    <glyph glyph-name="Odieresis" unicode="&#xd6;" horiz-adv-x="1323" 
d="M829 1395q119 0 206.5 -38.5t137.5 -108t73.5 -155.5t23.5 -192q0 -94 -11 -185t-36 -182.5t-63 -171.5t-95 -150t-127.5 -119.5t-165.5 -78t-205 -28.5q-121 0 -209.5 35.5t-138.5 99.5t-73 143t-23 176q0 99 12 195.5t38.5 192t66 179t97 155.5t128.5 123.5t164 80.5
t200 29zM813 1315q-129 0 -233.5 -52.5t-171.5 -137.5t-113 -198.5t-65 -230t-19 -237.5q0 -199 90 -297.5t279 -98.5q130 0 239.5 54.5t190.5 158t126.5 264t45.5 361.5q0 414 -369 414zM762 1665q23 0 37 -14.5t14 -36.5q0 -30 -23 -52t-51 -22q-21 0 -34 14.5t-13 36.5
q0 29 21 51.5t49 22.5zM1079 1665q22 0 35.5 -15t13.5 -38q0 -29 -22 -50.5t-49 -21.5q-23 0 -37 14.5t-14 36.5q0 29 22 51.5t51 22.5z" />
    <glyph glyph-name="multiply" unicode="&#xd7;" 
d="M201 264l334 289q-20 25 -230 285l64 57l229 -287l326 287q2 -2 49 -61l-328 -285l227 -289q-46 -41 -63 -55q-43 53 -122 154.5t-105 134.5q-36 -31 -152 -133t-180 -156q-33 41 -49 59z" />
    <glyph glyph-name="Oslash" unicode="&#xd8;" horiz-adv-x="1323" 
d="M829 1395q230 0 345 -148l145 160l47 -43l-160 -170q64 -122 64 -293q0 -94 -11 -185t-36 -182.5t-63 -171.5t-95 -150t-127.5 -119.5t-165.5 -78t-205 -28.5q-237 0 -350 139l-145 -160l-47 41l155 170q-57 106 -57 264q0 99 12 195.5t38.5 192t66 179t97 155.5
t128.5 123.5t164 80.5t200 29zM1182 901q0 131 -41 221l-862 -934q85 -125 301 -125q130 0 239.5 54.5t190.5 158t126.5 264t45.5 361.5zM813 1315q-129 0 -233.5 -52.5t-171.5 -137.5t-113 -198.5t-65 -230t-19 -237.5q0 -129 37 -213l862 936q-88 133 -297 133z" />
    <glyph glyph-name="Ugrave" unicode="&#xd9;" horiz-adv-x="1280" 
d="M1311 1380l-146 -829q-22 -130 -64.5 -229t-113 -177t-178 -118.5t-248.5 -40.5q-117 0 -202 27.5t-133.5 79t-74 124t-23.5 162.5t19 196l142 805h86l-144 -809q-50 -272 36.5 -388.5t307.5 -116.5q205 0 331.5 115.5t172.5 373.5l146 825h86zM918 1526l-33 -41
l-293 196l63 80z" />
    <glyph glyph-name="Uacute" unicode="&#xda;" horiz-adv-x="1280" 
d="M1311 1380l-146 -829q-22 -130 -64.5 -229t-113 -177t-178 -118.5t-248.5 -40.5q-117 0 -202 27.5t-133.5 79t-74 124t-23.5 162.5t19 196l142 805h86l-144 -809q-50 -272 36.5 -388.5t307.5 -116.5q205 0 331.5 115.5t172.5 373.5l146 825h86zM741 1491l-26 45l317 215
l51 -86z" />
    <glyph glyph-name="Ucircumflex" unicode="&#xdb;" horiz-adv-x="1280" 
d="M1311 1380l-146 -829q-22 -130 -64.5 -229t-113 -177t-178 -118.5t-248.5 -40.5q-117 0 -202 27.5t-133.5 79t-74 124t-23.5 162.5t19 196l142 805h86l-144 -809q-50 -272 36.5 -388.5t307.5 -116.5q205 0 331.5 115.5t172.5 373.5l146 825h86zM1077 1489l-227 184
l-299 -186l-31 41l307 227h72l221 -227z" />
    <glyph glyph-name="Udieresis" unicode="&#xdc;" horiz-adv-x="1280" 
d="M1311 1380l-146 -829q-22 -130 -64.5 -229t-113 -177t-178 -118.5t-248.5 -40.5q-117 0 -202 27.5t-133.5 79t-74 124t-23.5 162.5t19 196l142 805h86l-144 -809q-50 -272 36.5 -388.5t307.5 -116.5q205 0 331.5 115.5t172.5 373.5l146 825h86zM690 1665q23 0 37 -14.5
t14 -36.5q0 -30 -22.5 -52t-50.5 -22q-21 0 -34 14.5t-13 36.5q0 29 20.5 51.5t48.5 22.5zM1008 1665q22 0 35.5 -15t13.5 -38q0 -29 -22.5 -50.5t-49.5 -21.5q-23 0 -37 14.5t-14 36.5q0 29 22.5 51.5t51.5 22.5z" />
    <glyph glyph-name="Yacute" unicode="&#xdd;" horiz-adv-x="1046" 
d="M535 641h12q7 12 67 96t122.5 171t66.5 93l274 379h107l-613 -831l-96 -549h-88l96 549l-303 831h92l138 -370q67 -179 125 -369zM629 1466l-27 45l318 215l51 -86z" />
    <glyph glyph-name="Thorn" unicode="&#xde;" horiz-adv-x="1112" 
d="M594 289h-408q-9 -48 -25.5 -144.5t-25.5 -144.5h-86l242 1378h86l-43 -250h411q181 0 274 -95.5t93 -256.5q0 -50 -10.5 -101t-32.5 -107.5t-62.5 -105t-95.5 -88t-136.5 -62.5t-180.5 -23zM725 1057h-403l-123 -692h407q58 0 114 12t112 42t98 74.5t68 115t26 157.5
q0 140 -76.5 215.5t-222.5 75.5z" />
    <glyph glyph-name="germandbls" unicode="&#xdf;" horiz-adv-x="1040" 
d="M51 -33l189 1022q44 242 155.5 358.5t296.5 116.5q141 0 226.5 -75t85.5 -177q0 -57 -17.5 -108t-52 -94.5t-64.5 -72.5t-75 -65q-49 -41 -74 -71.5t-25 -61.5q0 -16 6 -33t24 -39t27.5 -33.5t39 -41.5t36.5 -37q134 -140 134 -266q0 -109 -55 -185t-144 -110.5
t-205 -34.5q-60 0 -149 14l10 72q54 -10 135 -10q67 0 122.5 13.5t101.5 42t72 79.5t26 121q0 106 -129 235q-71 70 -105.5 118.5t-34.5 88.5q0 45 35 92.5t119 114.5q160 127 160 264q0 82 -64 136.5t-178 54.5q-148 0 -238 -112.5t-125 -315.5l-184 -1002
q-32 -173 -112 -257.5t-226 -84.5q-73 0 -131 12l14 70q49 -8 107 -8q116 0 178.5 65t87.5 205z" />
    <glyph glyph-name="agrave" unicode="&#xe0;" horiz-adv-x="1046" 
d="M438 59q87 0 160 39.5t123 107t82 152.5t45 181q62 385 -254 385q-184 0 -303 -163.5t-119 -430.5q0 -271 266 -271zM1010 981l-172 -981h-66q-11 63 14 180h-10q-133 -196 -362 -196q-171 0 -249.5 91t-78.5 249q0 183 57.5 334t175 245t275.5 94q232 0 301 -168h8
q16 108 43 152h64zM754 1167l-39 -37l-264 232l73 72z" />
    <glyph glyph-name="aacute" unicode="&#xe1;" horiz-adv-x="1046" 
d="M438 59q87 0 160 39.5t123 107t82 152.5t45 181q62 385 -254 385q-184 0 -303 -163.5t-119 -430.5q0 -271 266 -271zM1010 981l-172 -981h-66q-11 63 14 180h-10q-133 -196 -362 -196q-171 0 -249.5 91t-78.5 249q0 183 57.5 334t175 245t275.5 94q232 0 301 -168h8
q16 108 43 152h64zM612 1120l-34 37l262 283l71 -70z" />
    <glyph glyph-name="acircumflex" unicode="&#xe2;" horiz-adv-x="1046" 
d="M438 59q87 0 160 39.5t123 107t82 152.5t45 181q62 385 -254 385q-184 0 -303 -163.5t-119 -430.5q0 -271 266 -271zM1010 981l-172 -981h-66q-11 63 14 180h-10q-133 -196 -362 -196q-171 0 -249.5 91t-78.5 249q0 183 57.5 334t175 245t275.5 94q232 0 301 -168h8
q16 108 43 152h64zM907 1116l-221 215l-303 -217l-35 39l314 258h71l215 -260z" />
    <glyph glyph-name="atilde" unicode="&#xe3;" horiz-adv-x="1046" 
d="M438 59q87 0 160 39.5t123 107t82 152.5t45 181q62 385 -254 385q-184 0 -303 -163.5t-119 -430.5q0 -271 266 -271zM1010 981l-172 -981h-66q-11 63 14 180h-10q-133 -196 -362 -196q-171 0 -249.5 91t-78.5 249q0 183 57.5 334t175 245t275.5 94q232 0 301 -168h8
q16 108 43 152h64zM793 1178q-48 0 -127.5 40.5t-112.5 41.5q-35 0 -65.5 -18.5t-73.5 -65.5l-47 30q38 61 90 93t104 32q47 0 126.5 -40t113.5 -40q40 0 73 17.5t72 64.5l45 -28q-72 -127 -198 -127z" />
    <glyph glyph-name="adieresis" unicode="&#xe4;" horiz-adv-x="1046" 
d="M438 59q87 0 160 39.5t123 107t82 152.5t45 181q62 385 -254 385q-184 0 -303 -163.5t-119 -430.5q0 -271 266 -271zM1010 981l-172 -981h-66q-11 63 14 180h-10q-133 -196 -362 -196q-171 0 -249.5 91t-78.5 249q0 183 57.5 334t175 245t275.5 94q232 0 301 -168h8
q16 108 43 152h64zM528 1288q23 0 37.5 -14.5t14.5 -36.5q0 -30 -22 -52t-50 -22q-23 0 -36 14.5t-13 36.5q0 29 20.5 51.5t48.5 22.5zM844 1288q23 0 38 -15t15 -38q0 -29 -23 -50.5t-51 -21.5q-23 0 -36 14.5t-13 36.5q0 29 21 51.5t49 22.5z" />
    <glyph glyph-name="aring" unicode="&#xe5;" horiz-adv-x="1046" 
d="M438 59q87 0 160 39.5t123 107t82 152.5t45 181q62 385 -254 385q-184 0 -303 -163.5t-119 -430.5q0 -271 266 -271zM1010 981l-172 -981h-66q-11 63 14 180h-10q-133 -196 -362 -196q-171 0 -249.5 91t-78.5 249q0 183 57.5 334t175 245t275.5 94q232 0 301 -168h8
q16 108 43 152h64zM674 1108q-68 0 -111 45.5t-43 112.5q0 93 63.5 155t155.5 62q69 0 111.5 -45.5t42.5 -114.5q0 -92 -62.5 -153.5t-156.5 -61.5zM729 1425q-63 0 -104 -45.5t-41 -107.5q0 -46 26.5 -76.5t71.5 -30.5q71 0 111.5 46t40.5 108q0 46 -28 76t-77 30z" />
    <glyph glyph-name="ae" unicode="&#xe6;" horiz-adv-x="1673" 
d="M1110 -16q-260 0 -326 202q-62 -64 -124 -106.5t-123 -62.5t-112 -27.5t-112 -7.5q-125 0 -198.5 56.5t-73.5 172.5q0 54 11.5 100.5t42.5 91.5t80 77t129.5 51.5t184.5 19.5q124 0 291 -29q29 147 29 193q0 89 -66 148t-194 59q-133 0 -206 -50.5t-87 -142.5h-74
q0 17 4 45q10 61 46 105t90.5 68.5t116 36t132.5 11.5q133 0 218.5 -59.5t97.5 -159.5q142 221 409 221q87 0 150 -21t96.5 -56.5t48.5 -75t15 -84.5t-14 -86.5t-56 -86.5t-108.5 -77.5t-181 -53.5t-263.5 -22q-49 -2 -125 4q-6 -31 -6 -96q0 -63 12.5 -111.5t41 -88.5
t81.5 -61.5t129 -21.5q86 0 152 22t104 59.5t58.5 76.5t27.5 82h74q0 -2 -2 -21.5t-2 -21.5q-27 -128 -144 -200t-274 -72zM504 481q-375 0 -375 -258q0 -78 50.5 -125t152.5 -47q257 0 434 215q-8 57 4 187q-162 28 -266 28zM868 506q31 -4 119 -4q122 0 217 15t153.5 39
t96 57.5t52 67.5t14.5 71q0 76 -60 123t-178 47q-92 0 -168 -38t-125 -100.5t-79 -132.5t-42 -145z" />
    <glyph glyph-name="ccedilla" unicode="&#xe7;" horiz-adv-x="946" 
d="M346 -420q-86 0 -160 35l25 51q72 -28 139 -28q56 0 104 30t48 86q0 38 -29.5 59t-77.5 21q-41 0 -71 -12l-35 24l100 142q-303 24 -303 344q0 138 32 257t94 211t161.5 144.5t226.5 52.5q139 0 223 -61t84 -174q0 -28 -6 -62h-74v17q0 45 -10.5 79.5t-35.5 64t-73 45.5
t-118 16q-131 0 -227 -82t-142.5 -213.5t-46.5 -294.5q0 -144 69.5 -209.5t205.5 -65.5q150 0 233 73.5t98 176.5h72q0 -43 -8 -59q-17 -85 -77.5 -145.5t-140.5 -88.5t-173 -30l-72 -95q6 0 17 1t16 1q88 0 127 -38.5t39 -88.5q0 -75 -64 -129t-170 -55z" />
    <glyph glyph-name="egrave" unicode="&#xe8;" horiz-adv-x="1007" 
d="M432 -16q-344 0 -344 356q0 99 19.5 192.5t62 178.5t104 148t151 100.5t196.5 37.5q87 0 150 -21t96 -56.5t48 -75t15 -84.5q0 -66 -36 -123t-109.5 -103.5t-200 -73t-293.5 -26.5q-72 0 -109 4q-8 -41 -8 -96q0 -63 12.5 -111.5t41.5 -88.5t82.5 -61.5t129.5 -21.5
q87 0 153.5 21.5t104.5 57.5t58.5 76t25.5 85h74q0 -15 -4 -43q-13 -87 -76 -150t-152 -92.5t-192 -29.5zM193 506q45 -6 112 -6q122 0 218 15t155.5 39.5t97.5 58.5t53 68t15 71q0 76 -60 123t-178 47q-92 0 -168 -38t-124.5 -100.5t-78.5 -132.5t-42 -145zM733 1167
l-39 -37l-264 232l74 72z" />
    <glyph glyph-name="eacute" unicode="&#xe9;" horiz-adv-x="1007" 
d="M432 -16q-344 0 -344 356q0 99 19.5 192.5t62 178.5t104 148t151 100.5t196.5 37.5q87 0 150 -21t96 -56.5t48 -75t15 -84.5q0 -66 -36 -123t-109.5 -103.5t-200 -73t-293.5 -26.5q-72 0 -109 4q-8 -41 -8 -96q0 -63 12.5 -111.5t41.5 -88.5t82.5 -61.5t129.5 -21.5
q87 0 153.5 21.5t104.5 57.5t58.5 76t25.5 85h74q0 -15 -4 -43q-13 -87 -76 -150t-152 -92.5t-192 -29.5zM193 506q45 -6 112 -6q122 0 218 15t155.5 39.5t97.5 58.5t53 68t15 71q0 76 -60 123t-178 47q-92 0 -168 -38t-124.5 -100.5t-78.5 -132.5t-42 -145zM582 1120
l-35 37l262 283l72 -70z" />
    <glyph glyph-name="ecircumflex" unicode="&#xea;" horiz-adv-x="1007" 
d="M432 -16q-344 0 -344 356q0 99 19.5 192.5t62 178.5t104 148t151 100.5t196.5 37.5q87 0 150 -21t96 -56.5t48 -75t15 -84.5q0 -66 -36 -123t-109.5 -103.5t-200 -73t-293.5 -26.5q-72 0 -109 4q-8 -41 -8 -96q0 -63 12.5 -111.5t41.5 -88.5t82.5 -61.5t129.5 -21.5
q87 0 153.5 21.5t104.5 57.5t58.5 76t25.5 85h74q0 -15 -4 -43q-13 -87 -76 -150t-152 -92.5t-192 -29.5zM193 506q45 -6 112 -6q122 0 218 15t155.5 39.5t97.5 58.5t53 68t15 71q0 76 -60 123t-178 47q-92 0 -168 -38t-124.5 -100.5t-78.5 -132.5t-42 -145zM897 1116
l-221 215l-303 -217l-35 39l313 258h72l215 -260z" />
    <glyph glyph-name="edieresis" unicode="&#xeb;" horiz-adv-x="1007" 
d="M432 -16q-344 0 -344 356q0 99 19.5 192.5t62 178.5t104 148t151 100.5t196.5 37.5q87 0 150 -21t96 -56.5t48 -75t15 -84.5q0 -66 -36 -123t-109.5 -103.5t-200 -73t-293.5 -26.5q-72 0 -109 4q-8 -41 -8 -96q0 -63 12.5 -111.5t41.5 -88.5t82.5 -61.5t129.5 -21.5
q87 0 153.5 21.5t104.5 57.5t58.5 76t25.5 85h74q0 -15 -4 -43q-13 -87 -76 -150t-152 -92.5t-192 -29.5zM193 506q45 -6 112 -6q122 0 218 15t155.5 39.5t97.5 58.5t53 68t15 71q0 76 -60 123t-178 47q-92 0 -168 -38t-124.5 -100.5t-78.5 -132.5t-42 -145zM502 1288
q23 0 37 -14.5t14 -36.5q0 -30 -22 -52t-50 -22q-23 0 -36 14.5t-13 36.5q0 29 21 51.5t49 22.5zM817 1288q23 0 38 -15t15 -38q0 -29 -22.5 -50.5t-50.5 -21.5q-23 0 -36 14.5t-13 36.5q0 29 20.5 51.5t48.5 22.5z" />
    <glyph glyph-name="igrave" unicode="&#xec;" horiz-adv-x="442" 
d="M391 1167l-39 -37l-264 232l74 72zM96 0l172 981h84l-172 -981h-84z" />
    <glyph glyph-name="iacute" unicode="&#xed;" horiz-adv-x="442" 
d="M303 1120l-35 37l262 283l72 -70zM96 0l172 981h84l-172 -981h-84z" />
    <glyph glyph-name="icircumflex" unicode="&#xee;" horiz-adv-x="442" 
d="M96 0l172 981h84l-172 -981h-84zM592 1116l-221 215l-303 -217l-35 39l313 258h72l215 -260z" />
    <glyph glyph-name="idieresis" unicode="&#xef;" horiz-adv-x="442" 
d="M197 1288q23 0 37 -14.5t14 -36.5q0 -30 -22 -52t-50 -22q-23 0 -36 14.5t-13 36.5q0 29 21 51.5t49 22.5zM512 1288q23 0 38 -15t15 -38q0 -29 -22.5 -50.5t-50.5 -21.5q-23 0 -36.5 14.5t-13.5 36.5q0 29 21 51.5t49 22.5zM96 0l172 981h84l-172 -981h-84z" />
    <glyph glyph-name="eth" unicode="&#xf0;" horiz-adv-x="1046" 
d="M434 -14q-346 0 -346 348q0 98 20 190t62 173.5t102.5 142t146.5 96t189 35.5q134 0 217.5 -78.5t94.5 -187.5h8q14 101 14 219q0 171 -47 282l-176 -114l-25 43l176 114q-80 141 -278 164l20 66q112 -7 197.5 -59.5t126.5 -125.5l164 105l26 -45l-163 -107
q53 -120 53 -311q0 -58 -4 -122t-18.5 -161t-38 -183.5t-68 -177.5t-103.5 -156.5t-149.5 -107.5t-200.5 -42zM600 897q-89 0 -162.5 -33.5t-122.5 -88.5t-83 -129t-49 -152t-15 -160q0 -139 69 -209t214 -70q86 0 162 37t133.5 104.5t90.5 171t33 228.5q0 137 -65 219
t-205 82z" />
    <glyph glyph-name="ntilde" unicode="&#xf1;" horiz-adv-x="1024" 
d="M643 999q87 0 147.5 -25t91.5 -64.5t44.5 -98t11.5 -115.5t-14 -127l-99 -569h-88l97 553q9 50 12.5 88t3 84.5t-14.5 79.5t-39 62t-71 44t-109 15q-81 0 -152.5 -35t-122 -93.5t-85 -130.5t-47.5 -149l-88 -518h-84l172 981h65q5 -63 -20 -188h8q56 79 130 128
t132.5 63.5t118.5 14.5zM739 1176q-48 0 -127 40t-112 41q-36 0 -67 -18t-73 -65l-47 30q38 61 90.5 93t104.5 32q47 0 126.5 -40t113.5 -40q40 0 73 17.5t72 64.5l45 -28q-72 -127 -199 -127z" />
    <glyph glyph-name="ograve" unicode="&#xf2;" horiz-adv-x="1048" 
d="M610 997q75 0 135 -19.5t100 -53t66.5 -81.5t38 -103t11.5 -119q0 -93 -17 -181t-56.5 -172t-97.5 -146t-147 -100t-199 -38q-356 0 -356 356q0 135 33 253t96.5 208.5t164.5 143t228 52.5zM604 924q-84 0 -155 -30.5t-121.5 -84.5t-86 -127t-52.5 -159t-17 -181
q0 -287 285 -287q184 0 302 146.5t118 416.5q0 141 -68 223.5t-205 82.5zM748 1167l-39 -37l-265 232l74 72z" />
    <glyph glyph-name="oacute" unicode="&#xf3;" horiz-adv-x="1048" 
d="M610 997q75 0 135 -19.5t100 -53t66.5 -81.5t38 -103t11.5 -119q0 -93 -17 -181t-56.5 -172t-97.5 -146t-147 -100t-199 -38q-356 0 -356 356q0 135 33 253t96.5 208.5t164.5 143t228 52.5zM604 924q-84 0 -155 -30.5t-121.5 -84.5t-86 -127t-52.5 -159t-17 -181
q0 -287 285 -287q184 0 302 146.5t118 416.5q0 141 -68 223.5t-205 82.5zM637 1120l-35 37l262 283l72 -70z" />
    <glyph glyph-name="ocircumflex" unicode="&#xf4;" horiz-adv-x="1048" 
d="M610 997q75 0 135 -19.5t100 -53t66.5 -81.5t38 -103t11.5 -119q0 -93 -17 -181t-56.5 -172t-97.5 -146t-147 -100t-199 -38q-356 0 -356 356q0 135 33 253t96.5 208.5t164.5 143t228 52.5zM604 924q-84 0 -155 -30.5t-121.5 -84.5t-86 -127t-52.5 -159t-17 -181
q0 -287 285 -287q184 0 302 146.5t118 416.5q0 141 -68 223.5t-205 82.5zM911 1116l-221 215l-303 -217l-35 39l314 258h71l215 -260z" />
    <glyph glyph-name="otilde" unicode="&#xf5;" horiz-adv-x="1048" 
d="M610 997q75 0 135 -19.5t100 -53t66.5 -81.5t38 -103t11.5 -119q0 -93 -17 -181t-56.5 -172t-97.5 -146t-147 -100t-199 -38q-356 0 -356 356q0 135 33 253t96.5 208.5t164.5 143t228 52.5zM604 924q-84 0 -155 -30.5t-121.5 -84.5t-86 -127t-52.5 -159t-17 -181
q0 -287 285 -287q184 0 302 146.5t118 416.5q0 141 -68 223.5t-205 82.5zM774 1176q-48 0 -127 40t-112 41q-36 0 -67 -18t-73 -65l-47 30q38 61 90.5 93t104.5 32q47 0 126 -40t113 -40q41 0 74 17.5t72 64.5l45 -28q-72 -127 -199 -127z" />
    <glyph glyph-name="odieresis" unicode="&#xf6;" horiz-adv-x="1048" 
d="M610 997q75 0 135 -19.5t100 -53t66.5 -81.5t38 -103t11.5 -119q0 -93 -17 -181t-56.5 -172t-97.5 -146t-147 -100t-199 -38q-356 0 -356 356q0 135 33 253t96.5 208.5t164.5 143t228 52.5zM604 924q-84 0 -155 -30.5t-121.5 -84.5t-86 -127t-52.5 -159t-17 -181
q0 -287 285 -287q184 0 302 146.5t118 416.5q0 141 -68 223.5t-205 82.5zM516 1288q23 0 37 -14.5t14 -36.5q0 -30 -21.5 -52t-49.5 -22q-23 0 -36.5 14.5t-13.5 36.5q0 29 21 51.5t49 22.5zM831 1288q23 0 38.5 -15t15.5 -38q0 -29 -23 -50.5t-51 -21.5q-23 0 -36 14.5
t-13 36.5q0 29 20.5 51.5t48.5 22.5z" />
    <glyph glyph-name="divide" unicode="&#xf7;" 
d="M956 498h-755l14 80h756zM664 922q30 0 49.5 -20.5t19.5 -51.5q0 -39 -30.5 -69.5t-69.5 -30.5q-29 0 -49.5 20t-20.5 49q0 41 31 72t70 31zM557 307q29 0 48.5 -19.5t19.5 -49.5q0 -39 -31 -70t-70 -31q-30 0 -49.5 19.5t-19.5 50.5q0 39 32 69.5t70 30.5z" />
    <glyph glyph-name="oslash" unicode="&#xf8;" horiz-adv-x="1048" 
d="M612 997q188 0 275 -114l119 116l41 -41l-129 -124q45 -89 45 -213q0 -93 -17 -181t-56.5 -172t-97.5 -146t-147 -100t-199 -38q-196 0 -284 108l-111 -108l-39 39l119 116q-43 82 -43 201q0 135 33.5 253t97.5 208.5t165 143t228 52.5zM606 922q-105 0 -188.5 -46.5
t-136 -126.5t-80 -184t-27.5 -223q0 -81 25 -139l624 618q-69 101 -217 101zM877 618q0 86 -27 150l-627 -618q72 -93 236 -93q182 0 300 145.5t118 415.5z" />
    <glyph glyph-name="ugrave" unicode="&#xf9;" horiz-adv-x="1003" 
d="M387 -16q-90 0 -151.5 24.5t-93 63t-44 97.5t-9.5 117.5t17 133.5l99 561h86l-98 -561q-11 -64 -14 -111.5t5.5 -97.5t33 -81.5t74 -52t122.5 -20.5q101 0 184 56t131.5 139t65.5 180l96 549h84l-172 -981h-64q-4 14 -5 30t2.5 45t5.5 43t10 58h-9q-40 -56 -88.5 -96
t-97 -59.5t-89.5 -28t-81 -8.5zM717 1167l-39 -37l-264 232l73 72z" />
    <glyph glyph-name="uacute" unicode="&#xfa;" horiz-adv-x="1003" 
d="M387 -16q-90 0 -151.5 24.5t-93 63t-44 97.5t-9.5 117.5t17 133.5l99 561h86l-98 -561q-11 -64 -14 -111.5t5.5 -97.5t33 -81.5t74 -52t122.5 -20.5q101 0 184 56t131.5 139t65.5 180l96 549h84l-172 -981h-64q-4 14 -5 30t2.5 45t5.5 43t10 58h-9q-40 -56 -88.5 -96
t-97 -59.5t-89.5 -28t-81 -8.5zM571 1120l-34 37l262 283l71 -70z" />
    <glyph glyph-name="ucircumflex" unicode="&#xfb;" horiz-adv-x="1003" 
d="M387 -16q-90 0 -151.5 24.5t-93 63t-44 97.5t-9.5 117.5t17 133.5l99 561h86l-98 -561q-11 -64 -14 -111.5t5.5 -97.5t33 -81.5t74 -52t122.5 -20.5q101 0 184 56t131.5 139t65.5 180l96 549h84l-172 -981h-64q-4 14 -5 30t2.5 45t5.5 43t10 58h-9q-40 -56 -88.5 -96
t-97 -59.5t-89.5 -28t-81 -8.5zM877 1116l-222 215l-303 -217l-35 39l314 258h71l216 -260z" />
    <glyph glyph-name="udieresis" unicode="&#xfc;" horiz-adv-x="1003" 
d="M387 -16q-90 0 -151.5 24.5t-93 63t-44 97.5t-9.5 117.5t17 133.5l99 561h86l-98 -561q-11 -64 -14 -111.5t5.5 -97.5t33 -81.5t74 -52t122.5 -20.5q101 0 184 56t131.5 139t65.5 180l96 549h84l-172 -981h-64q-4 14 -5 30t2.5 45t5.5 43t10 58h-9q-40 -56 -88.5 -96
t-97 -59.5t-89.5 -28t-81 -8.5zM483 1288q23 0 37.5 -14.5t14.5 -36.5q0 -30 -22 -52t-50 -22q-23 0 -36 14.5t-13 36.5q0 29 20.5 51.5t48.5 22.5zM799 1288q23 0 38 -15t15 -38q0 -29 -23 -50.5t-51 -21.5q-23 0 -36 14.5t-13 36.5q0 29 21 51.5t49 22.5z" />
    <glyph glyph-name="yacute" unicode="&#xfd;" horiz-adv-x="847" 
d="M217 -408h-92q40 79 116 226.5t91 177.5l-39 -4l-199 987h88l94 -483q6 -31 27.5 -129.5t34 -166.5t20.5 -137h11l262 523q64 126 88 205t39 188h84q-18 -130 -45.5 -219t-94.5 -219zM453 1108l-35 37l262 282l72 -69z" />
    <glyph glyph-name="thorn" unicode="&#xfe;" horiz-adv-x="1038" 
d="M-35 -408l330 1864h80l-66 -352l-61 -313h8q130 206 375 206q112 0 188.5 -47t111 -123t34.5 -176q0 -137 -32 -256t-93 -211t-159 -145t-222 -53q-115 0 -193.5 58t-105.5 132h-10q-19 -103 -53 -299t-50 -285h-82zM469 57q128 0 223 78.5t142 208.5t47 293
q0 139 -73.5 215t-199.5 76q-117 0 -212 -75.5t-149 -205t-57 -285.5q0 -142 68.5 -223.5t210.5 -81.5z" />
    <glyph glyph-name="ydieresis" unicode="&#xff;" horiz-adv-x="847" 
d="M217 -408h-92q40 79 116 226.5t91 177.5l-39 -4l-199 987h88l94 -483q6 -31 27.5 -129.5t34 -166.5t20.5 -137h11l262 523q64 126 88 205t39 188h84q-18 -130 -45.5 -219t-94.5 -219zM373 1282q23 0 37 -14.5t14 -36.5q0 -30 -22 -52t-50 -22q-23 0 -36 14.5t-13 36.5
q0 29 21 51.5t49 22.5zM688 1282q23 0 38 -15t15 -38q0 -29 -22.5 -50.5t-50.5 -21.5q-23 0 -36.5 14.5t-13.5 36.5q0 29 21 51.5t49 22.5z" />
    <glyph glyph-name="dotlessi" unicode="&#x131;" horiz-adv-x="442" 
d="M96 0l172 981h84l-172 -981h-84z" />
    <glyph glyph-name="OE" unicode="&#x152;" horiz-adv-x="1705" 
d="M825 1395q62 0 146 -15h798l-14 -80h-713l-94 -528h680l-12 -80h-680l-109 -610h791l-12 -82h-877q-86 -14 -162 -14q-121 0 -209.5 35.5t-138.5 99.5t-73 143t-23 176q0 99 12 195.5t38 192t65 179t96 155.5t127.5 123t163.5 80.5t200 29.5zM580 63q90 0 163 23
l211 1208q-72 21 -141 21q-129 0 -233.5 -52.5t-171.5 -137.5t-113 -198.5t-65 -230t-19 -237.5q0 -199 90 -297.5t279 -98.5z" />
    <glyph glyph-name="oe" unicode="&#x153;" horiz-adv-x="1765" 
d="M1206 -16q-85 0 -148 20.5t-100 58.5t-57 81t-29 98q-134 -258 -426 -258q-358 0 -358 356q0 135 33.5 253t97.5 208.5t165 143t228 52.5q152 0 233 -74.5t103 -203.5q65 128 177.5 203t267.5 75q87 0 150 -21t96 -56.5t48 -75t15 -84.5q0 -46 -14.5 -87.5t-57.5 -87
t-111 -78t-186 -54t-272 -21.5q-45 0 -107 6q-6 -31 -6 -98q0 -62 12.5 -110.5t41 -89t81.5 -62t129 -21.5q86 0 152 22.5t104 60t58.5 77t27.5 82.5h74q0 -17 -4 -45q-14 -84 -78 -146.5t-152.5 -93t-187.5 -30.5zM606 922q-105 0 -189 -46.5t-136 -126.5t-79.5 -184
t-27.5 -223q0 -143 70 -214t215 -71q182 0 300 145.5t118 415.5q0 141 -67.5 222.5t-203.5 81.5zM1378 922q-92 0 -168 -38t-124.5 -100.5t-78.5 -132.5t-42 -145q31 -4 82 -4q131 0 232 14.5t163.5 38t102.5 56.5t55.5 67.5t15.5 73.5q0 75 -60.5 122.5t-177.5 47.5z" />
    <glyph glyph-name="circumflex" unicode="&#x2c6;" horiz-adv-x="970" 
d="M870 1116l-221 215l-303 -217l-35 39l314 258h71l215 -260z" />
    <glyph glyph-name="ring" unicode="&#x2da;" horiz-adv-x="968" 
d="M608 1108q-68 0 -110.5 45.5t-42.5 112.5q0 93 63.5 155t155.5 62q69 0 111 -45.5t42 -114.5q0 -92 -62.5 -153.5t-156.5 -61.5zM664 1425q-63 0 -104.5 -45.5t-41.5 -107.5q0 -46 26.5 -76.5t71.5 -30.5q71 0 111.5 46t40.5 108q0 46 -27.5 76t-76.5 30z" />
    <glyph glyph-name="tilde" unicode="&#x2dc;" horiz-adv-x="962" 
d="M733 1176q-48 0 -127 40t-112 41q-36 0 -67 -18t-73 -65l-47 30q38 61 90.5 93t104.5 32q47 0 126 -40t113 -40q41 0 74 17.5t72 64.5l45 -28q-72 -127 -199 -127z" />
    <glyph glyph-name="tonos" unicode="&#x384;" horiz-adv-x="970" 
d="M592 1116l-43 31l225 307l82 -53z" />
    <glyph glyph-name="dieresistonos" unicode="&#x385;" horiz-adv-x="970" 
d="M569 1106l-45 24l193 330l92 -41zM455 1286q23 0 37 -15t14 -38q0 -28 -22.5 -50t-51.5 -22q-21 0 -35 14t-14 35q0 30 22 53t50 23zM819 1286q22 0 36.5 -15t14.5 -38q0 -28 -22.5 -50t-50.5 -22q-23 0 -37.5 14t-14.5 35q0 31 22.5 53.5t51.5 22.5z" />
    <glyph glyph-name="Alphatonos" unicode="&#x386;" 
d="M958 0l-73 375h-652l-200 -375h-94l747 1382h92l271 -1382h-91zM723 1268h-12q-96 -188 -199 -377l-238 -438h600l-86 434q-13 69 -34.5 200.5t-30.5 180.5zM92 1102l-43 31l225 307l82 -54z" />
    <glyph glyph-name="anoteleia" unicode="&#x387;" horiz-adv-x="407" 
d="M266 831q32 0 53 -21t21 -52q0 -41 -31.5 -73t-72.5 -32q-32 0 -52 20.5t-20 51.5q0 42 31.5 74t70.5 32z" />
    <glyph glyph-name="Epsilontonos" unicode="&#x388;" horiz-adv-x="1048" 
d="M47 0l242 1380h821l-14 -80h-736l-92 -528h686l-12 -80h-688l-109 -610h797l-12 -82h-883zM-145 1102l-43 31l225 307l82 -54z" />
    <glyph glyph-name="Etatonos" unicode="&#x389;" horiz-adv-x="1265" 
d="M969 0l118 688h-835l-121 -688h-84l244 1382h84l-109 -616h836l110 616h86l-243 -1382h-86zM-137 1102l-43 31l225 307l82 -54z" />
    <glyph glyph-name="Iotatonos" unicode="&#x38a;" horiz-adv-x="421" 
d="M86 0l242 1380h88l-244 -1380h-86zM-92 1102l-43 31l225 307l82 -54z" />
    <glyph glyph-name="Omicrontonos" unicode="&#x38c;" horiz-adv-x="1323" 
d="M829 1395q119 0 206.5 -38.5t137.5 -108t73.5 -155.5t23.5 -192q0 -94 -11 -185t-36 -182.5t-63 -171.5t-95 -150t-127.5 -119.5t-165.5 -78t-205 -28.5q-121 0 -209.5 35.5t-138.5 99.5t-73 143t-23 176q0 99 12 195.5t38.5 192t66 179t97 155.5t128.5 123.5t164 80.5
t200 29zM813 1315q-129 0 -233.5 -52.5t-171.5 -137.5t-113 -198.5t-65 -230t-19 -237.5q0 -199 90 -297.5t279 -98.5q130 0 239.5 54.5t190.5 158t126.5 264t45.5 361.5q0 414 -369 414zM-41 1102l-43 31l225 307l82 -54z" />
    <glyph glyph-name="Upsilontonos" unicode="&#x38e;" horiz-adv-x="1046" 
d="M535 641h12q7 12 67 96t122.5 171t66.5 93l274 379h107l-613 -831l-96 -549h-88l96 549l-303 831h92l138 -370q67 -179 125 -369zM-154 1102l-43 31l226 307l82 -54z" />
    <glyph glyph-name="Omegatonos" unicode="&#x38f;" horiz-adv-x="1353" 
d="M813 1315q-185 0 -322.5 -108.5t-207.5 -297.5t-70 -432q0 -327 264 -391l-14 -86h-420l12 82h242l2 8q-86 49 -130 152.5t-44 236.5q0 151 27.5 286.5t84.5 251t138.5 199.5t195.5 131.5t250 47.5q122 0 215 -39.5t149 -110.5t83.5 -162.5t27.5 -201.5q0 -118 -23 -235
t-68 -224.5t-120.5 -195t-171.5 -136.5l-2 -8h267l-15 -82h-428l15 88q199 58 327.5 270.5t128.5 526.5q0 202 -100.5 316t-292.5 114zM-33 1102l-43 31l226 307l81 -54z" />
    <glyph glyph-name="iotadieresistonos" unicode="&#x390;" horiz-adv-x="460" 
d="M274 981h82l-147 -827q-11 -61 10.5 -78t91.5 -17l-8 -69q-23 -2 -61 -2q-86 0 -109 42t-8 126zM301 1106l-45 24l193 330l92 -41zM186 1286q23 0 37.5 -15t14.5 -38q0 -28 -22.5 -50t-51.5 -22q-21 0 -35 14t-14 35q0 31 21.5 53.5t49.5 22.5zM551 1286q22 0 36.5 -15
t14.5 -38q0 -28 -23 -50t-51 -22q-23 0 -37 14t-14 35q0 31 22.5 53.5t51.5 22.5z" />
    <glyph glyph-name="Alpha" unicode="&#x391;" 
d="M958 0l-73 375h-652l-200 -375h-94l747 1382h92l271 -1382h-91zM723 1268h-12q-96 -188 -199 -377l-238 -438h600l-86 434q-13 69 -34.5 200.5t-30.5 180.5z" />
    <glyph glyph-name="Beta" unicode="&#x392;" horiz-adv-x="1189" 
d="M864 733l-2 -10q102 -33 157.5 -115t55.5 -190q0 -80 -31 -153.5t-90 -133.5t-156 -95.5t-218 -35.5h-533l242 1380h518q159 0 250.5 -73.5t91.5 -214.5q0 -46 -12 -93.5t-41 -101.5t-89 -98t-143 -66zM778 1300h-418l-92 -530h432q93 0 171.5 31t132 101.5t55.5 170.5
q4 119 -74 173t-207 54zM690 692h-436l-109 -612h439q78 0 147.5 19.5t126.5 58t91 103t36 147.5q4 137 -81.5 210.5t-213.5 73.5z" />
    <glyph glyph-name="Gamma" unicode="&#x393;" horiz-adv-x="1017" 
d="M47 0l242 1380h852l-15 -82h-768l-229 -1298h-82z" />
    <glyph glyph-name="Delta" unicode="&#x394;" horiz-adv-x="1161" 
d="M1055 0h-1114l747 1380h96zM727 1286h-12q-114 -240 -250 -491l-383 -713h864l-133 721q-7 36 -28.5 147.5t-35.5 192t-22 143.5z" />
    <glyph glyph-name="Epsilon" unicode="&#x395;" horiz-adv-x="1048" 
d="M47 0l242 1380h821l-14 -80h-736l-92 -528h686l-12 -80h-688l-109 -610h797l-12 -82h-883z" />
    <glyph glyph-name="Zeta" unicode="&#x396;" horiz-adv-x="1077" 
d="M-29 0l13 78l1056 1222h-807l17 82h915l-14 -75l-1055 -1227h858l-12 -80h-971z" />
    <glyph glyph-name="Eta" unicode="&#x397;" horiz-adv-x="1265" 
d="M969 0l118 688h-835l-121 -688h-84l244 1382h84l-109 -616h836l110 616h86l-243 -1382h-86z" />
    <glyph glyph-name="Theta" unicode="&#x398;" horiz-adv-x="1357" 
d="M377 678l16 78h678l-14 -78h-680zM842 1395q100 0 178.5 -25t130.5 -69t86 -108t48.5 -138t14.5 -162q0 -109 -16 -213.5t-49.5 -208t-90 -190t-132 -153.5t-181.5 -104.5t-233 -37.5q-471 0 -471 481q0 199 48 368t137 294t225.5 195.5t304.5 70.5zM827 1315
q-143 0 -259.5 -66.5t-192.5 -181t-117 -266.5t-41 -326q0 -210 97 -311t292 -101q272 0 440 226t168 598q0 428 -387 428z" />
    <glyph glyph-name="Iota" unicode="&#x399;" horiz-adv-x="421" 
d="M86 0l242 1380h88l-244 -1380h-86z" />
    <glyph glyph-name="Kappa" unicode="&#x39a;" horiz-adv-x="1056" 
d="M373 1380l-107 -610h238l579 610h107l-612 -647l389 -733h-101l-360 688h-254l-121 -688h-84l242 1380h84z" />
    <glyph glyph-name="Lambda" unicode="&#x39b;" horiz-adv-x="1161" 
d="M965 0q-28 132 -74 377t-66 344q-77 377 -100 543h-10q-32 -68 -71.5 -144.5t-68 -128.5t-76 -138t-71.5 -130l-391 -723h-94q170 317 747 1380h94l271 -1380h-90z" />
    <glyph glyph-name="Mu" unicode="&#x39c;" horiz-adv-x="1587" 
d="M436 1380l162 -518l174 -557h12q219 358 361 555l346 520h106l-211 -1380h-86l193 1233h-8q-81 -127 -223 -342l-457 -684h-84l-234 727q-50 150 -88 297h-8q-102 -468 -266 -1231h-86q50 231 148.5 690.5t148.5 689.5h100z" />
    <glyph glyph-name="Nu" unicode="&#x39d;" horiz-adv-x="1277" 
d="M358 1227q-8 0 -12 -2l-215 -1225h-84l242 1380h80l346 -678q44 -82 89 -170.5t106 -213t85 -171.5h11q45 268 215 1233h84l-240 -1380h-82l-461 889q-100 191 -164 338z" />
    <glyph glyph-name="Xi" unicode="&#x39e;" horiz-adv-x="1097" 
d="M-2 82h995l-14 -82h-995zM205 774h786l-14 -80h-787zM1141 1298h-910l15 82h907z" />
    <glyph glyph-name="Omicron" unicode="&#x39f;" horiz-adv-x="1323" 
d="M829 1395q119 0 206.5 -38.5t137.5 -108t73.5 -155.5t23.5 -192q0 -94 -11 -185t-36 -182.5t-63 -171.5t-95 -150t-127.5 -119.5t-165.5 -78t-205 -28.5q-121 0 -209.5 35.5t-138.5 99.5t-73 143t-23 176q0 99 12 195.5t38.5 192t66 179t97 155.5t128.5 123.5t164 80.5
t200 29zM813 1315q-129 0 -233.5 -52.5t-171.5 -137.5t-113 -198.5t-65 -230t-19 -237.5q0 -199 90 -297.5t279 -98.5q130 0 239.5 54.5t190.5 158t126.5 264t45.5 361.5q0 414 -369 414z" />
    <glyph glyph-name="Pi" unicode="&#x3a0;" horiz-adv-x="1265" 
d="M967 0l229 1300h-836l-229 -1300h-84l242 1380h1007l-241 -1380h-88z" />
    <glyph glyph-name="Rho" unicode="&#x3a1;" horiz-adv-x="1095" 
d="M643 541h-416l-94 -541h-86l242 1380h502q180 0 273 -94.5t93 -255.5q0 -64 -14 -127t-51 -130t-93 -117t-148 -82.5t-208 -32.5zM770 1300h-410l-118 -677h403q62 0 118.5 11t111.5 39t96 71t66.5 111.5t27.5 154.5q4 138 -73 214t-222 76z" />
    <glyph glyph-name="Sigma" unicode="&#x3a3;" horiz-adv-x="1101" 
d="M0 82l537 655l-312 566l15 79h954l-16 -79h-854l317 -566l-535 -655h873l-14 -82h-977z" />
    <glyph glyph-name="Tau" unicode="&#x3a4;" horiz-adv-x="1081" 
d="M735 1300l-229 -1300h-88l229 1300h-471l14 80h1020l-14 -80h-461z" />
    <glyph glyph-name="Upsilon" unicode="&#x3a5;" horiz-adv-x="1046" 
d="M535 641h12q7 12 67 96t122.5 171t66.5 93l274 379h107l-613 -831l-96 -549h-88l96 549l-303 831h92l138 -370q67 -179 125 -369z" />
    <glyph glyph-name="Phi" unicode="&#x3a6;" horiz-adv-x="1449" 
d="M930 1382l-10 -59q105 -5 186.5 -33t135 -71t88 -103t49 -125.5t14.5 -142.5q0 -97 -21 -191t-72 -188.5t-127.5 -167.5t-196 -123.5t-267.5 -60.5l-21 -117h-90l20 115q-128 7 -224 45t-153.5 101t-85.5 142.5t-28 176.5q0 154 47 286t134.5 231.5t222 159t300.5 66.5
l11 59h88zM817 1251q-147 -8 -263 -63.5t-190 -146t-112.5 -209t-38.5 -257.5q0 -360 420 -387zM907 1251l-186 -1063q264 15 425 193t161 469q0 382 -400 401z" />
    <glyph glyph-name="Chi" unicode="&#x3a7;" horiz-adv-x="1085" 
d="M877 0l-306 643l-526 -643h-106l593 715l-317 665h92l281 -598l489 598h103l-549 -667l344 -713h-98z" />
    <glyph glyph-name="Psi" unicode="&#x3a8;" horiz-adv-x="1353" 
d="M555 0q21 110 63 371q-262 22 -379.5 160.5t-72.5 398.5l78 450h88l-80 -448q-39 -219 55 -338t328 -141l162 929h90q-155 -874 -164 -929q455 15 539 481l79 446h86l-77 -452q-15 -85 -41 -158t-76 -146.5t-118.5 -126t-172.5 -87t-233 -39.5l-66 -371h-88z" />
    <glyph glyph-name="Omega" unicode="&#x3a9;" horiz-adv-x="1353" 
d="M813 1315q-185 0 -322.5 -108.5t-207.5 -297.5t-70 -432q0 -327 264 -391l-14 -86h-420l12 82h242l2 8q-86 49 -130 152.5t-44 236.5q0 151 27.5 286.5t84.5 251t138.5 199.5t195.5 131.5t250 47.5q122 0 215 -39.5t149 -110.5t83.5 -162.5t27.5 -201.5q0 -118 -23 -235
t-68 -224.5t-120.5 -195t-171.5 -136.5l-2 -8h267l-15 -82h-428l15 88q199 58 327.5 270.5t128.5 526.5q0 202 -100.5 316t-292.5 114z" />
    <glyph glyph-name="Iotadieresis" unicode="&#x3aa;" horiz-adv-x="421" 
d="M86 0l242 1380h88l-244 -1380h-86zM260 1665q23 0 37 -14.5t14 -36.5q0 -30 -22.5 -52t-50.5 -22q-21 0 -34.5 14.5t-13.5 36.5q0 29 21 51.5t49 22.5zM578 1665q22 0 35.5 -15t13.5 -38q0 -29 -22.5 -50.5t-49.5 -21.5q-23 0 -37 14.5t-14 36.5q0 29 22.5 51.5
t51.5 22.5z" />
    <glyph glyph-name="Upsilondieresis" unicode="&#x3ab;" horiz-adv-x="1046" 
d="M535 641h12q7 12 67 96t122.5 171t66.5 93l274 379h107l-613 -831l-96 -549h-88l96 549l-303 831h92l138 -370q67 -179 125 -369zM563 1653q23 0 37 -14.5t14 -36.5q0 -30 -22.5 -52t-50.5 -22q-21 0 -34 14.5t-13 36.5q0 29 20.5 51.5t48.5 22.5zM881 1653
q22 0 35.5 -15.5t13.5 -38.5q0 -29 -22.5 -50t-49.5 -21q-23 0 -37 14.5t-14 36.5q0 29 22.5 51.5t51.5 22.5z" />
    <glyph glyph-name="alphatonos" unicode="&#x3ac;" horiz-adv-x="1046" 
d="M438 59q87 0 160 39.5t123 107t82 152.5t45 181q62 385 -254 385q-184 0 -303 -163.5t-119 -430.5q0 -271 266 -271zM1010 981l-172 -981h-66q-11 63 14 180h-10q-133 -196 -362 -196q-171 0 -249.5 91t-78.5 249q0 183 57.5 334t175 245t275.5 94q232 0 301 -168h8
q16 108 43 152h64zM621 1116l-43 31l225 307l82 -53z" />
    <glyph glyph-name="epsilontonos" unicode="&#x3ad;" horiz-adv-x="890" 
d="M524 1116l-43 31l226 307l81 -53zM395 -16q-94 0 -162.5 20t-106 55.5t-54.5 78t-17 93.5q0 34 9.5 72.5t31 82t65.5 81.5t105 59v9q-59 23 -86.5 67.5t-27.5 95.5q0 127 103.5 213t291.5 86q134 0 219.5 -58t85.5 -163q0 -34 -10 -76h-72q9 59 -6.5 103t-50 70
t-79.5 38.5t-99 12.5q-124 0 -208.5 -59t-84.5 -169q0 -66 49 -97.5t117 -31.5h192l-14 -75h-199q-103 0 -172.5 -74.5t-69.5 -177.5q0 -84 60 -134.5t192 -50.5q82 0 146 22t102.5 60.5t60 82t29.5 93.5h72q-5 -40 -8 -49q-18 -92 -79 -156.5t-144 -94t-181 -29.5z" />
    <glyph glyph-name="etatonos" unicode="&#x3ae;" horiz-adv-x="1024" 
d="M643 999q87 0 147.5 -25t91.5 -64.5t44.5 -98t11.5 -115.5t-14 -127l-148 -866h-88l146 850q9 50 12.5 88t3 84.5t-14.5 79.5t-39 62t-71 44t-109 15q-81 0 -152.5 -35t-122 -93.5t-85 -130.5t-47.5 -149l-88 -518h-84l172 981h65q5 -63 -20 -188h8q56 79 130 128
t132.5 63.5t118.5 14.5zM543 1116l-43 31l225 307l82 -53z" />
    <glyph glyph-name="iotatonos" unicode="&#x3af;" horiz-adv-x="460" 
d="M315 1116l-43 31l226 307l82 -53zM274 981h82l-147 -827q-11 -61 10.5 -78t91.5 -17l-8 -69q-23 -2 -61 -2q-86 0 -109 42t-8 126z" />
    <glyph glyph-name="upsilondieresistonos" unicode="&#x3b0;" horiz-adv-x="1021" 
d="M1001 981l-102 -590q-36 -203 -156.5 -305t-310.5 -102t-280.5 107t-55.5 300l105 590h86l-105 -596q-29 -164 45.5 -246t218.5 -82q65 0 122 18t107 56.5t86 105t52 156.5l105 588h83zM567 1106l-45 24l193 330l92 -41zM453 1286q23 0 37 -15t14 -38q0 -28 -22.5 -50
t-51.5 -22q-21 0 -35 14t-14 35q0 30 22 53t50 23zM817 1286q22 0 36.5 -15t14.5 -38q0 -28 -22.5 -50t-50.5 -22q-23 0 -37.5 14t-14.5 35q0 31 22.5 53.5t51.5 22.5z" />
    <glyph glyph-name="alpha" unicode="&#x3b1;" horiz-adv-x="1046" 
d="M438 59q87 0 160 39.5t123 107t82 152.5t45 181q62 385 -254 385q-184 0 -303 -163.5t-119 -430.5q0 -271 266 -271zM1010 981l-172 -981h-66q-11 63 14 180h-10q-133 -196 -362 -196q-171 0 -249.5 91t-78.5 249q0 183 57.5 334t175 245t275.5 94q232 0 301 -168h8
q16 108 43 152h64z" />
    <glyph glyph-name="beta" unicode="&#x3b2;" horiz-adv-x="1036" 
d="M63 -311h-81q181 1042 235 1345q17 94 51.5 171.5t88.5 136.5t131 91.5t171 32.5q154 0 238 -78t84 -200q0 -42 -10.5 -84.5t-34 -88.5t-70 -85.5t-110.5 -63.5q0 -1 -1 -4t-1 -4q97 -26 145.5 -105.5t48.5 -201.5q0 -109 -30 -208.5t-87.5 -180.5t-151.5 -129.5
t-212 -48.5q-72 0 -129 16.5t-92.5 45.5t-56.5 59.5t-33 66.5h-9zM651 1393q-56 0 -104 -15.5t-81 -38.5t-60.5 -59.5t-44 -69t-30.5 -76.5t-20.5 -72.5t-13.5 -66.5l-98 -565q-15 -71 -2.5 -138.5t42.5 -119.5t88.5 -83.5t135.5 -31.5q178 0 287.5 133.5t109.5 350.5
q0 79 -20.5 135.5t-55.5 85.5t-71 42t-78 15h-146q9 35 15 76h117q114 0 193 84t79 192q0 109 -64 165.5t-178 56.5z" />
    <glyph glyph-name="gamma" unicode="&#x3b3;" horiz-adv-x="849" 
d="M375 154h10q74 152 193 376l245 451h92l-509 -936l-82 -465h-88l81 457l-137 803q-7 46 -21.5 58.5t-58.5 14.5l2 68q44 12 74 12q38 0 56.5 -24.5t29.5 -83.5l55 -328q46 -291 58 -403z" />
    <glyph glyph-name="delta" unicode="&#x3b4;" horiz-adv-x="1048" 
d="M455 57q82 0 152 31t119 83t83.5 120t51 141t16.5 146q0 177 -80 307q-79 12 -152 12q-215 0 -343 -149t-128 -408q0 -283 281 -283zM1042 1350h-573q119 -93 203 -174t152.5 -173.5t102.5 -192.5t34 -208q0 -145 -41 -263t-112 -195t-167 -118.5t-207 -41.5
q-175 0 -260.5 96t-85.5 264q0 81 15 160.5t56 164.5t103 148.5t165.5 104.5t234.5 41q49 0 88 -5q-73 100 -169.5 190.5t-261.5 205.5l15 73h723z" />
    <glyph glyph-name="epsilon" unicode="&#x3b5;" horiz-adv-x="890" 
d="M395 -16q-94 0 -162.5 20t-106 55.5t-54.5 78t-17 93.5q0 34 9.5 72.5t31 82t65.5 81.5t105 59v9q-59 23 -86.5 67.5t-27.5 95.5q0 127 103.5 213t291.5 86q134 0 219.5 -58t85.5 -163q0 -34 -10 -76h-72q9 59 -6.5 103t-50 70t-79.5 38.5t-99 12.5q-124 0 -208.5 -59
t-84.5 -169q0 -66 49 -97.5t117 -31.5h192l-14 -75h-199q-103 0 -172.5 -74.5t-69.5 -177.5q0 -84 60 -134.5t192 -50.5q82 0 146 22t102.5 60.5t60 82t29.5 93.5h72q-5 -40 -8 -49q-18 -92 -79 -156.5t-144 -94t-181 -29.5z" />
    <glyph glyph-name="zeta" unicode="&#x3b6;" horiz-adv-x="794" 
d="M514 68q100 -47 142 -81.5t42 -78.5q0 -32 -51.5 -105t-134.5 -155l-55 41q137 159 137 202q0 25 -39.5 51.5t-138.5 71.5q-87 40 -142.5 72.5t-102.5 74.5t-68 92.5t-21 115.5q0 89 47 191t121.5 197.5t186 204.5t220.5 200t246 196h-602l14 78h715l-12 -76
q-141 -109 -256.5 -205.5t-228.5 -205t-190 -202t-124 -187.5t-47 -171q0 -57 20 -100.5t69 -82t103 -67t150 -71.5z" />
    <glyph glyph-name="eta" unicode="&#x3b7;" horiz-adv-x="1024" 
d="M643 999q87 0 147.5 -25t91.5 -64.5t44.5 -98t11.5 -115.5t-14 -127l-148 -866h-88l146 850q9 50 12.5 88t3 84.5t-14.5 79.5t-39 62t-71 44t-109 15q-81 0 -152.5 -35t-122 -93.5t-85 -130.5t-47.5 -149l-88 -518h-84l172 981h65q5 -63 -20 -188h8q56 79 130 128
t132.5 63.5t118.5 14.5z" />
    <glyph glyph-name="theta" unicode="&#x3b8;" horiz-adv-x="1060" 
d="M694 1466q73 1 130 -21t95 -60.5t62 -95t34.5 -121.5t10.5 -144q0 -82 -9.5 -173.5t-31 -193t-53.5 -197t-81 -182.5t-108 -152t-139 -103.5t-172 -38.5q-176 0 -253 108t-77 303q0 88 9 183t30.5 200.5t53 202.5t79.5 186t107 154.5t140 105t173 39.5zM444 55
q95 0 175.5 56.5t138.5 155.5t98 218t64 258h-699q-37 -174 -37 -360q0 -328 260 -328zM686 1393q-73 0 -136.5 -31.5t-112 -84.5t-88.5 -128.5t-67.5 -157.5t-48.5 -178h699q16 122 16 219q0 361 -262 361z" />
    <glyph glyph-name="iota" unicode="&#x3b9;" horiz-adv-x="460" 
d="M274 981h82l-147 -827q-11 -61 10.5 -78t91.5 -17l-8 -69q-23 -2 -61 -2q-86 0 -109 42t-8 126z" />
    <glyph glyph-name="kappa" unicode="&#x3ba;" horiz-adv-x="880" 
d="M834 981h102l-442 -449l286 -532h-96l-260 489h-219l-86 -489h-82l172 981h84l-74 -416h203z" />
    <glyph glyph-name="lambda" unicode="&#x3bb;" horiz-adv-x="874" 
d="M524 907h-10q-104 -202 -192 -362l-297 -545h-86q152 283 536 983h35l-37 252q-10 90 -38.5 117.5t-92.5 27.5h-55q8 53 14 76h82q50 0 81.5 -12.5t50 -43.5t27 -65.5t17.5 -97.5q17 -125 152 -1104q4 -38 14.5 -50.5t36.5 -12.5q4 0 12.5 1t13.5 1v-60q-41 -16 -79 -16
q-35 0 -51 16.5t-21 55.5z" />
    <glyph glyph-name="nu" unicode="&#x3bd;" horiz-adv-x="864" 
d="M348 94h8l291 492q73 124 103.5 205.5t50.5 189.5h82q-20 -128 -54.5 -217t-113.5 -221l-332 -547h-96q-31 174 -89 503.5t-85 481.5h88l59 -350q7 -41 27 -154t35.5 -207.5t25.5 -175.5z" />
    <glyph glyph-name="xi" unicode="&#x3be;" horiz-adv-x="835" 
d="M676 1462q127 0 216 -55.5t89 -159.5q0 -27 -12 -80h-68q9 60 -7.5 104t-53 68t-80.5 35.5t-96 11.5q-155 0 -243.5 -89t-88.5 -212q0 -58 26 -101t69.5 -66t91 -33.5t99.5 -10.5h187l-12 -77h-203q-98 0 -180 -38t-133 -97.5t-79 -130t-28 -138.5q0 -101 87 -167.5
t292 -141.5q101 -39 139.5 -69.5t38.5 -69.5q0 -47 -44 -118t-126 -151l-53 39q45 54 75 102t40 71.5t10 33.5q0 22 -32 42.5t-114 51.5q-111 42 -181 78t-122 80t-74 96t-22 121q0 63 19.5 126t58.5 123.5t106.5 110.5t155.5 78l2 11q-182 59 -182 245q0 54 15.5 106.5
t50 102t84 86.5t122.5 59.5t160 22.5z" />
    <glyph glyph-name="omicron" unicode="&#x3bf;" horiz-adv-x="1048" 
d="M610 997q75 0 135 -19.5t100 -53t66.5 -81.5t38 -103t11.5 -119q0 -93 -17 -181t-56.5 -172t-97.5 -146t-147 -100t-199 -38q-356 0 -356 356q0 135 33 253t96.5 208.5t164.5 143t228 52.5zM604 924q-84 0 -155 -30.5t-121.5 -84.5t-86 -127t-52.5 -159t-17 -181
q0 -287 285 -287q184 0 302 146.5t118 416.5q0 141 -68 223.5t-205 82.5z" />
    <glyph glyph-name="pi" unicode="&#x3c0;" horiz-adv-x="1044" 
d="M915 905h-636l-158 -905h-84l172 981h807l-172 -981h-86z" />
    <glyph glyph-name="rho" unicode="&#x3c1;" horiz-adv-x="1044" 
d="M451 59q200 0 310.5 151.5t110.5 403.5q0 157 -67.5 232.5t-206.5 75.5q-87 0 -156 -34t-115 -96t-75.5 -137t-46.5 -168q-12 -63 -15.5 -118t6.5 -114t37 -100.5t82.5 -68.5t135.5 -27zM-39 -408l158 891q20 113 56.5 202.5t94 161.5t144 111t196.5 39q94 0 163 -28.5
t109.5 -80t59.5 -117.5t19 -148q0 -93 -16 -180t-53.5 -172t-94.5 -147.5t-145.5 -101t-198.5 -38.5q-108 0 -188.5 46t-108.5 138h-11l-100 -576h-84z" />
    <glyph glyph-name="sigma1" unicode="&#x3c2;" horiz-adv-x="890" 
d="M584 922q-87 0 -157.5 -31.5t-115 -82.5t-74.5 -119t-42.5 -137.5t-12.5 -141.5q0 -100 62.5 -160t224.5 -135q109 -51 155 -90.5t46 -83.5q0 -43 -45.5 -118.5t-124.5 -146.5l-54 41q123 147 123 201q0 29 -42.5 61t-133.5 74q-170 77 -234.5 152t-64.5 198
q0 91 17.5 174.5t56 161t95.5 134t142.5 90.5t190.5 34q131 0 217 -55t86 -164q0 -44 -12 -76h-68q16 110 -52.5 165t-182.5 55z" />
    <glyph glyph-name="sigma" unicode="&#x3c3;" horiz-adv-x="1060" 
d="M846 913l-6 -8q121 -77 121 -295q0 -78 -14 -157t-51 -165.5t-93 -152t-148.5 -108.5t-208.5 -43q-356 0 -356 350q0 102 20 195.5t62.5 176.5t103.5 143.5t150 96t195 35.5h475l-15 -76h-73q-105 0 -162 8zM608 909q-88 0 -161 -32.5t-122.5 -87.5t-83.5 -129.5
t-49.5 -156.5t-15.5 -171q0 -136 67.5 -205.5t213.5 -69.5q190 0 305 154.5t115 398.5q0 144 -62 221.5t-207 77.5z" />
    <glyph glyph-name="tau" unicode="&#x3c4;" horiz-adv-x="720" 
d="M745 905h-311l-108 -604q-11 -52 -9 -96.5t17.5 -76.5t55.5 -50.5t104 -18.5q70 0 131 7q-11 -67 -11 -70q-52 -8 -145 -8q-110 0 -166 37.5t-65 109t8 176.5l102 594h-258q6 23 14 76h656q-9 -35 -15 -76z" />
    <glyph glyph-name="upsilon" unicode="&#x3c5;" horiz-adv-x="1021" 
d="M1001 981l-102 -590q-36 -203 -156.5 -305t-310.5 -102t-280.5 107t-55.5 300l105 590h86l-105 -596q-29 -164 45.5 -246t218.5 -82q65 0 122 18t107 56.5t86 105t52 156.5l105 588h83z" />
    <glyph glyph-name="phi" unicode="&#x3c6;" horiz-adv-x="1243" 
d="M741 920l-153 -861q230 6 358.5 155t128.5 402q0 301 -334 304zM504 59l166 934h86q109 0 189 -29.5t125 -83t66 -119.5t21 -147q0 -87 -17 -169.5t-59.5 -165t-106.5 -144.5t-166 -102.5t-230 -44.5l-68 -396h-86l68 396q-112 6 -192.5 39t-125 87.5t-64.5 118
t-20 140.5q0 130 38.5 245.5t122 207.5t202.5 135l18 -62q-137 -58 -217 -202t-80 -322q0 -157 82.5 -232t247.5 -84z" />
    <glyph glyph-name="chi" unicode="&#x3c7;" horiz-adv-x="845" 
d="M647 0l-225 442l-377 -442h-106l440 508l-246 473h94l207 -410l350 410h105l-412 -473l264 -508h-94z" />
    <glyph glyph-name="psi" unicode="&#x3c8;" horiz-adv-x="1189" 
d="M389 -408l70 394q-203 9 -296 125.5t-54 334.5l94 535h88l-98 -541q-33 -187 38.5 -278.5t239.5 -102.5l164 922h86l-164 -922q81 3 146.5 22t123.5 58.5t97.5 109.5t56.5 167l100 565h86l-100 -569q-74 -422 -522 -428l-72 -392h-84z" />
    <glyph glyph-name="omega" unicode="&#x3c9;" horiz-adv-x="1546" 
d="M1462 645q0 -69 -8.5 -138t-28 -146.5t-55.5 -142.5t-86.5 -119t-126.5 -84.5t-170 -30.5q-107 0 -174.5 52.5t-89.5 131.5h-10q-52 -78 -136 -131t-198 -53q-84 0 -143.5 24t-92 69.5t-47 101t-14.5 126.5q0 118 20.5 222.5t62 191.5t102 150t144 97t183.5 33l-10 -75
q-106 -1 -188 -50.5t-130.5 -135t-73 -193t-24.5 -232.5q0 -126 51 -191t178 -65q82 0 150.5 43t108.5 107t53 137l55 313h84l-57 -329q-12 -70 3.5 -129.5t68 -100.5t136.5 -41q101 0 176.5 50.5t118 136t62.5 185t20 210.5q0 274 -260 287l10 75q174 -6 255 -101.5
t81 -254.5z" />
    <glyph glyph-name="iotadieresis" unicode="&#x3ca;" horiz-adv-x="460" 
d="M274 981h82l-147 -827q-11 -61 10.5 -78t91.5 -17l-8 -69q-23 -2 -61 -2q-86 0 -109 42t-8 126zM199 1288q23 0 37 -14.5t14 -36.5q0 -30 -22 -52t-50 -22q-23 0 -36 14.5t-13 36.5q0 29 21 51.5t49 22.5zM514 1288q23 0 38 -15t15 -38q0 -29 -22.5 -50.5t-50.5 -21.5
q-23 0 -36.5 14.5t-13.5 36.5q0 29 21 51.5t49 22.5z" />
    <glyph glyph-name="upsilondieresis" unicode="&#x3cb;" horiz-adv-x="1021" 
d="M1001 981l-102 -590q-36 -203 -156.5 -305t-310.5 -102t-280.5 107t-55.5 300l105 590h86l-105 -596q-29 -164 45.5 -246t218.5 -82q65 0 122 18t107 56.5t86 105t52 156.5l105 588h83zM496 1288q23 0 37 -14.5t14 -36.5q0 -30 -22 -52t-50 -22q-23 0 -36 14.5t-13 36.5
q0 29 21 51.5t49 22.5zM811 1288q23 0 38 -15t15 -38q0 -29 -22.5 -50.5t-50.5 -21.5q-23 0 -36.5 14.5t-13.5 36.5q0 29 21 51.5t49 22.5z" />
    <glyph glyph-name="omicrontonos" unicode="&#x3cc;" horiz-adv-x="1048" 
d="M610 997q75 0 135 -19.5t100 -53t66.5 -81.5t38 -103t11.5 -119q0 -93 -17 -181t-56.5 -172t-97.5 -146t-147 -100t-199 -38q-356 0 -356 356q0 135 33 253t96.5 208.5t164.5 143t228 52.5zM604 924q-84 0 -155 -30.5t-121.5 -84.5t-86 -127t-52.5 -159t-17 -181
q0 -287 285 -287q184 0 302 146.5t118 416.5q0 141 -68 223.5t-205 82.5zM635 1116l-43 31l225 307l82 -53z" />
    <glyph glyph-name="upsilontonos" unicode="&#x3cd;" horiz-adv-x="1021" 
d="M598 1116l-43 31l225 307l82 -53zM1001 981l-102 -590q-36 -203 -156.5 -305t-310.5 -102t-280.5 107t-55.5 300l105 590h86l-105 -596q-29 -164 45.5 -246t218.5 -82q65 0 122 18t107 56.5t86 105t52 156.5l105 588h83z" />
    <glyph glyph-name="omegatonos" unicode="&#x3ce;" horiz-adv-x="1546" 
d="M1462 645q0 -69 -8.5 -138t-28 -146.5t-55.5 -142.5t-86.5 -119t-126.5 -84.5t-170 -30.5q-107 0 -174.5 52.5t-89.5 131.5h-10q-52 -78 -136 -131t-198 -53q-84 0 -143.5 24t-92 69.5t-47 101t-14.5 126.5q0 118 20.5 222.5t62 191.5t102 150t144 97t183.5 33l-10 -75
q-106 -1 -188 -50.5t-130.5 -135t-73 -193t-24.5 -232.5q0 -126 51 -191t178 -65q82 0 150.5 43t108.5 107t53 137l55 313h84l-57 -329q-12 -70 3.5 -129.5t68 -100.5t136.5 -41q101 0 176.5 50.5t118 136t62.5 185t20 210.5q0 274 -260 287l10 75q174 -6 255 -101.5
t81 -254.5zM844 1116l-43 31l225 307l82 -53z" />
    <glyph glyph-name="Sampigreek" unicode="&#x3e0;" horiz-adv-x="1251" 
d="M195 1296l14 43q228 -13 403.5 -80.5t286.5 -179.5t167 -260t56 -327q0 -295 -147 -635l-49 8q108 316 108 563q0 86 -12 162l-676 -354l-27 65l689 342q-26 156 -103 266l-672 -352l-32 64l667 337q-200 281 -673 338z" />
    <glyph glyph-name="sampigreek" unicode="&#x3e1;" horiz-adv-x="1077" 
d="M162 956l12 43q187 -11 330 -68t231.5 -151t133 -216.5t44.5 -272.5q0 -258 -122 -557l-48 8q49 147 70 263t21 241q0 31 -9 114l-526 -292l-27 61l543 287q-35 128 -82 211l-526 -289l-31 61l526 273q-86 123 -215.5 192t-324.5 92z" />
    <glyph glyph-name="endash" unicode="&#x2013;" horiz-adv-x="1003" 
d="M53 481l15 74h903l-13 -74h-905z" />
    <glyph glyph-name="emdash" unicode="&#x2014;" horiz-adv-x="1996" 
d="M47 481l12 74h1913l-12 -74h-1913z" />
    <glyph glyph-name="afii00208" unicode="&#x2015;" horiz-adv-x="1990" 
d="M47 481l12 74h1907l-12 -74h-1907z" />
    <glyph glyph-name="quoteleft" unicode="&#x2018;" horiz-adv-x="419" 
d="M317 1079q-34 0 -55.5 19t-21.5 51q0 30 26 70l174 270l35 -12l-113 -222q25 -6 40.5 -25t15.5 -46q0 -43 -30 -74t-71 -31z" />
    <glyph glyph-name="quoteright" unicode="&#x2019;" horiz-adv-x="419" 
d="M387 1479q34 0 55 -19t21 -51q-6 -45 -23 -70l-176 -270l-33 12l111 224q-25 5 -40 23.5t-15 45.5q0 42 31 73.5t69 31.5z" />
    <glyph glyph-name="quotesinglbase" unicode="&#x201a;" horiz-adv-x="409" 
d="M147 162q35 0 55.5 -19.5t20.5 -52.5q0 -27 -24 -67l-199 -312l-35 13l135 262q-24 6 -39.5 24.5t-15.5 44.5q0 43 31.5 75t70.5 32z" />
    <glyph glyph-name="quotedblleft" unicode="&#x201c;" horiz-adv-x="645" 
d="M317 1079q-34 0 -55.5 19t-21.5 51q0 30 26 70l174 270l35 -12l-113 -222q25 -6 40.5 -25t15.5 -46q0 -42 -31 -73.5t-70 -31.5zM543 1079q-34 0 -56 19t-22 51q0 29 27 70l174 270l34 -12l-112 -222q25 -6 40 -25t15 -46q0 -42 -30.5 -73.5t-69.5 -31.5z" />
    <glyph glyph-name="quotedblright" unicode="&#x201d;" horiz-adv-x="645" 
d="M612 1479q34 0 55 -18.5t21 -49.5q0 -1 -1 -12.5t-2 -17t-6 -18t-13 -24.5l-177 -270l-32 12l110 224q-25 5 -40 23.5t-15 45.5q0 42 31 73.5t69 31.5zM387 1479q34 0 55 -19t21 -51q-6 -45 -23 -70l-176 -270l-33 12l111 224q-25 5 -40 23.5t-15 45.5q0 42 31 73.5
t69 31.5z" />
    <glyph glyph-name="quotedblbase" unicode="&#x201e;" horiz-adv-x="641" 
d="M147 162q35 0 55.5 -19.5t20.5 -52.5q0 -27 -24 -67l-199 -312l-35 13l135 262q-24 6 -39.5 24.5t-15.5 44.5q0 43 32 75t70 32zM377 162q35 0 55.5 -19.5t20.5 -52.5q0 -26 -25 -67l-199 -312l-34 13l135 262q-25 6 -40.5 24.5t-15.5 44.5q0 42 32.5 74.5t70.5 32.5z
" />
    <glyph glyph-name="dagger" unicode="&#x2020;" horiz-adv-x="1089" 
d="M639 932l-205 -1163h-92l205 1163h-334l16 80h330l72 401h90l-70 -401h328l-14 -80h-326z" />
    <glyph glyph-name="daggerdbl" unicode="&#x2021;" horiz-adv-x="1089" 
d="M459 436l88 496h-334l16 80h330l72 401h90l-70 -401h328l-14 -80h-326l-86 -496h324l-13 -80h-325l-105 -587h-92l104 587h-333l14 80h332z" />
    <glyph glyph-name="bullet" unicode="&#x2022;" horiz-adv-x="784" 
d="M432 709q68 0 113 -46t45 -114q0 -94 -70 -164t-158 -70q-70 0 -114.5 46t-44.5 116q0 93 69 162.5t160 69.5z" />
    <glyph glyph-name="trianglebullet" unicode="&#x2023;" horiz-adv-x="790" 
d="M166 854l559 -287l-559 -309v596z" />
    <glyph glyph-name="ellipsis" unicode="&#x2026;" horiz-adv-x="1314" 
d="M147 162q32 0 53 -21t21 -53q0 -41 -31.5 -72.5t-72.5 -31.5q-32 0 -52 20t-20 51q0 42 32 74.5t70 32.5zM604 162q32 0 52 -21t20 -53q0 -41 -32 -72.5t-73 -31.5q-32 0 -51.5 20t-19.5 51q0 42 32.5 74.5t71.5 32.5zM1057 162q32 0 52.5 -21t20.5 -53q0 -41 -32 -72.5
t-72 -31.5q-32 0 -52 20t-20 51q0 42 32.5 74.5t70.5 32.5z" />
    <glyph glyph-name="perthousand" unicode="&#x2030;" horiz-adv-x="2387" 
d="M373 -61h-80l1032 1503h80zM557 1391q146 0 212.5 -86t66.5 -228q0 -63 -12.5 -127.5t-43.5 -131.5t-75.5 -118.5t-115.5 -84.5t-157 -33q-142 0 -210 74.5t-68 205.5q0 234 111 381.5t292 147.5zM547 1321q-147 0 -232.5 -128t-85.5 -327q0 -219 211 -219
q137 0 226.5 117t89.5 311q0 246 -209 246zM1280 797q146 0 212.5 -86t66.5 -228q0 -63 -12.5 -127.5t-43.5 -131.5t-75.5 -118.5t-115.5 -84.5t-157 -33q-142 0 -210 74t-68 206q0 235 110.5 382t292.5 147zM1270 727q-147 0 -232.5 -128t-85.5 -327q0 -219 211 -219
q137 0 226.5 117t89.5 311q0 246 -209 246zM2025 797q146 0 212.5 -86t66.5 -228q0 -63 -12.5 -127.5t-43 -131.5t-75 -118.5t-115.5 -84.5t-157 -33q-142 0 -210.5 74t-68.5 206q0 235 110.5 382t292.5 147zM2015 727q-147 0 -232 -128t-85 -327q0 -219 211 -219
q136 0 225.5 117t89.5 311q0 246 -209 246z" />
    <glyph glyph-name="guilsinglleft" unicode="&#x2039;" horiz-adv-x="624" 
d="M375 49l-256 391q4 13 8 35l379 393q7 -5 19.5 -16t19.5 -16q-57 -65 -165 -192.5t-161 -188.5l207 -369z" />
    <glyph glyph-name="guilsinglright" unicode="&#x203a;" horiz-adv-x="614" 
d="M489 440l-391 -391l-41 37q67 72 191 207.5t149 163.5l-190 379l49 32l240 -393z" />
    <glyph glyph-name="fraction" unicode="&#x2044;" horiz-adv-x="350" 
d="M-256 -61h-80l1032 1503h80z" />
    <glyph glyph-name="fraction" unicode="&#x2215;" horiz-adv-x="350" 
d="M-256 -61h-80l1032 1503h80z" />
    <glyph glyph-name="foursuperior" unicode="&#x2074;" horiz-adv-x="763" 
d="M659 1567h64l-90 -523h141l-14 -67h-139l-35 -203h-80l33 203h-449l10 57zM209 1044h344l70 398z" />
    <glyph glyph-name="Euro" unicode="&#x20ac;" 
d="M797 1343q165 0 269.5 -69.5t104.5 -200.5q0 -55 -10 -82h-69q17 135 -63 205t-241 70q-195 0 -319.5 -123t-169.5 -342h670l-11 -60h-862l10 60h107q51 252 199.5 397t384.5 145zM598 63q103 0 183 26.5t129 71.5t76.5 98t35.5 114h72q0 -31 -4 -45
q-23 -153 -162.5 -247.5t-335.5 -94.5q-223 0 -327.5 115t-104.5 321q0 62 10 147h-102l12 62h862l-10 -62h-676q-12 -83 -12 -149q0 -181 86.5 -269t267.5 -88z" />
    <glyph glyph-name="trademark" unicode="&#x2122;" horiz-adv-x="1421" 
d="M977 932h10q35 66 118 217t126 233h69v-753h-67v604q-1 0 -4 1t-4 1l-217 -406h-54q-128 240 -219 406q-1 0 -3 -1t-3 -1v-604h-70v753h74zM365 1319v-690h-72v690h-221v63h522v-63h-229z" />
    <glyph glyph-name="onethird" horiz-adv-x="1640" 
d="M362 -61h-79l1032 1503h80zM666 657l-13 -67h-538l12 67h229l111 639l-203 -30l10 57l222 57h65l-127 -723h232zM1257 494l3 -7q119 -5 182 -56.5t63 -149.5q0 -129 -103 -209t-263 -80q-115 0 -184.5 42.5t-69.5 125.5q0 21 10 65h63q-4 -28 -4 -39q0 -129 193 -129
q125 0 202.5 61t77.5 165q0 141 -221 141q-38 0 -65 -4l-23 51l324 242q0 6 -2 10h-420q1 12 5 33t5 32h551l-12 -57z" />
    <glyph glyph-name="twothirds" horiz-adv-x="1640" 
d="M389 -61h-80l1032 1503h80zM516 1393q126 0 187 -50.5t61 -130.5q0 -39 -17.5 -76t-42.5 -64.5t-65.5 -56.5t-74 -48t-79.5 -43q-163 -83 -209 -115q-86 -61 -104 -141q-1 -4 -2 -9h514l-12 -69h-596l8 53q4 26 13 49.5t17.5 42t27.5 39.5t30.5 34t41.5 33.5t44 30.5
t55 32.5t58.5 32t68.5 36.5q57 30 93 51.5t74 51t56.5 61.5t18.5 67q0 57 -42 89t-126 32q-110 0 -175.5 -50.5t-70.5 -123.5h-63q0 23 2 33q9 94 100.5 151.5t208.5 57.5zM1272 494l2 -7q119 -5 182.5 -56.5t63.5 -149.5q0 -129 -103.5 -209t-263.5 -80q-115 0 -184.5 42.5
t-69.5 125.5q0 21 10 65h64q-4 -28 -4 -39q0 -129 192 -129q125 0 203 61t78 165q0 141 -221 141q-39 0 -66 -4l-22 51l323 242q0 6 -2 10h-420q1 12 5 33t5 32h551l-12 -57z" />
    <glyph glyph-name="onefifth" horiz-adv-x="1640" 
d="M375 -61h-80l1032 1503h80zM659 657l-12 -67h-538l12 67h229l111 639l-203 -30l10 57l221 57h66l-127 -723h231zM1501 291q0 -132 -100.5 -216.5t-261.5 -84.5q-114 0 -184 43.5t-70 126.5q0 35 12 65h64q-7 -21 -7 -35q0 -63 48.5 -98t144.5 -35q124 0 201 62t77 162
q0 84 -56.5 124.5t-149.5 40.5q-105 0 -193 -32l-49 26l119 351h450l-12 -68h-385l-78 -229q82 16 158 16q123 0 197.5 -53t74.5 -166z" />
    <glyph glyph-name="twofifths" horiz-adv-x="1640" 
d="M408 -61h-80l1032 1503h80zM522 1393q126 0 187 -50.5t61 -130.5q0 -39 -17.5 -76t-42.5 -64.5t-65 -56.5t-73.5 -48t-79.5 -43q-163 -83 -209 -115q-86 -60 -105 -140l-2 -10h514l-12 -69h-596l8 53q4 26 13 49.5t17.5 42t27.5 39.5t30.5 34t41.5 33.5t44 30.5t55 32.5
t58.5 32t68.5 36.5q57 30 93 51.5t74 51t56.5 61.5t18.5 67q0 57 -42 89t-126 32q-110 0 -175.5 -50.5t-70.5 -123.5h-63q0 23 2 33q9 94 100.5 151.5t208.5 57.5zM1528 291q0 -132 -101 -216.5t-262 -84.5q-114 0 -184 43.5t-70 126.5q0 32 13 65h63q-6 -18 -6 -35
q0 -63 48.5 -98t144.5 -35q124 0 201 62t77 162q0 84 -56.5 124.5t-150.5 40.5q-104 0 -192 -32l-49 26l118 351h451l-12 -68h-385l-78 -229q82 16 157 16q123 0 198 -53t75 -166z" />
    <glyph glyph-name="threefifths" horiz-adv-x="1640" 
d="M377 -61h-80l1032 1503h80zM469 1087l2 -8q119 -5 182.5 -57t63.5 -150q0 -129 -103.5 -209.5t-263.5 -80.5q-114 0 -184 43.5t-70 126.5q0 21 10 65h66q-6 -21 -6 -39q0 -129 192 -129q126 0 203.5 60.5t77.5 164.5q0 142 -221 142q-39 0 -64 -4l-24 51l323 242v10h-422
l13 65h549q-9 -42 -11 -57q-32 -25 -134.5 -100.5t-178.5 -135.5zM1520 291q0 -132 -101 -216.5t-262 -84.5q-114 0 -184 43.5t-70 126.5q0 35 12 65h64q-6 -18 -6 -35q0 -63 48 -98t144 -35q124 0 201.5 62t77.5 162q0 84 -56.5 124.5t-150.5 40.5q-105 0 -193 -32l-49 26
l119 351h451l-13 -68h-385l-77 -229q82 16 157 16q123 0 198 -53t75 -166z" />
    <glyph glyph-name="fourfifths" horiz-adv-x="1640" 
d="M397 -61h-80l1033 1503h80zM664 1382h63l-90 -522h141l-14 -67h-139l-35 -203h-80l33 203h-449l10 57zM213 860h344l70 397zM1538 291q0 -132 -100.5 -216.5t-261.5 -84.5q-114 0 -184 43.5t-70 126.5q0 35 12 65h63q-6 -18 -6 -35q0 -63 48.5 -98t144.5 -35
q124 0 201 62t77 162q0 84 -56.5 124.5t-150.5 40.5q-104 0 -192 -32l-49 26l119 351h450l-12 -68h-385l-78 -229q82 16 158 16q123 0 197.5 -53t74.5 -166z" />
    <glyph glyph-name="onesixth" horiz-adv-x="1640" 
d="M387 -61h-80l1032 1503h80zM653 657l-12 -67h-539l13 67h229l111 639l-203 -30l10 57l221 57h66l-127 -723h231zM1268 502q117 0 179 -54.5t62 -156.5q0 -124 -93 -212.5t-238 -88.5q-131 0 -197 61.5t-66 192.5q0 73 13.5 147t45 149t77.5 133t117.5 94t158.5 36
q92 0 153.5 -40t61.5 -116q0 -28 -8 -55h-61q3 79 -38 112t-122 33q-65 0 -121.5 -32.5t-94 -85.5t-62 -113t-34.5 -121l11 -4q47 56 114 88.5t142 32.5zM1182 55q105 0 181.5 63t76.5 171q0 68 -47 107.5t-140 39.5q-104 0 -180 -70t-76 -163q0 -77 50.5 -112.5
t134.5 -35.5z" />
    <glyph glyph-name="fivesixths" horiz-adv-x="1640" 
d="M389 -61h-80l1032 1503h80zM737 885q0 -132 -100.5 -215.5t-263.5 -83.5q-114 0 -184 43t-70 127q0 34 14 63h62q-5 -15 -5 -35q0 -62 47.5 -96.5t143.5 -34.5q126 0 202 60.5t76 160.5q0 84 -55.5 124t-150.5 40q-94 0 -193 -30l-49 24l119 350h450l-10 -67h-387
l-76 -228q83 17 156 17q123 0 198.5 -53.5t75.5 -165.5zM1274 502q117 0 179.5 -55t62.5 -156q0 -124 -93.5 -212.5t-238.5 -88.5q-131 0 -196.5 61.5t-65.5 192.5q0 73 13 147t44.5 149t77.5 133t117.5 94t158.5 36q92 0 153.5 -40t61.5 -116q0 -28 -8 -55h-61
q3 79 -38 112t-122 33q-65 0 -121 -32.5t-94 -85.5t-62 -112.5t-34 -121.5l10 -4q47 56 114 88.5t142 32.5zM1188 55q105 0 181.5 63t76.5 171q0 68 -47 107.5t-139 39.5q-104 0 -180 -70t-76 -163q0 -77 50 -112.5t134 -35.5z" />
    <glyph glyph-name="oneeighth" horiz-adv-x="1640" 
d="M375 -61h-80l1032 1503h80zM643 657l-12 -67h-539l12 67h230l110 639l-202 -30l10 57l221 57h66l-127 -723h231zM1300 799q67 0 115.5 -15.5t74 -41.5t37 -55.5t11.5 -63.5q0 -23 -7 -46.5t-24.5 -50.5t-53.5 -52.5t-87 -43.5v-8q137 -48 137 -182q0 -100 -89 -175
t-255 -75q-128 0 -198 48.5t-70 135.5q0 19 4.5 40.5t19 53t38 59t66.5 54t99 41.5l2 8q-125 48 -125 150q0 36 19 73.5t54.5 70.5t96 54t135.5 21zM1171 55q64 0 120 18t96 61.5t40 105.5q0 61 -49 102.5t-145 50.5q-117 -21 -189.5 -78t-72.5 -133q0 -62 57 -94.5
t143 -32.5zM1290 731q-87 0 -151 -41t-64 -108q0 -46 43 -76.5t125 -54.5q98 20 157.5 68t59.5 102q0 53 -47.5 81.5t-122.5 28.5z" />
    <glyph glyph-name="threeeighths" horiz-adv-x="1640" 
d="M395 -61h-80l1033 1503h79zM487 1087l2 -8q119 -5 182.5 -57t63.5 -150q0 -129 -103 -209.5t-263 -80.5q-114 0 -184 43.5t-70 126.5q0 21 10 65h65q-6 -21 -6 -39q0 -62 48.5 -95.5t144.5 -33.5q126 0 203 60.5t77 164.5q0 142 -221 142q-38 0 -63 -4l-25 51l324 242v10
h-422l12 65h549q-7 -33 -10 -57q-32 -25 -135 -100.5t-179 -135.5zM1313 799q67 0 115 -15.5t73.5 -41.5t37 -55.5t11.5 -63.5q0 -23 -7 -46.5t-24.5 -50.5t-53.5 -52.5t-87 -43.5v-8q42 -15 71 -37.5t42.5 -49t19 -49t5.5 -46.5q0 -99 -89.5 -174.5t-255.5 -75.5
q-128 0 -198 48.5t-70 135.5q0 19 4.5 40.5t19 53t38 59t66.5 54t99 41.5l3 8q-125 48 -125 150q0 36 19 73.5t54.5 70.5t96 54t135.5 21zM1184 55q64 0 120 18t96 61.5t40 105.5q0 61 -49.5 102.5t-145.5 50.5q-117 -21 -189.5 -78t-72.5 -133q0 -62 57.5 -94.5
t143.5 -32.5zM1303 731q-87 0 -151.5 -41t-64.5 -108q0 -46 43 -76.5t125 -54.5q98 20 158 68t60 102q0 53 -47.5 81.5t-122.5 28.5z" />
    <glyph glyph-name="fiveeighths" horiz-adv-x="1640" 
d="M377 -61h-80l1032 1503h80zM735 885q0 -132 -100.5 -215.5t-263.5 -83.5q-114 0 -184 43t-70 127q0 34 14 63h62q-5 -15 -5 -35q0 -62 47.5 -96.5t143.5 -34.5q126 0 202 60.5t76 160.5q0 84 -55.5 124t-150.5 40q-94 0 -193 -30l-49 24l119 350h450l-10 -67h-387
l-76 -228q83 17 156 17q123 0 198.5 -53.5t75.5 -165.5zM1298 799q67 0 115.5 -15.5t74 -41.5t37 -55.5t11.5 -63.5q0 -23 -7 -46.5t-24.5 -50.5t-53.5 -52.5t-87 -43.5v-8q137 -48 137 -182q0 -100 -89 -175t-255 -75q-128 0 -198 48.5t-70 135.5q0 19 4.5 40.5t19 53
t38 59t66.5 54t99 41.5l2 8q-125 48 -125 150q0 36 19 73.5t54.5 70.5t96 54t135.5 21zM1169 55q64 0 120 18t96 61.5t40 105.5q0 61 -49 102.5t-145 50.5q-117 -21 -189.5 -78t-72.5 -133q0 -62 57 -94.5t143 -32.5zM1288 731q-87 0 -151 -41t-64 -108q0 -46 43 -76.5
t125 -54.5q98 20 157.5 68t59.5 102q0 53 -47.5 81.5t-122.5 28.5z" />
    <glyph glyph-name="seveneighths" horiz-adv-x="1640" 
d="M281 -61h-80l1032 1503h80zM289 590h-82l518 725h-500l13 65h587l-8 -51zM1266 799q67 0 115 -15.5t73.5 -41.5t37 -55.5t11.5 -63.5q0 -23 -7 -46.5t-24.5 -50.5t-53.5 -52.5t-87 -43.5v-8q137 -48 137 -182q0 -100 -89 -175t-255 -75q-128 0 -198 48.5t-70 135.5
q0 19 4.5 40.5t19 53t38 59t66.5 54t99 41.5l2 8q-124 47 -124 150q0 36 19 73.5t54.5 70.5t96 54t135.5 21zM1137 55q64 0 120 18t96 61.5t40 105.5q0 61 -49.5 102.5t-145.5 50.5q-117 -21 -189.5 -78t-72.5 -133q0 -62 57.5 -94.5t143.5 -32.5zM1255 731q-87 0 -151 -41
t-64 -108q0 -46 43 -76.5t125 -54.5q98 20 157.5 68t59.5 102q0 53 -47.5 81.5t-122.5 28.5z" />
    <glyph glyph-name="arrowup" unicode="&#x2191;" horiz-adv-x="993" 
d="M535 1270v-1266h-80v1266l-332 -338l-62 61l435 434l434 -434l-60 -61z" />
    <glyph glyph-name="arrowdown" unicode="&#x2193;" horiz-adv-x="993" 
d="M535 1430v-1268l335 340l60 -62l-434 -434l-435 434l62 62l332 -340v1268h80z" />
    <glyph glyph-name="minus" unicode="&#x2212;" 
d="M961 514h-756l12 74h756z" />
    <glyph glyph-name="zero.numerator" horiz-adv-x="747" 
d="M522 1391q146 0 212.5 -86t66.5 -228q0 -63 -12.5 -127.5t-43.5 -131.5t-75.5 -118.5t-115.5 -84.5t-157 -33q-142 0 -210 74.5t-68 205.5q0 234 111 381.5t292 147.5zM512 1321q-147 0 -232 -128t-85 -327q0 -219 211 -219q136 0 225.5 117t89.5 311q0 246 -209 246z
" />
    <glyph glyph-name="one.numerator" horiz-adv-x="729" 
d="M666 657l-13 -67h-538l12 67h229l111 639l-203 -30l10 57l222 57h65l-127 -723h232z" />
    <glyph glyph-name="two.numerator" horiz-adv-x="735" 
d="M522 1393q126 0 187 -50.5t61 -130.5q0 -39 -17.5 -76t-42.5 -64.5t-65 -56.5t-73.5 -48t-79.5 -43q-163 -83 -209 -115q-86 -60 -105 -140l-2 -10h514l-12 -69h-596l8 53q4 26 13 49.5t17.5 42t27.5 39.5t30.5 34t41.5 33.5t44 30.5t55 32.5t58.5 32t68.5 36.5
q57 30 93 51.5t74 51t56.5 61.5t18.5 67q0 57 -42 89t-126 32q-110 0 -175.5 -50.5t-70.5 -123.5h-63q0 23 2 33q9 94 100.5 151.5t208.5 57.5z" />
    <glyph glyph-name="three.numerator" horiz-adv-x="733" 
d="M477 1087l2 -8q119 -5 182.5 -57t63.5 -150q0 -129 -103.5 -209.5t-263.5 -80.5q-114 0 -184 43.5t-70 126.5q0 17 11 65h65q-6 -21 -6 -39q0 -62 48.5 -95.5t144.5 -33.5q126 0 203 60.5t77 164.5q0 142 -221 142q-39 0 -64 -4l-24 51l324 242v10h-422l12 65h549
q-7 -33 -10 -57q-32 -25 -135 -100.5t-179 -135.5z" />
    <glyph glyph-name="four.numerator" horiz-adv-x="745" 
d="M659 1382h64l-90 -522h141l-14 -67h-139l-35 -203h-80l33 203h-449l10 57zM209 860h344l70 397z" />
    <glyph glyph-name="five.numerator" horiz-adv-x="735" 
d="M733 885q0 -132 -100.5 -215.5t-263.5 -83.5q-114 0 -184 43t-70 127q0 34 14 63h61q-4 -12 -4 -35q0 -62 47.5 -96.5t143.5 -34.5q126 0 202 60.5t76 160.5q0 84 -55.5 124t-150.5 40q-94 0 -193 -30l-49 24l119 350h450l-10 -67h-387l-76 -228q83 17 156 17
q123 0 198.5 -53.5t75.5 -165.5z" />
    <glyph glyph-name="six.numerator" horiz-adv-x="739" 
d="M494 1094q117 0 179 -54.5t62 -156.5q0 -125 -93 -214t-239 -89q-131 0 -196.5 62t-65.5 192q0 73 13.5 147.5t45 149.5t77.5 132.5t117.5 93.5t158.5 36q91 0 153 -39.5t62 -114.5q0 -28 -8 -55h-62q3 78 -37.5 110.5t-121.5 32.5q-53 0 -100.5 -21.5t-82 -56.5
t-61.5 -81.5t-43.5 -94t-24.5 -96.5l11 -6q47 56 114.5 89.5t141.5 33.5zM408 645q105 0 180.5 63t75.5 173q0 67 -46.5 107t-138.5 40q-104 0 -181 -71t-77 -164q0 -77 51 -112.5t136 -35.5z" />
    <glyph glyph-name="seven.numerator" horiz-adv-x="724" 
d="M276 590h-81l518 725h-500l12 65h588l-8 -51z" />
    <glyph glyph-name="eight.numerator" horiz-adv-x="733" 
d="M524 1391q67 0 115.5 -15.5t74 -42t37 -56t11.5 -63.5q0 -130 -172 -194v-8q137 -46 137 -181q0 -99 -89 -174t-255 -75q-128 0 -198 48.5t-70 133.5q0 19 4.5 40.5t19 53.5t38 59.5t66.5 54t99 42.5l2 8q-125 45 -125 149q0 36 19 73.5t54.5 71t96 54.5t135.5 21z
M395 647q47 0 90.5 10.5t81.5 31t61 57t23 83.5q0 61 -49 103t-145 51q-117 -19 -189.5 -76t-72.5 -133q0 -64 57 -95.5t143 -31.5zM514 1323q-87 0 -151 -41t-64 -108q0 -86 168 -132q98 18 157.5 66.5t59.5 103.5q0 52 -47.5 81.5t-122.5 29.5z" />
    <glyph glyph-name="nine.numerator" horiz-adv-x="735" 
d="M512 1393q254 0 254 -271q0 -106 -23.5 -200t-71.5 -171.5t-130 -123t-189 -45.5q-97 0 -158 41t-61 112q0 33 8 56h66q-9 -73 31 -108.5t127 -35.5q71 0 127.5 28t94 79t61 111t36.5 134h-8q-43 -54 -111 -86t-139 -32q-119 0 -182.5 54.5t-63.5 154.5q0 131 90 217
t242 86zM510 1327q-104 0 -179 -59.5t-75 -177.5q0 -144 186 -144q98 0 169 65t71 152q0 80 -47 122t-125 42z" />
    <glyph glyph-name="parenleft.numerator" horiz-adv-x="352" 
d="M442 1464l43 -32q-135 -127 -213.5 -273.5t-78.5 -298.5q0 -200 122 -373l-51 -38q-68 81 -108.5 184t-40.5 215q0 175 91.5 335.5t235.5 280.5z" />
    <glyph glyph-name="parenright.numerator" horiz-adv-x="333" 
d="M199 1432l49 32q151 -178 151 -403q0 -170 -92 -329t-237 -281l-33 38q289 283 289 568q0 198 -127 375z" />
    <glyph glyph-name="comma.numerator" horiz-adv-x="258" 
d="M180 756q28 0 44 -15t16 -41q0 -27 -19 -57l-127 -194l-28 10l77 155q-20 3 -33.5 18.5t-13.5 37.5q0 33 27 59.5t57 26.5z" />
    <glyph glyph-name="period.numerator" horiz-adv-x="264" 
d="M182 758q26 0 41 -16.5t15 -41.5q0 -34 -24 -59t-58 -25q-24 0 -40 17.5t-16 42.5q0 32 25.5 57t56.5 25z" />
    <glyph glyph-name="zero.denominator" horiz-adv-x="747" 
d="M416 797q146 0 212 -86t66 -228q0 -63 -12.5 -127.5t-43 -131.5t-75 -118.5t-115.5 -84.5t-157 -33q-142 0 -210.5 74t-68.5 206q0 235 111 382t293 147zM406 727q-147 0 -232.5 -128t-85.5 -327q0 -219 211 -219q136 0 225.5 117t89.5 311q0 119 -48.5 182.5
t-159.5 63.5z" />
    <glyph glyph-name="one.denominator" horiz-adv-x="729" 
d="M561 66l-10 -66h-539l11 66h229l113 641l-205 -33l10 59l221 55h66l-127 -722h231z" />
    <glyph glyph-name="two.denominator" horiz-adv-x="735" 
d="M422 803q125 0 186.5 -50.5t61.5 -131.5q0 -47 -23.5 -90.5t-68 -80t-86.5 -63t-99 -55.5q-165 -83 -214 -118q-86 -61 -103 -144h514l-12 -70h-596l8 51q5 29 13.5 54.5t24.5 48.5t29.5 41t41.5 39t46.5 35t58.5 36.5t64.5 35.5t75.5 40q59 32 93 52.5t73.5 50.5
t57.5 61.5t18 66.5q0 57 -42 90t-126 33q-110 0 -174.5 -51t-69.5 -125h-63q-3 17 0 35q7 62 52.5 110.5t113.5 73.5t145 25z" />
    <glyph glyph-name="three.denominator" horiz-adv-x="733" 
d="M371 494l2 -7q119 -5 182 -56.5t63 -149.5q0 -129 -103 -209t-263 -80q-115 0 -184.5 42.5t-69.5 125.5q0 21 10 65h64q-4 -28 -4 -39q0 -129 192 -129q125 0 203 61t78 165q0 141 -222 141q-38 0 -65 -4l-23 51l324 242q0 6 -2 10h-420q1 11 5 32t5 33h551l-12 -57z" />
    <glyph glyph-name="four.denominator" horiz-adv-x="745" 
d="M555 791h66l-93 -521h142l-13 -69h-141l-35 -201h-80l35 201h-448l10 59zM104 270h345l69 398z" />
    <glyph glyph-name="five.denominator" horiz-adv-x="735" 
d="M625 291q0 -132 -101 -216.5t-262 -84.5q-114 0 -184 43.5t-70 126.5q0 35 12 65h64q-6 -18 -6 -35q0 -63 48 -98t144 -35q124 0 201.5 62t77.5 162q0 84 -56.5 124.5t-150.5 40.5q-104 0 -192 -32l-50 26l119 351h451l-13 -68h-385l-77 -229q82 16 157 16q123 0 198 -53
t75 -166z" />
    <glyph glyph-name="six.denominator" horiz-adv-x="739" 
d="M387 502q117 0 179.5 -55t62.5 -156q0 -124 -93.5 -212.5t-238.5 -88.5q-131 0 -196.5 61.5t-65.5 192.5q0 73 13 147t44.5 149t77.5 133t117.5 94t158.5 36q92 0 154 -40t62 -116q0 -25 -9 -55h-61q3 79 -38 112t-122 33q-65 0 -121 -32.5t-94 -85.5t-62 -112.5
t-34 -121.5l10 -4q47 56 114 88.5t142 32.5zM301 55q105 0 181.5 63t76.5 171q0 68 -47 107.5t-139 39.5q-104 0 -180 -70t-76 -163q0 -77 50 -112.5t134 -35.5z" />
    <glyph glyph-name="seven.denominator" horiz-adv-x="724" 
d="M172 0h-82l518 721h-499l12 67h590l-9 -51z" />
    <glyph glyph-name="eight.denominator" horiz-adv-x="733" 
d="M418 799q67 0 115 -15.5t73.5 -41.5t37 -55.5t11.5 -63.5q0 -23 -7 -46.5t-24.5 -50.5t-53.5 -52.5t-87 -43.5v-8q42 -15 71 -37.5t42.5 -49t19 -49t5.5 -46.5q0 -99 -89.5 -174.5t-255.5 -75.5q-128 0 -198 48.5t-70 135.5q0 18 4.5 40t19.5 53.5t38.5 59t66.5 54
t99 41.5l2 8q-125 48 -125 150q0 36 19 73.5t54.5 70.5t96 54t135.5 21zM289 55q64 0 120 18t96 61.5t40 105.5q0 61 -49.5 102.5t-145.5 50.5q-117 -21 -189.5 -78t-72.5 -133q0 -62 57.5 -94.5t143.5 -32.5zM408 731q-87 0 -151 -41t-64 -108q0 -46 43 -76.5t124 -54.5
q98 20 158 68t60 102q0 53 -47.5 81.5t-122.5 28.5z" />
    <glyph glyph-name="nine.denominator" horiz-adv-x="735" 
d="M412 803q124 0 189 -68t65 -203q0 -106 -23.5 -200t-71.5 -172t-130 -124t-189 -46q-97 0 -158 41t-61 112q0 35 8 58h65q-9 -73 31 -108.5t127 -35.5q71 0 128 28.5t94.5 79t61 110.5t36.5 133l-9 2q-43 -54 -111 -86.5t-138 -32.5q-119 0 -182.5 54t-63.5 153
q0 131 90.5 218t241.5 87zM410 737q-104 0 -179 -59.5t-75 -177.5q0 -144 186 -144q98 0 169 65t71 152q0 80 -47 122t-125 42z" />
    <glyph glyph-name="parenleft.denominator" horiz-adv-x="352" 
d="M340 874l41 -34q-135 -127 -214 -274t-79 -298q0 -193 125 -370l-51 -39q-150 174 -150 397q0 175 91.5 335.5t236.5 282.5z" />
    <glyph glyph-name="parenright.denominator" horiz-adv-x="333" 
d="M96 842l47 32q152 -183 152 -403q0 -171 -92 -329t-238 -281l-35 37q293 289 293 571q0 191 -127 373z" />
    <glyph glyph-name="comma.denominator" horiz-adv-x="258" 
d="M70 131q28 0 44.5 -14.5t16.5 -40.5q0 -21 -20 -60l-127 -192l-29 10l78 154q-21 5 -34 19.5t-13 37.5q0 33 26.5 59.5t57.5 26.5z" />
    <glyph glyph-name="period.denominator" horiz-adv-x="264" 
d="M72 129q25 0 40 -16t15 -41q0 -33 -24.5 -58.5t-55.5 -25.5q-25 0 -42 16t-17 41q0 33 25.5 58.5t58.5 25.5z" />
    </font>
</defs>
</svg>
