<?xml version="1.0" standalone="no"?>
<!DOCTYPE svg PUBLIC "-//W3C//DTD SVG 1.1//EN" "http://www.w3.org/Graphics/SVG/1.1/DTD/svg11.dtd" >
<svg xmlns="http://www.w3.org/2000/svg" xmlns:xlink="http://www.w3.org/1999/xlink" version="1.1">
<metadata>
Created by FontForge 20170731 at Sun Feb 14 20:09:02 2021
 By Aleksey,,,
Copyright (c) 2005-2009 Parachute :, www.parachute.gr.  All rights reserved.
</metadata>
<defs>
<font id="PFEncoreSansPro-Italic" horiz-adv-x="1191" >
  <font-face 
    font-family="PF Encore Sans Pro"
    font-weight="600"
    font-style="italic"
    font-stretch="normal"
    units-per-em="2048"
    panose-1="2 0 5 3 4 0 0 2 0 4"
    ascent="1638"
    descent="-410"
    x-height="989"
    cap-height="1382"
    bbox="-342 -453 2546 1888"
    underline-thickness="112"
    underline-position="-317"
    unicode-range="U+0020-2212"
  />
<missing-glyph horiz-adv-x="901" 
d="M0 0v1434h901v-1434h-901zM451 809l286 522h-573zM512 717l287 -522v1044zM164 102h573l-286 523zM102 1239v-1044l287 522z" />
    <glyph glyph-name="fj" unicode="fj" horiz-adv-x="1034" 
d="M283 0h-177l150 852h-156l19 106l157 31l19 109q65 375 457 375q99 0 229 -23l-25 -145q-144 14 -198 14q-139 0 -201 -48.5t-84 -170.5l-18 -109h520l-178 -1071q-9 -49 -18.5 -85t-30 -75.5t-48 -64t-72.5 -41t-104 -16.5q-45 0 -92 8l25 141q85 0 118 28t43 91
l158 946h-346z" />
    <glyph glyph-name="ffj" unicode="ffj" horiz-adv-x="1576" 
d="M778 -223h-174l187 1075h-359l-151 -852h-179l152 852h-154l19 109l157 26l23 125q32 176 121 253t254 77q78 0 149 -19l-26 -141q-79 10 -144 10q-84 0 -119.5 -35t-54.5 -141l-22 -127h354l18 109q65 375 457 375q100 0 230 -23l-25 -145q-143 14 -199 14
q-133 0 -197.5 -49t-86.5 -170l-21 -111h529l-181 -1069q-11 -63 -25.5 -106t-44 -87t-80.5 -66.5t-124 -22.5q-45 0 -92 8l24 141q85 0 118.5 28t43.5 91l158 946h-346z" />
    <glyph glyph-name="fb" unicode="fb" horiz-adv-x="1695" 
d="M219 -348h-176l209 1200h-152l19 106l157 31l21 123q61 363 455 363q87 0 217 -23h94l-62 -391q-8 -55 -26.5 -128t-40.5 -114h10q62 94 152 141.5t196 47.5q320 0 320 -359q0 -104 -19 -199.5t-60 -180.5t-101 -148t-147.5 -100t-192.5 -37q-83 0 -157 39t-101 118h-9
q-18 -93 -51 -141h-133l229 1315q-49 6 -112 6q-134 0 -198 -44.5t-85 -162.5l-20 -125h245l-24 -137h-248zM1235 850q-76 0 -138 -32t-100 -83t-63.5 -117.5t-36 -131t-10.5 -128.5q0 -100 55 -160.5t158 -60.5q151 0 242.5 138t91.5 348q0 227 -199 227z" />
    <glyph glyph-name="ffb" unicode="ffb" horiz-adv-x="2234" 
d="M778 -223h-176l191 1075h-361l-211 -1200h-178l211 1200h-154l19 109l157 26l23 125q32 176 121 253t254 77q78 0 149 -19l-26 -141q-79 10 -144 10q-84 0 -119.5 -35t-54.5 -141l-22 -127h354l25 123q36 193 153 278t301 85q87 0 217 -23h95l-62 -391q-8 -55 -26.5 -128
t-40.5 -114h10q62 94 152 141.5t196 47.5q319 0 319 -359q0 -104 -19 -199.5t-60 -180.5t-101 -148t-147.5 -100t-192.5 -37q-83 0 -157 39t-101 118h-8q-18 -93 -51 -141h-133l229 1315q-50 6 -113 6q-134 0 -196.5 -44t-85.5 -163l-25 -125h250l-25 -137h-245zM1774 850
q-64 0 -118 -22t-91 -61t-65 -87.5t-44 -105t-23.5 -110t-7.5 -106.5q0 -100 55 -160.5t158 -60.5q151 0 242.5 138t91.5 348q0 227 -198 227z" />
    <glyph glyph-name="fh" unicode="fh" horiz-adv-x="1679" 
d="M219 -348h-176l209 1200h-152l19 106l157 31l21 123q61 363 455 363q101 0 231 -23h86l-70 -399q-25 -139 -61 -219h8q59 83 151.5 128.5t194.5 45.5q68 0 120.5 -14.5t86 -39t55 -61t30.5 -74t10 -85.5t-3.5 -89t-13.5 -90l-98 -555h-181l99 551q13 63 11.5 119.5
t-16 99t-56 67.5t-107.5 25q-67 0 -125 -30.5t-97 -80.5t-64 -107t-36 -116l-92 -528h-176l231 1315q-49 6 -112 6q-134 0 -198 -44.5t-85 -162.5l-20 -125h245l-24 -137h-248z" />
    <glyph glyph-name="ffh" unicode="ffh" horiz-adv-x="2217" 
d="M1239 989l-25 -137h-245l-191 -1075h-176l191 1075h-361l-211 -1200h-178l211 1200h-154l19 109l157 26l23 125q32 176 121 253t254 77q78 0 149 -19l-26 -141q-79 10 -144 10q-84 0 -119.5 -35t-54.5 -141l-22 -127h356l21 123q60 363 456 363q102 0 232 -23h86
l-70 -399q-25 -139 -61 -219h8q59 83 151.5 128.5t194.5 45.5q68 0 120.5 -14.5t86 -39t55 -61t30.5 -74t10 -85.5t-3.5 -89t-13.5 -90l-99 -555h-180l98 551q13 63 11.5 119.5t-16 99t-56 67.5t-107.5 25q-67 0 -125 -30.5t-96.5 -80.5t-63.5 -107t-36 -116l-92 -528h-176
l231 1315q-50 6 -113 6q-135 0 -200 -44.5t-86 -162.5l-23 -125h252z" />
    <glyph glyph-name="fk" unicode="fk" horiz-adv-x="1560" 
d="M215 -348h-176l213 1200h-152l19 106l157 31l21 123q61 363 455 363q101 0 231 -23h84l-145 -836h110l375 373h215l-444 -440l299 -549h-203l-248 471h-131l-82 -471h-174l231 1315q-49 6 -112 6q-134 0 -198 -44.5t-85 -162.5l-20 -125h245l-24 -137h-248z" />
    <glyph glyph-name="ffk" unicode="ffk" horiz-adv-x="2097" 
d="M1239 989l-25 -137h-245l-191 -1075h-176l191 1075h-361l-211 -1200h-178l211 1200h-154l19 109l157 26l23 125q32 176 121 253t254 77q78 0 149 -19l-26 -141q-79 10 -144 10q-84 0 -119.5 -35t-54.5 -141l-22 -127h356l23 123q35 193 151.5 278t300.5 85q102 0 232 -23
h84l-146 -836h111l375 373h215l-445 -440l299 -549h-203l-247 471h-131l-82 -471h-174l231 1315q-50 6 -113 6q-134 0 -197.5 -44t-84.5 -163l-21 -125h248z" />
    <glyph glyph-name="r_y" unicode="ry" horiz-adv-x="1501" 
d="M977 119l227 473q42 86 67 158.5t33 109.5t25 127h166q-2 -14 -9.5 -58.5t-10 -56.5t-9.5 -48t-12 -52t-14.5 -48t-19 -55.5t-23.5 -55.5t-31 -66l-485 -967h-187l217 416l-80 -4l-157 848q-154 -9 -248 -93.5t-119 -224.5l-94 -522h-176l174 991h131q13 -52 11.5 -88.5
t-15.5 -101.5h8q73 122 207.5 175.5t271.5 27.5l66 -422q5 -29 23.5 -141t29 -182t17.5 -140h16z" />
    <glyph glyph-name="ff" unicode="ff" horiz-adv-x="1216" 
d="M801 -223h-176l182 1075h-371l-211 -1200h-176l211 1200h-154l19 109l158 26l22 117q35 181 121 255.5t252 74.5q78 0 149 -19l-26 -143q-94 12 -144 12q-83 0 -120 -38t-54 -138l-22 -119h366l29 150q36 186 120 257.5t253 71.5q79 0 149 -18l-26 -143q-99 12 -144 12
q-86 0 -121.5 -35t-54.5 -141l-28 -154h290l-24 -137h-289z" />
    <glyph glyph-name="fi" unicode="fi" horiz-adv-x="1034" 
d="M215 -348h-176l217 1200h-156l19 106l157 31l19 109q65 375 457 375q99 0 229 -23l-25 -145q-144 14 -198 14q-133 0 -198 -49.5t-87 -169.5l-18 -111h524l-174 -989h-178l149 852h-346z" />
    <glyph glyph-name="fl" unicode="fl" horiz-adv-x="1040" 
d="M217 -348h-176l211 1200h-152l19 106l157 31l23 123q66 363 453 363q101 0 231 -23h84l-256 -1452h-172l231 1315q-49 6 -112 6q-134 0 -198 -44.5t-85 -162.5l-20 -125h245l-24 -137h-248z" />
    <glyph glyph-name="ffi" unicode="ffi" horiz-adv-x="1576" 
d="M776 -223h-176l191 1075h-359l-211 -1200h-178l211 1200h-154l19 109l157 26l23 125q32 176 121 253t254 77q78 0 149 -19l-26 -141q-79 10 -144 10q-84 0 -119.5 -35t-54.5 -141l-22 -127h354l20 109q65 375 455 375q100 0 230 -23l-25 -145q-143 14 -199 14
q-133 0 -197.5 -49t-86.5 -170l-21 -111h529l-175 -989h-178l150 852h-346z" />
    <glyph glyph-name="ffl" unicode="ffl" horiz-adv-x="1576" 
d="M776 -223h-176l193 1075h-361l-211 -1200h-178l211 1200h-154l19 109l157 26l23 125q32 176 121 253t254 77q78 0 149 -19l-26 -141q-79 10 -144 10q-84 0 -119.5 -35t-54.5 -141l-22 -127h356l23 123q35 193 151.5 278t300.5 85q102 0 232 -23h82l-256 -1452h-170
l231 1315q-50 6 -113 6q-134 0 -196.5 -44t-85.5 -163l-25 -125h252l-25 -137h-245z" />
    <glyph glyph-name="ft" unicode="ft" horiz-adv-x="1280" 
d="M244 -223h-176l192 1075h-154l19 109l158 26l28 152q34 180 117.5 255.5t255.5 75.5q85 0 160 -20l-27 -141q-79 10 -153 10q-76 0 -117.5 -37t-59.5 -139l-26 -154h381l86 262h123l-45 -260h282l-24 -139h-283l-94 -533q-18 -106 12.5 -146t124.5 -40q79 0 150 8
l-19 -141q-84 -16 -180 -16q-60 0 -103.5 6t-78 21.5t-54.5 40.5t-30 63.5t-8 90t14 120.5l92 526h-371z" />
    <glyph glyph-name=".notdef" horiz-adv-x="901" 
d="M0 0v1434h901v-1434h-901zM451 809l286 522h-573zM512 717l287 -522v1044zM164 102h573l-286 523zM102 1239v-1044l287 522z" />
    <glyph glyph-name=".null" horiz-adv-x="0" 
 />
    <glyph glyph-name="nonmarkingreturn" horiz-adv-x="682" 
 />
    <glyph glyph-name="space" unicode=" " horiz-adv-x="585" 
 />
    <glyph glyph-name="exclam" unicode="!" horiz-adv-x="616" 
d="M362 354h-145l160 1030h198zM268 229q46 0 74.5 -28.5t28.5 -73.5q0 -62 -45 -107t-103 -45q-45 0 -73.5 29t-28.5 74q0 62 44 106.5t103 44.5z" />
    <glyph glyph-name="quotedbl" unicode="&#x22;" horiz-adv-x="745" 
d="M647 879h-133l64 477h182zM379 879h-133l59 477h180z" />
    <glyph glyph-name="numbersign" unicode="#" 
d="M1198 809h-227l-99 -281h226l-41 -118h-228l-135 -410h-153l143 410h-264l-144 -410h-153l143 410h-225l37 118h227l98 281h-225l41 115h225l134 385h147l-131 -385h270l131 385h148l-131 -385h221zM555 809l-98 -281h262l102 281h-266z" />
    <glyph glyph-name="dollar" unicode="$" 
d="M909 1477l-28 -160q126 -23 203 -95t77 -186q0 -39 -14 -94h-152q3 31 0 59q-5 61 -37 99t-106 57l-70 -399q152 -46 225.5 -122.5t73.5 -205.5q0 -172 -119.5 -287t-310.5 -127l-28 -163h-97l287 1624h96zM369 -147l28 161q-139 26 -221 106t-82 204q0 66 15 104h149
q0 -218 166 -254l82 459q-293 68 -293 301q0 53 16 106t50.5 102.5t82.5 88.5t117 64.5t150 29.5l26 152h88l-286 -1624h-88zM752 592l-74 -418q104 15 164.5 78t60.5 151q0 132 -151 189zM600 1169q-94 -17 -151.5 -79.5t-57.5 -141.5q0 -58 35 -92t109 -55z" />
    <glyph glyph-name="percent" unicode="%" horiz-adv-x="1757" 
d="M477 -57h-151l1034 1503h156zM551 1397q161 0 233 -86.5t72 -229.5q0 -66 -14.5 -134t-48 -136t-82 -120t-124 -85t-167.5 -33q-154 0 -225.5 73.5t-71.5 201.5q0 154 50.5 277.5t149 197.5t228.5 74zM541 1270q-83 0 -145.5 -55t-93 -143t-30.5 -193q0 -181 168 -181
q106 0 184 106.5t78 280.5q0 185 -161 185zM1411 815q161 0 233 -86t72 -229q0 -66 -14.5 -134t-48 -136t-82 -120t-124 -85t-167.5 -33q-297 0 -297 274q0 156 50.5 280t148.5 196.5t229 72.5zM1401 688q-83 0 -145 -55t-92.5 -143t-30.5 -193q0 -180 167 -180
q107 0 185 106.5t78 280.5q0 184 -162 184z" />
    <glyph glyph-name="ampersand" unicode="&#x26;" horiz-adv-x="1492" 
d="M1245 694q0 68 -31.5 116.5t-107.5 82.5l59 117q115 -17 182.5 -97t67.5 -202q0 -131 -68.5 -279t-197.5 -260q55 -50 141 -115l-104 -120q-109 75 -182 137q-204 -111 -467 -111q-91 0 -166.5 17.5t-136.5 53.5t-95.5 98t-34.5 144q0 136 97 270.5t274 239.5
q-84 128 -84 252q0 66 24.5 130.5t68.5 117t113 85t151 32.5q130 0 206 -67t76 -175q0 -66 -23.5 -124.5t-70.5 -110t-101.5 -93.5t-132.5 -90q139 -260 336 -464q101 87 154 201t53 214zM547 662q-114 -70 -188 -162t-74 -181q0 -96 73.5 -149t202.5 -53q185 0 328 65
q-165 176 -342 480zM739 1253q-39 0 -70 -15.5t-49 -38.5t-30 -51.5t-16.5 -52t-4.5 -42.5q0 -85 62 -191q213 138 213 285q0 49 -27 77.5t-78 28.5z" />
    <glyph glyph-name="quotesingle" unicode="'" horiz-adv-x="559" 
d="M420 879h-133l57 477h180z" />
    <glyph glyph-name="parenleft" unicode="(" horiz-adv-x="618" 
d="M655 1477l86 -91q-208 -214 -331 -460t-123 -498q0 -309 176 -592q-20 -17 -59 -44.5t-54 -39.5q-110 142 -173.5 326t-63.5 383q0 528 542 1016z" />
    <glyph glyph-name="parenright" unicode=")" horiz-adv-x="618" 
d="M195 1386l120 91q109 -145 174.5 -325t65.5 -372q0 -185 -76 -381.5t-195 -359.5t-270 -297l-88 100q95 95 172.5 196.5t142.5 220.5t101.5 253.5t36.5 269.5q0 314 -184 604z" />
    <glyph glyph-name="asterisk" unicode="*" horiz-adv-x="911" 
d="M672 971l123 -193l-172 -110l-91 202l-155 -202l-139 108l188 199l-223 69l86 160l203 -92l32 234h187l-56 -236l236 94l37 -160z" />
    <glyph glyph-name="plus" unicode="+" 
d="M684 479l-57 -317h-172l57 317h-319l24 146h320l59 336h172l-59 -336h317l-25 -146h-317z" />
    <glyph glyph-name="comma" unicode="," horiz-adv-x="522" 
d="M219 254q53 0 84 -30.5t31 -80.5q0 -47 -35 -100l-262 -401l-70 28l162 314q-33 11 -52.5 39.5t-19.5 66.5q0 66 49.5 115t112.5 49z" />
    <glyph glyph-name="hyphen" unicode="-" horiz-adv-x="960" 
d="M184 434l29 162h578l-29 -162h-578z" />
    <glyph glyph-name="period" unicode="." horiz-adv-x="514" 
d="M219 254q51 0 82 -31.5t31 -81.5q0 -69 -45.5 -117.5t-116.5 -48.5q-50 0 -81.5 32.5t-31.5 82.5q0 65 50 114.5t112 49.5z" />
    <glyph glyph-name="slash" unicode="/" horiz-adv-x="1071" 
d="M78 -90h-172l1155 1558h176z" />
    <glyph glyph-name="zero" unicode="0" 
d="M727 1346q122 0 211 -38t139.5 -107.5t73.5 -157t23 -197.5q0 -83 -10 -165t-33 -168t-57 -162t-87 -144t-118 -117t-153.5 -77.5t-191.5 -28.5q-238 0 -343 116.5t-105 335.5q0 192 44 357.5t125.5 288.5t205.5 193.5t276 70.5zM723 1190q-86 0 -158.5 -34t-122.5 -92.5
t-88 -131.5t-59.5 -156t-32 -161t-10.5 -152q0 -326 285 -326q95 0 178 46.5t146.5 134t100.5 225t37 307.5q0 340 -276 340z" />
    <glyph glyph-name="one" unicode="1" 
d="M973 158l-27 -158h-864l27 158h337l172 977l-292 -43l22 127l326 108h162l-207 -1169h344z" />
    <glyph glyph-name="two" unicode="2" 
d="M731 1350q211 0 311.5 -86t100.5 -226q0 -66 -25.5 -126.5t-63.5 -107.5t-101.5 -96.5t-119.5 -84t-139 -80.5q-69 -38 -107.5 -60.5t-93 -57t-86 -61.5t-65 -61t-52.5 -69.5t-28 -75.5h750l-27 -158h-942l14 88q10 59 29 112t44 96t64 85t77.5 75.5t96 71.5t108.5 68.5
t124 71.5q41 23 66 37.5t66.5 40.5t68.5 46.5t59 49.5t51 55t32 57.5t13 61.5q0 79 -65 126.5t-178 47.5q-54 0 -104.5 -15t-95.5 -45.5t-77.5 -84t-42.5 -123.5h-162q-2 10 -2 30q0 91 45.5 168t118.5 126t161 76.5t177 27.5z" />
    <glyph glyph-name="three" unicode="3" 
d="M494 -16q-183 0 -288.5 68.5t-105.5 195.5q0 61 21 112h141q0 -56 13 -97t34 -64.5t54.5 -37t67 -18t79.5 -4.5q71 0 137 21t121 61t88 105.5t33 146.5q0 215 -342 215q-49 0 -76 -2l-49 115l461 356l-6 12h-574l29 158h860l-25 -131l-467 -362l7 -9q173 -11 271.5 -92.5
t98.5 -240.5q0 -154 -77.5 -270.5t-209 -177t-296.5 -60.5z" />
    <glyph glyph-name="four" unicode="4" 
d="M905 1329h160l-150 -852h209l-28 -153h-209l-56 -324h-176l56 324h-672l22 127zM297 485l2 -8h440l99 561h-13z" />
    <glyph glyph-name="five" unicode="5" 
d="M891 496q0 122 -73 173.5t-210 51.5q-157 0 -276 -57l-94 71l190 592h741l-28 -158h-586l-102 -317q95 25 182 25q440 0 440 -357q0 -158 -78.5 -281.5t-212 -189t-297.5 -65.5q-183 0 -288 68.5t-105 195.5q0 61 21 112h141q0 -56 13 -97t34 -64.5t54.5 -37t67 -18
t79.5 -4.5q70 0 138.5 24.5t124 69t90 113.5t34.5 150z" />
    <glyph glyph-name="six" unicode="6" 
d="M752 1198q-91 0 -166 -41.5t-126.5 -115t-86 -163.5t-54.5 -198l7 -4q66 90 170.5 137t201.5 47q175 0 272 -82t97 -243q0 -147 -66.5 -271.5t-194 -201t-290.5 -76.5q-201 4 -296 109t-95 319q0 72 8.5 151t30 172t54 178t85 165.5t118.5 139.5t159.5 94.5t203.5 35.5
q158 0 252 -68.5t94 -175.5q0 -44 -12 -82h-157q-2 84 -54 129t-155 45zM555 139q69 0 127 22.5t96 59t64.5 84t38.5 97t12 98.5q0 101 -60 155t-176 54q-140 0 -234.5 -96t-94.5 -253q0 -98 55 -159.5t172 -61.5z" />
    <glyph glyph-name="seven" unicode="7" 
d="M260 1169l29 158h903l-23 -125l-774 -1202h-196l755 1169h-694z" />
    <glyph glyph-name="eight" unicode="8" 
d="M750 1350q105 0 182 -26t118.5 -70.5t60.5 -95t19 -107.5q0 -42 -12.5 -85t-38 -87.5t-72 -86t-108.5 -71.5l-4 -10q172 -81 172 -295q0 -80 -39.5 -157t-109.5 -138t-177.5 -98t-232.5 -37q-200 0 -310 83.5t-110 233.5q0 54 16 110t49.5 113t95 108t142.5 83l2 8
q-141 57 -141 233q0 67 32 135t91 126t157 94.5t218 36.5zM535 139q64 0 123 15.5t110 46.5t82 85t31 124q0 90 -63.5 152.5t-186.5 82.5q-159 -28 -258 -115.5t-99 -205.5q0 -63 41 -106.5t98 -61t122 -17.5zM721 1192q-115 0 -198 -59t-83 -162q0 -131 213 -199
q125 27 208 104.5t83 163.5q0 75 -58.5 113.5t-164.5 38.5z" />
    <glyph glyph-name="nine" unicode="9" 
d="M504 137q170 0 283 130.5t159 381.5l-8 4q-65 -86 -164 -132t-199 -46q-173 0 -270.5 84t-97.5 244q0 111 37 210t104.5 174t168 119t220.5 44q404 0 404 -463q0 -128 -21.5 -250.5t-72 -242t-125 -209t-191 -144.5t-260.5 -55q-164 0 -265.5 70t-101.5 177q0 37 13 78
h155q1 -83 63 -128.5t169 -45.5zM717 1196q-86 0 -153.5 -34.5t-106 -90t-57.5 -117.5t-19 -125q0 -100 57 -154t170 -54q142 0 240 98t98 254q0 99 -56 161t-173 62z" />
    <glyph glyph-name="colon" unicode=":" horiz-adv-x="514" 
d="M219 254q51 0 82 -31.5t31 -81.5q0 -67 -49 -116.5t-113 -49.5q-50 0 -81.5 32.5t-31.5 82.5q0 65 50 114.5t112 49.5zM326 856q51 0 81.5 -31.5t30.5 -81.5q0 -67 -49 -116t-113 -49q-50 0 -81 32t-31 82q0 65 50 114.5t112 49.5z" />
    <glyph glyph-name="semicolon" unicode=";" horiz-adv-x="514" 
d="M326 856q51 0 81.5 -31.5t30.5 -81.5q0 -67 -49 -116t-113 -49q-50 0 -81 32t-31 82q0 65 50 114.5t112 49.5zM219 254q53 0 84 -30.5t31 -80.5q0 -47 -35 -100l-262 -401l-70 28l162 314q-33 11 -52.5 39.5t-19.5 66.5q0 66 49.5 115t112.5 49z" />
    <glyph glyph-name="less" unicode="&#x3c;" 
d="M188 496l21 112l895 404l-31 -176l-663 -289l561 -289l-29 -160q-363 193 -754 398z" />
    <glyph glyph-name="equal" unicode="=" 
d="M1026 623h-809l25 143h809zM977 340h-809l25 141h808z" />
    <glyph glyph-name="greater" unicode="&#x3e;" 
d="M1032 608l-20 -112l-893 -398l28 178l666 291l-563 289l31 156q735 -395 751 -404z" />
    <glyph glyph-name="question" unicode="?" horiz-adv-x="978" 
d="M643 1438q166 0 259 -73t93 -212q0 -108 -66.5 -207t-199.5 -207q-56 -45 -85.5 -71.5t-67.5 -69.5t-60 -91t-33 -108l-12 -67h-176l10 67q19 129 84 225t184 189q230 181 230 311q0 71 -50 112.5t-135 41.5q-97 0 -170.5 -48.5t-89.5 -150.5h-157q-2 12 -2 37
q0 80 37.5 143t101 101.5t141.5 58t164 19.5zM365 229q45 0 73.5 -28.5t28.5 -73.5q0 -62 -45 -107t-103 -45q-45 0 -73.5 29t-28.5 74q0 62 44.5 106.5t103.5 44.5z" />
    <glyph glyph-name="at" unicode="@" horiz-adv-x="1867" 
d="M862 395q89 0 155.5 57t98 143.5t31.5 186.5q0 81 -46 131t-136 50q-103 0 -185 -102.5t-82 -287.5q0 -181 164 -178zM1104 375h-10q-98 -125 -273 -125q-143 0 -212.5 81t-69.5 226t50 269t146.5 202t220.5 78q168 0 228 -125l6 2q9 63 45 109h127l-113 -639
q-6 -35 12.5 -58.5t55.5 -23.5q48 0 97.5 30t92.5 86t70 148t27 203q0 117 -44 212.5t-118 155.5t-167 92.5t-194 32.5q-152 0 -290.5 -60.5t-238.5 -162.5t-159 -243t-59 -296q0 -256 145 -407.5t400 -151.5q115 0 210.5 17t231.5 69l37 -129q-254 -84 -490 -84
q-312 0 -497 177t-189 483q0 192 66.5 361.5t183 291.5t285 193t364.5 71q194 0 344.5 -72t235.5 -205.5t88 -310.5q0 -143 -37 -262.5t-100 -197.5t-146 -121t-176 -43q-28 0 -56 6t-56.5 19.5t-48.5 40t-25 61.5z" />
    <glyph glyph-name="A" unicode="A" horiz-adv-x="1230" 
d="M946 0l-65 350h-559l-183 -350h-200l747 1386h176l268 -1386h-184zM748 1161h-13q-34 -78 -164 -327l-170 -328h453l-55 311q-3 17 -16.5 94t-21.5 134t-13 116z" />
    <glyph glyph-name="B" unicode="B" horiz-adv-x="1216" 
d="M905 737l-4 -12q93 -26 148 -96.5t55 -175.5q0 -108 -40.5 -195t-111.5 -143t-166 -85.5t-206 -29.5h-533l244 1384h538q165 0 252.5 -74.5t87.5 -213.5q0 -122 -73 -222t-191 -137zM801 1219h-363l-69 -406h354q99 0 169 59t85 148q15 90 -30.5 144.5t-145.5 54.5z
M688 655h-348l-86 -487h350q133 0 210.5 63t98.5 179q20 115 -43.5 180t-181.5 65z" />
    <glyph glyph-name="C" unicode="C" horiz-adv-x="1236" 
d="M641 -16q-265 0 -390.5 128t-125.5 363q0 201 46.5 370t134 290.5t218.5 189.5t293 68q192 0 315 -89.5t123 -246.5q0 -55 -10 -96h-168q2 14 2 43q0 104 -71 163.5t-195 59.5q-160 0 -274.5 -97.5t-169 -260t-54.5 -373.5q0 -168 74 -257t242 -89q98 0 168 20.5
t112 60.5t63.5 89t31.5 116h174q0 -33 -2 -49q-10 -104 -59 -184t-125 -126.5t-165 -69.5t-188 -23z" />
    <glyph glyph-name="D" unicode="D" horiz-adv-x="1259" 
d="M254 170h174q50 0 100.5 6.5t111.5 25.5t114 49t104.5 81.5t88 118.5t59 164t22.5 214q0 95 -29.5 167.5t-72.5 113t-102.5 66t-109.5 33.5t-102 8h-174zM47 0l244 1382h323q95 0 179.5 -18t161.5 -60t132 -105t88 -158t33 -214q0 -186 -57.5 -342t-158 -262t-238 -164.5
t-295.5 -58.5h-412z" />
    <glyph glyph-name="E" unicode="E" horiz-adv-x="1107" 
d="M47 0l244 1382h872l-30 -165h-695l-73 -416h643l-29 -170h-643l-82 -459h745l-28 -172h-924z" />
    <glyph glyph-name="F" unicode="F" horiz-adv-x="1101" 
d="M57 0l244 1382h903l-30 -168h-725l-74 -423h639l-31 -170h-639l-108 -621h-179z" />
    <glyph glyph-name="G" unicode="G" horiz-adv-x="1327" 
d="M840 1401q122 0 219 -36t156 -111t59 -177q0 -61 -14 -110h-170q2 16 2 47q0 114 -75.5 164.5t-195.5 50.5q-123 0 -221 -57.5t-160 -158t-94.5 -232t-32.5 -283.5q0 -172 77 -260t245 -88q102 0 180.5 28t127.5 79t77.5 111t40.5 134l14 86h-303l29 157h475l-31 -225
q-74 -536 -622 -536q-248 0 -373 129t-125 379q0 194 48.5 360t138 288t225.5 191.5t303 69.5z" />
    <glyph glyph-name="H" unicode="H" horiz-adv-x="1325" 
d="M936 0l111 639h-711l-111 -639h-178l244 1382h178l-104 -581h710l105 581h178l-244 -1382h-178z" />
    <glyph glyph-name="I" unicode="I" horiz-adv-x="518" 
d="M86 0l244 1382h182l-244 -1382h-182z" />
    <glyph glyph-name="J" unicode="J" horiz-adv-x="1087" 
d="M408 -16q-172 0 -287 73t-115 205q0 51 23 125h161q-2 -14 -2 -43q0 -90 51 -142t173 -55q87 0 149 24t99.5 72t58.5 103t35 135l159 901h177l-168 -944q-9 -48 -17.5 -84t-27 -86.5t-42 -87t-63 -75.5t-88.5 -64t-120 -41t-156 -16z" />
    <glyph glyph-name="K" unicode="K" horiz-adv-x="1124" 
d="M469 1382l-100 -569h157l545 569h221l-622 -647l397 -735h-209l-336 643h-184l-113 -643h-178l244 1382h178z" />
    <glyph glyph-name="L" unicode="L" horiz-adv-x="1030" 
d="M49 0l244 1382h182l-215 -1212h698l-28 -170h-881z" />
    <glyph glyph-name="M" unicode="M" horiz-adv-x="1705" 
d="M827 385h13q123 233 323 551l285 446h227l-202 -1382h-179l172 1116h-8q-88 -158 -213 -354l-360 -565h-158l-158 551q-74 254 -90 348h-8l-242 -1096h-178l305 1382h211l133 -473q88 -318 127 -524z" />
    <glyph glyph-name="N" unicode="N" horiz-adv-x="1339" 
d="M991 293l8 2l191 1087h182l-244 -1382h-170l-358 715q-129 256 -174 372l-8 -4l-189 -1083h-182l244 1382h170l327 -655q105 -209 203 -434z" />
    <glyph glyph-name="O" unicode="O" horiz-adv-x="1374" 
d="M858 1397q98 0 176 -25t131 -69t88 -107.5t50.5 -137t15.5 -159.5q0 -93 -11 -183t-36.5 -182t-63.5 -172t-95.5 -150t-129 -120t-168.5 -79t-209 -29q-248 0 -364.5 125.5t-116.5 351.5q0 203 49.5 374.5t141.5 296.5t231 195t311 70zM825 1225q-108 0 -196.5 -45
t-146 -118t-96.5 -170t-56 -196.5t-17 -201.5q0 -177 75.5 -260.5t246.5 -83.5q212 0 356 198.5t144 519.5q0 171 -75.5 264t-234.5 93z" />
    <glyph glyph-name="P" unicode="P" horiz-adv-x="1167" 
d="M672 510h-359l-88 -510h-178l244 1382h540q194 0 292 -100t98 -268q0 -66 -15.5 -131t-55 -133.5t-99.5 -120.5t-158 -85.5t-221 -33.5zM805 1217h-367l-94 -539h358q55 0 107 14.5t99 44.5t80.5 82.5t43.5 120.5q19 125 -43 201t-184 76z" />
    <glyph glyph-name="Q" unicode="Q" horiz-adv-x="1351" 
d="M858 1397q98 0 176 -25t131 -69t88 -107.5t50.5 -137t15.5 -159.5q0 -109 -15 -213.5t-50.5 -209.5t-88.5 -191t-134 -155.5t-183 -106.5q142 -57 303 -109l-86 -156q-311 108 -471 226q-243 3 -356 128t-113 349q0 203 49.5 374.5t141.5 296.5t231 195t311 70zM825 1225
q-108 0 -196.5 -45t-146 -118t-96.5 -170t-56 -196.5t-17 -201.5q0 -177 75.5 -260.5t246.5 -83.5q212 0 356 198.5t144 519.5q0 171 -75.5 264t-234.5 93z" />
    <glyph glyph-name="R" unicode="R" horiz-adv-x="1183" 
d="M1182 1018q0 -53 -12.5 -107.5t-45.5 -115.5t-82.5 -109.5t-132.5 -85t-188 -45.5l301 -555h-195l-295 551h-208l-97 -551h-178l244 1382h493q189 0 292.5 -94t103.5 -270zM756 1217h-316l-88 -500h316q44 0 87 8t89 29t80.5 53t57 84.5t22.5 118.5q0 98 -65 152.5
t-183 54.5z" />
    <glyph glyph-name="S" unicode="S" horiz-adv-x="1253" 
d="M766 1397q84 0 162 -19t144.5 -55t106.5 -97.5t40 -138.5q0 -42 -19 -104h-172q12 122 -59.5 186t-206.5 64q-166 0 -255 -72.5t-89 -173.5q0 -73 63.5 -114.5t225.5 -73.5q240 -47 350 -133t110 -228q0 -97 -38.5 -179t-111 -143.5t-185.5 -96.5t-254 -35
q-222 0 -358 84t-136 243q0 57 20 125h168q-7 -78 9 -134t44 -86.5t74.5 -48t87.5 -22t97 -4.5q189 0 286 77t97 198q0 89 -78 141.5t-273 87.5q-94 17 -158.5 38t-119.5 56.5t-82 91.5t-27 134q0 60 16 117.5t56 115.5t99.5 101.5t153.5 70.5t212 27z" />
    <glyph glyph-name="T" unicode="T" horiz-adv-x="1140" 
d="M795 1217l-213 -1217h-179l213 1217h-454l31 165h1079l-31 -165h-446z" />
    <glyph glyph-name="U" unicode="U" horiz-adv-x="1325" 
d="M1358 1382l-150 -837q-23 -133 -65.5 -231.5t-112.5 -175t-177.5 -115.5t-250.5 -39q-122 0 -211.5 26t-144 74.5t-84 119.5t-31 160.5t15.5 196.5l144 821h180l-149 -839q-19 -91 -11.5 -158t29 -112t64 -72.5t94.5 -39t120 -11.5q177 0 278 100.5t138 310.5l146 821
h178z" />
    <glyph glyph-name="V" unicode="V" horiz-adv-x="1200" 
d="M532 180h13q28 70 65 150.5t61.5 129.5t70 137.5t59.5 115.5l338 669h190l-708 -1382h-222l-206 1382h182l98 -677q59 -350 59 -525z" />
    <glyph glyph-name="W" unicode="W" horiz-adv-x="1794" 
d="M1257 242l11 -2q195 493 221 555l244 587h198l-604 -1382h-194l-82 678q-3 24 -11.5 87.5t-11.5 90.5t-8 76t-7 90.5t-3 87.5h-11q-53 -141 -186 -432l-311 -678h-195l-121 1382h187l33 -540q26 -454 28 -598h12q54 129 97.5 227.5t100.5 223.5t67 147l250 540h178
l65 -575q4 -42 14 -130.5t16 -145.5t13 -138t10 -151z" />
    <glyph glyph-name="X" unicode="X" horiz-adv-x="1220" 
d="M422 1382l244 -526l417 526h213l-548 -673l346 -709h-209l-258 571l-455 -571h-223l590 719l-318 663h201z" />
    <glyph glyph-name="Y" unicode="Y" horiz-adv-x="1136" 
d="M594 727h18q21 37 54 89.5t59 91t66 97t53 78.5l207 299h213l-609 -854l-90 -528h-180l90 528l-295 854h201l108 -319q84 -244 105 -336z" />
    <glyph glyph-name="Z" unicode="Z" horiz-adv-x="1155" 
d="M-16 0l26 154l965 1058h-731l30 170h961l-29 -153l-952 -1061h784l-28 -168h-1026z" />
    <glyph glyph-name="bracketleft" unicode="[" horiz-adv-x="598" 
d="M16 -236l297 1690h346l-26 -145h-182l-246 -1399h182l-27 -146h-344z" />
    <glyph glyph-name="backslash" unicode="\" horiz-adv-x="1101" 
d="M971 -90h-168l-608 1558h165z" />
    <glyph glyph-name="bracketright" unicode="]" horiz-adv-x="598" 
d="M629 1454l-299 -1690h-346l26 146h183l245 1399h-182l27 145h346z" />
    <glyph glyph-name="asciicircum" unicode="^" 
d="M680 1356h139q39 -128 132 -418t139 -446h-175l-198 653l-418 -653h-190z" />
    <glyph glyph-name="underscore" unicode="_" horiz-adv-x="1032" 
d="M-94 -195l22 144h994l-25 -144h-991z" />
    <glyph glyph-name="grave" unicode="`" horiz-adv-x="1091" 
d="M895 1190l-82 -76l-313 283l127 119z" />
    <glyph glyph-name="a" unicode="a" horiz-adv-x="1114" 
d="M473 139q81 0 148.5 42t110.5 111t66 154t23 175q0 104 -56.5 166.5t-168.5 62.5q-60 0 -117 -30t-104.5 -87.5t-77 -152t-29.5 -211.5q0 -110 50 -170.5t155 -59.5zM1061 991l-174 -991h-135q-25 60 -9 147h-12q-56 -83 -141 -124t-170 -41q-168 0 -249 97t-81 269
q0 129 35 248t98 211t157.5 146.5t205.5 54.5q204 0 284 -144h9q11 86 49 127h133z" />
    <glyph glyph-name="b" unicode="b" horiz-adv-x="1091" 
d="M487 -16q-83 0 -157 39t-101 118h-8q-18 -93 -51 -141h-133l256 1456h176l-74 -420q-8 -43 -29 -115t-36 -104h10q61 92 155 141.5t193 49.5q320 0 320 -359q0 -101 -19 -195.5t-60.5 -180.5t-101.5 -149.5t-147.5 -101.5t-192.5 -38zM631 850q-76 0 -138 -32t-100 -83
t-63.5 -117.5t-36 -131t-10.5 -128.5q0 -100 55 -160.5t158 -60.5q100 0 176.5 66t116.5 175.5t40 244.5q0 227 -198 227z" />
    <glyph glyph-name="c" unicode="c" horiz-adv-x="974" 
d="M606 1006q160 0 248 -66t88 -192q0 -12 -8 -62h-156v21q0 69 -42.5 102t-131.5 33q-108 0 -184 -62t-112 -166.5t-36 -242.5q0 -109 54.5 -168.5t165.5 -59.5q107 0 165 43t82 152h156q0 -27 -2 -41q-13 -147 -121 -230t-278 -83q-199 0 -300.5 94.5t-101.5 279.5
q0 290 138 469t376 179z" />
    <glyph glyph-name="d" unicode="d" horiz-adv-x="1089" 
d="M748 154h-9q-113 -172 -323 -172q-75 0 -134 22.5t-95 58.5t-59 85t-31.5 96.5t-8.5 99.5q0 190 66 342.5t181.5 237t258.5 84.5q88 0 160 -27t110 -74h8l99 549h170l-254 -1456h-135q-21 56 -4 154zM471 139q101 0 182 70t124.5 184.5t43.5 247.5q0 103 -52 156t-167 53
q-144 0 -239 -137t-95 -353q0 -105 51.5 -163t151.5 -58z" />
    <glyph glyph-name="e" unicode="e" horiz-adv-x="1038" 
d="M473 -16q-89 0 -157.5 22t-110 57.5t-67.5 84.5t-36 98t-10 104q0 102 19 195.5t60.5 178t103 147t152 99t200.5 36.5q82 0 145.5 -17.5t100.5 -44t61 -64t32.5 -73t8.5 -74.5q0 -60 -24 -110t-63 -83.5t-95 -59t-112.5 -40.5t-123 -24t-119.5 -12t-108 -3h-58
q-2 -12 -2 -36q0 -109 56.5 -165.5t160.5 -56.5q121 0 177 43t81 123h162q0 -33 -2 -47q-12 -90 -77.5 -154.5t-157 -94t-197.5 -29.5zM289 530q25 -2 71 -2q117 0 204.5 18t136 47.5t71.5 62.5t23 69q0 57 -47.5 87t-126.5 30q-75 0 -134.5 -25t-98.5 -70t-63.5 -98.5
t-35.5 -118.5z" />
    <glyph glyph-name="f" unicode="f" horiz-adv-x="712" 
d="M256 -342h-174l213 1194h-158l21 109l157 26l29 152q34 177 120.5 253t252.5 76q79 0 149 -18l-26 -143q-99 12 -144 12q-86 0 -121.5 -35t-54.5 -141l-28 -154h290l-24 -137h-287z" />
    <glyph glyph-name="g" unicode="g" horiz-adv-x="1101" 
d="M387 -432q-62 0 -126 13.5t-122.5 40t-95.5 73.5t-37 108q0 33 12 70h164v-20q9 -132 207 -132q269 0 322 259q22 128 59 204h-8q-43 -78 -138 -139t-210 -61q-156 0 -241 89.5t-85 250.5q0 99 17.5 194t56.5 184.5t96.5 157t143.5 108t190 40.5q52 0 101 -15t95 -54.5
t68 -98.5h8q14 110 51 151h146l-176 -997q-41 -233 -155.5 -329.5t-342.5 -96.5zM477 141q61 0 112 23.5t85 61t60.5 87t41 97t24 95.5t12.5 79t3 51q0 215 -215 215q-103 0 -181 -72t-115.5 -179t-37.5 -226q0 -117 50.5 -174.5t160.5 -57.5z" />
    <glyph glyph-name="h" unicode="h" horiz-adv-x="1077" 
d="M336 834h8q59 83 151.5 128.5t194.5 45.5q68 0 120.5 -14.5t86 -39t55 -61t30.5 -74t10 -85.5t-3.5 -89t-13.5 -90l-98 -555h-181l99 551q13 63 11.5 119.5t-16 99t-56 67.5t-107.5 25q-67 0 -125 -30.5t-97 -80.5t-64 -107t-36 -116l-92 -528h-176l256 1458h176
l-72 -405q-25 -139 -61 -219z" />
    <glyph glyph-name="i" unicode="i" horiz-adv-x="516" 
d="M84 0l174 991h178l-174 -991h-178zM418 1372q42 0 68 -27t26 -69q0 -55 -41 -95t-94 -40q-41 0 -66.5 26t-25.5 66q0 57 40 98t93 41z" />
    <glyph glyph-name="j" unicode="j" horiz-adv-x="495" 
d="M-133 -416l22 148q84 0 117.5 27.5t44.5 90.5l203 1141h178l-201 -1132q-10 -51 -19.5 -85.5t-29.5 -75t-47 -65t-72 -41t-104 -16.5q-45 0 -92 8zM410 1372q42 0 68 -27t26 -69q0 -55 -41 -95t-94 -40q-41 0 -67 26t-26 66q0 56 40.5 97.5t93.5 41.5z" />
    <glyph glyph-name="k" unicode="k" horiz-adv-x="960" 
d="M807 989h215l-444 -440l299 -549h-203l-248 471h-131l-82 -471h-174l256 1456h174l-147 -840h110z" />
    <glyph glyph-name="l" unicode="l" horiz-adv-x="475" 
d="M90 190l223 1266h172l-221 -1257q-7 -40 10.5 -53t71.5 -15l-14 -133q-63 -16 -125 -16q-66 0 -97 26.5t-30.5 73t10.5 108.5z" />
    <glyph glyph-name="m" unicode="m" horiz-adv-x="1656" 
d="M670 1008q227 0 268 -185q75 94 160 139.5t192 45.5q85 0 144 -26t88 -66t40.5 -99t8.5 -115t-15 -124l-100 -578h-178l100 573q13 85 9.5 149.5t-43.5 102t-117 37.5q-111 0 -195 -98t-106 -221l-95 -543h-174l101 573q13 85 7.5 149.5t-46.5 102t-117 37.5
q-54 0 -100 -21t-78 -55t-57.5 -80t-40 -91t-23.5 -93l-90 -522h-176l174 991h131q27 -55 4 -166h8q112 183 316 183z" />
    <glyph glyph-name="n" unicode="n" horiz-adv-x="1077" 
d="M690 1008q86 0 147.5 -25.5t93.5 -66t46.5 -99t13 -115.5t-13.5 -124l-100 -578h-181l101 573q13 85 6.5 149.5t-50.5 102t-126 37.5q-54 0 -102 -21t-83.5 -55.5t-63.5 -79.5t-45.5 -91t-25.5 -93l-94 -522h-176l174 991h131q28 -57 -2 -184h8q35 58 82 100t94.5 62.5
t88 29.5t77.5 9z" />
    <glyph glyph-name="o" unicode="o" horiz-adv-x="1091" 
d="M618 1006q103 0 180 -31.5t121.5 -87.5t65.5 -125.5t21 -153.5q0 -89 -16.5 -174t-56 -167.5t-98 -144.5t-149.5 -100t-203 -38q-202 0 -296.5 100t-94.5 278q0 105 20.5 200t63 176.5t104 140.5t148 93t190.5 34zM606 850q-84 0 -150 -40.5t-105 -108.5t-59 -150
t-20 -172q0 -118 58 -182t172 -64q139 0 231 128t92 345q0 114 -53 179t-166 65z" />
    <glyph glyph-name="p" unicode="p" horiz-adv-x="1091" 
d="M690 1008q159 0 242.5 -95t83.5 -249q0 -305 -140.5 -492.5t-381.5 -187.5q-79 0 -148.5 26.5t-105.5 77.5h-11l-90 -508h-176l248 1411h131q26 -50 2 -166h8q63 94 157.5 138.5t180.5 44.5zM629 860q-94 0 -176 -71t-129.5 -188.5t-47.5 -250.5q0 -94 52.5 -152.5
t171.5 -58.5q96 0 173 65t119 176.5t42 246.5q0 115 -54 174t-151 59z" />
    <glyph glyph-name="q" unicode="q" horiz-adv-x="1091" 
d="M598 1008q204 0 266 -150h8q10 80 50 133h141l-250 -1411h-174l66 363q22 126 59 219h-8q-62 -81 -149 -129.5t-187 -48.5q-167 0 -249.5 95t-82.5 265q0 92 18.5 184t59.5 179t99 153.5t144.5 107t188.5 40.5zM469 141q84 0 152 42t110 111.5t64 152t22 169.5
q0 109 -53.5 171.5t-159.5 62.5q-152 0 -245 -135t-93 -342q0 -232 203 -232z" />
    <glyph glyph-name="r" unicode="r" horiz-adv-x="641" 
d="M729 1012l-18 -170q-176 -3 -275.5 -80.5t-128.5 -239.5l-94 -522h-176l174 991h131q13 -52 11.5 -88.5t-15.5 -101.5h8q33 60 79.5 103t98.5 65.5t102 32.5t103 10z" />
    <glyph glyph-name="s" unicode="s" horiz-adv-x="935" 
d="M422 131q113 0 170 57t57 125q0 53 -43.5 79t-148.5 46q-65 13 -103.5 22.5t-84.5 27.5t-71 40.5t-42 58.5t-17 83q0 64 22 121t68.5 106.5t130 79t195.5 29.5q56 0 109.5 -11.5t100.5 -34.5t76 -63.5t29 -93.5q0 -44 -12 -72h-162q5 66 -46 94.5t-122 28.5
q-103 0 -157 -47t-54 -113q0 -22 10.5 -39t24.5 -27.5t45.5 -19.5t57 -14.5t75.5 -13.5q143 -25 219.5 -82.5t73.5 -165.5q-2 -71 -28 -132t-77 -109.5t-136 -76.5t-195 -28q-87 0 -162 23.5t-127.5 79t-52.5 134.5q0 45 14 88h156q-3 -44 9.5 -77.5t33 -52.5t50.5 -31
t57 -15.5t57 -3.5z" />
    <glyph glyph-name="t" unicode="t" horiz-adv-x="731" 
d="M510 1251l-45 -260h283l-25 -139h-283l-94 -533q-7 -40 -7.5 -69.5t7 -50t20 -33.5t35 -20.5t49 -10t64.5 -2.5q46 0 121 10l-25 -143q-88 -16 -176 -16q-174 0 -234 77t-26 265l92 526h-155l20 115l170 22l86 262h123z" />
    <glyph glyph-name="u" unicode="u" horiz-adv-x="1056" 
d="M383 -16q-88 0 -148.5 25.5t-91 66t-43 99.5t-9.5 115t15 124l101 577h180l-100 -573q-13 -85 -9.5 -149.5t45 -102t123.5 -37.5q66 0 123 31.5t95 83t62.5 108.5t35.5 117l94 522h176l-174 -991h-131q-28 57 2 184h-8q-35 -58 -81.5 -100t-93 -62.5t-86.5 -29t-77 -8.5z
" />
    <glyph glyph-name="v" unicode="v" horiz-adv-x="968" 
d="M438 193l236 397q76 127 109.5 210t52.5 187h163q-23 -132 -57 -223t-113 -217l-342 -551h-180l-184 993h180l59 -354q54 -326 68 -442h8z" />
    <glyph glyph-name="w" unicode="w" horiz-adv-x="1404" 
d="M958 203h9l190 395q60 124 83.5 196t41.5 193h160q-21 -156 -43 -234.5t-92 -213.5l-287 -543h-191l-49 340q-25 188 -32 274h-15q-36 -81 -143 -286l-168 -328h-195l-118 993h178l43 -418q4 -36 12.5 -108t14 -128.5t8.5 -107.5h16q29 55 80.5 160t75.5 152l165 315h164
l47 -346q8 -58 23.5 -161t21.5 -144z" />
    <glyph glyph-name="x" unicode="x" horiz-adv-x="956" 
d="M662 0l-191 391l-324 -391h-208l450 518l-252 473h197l168 -348l293 348h209l-418 -473l270 -518h-194z" />
    <glyph glyph-name="y" unicode="y" horiz-adv-x="958" 
d="M434 119l228 473q42 86 67 159.5t32.5 108t24.5 127.5h166q-2 -14 -9.5 -58.5t-10 -56.5t-9.5 -48t-12 -52t-14.5 -48t-19 -55.5t-23.5 -55.5t-31 -66l-485 -967h-186l217 416l-80 -4l-187 997h181l65 -407q5 -29 23.5 -141t29 -182t17.5 -140h16z" />
    <glyph glyph-name="z" unicode="z" horiz-adv-x="892" 
d="M-39 0l21 121l690 721h-525l27 147h748l-23 -127l-686 -719h571l-24 -143h-799z" />
    <glyph glyph-name="braceleft" unicode="{" horiz-adv-x="679" 
d="M317 629l-2 -13q111 -62 76 -274l-65 -358q-7 -44 9.5 -62t55.5 -18h86l-24 -142h-115q-97 0 -145 61t-29 163l65 356q18 101 -1.5 151t-96.5 72l21 111q78 20 117 71t57 150l53 311q18 110 76 174t159 64h111l-25 -135h-61q-76 0 -94 -92l-51 -312q-42 -224 -177 -278z
" />
    <glyph glyph-name="bar" unicode="|" horiz-adv-x="614" 
d="M221 -236v1704h170v-1704h-170z" />
    <glyph glyph-name="braceright" unicode="}" horiz-adv-x="679" 
d="M403 596l3 12q-120 55 -78 279l59 332q9 45 -7.5 68.5t-53.5 23.5h-78l24 135h127q99 0 135.5 -64.5t18.5 -173.5l-61 -331q-18 -99 3 -150.5t93 -71.5l-21 -110q-83 -22 -120.5 -72t-55.5 -151l-57 -336q-19 -103 -87 -163.5t-165 -60.5h-100l24 142h72q81 0 94 80
l57 338q34 209 174 274z" />
    <glyph glyph-name="asciitilde" unicode="~" 
d="M813 428q-58 0 -121.5 17t-109 37.5t-93 37.5t-75.5 17q-78 0 -201 -109l-76 72q53 92 134.5 146t162.5 54q69 0 218.5 -55t193.5 -55q84 0 178 102l88 -61q-55 -92 -135 -147.5t-164 -55.5z" />
    <glyph glyph-name="exclamdown" unicode="&#xa1;" horiz-adv-x="616" 
d="M266 625h146l-150 -1031h-199zM408 1004q45 0 73.5 -29t28.5 -74q0 -62 -45 -106.5t-103 -44.5q-45 0 -73.5 28.5t-28.5 73.5q0 62 44.5 107t103.5 45z" />
    <glyph glyph-name="cent" unicode="&#xa2;" 
d="M459 -147l53 309q-297 29 -297 362q0 283 128 456.5t347 182.5l53 305h95l-54 -305q56 -4 102.5 -18.5t85 -42t60 -73.5t21.5 -107q0 -33 -6 -70h-160q0 127 -131 149l-121 -682q84 9 145 53t72 136h160q2 -12 2 -37q0 -91 -58.5 -163t-150.5 -109.5t-199 -38.5l-53 -307
h-94zM662 999q-128 -23 -200.5 -149.5t-72.5 -308.5q0 -190 152 -219z" />
    <glyph glyph-name="sterling" unicode="&#xa3;" 
d="M770 1186q-152 0 -226.5 -81t-74.5 -226q0 -56 8 -105h383l-24 -139h-347q0 -275 -143 -477h645l-26 -158h-924l27 158h90q74 115 110.5 209t36.5 190q0 24 -4 78h-149l24 139h117q-2 20 -2 64q0 149 52.5 263t160.5 180.5t260 66.5q181 0 283 -68t102 -176
q0 -42 -12 -80h-156q-2 78 -49 120t-162 42z" />
    <glyph glyph-name="currency" unicode="&#xa4;" horiz-adv-x="1228" 
d="M186 606q0 56 20 120.5t52 117.5l-111 117l119 112l109 -112q119 71 237 71q124 0 238 -74l111 109l116 -115l-112 -114q69 -101 69 -232q0 -129 -69 -233l114 -113l-118 -117l-111 109q-117 -72 -238 -72q-120 0 -237 72l-105 -111l-118 119l106 105q-72 101 -72 241z
M340 604q0 -111 79 -189.5t191 -78.5q110 0 188.5 79t78.5 189q0 112 -78.5 191t-188.5 79q-112 0 -191 -79t-79 -191z" />
    <glyph glyph-name="yen" unicode="&#xa5;" 
d="M1065 553h-885l19 102h282l-245 672h182l108 -307q79 -221 103 -328h20q60 108 223 348l205 287h211l-493 -672h288zM166 467h885l-19 -100h-356l-64 -367h-176l64 367h-353z" />
    <glyph glyph-name="brokenbar" unicode="&#xa6;" horiz-adv-x="724" 
d="M262 582h182v-813h-182v813zM444 672h-182v768h182v-768z" />
    <glyph glyph-name="section" unicode="&#xa7;" horiz-adv-x="1091" 
d="M711 1393q61 0 117.5 -11.5t109 -36.5t84 -71.5t31.5 -108.5q0 -19 -6 -57h-166q-3 72 -56.5 102.5t-126.5 30.5q-116 0 -177.5 -47t-61.5 -115q0 -45 50 -79.5t150 -71.5q51 -19 79 -30t69 -29.5t63.5 -33.5t49 -38t39.5 -47t22.5 -56.5t9.5 -70.5q0 -212 -225 -299
q125 -72 125 -207q0 -38 -11 -79t-42 -89t-78.5 -85t-129.5 -62t-186 -25q-64 0 -124.5 11t-117 35.5t-90.5 70.5t-34 108q0 28 6 59h176q7 -71 62.5 -102t130.5 -31q126 0 189 49t63 109q0 44 -45 81.5t-150 76.5q-153 56 -208 89q-112 69 -127 185q-3 21 -3 43
q0 104 61 181.5t156 117.5q-108 60 -108 195q0 47 13 92t44.5 90.5t79 79t123 55t170.5 21.5zM348 575q0 -57 47 -93.5t148 -69.5q137 0 207.5 57t70.5 133q0 120 -225 176q-113 0 -180.5 -64t-67.5 -139z" />
    <glyph glyph-name="dieresis" unicode="&#xa8;" horiz-adv-x="1091" 
d="M520 1370q37 0 60.5 -24.5t23.5 -61.5q0 -49 -36.5 -86t-84.5 -37q-38 0 -62 25.5t-24 62.5q0 47 38.5 84t84.5 37zM870 1370q37 0 61.5 -24.5t24.5 -61.5q0 -49 -37 -86t-85 -37q-36 0 -60 25.5t-24 62.5q0 47 37.5 84t82.5 37z" />
    <glyph glyph-name="copyright" unicode="&#xa9;" horiz-adv-x="1689" 
d="M858 225q-112 0 -191.5 33.5t-125 97.5t-66 147t-20.5 193q0 106 23 192.5t69.5 154t124.5 104.5t182 37q139 0 236.5 -71t97.5 -195q0 -27 -2 -39h-135q-3 86 -56 136t-151 50q-68 0 -117.5 -28.5t-77.5 -80.5t-40.5 -116t-12.5 -144q0 -82 11 -142t37.5 -109t75.5 -74
t120 -25q108 0 164.5 54t56.5 141h135q0 -5 1 -15t1 -14q0 -88 -49.5 -155t-126 -99.5t-164.5 -32.5zM852 -27q-166 0 -304 56.5t-231 156.5t-144.5 238.5t-51.5 300.5q0 160 58.5 300t157.5 237t233 152.5t282 55.5q147 0 280.5 -55.5t232 -152.5t156.5 -237t58 -300
q0 -159 -58 -300t-156.5 -239.5t-232 -155.5t-280.5 -57zM852 1337q-121 0 -231 -48t-190 -129.5t-127.5 -195t-47.5 -239.5q0 -172 75.5 -313t212.5 -223.5t308 -82.5q162 0 297.5 82t214 224.5t78.5 312.5q0 126 -46.5 239.5t-125.5 195t-188 129.5t-230 48z" />
    <glyph glyph-name="ordfeminine" unicode="&#xaa;" horiz-adv-x="727" 
d="M479 1251q60 0 107.5 -24t66.5 -74h9q8 51 43 86h88l-117 -664h-101q-17 49 -8 95h-8q-35 -45 -91.5 -73t-111.5 -28q-227 0 -227 236q0 118 38 217.5t119 164t193 64.5zM395 690q69 0 119.5 50t72 117t21.5 136q0 72 -34.5 109t-98.5 37q-87 0 -149 -81t-62 -231
q0 -68 31 -102.5t100 -34.5z" />
    <glyph glyph-name="guillemotleft" unicode="&#xab;" horiz-adv-x="972" 
d="M305 469l199 -363l-92 -71l-299 405l10 58l424 411l84 -78zM637 469l199 -363l-101 -67l-291 401l11 58l424 411l84 -78z" />
    <glyph glyph-name="logicalnot" unicode="&#xac;" 
d="M1026 625l-82 -463h-172l57 317h-636l24 146h809z" />
    <glyph glyph-name="sfthyphen" unicode="&#xad;" horiz-adv-x="960" 
d="M184 434l29 162h578l-29 -162h-578z" />
    <glyph glyph-name="registered" unicode="&#xae;" horiz-adv-x="1187" 
d="M1063 942q0 -133 -65.5 -245t-178 -177t-246.5 -65q-218 0 -352.5 140t-134.5 347q0 133 66 246t178 178.5t243 65.5q211 0 350.5 -142.5t139.5 -347.5zM963 942q0 161 -115 277t-275 116q-164 0 -274.5 -115t-110.5 -278t109 -277t276 -114q160 0 275 115.5t115 275.5z
M668 918l123 -240h-113l-111 225h-75v-225h-97v561h189q83 0 135.5 -43t52.5 -129q0 -48 -27 -89t-77 -60zM588 1147h-96v-154h96q86 0 86 76q0 40 -24.5 59t-61.5 19z" />
    <glyph glyph-name="macron" unicode="&#xaf;" horiz-adv-x="1087" 
d="M393 1229l27 145h612l-26 -145h-613z" />
    <glyph glyph-name="degree" unicode="&#xb0;" horiz-adv-x="765" 
d="M442 807q-124 0 -211.5 84t-87.5 203q0 121 87 202.5t212 81.5q121 0 208 -82t87 -202q0 -118 -87.5 -202.5t-207.5 -84.5zM438 1255q-67 0 -116.5 -47t-49.5 -114t50 -116.5t116 -49.5q69 0 117.5 49t48.5 117q0 66 -48.5 113.5t-117.5 47.5z" />
    <glyph glyph-name="plusminus" unicode="&#xb1;" 
d="M688 506l-53 -307h-172l53 307h-319l26 145h320l53 310h172l-53 -310h317l-26 -145h-318zM133 143h809l-24 -143h-809z" />
    <glyph glyph-name="twosuperior" unicode="&#xb2;" horiz-adv-x="724" 
d="M530 1577q133 0 198 -50t65 -130q0 -173 -283 -316q-17 -9 -53.5 -27t-51.5 -26t-42 -23t-39.5 -25t-29 -24.5t-25.5 -29t-15 -31.5h461l-23 -129h-620l10 65q10 62 35.5 110t75 89.5t98.5 71t135 74.5q38 19 55.5 28.5t53.5 32t53.5 40t33 43t15.5 50.5q0 38 -31 61
t-88 23q-46 0 -83.5 -10.5t-70.5 -43t-40 -85.5h-123q-2 8 -2 24q0 73 49.5 128.5t124 82.5t157.5 27z" />
    <glyph glyph-name="threesuperior" unicode="&#xb3;" horiz-adv-x="714" 
d="M543 1440l-4 10h-334l22 121h564l-19 -101l-240 -182v-12q201 -25 201 -201q0 -145 -108.5 -229t-282.5 -84q-118 0 -186 45.5t-68 132.5q0 40 10 74h119v-19q0 -66 36.5 -88t104.5 -22q57 0 106 16t84.5 57t35.5 101q0 117 -164 117q-44 0 -101 -11l-32 88z" />
    <glyph glyph-name="acute" unicode="&#xb4;" horiz-adv-x="1091" 
d="M633 1116l-78 82l303 324l121 -127z" />
    <glyph glyph-name="mu" unicode="&#xb5;" horiz-adv-x="1064" 
d="M-37 -420l250 1411h176l-104 -594q-12 -55 -10 -104t17 -85.5t56 -57.5t105 -21t119.5 28.5t94 75.5t63.5 102.5t36 113.5l100 542h172l-174 -991h-139q-25 45 -4 152h-8q-69 -89 -148.5 -128.5t-154.5 -39.5q-121 0 -191 49l-80 -453h-176z" />
    <glyph glyph-name="mu" unicode="&#x3bc;" horiz-adv-x="1064" 
d="M-37 -420l250 1411h176l-104 -594q-12 -55 -10 -104t17 -85.5t56 -57.5t105 -21t119.5 28.5t94 75.5t63.5 102.5t36 113.5l100 542h172l-174 -991h-139q-25 45 -4 152h-8q-69 -89 -148.5 -128.5t-154.5 -39.5q-121 0 -191 49l-80 -453h-176z" />
    <glyph glyph-name="paragraph" unicode="&#xb6;" horiz-adv-x="1091" 
d="M1098 1409l-242 -1364q-10 -55 -24 -98.5t-42.5 -89t-67.5 -75.5t-100.5 -49.5t-140.5 -19.5q-25 0 -71 4l24 131q145 7 203.5 54.5t79.5 160.5l237 1346h144zM707 655h-187q-145 0 -225 91t-80 235q0 194 114 311t285 117h226z" />
    <glyph glyph-name="periodcentered" unicode="&#xb7;" horiz-adv-x="495" 
d="M287 688q50 0 81 -32.5t31 -82.5q0 -66 -49 -114.5t-112 -48.5q-51 0 -82 31t-31 81q0 67 48.5 116.5t113.5 49.5z" />
    <glyph glyph-name="cedilla" unicode="&#xb8;" horiz-adv-x="1015" 
d="M346 -453q-100 0 -199 37l46 94q87 -28 151 -28q66 0 105.5 29t39.5 73q0 34 -27 51t-67 17q-53 0 -84 -17l-41 41l140 207h116l-98 -135q59 -1 102 -15t64.5 -37.5t31 -48t9.5 -51.5q0 -92 -77.5 -154t-211.5 -63z" />
    <glyph glyph-name="onesuperior" unicode="&#xb9;" horiz-adv-x="696" 
d="M682 891l-20 -125h-586l20 125h215l92 524l-184 -22l19 110l219 68h127l-121 -680h219z" />
    <glyph glyph-name="ordmasculine" unicode="&#xba;" horiz-adv-x="729" 
d="M504 1251q132 0 191 -71t59 -187q0 -58 -12 -114.5t-40 -112.5t-69.5 -98.5t-105.5 -68.5t-142 -26q-129 0 -191.5 72t-62.5 189q0 185 102.5 301t270.5 116zM481 1122q-69 0 -118.5 -42.5t-71 -104.5t-21.5 -135q0 -142 138 -142q85 0 144.5 72.5t59.5 206.5
q0 66 -31.5 105.5t-99.5 39.5z" />
    <glyph glyph-name="guillemotright" unicode="&#xbb;" horiz-adv-x="972" 
d="M389 106l328 349l-201 376l105 70l286 -418l-10 -57l-424 -406zM57 102l326 367l-199 362l101 72l290 -420l-10 -57l-424 -406z" />
    <glyph glyph-name="onequarter" unicode="&#xbc;" horiz-adv-x="1771" 
d="M729 707l-20 -125h-586l20 125h215l93 524l-185 -23l19 111l219 67h127l-121 -679h219zM547 -57h-152l1035 1503h155zM1495 807h123l-88 -494h133l-21 -127h-133l-32 -186h-156l33 186h-418l16 99zM1157 313h217l47 260z" />
    <glyph glyph-name="onehalf" unicode="&#xbd;" horiz-adv-x="1771" 
d="M688 707l-20 -125h-586l20 125h215l93 524l-185 -23l19 111l219 67h127l-121 -679h219zM475 -57h-151l1034 1503h155zM1419 819q132 0 198 -53.5t66 -134.5q0 -177 -276 -316q-17 -9 -53.5 -27t-51.5 -26t-42 -23t-39.5 -25t-29 -24.5t-25.5 -29t-15 -31.5h453l-23 -129
h-620l10 66q10 62 35.5 109.5t75 89t98.5 71t135 74.5q38 19 55.5 28.5t53.5 32t53.5 40t33 43t15.5 50.5q0 38 -31 62t-88 24q-33 0 -62.5 -6.5t-58.5 -21.5t-48.5 -44t-25.5 -69h-125q-2 8 -2 24q0 110 99 178t235 68z" />
    <glyph glyph-name="threequarters" unicode="&#xbe;" horiz-adv-x="1771" 
d="M1479 807h123l-89 -494h134l-21 -127h-133l-33 -186h-155l32 186h-417l16 99zM621 1255l-5 11h-333l22 120h563l-18 -100l-240 -182v-12q201 -25 201 -201q0 -145 -108.5 -229t-282.5 -84q-118 0 -186 45.5t-68 132.5q0 39 10 73h119v-18q0 -66 36.5 -88.5t104.5 -22.5
q57 0 106 16t84.5 57t35.5 101q0 117 -164 117q-49 0 -101 -10l-32 88zM518 -57h-151l1034 1503h155zM1141 313h217l47 260z" />
    <glyph glyph-name="questiondown" unicode="&#xbf;" horiz-adv-x="935" 
d="M348 -449q-166 0 -259 73t-93 212q0 108 66.5 207t199.5 207q56 45 85.5 71.5t67.5 69.5t60 91t33 108l12 67h176l-10 -67q-19 -129 -84 -225t-184 -189q-230 -181 -230 -311q0 -71 50 -112.5t135 -41.5q97 0 170.5 48.5t89.5 150.5h158q2 -12 2 -37q0 -80 -38 -143
t-101.5 -101.5t-141.5 -58t-164 -19.5zM672 1016q45 0 73.5 -29t28.5 -74q0 -62 -44.5 -106.5t-102.5 -44.5q-45 0 -74 29t-29 73q0 62 44.5 107t103.5 45z" />
    <glyph glyph-name="Agrave" unicode="&#xc0;" horiz-adv-x="1230" 
d="M946 0l-65 350h-559l-183 -350h-200l747 1386h176l268 -1386h-184zM748 1161h-13q-34 -78 -164 -327l-170 -328h453l-55 311q-3 17 -16.5 94t-21.5 134t-13 116zM897 1561l-68 -91l-360 222l104 139z" />
    <glyph glyph-name="Aacute" unicode="&#xc1;" horiz-adv-x="1230" 
d="M946 0l-65 350h-559l-183 -350h-200l747 1386h176l268 -1386h-184zM748 1161h-13q-34 -78 -164 -327l-170 -328h453l-55 311q-3 17 -16.5 94t-21.5 134t-13 116zM750 1485l-58 98l371 256l90 -158z" />
    <glyph glyph-name="Acircumflex" unicode="&#xc2;" horiz-adv-x="1230" 
d="M946 0l-65 350h-559l-183 -350h-200l747 1386h176l268 -1386h-184zM748 1161h-13q-34 -78 -164 -327l-170 -328h453l-55 311q-3 17 -16.5 94t-21.5 134t-13 116zM1057 1483l-213 227l-312 -225l-65 82l321 291h140l217 -299z" />
    <glyph glyph-name="Atilde" unicode="&#xc3;" horiz-adv-x="1230" 
d="M946 0l-65 350h-559l-183 -350h-200l747 1386h176l268 -1386h-184zM748 1161h-13q-34 -78 -164 -327l-170 -328h453l-55 311q-3 17 -16.5 94t-21.5 134t-13 116zM901 1569q-43 0 -89 20.5t-89.5 43t-79.5 24.5q-36 0 -68 -13t-83 -53l-64 56q48 67 114 108t128 41
q47 0 124 -42t130 -42q26 0 43.5 3t46 17t61.5 42l68 -54q-86 -151 -242 -151z" />
    <glyph glyph-name="Adieresis" unicode="&#xc4;" horiz-adv-x="1230" 
d="M946 0l-65 350h-559l-183 -350h-200l747 1386h176l268 -1386h-184zM748 1161h-13q-34 -78 -164 -327l-170 -328h453l-55 311q-3 17 -16.5 94t-21.5 134t-13 116zM655 1759q37 0 61.5 -24.5t24.5 -61.5q0 -49 -38 -86t-85 -37q-36 0 -59.5 24.5t-23.5 61.5q0 49 37 86
t83 37zM1008 1759q37 0 60.5 -24.5t23.5 -61.5q0 -49 -37.5 -86t-83.5 -37q-37 0 -61.5 24.5t-24.5 61.5q0 49 38 86t85 37z" />
    <glyph glyph-name="Aring" unicode="&#xc5;" horiz-adv-x="1230" 
d="M946 0l-65 350h-559l-183 -350h-200l747 1386h176l268 -1386h-184zM748 1161h-13q-34 -78 -164 -327l-170 -328h453l-55 311q-3 17 -16.5 94t-21.5 134t-13 116zM791 1442q-83 0 -132 49.5t-49 128.5q0 120 77 194t183 74q85 0 136 -53.5t51 -134.5q0 -114 -75 -186
t-191 -72zM850 1778q-50 0 -87.5 -42.5t-37.5 -97.5q0 -39 21.5 -64.5t62.5 -25.5q59 0 96 43t37 95q0 40 -24 66t-68 26z" />
    <glyph glyph-name="AE" unicode="&#xc6;" horiz-adv-x="1908" 
d="M836 0l63 432h-475l-322 -432h-204l1046 1382h957l-19 -145h-686l-63 -446h641l-19 -148h-641l-72 -500h742l-19 -143h-929zM1024 1221l-8 2q-39 -56 -86.5 -120t-108 -144.5t-86.5 -116.5l-192 -260h377z" />
    <glyph glyph-name="Ccedilla" unicode="&#xc7;" horiz-adv-x="1236" 
d="M502 -453q-100 0 -199 37l45 94q87 -28 152 -28q66 0 105.5 29t39.5 73q0 34 -27 51t-67 17q-53 0 -84 -17l-41 41l98 148q-399 53 -399 483q0 201 46.5 370t134 290.5t218.5 189.5t293 68q192 0 315 -89.5t123 -246.5q0 -55 -10 -96h-168q2 14 2 43q0 104 -71 163.5
t-195 59.5q-160 0 -274.5 -97.5t-169 -260t-54.5 -373.5q0 -168 74 -257t242 -89q98 0 168 20.5t112 60.5t63.5 89t31.5 116h174q0 -33 -2 -49q-10 -104 -59 -184t-125 -126.5t-165 -69.5t-188 -23h-8l-49 -68q59 -1 102 -15t64.5 -37.5t31 -48t9.5 -51.5q0 -92 -77.5 -154
t-211.5 -63z" />
    <glyph glyph-name="Egrave" unicode="&#xc8;" horiz-adv-x="1107" 
d="M47 0l244 1382h872l-30 -165h-695l-73 -416h643l-29 -170h-643l-82 -459h745l-28 -172h-924zM905 1561l-67 -91l-361 222l105 139z" />
    <glyph glyph-name="Eacute" unicode="&#xc9;" horiz-adv-x="1136" 
d="M672 1485l-58 98l371 256l90 -158zM57 0l244 1382h873l-31 -165h-694l-74 -416h643l-29 -170h-643l-82 -459h746l-29 -172h-924z" />
    <glyph glyph-name="Ecircumflex" unicode="&#xca;" horiz-adv-x="1107" 
d="M47 0l244 1382h872l-30 -165h-695l-73 -416h643l-29 -170h-643l-82 -459h745l-28 -172h-924zM997 1483l-213 227l-311 -225l-65 82l321 291h139l217 -299z" />
    <glyph glyph-name="Edieresis" unicode="&#xcb;" horiz-adv-x="1107" 
d="M47 0l244 1382h872l-30 -165h-695l-73 -416h643l-29 -170h-643l-82 -459h745l-28 -172h-924zM612 1759q37 0 61.5 -24.5t24.5 -61.5q0 -49 -38 -86t-85 -37q-36 0 -59.5 24.5t-23.5 61.5q0 49 37 86t83 37zM965 1759q37 0 60.5 -24.5t23.5 -61.5q0 -49 -37.5 -86
t-83.5 -37q-37 0 -61.5 24.5t-24.5 61.5q0 49 38 86t85 37z" />
    <glyph glyph-name="Igrave" unicode="&#xcc;" horiz-adv-x="518" 
d="M86 0l244 1382h182l-244 -1382h-182zM547 1561l-68 -91l-360 222l104 139z" />
    <glyph glyph-name="Iacute" unicode="&#xcd;" horiz-adv-x="518" 
d="M86 0l244 1382h182l-244 -1382h-182zM395 1485l-57 98l371 256l90 -158z" />
    <glyph glyph-name="Icircumflex" unicode="&#xce;" horiz-adv-x="518" 
d="M86 0l244 1382h182l-244 -1382h-182zM713 1483l-213 227l-312 -225l-65 82l321 291h140l217 -299z" />
    <glyph glyph-name="Idieresis" unicode="&#xcf;" horiz-adv-x="518" 
d="M86 0l244 1382h182l-244 -1382h-182zM309 1759q37 0 61.5 -24.5t24.5 -61.5q0 -49 -38 -86t-85 -37q-37 0 -60.5 24.5t-23.5 61.5q0 49 37.5 86t83.5 37zM662 1759q36 0 59.5 -24.5t23.5 -61.5q0 -49 -37 -86t-83 -37q-37 0 -61.5 24.5t-24.5 61.5q0 49 38 86t85 37z" />
    <glyph glyph-name="Eth" unicode="&#xd0;" horiz-adv-x="1259" 
d="M182 770l109 612h323q95 0 179.5 -18t161.5 -60t132 -105t88 -158t33 -214q0 -186 -57.5 -342t-158 -262t-238 -164.5t-295.5 -58.5h-412l113 643h-117l23 127h116zM254 170h174q50 0 100.5 6.5t111.5 25.5t114 49t104.5 81.5t88 118.5t59 164t22.5 214q0 95 -29.5 167.5
t-72.5 113t-102.5 66t-109.5 33.5t-102 8h-174l-80 -447h328l-22 -127h-328z" />
    <glyph glyph-name="Ntilde" unicode="&#xd1;" horiz-adv-x="1339" 
d="M991 293l8 2l191 1087h182l-244 -1382h-170l-358 715q-129 256 -174 372l-8 -4l-189 -1083h-182l244 1382h170l327 -655q105 -209 203 -434zM1010 1532q-43 0 -89 20.5t-89.5 43t-79.5 24.5q-36 0 -69 -13t-83 -53l-63 56q48 67 113.5 108t127.5 41q47 0 124 -42t130 -42
q26 0 43.5 3t46.5 17t62 42l67 -54q-86 -151 -241 -151z" />
    <glyph glyph-name="Ograve" unicode="&#xd2;" horiz-adv-x="1374" 
d="M858 1397q98 0 176 -25t131 -69t88 -107.5t50.5 -137t15.5 -159.5q0 -93 -11 -183t-36.5 -182t-63.5 -172t-95.5 -150t-129 -120t-168.5 -79t-209 -29q-248 0 -364.5 125.5t-116.5 351.5q0 203 49.5 374.5t141.5 296.5t231 195t311 70zM825 1225q-108 0 -196.5 -45
t-146 -118t-96.5 -170t-56 -196.5t-17 -201.5q0 -177 75.5 -260.5t246.5 -83.5q212 0 356 198.5t144 519.5q0 171 -75.5 264t-234.5 93zM1053 1561l-68 -91l-360 222l104 139z" />
    <glyph glyph-name="Oacute" unicode="&#xd3;" horiz-adv-x="1374" 
d="M858 1397q98 0 176 -25t131 -69t88 -107.5t50.5 -137t15.5 -159.5q0 -93 -11 -183t-36.5 -182t-63.5 -172t-95.5 -150t-129 -120t-168.5 -79t-209 -29q-248 0 -364.5 125.5t-116.5 351.5q0 203 49.5 374.5t141.5 296.5t231 195t311 70zM825 1225q-108 0 -196.5 -45
t-146 -118t-96.5 -170t-56 -196.5t-17 -201.5q0 -177 75.5 -260.5t246.5 -83.5q212 0 356 198.5t144 519.5q0 171 -75.5 264t-234.5 93zM842 1485l-58 98l371 256l90 -158z" />
    <glyph glyph-name="Ocircumflex" unicode="&#xd4;" horiz-adv-x="1374" 
d="M858 1397q98 0 176 -25t131 -69t88 -107.5t50.5 -137t15.5 -159.5q0 -93 -11 -183t-36.5 -182t-63.5 -172t-95.5 -150t-129 -120t-168.5 -79t-209 -29q-248 0 -364.5 125.5t-116.5 351.5q0 203 49.5 374.5t141.5 296.5t231 195t311 70zM825 1225q-108 0 -196.5 -45
t-146 -118t-96.5 -170t-56 -196.5t-17 -201.5q0 -177 75.5 -260.5t246.5 -83.5q212 0 356 198.5t144 519.5q0 171 -75.5 264t-234.5 93zM1176 1483l-213 227l-312 -225l-65 82l321 291h140l217 -299z" />
    <glyph glyph-name="Otilde" unicode="&#xd5;" horiz-adv-x="1374" 
d="M858 1397q98 0 176 -25t131 -69t88 -107.5t50.5 -137t15.5 -159.5q0 -93 -11 -183t-36.5 -182t-63.5 -172t-95.5 -150t-129 -120t-168.5 -79t-209 -29q-248 0 -364.5 125.5t-116.5 351.5q0 203 49.5 374.5t141.5 296.5t231 195t311 70zM825 1225q-108 0 -196.5 -45
t-146 -118t-96.5 -170t-56 -196.5t-17 -201.5q0 -177 75.5 -260.5t246.5 -83.5q212 0 356 198.5t144 519.5q0 171 -75.5 264t-234.5 93zM1104 1559q-43 0 -89 20.5t-89.5 43t-79.5 24.5q-36 0 -69 -13t-83 -53l-63 55q48 67 113.5 108.5t127.5 41.5q47 0 124 -42t130 -42
q27 0 44 2.5t46 16.5t62 42l68 -53q-86 -151 -242 -151z" />
    <glyph glyph-name="Odieresis" unicode="&#xd6;" horiz-adv-x="1374" 
d="M858 1397q98 0 176 -25t131 -69t88 -107.5t50.5 -137t15.5 -159.5q0 -93 -11 -183t-36.5 -182t-63.5 -172t-95.5 -150t-129 -120t-168.5 -79t-209 -29q-248 0 -364.5 125.5t-116.5 351.5q0 203 49.5 374.5t141.5 296.5t231 195t311 70zM825 1225q-108 0 -196.5 -45
t-146 -118t-96.5 -170t-56 -196.5t-17 -201.5q0 -177 75.5 -260.5t246.5 -83.5q212 0 356 198.5t144 519.5q0 171 -75.5 264t-234.5 93zM846 1759q37 0 61.5 -24.5t24.5 -61.5q0 -49 -38 -86t-85 -37q-37 0 -60.5 24.5t-23.5 61.5q0 49 37.5 86t83.5 37zM1198 1759
q37 0 60.5 -24.5t23.5 -61.5q0 -49 -37.5 -86t-83.5 -37q-37 0 -61.5 24.5t-24.5 61.5q0 49 38 86t85 37z" />
    <glyph glyph-name="multiply" unicode="&#xd7;" 
d="M809 162l-209 264l-303 -264l-109 135l304 264l-209 264l141 125l211 -264l301 264l111 -135l-304 -264l209 -264z" />
    <glyph glyph-name="Oslash" unicode="&#xd8;" horiz-adv-x="1374" 
d="M858 1397q226 0 344 -131l127 129l84 -82l-145 -150q51 -111 51 -264q0 -93 -11 -183t-36.5 -182t-63.5 -172t-95.5 -150t-129 -120t-168.5 -79t-209 -29q-245 0 -366 127l-125 -129l-84 84l141 145q-47 100 -47 250q0 203 49.5 374.5t141.5 296.5t231 195t311 70z
M1135 868q0 72 -17 142l-743 -762q73 -98 260 -98q212 0 356 198.5t144 519.5zM825 1225q-108 0 -196.5 -45t-146 -118t-96.5 -170t-56 -196.5t-17 -201.5q0 -76 11 -127l741 757q-82 101 -240 101z" />
    <glyph glyph-name="Ugrave" unicode="&#xd9;" horiz-adv-x="1325" 
d="M1358 1382l-150 -837q-23 -133 -65.5 -231.5t-112.5 -175t-177.5 -115.5t-250.5 -39q-122 0 -211.5 26t-144 74.5t-84 119.5t-31 160.5t15.5 196.5l144 821h180l-149 -839q-19 -91 -11.5 -158t29 -112t64 -72.5t94.5 -39t120 -11.5q177 0 278 100.5t138 310.5l146 821
h178zM975 1561l-68 -91l-360 222l104 139z" />
    <glyph glyph-name="Uacute" unicode="&#xda;" horiz-adv-x="1325" 
d="M1358 1382l-150 -837q-23 -133 -65.5 -231.5t-112.5 -175t-177.5 -115.5t-250.5 -39q-122 0 -211.5 26t-144 74.5t-84 119.5t-31 160.5t15.5 196.5l144 821h180l-149 -839q-19 -91 -11.5 -158t29 -112t64 -72.5t94.5 -39t120 -11.5q177 0 278 100.5t138 310.5l146 821
h178zM752 1485l-58 98l371 256l90 -158z" />
    <glyph glyph-name="Ucircumflex" unicode="&#xdb;" horiz-adv-x="1325" 
d="M1358 1382l-150 -837q-23 -133 -65.5 -231.5t-112.5 -175t-177.5 -115.5t-250.5 -39q-122 0 -211.5 26t-144 74.5t-84 119.5t-31 160.5t15.5 196.5l144 821h180l-149 -839q-19 -91 -11.5 -158t29 -112t64 -72.5t94.5 -39t120 -11.5q177 0 278 100.5t138 310.5l146 821
h178zM1096 1483l-213 227l-312 -225l-65 82l321 291h140l217 -299z" />
    <glyph glyph-name="Udieresis" unicode="&#xdc;" horiz-adv-x="1325" 
d="M1358 1382l-150 -837q-23 -133 -65.5 -231.5t-112.5 -175t-177.5 -115.5t-250.5 -39q-122 0 -211.5 26t-144 74.5t-84 119.5t-31 160.5t15.5 196.5l144 821h180l-149 -839q-19 -91 -11.5 -158t29 -112t64 -72.5t94.5 -39t120 -11.5q177 0 278 100.5t138 310.5l146 821
h178zM707 1759q37 0 61.5 -24.5t24.5 -61.5q0 -49 -38 -86t-85 -37q-37 0 -60.5 24.5t-23.5 61.5q0 49 37.5 86t83.5 37zM1059 1759q37 0 60.5 -24.5t23.5 -61.5q0 -49 -37.5 -86t-83.5 -37q-37 0 -61.5 24.5t-24.5 61.5q0 49 38 86t85 37z" />
    <glyph glyph-name="Yacute" unicode="&#xdd;" horiz-adv-x="1136" 
d="M594 727h18q21 37 54 89.5t59 91t66 97t53 78.5l207 299h213l-609 -854l-90 -528h-180l90 528l-295 854h201l108 -319q84 -244 105 -336zM655 1485l-57 98l371 256l90 -158z" />
    <glyph glyph-name="Thorn" unicode="&#xde;" horiz-adv-x="1177" 
d="M59 0l244 1384h176l-47 -262h359q194 0 291.5 -99.5t97.5 -270.5q0 -63 -16 -128t-56.5 -133.5t-100 -121t-155.5 -86t-215 -33.5h-356l-43 -250h-179zM762 983h-354l-105 -592h354q59 0 116.5 19t110 58t85 109.5t32.5 163.5q0 113 -64.5 177.5t-174.5 64.5z" />
    <glyph glyph-name="germandbls" unicode="&#xdf;" horiz-adv-x="1091" 
d="M68 8l174 977q44 249 159.5 364t317.5 115q159 0 245.5 -86.5t86.5 -210.5q0 -84 -48.5 -165.5t-125.5 -133.5q-86 -58 -86 -118q0 -67 92 -156q131 -128 131 -279q0 -146 -112 -249t-308 -103q-108 0 -211 27l25 143q76 -20 147 -20q122 0 196 59t74 147q0 99 -92 191
q-72 72 -105.5 123t-33.5 98q0 53 40 106.5t130 127.5q46 38 79.5 92t33.5 106q0 70 -44.5 117t-134.5 47q-106 0 -181 -84t-103 -248l-181 -1013q-35 -192 -125 -276.5t-253 -84.5q-66 0 -146 12l27 144q44 -8 92 -8q107 0 162 55t78 184z" />
    <glyph glyph-name="agrave" unicode="&#xe0;" horiz-adv-x="1114" 
d="M473 139q81 0 148.5 42t110.5 111t66 154t23 175q0 104 -56.5 166.5t-168.5 62.5q-60 0 -117 -30t-104.5 -87.5t-77 -152t-29.5 -211.5q0 -110 50 -170.5t155 -59.5zM1061 991l-174 -991h-135q-25 60 -9 147h-12q-56 -83 -141 -124t-170 -41q-168 0 -249 97t-81 269
q0 129 35 248t98 211t157.5 146.5t205.5 54.5q204 0 284 -144h9q11 86 49 127h133zM819 1190l-82 -76l-313 283l127 119z" />
    <glyph glyph-name="aacute" unicode="&#xe1;" horiz-adv-x="1114" 
d="M473 139q81 0 148.5 42t110.5 111t66 154t23 175q0 104 -56.5 166.5t-168.5 62.5q-60 0 -117 -30t-104.5 -87.5t-77 -152t-29.5 -211.5q0 -110 50 -170.5t155 -59.5zM1061 991l-174 -991h-135q-25 60 -9 147h-12q-56 -83 -141 -124t-170 -41q-168 0 -249 97t-81 269
q0 129 35 248t98 211t157.5 146.5t205.5 54.5q204 0 284 -144h9q11 86 49 127h133zM610 1116l-78 82l304 324l120 -127z" />
    <glyph glyph-name="acircumflex" unicode="&#xe2;" horiz-adv-x="1114" 
d="M473 139q81 0 148.5 42t110.5 111t66 154t23 175q0 104 -56.5 166.5t-168.5 62.5q-60 0 -117 -30t-104.5 -87.5t-77 -152t-29.5 -211.5q0 -110 50 -170.5t155 -59.5zM1061 991l-174 -991h-135q-25 60 -9 147h-12q-56 -83 -141 -124t-170 -41q-168 0 -249 97t-81 269
q0 129 35 248t98 211t157.5 146.5t205.5 54.5q204 0 284 -144h9q11 86 49 127h133zM901 1118l-194 232l-308 -232l-71 82l321 291h139l216 -299z" />
    <glyph glyph-name="atilde" unicode="&#xe3;" horiz-adv-x="1114" 
d="M473 139q81 0 148.5 42t110.5 111t66 154t23 175q0 104 -56.5 166.5t-168.5 62.5q-60 0 -117 -30t-104.5 -87.5t-77 -152t-29.5 -211.5q0 -110 50 -170.5t155 -59.5zM1061 991l-174 -991h-135q-25 60 -9 147h-12q-56 -83 -141 -124t-170 -41q-168 0 -249 97t-81 269
q0 129 35 248t98 211t157.5 146.5t205.5 54.5q204 0 284 -144h9q11 86 49 127h133zM811 1178q-43 0 -89 20.5t-89.5 43t-79.5 24.5q-36 0 -69 -13t-83 -53l-63 55q48 67 114 108.5t128 41.5q47 0 124 -42t130 -42q27 0 44 2.5t45.5 16.5t61.5 42l68 -53q-86 -151 -242 -151z
" />
    <glyph glyph-name="adieresis" unicode="&#xe4;" horiz-adv-x="1114" 
d="M473 139q81 0 148.5 42t110.5 111t66 154t23 175q0 104 -56.5 166.5t-168.5 62.5q-60 0 -117 -30t-104.5 -87.5t-77 -152t-29.5 -211.5q0 -110 50 -170.5t155 -59.5zM1061 991l-174 -991h-135q-25 60 -9 147h-12q-56 -83 -141 -124t-170 -41q-168 0 -249 97t-81 269
q0 129 35 248t98 211t157.5 146.5t205.5 54.5q204 0 284 -144h9q11 86 49 127h133zM522 1370q37 0 60.5 -24.5t23.5 -61.5q0 -49 -36.5 -86t-84.5 -37q-38 0 -62 25.5t-24 62.5q0 47 38.5 84t84.5 37zM872 1370q37 0 61.5 -24.5t24.5 -61.5q0 -49 -37 -86t-85 -37
q-36 0 -60 25.5t-24 62.5q0 47 37.5 84t82.5 37z" />
    <glyph glyph-name="aring" unicode="&#xe5;" horiz-adv-x="1114" 
d="M473 139q81 0 148.5 42t110.5 111t66 154t23 175q0 104 -56.5 166.5t-168.5 62.5q-60 0 -117 -30t-104.5 -87.5t-77 -152t-29.5 -211.5q0 -110 50 -170.5t155 -59.5zM1061 991l-174 -991h-135q-25 60 -9 147h-12q-56 -83 -141 -124t-170 -41q-168 0 -249 97t-81 269
q0 129 35 248t98 211t157.5 146.5t205.5 54.5q204 0 284 -144h9q11 86 49 127h133zM686 1110q-83 0 -131.5 49.5t-48.5 128.5q0 120 77 194t183 74q84 0 135 -53.5t51 -134.5q0 -114 -75 -186t-191 -72zM745 1446q-50 0 -87 -42t-37 -97q0 -39 21.5 -64.5t62.5 -25.5
q59 0 96 42.5t37 94.5q0 40 -24.5 66t-68.5 26z" />
    <glyph glyph-name="ae" unicode="&#xe6;" horiz-adv-x="1691" 
d="M1126 -16q-252 0 -338 168q-194 -172 -458 -172q-134 0 -212.5 63t-78.5 182q0 346 489 346q95 0 236 -16q14 79 14 121q0 88 -46.5 132t-153.5 44q-190 0 -226 -125h-155q0 3 -1 10.5t-1 10.5q0 71 41 123t107.5 78.5t133 38t135.5 11.5q242 0 316 -125q135 132 352 132
q82 0 145.5 -17.5t100.5 -44t61 -64t32.5 -73t8.5 -74.5q0 -50 -15.5 -93.5t-56 -86.5t-104.5 -74.5t-167.5 -52.5t-237.5 -25h-121q-2 -12 -2 -36q0 -109 56.5 -165.5t160.5 -56.5q121 0 177 43t81 123h162q0 -13 -5 -53q-24 -130 -146 -201t-284 -71zM565 436
q-168 0 -254 -48.5t-86 -135.5q0 -54 43 -88.5t119 -34.5q195 0 363 154q-9 58 -2 141q-102 12 -183 12zM942 530h94q113 2 196.5 20t128.5 47t66 61t21 67q0 57 -47.5 87t-126.5 30q-75 0 -134.5 -25t-98.5 -70t-63.5 -98.5t-35.5 -118.5z" />
    <glyph glyph-name="ccedilla" unicode="&#xe7;" horiz-adv-x="974" 
d="M371 -453q-100 0 -199 37l45 94q87 -28 152 -28q66 0 105.5 29t39.5 73q0 34 -27 51t-67 17q-53 0 -84 -17l-41 41l98 148q-301 43 -301 366q0 290 138 469t376 179q160 0 248 -66t88 -192q0 -12 -8 -62h-160q0 77 -39 116.5t-131 39.5q-108 0 -184 -62t-112 -166.5
t-36 -242.5q0 -109 54.5 -168.5t165.5 -59.5q97 0 160.5 44.5t86.5 150.5h156v-16q0 -153 -110 -244t-283 -94l-49 -68q59 -1 101.5 -15t64 -37.5t31 -48t9.5 -51.5q0 -92 -77 -154t-211 -63z" />
    <glyph glyph-name="egrave" unicode="&#xe8;" horiz-adv-x="1081" 
d="M791 1190l-82 -76l-314 283l127 119zM473 -16q-89 0 -157.5 22t-110 57.5t-67.5 84.5t-36 98t-10 104q0 102 19 195.5t60.5 178t103 147t152 99t200.5 36.5q82 0 145.5 -17.5t100.5 -44t61 -64t32.5 -73t8.5 -74.5q0 -60 -24 -110t-63 -83.5t-95 -59t-112.5 -40.5
t-123 -24t-119.5 -12t-108 -3h-58q-2 -12 -2 -36q0 -109 56.5 -165.5t160.5 -56.5q121 0 177 43t81 123h162q0 -33 -2 -47q-12 -90 -77.5 -154.5t-157 -94t-197.5 -29.5zM289 530q25 -2 71 -2q117 0 204.5 18t136 47.5t71.5 62.5t23 69q0 57 -47.5 87t-126.5 30
q-75 0 -134.5 -25t-98.5 -70t-63.5 -98.5t-35.5 -118.5z" />
    <glyph glyph-name="eacute" unicode="&#xe9;" horiz-adv-x="1081" 
d="M625 1116l-78 82l303 324l121 -127zM473 -16q-89 0 -157.5 22t-110 57.5t-67.5 84.5t-36 98t-10 104q0 102 19 195.5t60.5 178t103 147t152 99t200.5 36.5q82 0 145.5 -17.5t100.5 -44t61 -64t32.5 -73t8.5 -74.5q0 -60 -24 -110t-63 -83.5t-95 -59t-112.5 -40.5
t-123 -24t-119.5 -12t-108 -3h-58q-2 -12 -2 -36q0 -109 56.5 -165.5t160.5 -56.5q121 0 177 43t81 123h162q0 -33 -2 -47q-12 -90 -77.5 -154.5t-157 -94t-197.5 -29.5zM289 530q25 -2 71 -2q117 0 204.5 18t136 47.5t71.5 62.5t23 69q0 57 -47.5 87t-126.5 30
q-75 0 -134.5 -25t-98.5 -70t-63.5 -98.5t-35.5 -118.5z" />
    <glyph glyph-name="ecircumflex" unicode="&#xea;" horiz-adv-x="1081" 
d="M911 1118l-194 232l-307 -232l-72 82l321 291h140l215 -299zM473 -16q-89 0 -157.5 22t-110 57.5t-67.5 84.5t-36 98t-10 104q0 102 19 195.5t60.5 178t103 147t152 99t200.5 36.5q82 0 145.5 -17.5t100.5 -44t61 -64t32.5 -73t8.5 -74.5q0 -60 -24 -110t-63 -83.5
t-95 -59t-112.5 -40.5t-123 -24t-119.5 -12t-108 -3h-58q-2 -12 -2 -36q0 -109 56.5 -165.5t160.5 -56.5q121 0 177 43t81 123h162q0 -33 -2 -47q-12 -90 -77.5 -154.5t-157 -94t-197.5 -29.5zM289 530q25 -2 71 -2q117 0 204.5 18t136 47.5t71.5 62.5t23 69q0 57 -47.5 87
t-126.5 30q-75 0 -134.5 -25t-98.5 -70t-63.5 -98.5t-35.5 -118.5z" />
    <glyph glyph-name="edieresis" unicode="&#xeb;" horiz-adv-x="1081" 
d="M528 1370q37 0 60.5 -24.5t23.5 -61.5q0 -49 -36.5 -86t-83.5 -37q-38 0 -62 25.5t-24 62.5q0 47 38 84t84 37zM879 1370q37 0 61.5 -24.5t24.5 -61.5q0 -49 -37.5 -86t-85.5 -37q-36 0 -60 25.5t-24 62.5q0 47 38 84t83 37zM473 -16q-89 0 -157.5 22t-110 57.5
t-67.5 84.5t-36 98t-10 104q0 102 19 195.5t60.5 178t103 147t152 99t200.5 36.5q82 0 145.5 -17.5t100.5 -44t61 -64t32.5 -73t8.5 -74.5q0 -60 -24 -110t-63 -83.5t-95 -59t-112.5 -40.5t-123 -24t-119.5 -12t-108 -3h-58q-2 -12 -2 -36q0 -109 56.5 -165.5t160.5 -56.5
q121 0 177 43t81 123h162q0 -33 -2 -47q-12 -90 -77.5 -154.5t-157 -94t-197.5 -29.5zM289 530q25 -2 71 -2q117 0 204.5 18t136 47.5t71.5 62.5t23 69q0 57 -47.5 87t-126.5 30q-75 0 -134.5 -25t-98.5 -70t-63.5 -98.5t-35.5 -118.5z" />
    <glyph glyph-name="igrave" unicode="&#xec;" horiz-adv-x="516" 
d="M84 0l174 991h178l-174 -991h-178zM487 1190l-81 -76l-314 283l127 119z" />
    <glyph glyph-name="iacute" unicode="&#xed;" horiz-adv-x="516" 
d="M84 0l174 991h178l-174 -991h-178zM348 1116l-78 82l303 324l121 -127z" />
    <glyph glyph-name="icircumflex" unicode="&#xee;" horiz-adv-x="516" 
d="M84 0l174 991h178l-174 -991h-178zM610 1118l-194 232l-307 -232l-72 82l321 291h140l215 -299z" />
    <glyph glyph-name="idieresis" unicode="&#xef;" horiz-adv-x="516" 
d="M84 0l174 991h178l-174 -991h-178zM225 1370q37 0 60.5 -24.5t23.5 -61.5q0 -49 -36.5 -86t-84.5 -37q-38 0 -62 25.5t-24 62.5q0 47 38.5 84t84.5 37zM575 1370q37 0 62 -24.5t25 -61.5q0 -49 -37.5 -86t-85.5 -37q-36 0 -60 25.5t-24 62.5q0 47 37.5 84t82.5 37z" />
    <glyph glyph-name="eth" unicode="&#xf0;" horiz-adv-x="1083" 
d="M918 1309l149 100l49 -80l-143 -94q67 -120 67 -336q0 -41 -2.5 -87t-10.5 -113t-20.5 -131t-35.5 -136.5t-53 -134.5t-75.5 -120.5t-100.5 -100t-129.5 -66t-161.5 -24.5q-191 0 -277 95.5t-86 260.5q0 174 62.5 313t179.5 220t268 81q31 0 64 -6t74 -21t78.5 -47.5
t62.5 -78.5h8q6 47 6 96q0 150 -57 246l-172 -113l-41 76l157 106q-88 88 -235 117l53 135q220 -43 322 -157zM592 803q-85 0 -151.5 -38.5t-105.5 -102t-59 -138.5t-20 -155q0 -234 217 -234q65 0 123.5 26.5t105 78.5t74 137.5t27.5 193.5t-51 170t-160 62z" />
    <glyph glyph-name="ntilde" unicode="&#xf1;" horiz-adv-x="1077" 
d="M690 1008q86 0 147.5 -25.5t93.5 -66t46.5 -99t13 -115.5t-13.5 -124l-100 -578h-181l101 573q13 85 6.5 149.5t-50.5 102t-126 37.5q-54 0 -102 -21t-83.5 -55.5t-63.5 -79.5t-45.5 -91t-25.5 -93l-94 -522h-176l174 991h131q28 -57 -2 -184h8q35 58 82 100t94.5 62.5
t88 29.5t77.5 9zM760 1167q-43 0 -89 20.5t-89.5 43t-79.5 24.5q-36 0 -69 -12.5t-83 -52.5l-63 55q48 67 113.5 108.5t127.5 41.5q47 0 124 -42t130 -42q27 0 44 2.5t46 16.5t62 42l67 -53q-87 -152 -241 -152z" />
    <glyph glyph-name="ograve" unicode="&#xf2;" horiz-adv-x="1091" 
d="M618 1006q103 0 180 -31.5t121.5 -87.5t65.5 -125.5t21 -153.5q0 -89 -16.5 -174t-56 -167.5t-98 -144.5t-149.5 -100t-203 -38q-202 0 -296.5 100t-94.5 278q0 105 20.5 200t63 176.5t104 140.5t148 93t190.5 34zM606 850q-84 0 -150 -40.5t-105 -108.5t-59 -150
t-20 -172q0 -118 58 -182t172 -64q139 0 231 128t92 345q0 114 -53 179t-166 65zM805 1190l-82 -76l-313 283l127 119z" />
    <glyph glyph-name="oacute" unicode="&#xf3;" horiz-adv-x="1091" 
d="M618 1006q103 0 180 -31.5t121.5 -87.5t65.5 -125.5t21 -153.5q0 -89 -16.5 -174t-56 -167.5t-98 -144.5t-149.5 -100t-203 -38q-202 0 -296.5 100t-94.5 278q0 105 20.5 200t63 176.5t104 140.5t148 93t190.5 34zM606 850q-84 0 -150 -40.5t-105 -108.5t-59 -150
t-20 -172q0 -118 58 -182t172 -64q139 0 231 128t92 345q0 114 -53 179t-166 65zM662 1116l-78 82l303 324l121 -127z" />
    <glyph glyph-name="ocircumflex" unicode="&#xf4;" horiz-adv-x="1091" 
d="M618 1006q103 0 180 -31.5t121.5 -87.5t65.5 -125.5t21 -153.5q0 -89 -16.5 -174t-56 -167.5t-98 -144.5t-149.5 -100t-203 -38q-202 0 -296.5 100t-94.5 278q0 105 20.5 200t63 176.5t104 140.5t148 93t190.5 34zM606 850q-84 0 -150 -40.5t-105 -108.5t-59 -150
t-20 -172q0 -118 58 -182t172 -64q139 0 231 128t92 345q0 114 -53 179t-166 65zM928 1118l-195 232l-307 -232l-72 82l322 291h139l215 -299z" />
    <glyph glyph-name="otilde" unicode="&#xf5;" horiz-adv-x="1091" 
d="M618 1006q103 0 180 -31.5t121.5 -87.5t65.5 -125.5t21 -153.5q0 -89 -16.5 -174t-56 -167.5t-98 -144.5t-149.5 -100t-203 -38q-202 0 -296.5 100t-94.5 278q0 105 20.5 200t63 176.5t104 140.5t148 93t190.5 34zM606 850q-84 0 -150 -40.5t-105 -108.5t-59 -150
t-20 -172q0 -118 58 -182t172 -64q139 0 231 128t92 345q0 114 -53 179t-166 65zM803 1165q-43 0 -89 20.5t-89.5 43t-79.5 24.5q-36 0 -69 -12.5t-83 -52.5l-63 55q48 67 113.5 108.5t127.5 41.5q47 0 124 -42t130 -42q27 0 44 2.5t46 16.5t62 42l67 -53
q-87 -152 -241 -152z" />
    <glyph glyph-name="odieresis" unicode="&#xf6;" horiz-adv-x="1091" 
d="M618 1006q103 0 180 -31.5t121.5 -87.5t65.5 -125.5t21 -153.5q0 -89 -16.5 -174t-56 -167.5t-98 -144.5t-149.5 -100t-203 -38q-202 0 -296.5 100t-94.5 278q0 105 20.5 200t63 176.5t104 140.5t148 93t190.5 34zM606 850q-84 0 -150 -40.5t-105 -108.5t-59 -150
t-20 -172q0 -118 58 -182t172 -64q139 0 231 128t92 345q0 114 -53 179t-166 65zM537 1370q37 0 60.5 -24.5t23.5 -61.5q0 -49 -36.5 -86t-84.5 -37q-38 0 -62 25.5t-24 62.5q0 47 38.5 84t84.5 37zM887 1370q37 0 61.5 -24.5t24.5 -61.5q0 -49 -37.5 -86t-85.5 -37
q-36 0 -60 25.5t-24 62.5q0 47 38 84t83 37z" />
    <glyph glyph-name="divide" unicode="&#xf7;" 
d="M999 465h-809l25 147h809zM688 948q41 0 67.5 -26.5t26.5 -67.5q0 -55 -40.5 -96t-94.5 -41q-41 0 -66.5 27t-25.5 67q0 56 41 96.5t92 40.5zM586 360q41 0 66.5 -26.5t25.5 -67.5q0 -56 -39.5 -96.5t-93.5 -40.5q-41 0 -67.5 27t-26.5 67q0 56 42 96.5t93 40.5z" />
    <glyph glyph-name="oslash" unicode="&#xf8;" horiz-adv-x="1091" 
d="M618 1006q202 0 302 -121l129 114l59 -71l-137 -125q35 -80 35 -195q0 -89 -16.5 -174t-56 -167.5t-98 -144.5t-149.5 -100t-203 -38q-208 0 -305 108l-110 -100l-64 76l121 108q-33 76 -33 186q0 105 20.5 200t63 176.5t104 140.5t148 93t190.5 34zM606 842
q-84 0 -150 -39t-105 -105.5t-59 -147.5t-20 -171q0 -33 7 -68l505 453q-53 78 -178 78zM825 606q0 24 -4 64l-504 -455q56 -74 185 -74q140 0 231.5 124.5t91.5 340.5z" />
    <glyph glyph-name="ugrave" unicode="&#xf9;" horiz-adv-x="1056" 
d="M383 -16q-88 0 -148.5 25.5t-91 66t-43 99.5t-9.5 115t15 124l101 577h180l-100 -573q-13 -85 -9.5 -149.5t45 -102t123.5 -37.5q66 0 123 31.5t95 83t62.5 108.5t35.5 117l94 522h176l-174 -991h-131q-28 57 2 184h-8q-35 -58 -81.5 -100t-93 -62.5t-86.5 -29t-77 -8.5z
M774 1190l-82 -76l-313 283l127 119z" />
    <glyph glyph-name="uacute" unicode="&#xfa;" horiz-adv-x="1056" 
d="M383 -16q-88 0 -148.5 25.5t-91 66t-43 99.5t-9.5 115t15 124l101 577h180l-100 -573q-13 -85 -9.5 -149.5t45 -102t123.5 -37.5q66 0 123 31.5t95 83t62.5 108.5t35.5 117l94 522h176l-174 -991h-131q-28 57 2 184h-8q-35 -58 -81.5 -100t-93 -62.5t-86.5 -29t-77 -8.5z
M631 1116l-78 82l303 324l121 -127z" />
    <glyph glyph-name="ucircumflex" unicode="&#xfb;" horiz-adv-x="1056" 
d="M383 -16q-88 0 -148.5 25.5t-91 66t-43 99.5t-9.5 115t15 124l101 577h180l-100 -573q-13 -85 -9.5 -149.5t45 -102t123.5 -37.5q66 0 123 31.5t95 83t62.5 108.5t35.5 117l94 522h176l-174 -991h-131q-28 57 2 184h-8q-35 -58 -81.5 -100t-93 -62.5t-86.5 -29t-77 -8.5z
M893 1118l-195 232l-307 -232l-72 82l322 291h139l215 -299z" />
    <glyph glyph-name="udieresis" unicode="&#xfc;" horiz-adv-x="1056" 
d="M383 -16q-88 0 -148.5 25.5t-91 66t-43 99.5t-9.5 115t15 124l101 577h180l-100 -573q-13 -85 -9.5 -149.5t45 -102t123.5 -37.5q66 0 123 31.5t95 83t62.5 108.5t35.5 117l94 522h176l-174 -991h-131q-28 57 2 184h-8q-35 -58 -81.5 -100t-93 -62.5t-86.5 -29t-77 -8.5z
M516 1370q37 0 60.5 -24.5t23.5 -61.5q0 -49 -36.5 -86t-84.5 -37q-38 0 -62 25.5t-24 62.5q0 47 38.5 84t84.5 37zM866 1370q37 0 61.5 -24.5t24.5 -61.5q0 -49 -37.5 -86t-85.5 -37q-36 0 -60 25.5t-24 62.5q0 47 38 84t83 37z" />
    <glyph glyph-name="yacute" unicode="&#xfd;" horiz-adv-x="958" 
d="M434 119l228 473q42 86 67 159.5t32.5 108t24.5 127.5h166q-2 -14 -9.5 -58.5t-10 -56.5t-9.5 -48t-12 -52t-14.5 -48t-19 -55.5t-23.5 -55.5t-31 -66l-485 -967h-186l217 416l-80 -4l-187 997h181l65 -407q5 -29 23.5 -141t29 -182t17.5 -140h16zM524 1116l-78 82
l304 324l120 -127z" />
    <glyph glyph-name="thorn" unicode="&#xfe;" horiz-adv-x="1091" 
d="M690 1008q155 0 240.5 -95.5t85.5 -248.5q0 -196 -61.5 -349.5t-181 -242t-279.5 -88.5q-79 0 -148.5 26.5t-105.5 77.5h-11l-90 -508h-176l336 1878h168l-78 -395q-20 -108 -61 -242h8q69 101 166 144t188 43zM629 860q-94 0 -176 -71t-129.5 -188.5t-47.5 -250.5
q0 -94 52.5 -152.5t171.5 -58.5q96 0 173 65t119 176.5t42 246.5q0 115 -54 174t-151 59z" />
    <glyph glyph-name="ydieresis" unicode="&#xff;" horiz-adv-x="958" 
d="M434 119l228 473q42 86 67 159.5t32.5 108t24.5 127.5h166q-2 -14 -9.5 -58.5t-10 -56.5t-9.5 -48t-12 -52t-14.5 -48t-19 -55.5t-23.5 -55.5t-31 -66l-485 -967h-186l217 416l-80 -4l-187 997h181l65 -407q5 -29 23.5 -141t29 -182t17.5 -140h16zM410 1370
q37 0 60.5 -24.5t23.5 -61.5q0 -49 -36.5 -86t-84.5 -37q-38 0 -62 25.5t-24 62.5q0 47 38.5 84t84.5 37zM760 1370q37 0 61.5 -24.5t24.5 -61.5q0 -49 -37.5 -86t-85.5 -37q-36 0 -60 25.5t-24 62.5q0 47 38 84t83 37z" />
    <glyph glyph-name="dotlessi" unicode="&#x131;" horiz-adv-x="516" 
d="M84 0l174 991h178l-174 -991h-178z" />
    <glyph glyph-name="OE" unicode="&#x152;" horiz-adv-x="1783" 
d="M846 1397q82 0 162 -15h831l-31 -165h-653l-74 -416h623l-29 -170h-622l-82 -459h725l-29 -172h-901q-78 -16 -160 -16q-248 0 -364.5 125.5t-116.5 351.5q0 163 30 305t90 258t145.5 199t201.5 128.5t254 45.5zM635 150q92 0 160 32l180 1012q-64 31 -150 31
q-108 0 -196.5 -45t-146 -118t-96.5 -170t-56 -196.5t-17 -201.5q0 -177 75.5 -260.5t246.5 -83.5z" />
    <glyph glyph-name="oe" unicode="&#x153;" horiz-adv-x="1757" 
d="M1200 -16q-252 0 -338 168q-141 -168 -379 -168q-202 0 -296.5 100t-94.5 278q0 105 20.5 200t63 176.5t104 140.5t148 93t190.5 34q247 0 340 -179q142 179 396 179q82 0 145.5 -17.5t100.5 -44t61 -64t32.5 -73t8.5 -74.5q0 -50 -17 -94.5t-63 -89.5t-117.5 -76.5
t-189.5 -51.5t-271 -20h-45q-2 -12 -2 -36q0 -109 56.5 -165.5t160.5 -56.5q121 0 177.5 43t81.5 123h161v-14q0 -99 -66 -172t-162.5 -106t-205.5 -33zM606 842q-84 0 -150 -39t-105 -105.5t-59 -147.5t-20 -171q0 -117 57.5 -177.5t172.5 -60.5q140 0 231.5 124.5
t91.5 340.5q0 236 -219 236zM1016 530q136 0 238 16.5t158.5 45t83 62t26.5 71.5q0 57 -47.5 87t-126.5 30q-75 0 -134.5 -25t-98.5 -70t-63.5 -98.5t-35.5 -118.5z" />
    <glyph glyph-name="circumflex" unicode="&#x2c6;" horiz-adv-x="1091" 
d="M899 1118l-194 232l-308 -232l-71 82l321 291h139l215 -299z" />
    <glyph glyph-name="ring" unicode="&#x2da;" horiz-adv-x="1087" 
d="M676 1110q-83 0 -131.5 49.5t-48.5 128.5q0 120 77 194t183 74q84 0 135 -53.5t51 -134.5q0 -114 -75 -186t-191 -72zM735 1446q-50 0 -87.5 -42t-37.5 -97q0 -39 21.5 -64.5t62.5 -25.5q59 0 96 42.5t37 94.5q0 40 -24 66t-68 26z" />
    <glyph glyph-name="tilde" unicode="&#x2dc;" horiz-adv-x="1062" 
d="M799 1167q-43 0 -89 20.5t-89.5 43t-79.5 24.5q-36 0 -69 -12.5t-83 -52.5l-63 55q48 67 113.5 108.5t127.5 41.5q47 0 124 -42t130 -42q27 0 44 2.5t46 16.5t62 42l67 -53q-87 -152 -241 -152z" />
    <glyph glyph-name="tonos" unicode="&#x384;" horiz-adv-x="1091" 
d="M672 1108l-90 66l247 352l146 -92z" />
    <glyph glyph-name="dieresistonos" unicode="&#x385;" horiz-adv-x="1091" 
d="M662 1090l-103 53l221 383l168 -74zM481 1343q37 0 61.5 -24.5t24.5 -61.5q0 -49 -38 -85.5t-85 -36.5q-37 0 -60.5 24.5t-23.5 61.5q0 49 37 85.5t84 36.5zM973 1343q37 0 60.5 -24.5t23.5 -61.5q0 -49 -37 -85.5t-84 -36.5q-38 0 -62 24.5t-24 61.5q0 49 37.5 85.5
t85.5 36.5z" />
    <glyph glyph-name="Alphatonos" unicode="&#x386;" horiz-adv-x="1230" 
d="M946 0l-65 350h-559l-183 -350h-200l747 1386h176l268 -1386h-184zM748 1161h-13q-34 -78 -164 -327l-170 -328h453l-55 311q-3 17 -16.5 94t-21.5 134t-13 116zM98 1047l-90 65l248 352l145 -92z" />
    <glyph glyph-name="anoteleia" unicode="&#x387;" horiz-adv-x="514" 
d="M326 856q51 0 81.5 -31.5t30.5 -81.5q0 -67 -49 -116t-113 -49q-50 0 -81 32t-31 82q0 65 50 114.5t112 49.5z" />
    <glyph glyph-name="Epsilontonos" unicode="&#x388;" horiz-adv-x="1107" 
d="M-176 1047l-90 65l248 352l145 -92zM47 0l244 1382h872l-30 -165h-695l-73 -416h643l-29 -170h-643l-82 -459h745l-28 -172h-924z" />
    <glyph glyph-name="Etatonos" unicode="&#x389;" horiz-adv-x="1325" 
d="M936 0l111 639h-711l-111 -639h-178l244 1382h178l-104 -581h710l105 581h178l-244 -1382h-178zM-143 1047l-90 65l247 352l146 -92z" />
    <glyph glyph-name="Iotatonos" unicode="&#x38a;" horiz-adv-x="518" 
d="M86 0l244 1382h182l-244 -1382h-182zM-92 1047l-90 65l248 352l145 -92z" />
    <glyph glyph-name="Omicrontonos" unicode="&#x38c;" horiz-adv-x="1374" 
d="M858 1397q98 0 176 -25t131 -69t88 -107.5t50.5 -137t15.5 -159.5q0 -93 -11 -183t-36.5 -182t-63.5 -172t-95.5 -150t-129 -120t-168.5 -79t-209 -29q-248 0 -364.5 125.5t-116.5 351.5q0 203 49.5 374.5t141.5 296.5t231 195t311 70zM825 1225q-108 0 -196.5 -45
t-146 -118t-96.5 -170t-56 -196.5t-17 -201.5q0 -177 75.5 -260.5t246.5 -83.5q212 0 356 198.5t144 519.5q0 171 -75.5 264t-234.5 93zM-43 1047l-90 65l248 352l145 -92z" />
    <glyph glyph-name="Upsilontonos" unicode="&#x38e;" horiz-adv-x="1136" 
d="M594 727h18q21 37 54 89.5t59 91t66 97t53 78.5l207 299h213l-609 -854l-90 -528h-180l90 528l-295 854h201l108 -319q84 -244 105 -336zM-170 1047l-90 65l248 352l145 -92z" />
    <glyph glyph-name="Omegatonos" unicode="&#x38f;" horiz-adv-x="1406" 
d="M834 1227q-103 0 -194.5 -45.5t-161 -129.5t-110 -214t-40.5 -289q0 -158 60.5 -252.5t158.5 -126.5l-29 -170h-489l28 168h207l2 6q-125 122 -125 389q0 123 28.5 242.5t87.5 226.5t141.5 188.5t198.5 129t251 47.5q126 0 223 -41t157.5 -114.5t91 -169t30.5 -208.5
q0 -197 -81 -388t-229 -302l4 -6h224l-29 -168h-510l29 170q66 20 136 78t132 145.5t101.5 213.5t39.5 263q0 170 -85 263.5t-248 93.5zM-12 1047l-90 65l247 352l146 -92z" />
    <glyph glyph-name="iotadieresistonos" unicode="&#x390;" horiz-adv-x="540" 
d="M266 989h176l-141 -776q-10 -54 10 -68t88 -16l-18 -135q-52 -8 -105 -8q-96 3 -137 52.5t-20 158.5zM373 1090l-103 53l222 383l167 -74zM193 1343q37 0 61.5 -24.5t24.5 -61.5q0 -49 -38 -85.5t-85 -36.5q-37 0 -60.5 24.5t-23.5 61.5q0 49 37 85.5t84 36.5zM684 1343
q37 0 60.5 -24.5t23.5 -61.5q0 -49 -37 -85.5t-84 -36.5q-38 0 -62 24.5t-24 61.5q0 49 37.5 85.5t85.5 36.5z" />
    <glyph glyph-name="Alpha" unicode="&#x391;" horiz-adv-x="1230" 
d="M946 0l-65 350h-559l-183 -350h-200l747 1386h176l268 -1386h-184zM748 1161h-13q-34 -78 -164 -327l-170 -328h453l-55 311q-3 17 -16.5 94t-21.5 134t-13 116z" />
    <glyph glyph-name="Beta" unicode="&#x392;" horiz-adv-x="1216" 
d="M905 737l-4 -12q93 -26 148 -96.5t55 -175.5q0 -108 -40.5 -195t-111.5 -143t-166 -85.5t-206 -29.5h-533l244 1384h538q165 0 252.5 -74.5t87.5 -213.5q0 -122 -73 -222t-191 -137zM801 1219h-363l-69 -406h354q99 0 169 59t85 148q15 90 -30.5 144.5t-145.5 54.5z
M688 655h-348l-86 -487h350q133 0 210.5 63t98.5 179q20 115 -43.5 180t-181.5 65z" />
    <glyph glyph-name="Gamma" unicode="&#x393;" horiz-adv-x="1058" 
d="M47 0l244 1382h903l-31 -168h-725l-213 -1214h-178z" />
    <glyph glyph-name="Delta" unicode="&#x394;" horiz-adv-x="1271" 
d="M1155 0h-1210l751 1382h187zM764 1157h-14q-66 -138 -232 -465l-266 -522h672l-88 524q-58 342 -72 463z" />
    <glyph glyph-name="Epsilon" unicode="&#x395;" horiz-adv-x="1107" 
d="M47 0l244 1382h872l-30 -165h-695l-73 -416h643l-29 -170h-643l-82 -459h745l-28 -172h-924z" />
    <glyph glyph-name="Zeta" unicode="&#x396;" horiz-adv-x="1155" 
d="M-16 0l26 154l965 1058h-731l30 170h961l-29 -153l-952 -1061h784l-28 -168h-1026z" />
    <glyph glyph-name="Eta" unicode="&#x397;" horiz-adv-x="1325" 
d="M936 0l111 639h-711l-111 -639h-178l244 1382h178l-104 -581h710l105 581h178l-244 -1382h-178z" />
    <glyph glyph-name="Theta" unicode="&#x398;" horiz-adv-x="1411" 
d="M436 635l29 162h596l-29 -162h-596zM856 1399q496 0 496 -522q0 -91 -11.5 -179.5t-37.5 -177.5t-64.5 -167.5t-96 -146.5t-128.5 -117t-165.5 -77t-203.5 -28q-518 0 -518 487q0 155 31 294.5t92.5 255t148.5 200t204 131.5t253 47zM844 1227q-110 0 -201.5 -46.5
t-151.5 -121t-101 -171.5t-59 -195t-18 -195q0 -177 85 -262.5t255 -85.5q108 0 197 43.5t147 114.5t98 166t57 194t17 202q0 357 -325 357z" />
    <glyph glyph-name="Iota" unicode="&#x399;" horiz-adv-x="518" 
d="M86 0l244 1382h182l-244 -1382h-182z" />
    <glyph glyph-name="Kappa" unicode="&#x39a;" horiz-adv-x="1124" 
d="M469 1382l-100 -569h157l545 569h221l-622 -647l397 -735h-209l-336 643h-184l-113 -643h-178l244 1382h178z" />
    <glyph glyph-name="Lambda" unicode="&#x39b;" horiz-adv-x="1275" 
d="M762 1145l-10 -2q-56 -121 -226 -438l-374 -705h-203l758 1382h176l276 -1382h-186l-135 696q-7 36 -20.5 108t-22 116.5t-18 107.5t-15.5 117z" />
    <glyph glyph-name="Mu" unicode="&#x39c;" horiz-adv-x="1705" 
d="M827 385h13q123 233 323 551l285 446h227l-202 -1382h-179l172 1116h-8q-88 -158 -213 -354l-360 -565h-158l-158 551q-74 254 -90 348h-8l-242 -1096h-178l305 1382h211l133 -473q88 -318 127 -524z" />
    <glyph glyph-name="Nu" unicode="&#x39d;" horiz-adv-x="1339" 
d="M991 293l8 2l191 1087h182l-244 -1382h-170l-358 715q-129 256 -174 372l-8 -4l-189 -1083h-182l244 1382h170l327 -655q105 -209 203 -434z" />
    <glyph glyph-name="Xi" unicode="&#x39e;" horiz-adv-x="1118" 
d="M14 178h1010l-31 -178h-1009zM225 803h787l-31 -172h-786zM1157 1210h-938l31 172h938z" />
    <glyph glyph-name="Omicron" unicode="&#x39f;" horiz-adv-x="1374" 
d="M858 1397q98 0 176 -25t131 -69t88 -107.5t50.5 -137t15.5 -159.5q0 -93 -11 -183t-36.5 -182t-63.5 -172t-95.5 -150t-129 -120t-168.5 -79t-209 -29q-248 0 -364.5 125.5t-116.5 351.5q0 203 49.5 374.5t141.5 296.5t231 195t311 70zM825 1225q-108 0 -196.5 -45
t-146 -118t-96.5 -170t-56 -196.5t-17 -201.5q0 -177 75.5 -260.5t246.5 -83.5q212 0 356 198.5t144 519.5q0 171 -75.5 264t-234.5 93z" />
    <glyph glyph-name="Pi" unicode="&#x3a0;" horiz-adv-x="1320" 
d="M932 0l213 1217h-707l-213 -1217h-178l244 1384h1063l-244 -1384h-178z" />
    <glyph glyph-name="Rho" unicode="&#x3a1;" horiz-adv-x="1167" 
d="M672 510h-359l-88 -510h-178l244 1382h540q194 0 292 -100t98 -268q0 -66 -15.5 -131t-55 -133.5t-99.5 -120.5t-158 -85.5t-221 -33.5zM805 1217h-367l-94 -539h358q55 0 107 14.5t99 44.5t80.5 82.5t43.5 120.5q19 125 -43 201t-184 76z" />
    <glyph glyph-name="Sigma" unicode="&#x3a3;" horiz-adv-x="1155" 
d="M10 154l506 581l-299 496l29 153h989l-31 -170h-772l293 -479l-489 -567h827l-29 -168h-1050z" />
    <glyph glyph-name="Tau" unicode="&#x3a4;" horiz-adv-x="1140" 
d="M795 1217l-213 -1217h-179l213 1217h-454l31 165h1079l-31 -165h-446z" />
    <glyph glyph-name="Upsilon" unicode="&#x3a5;" horiz-adv-x="1136" 
d="M594 727h18q21 37 54 89.5t59 91t66 97t53 78.5l207 299h213l-609 -854l-90 -528h-180l90 528l-295 854h201l108 -319q84 -244 105 -336z" />
    <glyph glyph-name="Phi" unicode="&#x3a6;" horiz-adv-x="1531" 
d="M1016 1384l-10 -57q128 -11 221.5 -53.5t146.5 -110.5t78 -148.5t25 -176.5q0 -99 -23.5 -194t-77 -185t-131 -160.5t-194 -119.5t-258.5 -64l-21 -115h-182l20 113q-124 10 -218 50.5t-152 105t-86.5 147.5t-28.5 182q0 142 48 269t136.5 224.5t221.5 160t294 75.5
l11 57h180zM797 1178q-114 -9 -209 -61.5t-156 -132.5t-94 -178.5t-33 -203.5q0 -147 85 -234t247 -106zM979 1180l-160 -916q204 18 339.5 172.5t135.5 392.5q0 147 -82 244t-233 107z" />
    <glyph glyph-name="Chi" unicode="&#x3a7;" horiz-adv-x="1220" 
d="M422 1382l244 -526l417 526h213l-548 -673l346 -709h-209l-258 571l-455 -571h-223l590 719l-318 663h201z" />
    <glyph glyph-name="Psi" unicode="&#x3a8;" horiz-adv-x="1406" 
d="M535 0l59 338q-256 24 -363.5 178.5t-62.5 407.5l82 460h180l-84 -471q-35 -195 34 -292t243 -121l155 889h183l-156 -887q173 15 273 118.5t134 294.5l84 469h179l-78 -469q-20 -121 -64.5 -219.5t-117.5 -178t-185 -126t-254 -53.5l-59 -338h-182z" />
    <glyph glyph-name="Omega" unicode="&#x3a9;" horiz-adv-x="1406" 
d="M834 1227q-103 0 -194.5 -45.5t-161 -129.5t-110 -214t-40.5 -289q0 -158 60.5 -252.5t158.5 -126.5l-29 -170h-489l28 168h207l2 6q-125 122 -125 389q0 123 28.5 242.5t87.5 226.5t141.5 188.5t198.5 129t251 47.5q126 0 223 -41t157.5 -114.5t91 -169t30.5 -208.5
q0 -197 -81 -388t-229 -302l4 -6h224l-29 -168h-510l29 170q66 20 136 78t132 145.5t101.5 213.5t39.5 263q0 170 -85 263.5t-248 93.5z" />
    <glyph glyph-name="Iotadieresis" unicode="&#x3aa;" horiz-adv-x="518" 
d="M86 0l244 1382h182l-244 -1382h-182zM289 1759q37 0 61.5 -24.5t24.5 -61.5q0 -49 -38 -86t-85 -37q-37 0 -60.5 24.5t-23.5 61.5q0 49 37.5 86t83.5 37zM641 1759q37 0 60.5 -24.5t23.5 -61.5q0 -49 -37.5 -86t-83.5 -37q-37 0 -61.5 24.5t-24.5 61.5q0 49 38 86t85 37z
" />
    <glyph glyph-name="Upsilondieresis" unicode="&#x3ab;" horiz-adv-x="1136" 
d="M594 727h18q21 37 54 89.5t59 91t66 97t53 78.5l207 299h213l-609 -854l-90 -528h-180l90 528l-295 854h201l108 -319q84 -244 105 -336zM610 1759q37 0 61.5 -24.5t24.5 -61.5q0 -49 -38 -86t-85 -37q-37 0 -60.5 24.5t-23.5 61.5q0 49 37.5 86t83.5 37zM963 1759
q37 0 60.5 -24.5t23.5 -61.5q0 -49 -37.5 -86t-83.5 -37q-37 0 -61.5 24.5t-24.5 61.5q0 49 38 86t85 37z" />
    <glyph glyph-name="alphatonos" unicode="&#x3ac;" horiz-adv-x="1114" 
d="M473 139q81 0 148.5 42t110.5 111t66 154t23 175q0 104 -56.5 166.5t-168.5 62.5q-60 0 -117 -30t-104.5 -87.5t-77 -152t-29.5 -211.5q0 -110 50 -170.5t155 -59.5zM1061 991l-174 -991h-135q-25 60 -9 147h-12q-56 -83 -141 -124t-170 -41q-168 0 -249 97t-81 269
q0 129 35 248t98 211t157.5 146.5t205.5 54.5q204 0 284 -144h9q11 86 49 127h133zM659 1108l-90 66l248 352l146 -92z" />
    <glyph glyph-name="epsilontonos" unicode="&#x3ad;" horiz-adv-x="935" 
d="M436 -16q-188 0 -281.5 66t-93.5 177q0 26 4 53t17.5 61.5t35.5 64t60.5 57.5t89.5 45l2 8q-58 23 -89 66t-31 96q0 145 113 236.5t306 91.5q149 0 241.5 -58.5t92.5 -171.5q0 -38 -12 -90h-156q4 49 -11 82.5t-45.5 50t-62.5 23t-73 6.5q-89 0 -147 -47t-58 -117
q0 -48 33.5 -69t83.5 -21h190l-29 -154h-190q-75 0 -126.5 -49.5t-51.5 -124.5q0 -57 49.5 -95t146.5 -38q49 0 91 10.5t80 33t62 65t30 100.5h157v-25q0 -83 -34 -147.5t-93 -104.5t-135.5 -60.5t-165.5 -20.5zM555 1108l-90 66l248 352l145 -92z" />
    <glyph glyph-name="etatonos" unicode="&#x3ae;" horiz-adv-x="1077" 
d="M580 1108l-91 66l248 352l146 -92zM690 1008q86 0 147.5 -25.5t93.5 -66t46.5 -99t13 -115.5t-13.5 -124l-154 -877h-180l154 872q13 85 6.5 149.5t-50.5 102t-126 37.5q-54 0 -102 -21t-83.5 -55.5t-63.5 -79.5t-45.5 -91t-25.5 -93l-94 -522h-176l174 991h131
q28 -57 -2 -184h8q35 58 82 100t94.5 62.5t88 29.5t77.5 9z" />
    <glyph glyph-name="iotatonos" unicode="&#x3af;" horiz-adv-x="540" 
d="M365 1108l-91 66l248 352l146 -92zM266 989h176l-141 -776q-10 -54 10 -68t88 -16l-18 -135q-52 -8 -105 -8q-96 3 -137 52.5t-20 158.5z" />
    <glyph glyph-name="upsilondieresistonos" unicode="&#x3b0;" horiz-adv-x="1056" 
d="M1030 991l-108 -608q-72 -397 -473 -397q-199 0 -288.5 110.5t-54.5 311.5l105 583h178l-104 -590q-47 -260 184 -260q235 0 281 260l104 590h176zM618 1090l-102 53l221 383l168 -74zM438 1343q37 0 61.5 -24.5t24.5 -61.5q0 -49 -38 -85.5t-85 -36.5q-37 0 -60.5 24.5
t-23.5 61.5q0 49 37 85.5t84 36.5zM930 1343q37 0 60.5 -24.5t23.5 -61.5q0 -49 -37 -85.5t-84 -36.5q-38 0 -62 24.5t-24 61.5q0 49 37.5 85.5t85.5 36.5z" />
    <glyph glyph-name="alpha" unicode="&#x3b1;" horiz-adv-x="1114" 
d="M473 139q81 0 148.5 42t110.5 111t66 154t23 175q0 104 -56.5 166.5t-168.5 62.5q-60 0 -117 -30t-104.5 -87.5t-77 -152t-29.5 -211.5q0 -110 50 -170.5t155 -59.5zM1061 991l-174 -991h-135q-25 60 -9 147h-12q-56 -83 -141 -124t-170 -41q-168 0 -249 97t-81 269
q0 129 35 248t98 211t157.5 146.5t205.5 54.5q204 0 284 -144h9q11 86 49 127h133z" />
    <glyph glyph-name="beta" unicode="&#x3b2;" horiz-adv-x="1085" 
d="M817 860l-2 -10q184 -59 184 -307q0 -116 -32.5 -216.5t-94 -177t-158 -121t-216.5 -44.5q-91 0 -162.5 38.5t-104.5 94.5h-8l-76 -445h-170l236 1338q17 99 52 178.5t90 142t137 97t184 34.5q168 0 259 -80.5t91 -218.5q0 -54 -17 -107.5t-66.5 -110t-125.5 -85.5z
M676 1315q-56 0 -102.5 -19t-76 -48t-51.5 -69.5t-33 -76t-18 -74.5l-104 -596q-8 -54 -8 -78q0 -100 54 -158.5t167 -58.5q133 0 225 109.5t92 283.5q0 74 -17.5 124.5t-50.5 76t-70 35.5t-87 10h-96l26 146h117q61 0 110.5 36t74 86.5t24.5 100.5q0 82 -50.5 126
t-125.5 44z" />
    <glyph glyph-name="gamma" unicode="&#x3b3;" horiz-adv-x="933" 
d="M438 250h13q26 77 72.5 179.5t82.5 166.5l211 393h189l-504 -928l-84 -479h-174l78 449l-144 768q-7 35 -26.5 44t-67.5 11l4 119q82 31 131 31q51 0 81 -33t44 -99l53 -270q41 -231 41 -352z" />
    <glyph glyph-name="delta" unicode="&#x3b4;" horiz-adv-x="1091" 
d="M639 1270l-4 -10q371 -282 371 -658q0 -154 -42.5 -274t-117 -194t-169.5 -112t-206 -38q-188 0 -283.5 101t-95.5 288q0 90 20 175.5t65 165.5t110.5 139.5t163.5 95.5t217 36q-1 1 -16 17.5t-19 20.5l-20 20t-24.5 24t-28 25.5t-35 30t-40 32t-49.5 38t-57 41.5t-68 48
l25 143h751l-26 -155h-422zM657 850q-178 0 -281.5 -132t-103.5 -339q0 -117 59.5 -179.5t162.5 -62.5q145 0 239 131.5t94 333.5q0 131 -63 240q-52 8 -107 8z" />
    <glyph glyph-name="epsilon" unicode="&#x3b5;" horiz-adv-x="935" 
d="M436 -16q-188 0 -281.5 66t-93.5 177q0 26 4 53t17.5 61.5t35.5 64t60.5 57.5t89.5 45l2 8q-58 23 -89 66t-31 96q0 145 113 236.5t306 91.5q149 0 241.5 -58.5t92.5 -171.5q0 -38 -12 -90h-156q4 49 -11 82.5t-45.5 50t-62.5 23t-73 6.5q-89 0 -147 -47t-58 -117
q0 -48 33.5 -69t83.5 -21h190l-29 -154h-190q-75 0 -126.5 -49.5t-51.5 -124.5q0 -57 49.5 -95t146.5 -38q49 0 91 10.5t80 33t62 65t30 100.5h157v-25q0 -83 -34 -147.5t-93 -104.5t-135.5 -60.5t-165.5 -20.5z" />
    <glyph glyph-name="zeta" unicode="&#x3b6;" horiz-adv-x="860" 
d="M784 1260v10h-489l27 155h749l-22 -135q-320 -234 -539 -487t-219 -383q0 -86 64 -134t286 -139q81 -33 114 -68t33 -81q0 -56 -74 -158t-163 -186l-105 80q127 160 127 209q0 22 -24.5 36.5t-124.5 55.5q-50 21 -80 34.5t-68.5 34t-61 38t-46.5 42.5t-36.5 52t-21 62
t-8.5 77q0 74 40.5 170.5t120.5 210.5t214.5 246t306.5 258z" />
    <glyph glyph-name="eta" unicode="&#x3b7;" horiz-adv-x="1077" 
d="M690 1008q86 0 147.5 -25.5t93.5 -66t46.5 -99t13 -115.5t-13.5 -124l-154 -877h-180l154 872q13 85 6.5 149.5t-50.5 102t-126 37.5q-54 0 -102 -21t-83.5 -55.5t-63.5 -79.5t-45.5 -91t-25.5 -93l-94 -522h-176l174 991h131q28 -57 -2 -184h8q35 58 82 100t94.5 62.5
t88 29.5t77.5 9z" />
    <glyph glyph-name="theta" unicode="&#x3b8;" horiz-adv-x="1091" 
d="M723 1462q98 0 166.5 -31t106 -90t53.5 -132t16 -169q0 -87 -7 -177t-26 -196t-47.5 -200.5t-76.5 -184.5t-108.5 -155t-147 -104t-189.5 -39q-78 0 -137.5 20t-99.5 55.5t-65.5 89.5t-36.5 117.5t-11 143.5q0 76 8 162t28 189.5t50.5 200.5t79.5 189t110 160t147 109.5
t187 41.5zM489 135q65 0 117 26.5t90 72.5t69 119.5t53 156t42 192.5h-543q-30 -163 -30 -290q0 -136 46.5 -206.5t155.5 -70.5zM696 1311q-73 0 -131.5 -35.5t-100 -102.5t-70.5 -147t-52 -184h541q14 119 14 188q0 135 -46.5 208t-154.5 73z" />
    <glyph glyph-name="iota" unicode="&#x3b9;" horiz-adv-x="540" 
d="M266 989h176l-141 -776q-10 -54 10 -68t88 -16l-18 -135q-52 -8 -105 -8q-96 3 -137 52.5t-20 158.5z" />
    <glyph glyph-name="kappa" unicode="&#x3ba;" horiz-adv-x="954" 
d="M385 991l-72 -405h103l399 403h209l-451 -457l293 -532h-202l-234 440h-143l-76 -440h-174l174 991h174z" />
    <glyph glyph-name="lambda" unicode="&#x3bb;" horiz-adv-x="925" 
d="M653 1219l119 -1026q4 -38 15 -50t42 -14h33l-4 -119q-54 -26 -121 -26q-61 0 -91.5 33.5t-41.5 134.5l-41 335q-31 246 -31 363h-10q-101 -255 -157 -365l-246 -485h-185q108 212 515 993h51l-27 205q-8 69 -36.5 89t-94.5 20h-49l22 151h107q56 0 95.5 -11.5t63 -30
t39 -51.5t21.5 -64.5t12 -81.5z" />
    <glyph glyph-name="nu" unicode="&#x3bd;" horiz-adv-x="968" 
d="M438 193l236 397q76 127 109.5 210t52.5 187h163q-23 -132 -57 -223t-113 -217l-342 -551h-180l-184 993h180l59 -354q54 -326 68 -442h8z" />
    <glyph glyph-name="xi" unicode="&#x3be;" horiz-adv-x="876" 
d="M682 1460q65 0 122.5 -11t107.5 -35t79 -67t29 -100q0 -45 -16 -94h-148q2 46 -14 77.5t-46 46.5t-60 20.5t-68 5.5q-120 0 -190 -75.5t-70 -180.5q0 -156 208 -156h203l-26 -156h-211q-93 0 -165.5 -48t-108.5 -120.5t-36 -152.5q0 -24 5 -45t18.5 -39.5t24.5 -32
t37 -29.5t41 -24.5t52 -24t54 -22t61 -23.5q126 -49 172.5 -89.5t46.5 -90.5q0 -58 -50 -134.5t-173 -203.5l-108 74q135 175 135 209q0 22 -32.5 41.5t-119.5 50.5q-181 65 -261.5 150t-80.5 214q0 126 66 235t198 169l2 12q-62 25 -96.5 84t-34.5 143q0 51 14 105.5
t48 112t84 102.5t130 73.5t177 28.5z" />
    <glyph glyph-name="omicron" unicode="&#x3bf;" horiz-adv-x="1091" 
d="M618 1006q103 0 180 -31.5t121.5 -87.5t65.5 -125.5t21 -153.5q0 -89 -16.5 -174t-56 -167.5t-98 -144.5t-149.5 -100t-203 -38q-202 0 -296.5 100t-94.5 278q0 105 20.5 200t63 176.5t104 140.5t148 93t190.5 34zM606 850q-84 0 -150 -40.5t-105 -108.5t-59 -150
t-20 -172q0 -118 58 -182t172 -64q139 0 231 128t92 345q0 114 -53 179t-166 65z" />
    <glyph glyph-name="pi" unicode="&#x3c0;" horiz-adv-x="1095" 
d="M864 838h-504l-147 -838h-176l174 989h858l-174 -989h-178z" />
    <glyph glyph-name="rho" unicode="&#x3c1;" horiz-adv-x="1081" 
d="M489 139q151 0 243.5 132.5t92.5 346.5q0 118 -61 171t-154 53q-253 0 -319 -346q-10 -53 -13.5 -98.5t4.5 -95t30 -84t67 -57t110 -22.5zM-47 -416l156 891q15 89 40.5 164t68.5 144.5t99.5 118t138 77.5t179.5 29q178 0 274.5 -108.5t96.5 -278.5q0 -102 -20 -196
t-61 -174.5t-99 -139.5t-139.5 -93t-178.5 -34q-95 0 -167.5 35t-107.5 98h-10l-94 -533h-176z" />
    <glyph glyph-name="sigma1" unicode="&#x3c2;" horiz-adv-x="915" 
d="M588 844q-66 0 -121 -25t-91.5 -66.5t-62.5 -95.5t-37.5 -111t-11.5 -114q0 -85 51 -132.5t189 -106.5q131 -57 178 -103t47 -94q0 -85 -68.5 -175t-158.5 -163l-107 76q129 167 129 205q0 26 -30 49t-99 51q-180 72 -246.5 151t-66.5 199q0 127 34.5 238.5t98.5 196.5
t164 134.5t223 49.5q146 0 240 -60.5t94 -173.5q0 -35 -14 -86h-150q6 59 -22.5 95.5t-69 48.5t-92.5 12z" />
    <glyph glyph-name="sigma" unicode="&#x3c3;" horiz-adv-x="1101" 
d="M946 846l-8 -10q68 -82 68 -228q0 -48 -7 -101t-24.5 -115t-43.5 -118.5t-68.5 -110t-95 -93t-127 -63t-161.5 -23.5q-377 0 -377 374q0 183 61 324.5t186.5 225t299.5 83.5h490l-27 -153h-63q-59 0 -103 8zM623 844q-110 0 -189.5 -67.5t-116 -171.5t-36.5 -230
q0 -238 217 -238q99 0 177 70.5t117 177.5t39 225q0 234 -208 234z" />
    <glyph glyph-name="tau" unicode="&#x3c4;" horiz-adv-x="798" 
d="M127 989l696 2l-26 -153h-299l-92 -519q-18 -105 13 -145.5t124 -40.5q78 0 151 8l-24 -141q-84 -16 -176 -16q-60 0 -103 6.5t-78 21.5t-55 40t-30.5 63.5t-8.5 90t14 120.5l91 512h-224z" />
    <glyph glyph-name="upsilon" unicode="&#x3c5;" horiz-adv-x="1056" 
d="M1030 991l-108 -608q-72 -397 -473 -397q-199 0 -288.5 110.5t-54.5 311.5l105 583h178l-104 -590q-47 -260 184 -260q235 0 281 260l104 590h176z" />
    <glyph glyph-name="phi" unicode="&#x3c6;" horiz-adv-x="1302" 
d="M803 846l-125 -709q164 10 263 139.5t99 331.5q0 235 -237 238zM506 143l151 861h162q398 0 398 -390q0 -91 -19.5 -177t-64 -166t-108.5 -140.5t-160 -98.5t-212 -42l-73 -410h-174l71 408q-106 5 -183.5 37t-121.5 85.5t-64 118t-20 142.5q0 92 22.5 183.5t68.5 178.5
t129 151t192 87l24 -131q-126 -54 -191 -177t-65 -284q0 -116 58.5 -174t179.5 -62z" />
    <glyph glyph-name="chi" unicode="&#x3c7;" horiz-adv-x="956" 
d="M662 0l-191 391l-324 -391h-208l450 518l-252 473h197l168 -348l293 348h209l-418 -473l270 -518h-194z" />
    <glyph glyph-name="psi" unicode="&#x3c8;" horiz-adv-x="1255" 
d="M375 -420l71 406q-203 12 -290.5 132.5t-49.5 338.5l95 534h180l-100 -565q-23 -133 23 -202.5t171 -82.5l150 850h176l-150 -850q263 20 310 285l100 565h178l-100 -569q-38 -213 -162 -326t-354 -114l-72 -402h-176z" />
    <glyph glyph-name="omega" unicode="&#x3c9;" horiz-adv-x="1554" 
d="M1468 643q0 -86 -13.5 -171t-49 -175.5t-89.5 -158t-143 -111t-202 -43.5q-93 0 -163.5 45.5t-92.5 117.5h-10q-131 -163 -328 -163q-293 0 -293 338q0 115 20.5 217t63 187.5t104 147.5t148 97t190.5 35l-14 -152q-84 0 -150.5 -44.5t-106.5 -119t-60.5 -166.5
t-20.5 -194q0 -94 39 -143.5t131 -49.5q47 0 86.5 16.5t66 42.5t46.5 61.5t31 70t18 71.5l51 289h172l-51 -291q-11 -48 -8 -95t16.5 -83.5t49 -59t89.5 -22.5q92 0 162 68.5t105.5 180t35.5 245.5q0 40 -10.5 75t-33.5 67t-66.5 52.5t-102.5 24.5l13 156
q103 -2 177.5 -33.5t115 -84.5t59 -113.5t18.5 -131.5z" />
    <glyph glyph-name="iotadieresis" unicode="&#x3ca;" horiz-adv-x="540" 
d="M266 989h176l-141 -776q-10 -54 10 -68t88 -16l-18 -135q-52 -8 -105 -8q-96 3 -137 52.5t-20 158.5zM231 1370q37 0 60.5 -24.5t23.5 -61.5q0 -49 -36.5 -86t-83.5 -37q-38 0 -62 25.5t-24 62.5q0 47 38 84t84 37zM582 1370q37 0 61.5 -24.5t24.5 -61.5q0 -49 -37.5 -86
t-85.5 -37q-36 0 -60 25.5t-24 62.5q0 47 38 84t83 37z" />
    <glyph glyph-name="upsilondieresis" unicode="&#x3cb;" horiz-adv-x="1056" 
d="M1030 991l-108 -608q-72 -397 -473 -397q-199 0 -288.5 110.5t-54.5 311.5l105 583h178l-104 -590q-47 -260 184 -260q235 0 281 260l104 590h176zM506 1370q37 0 60.5 -24.5t23.5 -61.5q0 -49 -36.5 -86t-84.5 -37q-38 0 -62 25.5t-24 62.5q0 47 38.5 84t84.5 37z
M856 1370q37 0 61.5 -24.5t24.5 -61.5q0 -49 -37.5 -86t-85.5 -37q-36 0 -60 25.5t-24 62.5q0 47 38 84t83 37z" />
    <glyph glyph-name="omicrontonos" unicode="&#x3cc;" horiz-adv-x="1091" 
d="M618 1006q103 0 180 -31.5t121.5 -87.5t65.5 -125.5t21 -153.5q0 -89 -16.5 -174t-56 -167.5t-98 -144.5t-149.5 -100t-203 -38q-202 0 -296.5 100t-94.5 278q0 105 20.5 200t63 176.5t104 140.5t148 93t190.5 34zM606 850q-84 0 -150 -40.5t-105 -108.5t-59 -150
t-20 -172q0 -118 58 -182t172 -64q139 0 231 128t92 345q0 114 -53 179t-166 65zM672 1108l-90 66l247 352l146 -92z" />
    <glyph glyph-name="upsilontonos" unicode="&#x3cd;" horiz-adv-x="1056" 
d="M1030 991l-108 -608q-72 -397 -473 -397q-199 0 -288.5 110.5t-54.5 311.5l105 583h178l-104 -590q-47 -260 184 -260q235 0 281 260l104 590h176zM653 1108l-90 66l248 352l145 -92z" />
    <glyph glyph-name="omegatonos" unicode="&#x3ce;" horiz-adv-x="1554" 
d="M1468 643q0 -86 -13.5 -171t-49 -175.5t-89.5 -158t-143 -111t-202 -43.5q-93 0 -163.5 45.5t-92.5 117.5h-10q-131 -163 -328 -163q-293 0 -293 338q0 115 20.5 217t63 187.5t104 147.5t148 97t190.5 35l-14 -152q-84 0 -150.5 -44.5t-106.5 -119t-60.5 -166.5
t-20.5 -194q0 -94 39 -143.5t131 -49.5q47 0 86.5 16.5t66 42.5t46.5 61.5t31 70t18 71.5l51 289h172l-51 -291q-11 -48 -8 -95t16.5 -83.5t49 -59t89.5 -22.5q92 0 162 68.5t105.5 180t35.5 245.5q0 40 -10.5 75t-33.5 67t-66.5 52.5t-102.5 24.5l13 156
q103 -2 177.5 -33.5t115 -84.5t59 -113.5t18.5 -131.5zM899 1108l-90 66l248 352l145 -92z" />
    <glyph glyph-name="Sampigreek" unicode="&#x3e0;" horiz-adv-x="1310" 
d="M197 1239l34 117q236 -12 417 -79t295.5 -179.5t172.5 -261t58 -328.5q0 -290 -160 -660l-123 21q106 305 106 534q0 70 -8 127l-610 -321l-60 129l646 328q-36 118 -74 176q-30 -16 -183.5 -96t-289 -150.5t-148.5 -77.5l-69 129l606 305q-173 234 -610 287z" />
    <glyph glyph-name="sampigreek" unicode="&#x3e1;" horiz-adv-x="1157" 
d="M160 907l30 111q396 -20 600.5 -215t204.5 -508q0 -235 -135 -561l-117 18q54 153 73.5 254.5t19.5 202.5q0 38 -7 96l-518 -270l-51 119l549 276q-35 102 -59 141l-527 -274l-61 117l512 260q-146 189 -514 233z" />
    <glyph glyph-name="endash" unicode="&#x2013;" horiz-adv-x="1032" 
d="M51 449l27 145h921l-26 -145h-922z" />
    <glyph glyph-name="emdash" unicode="&#x2014;" horiz-adv-x="2025" 
d="M74 449l26 145h1872l-26 -145h-1872z" />
    <glyph glyph-name="afii00208" unicode="&#x2015;" horiz-adv-x="2004" 
d="M72 449l26 145h1854l-27 -145h-1853z" />
    <glyph glyph-name="quoteleft" unicode="&#x2018;" horiz-adv-x="518" 
d="M352 965q-52 0 -83 30t-31 78q0 51 34 103l222 327l67 -26l-121 -242q34 -10 54 -40.5t20 -68.5q0 -67 -45.5 -114t-116.5 -47z" />
    <glyph glyph-name="quoteright" unicode="&#x2019;" horiz-adv-x="518" 
d="M434 1493q52 0 82.5 -29.5t30.5 -77.5q0 -54 -33 -104l-221 -328l-68 27l121 242q-34 11 -54 39.5t-20 66.5q0 66 49.5 115t112.5 49z" />
    <glyph glyph-name="quotesinglbase" unicode="&#x201a;" horiz-adv-x="522" 
d="M219 254q53 0 84 -30.5t31 -80.5q0 -47 -35 -100l-262 -401l-70 28l162 314q-33 11 -52.5 39.5t-19.5 66.5q0 66 49.5 115t112.5 49z" />
    <glyph glyph-name="quotedblleft" unicode="&#x201c;" horiz-adv-x="841" 
d="M352 965q-52 0 -83 30t-31 78q0 51 34 103l222 327l67 -26l-121 -242q34 -10 54 -40.5t20 -68.5q0 -65 -49.5 -113t-112.5 -48zM676 965q-52 0 -83.5 30t-31.5 78q0 50 35 103l221 327l68 -26l-121 -242q34 -10 54 -40.5t20 -68.5q0 -65 -49.5 -113t-112.5 -48z" />
    <glyph glyph-name="quotedblright" unicode="&#x201d;" horiz-adv-x="841" 
d="M758 1493q52 0 82 -29.5t30 -77.5q0 -55 -32 -104l-222 -328l-67 27l121 242q-34 11 -54 39.5t-20 66.5q0 66 49.5 115t112.5 49zM434 1493q52 0 82.5 -29.5t30.5 -77.5q0 -54 -33 -104l-221 -328l-68 27l121 242q-34 11 -54 39.5t-20 66.5q0 66 49.5 115t112.5 49z" />
    <glyph glyph-name="quotedblbase" unicode="&#x201e;" horiz-adv-x="851" 
d="M219 254q53 0 84 -30.5t31 -80.5q0 -47 -35 -100l-262 -401l-70 28l162 314q-33 11 -52.5 39.5t-19.5 66.5q0 66 49.5 115t112.5 49zM559 254q53 0 84 -30.5t31 -80.5q0 -47 -35 -100l-262 -401l-70 28l162 314q-34 10 -53 39t-19 67q0 65 50 114.5t112 49.5z" />
    <glyph glyph-name="dagger" unicode="&#x2020;" horiz-adv-x="1142" 
d="M711 879l-193 -1098h-186l192 1098h-319l28 157h318l65 377h187l-66 -377h316l-29 -157h-313z" />
    <glyph glyph-name="daggerdbl" unicode="&#x2021;" horiz-adv-x="1142" 
d="M451 463l73 416h-319l28 157h318l65 377h187l-66 -377h316l-29 -157h-313l-74 -416h313l-26 -158h-314l-92 -524h-186l92 524h-320l27 158h320z" />
    <glyph glyph-name="bullet" unicode="&#x2022;" horiz-adv-x="1034" 
d="M578 823q102 0 168.5 -68.5t66.5 -170.5q0 -135 -103.5 -237.5t-234.5 -102.5q-102 0 -167.5 67.5t-65.5 169.5q0 137 100 239.5t236 102.5z" />
    <glyph glyph-name="trianglebullet" unicode="&#x2023;" horiz-adv-x="1036" 
d="M166 977l805 -410l-805 -432v842z" />
    <glyph glyph-name="ellipsis" unicode="&#x2026;" horiz-adv-x="1548" 
d="M219 254q51 0 82 -31.5t31 -81.5q0 -67 -49 -116.5t-113 -49.5q-50 0 -81.5 32.5t-31.5 82.5q0 65 50 114.5t112 49.5zM737 254q51 0 82 -31.5t31 -81.5q0 -67 -49 -116.5t-113 -49.5q-50 0 -81.5 32.5t-31.5 82.5q0 65 50 114.5t112 49.5zM1251 254q49 0 80 -31.5
t31 -81.5q0 -67 -49 -116.5t-111 -49.5q-50 0 -81 32.5t-31 82.5q0 65 49.5 114.5t111.5 49.5z" />
    <glyph glyph-name="perthousand" unicode="&#x2030;" horiz-adv-x="2586" 
d="M481 -57h-151l1034 1503h156zM551 1397q161 0 233 -86.5t72 -229.5q0 -66 -14.5 -134t-48 -136t-82 -120t-124 -85t-167.5 -33q-154 0 -225.5 73.5t-71.5 201.5q0 154 50.5 277.5t149 197.5t228.5 74zM541 1270q-83 0 -145.5 -55t-93 -143t-30.5 -193q0 -181 168 -181
q106 0 184 106.5t78 280.5q0 185 -161 185zM1430 815q161 0 233 -86t72 -229q0 -66 -14.5 -134t-48 -136t-82.5 -120t-124.5 -85t-167.5 -33q-297 0 -297 274q0 156 50.5 280t149 196.5t229.5 72.5zM1419 688q-83 0 -145 -55t-92.5 -143t-30.5 -193q0 -180 168 -180
q106 0 184 106.5t78 280.5q0 184 -162 184zM2241 815q161 0 233 -86t72 -229q0 -66 -14.5 -134t-48 -136t-82.5 -120t-124.5 -85t-167.5 -33q-297 0 -297 274q0 156 50.5 280t149 196.5t229.5 72.5zM2230 688q-83 0 -145 -55t-92.5 -143t-30.5 -193q0 -180 168 -180
q106 0 184 106.5t78 280.5q0 184 -162 184z" />
    <glyph glyph-name="guilsinglleft" unicode="&#x2039;" horiz-adv-x="708" 
d="M301 455l203 -349l-115 -86l-276 420l10 58l424 411l84 -78z" />
    <glyph glyph-name="guilsinglright" unicode="&#x203a;" horiz-adv-x="673" 
d="M57 106l326 363l-199 362l115 78l274 -411l-10 -58l-422 -420z" />
    <glyph glyph-name="fraction" unicode="&#x2044;" horiz-adv-x="477" 
d="M-190 -57h-152l1034 1503h156z" />
    <glyph glyph-name="fraction" unicode="&#x2215;" horiz-adv-x="477" 
d="M-190 -57h-152l1034 1503h156z" />
    <glyph glyph-name="foursuperior" unicode="&#x2074;" horiz-adv-x="768" 
d="M641 1573h123l-86 -494h133l-23 -127h-133l-32 -186h-156l33 186h-418l16 99zM305 1079h217l45 260z" />
    <glyph glyph-name="Euro" unicode="&#x20ac;" 
d="M831 1348q180 0 293 -70.5t113 -204.5q0 -31 -10 -76h-154q3 92 -60.5 140.5t-189.5 48.5q-165 0 -270.5 -99t-138.5 -276h565l-16 -102h-844l16 102h94q44 251 203.5 394t398.5 143zM682 141q155 0 224 58.5t89 177.5h156q0 -6 1 -17t1 -16q0 -162 -131.5 -262
t-333.5 -100q-253 0 -379.5 123t-126.5 346q0 21 4 71h-102l18 101h842l-18 -101h-557q-2 -23 -2 -65q0 -153 75 -234.5t240 -81.5z" />
    <glyph glyph-name="trademark" unicode="&#x2122;" horiz-adv-x="1499" 
d="M696 621v761h160l182 -370h11l182 370h155v-761h-135v530h-8l-153 -334h-95l-151 322h-8v-518h-140zM639 1382v-106h-221v-655h-137v655h-199v106h557z" />
    <glyph glyph-name="onethird" horiz-adv-x="1771" 
d="M1432 670l-5 10h-333l22 121h563l-18 -101l-240 -182v-12q201 -25 201 -201q0 -145 -108.5 -229t-282.5 -84q-118 0 -186 45.5t-68 132.5q0 40 10 74h119v-19q0 -66 36.5 -88t104.5 -22q57 0 106 16t84.5 57t35.5 101q0 117 -164 117q-44 0 -101 -11l-32 88zM424 -57
h-152l1035 1503h155zM686 707l-20 -125h-586l20 125h215l93 524l-185 -23l19 111l219 67h127l-121 -679h219z" />
    <glyph glyph-name="twothirds" horiz-adv-x="1771" 
d="M547 1393q132 0 197 -50t65 -131q0 -172 -283 -315q-17 -9 -53.5 -27t-51.5 -26t-42 -23t-39.5 -25t-29 -24.5t-25.5 -29t-15 -31.5h461l-22 -129h-621l10 65q10 62 35.5 109.5t75 89t98.5 71t135 74.5q37 19 56 29t53.5 32t53 40t33.5 43.5t15 50.5q0 38 -30.5 61
t-87.5 23q-46 0 -83.5 -10.5t-71 -43.5t-40.5 -86h-123q-2 8 -2 25q0 73 50 128.5t124.5 82.5t157.5 27zM1462 670l-4 10h-334l23 121h563l-18 -101l-240 -182v-12q201 -25 201 -201q0 -145 -108.5 -229t-282.5 -84q-118 0 -186 45.5t-68 132.5q0 40 10 74h119v-19
q0 -66 36.5 -88t104.5 -22q57 0 106 16t84 57t35 101q0 117 -164 117q-43 0 -100 -11l-33 88zM473 -57h-151l1034 1503h155z" />
    <glyph glyph-name="onefifth" horiz-adv-x="1771" 
d="M1616 311q0 -139 -110.5 -229t-280.5 -90q-118 0 -186 45.5t-68 132.5q0 40 10 74h119v-19q0 -66 36.5 -88t104.5 -22q56 0 105.5 18t84.5 61t35 103q0 61 -46.5 92t-123.5 31q-87 0 -176 -39l-76 51l123 369h498l-23 -123h-370l-49 -150q54 11 98 11q132 0 213.5 -57.5
t81.5 -170.5zM467 -57h-152l1035 1503h155zM692 707l-20 -125h-586l20 125h216l92 524l-185 -23l19 111l219 67h127l-121 -679h219z" />
    <glyph glyph-name="twofifths" horiz-adv-x="1771" 
d="M1632 311q0 -139 -110.5 -229t-280.5 -90q-118 0 -186 45.5t-68 132.5q0 40 10 74h119v-19q0 -66 36.5 -88t104.5 -22q89 0 157.5 47t68.5 135q0 61 -46.5 92t-123.5 31q-87 0 -176 -39l-76 51l123 369h497l-22 -123h-371l-49 -150q54 11 98 11q132 0 213.5 -57.5
t81.5 -170.5zM545 1393q132 0 197 -50t65 -131q0 -172 -283 -315q-17 -9 -53.5 -27t-51.5 -26t-42 -23t-39.5 -25t-29 -24.5t-25.5 -29t-15 -31.5h461l-22 -129h-621l10 65q10 62 35.5 109.5t75 89t98.5 71t135 74.5q37 19 56 29t53.5 32t53 40t33.5 43.5t15 50.5
q0 38 -31 61t-88 23q-45 0 -83 -10.5t-71 -43.5t-40 -86h-123q-2 8 -2 25q0 73 50 128.5t124.5 82.5t157.5 27zM489 -57h-151l1034 1503h156z" />
    <glyph glyph-name="threefifths" horiz-adv-x="1771" 
d="M1647 311q0 -139 -110.5 -229t-281.5 -90q-118 0 -186 45.5t-68 132.5q0 37 11 74h118v-19q0 -66 36.5 -88t105.5 -22q56 0 105.5 18t84.5 61t35 103q0 61 -46.5 92t-123.5 31q-87 0 -176 -39l-76 51l123 369h498l-23 -123h-370l-50 -150q54 11 99 11q132 0 213.5 -57.5
t81.5 -170.5zM545 1255l-4 11h-334l22 120h564l-19 -100l-239 -182v-12q200 -25 200 -201q0 -145 -108.5 -229t-282.5 -84q-118 0 -186 45.5t-68 132.5q0 39 10 73h119v-18q0 -66 36.5 -88.5t104.5 -22.5q57 0 106 16t84.5 57t35.5 101q0 117 -164 117q-48 0 -100 -10
l-33 88zM457 -57h-152l1034 1503h156z" />
    <glyph glyph-name="fourfifths" horiz-adv-x="1771" 
d="M649 1389h123l-86 -494h133l-22 -127h-133l-33 -186h-156l33 186h-418l16 98zM1647 311q0 -139 -110.5 -229t-281.5 -90q-118 0 -186 45.5t-68 132.5q0 37 11 74h118v-19q0 -66 36.5 -88t105.5 -22q56 0 105.5 18t84.5 61t35 103q0 61 -46.5 92t-123.5 31q-87 0 -176 -39
l-76 51l123 369h498l-23 -123h-370l-50 -150q54 11 99 11q132 0 213.5 -57.5t81.5 -170.5zM489 -57h-151l1034 1503h156zM313 895h217l45 260z" />
    <glyph glyph-name="onesixth" horiz-adv-x="1771" 
d="M692 707l-20 -125h-586l20 125h216l92 524l-185 -23l19 111l219 67h127l-121 -679h219zM471 -57h-152l1035 1503h155zM1376 528q123 0 188.5 -58t65.5 -165q0 -134 -102 -224.5t-262 -90.5q-275 0 -275 278q0 40 5 83.5t18 98t33.5 104.5t55 98.5t78.5 84t107.5 57
t138.5 21.5q97 0 166.5 -40t69.5 -118q0 -32 -14 -67h-119q0 50 -36.5 76t-98.5 26q-94 0 -156.5 -68t-87.5 -180l8 -2q106 86 217 86zM1288 109q99 0 149 57t50 125q0 56 -36.5 86.5t-104.5 30.5q-80 0 -138.5 -51t-58.5 -132q0 -51 34.5 -83.5t104.5 -32.5z" />
    <glyph glyph-name="fivesixths" horiz-adv-x="1771" 
d="M1395 528q123 0 188.5 -58t65.5 -165q0 -134 -102.5 -224.5t-262.5 -90.5q-274 0 -274 278q0 40 5 83.5t18 98t33.5 104.5t55 98.5t78.5 84t107.5 57t138.5 21.5q97 0 166 -40t69 -118q0 -32 -14 -67h-119q0 50 -36.5 76t-98.5 26q-94 0 -156.5 -68t-87.5 -180l9 -2
q106 86 217 86zM776 901q0 -139 -110 -225t-281 -86q-118 0 -186 45.5t-68 132.5q0 40 10 74h119v-19q0 -66 36.5 -88t104.5 -22q57 0 106 16t84.5 57t35.5 101q0 61 -46.5 92t-123.5 31q-87 0 -176 -39l-76 51l123 367h497l-22 -123h-371l-49 -148q49 10 98 10
q132 0 213.5 -57t81.5 -170zM469 -57h-152l1035 1503h155zM1307 109q99 0 148.5 57t49.5 125q0 56 -36.5 86.5t-104.5 30.5q-80 0 -138.5 -51t-58.5 -132q0 -51 35 -83.5t105 -32.5z" />
    <glyph glyph-name="oneeighth" horiz-adv-x="1771" 
d="M692 707l-20 -125h-586l20 125h216l92 524l-185 -23l19 111l219 67h127l-121 -679h219zM459 -57h-152l1034 1503h156zM1391 815q73 0 126 -17.5t80.5 -48t39.5 -63t12 -70.5q0 -17 -4.5 -36t-18 -47t-47.5 -54.5t-84 -44.5v-8q121 -43 121 -170q0 -109 -94.5 -187.5
t-276.5 -78.5q-141 0 -215 52.5t-74 147.5q0 28 9 59.5t29.5 68.5t63.5 67.5t101 44.5l2 8q-104 55 -104 154q0 37 19 74t57 71.5t105.5 56t152.5 21.5zM1268 115q78 0 136 32t58 97q0 46 -38.5 84t-106.5 51q-96 -19 -148.5 -67t-52.5 -103q0 -47 46 -70.5t106 -23.5z
M1368 686q-60 0 -107 -26.5t-47 -71.5q0 -35 37 -66t88 -45q65 12 111.5 53t46.5 80q0 76 -129 76z" />
    <glyph glyph-name="threeeighths" horiz-adv-x="1771" 
d="M1405 815q73 0 126 -17.5t80.5 -48t39.5 -63t12 -70.5q0 -17 -4.5 -36t-18 -47t-47.5 -54.5t-84 -44.5v-8q121 -43 121 -170q0 -109 -94 -187.5t-276 -78.5q-141 0 -215 52.5t-74 147.5q0 28 9 59.5t29.5 68.5t63.5 67.5t101 44.5l2 8q-105 55 -105 154q0 37 19 74
t57 71.5t105.5 56t152.5 21.5zM582 1255l-4 11h-334l22 120h563l-18 -100l-240 -182v-12q201 -25 201 -201q0 -145 -108.5 -229t-282.5 -84q-118 0 -186 45.5t-68 132.5q0 39 10 73h119v-18q0 -66 36.5 -88.5t104.5 -22.5q57 0 106 16t84.5 57t35.5 101q0 117 -164 117
q-49 0 -101 -10l-32 88zM461 -57h-152l1034 1503h156zM1282 115q49 0 91 12t73 42.5t31 74.5q0 46 -39 84t-107 51q-96 -19 -148.5 -67t-52.5 -103q0 -47 46 -70.5t106 -23.5zM1382 686q-60 0 -106.5 -26.5t-46.5 -71.5q0 -35 37 -66t88 -45q65 12 111 53t46 80
q0 76 -129 76z" />
    <glyph glyph-name="fiveeighths" horiz-adv-x="1771" 
d="M1407 815q73 0 126 -17.5t80.5 -48t39.5 -63t12 -70.5q0 -17 -4.5 -36t-18 -47t-47.5 -54.5t-84 -44.5v-8q121 -43 121 -170q0 -109 -94 -187.5t-276 -78.5q-141 0 -215 52.5t-74 147.5q0 28 9 59.5t29.5 68.5t63.5 67.5t101 44.5l2 8q-105 55 -105 154q0 37 19 74
t57 71.5t105.5 56t152.5 21.5zM776 901q0 -139 -110 -225t-281 -86q-118 0 -186 45.5t-68 132.5q0 40 10 74h119v-19q0 -66 36.5 -88t104.5 -22q57 0 106 16t84.5 57t35.5 101q0 61 -46.5 92t-123.5 31q-87 0 -176 -39l-76 51l123 367h497l-22 -123h-371l-49 -148
q49 10 98 10q132 0 213.5 -57t81.5 -170zM459 -57h-152l1034 1503h156zM1284 115q49 0 91 12t73 42.5t31 74.5q0 46 -39 84t-107 51q-95 -19 -147.5 -66.5t-52.5 -103.5q0 -47 45.5 -70.5t105.5 -23.5zM1384 686q-60 0 -106.5 -26.5t-46.5 -71.5q0 -35 37 -66t88 -45
q65 12 111 53t46 80q0 76 -129 76z" />
    <glyph glyph-name="seveneighths" horiz-adv-x="1771" 
d="M309 582h-162l502 682h-469l23 122h643l-17 -90zM362 -57h-151l1034 1503h156zM1368 815q73 0 126 -17.5t80.5 -48t39.5 -63t12 -70.5q0 -18 -4.5 -36.5t-18 -46.5t-47 -54.5t-83.5 -44.5v-8q120 -43 120 -170q0 -109 -94 -187.5t-276 -78.5q-141 0 -215 52.5t-74 147.5
q0 28 9 59.5t29.5 68.5t63.5 67.5t101 44.5l2 8q-105 55 -105 154q0 37 19 74t57 71.5t105.5 56t152.5 21.5zM1245 115q49 0 91 12t73 42.5t31 74.5q0 46 -39 84t-107 51q-95 -19 -147.5 -66.5t-52.5 -103.5q0 -47 45.5 -70.5t105.5 -23.5zM1346 686q-60 0 -107 -26.5
t-47 -71.5q0 -35 37 -66t88 -45q65 12 111.5 53t46.5 80q0 76 -129 76z" />
    <glyph glyph-name="arrowup" unicode="&#x2191;" horiz-adv-x="993" 
d="M571 1176v-1174h-131v1174l-295 -291l-92 94l453 451l455 -451l-93 -94z" />
    <glyph glyph-name="arrowdown" unicode="&#x2193;" horiz-adv-x="993" 
d="M571 1432v-1182l297 299l93 -94l-455 -451l-453 451l92 94l297 -299l-2 1182h131z" />
    <glyph glyph-name="minus" unicode="&#x2212;" 
d="M1001 479h-808l24 146h809z" />
    <glyph glyph-name="zero.numerator" horiz-adv-x="774" 
d="M539 1397q161 0 233 -86.5t72 -229.5q0 -66 -14.5 -134t-48 -136t-82 -120t-124 -85t-167.5 -33q-154 0 -225.5 73.5t-71.5 201.5q0 154 50.5 277.5t149 197.5t228.5 74zM528 1270q-83 0 -145 -55t-92.5 -143t-30.5 -193q0 -181 168 -181q106 0 184 106.5t78 280.5
q0 185 -162 185z" />
    <glyph glyph-name="one.numerator" horiz-adv-x="696" 
d="M682 707l-20 -125h-586l20 125h215l92 524l-184 -23l19 111l219 67h127l-121 -679h219z" />
    <glyph glyph-name="two.numerator" horiz-adv-x="724" 
d="M530 1393q132 0 197.5 -50.5t65.5 -130.5q0 -172 -283 -315q-17 -9 -53.5 -27t-51.5 -26t-42 -23t-39.5 -25t-29 -24.5t-25.5 -29t-15 -31.5h461l-23 -129h-620l10 65q10 62 35.5 109.5t75 89t98.5 71t135 74.5q37 19 56 29t53.5 32t53 40t33.5 43.5t15 50.5q0 38 -31 61
t-88 23q-45 0 -83 -10.5t-71 -43.5t-40 -86h-123q-2 8 -2 25q0 73 49.5 128.5t124 82.5t157.5 27z" />
    <glyph glyph-name="three.numerator" horiz-adv-x="714" 
d="M543 1255l-4 11h-334l22 120h564l-19 -100l-240 -182v-12q201 -25 201 -201q0 -145 -108.5 -229t-282.5 -84q-118 0 -186 45.5t-68 132.5q0 39 10 73h119v-18q0 -66 36.5 -88.5t104.5 -22.5q57 0 106 16t84.5 57t35.5 101q0 117 -164 117q-49 0 -101 -10l-32 88z" />
    <glyph glyph-name="four.numerator" horiz-adv-x="768" 
d="M641 1389h123l-86 -494h133l-23 -127h-133l-32 -186h-156l33 186h-418l16 98zM305 895h217l45 260z" />
    <glyph glyph-name="five.numerator" horiz-adv-x="727" 
d="M756 901q0 -139 -110 -225t-281 -86q-118 0 -186 45.5t-68 132.5q0 40 10 74h119v-19q0 -66 36.5 -88t104.5 -22q57 0 106 16t84 57t35 101q0 61 -46.5 92t-123.5 31q-87 0 -176 -39l-76 51l123 367h498l-23 -123h-370l-50 -148q49 10 99 10q132 0 213.5 -57t81.5 -170z
" />
    <glyph glyph-name="six.numerator" horiz-adv-x="737" 
d="M508 1110q123 0 188.5 -58t65.5 -165q0 -134 -102.5 -225t-262.5 -91q-274 0 -274 279q0 40 5 83.5t18 98t33.5 104.5t55 98.5t78.5 84t107.5 57t138.5 21.5q97 0 166.5 -40t69.5 -118q0 -31 -15 -68h-118q0 50 -37 76.5t-99 26.5q-94 0 -156 -68t-87 -180l8 -2
q106 86 217 86zM420 690q99 0 148.5 57t49.5 125q0 56 -36.5 86.5t-104.5 30.5q-80 0 -138 -51t-58 -131q0 -51 34.5 -84t104.5 -33z" />
    <glyph glyph-name="seven.numerator" horiz-adv-x="679" 
d="M287 582h-162l502 682h-469l22 122h643l-16 -90z" />
    <glyph glyph-name="eight.numerator" horiz-adv-x="718" 
d="M522 1399q73 0 126 -17.5t80.5 -48t39.5 -63t12 -70.5q0 -18 -4.5 -36.5t-18 -46.5t-47 -54.5t-83.5 -44.5v-8q121 -43 121 -170q0 -109 -94.5 -188t-276.5 -79q-141 0 -215 53t-74 148q0 28 9 59.5t29.5 68.5t63.5 67.5t101 44.5l2 8q-105 55 -105 154q0 37 19 74
t57 71.5t105.5 56t152.5 21.5zM399 698q49 0 91 12t73 42.5t31 74.5q0 46 -38.5 84.5t-106.5 51.5q-96 -19 -148.5 -67t-52.5 -103q0 -47 45.5 -71t105.5 -24zM500 1270q-60 0 -107 -27t-47 -72q0 -35 37 -65t88 -45q65 12 111.5 53t46.5 80q0 76 -129 76z" />
    <glyph glyph-name="nine.numerator" horiz-adv-x="727" 
d="M489 1397q287 0 287 -305q0 -105 -25.5 -196.5t-77 -164.5t-137.5 -115.5t-198 -42.5q-111 0 -180.5 45.5t-69.5 114.5q0 36 14 60h121q0 -47 35.5 -74t99.5 -27q103 0 169 68.5t89 175.5l-8 4q-79 -82 -211 -82q-119 0 -186.5 56t-67.5 161q0 137 94 229.5t252 92.5z
M479 1274q-95 0 -144.5 -53.5t-49.5 -128.5q0 -55 36.5 -85t106.5 -30q81 0 134.5 48t53.5 128q0 53 -34 87t-103 34z" />
    <glyph glyph-name="parenleft.numerator" horiz-adv-x="415" 
d="M477 1481l76 -72q-132 -125 -208.5 -266t-76.5 -277q0 -200 119 -360l-94 -74q-79 92 -126.5 204.5t-47.5 229.5q0 159 102 321t256 294z" />
    <glyph glyph-name="parenright.numerator" horiz-adv-x="415" 
d="M203 1409l96 72q76 -93 123 -205.5t47 -228.5q0 -157 -99 -316t-257 -289l-66 72q277 260 277 520q0 97 -31.5 195.5t-89.5 179.5z" />
    <glyph glyph-name="comma.numerator" horiz-adv-x="323" 
d="M219 758q39 0 62.5 -22t23.5 -58t-26 -80l-168 -248l-54 21l95 186q-25 6 -39.5 27t-14.5 49q0 49 37.5 87t83.5 38z" />
    <glyph glyph-name="period.numerator" horiz-adv-x="323" 
d="M215 764q37 0 60.5 -24.5t23.5 -61.5q0 -49 -37 -85t-84 -36q-38 0 -61 23t-23 59q0 49 37 87t84 38z" />
    <glyph glyph-name="zero.denominator" horiz-adv-x="774" 
d="M438 815q161 0 233 -86t72 -229q0 -66 -14.5 -134t-48 -136t-82 -120t-124 -85t-167.5 -33q-297 0 -297 274q0 156 50.5 280t148.5 196.5t229 72.5zM428 688q-83 0 -145 -55t-92.5 -143t-30.5 -193q0 -180 168 -180q106 0 184 106.5t78 280.5q0 184 -162 184z" />
    <glyph glyph-name="one.denominator" horiz-adv-x="696" 
d="M582 125l-21 -125h-586l21 125h215l92 524l-184 -22l18 110l219 68h127l-121 -680h220z" />
    <glyph glyph-name="two.denominator" horiz-adv-x="724" 
d="M440 819q132 0 198.5 -53.5t66.5 -134.5q0 -176 -277 -316q-17 -9 -53.5 -27t-51.5 -26t-42 -23t-39.5 -25t-29 -24.5t-25.5 -29t-15 -31.5h453l-23 -129h-620l10 66q10 62 35.5 109.5t75 89t98.5 71t135 74.5q38 19 55.5 28.5t53.5 32t53.5 40t33 43t15.5 50.5
q0 38 -31 62t-88 24q-33 0 -62.5 -6.5t-58.5 -21.5t-48.5 -44t-25.5 -69h-124q-3 12 -3 24q0 110 99 178t235 68z" />
    <glyph glyph-name="three.denominator" horiz-adv-x="714" 
d="M434 670l-4 10h-334l23 121h563l-18 -101l-240 -182v-12q201 -25 201 -201q0 -145 -109 -229t-283 -84q-118 0 -185.5 45.5t-67.5 132.5q0 40 10 74h119v-19q0 -66 36.5 -88t104.5 -22q57 0 106 16t84 57t35 101q0 117 -164 117q-43 0 -100 -11l-33 88z" />
    <glyph glyph-name="four.denominator" horiz-adv-x="768" 
d="M539 807h123l-89 -494h134l-21 -127h-133l-33 -186h-155l32 186h-417l16 99zM201 313h217l47 260z" />
    <glyph glyph-name="five.denominator" horiz-adv-x="727" 
d="M647 311q0 -139 -110.5 -229t-280.5 -90q-118 0 -186 45.5t-68 132.5q0 40 10 74h119v-19q0 -66 36.5 -88t104.5 -22q89 0 157.5 47t68.5 135q0 61 -46.5 92t-123.5 31q-87 0 -176 -39l-76 51l123 369h497l-22 -123h-371l-49 -150q54 11 98 11q132 0 213.5 -57.5
t81.5 -170.5z" />
    <glyph glyph-name="six.denominator" horiz-adv-x="737" 
d="M410 528q123 0 188.5 -58t65.5 -165q0 -134 -102.5 -224.5t-262.5 -90.5q-274 0 -274 278q0 40 5 83.5t18 98t33.5 104.5t55 98.5t78.5 84t107.5 57t138.5 21.5q97 0 166 -40t69 -118q0 -32 -14 -67h-119q0 50 -36.5 76t-98.5 26q-94 0 -156.5 -68t-87.5 -180l9 -2
q106 86 217 86zM322 109q99 0 148.5 57t49.5 125q0 56 -36.5 86.5t-104.5 30.5q-80 0 -138.5 -51t-58.5 -132q0 -51 35 -83.5t105 -32.5z" />
    <glyph glyph-name="seven.denominator" horiz-adv-x="679" 
d="M186 0h-161l501 682h-469l23 123h643l-16 -90z" />
    <glyph glyph-name="eight.denominator" horiz-adv-x="718" 
d="M422 815q73 0 126 -17.5t80.5 -48t39.5 -63t12 -70.5q0 -17 -4.5 -36t-18 -47t-47.5 -54.5t-84 -44.5v-8q121 -43 121 -170q0 -109 -94.5 -187.5t-276.5 -78.5q-141 0 -214.5 52.5t-73.5 147.5q0 28 9 59.5t29 68.5t63 67.5t101 44.5l3 8q-105 55 -105 154q0 37 19 74
t57 71.5t105.5 56t152.5 21.5zM299 115q49 0 91 12t73 42.5t31 74.5q0 46 -39 84t-107 51q-96 -19 -148.5 -67t-52.5 -103q0 -47 46 -70.5t106 -23.5zM399 686q-60 0 -106.5 -26.5t-46.5 -71.5q0 -35 37 -66t88 -45q65 12 111 53t46 80q0 76 -129 76z" />
    <glyph glyph-name="nine.denominator" horiz-adv-x="727" 
d="M389 817q287 0 287 -305q0 -105 -25.5 -196t-77 -164.5t-137.5 -115.5t-198 -42q-111 0 -180.5 45.5t-69.5 114.5q0 35 14 59h121q0 -47 35.5 -73.5t99.5 -26.5q103 0 169 68t89 175l-8 4q-78 -81 -211 -81q-119 0 -186.5 56t-67.5 161q0 137 94 229t252 92zM379 694
q-95 0 -145 -54t-50 -128q0 -55 37 -85t107 -30q81 0 134.5 48t53.5 128q0 53 -34 87t-103 34z" />
    <glyph glyph-name="parenleft.denominator" horiz-adv-x="415" 
d="M375 899l74 -76q-131 -126 -207 -265t-76 -273q0 -182 129 -355l-105 -80q-78 92 -126 205t-48 230q0 158 102.5 319.5t256.5 294.5z" />
    <glyph glyph-name="parenright.denominator" horiz-adv-x="415" 
d="M100 827l97 72q76 -93 123 -205.5t47 -228.5q0 -157 -99 -315t-258 -289l-73 69q284 267 284 533q0 195 -121 364z" />
    <glyph glyph-name="comma.denominator" horiz-adv-x="323" 
d="M113 174q40 0 64 -22.5t24 -59.5q0 -36 -27 -78l-170 -247l-51 20l94 186q-26 6 -40.5 27t-14.5 51q0 49 37.5 86t83.5 37z" />
    <glyph glyph-name="period.denominator" horiz-adv-x="323" 
d="M113 193q36 0 60 -25t24 -62q0 -49 -37 -84.5t-84 -35.5q-38 0 -61 23t-23 59q0 49 37 87t84 38z" />
    </font>
</defs>
</svg>
