<?xml version="1.0" standalone="no"?>
<!DOCTYPE svg PUBLIC "-//W3C//DTD SVG 1.1//EN" "http://www.w3.org/Graphics/SVG/1.1/DTD/svg11.dtd" >
<svg xmlns="http://www.w3.org/2000/svg" xmlns:xlink="http://www.w3.org/1999/xlink" version="1.1">
<metadata>
Created by FontForge 20170731 at Wed Dec 30 12:29:15 2020
 By Aleksey,,,
Copyright (c) 2005-2009 Parachute :, www.parachute.gr.  All rights reserved.
</metadata>
<defs>
<font id="PFEncoreSansPro-Regular" horiz-adv-x="1228" >
  <font-face 
    font-family="PF Encore Sans Pro"
    font-weight="600"
    font-stretch="normal"
    units-per-em="2048"
    panose-1="2 0 5 3 4 0 0 2 0 4"
    ascent="1536"
    descent="-512"
    x-height="989"
    cap-height="1382"
    bbox="-367 -453 2554 1888"
    underline-thickness="112"
    underline-position="-317"
    unicode-range="U+0020-2212"
  />
<missing-glyph horiz-adv-x="901" 
d="M0 0v1434h901v-1434h-901zM451 809l286 522h-573zM512 717l287 -522v1044zM164 102h573l-286 523zM102 1239v-1044l287 522z" />
    <glyph glyph-name="fj" unicode="fj" horiz-adv-x="1067" 
d="M686 -416h-102v158h47q56 0 77 28.5t21 90.5v991h-354v-852h-182v852h-158v106l155 31v109q0 375 404 375q102 0 240 -23v-145q-143 14 -207 14q-137 0 -195.5 -49.5t-58.5 -169.5v-111l540 2v-1132q0 -64 -10.5 -112t-35.5 -86t-70.5 -57.5t-110.5 -19.5z" />
    <glyph glyph-name="ffj" unicode="ffj" horiz-adv-x="1626" 
d="M745 852h-370v-852h-182v852h-158v109l158 26v125q0 176 77 253t248 77q80 0 158 -19l-2 -141q-85 10 -150 10q-88 0 -118.5 -35t-30.5 -141v-127h368v109q0 375 404 375q101 0 239 -23v-145q-143 14 -206 14q-137 0 -195.5 -49.5t-58.5 -169.5v-111l540 2v-1132
q0 -64 -10.5 -112t-35.5 -86t-70.5 -57.5t-110.5 -19.5h-102v158h47q56 0 77 28.5t21 90.5v991h-354v-852h-183v852z" />
    <glyph glyph-name="fb" unicode="fb" horiz-adv-x="1742" 
d="M1210 -16q-90 0 -172.5 34.5t-124.5 112.5h-8q0 -85 -28 -131h-136v1315q-53 6 -114 6q-138 0 -196 -44.5t-58 -162.5v-125h280v-137h-278v-852h-182v852h-158v106l155 31v123q0 363 404 363q92 0 217 -19h111v-420q0 -44 -7 -107t-16 -95h10q49 79 133.5 126.5
t188.5 47.5q209 0 309 -135.5t100 -380.5q0 -84 -14 -157.5t-46.5 -138.5t-81.5 -111.5t-122.5 -73.5t-165.5 -27zM1200 850q-62 0 -111.5 -21t-79.5 -53.5t-50 -76t-27.5 -85.5t-7.5 -86v-100q0 -128 71.5 -209.5t194.5 -81.5q135 0 200.5 93t65.5 266q0 354 -256 354z" />
    <glyph glyph-name="ffb" unicode="ffb" horiz-adv-x="2295" 
d="M745 852h-370v-852h-182v852h-158v109l158 26v125q0 176 77 253t248 77q80 0 158 -19l-2 -141q-85 10 -150 10q-88 0 -118.5 -35t-30.5 -141v-127h368v123q0 363 404 363q92 0 217 -19h111v-420q0 -44 -7 -107t-16 -95h10q49 79 133.5 126.5t188.5 47.5q209 0 309 -135.5
t100 -380.5q0 -84 -14 -157.5t-46.5 -138.5t-81.5 -111.5t-122.5 -73.5t-165.5 -27q-90 0 -172.5 34.5t-124.5 112.5h-8q0 -85 -28 -131h-136v1315q-52 6 -114 6q-138 0 -196 -44.5t-58 -162.5v-125h280v-137h-278v-852h-183v852zM1753 850q-62 0 -111.5 -21t-79.5 -53.5
t-50 -76t-27.5 -85.5t-7.5 -86v-100q0 -128 71.5 -209.5t194.5 -81.5q135 0 200.5 93t65.5 266q0 354 -256 354z" />
    <glyph glyph-name="fh" unicode="fh" horiz-adv-x="1728" 
d="M922 1053q0 -134 -23 -219h8q45 83 133 128.5t193 45.5q70 0 126.5 -13.5t95 -35.5t67 -56t44.5 -69t25 -81.5t12 -86t3 -88.5v-578h-185v573q0 68 -9.5 117t-34 90t-71 61.5t-114.5 20.5q-56 0 -102 -20.5t-76.5 -54t-51.5 -77.5t-30.5 -89.5t-9.5 -92.5v-528h-181v1315
q-53 6 -114 6q-138 0 -196 -44.5t-58 -162.5v-125h272v-137h-270v-852h-182v852h-158v106l155 31v123q0 363 404 363q92 0 217 -19h111v-403z" />
    <glyph glyph-name="ffh" unicode="ffh" horiz-adv-x="2281" 
d="M745 852h-370v-852h-182v852h-158v109l158 26v125q0 176 77 253t248 77q80 0 158 -19l-2 -141q-85 10 -150 10q-88 0 -118.5 -35t-30.5 -141v-127h368v123q0 363 404 363q92 0 217 -19h111v-403q0 -134 -23 -219h8q45 83 133 128.5t193 45.5q70 0 126.5 -13.5t95 -35.5
t67 -56t44.5 -69t25 -81.5t12 -86t3 -88.5v-578h-185v573q0 68 -9.5 117t-34 90t-71 61.5t-114.5 20.5q-56 0 -102 -20.5t-76.5 -54t-51.5 -77.5t-30.5 -89.5t-9.5 -92.5v-528h-181v1315q-52 6 -114 6q-138 0 -196 -44.5t-58 -162.5v-125h272v-137h-270v-852h-183v852z" />
    <glyph glyph-name="fk" unicode="fk" horiz-adv-x="1589" 
d="M922 612h131l323 377h207l-381 -440l404 -549h-220l-333 465h-131v-465h-179l-2 1315q-53 6 -114 6q-138 0 -196 -44.5t-58 -162.5v-125h272v-137h-270v-852h-182v852h-158v106l155 31v123q0 363 404 363q92 0 217 -19h111v-844z" />
    <glyph glyph-name="ffk" unicode="ffk" horiz-adv-x="2142" 
d="M745 852h-370v-852h-182v852h-158v109l158 26v125q0 176 77 253t248 77q80 0 158 -19l-2 -141q-85 10 -150 10q-88 0 -118.5 -35t-30.5 -141v-127h368v123q0 363 404 363q92 0 217 -19h111v-844h131l323 377h207l-381 -440l404 -549h-220l-333 465h-131v-465h-179
l-2 1315q-52 6 -114 6q-138 0 -196 -44.5t-58 -162.5v-125h272v-137h-270v-852h-183v852z" />
    <glyph glyph-name="r_y" unicode="ry" horiz-adv-x="1505" 
d="M1012 131h16q26 91 69 220.5t50 152.5l153 485h175l-367 -1108q-24 -74 -50 -125t-65 -95t-94.5 -65.5t-128.5 -21.5h-119v145h97q70 0 110.5 28t71.5 99l51 150l-90 -6q-31 124 -111 379l-147 471q-166 -8 -248 -82.5t-82 -220.5v-537h-180v991h135q37 -78 37 -182h8
q31 56 74 95.5t86 60.5t99.5 32.5t102 13.5t105.5 1l143 -514q6 -23 29 -100.5t39.5 -140t30.5 -126.5z" />
    <glyph glyph-name="ff" unicode="ff" horiz-adv-x="1253" 
d="M940 989h293v-137h-293v-852h-182v852h-377v-852h-182v852h-158v109l158 26v117q0 176 77 253t248 77q80 0 158 -19l-2 -143q-102 12 -150 12q-88 0 -118.5 -35t-30.5 -141v-119h377v150q0 176 77.5 252.5t249.5 76.5q85 0 158 -18l-2 -143q-102 12 -149 12
q-87 0 -118 -35t-32 -141z" />
    <glyph glyph-name="fi" unicode="fi" horiz-adv-x="1067" 
d="M190 989v109q0 375 404 375q102 0 240 -23v-145q-143 14 -207 14q-137 0 -195.5 -49.5t-58.5 -169.5v-111h540v-989h-182v852h-356v-852h-182v852h-158v106z" />
    <glyph glyph-name="fl" unicode="fl" horiz-adv-x="1073" 
d="M670 989v-137h-295v-852h-182v852h-158v106l155 31v123q0 363 404 363q102 0 240 -23h86v-1452h-177v1315q-53 6 -116 6q-138 0 -196 -44.5t-58 -162.5v-125h297z" />
    <glyph glyph-name="ffi" unicode="ffi" horiz-adv-x="1626" 
d="M743 989l2 109q0 197 100.5 286t301.5 89q101 0 239 -23v-145q-143 14 -206 14q-137 0 -195.5 -49.5t-58.5 -169.5v-111h540v-989h-182v852h-356v-852h-183v852h-370v-852h-182v852h-158v109l158 26v125q0 176 77 253t248 77q80 0 158 -19l-2 -141q-85 10 -150 10
q-88 0 -118.5 -35t-30.5 -141v-127h368z" />
    <glyph glyph-name="ffl" unicode="ffl" horiz-adv-x="1626" 
d="M745 852h-370v-852h-182v852h-158v109l158 26v125q0 176 77 253t248 77q80 0 158 -19l-2 -141q-85 10 -150 10q-88 0 -118.5 -35t-30.5 -141v-127h368v123q0 363 404 363q101 0 239 -23h87v-1452h-177v1315q-53 6 -116 6q-138 0 -196 -44.5t-58 -162.5v-125h297v-137
h-295v-852h-183v852z" />
    <glyph glyph-name="ft" unicode="ft" horiz-adv-x="1318" 
d="M942 1251v-260h291v-139h-291v-533q0 -105 39 -145.5t135 -40.5q83 0 154 8v-141q-81 -16 -176 -16q-94 0 -154 15t-101.5 53.5t-59 104.5t-17.5 169v526h-381v-852h-182v852h-158v109l158 26v152q0 176 77 252.5t248 76.5q94 0 168 -18l-2 -141q-85 10 -160 10
q-88 0 -118.5 -35t-30.5 -141v-154h391l43 262h127z" />
    <glyph glyph-name=".notdef" horiz-adv-x="901" 
d="M0 0v1434h901v-1434h-901zM451 809l286 522h-573zM512 717l287 -522v1044zM164 102h573l-286 523zM102 1239v-1044l287 522z" />
    <glyph glyph-name=".null" horiz-adv-x="0" 
 />
    <glyph glyph-name="nonmarkingreturn" horiz-adv-x="682" 
 />
    <glyph glyph-name="space" unicode=" " horiz-adv-x="604" 
 />
    <glyph glyph-name="exclam" unicode="!" horiz-adv-x="634" 
d="M395 354h-149l-25 1030h205zM195 102q0 54 36.5 90.5t90.5 36.5t90.5 -36.5t36.5 -90.5t-36.5 -90.5t-90.5 -36.5t-90.5 36.5t-36.5 90.5z" />
    <glyph glyph-name="quotedbl" unicode="&#x22;" horiz-adv-x="768" 
d="M594 879h-137l-23 477h189zM317 879h-137l-26 477h186z" />
    <glyph glyph-name="numbersign" unicode="#" 
d="M1174 809h-234l-51 -281h231l-20 -118h-234l-65 -410h-160l76 410h-275l-73 -410h-158l74 410h-232l17 118h233l51 281h-231l20 115h234l65 385h154l-66 -385h279l65 385h152l-65 -385h227zM510 809l-49 -281h270l53 281h-274z" />
    <glyph glyph-name="dollar" unicode="$" 
d="M754 1477v-160q154 -26 250 -113.5t96 -228.5q0 -5 -2 -16.5t-2 -16.5h-156q-3 74 -50.5 132t-135.5 83v-399q180 -50 269 -137t89 -238q0 -147 -95.5 -246.5t-262.5 -116.5v-167h-99v1624h99zM492 -147v161q-169 29 -273 128.5t-104 252.5q0 23 2 33h162q2 -93 55 -160
t158 -94v459q-66 14 -114 30t-93.5 42.5t-73.5 61.5t-44.5 86t-16.5 116q0 53 17.5 106t55 105t107 90.5t162.5 50.5v156h92v-1624h-92zM946 373q0 157 -192 219v-418q87 17 139.5 71.5t52.5 127.5zM315 971q0 -70 42 -107.5t135 -62.5v358q-91 -19 -134 -70.5t-43 -117.5z
" />
    <glyph glyph-name="percent" unicode="%" horiz-adv-x="1771" 
d="M522 -57h-155l872 1503h160zM397 1397q82 0 146.5 -23t105.5 -61.5t67.5 -93.5t37 -114t10.5 -128q0 -82 -18.5 -150.5t-59 -127.5t-114.5 -92.5t-175 -33.5q-103 0 -176.5 29t-115 84.5t-60 126.5t-18.5 164q0 195 91 307.5t279 112.5zM395 1270q-115 0 -164 -76.5
t-49 -216.5q0 -279 213 -279q99 0 154 70t55 209q0 293 -209 293zM1376 815q82 0 146.5 -23t105.5 -61.5t67.5 -93.5t37 -114t10.5 -128q0 -82 -18.5 -150.5t-59 -127t-114.5 -92t-175 -33.5q-103 0 -176.5 29t-115 84t-60 126t-18.5 164q0 195 91 307.5t279 112.5z
M1374 688q-115 0 -164 -76.5t-49 -216.5q0 -278 213 -278q99 0 154 69.5t55 208.5q0 293 -209 293z" />
    <glyph glyph-name="ampersand" unicode="&#x26;" horiz-adv-x="1540" 
d="M1319 -63q-124 73 -223 143q-193 -117 -461 -117q-81 0 -153 12.5t-136 41.5t-110.5 72t-73.5 107t-27 144q0 119 78.5 237.5t218.5 208.5q-139 161 -139 304q0 126 89.5 219.5t240.5 93.5q150 0 234.5 -80.5t84.5 -202.5q0 -110 -69 -200.5t-199 -176.5
q198 -267 428 -462q72 71 109.5 160t37.5 175q0 103 -38.5 168.5t-145.5 108.5l39 117q141 -21 230 -123.5t89 -255.5q0 -114 -50.5 -234.5t-147.5 -214.5q70 -53 182 -125zM530 662q-97 -59 -154 -140t-57 -164q0 -111 89 -176t233 -65q186 0 324 69q-190 166 -435 476z
M621 1251q-38 0 -68 -16.5t-45.5 -42t-23 -50.5t-7.5 -48q0 -39 18 -84t35.5 -72t51.5 -76q80 57 124 117.5t44 136.5q0 61 -33.5 98t-95.5 37z" />
    <glyph glyph-name="quotesingle" unicode="'" horiz-adv-x="575" 
d="M358 879h-137l-26 477h186z" />
    <glyph glyph-name="parenleft" unicode="(" horiz-adv-x="636" 
d="M285 618q0 -407 307 -776l-100 -90q-173 176 -282.5 400.5t-109.5 455.5q0 235 109.5 462t282.5 407l106 -91q-141 -171 -227 -370t-86 -398z" />
    <glyph glyph-name="parenright" unicode=")" horiz-adv-x="636" 
d="M348 618q0 199 -86 398t-227 370l106 91q172 -180 281.5 -407t109.5 -462q0 -231 -109.5 -455t-281.5 -401q-84 73 -102 90q309 368 309 776z" />
    <glyph glyph-name="asterisk" unicode="*" horiz-adv-x="940" 
d="M602 971l160 -193l-156 -110l-129 202l-125 -202l-162 108l158 199l-242 69l58 160l227 -92l-8 234h190l-14 -236l225 94l68 -160z" />
    <glyph glyph-name="plus" unicode="+" 
d="M702 479v-317h-176v317h-329v146h329v336h176v-336h328v-146h-328z" />
    <glyph glyph-name="comma" unicode="," horiz-adv-x="538" 
d="M127 115q0 59 40.5 99t98.5 40q61 0 100.5 -38t39.5 -97q0 -36 -19 -76l-199 -401l-75 28l108 314q-41 12 -67.5 48.5t-26.5 82.5z" />
    <glyph glyph-name="hyphen" unicode="-" horiz-adv-x="991" 
d="M197 434v162h596v-162h-596z" />
    <glyph glyph-name="period" unicode="." horiz-adv-x="530" 
d="M127 115q0 59 40.5 99t98.5 40q59 0 99.5 -40.5t40.5 -98.5q0 -59 -41 -99.5t-99 -40.5t-98.5 40.5t-40.5 99.5z" />
    <glyph glyph-name="slash" unicode="/" horiz-adv-x="1103" 
d="M182 -90h-172l912 1558h172z" />
    <glyph glyph-name="zero" unicode="0" 
d="M618 1346q123 0 218.5 -37.5t156 -100.5t99.5 -153.5t55 -188.5t16 -213q0 -106 -16 -199t-56 -181t-100.5 -150.5t-156.5 -100.5t-218 -38q-125 0 -220 32t-158 88.5t-102.5 141.5t-56 183.5t-16.5 221.5q0 158 32 283.5t98 218.5t173.5 143t251.5 50zM614 1190
q-102 0 -174.5 -38t-114.5 -111.5t-60.5 -168.5t-18.5 -221q0 -514 368 -514q169 0 266 130t97 386q0 165 -35 282t-118 186t-210 69z" />
    <glyph glyph-name="one" unicode="1" 
d="M1061 158v-158h-893v158h350v977l-295 -43v127l316 108h166v-1169h356z" />
    <glyph glyph-name="two" unicode="2" 
d="M612 1350q123 0 215 -27.5t145.5 -76.5t79 -110t25.5 -135q0 -240 -375 -458q-76 -45 -119.5 -72.5t-98 -68.5t-83 -75t-50 -78t-23.5 -91h772v-158h-971v88q0 46 6.5 88t17.5 77.5t31.5 70t41 62t53.5 58t61.5 54.5t73 54t81 53.5t91.5 56.5q43 26 67 40.5t66 43.5
t66.5 53t51.5 55.5t39.5 66t12.5 70.5q0 90 -70.5 144.5t-195.5 54.5q-56 0 -104.5 -13.5t-92 -43t-70.5 -83.5t-32 -128h-162q-6 34 -6 65q0 107 66 191.5t169 128t221 43.5z" />
    <glyph glyph-name="three" unicode="3" 
d="M588 -16q-208 0 -333.5 83t-125.5 236q0 37 4 57h162q8 -70 34 -115.5t68 -67.5t86 -30t105 -8q71 0 130 16.5t105.5 51t72.5 93.5t26 138q0 250 -398 250q-51 0 -78 -2l-71 115l409 356l-8 12h-590v158h887v-131l-416 -362l7 -9q132 -7 229.5 -49.5t156 -130
t58.5 -213.5q0 -203 -146.5 -325.5t-373.5 -122.5z" />
    <glyph glyph-name="four" unicode="4" 
d="M776 1329h166v-852h215v-153h-215v-324h-182v324h-692v127zM303 485l4 -8h453v561h-12z" />
    <glyph glyph-name="five" unicode="5" 
d="M1108 432q0 -204 -144.5 -326t-371.5 -122q-208 0 -333.5 83t-125.5 236q0 37 4 57h162q26 -221 287 -221q70 0 128 16t106 50t75 94.5t27 142.5q0 279 -342 279q-161 0 -273 -57l-110 71l88 592h764v-158h-603l-49 -317q92 25 183 25t168.5 -14t145 -47t114 -83.5
t73.5 -127t27 -173.5z" />
    <glyph glyph-name="six" unicode="6" 
d="M641 1198q-93 0 -162.5 -41.5t-109 -115t-58.5 -163.5t-20 -198l6 -4q52 90 151.5 137t198.5 47q211 0 331 -110t120 -326q0 -188 -130 -313t-347 -125q-254 6 -377 160.5t-123 467.5q0 73 5.5 140t20.5 142.5t39.5 139t65.5 123t94.5 100.5t130.5 66t170 25
q181 0 293.5 -82.5t112.5 -204.5q0 -27 -2 -39h-162q-15 84 -77.5 129t-170.5 45zM633 139q62 0 112 17t82 45t53.5 66.5t30.5 79t9 85.5q0 132 -74.5 204.5t-212.5 72.5q-129 0 -206 -75t-77 -204q0 -57 16 -107t48.5 -92.5t89 -67t129.5 -24.5z" />
    <glyph glyph-name="seven" unicode="7" 
d="M141 1169v158h932v-125l-581 -1202h-203l569 1169h-717z" />
    <glyph glyph-name="eight" unicode="8" 
d="M881 721l-2 -10q233 -99 233 -344q0 -159 -135.5 -270t-364.5 -111t-363 102t-134 279q0 44 11 88.5t36 94t75.5 94t120.5 73.5v8q-55 19 -95 54t-60.5 75t-29.5 76t-9 69q0 60 27 120t79.5 112.5t141.5 85.5t200 33q86 0 156 -15t118.5 -42t83.5 -60.5t55 -74t29 -79.5
t9 -80t-16 -89t-59.5 -102t-106.5 -87zM924 360q0 109 -79 185.5t-227 99.5q-147 -26 -229 -101.5t-82 -183.5q0 -57 28 -101.5t74 -69.5t98 -37.5t105 -12.5q59 0 113 12.5t99.5 38t72.5 69.5t27 101zM612 1192q-109 0 -181.5 -50.5t-72.5 -140.5q0 -80 70.5 -137
t189.5 -92q106 23 180 89.5t74 139.5q0 95 -68.5 143t-191.5 48z" />
    <glyph glyph-name="nine" unicode="9" 
d="M580 137q175 0 269 130.5t95 381.5l-6 4q-52 -86 -146.5 -132t-197.5 -46q-208 0 -329.5 112t-121.5 324q0 190 127 314.5t344 124.5q242 0 374 -167.5t132 -488.5q0 -94 -10.5 -176.5t-33.5 -165t-65 -147t-100.5 -115t-144.5 -77.5t-193 -27q-183 0 -304.5 82.5
t-121.5 203.5q0 21 3 39h161q15 -82 87 -128t182 -46zM608 1196q-77 0 -134.5 -25t-89.5 -68.5t-47 -93t-15 -106.5q0 -132 74 -204t212 -72q129 0 206 74.5t77 203.5q0 57 -16 107t-48.5 92.5t-89 67t-129.5 24.5z" />
    <glyph glyph-name="colon" unicode=":" horiz-adv-x="530" 
d="M127 115q0 59 40.5 99t98.5 40q59 0 99.5 -40.5t40.5 -98.5q0 -59 -41 -99.5t-99 -40.5t-98.5 40.5t-40.5 99.5zM127 717q0 59 40.5 99t98.5 40q59 0 99.5 -40.5t40.5 -98.5t-40.5 -98.5t-99.5 -40.5q-58 0 -98.5 40t-40.5 99z" />
    <glyph glyph-name="semicolon" unicode=";" horiz-adv-x="530" 
d="M127 717q0 59 40.5 99t98.5 40q59 0 99.5 -40.5t40.5 -98.5t-40.5 -98.5t-99.5 -40.5q-58 0 -98.5 40t-40.5 99zM127 115q0 59 40.5 99t98.5 40q61 0 100.5 -38t39.5 -97q0 -36 -19 -76l-199 -401l-75 28l108 314q-41 12 -67.5 48.5t-26.5 82.5z" />
    <glyph glyph-name="less" unicode="&#x3c;" 
d="M190 496v112q74 35 848 404v-168l-630 -289l630 -289v-168q-375 177 -848 398z" />
    <glyph glyph-name="equal" unicode="=" 
d="M1030 623h-833v143h833v-143zM1030 340h-833v141h833v-141z" />
    <glyph glyph-name="greater" unicode="&#x3e;" 
d="M1038 608v-112q-75 -35 -848 -398v166l633 291l-633 289v168q732 -349 848 -404z" />
    <glyph glyph-name="question" unicode="?" horiz-adv-x="1009" 
d="M487 1438q196 0 306 -86.5t110 -249.5q0 -170 -203 -357q-46 -43 -73 -71.5t-57 -72t-44 -93t-14 -109.5v-67h-182v37q0 267 198 444q185 164 185 287q0 77 -58 127.5t-166 50.5q-198 0 -229 -199h-164q-4 32 -4 49q0 65 23.5 118.5t62.5 88.5t91 58.5t106.5 34
t111.5 10.5zM293 102q0 54 36.5 90.5t90.5 36.5t90.5 -36.5t36.5 -90.5t-36.5 -90.5t-90.5 -36.5t-90.5 36.5t-36.5 90.5z" />
    <glyph glyph-name="at" unicode="@" horiz-adv-x="1925" 
d="M868 387q110 -1 181 61t71 136v53q-71 14 -166 14q-233 0 -233 -151q0 -49 40 -81t107 -32zM1149 383h-8q-52 -74 -133 -103.5t-158 -29.5q-134 0 -218.5 63t-84.5 187q0 82 35 139.5t96.5 87t127 41.5t144.5 12q85 0 170 -10v43q0 160 -190 160q-143 0 -164 -103h-152
q-2 10 -2 27q0 57 30.5 100.5t79.5 66.5t102 34.5t108 11.5q100 0 170.5 -21.5t108.5 -61.5t54.5 -88.5t16.5 -111.5l-2 -354q0 -30 22.5 -51t65.5 -21q229 0 229 353q0 117 -35.5 213.5t-95 162t-139 110.5t-165 65t-175.5 20q-188 0 -339 -82t-237.5 -231.5t-86.5 -337.5
q0 -190 86.5 -339.5t240 -232t346.5 -82.5q123 0 224 17t235 72l47 -134q-250 -94 -493 -94q-181 0 -337 55.5t-269 157t-177.5 251t-64.5 329.5q0 162 61.5 306.5t169 249.5t261 166.5t329.5 61.5q223 0 396.5 -81.5t274.5 -242t101 -378.5q0 -248 -104 -374t-287 -126
q-41 0 -81 9.5t-80.5 40t-53.5 77.5z" />
    <glyph glyph-name="A" unicode="A" horiz-adv-x="1269" 
d="M1049 0l-131 350h-576l-125 -350h-197l521 1386h182l526 -1386h-200zM635 1161h-12q-12 -43 -26.5 -88.5t-24.5 -74.5t-29.5 -83t-28.5 -81l-117 -328h467l-114 311q-92 257 -115 344z" />
    <glyph glyph-name="B" unicode="B" horiz-adv-x="1253" 
d="M899 733v-12q110 -27 179 -110t69 -205q0 -197 -121 -301.5t-344 -104.5h-549v1384h567q189 0 293.5 -92t104.5 -258q0 -97 -51 -176.5t-148 -124.5zM690 1219h-373v-416h365q101 0 163 62t62 151q0 91 -57 147t-160 56zM676 639h-359v-471h361q137 0 205.5 61t68.5 177
q0 114 -76.5 173.5t-199.5 59.5z" />
    <glyph glyph-name="C" unicode="C" horiz-adv-x="1275" 
d="M713 -16q-133 0 -234.5 31.5t-170.5 89t-113 145t-63 194t-19 240.5q0 160 34 287.5t104 223t185.5 147t270.5 51.5q75 0 146 -15.5t133.5 -48t109 -78.5t73.5 -111.5t27 -142.5q0 -16 -4 -36h-178q-8 122 -90 194t-224 72q-89 0 -157.5 -26.5t-113.5 -73.5t-73.5 -116
t-40.5 -149t-12 -178q0 -125 21 -220t67.5 -167t126.5 -109.5t191 -37.5q158 0 238 79t83 207h178q4 -14 4 -37q0 -129 -67.5 -224.5t-179.5 -143t-252 -47.5z" />
    <glyph glyph-name="D" unicode="D" horiz-adv-x="1298" 
d="M317 170h193q72 0 136 12t133 46.5t118 90t81 150.5t32 219q0 129 -33.5 227.5t-84 154t-120.5 90.5t-132 46t-130 11h-193v-1047zM133 0v1382h404q101 0 192.5 -21t178 -72t149.5 -129t101 -200t38 -276q0 -158 -48.5 -287t-135 -216t-207.5 -134t-266 -47h-406z" />
    <glyph glyph-name="E" unicode="E" horiz-adv-x="1142" 
d="M133 0v1382h909v-165h-725v-429h662v-170h-662v-446h744v-172h-928z" />
    <glyph glyph-name="F" unicode="F" horiz-adv-x="1136" 
d="M143 0v1382h932v-168h-747v-440h657v-170h-657v-604h-185z" />
    <glyph glyph-name="G" unicode="G" horiz-adv-x="1368" 
d="M711 1401q139 0 250 -43.5t180 -133.5t69 -214q0 -29 -2 -43h-176q-6 121 -87.5 191.5t-235.5 70.5q-406 0 -406 -543q0 -265 98 -403t312 -138q106 0 182 29t116.5 81t58 112t17.5 135v86h-313v157h492v-225q0 -95 -20 -175.5t-63 -148.5t-108 -115.5t-159 -74
t-211 -26.5q-298 0 -445 179.5t-147 524.5q0 159 35 287.5t106 225.5t187 150.5t270 53.5z" />
    <glyph glyph-name="H" unicode="H" horiz-adv-x="1366" 
d="M1049 0v621h-732v-621h-184v1382h184v-591h732v591h184v-1382h-184z" />
    <glyph glyph-name="I" unicode="I" horiz-adv-x="534" 
d="M174 0v1382h186v-1382h-186z" />
    <glyph glyph-name="J" unicode="J" horiz-adv-x="1120" 
d="M481 -16q-125 0 -223 37t-157.5 113.5t-59.5 182.5q0 33 6 70h174q4 -232 262 -237q90 0 149.5 23.5t89.5 71t41 102.5t11 134v901h182v-944q0 -44 -4.5 -84t-17.5 -87t-34.5 -86t-58 -76.5t-85 -63.5t-119 -41.5t-156.5 -15.5z" />
    <glyph glyph-name="K" unicode="K" horiz-adv-x="1159" 
d="M317 1382v-591h177l456 591h215l-524 -669l543 -713h-232l-463 621h-172v-621h-184v1382h184z" />
    <glyph glyph-name="L" unicode="L" horiz-adv-x="1062" 
d="M135 0v1382h189v-1212h718v-170h-907z" />
    <glyph glyph-name="M" unicode="M" horiz-adv-x="1650" 
d="M819 385h12q82 226 236 551l211 446h225v-1382h-184v1087h-8q-66 -174 -137 -325l-269 -565h-162l-264 551q-89 185 -143 333h-8v-1081h-185v1382h226l225 -473q135 -287 225 -524z" />
    <glyph glyph-name="N" unicode="N" horiz-adv-x="1380" 
d="M1051 309l10 2v1071h186v-1382h-174l-498 707q-177 252 -245 372l-8 -4v-1075h-189v1382h176l453 -639q136 -193 289 -434z" />
    <glyph glyph-name="O" unicode="O" horiz-adv-x="1417" 
d="M725 1397q131 0 232.5 -37.5t166 -100t105.5 -152.5t57.5 -187.5t16.5 -212.5t-17 -215t-60.5 -195.5t-110 -163t-173 -108.5t-242.5 -41q-133 0 -235 32t-168.5 88t-108.5 141t-59.5 183.5t-17.5 222.5q0 168 35.5 302t108 234.5t192 155t278.5 54.5zM719 1227
q-418 0 -418 -549q0 -272 96.5 -400t307.5 -128q186 0 295.5 133.5t109.5 394.5q0 127 -20.5 224t-65 172t-121.5 114t-184 39z" />
    <glyph glyph-name="P" unicode="P" horiz-adv-x="1204" 
d="M686 489h-369v-489h-184v1382h569q149 0 256 -61t158 -161.5t51 -227.5q0 -60 -14 -118t-49 -118t-88 -105t-138 -73.5t-192 -28.5zM694 1217h-377v-560h369q55 0 106 16.5t93.5 48.5t68 86t25.5 122q0 125 -79 206t-206 81z" />
    <glyph glyph-name="Q" unicode="Q" horiz-adv-x="1392" 
d="M709 1397q587 0 587 -715q0 -111 -18 -208t-57 -186.5t-108.5 -157.5t-164.5 -105q123 -47 340 -111l-61 -156q-345 109 -520 226q-136 0 -240 33t-172.5 92t-111.5 147.5t-61 191.5t-18 232q0 153 35.5 281t106.5 226.5t189.5 154t273.5 55.5zM705 1225q-111 0 -192 -42
t-128 -118t-68.5 -172t-21.5 -215q0 -528 410 -528q187 0 293 132.5t106 395.5q0 127 -20 223.5t-65 171t-124 113.5t-190 39z" />
    <glyph glyph-name="R" unicode="R" horiz-adv-x="1210" 
d="M1128 963q0 -56 -14 -109.5t-45 -105t-77 -92t-115.5 -68.5t-153.5 -35l416 -553h-226l-407 551h-187v-551h-184v1382h527q221 0 343.5 -113.5t122.5 -305.5zM643 1217h-324v-500h324q58 0 107.5 12t94 38.5t70 77t25.5 120.5q0 116 -84.5 184t-212.5 68z" />
    <glyph glyph-name="S" unicode="S" horiz-adv-x="1292" 
d="M653 150q91 0 160 19.5t107 53t56.5 72t18.5 82.5q0 116 -80 176t-258 80q-63 7 -107 14t-100.5 20t-95.5 29.5t-79.5 43.5t-65 60.5t-40 81.5t-15.5 107q0 64 15.5 121.5t53.5 110.5t95 91.5t145.5 61.5t200.5 23q87 0 170.5 -21.5t155 -64t115.5 -114.5t44 -163
q0 -15 -4 -51h-180q-3 105 -85.5 173.5t-228.5 68.5q-153 0 -231 -59t-78 -150q0 -28 6 -51t19.5 -41t29.5 -31.5t42.5 -24.5t51.5 -19t63.5 -15t71 -12.5t81.5 -12.5q9 -1 14 -2q235 -34 352 -129t117 -287q0 -81 -32.5 -153t-96 -130.5t-170.5 -93t-244 -34.5
q-86 0 -164.5 14.5t-148.5 46t-121 77t-81 112.5t-30 147q0 24 7 59h176q3 -127 96.5 -206.5t271.5 -79.5z" />
    <glyph glyph-name="T" unicode="T" horiz-adv-x="1175" 
d="M684 1217v-1217h-184v1217h-469v165h1114v-165h-461z" />
    <glyph glyph-name="U" unicode="U" horiz-adv-x="1366" 
d="M1233 1382v-837q0 -561 -539 -561q-156 0 -266 38t-174 113.5t-92.5 177.5t-28.5 240v829h186v-839q0 -112 26.5 -190t78 -121.5t117.5 -62.5t155 -19q166 0 259.5 96.5t93.5 298.5v837h184z" />
    <glyph glyph-name="V" unicode="V" horiz-adv-x="1236" 
d="M606 180h12q16 70 39.5 149t41 132t45.5 135t40 117l228 669h192l-479 -1382h-229l-465 1382h192l228 -677q124 -361 155 -525z" />
    <glyph glyph-name="W" unicode="W" horiz-adv-x="1849" 
d="M1343 242l11 -2q78 360 127 555l143 587h201l-373 -1382h-201l-207 678q-12 40 -33.5 109.5t-33.5 109t-27 98.5t-26 115h-9q-25 -123 -114 -432l-199 -678h-201l-376 1382h200l133 -540q9 -38 41.5 -167.5t55.5 -228t43 -202.5h12q44 180 164 598l157 540h181l172 -575
q11 -38 38.5 -130t43.5 -147t38.5 -136.5t38.5 -151.5z" />
    <glyph glyph-name="X" unicode="X" horiz-adv-x="1183" 
d="M1120 1382l-424 -663q313 -480 467 -719h-221l-352 586q-60 -94 -176.5 -293t-175.5 -293h-222l467 719q-76 120 -224.5 350t-201.5 313h213l320 -532q53 87 159.5 266t159.5 266h211z" />
    <glyph glyph-name="Y" unicode="Y" horiz-adv-x="1171" 
d="M571 727h21q39 101 172 356l160 299h213l-469 -827v-555h-187v555l-463 827h213l172 -319q4 -8 39.5 -73.5t50 -94t39 -79.5t39.5 -89z" />
    <glyph glyph-name="Z" unicode="Z" horiz-adv-x="1189" 
d="M68 0v154l815 1058h-766v170h989v-153l-811 -1061h831v-168h-1058z" />
    <glyph glyph-name="bracketleft" unicode="[" horiz-adv-x="616" 
d="M145 -236l-2 1690h357v-145h-187v-1399h187v-146h-355z" />
    <glyph glyph-name="backslash" unicode="\" horiz-adv-x="1136" 
d="M1102 -90h-172l-912 1558h172z" />
    <glyph glyph-name="bracketright" unicode="]" horiz-adv-x="616" 
d="M469 1454v-1690h-356v146h186v1399h-186v145h356z" />
    <glyph glyph-name="asciicircum" unicode="^" 
d="M541 1356h143q62 -125 209.5 -416t224.5 -448h-186l-324 653l-313 -653h-186q81 166 235 472t197 392z" />
    <glyph glyph-name="underscore" unicode="_" horiz-adv-x="1064" 
d="M20 -195v144h1024v-144h-1024z" />
    <glyph glyph-name="grave" unicode="`" horiz-adv-x="1124" 
d="M788 1194l-98 -80l-303 301l158 125z" />
    <glyph glyph-name="a" unicode="a" horiz-adv-x="1044" 
d="M442 131q136 0 218.5 75.5t82.5 174.5v74q-81 18 -198 18q-289 0 -289 -194q0 -64 50.5 -106t135.5 -42zM922 672v-672h-140q-28 46 -28 131h-9q-98 -149 -323 -149q-155 0 -252.5 75t-97.5 222q0 79 28 139t72.5 96t107.5 59t125 31t134 8q99 0 202 -14v53
q0 107 -54.5 157t-170.5 50q-173 0 -203 -125h-163q-3 15 -3 25q0 70 35 121.5t92.5 78t118 38.5t125.5 12q93 0 164 -17t116 -46.5t73.5 -73t39.5 -92t11 -107.5z" />
    <glyph glyph-name="b" unicode="b" horiz-adv-x="1124" 
d="M592 -16q-90 0 -172.5 34.5t-124.5 112.5h-8q0 -83 -29 -131h-135v1456h180v-420q0 -44 -6.5 -107.5t-15.5 -94.5h10q49 79 133 126.5t188 47.5q106 0 185.5 -36t128.5 -104.5t72.5 -162t23.5 -213.5q0 -84 -14 -157.5t-46.5 -138.5t-81.5 -111.5t-122.5 -73.5
t-165.5 -27zM582 850q-62 0 -111.5 -21t-80 -53.5t-50.5 -76t-27.5 -86t-7.5 -85.5v-100q0 -128 71.5 -209.5t194.5 -81.5q135 0 201 93t66 266q0 354 -256 354z" />
    <glyph glyph-name="c" unicode="c" horiz-adv-x="1005" 
d="M557 1006q69 0 133.5 -16.5t118.5 -49t86.5 -88t32.5 -127.5q0 -23 -4 -39h-166q-4 44 -24.5 76t-52 48.5t-63 24t-63.5 7.5q-143 0 -205.5 -91.5t-62.5 -258.5q0 -349 268 -349q43 0 80 9.5t69.5 31t52 61t21.5 93.5h164q4 -28 4 -41q0 -142 -106.5 -227.5t-272.5 -85.5
q-465 0 -465 493q0 119 26.5 214t80 166.5t142 110t206.5 38.5z" />
    <glyph glyph-name="d" unicode="d" horiz-adv-x="1122" 
d="M516 -16q-418 0 -418 487q0 238 118 387.5t325 149.5q95 0 156.5 -23.5t111.5 -73.5h8v545h180v-1456h-139q-29 48 -29 131h-8q-95 -147 -305 -147zM545 137q124 0 197 82t73 209v152q0 31 -6 63.5t-24 71t-46.5 67.5t-77.5 48.5t-112 19.5q-130 0 -198 -104t-68 -273
q0 -336 262 -336z" />
    <glyph glyph-name="e" unicode="e" horiz-adv-x="1071" 
d="M549 848q-116 0 -182.5 -69t-75.5 -189h502q0 120 -62 189t-182 69zM551 1006q104 0 185.5 -33t132 -91t76.5 -133.5t26 -162.5q0 -68 -15 -133h-671q0 -314 278 -314q214 0 236 166h162q2 -12 2 -37q0 -72 -34 -128t-91 -90t-127 -51t-148 -17q-463 0 -463 505
q0 109 27 201t80.5 164t141.5 113t202 41z" />
    <glyph glyph-name="f" unicode="f" horiz-adv-x="743" 
d="M412 989h299v-137h-299v-852h-183v852h-157v109l157 26v152q0 176 77 252.5t249 76.5q85 0 158 -18l-2 -141q-85 10 -150 10q-87 0 -118 -36t-31 -142v-152z" />
    <glyph glyph-name="g" unicode="g" horiz-adv-x="1144" 
d="M950 860l-2 -14q74 -80 74 -211q0 -160 -119.5 -265.5t-327.5 -105.5q-147 0 -247 41q-25 -28 -25 -53q0 -27 22.5 -46.5t61.5 -25.5l363 -53q311 -44 311 -272q0 -82 -40.5 -142.5t-113 -95t-162 -50.5t-198.5 -16q-455 0 -455 285q0 72 40.5 135t98.5 107
q-55 24 -84.5 65.5t-29.5 89.5q0 89 88 154q-88 95 -88 244q0 57 14 108.5t48 101.5t85 86.5t131 58.5t180 22q96 0 191 -25h324v-98q-57 -22 -140 -25zM621 0l-211 29q-134 -74 -134 -185q0 -67 69 -108t208 -41q63 0 117 8t101 25.5t74 50t27 76.5q0 19 -5.5 35t-21.5 33
t-43.5 30.5t-73 26t-107.5 20.5zM571 866q-79 0 -136 -19.5t-87.5 -53.5t-44.5 -73.5t-14 -86.5q0 -100 69 -165t213 -65q130 0 202.5 65t72.5 167q0 46 -14.5 85t-45 73t-85.5 53.5t-130 19.5z" />
    <glyph glyph-name="h" unicode="h" horiz-adv-x="1110" 
d="M281 834h8q45 83 132.5 128.5t192.5 45.5q70 0 126.5 -13.5t95 -35.5t67 -56t44.5 -69t25 -81.5t12 -86t3 -88.5v-578h-184v573q0 68 -10 117t-34.5 90t-71 61.5t-114.5 20.5q-56 0 -102 -20.5t-76.5 -54t-51.5 -77.5t-30.5 -89.5t-9.5 -92.5v-528h-180v1458h180v-405
q0 -138 -22 -219z" />
    <glyph glyph-name="i" unicode="i" horiz-adv-x="532" 
d="M172 0v991h182v-991h-182zM152 1255q0 49 33.5 83t80.5 34q50 0 83.5 -34t33.5 -83q0 -47 -34 -80.5t-83 -33.5q-47 0 -80.5 33.5t-33.5 80.5z" />
    <glyph glyph-name="j" unicode="j" horiz-adv-x="509" 
d="M123 -416h-103v158h48q56 0 77 28.5t21 90.5v1130h184v-1132q0 -64 -10.5 -112t-35.5 -86t-70.5 -57.5t-110.5 -19.5zM143 1255q0 49 33.5 83t81.5 34q50 0 83.5 -34t33.5 -83q0 -47 -34 -80.5t-83 -33.5q-47 0 -81 33.5t-34 80.5z" />
    <glyph glyph-name="k" unicode="k" horiz-adv-x="991" 
d="M754 989h204l-372 -440l401 -549h-217l-334 471h-133v-471h-178v1456h178v-840h137z" />
    <glyph glyph-name="l" unicode="l" horiz-adv-x="489" 
d="M143 190v1266h179v-1257q0 -44 16.5 -56t79.5 -12v-133q-63 -16 -117 -16q-45 0 -75 10.5t-46.5 25.5t-24.5 45t-10 55.5t-2 71.5z" />
    <glyph glyph-name="m" unicode="m" horiz-adv-x="1708" 
d="M1192 862q-65 0 -115 -28.5t-78.5 -75.5t-42.5 -101.5t-14 -113.5v-543h-180v573q0 68 -8.5 117t-30.5 90t-64.5 61.5t-105.5 20.5q-65 0 -115 -28.5t-78.5 -75.5t-42.5 -101.5t-14 -113.5v-543h-180v991h141q33 -47 33 -141h8q42 78 126.5 118t162.5 40q225 0 303 -166
q131 166 336 166q67 0 120 -12.5t89.5 -32.5t63 -51.5t41.5 -64.5t24 -77t11.5 -82.5t2.5 -87.5v-600h-184v573q0 68 -8.5 117t-30.5 90t-64.5 61.5t-105.5 20.5z" />
    <glyph glyph-name="n" unicode="n" horiz-adv-x="1110" 
d="M614 1008q70 0 126.5 -13.5t95 -35.5t67 -56t44.5 -69t25 -81.5t12 -86t3 -88.5v-578h-184v573q0 68 -10 117t-34.5 90t-71 61.5t-114.5 20.5q-65 0 -118.5 -28.5t-85.5 -75t-49 -102t-17 -113.5v-543h-180v991h135q39 -56 39 -139h8q53 74 143 115t166 41z" />
    <glyph glyph-name="o" unicode="o" horiz-adv-x="1126" 
d="M573 1006q98 0 176 -28t128.5 -74.5t83.5 -111.5t47 -135t14 -149q0 -80 -14.5 -152.5t-49 -141t-87 -118.5t-134 -80t-184.5 -30q-453 0 -453 491q0 113 29 208t85.5 167.5t148.5 113t210 40.5zM571 842q-286 0 -286 -350q0 -173 66.5 -261t209.5 -88q128 0 201.5 88.5
t73.5 262.5q0 169 -59.5 258.5t-205.5 89.5z" />
    <glyph glyph-name="p" unicode="p" horiz-adv-x="1124" 
d="M614 1008q92 0 163.5 -27t117.5 -72.5t75.5 -111t41.5 -138t12 -157.5q0 -236 -114.5 -377t-311.5 -141q-84 0 -162.5 26t-122.5 78h-8v-508h-180v1411h139q14 -24 24.5 -66t10.5 -79h8q47 81 134 121.5t173 40.5zM578 854q-124 0 -197.5 -82t-73.5 -209v-151
q0 -31 6 -63.5t24 -71t46.5 -68t77.5 -49t112 -19.5q132 0 199.5 95t67.5 264q0 180 -65 267t-197 87z" />
    <glyph glyph-name="q" unicode="q" horiz-adv-x="1124" 
d="M102 500q0 102 25.5 192t75 161.5t131 113t186.5 41.5q217 0 311 -150h9q6 85 34 133h127v-1411h-180v363q0 121 23 219h-8q-49 -80 -134.5 -129t-189.5 -49q-106 0 -185.5 36t-128.5 104.5t-72.5 162t-23.5 213.5zM543 141q61 0 109.5 20.5t79 53.5t51 76.5t28.5 86
t8 85.5v100q0 128 -71.5 210.5t-194.5 82.5q-134 0 -200 -96.5t-66 -270.5q0 -348 256 -348z" />
    <glyph glyph-name="r" unicode="r" horiz-adv-x="661" 
d="M653 1012l13 -170q-185 -3 -274 -72.5t-89 -220.5v-549h-180v991h135q37 -78 37 -182h8q23 59 66 101t94 63t97.5 30t92.5 9z" />
    <glyph glyph-name="s" unicode="s" horiz-adv-x="964" 
d="M496 135q97 0 148.5 42t51.5 99q0 76 -48 109t-171 47l-64 8t-60.5 9.5t-59 13.5t-52 18.5t-47.5 24.5t-37.5 32.5t-30 43t-17.5 54t-7 66.5q0 60 20 111.5t62.5 96t119.5 70.5t181 26q62 0 123.5 -13.5t117 -40t90 -74.5t34.5 -110q0 -17 -4 -37h-174q-8 46 -42 75
t-72.5 38.5t-82.5 9.5q-95 0 -143.5 -38t-48.5 -95q0 -29 10 -49.5t27.5 -33t48 -21.5t65 -15t83.5 -13q6 -1 9 -1q186 -26 268.5 -91t82.5 -210q0 -59 -24 -111.5t-71.5 -95.5t-127 -68.5t-181.5 -25.5q-55 0 -108.5 8.5t-107 29t-93.5 51.5t-65 79t-25 108q0 22 6 49h172
q16 -176 244 -176z" />
    <glyph glyph-name="t" unicode="t" horiz-adv-x="753" 
d="M385 1251v-260h291v-139h-291v-533q0 -115 44 -150.5t163 -35.5q49 0 121 10v-143q-81 -16 -176 -16q-94 0 -154 15t-101.5 53.5t-59 104.5t-17.5 169v526h-160v115l170 22l43 262h127z" />
    <glyph glyph-name="u" unicode="u" horiz-adv-x="1089" 
d="M801 139h-8q-54 -78 -141.5 -116.5t-166.5 -38.5q-91 0 -158.5 24t-105.5 60.5t-61 91t-30 104.5t-7 111v616h184v-579q0 -55 4.5 -94.5t18.5 -76.5t37.5 -60t63.5 -36.5t95 -13.5q65 0 116.5 28t82 75t46 102t15.5 113v542h181v-991h-133q-33 47 -33 139z" />
    <glyph glyph-name="v" unicode="v" horiz-adv-x="997" 
d="M494 186h18q43 182 154 476l120 327h179l-375 -993h-187l-372 993h184l123 -332q100 -269 156 -471z" />
    <glyph glyph-name="w" unicode="w" horiz-adv-x="1447" 
d="M1026 213h16q10 59 24.5 121.5t24.5 101t29.5 109t28.5 102.5l94 342h178l-299 -993h-186q-9 34 -41.5 134t-63.5 202q-24 75 -100 389h-16q-35 -184 -101 -393l-98 -332h-188l-301 993h180l88 -305q10 -36 32 -110.5t35 -119.5t29 -112t27 -127h16q47 217 123 467
l94 307h154l102 -340q91 -306 119 -436z" />
    <glyph glyph-name="x" unicode="x" horiz-adv-x="944" 
d="M717 0l-246 387l-244 -387h-207l351 518l-324 473h209l215 -344q135 207 217 344h207l-324 -473l353 -518h-207z" />
    <glyph glyph-name="y" unicode="y" horiz-adv-x="942" 
d="M451 131h16q26 91 69 220.5t50 152.5l153 485h174l-366 -1108q-24 -74 -50 -125t-65 -95t-94.5 -65.5t-128.5 -21.5h-119v145h96q71 0 111.5 28.5t71.5 98.5l51 150l-90 -6q-31 124 -111 379l-199 620h191l141 -491q6 -23 29 -100.5t39.5 -140t30.5 -126.5z" />
    <glyph glyph-name="z" unicode="z" horiz-adv-x="921" 
d="M45 0v121l596 721h-557v147h772v-127l-594 -719h606v-143h-823z" />
    <glyph glyph-name="braceleft" unicode="{" horiz-adv-x="700" 
d="M295 584v-13q129 -63 129 -274v-313q0 -80 82 -80h74v-142h-103q-100 0 -159.5 60.5t-59.5 163.5v311q0 101 -29.5 151t-111.5 72v111q77 20 108 71t31 150v356q0 110 48.5 174t152.5 64h123v-135h-74q-38 0 -59 -23.5t-21 -68.5v-357q0 -224 -131 -278z" />
    <glyph glyph-name="bar" unicode="|" horiz-adv-x="614" 
d="M221 -236v1704h170v-1704h-170z" />
    <glyph glyph-name="braceright" unicode="}" horiz-adv-x="700" 
d="M395 571v13q-131 54 -131 278v357q0 45 -21 68.5t-59 23.5h-73v135h122q104 0 152.5 -64t48.5 -174v-356q0 -99 31 -150t108 -71v-111q-82 -22 -111.5 -72t-29.5 -151v-311q0 -103 -59.5 -163.5t-159.5 -60.5h-102v142h73q82 0 82 80v313q0 211 129 274z" />
    <glyph glyph-name="asciitilde" unicode="~" 
d="M846 428q-59 0 -128 17t-120 37.5t-103 37.5t-81 17q-81 0 -187 -109l-92 72q39 93 113 146.5t158 53.5q71 0 235 -55t209 -55q42 0 79 23t79 77l108 -59q-37 -92 -110 -147.5t-160 -55.5z" />
    <glyph glyph-name="exclamdown" unicode="&#xa1;" horiz-adv-x="634" 
d="M248 625h149l31 -1031h-205zM197 877q0 54 36.5 90.5t90.5 36.5t90.5 -36.5t36.5 -90.5t-36.5 -90.5t-90.5 -36.5t-90.5 36.5t-36.5 90.5z" />
    <glyph glyph-name="cent" unicode="&#xa2;" 
d="M586 -147v309q-387 37 -387 483q0 225 95 361.5t292 156.5v305h96v-305q66 -4 122.5 -22t104 -51t74.5 -88.5t27 -127.5v-22h-166q-4 47 -30 80.5t-59 48t-73 20.5v-682q174 19 182 189h162v-27q0 -139 -95 -226t-249 -95v-307h-96zM381 659q0 -300 205 -337v677
q-110 -19 -157.5 -106.5t-47.5 -233.5z" />
    <glyph glyph-name="sterling" unicode="&#xa3;" 
d="M664 1186q-128 0 -197.5 -60t-69.5 -168q0 -41 10 -98t29 -86h395v-139h-356q14 -72 14 -178q0 -165 -75 -299h665v-158h-952v158h92q90 187 90 305q0 66 -28 172h-154v139h121q-31 121 -31 203q0 161 118.5 266t309.5 105q205 0 316.5 -80t111.5 -205q0 -27 -2 -39h-162
q-29 162 -245 162z" />
    <glyph glyph-name="currency" unicode="&#xa4;" 
d="M186 606q0 56 20 120.5t52 117.5l-111 117l119 112l109 -112q119 71 237 71q124 0 238 -74l111 109l116 -115l-112 -114q69 -101 69 -232q0 -129 -69 -233l114 -113l-118 -117l-111 109q-117 -72 -238 -72q-120 0 -237 72l-105 -111l-118 119l106 105q-72 101 -72 241z
M340 604q0 -111 79 -189.5t191 -78.5q110 0 188.5 79t78.5 189q0 112 -78.5 191t-188.5 79q-112 0 -191 -79t-79 -191z" />
    <glyph glyph-name="yen" unicode="&#xa5;" 
d="M1083 553h-913v102h293l-377 672h203l170 -307q127 -238 164 -328h20q46 114 168 348l158 287h202l-385 -672h297v-102zM170 467h913v-100h-366v-367h-182v367h-365v100z" />
    <glyph glyph-name="brokenbar" unicode="&#xa6;" horiz-adv-x="724" 
d="M262 582h182v-813h-182v813zM444 672h-182v768h182v-768z" />
    <glyph glyph-name="section" unicode="&#xa7;" horiz-adv-x="1126" 
d="M999 588q0 -189 -182 -264q170 -88 170 -244q0 -43 -12 -83.5t-43 -81t-78 -70.5t-123 -49t-172 -19q-71 0 -136.5 13t-127 42t-98.5 84.5t-37 130.5v14h182q20 -71 83 -102t140 -31q118 0 176 41.5t58 96.5q0 53 -52 94t-180 84q-178 59 -238 90q-126 64 -158 166
q-13 41 -13 92q0 87 43.5 158.5t128.5 109.5q-146 71 -146 221q0 45 11 87t40 83.5t73 72.5t115.5 50t162.5 19q53 0 103 -8t101 -27.5t88.5 -50t61 -78.5t23.5 -109v-12h-170q-9 38 -31.5 65t-53.5 41.5t-62.5 20.5t-65.5 6q-113 0 -165.5 -43.5t-52.5 -105.5
q0 -50 57.5 -86.5t178.5 -77.5q176 -57 237 -89q127 -66 155 -173q9 -36 9 -78zM825 578q0 139 -268 200q-106 0 -162.5 -53t-56.5 -123q0 -69 55.5 -111.5t175.5 -78.5q130 0 193 48.5t63 117.5z" />
    <glyph glyph-name="dieresis" unicode="&#xa8;" horiz-adv-x="1124" 
d="M268 1266q0 43 31 73.5t74 30.5t73.5 -30.5t30.5 -73.5t-30.5 -74t-73.5 -31t-74 31t-31 74zM631 1266q0 43 30.5 73.5t73.5 30.5t74 -30.5t31 -73.5t-31 -74t-74 -31t-73.5 31t-30.5 74z" />
    <glyph glyph-name="copyright" unicode="&#xa9;" horiz-adv-x="1689" 
d="M858 225q-112 0 -191.5 33.5t-125 97.5t-66 147t-20.5 193q0 106 23 192.5t69.5 154t124.5 104.5t182 37q139 0 236.5 -71t97.5 -195q0 -27 -2 -39h-135q-3 86 -56 136t-151 50q-68 0 -117.5 -28.5t-77.5 -80.5t-40.5 -116t-12.5 -144q0 -82 11 -142t37.5 -109t75.5 -74
t120 -25q108 0 164.5 54t56.5 141h135q0 -5 1 -15t1 -14q0 -88 -49.5 -155t-126 -99.5t-164.5 -32.5zM852 -27q-166 0 -304 56.5t-231 156.5t-144.5 238.5t-51.5 300.5q0 160 58.5 300t157.5 237t233 152.5t282 55.5q147 0 280.5 -55.5t232 -152.5t156.5 -237t58 -300
q0 -159 -58 -300t-156.5 -239.5t-232 -155.5t-280.5 -57zM852 1337q-121 0 -231 -48t-190 -129.5t-127.5 -195t-47.5 -239.5q0 -172 75.5 -313t212.5 -223.5t308 -82.5q162 0 297.5 82t214 224.5t78.5 312.5q0 126 -46.5 239.5t-125.5 195t-188 129.5t-230 48z" />
    <glyph glyph-name="ordfeminine" unicode="&#xaa;" horiz-adv-x="722" 
d="M303 686q85 0 139 46.5t54 105.5v43q-51 10 -125 10q-79 0 -131 -30.5t-52 -92.5q0 -35 30.5 -58.5t84.5 -23.5zM510 664h-10q-76 -97 -211 -97q-108 0 -177 52t-69 149q0 66 28.5 112.5t77.5 70.5t102 34t116 10q71 0 127 -6v23q0 63 -35 92t-109 29q-109 0 -129 -80
h-125q-2 8 -2 24q0 47 24 82.5t64 54t82.5 27t87.5 8.5q156 0 218.5 -60t62.5 -165v-444h-105q-15 29 -18 84z" />
    <glyph glyph-name="guillemotleft" unicode="&#xab;" horiz-adv-x="1003" 
d="M315 469l271 -363l-103 -86l-360 420v58l360 411l103 -78zM657 469l271 -363l-103 -86l-360 420v58l360 411l103 -78z" />
    <glyph glyph-name="logicalnot" unicode="&#xac;" 
d="M1030 625v-463h-176v317h-657v146h833z" />
    <glyph glyph-name="sfthyphen" unicode="&#xad;" horiz-adv-x="991" 
d="M197 434v162h596v-162h-596z" />
    <glyph glyph-name="registered" unicode="&#xae;" horiz-adv-x="1187" 
d="M1063 942q0 -133 -65.5 -245t-178 -177t-246.5 -65q-218 0 -352.5 140t-134.5 347q0 133 66 246t178 178.5t243 65.5q211 0 350.5 -142.5t139.5 -347.5zM963 942q0 161 -115 277t-275 116q-164 0 -274.5 -115t-110.5 -278t109 -277t276 -114q160 0 275 115.5t115 275.5z
M668 918l123 -240h-113l-111 225h-75v-225h-97v561h189q83 0 135.5 -43t52.5 -129q0 -48 -27 -89t-77 -60zM588 1147h-96v-154h96q86 0 86 76q0 40 -24.5 59t-61.5 19z" />
    <glyph glyph-name="macron" unicode="&#xaf;" horiz-adv-x="1120" 
d="M268 1229v145h631v-145h-631z" />
    <glyph glyph-name="degree" unicode="&#xb0;" horiz-adv-x="765" 
d="M381 807q-124 0 -211.5 84t-87.5 203q0 121 87 202.5t212 81.5q121 0 208 -82t87 -202q0 -118 -87.5 -202.5t-207.5 -84.5zM377 1255q-67 0 -116.5 -47t-49.5 -114t50 -116.5t116 -49.5q69 0 117.5 49t48.5 117q0 66 -48.5 113.5t-117.5 47.5z" />
    <glyph glyph-name="plusminus" unicode="&#xb1;" 
d="M702 506v-307h-176v307h-329v145h329v310h176v-310h328v-145h-328zM197 143h833v-143h-833v143z" />
    <glyph glyph-name="twosuperior" unicode="&#xb2;" horiz-adv-x="747" 
d="M381 1577q154 0 228.5 -61t74.5 -158q0 -143 -244 -277q-10 -6 -35 -19t-35 -18.5t-30.5 -17t-29.5 -17.5t-25 -16.5t-23 -17.5t-18 -17.5t-16 -19.5t-10 -20t-7 -23h481v-129h-639v65q0 50 13.5 91.5t34.5 73.5t61 64t79.5 56.5t102.5 59.5q104 58 139 91q45 42 45 85
q0 46 -36.5 74t-102.5 28q-71 0 -119.5 -37t-52.5 -119h-119q-6 27 -6 54q0 100 84 162.5t205 62.5z" />
    <glyph glyph-name="threesuperior" unicode="&#xb3;" horiz-adv-x="737" 
d="M416 1440l-4 10h-344v121h581v-101l-217 -182l4 -12q115 -14 181.5 -73.5t66.5 -164.5q0 -125 -100 -200.5t-250 -75.5q-136 0 -218.5 54t-82.5 149q0 24 4 49h127q10 -77 53 -103t117 -26q87 0 142.5 38t55.5 119q0 69 -55.5 101.5t-138.5 32.5q-42 0 -102 -11l-50 88z
" />
    <glyph glyph-name="acute" unicode="&#xb4;" horiz-adv-x="1124" 
d="M535 1116l-97 82l267 334l147 -127z" />
    <glyph glyph-name="mu" unicode="&#xb5;" horiz-adv-x="1097" 
d="M125 -420v1411h182v-594q0 -60 9 -104.5t32 -83.5t68 -59.5t112 -20.5q65 0 118 28.5t84.5 75.5t48 102.5t16.5 113.5v542h180v-991h-148q-26 37 -26 152h-8q-55 -89 -129.5 -128.5t-151.5 -39.5q-126 0 -207 49v-453h-180z" />
    <glyph glyph-name="mu" unicode="&#x3bc;" horiz-adv-x="1097" 
d="M125 -420v1411h182v-594q0 -60 9 -104.5t32 -83.5t68 -59.5t112 -20.5q65 0 118 28.5t84.5 75.5t48 102.5t16.5 113.5v542h180v-991h-148q-26 37 -26 152h-8q-55 -89 -129.5 -128.5t-151.5 -39.5q-126 0 -207 49v-453h-180z" />
    <glyph glyph-name="paragraph" unicode="&#xb6;" horiz-adv-x="1124" 
d="M961 1409v-1364q0 -66 -15.5 -121.5t-51 -105t-102 -77.5t-159.5 -28q-24 0 -74 4l2 131q148 7 200 54.5t52 160.5v1346h148zM694 655h-192q-164 0 -271.5 108.5t-107.5 268.5q0 157 109 267t270 110h192v-754z" />
    <glyph glyph-name="periodcentered" unicode="&#xb7;" horiz-adv-x="512" 
d="M117 549q0 59 40.5 99t98.5 40t98.5 -40t40.5 -99t-40.5 -99t-98.5 -40t-98.5 40t-40.5 99z" />
    <glyph glyph-name="cedilla" unicode="&#xb8;" horiz-adv-x="1046" 
d="M524 -453q-103 0 -211 37l29 94q94 -28 162 -28q63 0 97 24t34 64q0 42 -32 62t-77 20q-52 0 -86 -17l-47 41l105 207h120l-75 -135q70 -1 120 -19t75 -46.5t35.5 -56.5t10.5 -56q0 -84 -66 -137t-194 -54z" />
    <glyph glyph-name="onesuperior" unicode="&#xb9;" horiz-adv-x="718" 
d="M662 891v-125h-605v125h222v524l-189 -22v110l213 68h131v-680h228z" />
    <glyph glyph-name="ordmasculine" unicode="&#xba;" horiz-adv-x="751" 
d="M379 1251q85 0 147.5 -28t97 -77t50.5 -107t16 -128q0 -68 -16 -126t-50.5 -107t-97 -77t-147.5 -28q-318 0 -318 336q0 155 80.5 248.5t237.5 93.5zM379 1122q-174 0 -174 -213q0 -211 174 -211q79 0 122.5 53.5t43.5 159.5q0 211 -166 211z" />
    <glyph glyph-name="guillemotright" unicode="&#xbb;" horiz-adv-x="1003" 
d="M467 106l270 363l-270 362l102 78l361 -411v-58l-361 -420zM125 106l270 363l-270 362l102 78l361 -411v-58l-361 -420z" />
    <glyph glyph-name="onequarter" unicode="&#xbc;" horiz-adv-x="1771" 
d="M709 707v-125h-605v125h222v524l-189 -23v111l213 67h131v-679h228zM604 -57h-155l872 1503h160zM1395 807h127v-494h137v-127h-137v-186h-160v186h-432v99zM1137 313h225v260z" />
    <glyph glyph-name="onehalf" unicode="&#xbd;" horiz-adv-x="1771" 
d="M668 707v-125h-605v125h222v524l-189 -23v111l213 67h131v-679h228zM510 -57h-156l873 1503h159zM1370 811q154 0 228.5 -61t74.5 -158q0 -45 -21.5 -86.5t-59.5 -77t-76 -61.5t-86 -52q-11 -6 -39.5 -21t-38 -20.5t-33 -18.5t-32 -19.5t-25.5 -18.5t-24 -20.5t-16.5 -20
t-14.5 -23t-7 -24.5h481v-129h-639v66q0 50 13.5 91.5t34.5 73t61 64t79.5 56.5t102.5 59q103 57 138 89q47 43 47 87q0 45 -37 73.5t-103 28.5q-71 0 -119.5 -37t-52.5 -119h-119q-6 27 -6 54q0 100 84 162.5t205 62.5z" />
    <glyph glyph-name="threequarters" unicode="&#xbe;" horiz-adv-x="1771" 
d="M494 1255l-5 11h-344v120h582v-100l-217 -182l4 -12q115 -14 181.5 -73.5t66.5 -164.5q0 -125 -100 -200.5t-250 -75.5q-136 0 -218.5 53.5t-82.5 148.5q0 24 4 49h127q10 -77 53 -103t117 -26q87 0 142.5 38.5t55.5 119.5q0 69 -55.5 101t-138.5 32q-48 0 -103 -10
l-49 88zM575 -57h-155l872 1503h160zM1411 807h127v-494h137v-127h-137v-186h-160v186h-432v99zM1153 313h225v260z" />
    <glyph glyph-name="questiondown" unicode="&#xbf;" horiz-adv-x="964" 
d="M526 -446q-196 0 -305.5 86t-109.5 249q0 171 202 357q47 43 73.5 71.5t57 72t44.5 93t14 109.5v67h182v-36q0 -267 -199 -445q-184 -163 -184 -287q0 -78 57.5 -128t165.5 -50q199 0 230 199h164q4 -32 4 -49q0 -81 -35.5 -142.5t-94 -96.5t-126 -52.5t-140.5 -17.5z
M721 889q0 -54 -36.5 -90.5t-90.5 -36.5t-90.5 36.5t-36.5 90.5t36.5 90.5t90.5 36.5t90.5 -36.5t36.5 -90.5z" />
    <glyph glyph-name="Agrave" unicode="&#xc0;" horiz-adv-x="1269" 
d="M1049 0l-131 350h-576l-125 -350h-197l521 1386h182l526 -1386h-200zM635 1161h-12q-12 -43 -26.5 -88.5t-24.5 -74.5t-29.5 -83t-28.5 -81l-117 -328h467l-114 311q-92 257 -115 344zM713 1579l-72 -102l-381 196l123 158z" />
    <glyph glyph-name="Aacute" unicode="&#xc1;" horiz-adv-x="1269" 
d="M1049 0l-131 350h-576l-125 -350h-197l521 1386h182l526 -1386h-200zM635 1161h-12q-12 -43 -26.5 -88.5t-24.5 -74.5t-29.5 -83t-28.5 -81l-117 -328h467l-114 311q-92 257 -115 344zM629 1485l-72 102l330 252l123 -158z" />
    <glyph glyph-name="Acircumflex" unicode="&#xc2;" horiz-adv-x="1269" 
d="M1049 0l-131 350h-576l-125 -350h-197l521 1386h182l526 -1386h-200zM635 1161h-12q-12 -43 -26.5 -88.5t-24.5 -74.5t-29.5 -83t-28.5 -81l-117 -328h467l-114 311q-92 257 -115 344zM883 1485l-252 219l-266 -219l-82 82l278 291h144l270 -291z" />
    <glyph glyph-name="Atilde" unicode="&#xc3;" horiz-adv-x="1269" 
d="M1049 0l-131 350h-576l-125 -350h-197l521 1386h182l526 -1386h-200zM635 1161h-12q-12 -43 -26.5 -88.5t-24.5 -74.5t-29.5 -83t-28.5 -81l-117 -328h467l-114 311q-92 257 -115 344zM768 1575q-54 0 -147 37t-136 37q-63 0 -141 -78l-82 69q29 73 91 117.5t130 44.5
q45 0 130 -35.5t139 -35.5q71 0 139 73l88 -65q-24 -73 -85 -118.5t-126 -45.5z" />
    <glyph glyph-name="Adieresis" unicode="&#xc4;" horiz-adv-x="1269" 
d="M1049 0l-131 350h-576l-125 -350h-197l521 1386h182l526 -1386h-200zM635 1161h-12q-12 -43 -26.5 -88.5t-24.5 -74.5t-29.5 -83t-28.5 -81l-117 -328h467l-114 311q-92 257 -115 344zM340 1655q0 43 30.5 73.5t73.5 30.5t74 -30.5t31 -73.5t-31 -74t-74 -31t-73.5 31
t-30.5 74zM702 1655q0 43 31 73.5t74 30.5t73.5 -30.5t30.5 -73.5t-30.5 -74t-73.5 -31t-74 31t-31 74z" />
    <glyph glyph-name="Aring" unicode="&#xc5;" horiz-adv-x="1269" 
d="M1049 0l-131 350h-576l-125 -350h-197l521 1386h182l526 -1386h-200zM635 1161h-12q-12 -43 -26.5 -88.5t-24.5 -74.5t-29.5 -83t-28.5 -81l-117 -328h467l-114 311q-92 257 -115 344zM629 1442q-97 0 -160 63t-63 158t63 160t160 65q98 0 164.5 -65.5t66.5 -159.5
q0 -96 -66.5 -158.5t-164.5 -62.5zM629 1778q-44 0 -75.5 -34.5t-31.5 -80.5t28.5 -80.5t78.5 -34.5q54 0 83 34t29 81t-29.5 81t-82.5 34z" />
    <glyph glyph-name="AE" unicode="&#xc6;" horiz-adv-x="1968" 
d="M975 0v432h-490l-270 -432h-203l885 1382h1008v-145h-740v-446h676v-148h-676v-500h758v-143h-948zM975 1200l-8 2q-61 -106 -219 -360l-160 -260h387v618z" />
    <glyph glyph-name="Ccedilla" unicode="&#xc7;" horiz-adv-x="1275" 
d="M680 -453q-103 0 -211 37l29 94q94 -28 161 -28q63 0 97.5 24.5t34.5 63.5q0 42 -32 62t-77 20q-52 0 -86 -17l-47 41l72 144q-139 13 -238 65.5t-158 144t-85.5 210.5t-26.5 276q0 160 34 287.5t104 223t185.5 147t270.5 51.5q75 0 146 -15.5t133.5 -48t109 -78.5
t73.5 -111.5t27 -142.5q0 -16 -4 -36h-178q-8 122 -90 194t-224 72q-89 0 -157.5 -26.5t-113.5 -73.5t-73.5 -116t-40.5 -149t-12 -178q0 -125 21 -220t67.5 -167t126.5 -109.5t191 -37.5q158 0 238 79t83 207h178q4 -14 4 -37q0 -126 -64.5 -220t-171 -142.5t-241.5 -52.5
l-37 -68q70 -1 120.5 -19t75 -46.5t35.5 -56.5t11 -56q0 -84 -66 -137t-194 -54z" />
    <glyph glyph-name="Egrave" unicode="&#xc8;" horiz-adv-x="1142" 
d="M133 0v1382h909v-165h-725v-429h662v-170h-662v-446h744v-172h-928zM721 1579l-72 -102l-381 196l123 158z" />
    <glyph glyph-name="Eacute" unicode="&#xc9;" horiz-adv-x="1136" 
d="M571 1485l-71 102l329 252l123 -158zM143 0v1382h910v-165h-725v-429h661v-170h-661v-446h743v-172h-928z" />
    <glyph glyph-name="Ecircumflex" unicode="&#xca;" horiz-adv-x="1142" 
d="M133 0v1382h909v-165h-725v-429h662v-170h-662v-446h744v-172h-928zM840 1485l-252 219l-266 -219l-82 82l278 291h144l270 -291z" />
    <glyph glyph-name="Edieresis" unicode="&#xcb;" horiz-adv-x="1142" 
d="M133 0v1382h909v-165h-725v-429h662v-170h-662v-446h744v-172h-928zM332 1655q0 43 30.5 73.5t73.5 30.5t74 -30.5t31 -73.5t-31 -74t-74 -31t-73.5 31t-30.5 74zM694 1655q0 43 31 73.5t74 30.5t73.5 -30.5t30.5 -73.5t-30.5 -74t-73.5 -31t-74 31t-31 74z" />
    <glyph glyph-name="Igrave" unicode="&#xcc;" horiz-adv-x="534" 
d="M174 0v1382h186v-1382h-186zM362 1579l-71 -102l-381 196l123 158z" />
    <glyph glyph-name="Iacute" unicode="&#xcd;" horiz-adv-x="534" 
d="M174 0v1382h186v-1382h-186zM236 1485l-72 102l330 252l122 -158z" />
    <glyph glyph-name="Icircumflex" unicode="&#xce;" horiz-adv-x="534" 
d="M174 0v1382h186v-1382h-186zM518 1485l-252 219l-266 -219l-82 82l279 291h143l270 -291z" />
    <glyph glyph-name="Idieresis" unicode="&#xcf;" horiz-adv-x="534" 
d="M174 0v1382h186v-1382h-186zM-27 1655q0 43 31 73.5t74 30.5t73.5 -30.5t30.5 -73.5t-30.5 -74t-73.5 -31t-74 31t-31 74zM336 1655q0 43 30.5 73.5t73.5 30.5t74 -30.5t31 -73.5t-31 -74t-74 -31t-73.5 31t-30.5 74z" />
    <glyph glyph-name="Eth" unicode="&#xd0;" horiz-adv-x="1298" 
d="M133 770v612h404q101 0 192.5 -21t178 -72t149.5 -129t101 -200t38 -276q0 -158 -48.5 -287t-135 -216t-207.5 -134t-266 -47h-406v643h-121v127h121zM317 170h193q72 0 136 12t133 46.5t118 90t81 150.5t32 219q0 129 -33.5 227.5t-84 154t-120.5 90.5t-132 46t-130 11
h-193v-447h336v-127h-336v-473z" />
    <glyph glyph-name="Ntilde" unicode="&#xd1;" horiz-adv-x="1380" 
d="M1051 309l10 2v1071h186v-1382h-174l-498 707q-177 252 -245 372l-8 -4v-1075h-189v1382h176l453 -639q136 -193 289 -434zM817 1538q-54 0 -146.5 37t-135.5 37q-64 0 -142 -78l-82 70q29 73 91 117t130 44q44 0 130 -35.5t139 -35.5q71 0 139 73l88 -65
q-24 -73 -85 -118.5t-126 -45.5z" />
    <glyph glyph-name="Ograve" unicode="&#xd2;" horiz-adv-x="1417" 
d="M725 1397q131 0 232.5 -37.5t166 -100t105.5 -152.5t57.5 -187.5t16.5 -212.5t-17 -215t-60.5 -195.5t-110 -163t-173 -108.5t-242.5 -41q-133 0 -235 32t-168.5 88t-108.5 141t-59.5 183.5t-17.5 222.5q0 168 35.5 302t108 234.5t192 155t278.5 54.5zM719 1227
q-418 0 -418 -549q0 -272 96.5 -400t307.5 -128q186 0 295.5 133.5t109.5 394.5q0 127 -20.5 224t-65 172t-121.5 114t-184 39zM827 1579l-71 -102l-381 196l123 158z" />
    <glyph glyph-name="Oacute" unicode="&#xd3;" horiz-adv-x="1417" 
d="M725 1397q131 0 232.5 -37.5t166 -100t105.5 -152.5t57.5 -187.5t16.5 -212.5t-17 -215t-60.5 -195.5t-110 -163t-173 -108.5t-242.5 -41q-133 0 -235 32t-168.5 88t-108.5 141t-59.5 183.5t-17.5 222.5q0 168 35.5 302t108 234.5t192 155t278.5 54.5zM719 1227
q-418 0 -418 -549q0 -272 96.5 -400t307.5 -128q186 0 295.5 133.5t109.5 394.5q0 127 -20.5 224t-65 172t-121.5 114t-184 39zM578 1485l-72 102l330 252l122 -158z" />
    <glyph glyph-name="Ocircumflex" unicode="&#xd4;" horiz-adv-x="1417" 
d="M725 1397q131 0 232.5 -37.5t166 -100t105.5 -152.5t57.5 -187.5t16.5 -212.5t-17 -215t-60.5 -195.5t-110 -163t-173 -108.5t-242.5 -41q-133 0 -235 32t-168.5 88t-108.5 141t-59.5 183.5t-17.5 222.5q0 168 35.5 302t108 234.5t192 155t278.5 54.5zM719 1227
q-418 0 -418 -549q0 -272 96.5 -400t307.5 -128q186 0 295.5 133.5t109.5 394.5q0 127 -20.5 224t-65 172t-121.5 114t-184 39zM950 1485l-252 219l-266 -219l-82 82l279 291h143l270 -291z" />
    <glyph glyph-name="Otilde" unicode="&#xd5;" horiz-adv-x="1417" 
d="M725 1397q131 0 232.5 -37.5t166 -100t105.5 -152.5t57.5 -187.5t16.5 -212.5t-17 -215t-60.5 -195.5t-110 -163t-173 -108.5t-242.5 -41q-133 0 -235 32t-168.5 88t-108.5 141t-59.5 183.5t-17.5 222.5q0 168 35.5 302t108 234.5t192 155t278.5 54.5zM719 1227
q-418 0 -418 -549q0 -272 96.5 -400t307.5 -128q186 0 295.5 133.5t109.5 394.5q0 127 -20.5 224t-65 172t-121.5 114t-184 39zM852 1565q-54 0 -147 36.5t-136 36.5q-64 0 -141 -77l-82 69q29 73 91 117.5t130 44.5q45 0 130 -36t139 -36q70 0 139 74l88 -65
q-24 -73 -85 -118.5t-126 -45.5z" />
    <glyph glyph-name="Odieresis" unicode="&#xd6;" horiz-adv-x="1417" 
d="M725 1397q131 0 232.5 -37.5t166 -100t105.5 -152.5t57.5 -187.5t16.5 -212.5t-17 -215t-60.5 -195.5t-110 -163t-173 -108.5t-242.5 -41q-133 0 -235 32t-168.5 88t-108.5 141t-59.5 183.5t-17.5 222.5q0 168 35.5 302t108 234.5t192 155t278.5 54.5zM719 1227
q-418 0 -418 -549q0 -272 96.5 -400t307.5 -128q186 0 295.5 133.5t109.5 394.5q0 127 -20.5 224t-65 172t-121.5 114t-184 39zM418 1655q0 43 30.5 73.5t73.5 30.5t74 -30.5t31 -73.5t-31 -74t-74 -31t-73.5 31t-30.5 74zM780 1655q0 43 31 73.5t74 30.5t73.5 -30.5
t30.5 -73.5t-30.5 -74t-73.5 -31t-74 31t-31 74z" />
    <glyph glyph-name="multiply" unicode="&#xd7;" 
d="M879 172l-265 264l-264 -264l-125 125l264 264l-264 264l125 125l264 -264l265 264l125 -125l-265 -264l265 -264z" />
    <glyph glyph-name="Oslash" unicode="&#xd8;" horiz-adv-x="1417" 
d="M715 1397q241 0 385 -125l102 123l101 -82l-117 -142q119 -181 119 -491q0 -111 -17 -208t-60 -188.5t-109 -156.5t-169.5 -104t-236.5 -39q-261 0 -406 120l-100 -122l-101 84l115 139q-108 165 -108 473q0 162 34.5 291.5t106 226.5t188.5 149t273 52zM1112 678
q0 202 -57 334l-625 -758q98 -104 283 -104q187 0 293 132.5t106 395.5zM713 1225q-112 0 -192.5 -39t-127.5 -113t-68.5 -171t-21.5 -224q0 -194 51 -311l625 757q-98 101 -266 101z" />
    <glyph glyph-name="Ugrave" unicode="&#xd9;" horiz-adv-x="1366" 
d="M1233 1382v-837q0 -561 -539 -561q-156 0 -266 38t-174 113.5t-92.5 177.5t-28.5 240v829h186v-839q0 -112 26.5 -190t78 -121.5t117.5 -62.5t155 -19q166 0 259.5 96.5t93.5 298.5v837h184zM842 1579l-72 -102l-381 196l123 158z" />
    <glyph glyph-name="Uacute" unicode="&#xda;" horiz-adv-x="1366" 
d="M1233 1382v-837q0 -561 -539 -561q-156 0 -266 38t-174 113.5t-92.5 177.5t-28.5 240v829h186v-839q0 -112 26.5 -190t78 -121.5t117.5 -62.5t155 -19q166 0 259.5 96.5t93.5 298.5v837h184zM625 1485l-72 102l330 252l123 -158z" />
    <glyph glyph-name="Ucircumflex" unicode="&#xdb;" horiz-adv-x="1366" 
d="M1233 1382v-837q0 -561 -539 -561q-156 0 -266 38t-174 113.5t-92.5 177.5t-28.5 240v829h186v-839q0 -112 26.5 -190t78 -121.5t117.5 -62.5t155 -19q166 0 259.5 96.5t93.5 298.5v837h184zM946 1485l-252 219l-266 -219l-82 82l279 291h143l270 -291z" />
    <glyph glyph-name="Udieresis" unicode="&#xdc;" horiz-adv-x="1366" 
d="M1233 1382v-837q0 -561 -539 -561q-156 0 -266 38t-174 113.5t-92.5 177.5t-28.5 240v829h186v-839q0 -112 26.5 -190t78 -121.5t117.5 -62.5t155 -19q166 0 259.5 96.5t93.5 298.5v837h184zM408 1655q0 43 30.5 73.5t73.5 30.5t73.5 -30.5t30.5 -73.5t-30.5 -74
t-73.5 -31t-73.5 31t-30.5 74zM770 1655q0 43 30.5 73.5t73.5 30.5t74 -30.5t31 -73.5t-31 -74t-74 -31t-73.5 31t-30.5 74z" />
    <glyph glyph-name="Yacute" unicode="&#xdd;" horiz-adv-x="1171" 
d="M571 727h21q39 101 172 356l160 299h213l-469 -827v-555h-187v555l-463 827h213l172 -319q4 -8 39.5 -73.5t50 -94t39 -79.5t39.5 -89zM516 1485l-72 102l330 252l123 -158z" />
    <glyph glyph-name="Thorn" unicode="&#xde;" horiz-adv-x="1214" 
d="M145 0v1384h183v-262h368q224 0 351 -123t127 -317q0 -60 -13.5 -117t-48.5 -115t-87 -101.5t-137 -71t-192 -27.5h-366v-250h-185zM692 983h-364v-592h364q45 0 86 9t80 30.5t67.5 54.5t46 84t17.5 115q0 136 -83.5 217.5t-213.5 81.5z" />
    <glyph glyph-name="germandbls" unicode="&#xdf;" horiz-adv-x="1128" 
d="M801 868v-10q104 -31 164.5 -143t60.5 -256q0 -69 -14.5 -134.5t-47.5 -128t-82 -109t-123.5 -75t-166.5 -28.5q-82 0 -129 16l43 139q39 -10 65 -10q132 0 202.5 88.5t70.5 251.5q0 91 -23 154t-65 95.5t-90 46t-109 13.5v137q57 1 98.5 17.5t64 45t32.5 60.5t10 70
q0 106 -58.5 159.5t-162.5 53.5q-57 0 -100 -24t-66.5 -59t-37.5 -83t-18 -86.5t-4 -79.5v-989h-182v1020q0 199 106 321.5t306 122.5q190 0 291.5 -96t101.5 -262q0 -30 -11 -71t-44 -91.5t-82 -75.5z" />
    <glyph glyph-name="agrave" unicode="&#xe0;" horiz-adv-x="1044" 
d="M442 131q136 0 218.5 75.5t82.5 174.5v74q-81 18 -198 18q-289 0 -289 -194q0 -64 50.5 -106t135.5 -42zM922 672v-672h-140q-28 46 -28 131h-9q-98 -149 -323 -149q-155 0 -252.5 75t-97.5 222q0 79 28 139t72.5 96t107.5 59t125 31t134 8q99 0 202 -14v53
q0 107 -54.5 157t-170.5 50q-173 0 -203 -125h-163q-3 15 -3 25q0 70 35 121.5t92.5 78t118 38.5t125.5 12q93 0 164 -17t116 -46.5t73.5 -73t39.5 -92t11 -107.5zM692 1194l-98 -80l-303 301l158 125z" />
    <glyph glyph-name="aacute" unicode="&#xe1;" horiz-adv-x="1044" 
d="M442 131q136 0 218.5 75.5t82.5 174.5v74q-81 18 -198 18q-289 0 -289 -194q0 -64 50.5 -106t135.5 -42zM922 672v-672h-140q-28 46 -28 131h-9q-98 -149 -323 -149q-155 0 -252.5 75t-97.5 222q0 79 28 139t72.5 96t107.5 59t125 31t134 8q99 0 202 -14v53
q0 107 -54.5 157t-170.5 50q-173 0 -203 -125h-163q-3 15 -3 25q0 70 35 121.5t92.5 78t118 38.5t125.5 12q93 0 164 -17t116 -46.5t73.5 -73t39.5 -92t11 -107.5zM487 1116l-96 82l266 334l148 -127z" />
    <glyph glyph-name="acircumflex" unicode="&#xe2;" horiz-adv-x="1044" 
d="M442 131q136 0 218.5 75.5t82.5 174.5v74q-81 18 -198 18q-289 0 -289 -194q0 -64 50.5 -106t135.5 -42zM922 672v-672h-140q-28 46 -28 131h-9q-98 -149 -323 -149q-155 0 -252.5 75t-97.5 222q0 79 28 139t72.5 96t107.5 59t125 31t134 8q99 0 202 -14v53
q0 107 -54.5 157t-170.5 50q-173 0 -203 -125h-163q-3 15 -3 25q0 70 35 121.5t92.5 78t118 38.5t125.5 12q93 0 164 -17t116 -46.5t73.5 -73t39.5 -92t11 -107.5zM776 1118l-252 219l-266 -219l-82 82l279 291h143l270 -291z" />
    <glyph glyph-name="atilde" unicode="&#xe3;" horiz-adv-x="1044" 
d="M442 131q136 0 218.5 75.5t82.5 174.5v74q-81 18 -198 18q-289 0 -289 -194q0 -64 50.5 -106t135.5 -42zM922 672v-672h-140q-28 46 -28 131h-9q-98 -149 -323 -149q-155 0 -252.5 75t-97.5 222q0 79 28 139t72.5 96t107.5 59t125 31t134 8q99 0 202 -14v53
q0 107 -54.5 157t-170.5 50q-173 0 -203 -125h-163q-3 15 -3 25q0 70 35 121.5t92.5 78t118 38.5t125.5 12q93 0 164 -17t116 -46.5t73.5 -73t39.5 -92t11 -107.5zM674 1182q-54 0 -147 36.5t-136 36.5q-64 0 -141 -77l-82 69q29 73 91 117.5t130 44.5q45 0 130 -36t138 -36
q71 0 140 74l88 -65q-24 -73 -85 -118.5t-126 -45.5z" />
    <glyph glyph-name="adieresis" unicode="&#xe4;" horiz-adv-x="1044" 
d="M442 131q136 0 218.5 75.5t82.5 174.5v74q-81 18 -198 18q-289 0 -289 -194q0 -64 50.5 -106t135.5 -42zM922 672v-672h-140q-28 46 -28 131h-9q-98 -149 -323 -149q-155 0 -252.5 75t-97.5 222q0 79 28 139t72.5 96t107.5 59t125 31t134 8q99 0 202 -14v53
q0 107 -54.5 157t-170.5 50q-173 0 -203 -125h-163q-3 15 -3 25q0 70 35 121.5t92.5 78t118 38.5t125.5 12q93 0 164 -17t116 -46.5t73.5 -73t39.5 -92t11 -107.5zM238 1266q0 43 30.5 73.5t73.5 30.5t73.5 -30.5t30.5 -73.5t-30.5 -74t-73.5 -31t-73.5 31t-30.5 74z
M600 1266q0 43 31 73.5t74 30.5t73.5 -30.5t30.5 -73.5t-30.5 -74t-73.5 -31t-74 31t-31 74z" />
    <glyph glyph-name="aring" unicode="&#xe5;" horiz-adv-x="1044" 
d="M442 131q136 0 218.5 75.5t82.5 174.5v74q-81 18 -198 18q-289 0 -289 -194q0 -64 50.5 -106t135.5 -42zM922 672v-672h-140q-28 46 -28 131h-9q-98 -149 -323 -149q-155 0 -252.5 75t-97.5 222q0 79 28 139t72.5 96t107.5 59t125 31t134 8q99 0 202 -14v53
q0 107 -54.5 157t-170.5 50q-173 0 -203 -125h-163q-3 15 -3 25q0 70 35 121.5t92.5 78t118 38.5t125.5 12q93 0 164 -17t116 -46.5t73.5 -73t39.5 -92t11 -107.5zM526 1110q-97 0 -160 63t-63 158t63 160t160 65q98 0 165 -65.5t67 -159.5q0 -96 -67 -158.5t-165 -62.5z
M526 1446q-44 0 -75 -34.5t-31 -80.5t28 -80t78 -34q54 0 83.5 34t29.5 80q0 47 -30 81t-83 34z" />
    <glyph glyph-name="ae" unicode="&#xe6;" horiz-adv-x="1744" 
d="M1217 1006q214 0 318.5 -116t104.5 -317q0 -65 -8 -120h-674q0 -314 271 -314q219 0 241 166h164q2 -12 2 -37q0 -94 -60 -160.5t-150 -96t-197 -29.5q-287 0 -383 184q-85 -90 -184.5 -138t-241.5 -48q-154 0 -251 77.5t-97 218.5q0 82 35.5 145.5t95 100t130 54.5
t148.5 18h279v47q0 92 -59 151.5t-183 59.5q-176 0 -209 -125h-168q0 4 -1 12.5t-1 12.5q0 56 24.5 100t62.5 71t90.5 45t103.5 24.5t106 6.5q267 0 359 -139q117 146 332 146zM772 451h-262q-116 0 -182 -43t-66 -132q0 -63 52 -105t139 -42q120 0 200 44.5t140 111.5
q-21 108 -21 166zM965 590h497q0 115 -59.5 186.5t-188.5 71.5q-115 0 -177.5 -68.5t-71.5 -189.5z" />
    <glyph glyph-name="ccedilla" unicode="&#xe7;" horiz-adv-x="1015" 
d="M557 1006q69 0 133.5 -16.5t118.5 -49t86.5 -88t32.5 -127.5q0 -23 -4 -39h-166q-4 44 -24.5 76t-52 48.5t-63 24t-63.5 7.5q-143 0 -205.5 -91.5t-62.5 -258.5q0 -349 268 -349q43 0 80 9.5t69.5 31t52 61t21.5 93.5h164q4 -28 4 -41q0 -143 -108 -228t-279 -85l-37 -68
q70 -1 120.5 -19t75 -46.5t35.5 -56.5t11 -56q0 -84 -66 -137t-194 -54q-103 0 -211 37l29 94q94 -28 161 -28q63 0 97 24t34 64q0 42 -31.5 62t-76.5 20q-52 0 -86 -17l-47 41l73 150q-344 58 -344 483q0 119 26.5 214t80 166.5t142 110t206.5 38.5z" />
    <glyph glyph-name="egrave" unicode="&#xe8;" horiz-adv-x="1081" 
d="M684 1194l-98 -80l-303 301l157 125zM549 848q-116 0 -182.5 -69t-75.5 -189h502q0 120 -62 189t-182 69zM551 1006q104 0 185.5 -33t132 -91t76.5 -133.5t26 -162.5q0 -68 -15 -133h-671q0 -314 278 -314q214 0 236 166h162q2 -12 2 -37q0 -72 -34 -128t-91 -90
t-127 -51t-148 -17q-463 0 -463 505q0 109 27 201t80.5 164t141.5 113t202 41z" />
    <glyph glyph-name="eacute" unicode="&#xe9;" horiz-adv-x="1081" 
d="M526 1116l-96 82l266 334l148 -127zM549 848q-116 0 -182.5 -69t-75.5 -189h502q0 120 -62 189t-182 69zM551 1006q104 0 185.5 -33t132 -91t76.5 -133.5t26 -162.5q0 -68 -15 -133h-671q0 -314 278 -314q214 0 236 166h162q2 -12 2 -37q0 -72 -34 -128t-91 -90t-127 -51
t-148 -17q-463 0 -463 505q0 109 27 201t80.5 164t141.5 113t202 41z" />
    <glyph glyph-name="ecircumflex" unicode="&#xea;" horiz-adv-x="1081" 
d="M815 1118l-252 219l-266 -219l-82 82l279 291h143l270 -291zM549 848q-116 0 -182.5 -69t-75.5 -189h502q0 120 -62 189t-182 69zM551 1006q104 0 185.5 -33t132 -91t76.5 -133.5t26 -162.5q0 -68 -15 -133h-671q0 -314 278 -314q214 0 236 166h162q2 -12 2 -37
q0 -72 -34 -128t-91 -90t-127 -51t-148 -17q-463 0 -463 505q0 109 27 201t80.5 164t141.5 113t202 41z" />
    <glyph glyph-name="edieresis" unicode="&#xeb;" horiz-adv-x="1081" 
d="M276 1266q0 43 31 73.5t74 30.5t73.5 -30.5t30.5 -73.5t-30.5 -74t-73.5 -31t-74 31t-31 74zM639 1266q0 43 30.5 73.5t73.5 30.5t74 -30.5t31 -73.5t-31 -74t-74 -31t-73.5 31t-30.5 74zM549 848q-116 0 -182.5 -69t-75.5 -189h502q0 120 -62 189t-182 69zM551 1006
q104 0 185.5 -33t132 -91t76.5 -133.5t26 -162.5q0 -68 -15 -133h-671q0 -314 278 -314q214 0 236 166h162q2 -12 2 -37q0 -72 -34 -128t-91 -90t-127 -51t-148 -17q-463 0 -463 505q0 109 27 201t80.5 164t141.5 113t202 41z" />
    <glyph glyph-name="igrave" unicode="&#xec;" horiz-adv-x="532" 
d="M172 0v991h182v-991h-182zM381 1194l-98 -80l-303 301l157 125z" />
    <glyph glyph-name="iacute" unicode="&#xed;" horiz-adv-x="532" 
d="M172 0v991h182v-991h-182zM250 1116l-96 82l266 334l147 -127z" />
    <glyph glyph-name="icircumflex" unicode="&#xee;" horiz-adv-x="532" 
d="M172 0v991h182v-991h-182zM514 1118l-252 219l-266 -219l-82 82l279 291h143l270 -291z" />
    <glyph glyph-name="idieresis" unicode="&#xef;" horiz-adv-x="532" 
d="M172 0v991h182v-991h-182zM-20 1266q0 43 30.5 73.5t73.5 30.5t73.5 -30.5t30.5 -73.5t-30.5 -74t-73.5 -31t-73.5 31t-30.5 74zM342 1266q0 43 30.5 73.5t73.5 30.5t74 -30.5t31 -73.5t-31 -74t-74 -31t-73.5 31t-30.5 74z" />
    <glyph glyph-name="eth" unicode="&#xf0;" horiz-adv-x="1116" 
d="M795 1309l135 100l65 -80l-131 -94q48 -62 79.5 -139t45.5 -165t18.5 -159t4.5 -164q0 -94 -10.5 -175t-41.5 -166t-80.5 -145t-133 -98t-193.5 -38q-120 0 -208.5 35t-140.5 100.5t-77 150.5t-25 193q0 219 111 355t315 136q39 0 78 -6t86 -21t87 -47.5t63 -78.5h8
q-3 96 -32 187t-81 155l-155 -113l-58 76l144 106q-107 87 -265 117l29 135q232 -42 363 -157zM549 803q-74 0 -129 -26.5t-86.5 -74.5t-46.5 -107t-15 -130q0 -330 277 -330q127 0 197.5 83t70.5 249q0 152 -64.5 244t-203.5 92z" />
    <glyph glyph-name="ntilde" unicode="&#xf1;" horiz-adv-x="1110" 
d="M614 1008q70 0 126.5 -13.5t95 -35.5t67 -56t44.5 -69t25 -81.5t12 -86t3 -88.5v-578h-184v573q0 68 -10 117t-34.5 90t-71 61.5t-114.5 20.5q-65 0 -118.5 -28.5t-85.5 -75t-49 -102t-17 -113.5v-543h-180v991h135q39 -56 39 -139h8q53 74 143 115t166 41zM690 1174
q-54 0 -146.5 36.5t-135.5 36.5q-64 0 -142 -78l-82 70q29 73 91.5 117.5t130.5 44.5q44 0 129 -36t139 -36q70 0 139 74l88 -66q-24 -73 -85 -118t-126 -45z" />
    <glyph glyph-name="ograve" unicode="&#xf2;" horiz-adv-x="1126" 
d="M573 1006q98 0 176 -28t128.5 -74.5t83.5 -111.5t47 -135t14 -149q0 -80 -14.5 -152.5t-49 -141t-87 -118.5t-134 -80t-184.5 -30q-453 0 -453 491q0 113 29 208t85.5 167.5t148.5 113t210 40.5zM571 842q-286 0 -286 -350q0 -173 66.5 -261t209.5 -88q128 0 201.5 88.5
t73.5 262.5q0 169 -59.5 258.5t-205.5 89.5zM698 1194l-98 -80l-303 301l158 125z" />
    <glyph glyph-name="oacute" unicode="&#xf3;" horiz-adv-x="1126" 
d="M573 1006q98 0 176 -28t128.5 -74.5t83.5 -111.5t47 -135t14 -149q0 -80 -14.5 -152.5t-49 -141t-87 -118.5t-134 -80t-184.5 -30q-453 0 -453 491q0 113 29 208t85.5 167.5t148.5 113t210 40.5zM571 842q-286 0 -286 -350q0 -173 66.5 -261t209.5 -88q128 0 201.5 88.5
t73.5 262.5q0 169 -59.5 258.5t-205.5 89.5zM563 1116l-96 82l266 334l148 -127z" />
    <glyph glyph-name="ocircumflex" unicode="&#xf4;" horiz-adv-x="1126" 
d="M573 1006q98 0 176 -28t128.5 -74.5t83.5 -111.5t47 -135t14 -149q0 -80 -14.5 -152.5t-49 -141t-87 -118.5t-134 -80t-184.5 -30q-453 0 -453 491q0 113 29 208t85.5 167.5t148.5 113t210 40.5zM571 842q-286 0 -286 -350q0 -173 66.5 -261t209.5 -88q128 0 201.5 88.5
t73.5 262.5q0 169 -59.5 258.5t-205.5 89.5zM831 1118l-251 219l-267 -219l-82 82l279 291h143l271 -291z" />
    <glyph glyph-name="otilde" unicode="&#xf5;" horiz-adv-x="1126" 
d="M573 1006q98 0 176 -28t128.5 -74.5t83.5 -111.5t47 -135t14 -149q0 -80 -14.5 -152.5t-49 -141t-87 -118.5t-134 -80t-184.5 -30q-453 0 -453 491q0 113 29 208t85.5 167.5t148.5 113t210 40.5zM571 842q-286 0 -286 -350q0 -173 66.5 -261t209.5 -88q128 0 201.5 88.5
t73.5 262.5q0 169 -59.5 258.5t-205.5 89.5zM705 1171q-54 0 -147 37t-136 37q-63 0 -141 -78l-82 70q29 73 91 117.5t130 44.5q44 0 129 -36t139 -36q70 0 139 74l88 -66q-24 -73 -84.5 -118.5t-125.5 -45.5z" />
    <glyph glyph-name="odieresis" unicode="&#xf6;" horiz-adv-x="1126" 
d="M573 1006q98 0 176 -28t128.5 -74.5t83.5 -111.5t47 -135t14 -149q0 -80 -14.5 -152.5t-49 -141t-87 -118.5t-134 -80t-184.5 -30q-453 0 -453 491q0 113 29 208t85.5 167.5t148.5 113t210 40.5zM571 842q-286 0 -286 -350q0 -173 66.5 -261t209.5 -88q128 0 201.5 88.5
t73.5 262.5q0 169 -59.5 258.5t-205.5 89.5zM285 1266q0 43 30.5 73.5t73.5 30.5t74 -30.5t31 -73.5t-31 -74t-74 -31t-73.5 31t-30.5 74zM647 1266q0 43 31 73.5t74 30.5t73.5 -30.5t30.5 -73.5t-30.5 -74t-73.5 -31t-74 31t-31 74z" />
    <glyph glyph-name="divide" unicode="&#xf7;" 
d="M1030 465h-833v147h833v-147zM508 831q0 49 33.5 83t81.5 34q49 0 82.5 -33.5t33.5 -83.5q0 -48 -33.5 -81t-82.5 -33q-47 0 -81 33.5t-34 80.5zM508 244q0 49 33.5 82.5t81.5 33.5q49 0 82.5 -33t33.5 -83q0 -48 -33.5 -81.5t-82.5 -33.5q-47 0 -81 34t-34 81z" />
    <glyph glyph-name="oslash" unicode="&#xf8;" horiz-adv-x="1126" 
d="M567 1006q196 0 314 -111l102 104l78 -71l-113 -117q76 -132 76 -317q0 -79 -14 -149.5t-47.5 -137t-84.5 -115t-131 -77.5t-180 -29q-202 0 -319 100l-92 -94l-78 76l98 102q-74 125 -74 322q0 111 28.5 203.5t84 162.5t145.5 109t207 39zM567 842q-149 0 -214.5 -91.5
t-65.5 -258.5q0 -109 26 -183l447 459q-68 74 -193 74zM838 494q0 98 -25 178l-442 -459q67 -70 196 -70t200 88t71 263z" />
    <glyph glyph-name="ugrave" unicode="&#xf9;" horiz-adv-x="1089" 
d="M801 139h-8q-54 -78 -141.5 -116.5t-166.5 -38.5q-91 0 -158.5 24t-105.5 60.5t-61 91t-30 104.5t-7 111v616h184v-579q0 -55 4.5 -94.5t18.5 -76.5t37.5 -60t63.5 -36.5t95 -13.5q65 0 116.5 28t82 75t46 102t15.5 113v542h181v-991h-133q-33 47 -33 139zM668 1194
l-99 -80l-303 301l158 125z" />
    <glyph glyph-name="uacute" unicode="&#xfa;" horiz-adv-x="1089" 
d="M801 139h-8q-54 -78 -141.5 -116.5t-166.5 -38.5q-91 0 -158.5 24t-105.5 60.5t-61 91t-30 104.5t-7 111v616h184v-579q0 -55 4.5 -94.5t18.5 -76.5t37.5 -60t63.5 -36.5t95 -13.5q65 0 116.5 28t82 75t46 102t15.5 113v542h181v-991h-133q-33 47 -33 139zM532 1116
l-96 82l266 334l148 -127z" />
    <glyph glyph-name="ucircumflex" unicode="&#xfb;" horiz-adv-x="1089" 
d="M801 139h-8q-54 -78 -141.5 -116.5t-166.5 -38.5q-91 0 -158.5 24t-105.5 60.5t-61 91t-30 104.5t-7 111v616h184v-579q0 -55 4.5 -94.5t18.5 -76.5t37.5 -60t63.5 -36.5t95 -13.5q65 0 116.5 28t82 75t46 102t15.5 113v542h181v-991h-133q-33 47 -33 139zM797 1118
l-252 219l-266 -219l-82 82l278 291h143l271 -291z" />
    <glyph glyph-name="udieresis" unicode="&#xfc;" horiz-adv-x="1089" 
d="M801 139h-8q-54 -78 -141.5 -116.5t-166.5 -38.5q-91 0 -158.5 24t-105.5 60.5t-61 91t-30 104.5t-7 111v616h184v-579q0 -55 4.5 -94.5t18.5 -76.5t37.5 -60t63.5 -36.5t95 -13.5q65 0 116.5 28t82 75t46 102t15.5 113v542h181v-991h-133q-33 47 -33 139zM264 1266
q0 43 31 73.5t74 30.5t73.5 -30.5t30.5 -73.5t-30.5 -74t-73.5 -31t-74 31t-31 74zM627 1266q0 43 30.5 73.5t73.5 30.5t74 -30.5t31 -73.5t-31 -74t-74 -31t-73.5 31t-30.5 74z" />
    <glyph glyph-name="yacute" unicode="&#xfd;" horiz-adv-x="942" 
d="M451 131h16q26 91 69 220.5t50 152.5l153 485h174l-366 -1108q-24 -74 -50 -125t-65 -95t-94.5 -65.5t-128.5 -21.5h-119v145h96q71 0 111.5 28.5t71.5 98.5l51 150l-90 -6q-31 124 -111 379l-199 620h191l141 -491q6 -23 29 -100.5t39.5 -140t30.5 -126.5zM453 1116
l-97 82l267 334l147 -127z" />
    <glyph glyph-name="thorn" unicode="&#xfe;" horiz-adv-x="1124" 
d="M604 1008q95 0 168.5 -27.5t120 -74t76 -113.5t41.5 -139t12 -158q0 -234 -117 -373t-319 -139q-82 0 -157.5 24.5t-115.5 83.5h-10v-512h-180v1878h176v-346q0 -148 -16 -246h8q50 71 139 106.5t174 35.5zM575 854q-124 0 -197 -79t-73 -206v-106q0 -63 12 -117
t41 -104.5t85 -79.5t135 -29q132 0 196 95t64 272q0 179 -65.5 266.5t-197.5 87.5z" />
    <glyph glyph-name="ydieresis" unicode="&#xff;" horiz-adv-x="942" 
d="M451 131h16q26 91 69 220.5t50 152.5l153 485h174l-366 -1108q-24 -74 -50 -125t-65 -95t-94.5 -65.5t-128.5 -21.5h-119v145h96q71 0 111.5 28.5t71.5 98.5l51 150l-90 -6q-31 124 -111 379l-199 620h191l141 -491q6 -23 29 -100.5t39.5 -140t30.5 -126.5zM180 1266
q0 43 31 73.5t74 30.5t73.5 -30.5t30.5 -73.5t-30.5 -74t-73.5 -31t-74 31t-31 74zM543 1266q0 43 30.5 73.5t73.5 30.5t74 -30.5t31 -73.5t-31 -74t-74 -31t-73.5 31t-30.5 74z" />
    <glyph glyph-name="dotlessi" unicode="&#x131;" horiz-adv-x="532" 
d="M172 0v991h182v-991h-182z" />
    <glyph glyph-name="OE" unicode="&#x152;" horiz-adv-x="1851" 
d="M709 1397q61 0 149 -15h930v-145h-739v-446h675v-148h-675v-500h757v-143h-938q-78 -16 -161 -16q-136 0 -240 33t-172.5 92t-112 147.5t-62 191.5t-18.5 232q0 162 35.5 291.5t107.5 225.5t190 148t274 52zM705 129q85 0 153 29v1063q-73 26 -153 26q-115 0 -196.5 -40
t-128.5 -117t-68 -177t-21 -233q0 -551 414 -551z" />
    <glyph glyph-name="oe" unicode="&#x153;" horiz-adv-x="1812" 
d="M1292 1006q214 0 317 -120.5t103 -322.5q0 -55 -6 -110h-680q0 -149 67.5 -231.5t211.5 -82.5q213 0 235 166h166v-24q0 -100 -56 -169t-144.5 -99.5t-200.5 -30.5q-267 0 -379 163q-119 -159 -359 -159q-125 0 -216.5 37.5t-145 107t-78.5 159t-25 202.5
q0 111 28.5 203.5t84 162.5t145.5 109t207 39q249 0 367 -175q122 175 358 175zM567 842q-149 0 -214.5 -91.5t-65.5 -258.5q0 -349 280 -349q129 0 200 88t71 263q0 166 -63 257t-208 91zM1032 590h498q0 56 -12.5 100.5t-39 81t-74.5 56.5t-114 20q-116 0 -182.5 -69
t-75.5 -189z" />
    <glyph glyph-name="circumflex" unicode="&#x2c6;" horiz-adv-x="1124" 
d="M803 1118l-252 219l-266 -219l-82 82l278 291h144l270 -291z" />
    <glyph glyph-name="ring" unicode="&#x2da;" horiz-adv-x="1120" 
d="M582 1110q-98 0 -161 63t-63 158t63.5 160t160.5 65q98 0 164.5 -65.5t66.5 -159.5q0 -96 -66.5 -158.5t-164.5 -62.5zM582 1446q-44 0 -75.5 -34.5t-31.5 -80.5t28.5 -80t78.5 -34q54 0 83 33.5t29 80.5t-29.5 81t-82.5 34z" />
    <glyph glyph-name="tilde" unicode="&#x2dc;" horiz-adv-x="1095" 
d="M700 1174q-54 0 -146.5 36.5t-135.5 36.5q-64 0 -142 -78l-81 70q29 73 91 117.5t130 44.5q44 0 129 -36t139 -36q70 0 139 74l88 -66q-24 -73 -85 -118t-126 -45z" />
    <glyph glyph-name="tonos" unicode="&#x384;" horiz-adv-x="1124" 
d="M590 1090l-115 53l158 383l186 -74z" />
    <glyph glyph-name="dieresistonos" unicode="&#x385;" horiz-adv-x="1124" 
d="M569 1090l-114 53l157 383l187 -74zM233 1239q0 43 31 73.5t74 30.5t73.5 -30.5t30.5 -73.5t-30.5 -73.5t-73.5 -30.5t-74 30.5t-31 73.5zM739 1239q0 43 31 73.5t74 30.5t73.5 -30.5t30.5 -73.5t-30.5 -73.5t-73.5 -30.5t-74 30.5t-31 73.5z" />
    <glyph glyph-name="Alphatonos" unicode="&#x386;" horiz-adv-x="1269" 
d="M1049 0l-131 350h-576l-125 -350h-197l521 1386h182l526 -1386h-200zM635 1161h-12q-12 -43 -26.5 -88.5t-24.5 -74.5t-29.5 -83t-28.5 -81l-117 -328h467l-114 311q-92 257 -115 344zM80 1028l-115 53l158 383l186 -73z" />
    <glyph glyph-name="anoteleia" unicode="&#x387;" horiz-adv-x="530" 
d="M127 717q0 59 40.5 99t98.5 40q59 0 99.5 -40.5t40.5 -98.5t-40.5 -98.5t-99.5 -40.5q-58 0 -98.5 40t-40.5 99z" />
    <glyph glyph-name="Epsilontonos" unicode="&#x388;" horiz-adv-x="1153" 
d="M-168 1028l-115 53l158 383l186 -73zM143 0v1382h910v-165h-725v-429h661v-170h-661v-446h743v-172h-928z" />
    <glyph glyph-name="Etatonos" unicode="&#x389;" horiz-adv-x="1366" 
d="M1049 0v621h-732v-621h-184v1382h184v-591h732v591h184v-1382h-184zM-154 1028l-114 53l157 383l187 -73z" />
    <glyph glyph-name="Iotatonos" unicode="&#x38a;" horiz-adv-x="534" 
d="M174 0v1382h186v-1382h-186zM-111 1028l-114 53l157 383l187 -73z" />
    <glyph glyph-name="Omicrontonos" unicode="&#x38c;" horiz-adv-x="1417" 
d="M725 1397q131 0 232.5 -37.5t166 -100t105.5 -152.5t57.5 -187.5t16.5 -212.5t-17 -215t-60.5 -195.5t-110 -163t-173 -108.5t-242.5 -41q-133 0 -235 32t-168.5 88t-108.5 141t-59.5 183.5t-17.5 222.5q0 168 35.5 302t108 234.5t192 155t278.5 54.5zM719 1227
q-418 0 -418 -549q0 -272 96.5 -400t307.5 -128q186 0 295.5 133.5t109.5 394.5q0 127 -20.5 224t-65 172t-121.5 114t-184 39zM-86 1028l-115 53l158 383l186 -73z" />
    <glyph glyph-name="Upsilontonos" unicode="&#x38e;" horiz-adv-x="1171" 
d="M571 727h21q39 101 172 356l160 299h213l-469 -827v-555h-187v555l-463 827h213l172 -319q4 -8 39.5 -73.5t50 -94t39 -79.5t39.5 -89zM-252 1028l-115 53l158 383l186 -73z" />
    <glyph glyph-name="Omegatonos" unicode="&#x38f;" horiz-adv-x="1474" 
d="M737 1229q-210 -1 -321 -142t-111 -385q0 -238 79 -365.5t232 -162.5v-174h-555v168h236l4 6q-186 150 -186 508q0 114 22 217t71 195.5t121 159.5t179.5 106t239.5 39q129 0 233.5 -38t174.5 -103.5t117 -156t68 -191.5t21 -214q0 -146 -49.5 -293t-145.5 -229l4 -6h230
v-168h-539v170q151 43 229 173t78 368q0 242 -112.5 380t-319.5 138zM-84 1028l-115 53l158 383l186 -73z" />
    <glyph glyph-name="iotadieresistonos" unicode="&#x390;" horiz-adv-x="532" 
d="M176 0v991h182v-991h-182zM254 1090l-115 53l158 383l186 -74zM-82 1239q0 43 31 73.5t74 30.5t73.5 -30.5t30.5 -73.5t-30.5 -73.5t-73.5 -30.5t-74 30.5t-31 73.5zM424 1239q0 43 30.5 73.5t73.5 30.5t74 -30.5t31 -73.5t-31 -73.5t-74 -30.5t-73.5 30.5t-30.5 73.5z
" />
    <glyph glyph-name="Alpha" unicode="&#x391;" horiz-adv-x="1269" 
d="M1049 0l-131 350h-576l-125 -350h-197l521 1386h182l526 -1386h-200zM635 1161h-12q-12 -43 -26.5 -88.5t-24.5 -74.5t-29.5 -83t-28.5 -81l-117 -328h467l-114 311q-92 257 -115 344z" />
    <glyph glyph-name="Beta" unicode="&#x392;" horiz-adv-x="1253" 
d="M899 733v-12q110 -27 179 -110t69 -205q0 -197 -121 -301.5t-344 -104.5h-549v1384h567q189 0 293.5 -92t104.5 -258q0 -97 -51 -176.5t-148 -124.5zM690 1219h-373v-416h365q101 0 163 62t62 151q0 91 -57 147t-160 56zM676 639h-359v-471h361q137 0 205.5 61t68.5 177
q0 114 -76.5 173.5t-199.5 59.5z" />
    <glyph glyph-name="Gamma" unicode="&#x393;" horiz-adv-x="1091" 
d="M133 0v1382h932v-168h-748v-1214h-184z" />
    <glyph glyph-name="Delta" unicode="&#x394;" horiz-adv-x="1310" 
d="M1276 0h-1249l524 1382h192zM651 1157h-16q-36 -118 -154 -465l-180 -522h694l-186 524q-114 314 -158 463z" />
    <glyph glyph-name="Epsilon" unicode="&#x395;" horiz-adv-x="1142" 
d="M133 0v1382h909v-165h-725v-429h662v-170h-662v-446h744v-172h-928z" />
    <glyph glyph-name="Zeta" unicode="&#x396;" horiz-adv-x="1189" 
d="M68 0v154l815 1058h-766v170h989v-153l-811 -1061h831v-168h-1058z" />
    <glyph glyph-name="Eta" unicode="&#x397;" horiz-adv-x="1366" 
d="M1049 0v621h-732v-621h-184v1382h184v-591h732v591h184v-1382h-184z" />
    <glyph glyph-name="Theta" unicode="&#x398;" horiz-adv-x="1454" 
d="M420 623v161h614v-161h-614zM735 1399q138 0 244.5 -39t173.5 -104.5t110.5 -160t60.5 -195.5t17 -220q0 -112 -17.5 -209t-61.5 -188.5t-112 -156t-174.5 -103.5t-242.5 -39q-140 0 -246.5 33t-177 91.5t-115 146.5t-63 191t-18.5 232q0 163 35.5 292.5t109 226.5
t194.5 149.5t283 52.5zM733 1227q-119 0 -203.5 -39.5t-133.5 -114.5t-71 -172t-22 -223q0 -269 108 -398.5t322 -129.5q200 0 308 131t108 397q0 549 -416 549z" />
    <glyph glyph-name="Iota" unicode="&#x399;" horiz-adv-x="534" 
d="M174 0v1382h186v-1382h-186z" />
    <glyph glyph-name="Kappa" unicode="&#x39a;" horiz-adv-x="1159" 
d="M317 1382v-591h177l456 591h215l-524 -669l543 -713h-232l-463 621h-172v-621h-184v1382h184z" />
    <glyph glyph-name="Lambda" unicode="&#x39b;" horiz-adv-x="1314" 
d="M655 1145l-12 -2q-36 -125 -151 -438l-261 -705h-200l530 1382h182l537 -1382h-201l-264 696q-13 35 -41 108t-44.5 116.5t-38 107t-36.5 117.5z" />
    <glyph glyph-name="Mu" unicode="&#x39c;" horiz-adv-x="1650" 
d="M819 385h12q82 226 236 551l211 446h225v-1382h-184v1087h-8q-66 -174 -137 -325l-269 -565h-162l-264 551q-89 185 -143 333h-8v-1081h-185v1382h226l225 -473q135 -287 225 -524z" />
    <glyph glyph-name="Nu" unicode="&#x39d;" horiz-adv-x="1380" 
d="M1051 309l10 2v1071h186v-1382h-174l-498 707q-177 252 -245 372l-8 -4v-1075h-189v1382h176l453 -639q136 -193 289 -434z" />
    <glyph glyph-name="Xi" unicode="&#x39e;" horiz-adv-x="1153" 
d="M68 178h1019v-178h-1019v178zM172 797h809v-172h-809v172zM1065 1210h-975v172h975v-172z" />
    <glyph glyph-name="Omicron" unicode="&#x39f;" horiz-adv-x="1417" 
d="M725 1397q131 0 232.5 -37.5t166 -100t105.5 -152.5t57.5 -187.5t16.5 -212.5t-17 -215t-60.5 -195.5t-110 -163t-173 -108.5t-242.5 -41q-133 0 -235 32t-168.5 88t-108.5 141t-59.5 183.5t-17.5 222.5q0 168 35.5 302t108 234.5t192 155t278.5 54.5zM719 1227
q-418 0 -418 -549q0 -272 96.5 -400t307.5 -128q186 0 295.5 133.5t109.5 394.5q0 127 -20.5 224t-65 172t-121.5 114t-184 39z" />
    <glyph glyph-name="Pi" unicode="&#x3a0;" horiz-adv-x="1361" 
d="M1044 0v1217h-727v-1217h-184v1384h1096v-1384h-185z" />
    <glyph glyph-name="Rho" unicode="&#x3a1;" horiz-adv-x="1204" 
d="M686 489h-369v-489h-184v1382h569q149 0 256 -61t158 -161.5t51 -227.5q0 -60 -14 -118t-49 -118t-88 -105t-138 -73.5t-192 -28.5zM694 1217h-377v-560h369q55 0 106 16.5t93.5 48.5t68 86t25.5 122q0 125 -79 206t-206 81z" />
    <glyph glyph-name="Sigma" unicode="&#x3a3;" horiz-adv-x="1189" 
d="M70 154l442 581l-434 494v155h1020v-170h-791l420 -479l-432 -567h840v-168h-1065v154z" />
    <glyph glyph-name="Tau" unicode="&#x3a4;" horiz-adv-x="1175" 
d="M684 1217v-1217h-184v1217h-469v165h1114v-165h-461z" />
    <glyph glyph-name="Upsilon" unicode="&#x3a5;" horiz-adv-x="1171" 
d="M571 727h21q39 101 172 356l160 299h213l-469 -827v-555h-187v555l-463 827h213l172 -319q4 -8 39.5 -73.5t50 -94t39 -79.5t39.5 -89z" />
    <glyph glyph-name="Phi" unicode="&#x3a6;" horiz-adv-x="1558" 
d="M883 1384v-57q129 -10 230 -49.5t165 -97t105 -135.5t58 -159t17 -173q0 -82 -19 -159t-62.5 -152t-108.5 -133.5t-164 -100t-221 -53.5v-115h-189v113q-157 15 -273 66.5t-184 132t-100.5 180t-32.5 219.5q0 125 36.5 231t107.5 188.5t185 134t261 62.5v57h189zM291 713
q0 -397 403 -441v899q-82 -6 -149.5 -32.5t-114 -68.5t-78.5 -98t-46.5 -121t-14.5 -138zM1270 715q0 95 -22.5 174t-68 141t-121 99.5t-175.5 44.5v-900q170 14 278.5 132.5t108.5 308.5z" />
    <glyph glyph-name="Chi" unicode="&#x3a7;" horiz-adv-x="1183" 
d="M1120 1382l-424 -663q313 -480 467 -719h-221l-352 586q-60 -94 -176.5 -293t-175.5 -293h-222l467 719q-76 120 -224.5 350t-201.5 313h213l320 -532q53 87 159.5 266t159.5 266h211z" />
    <glyph glyph-name="Psi" unicode="&#x3a8;" horiz-adv-x="1449" 
d="M635 4v334q-267 24 -406 179t-139 407v460h186v-471q0 -191 95.5 -291.5t263.5 -121.5v889h188v-887q161 23 253.5 126.5t92.5 286.5v469h185v-469q0 -236 -141.5 -393t-389.5 -184v-334h-188z" />
    <glyph glyph-name="Omega" unicode="&#x3a9;" horiz-adv-x="1474" 
d="M737 1229q-210 -1 -321 -142t-111 -385q0 -238 79 -365.5t232 -162.5v-174h-555v168h236l4 6q-186 150 -186 508q0 114 22 217t71 195.5t121 159.5t179.5 106t239.5 39q129 0 233.5 -38t174.5 -103.5t117 -156t68 -191.5t21 -214q0 -146 -49.5 -293t-145.5 -229l4 -6h230
v-168h-539v170q151 43 229 173t78 368q0 242 -112.5 380t-319.5 138z" />
    <glyph glyph-name="Iotadieresis" unicode="&#x3aa;" horiz-adv-x="534" 
d="M174 0v1382h186v-1382h-186zM-27 1655q0 43 31 73.5t74 30.5t73.5 -30.5t30.5 -73.5t-30.5 -74t-73.5 -31t-74 31t-31 74zM336 1655q0 43 30.5 73.5t73.5 30.5t74 -30.5t31 -73.5t-31 -74t-74 -31t-73.5 31t-30.5 74z" />
    <glyph glyph-name="Upsilondieresis" unicode="&#x3ab;" horiz-adv-x="1171" 
d="M571 727h21q39 101 172 356l160 299h213l-469 -827v-555h-187v555l-463 827h213l172 -319q4 -8 39.5 -73.5t50 -94t39 -79.5t39.5 -89zM295 1655q0 43 30.5 73.5t73.5 30.5t74 -30.5t31 -73.5t-31 -74t-74 -31t-73.5 31t-30.5 74zM657 1655q0 43 31 73.5t74 30.5
t73.5 -30.5t30.5 -73.5t-30.5 -74t-73.5 -31t-74 31t-31 74z" />
    <glyph glyph-name="alphatonos" unicode="&#x3ac;" horiz-adv-x="1122" 
d="M528 1008q207 0 301 -138h9q0 73 32 121h129v-991h-139q-29 48 -29 131h-8q-48 -79 -130.5 -114t-170.5 -35q-225 0 -322.5 133t-97.5 381q0 105 25 195.5t75 162t134 113t192 41.5zM549 139q72 0 127 30t84.5 78.5t44 101t14.5 106.5v114q0 128 -71.5 209.5t-194.5 81.5
q-268 0 -268 -360q0 -361 264 -361zM578 1090l-115 53l158 383l186 -74z" />
    <glyph glyph-name="epsilontonos" unicode="&#x3ad;" horiz-adv-x="964" 
d="M520 -16q-206 0 -310 78.5t-104 213.5q0 70 37 134.5t121 95.5v8q-141 46 -141 193q0 133 98 216t283 83q170 0 276.5 -72t106.5 -211q0 -6 -1 -17.5t-1 -17.5l-166 -2q-4 44 -24 76.5t-52 50.5t-69.5 26.5t-81.5 8.5q-81 0 -133 -39.5t-52 -99.5q0 -61 40.5 -88
t98.5 -27h195v-154h-195q-72 -1 -114.5 -40.5t-42.5 -104.5q0 -68 54 -115t159 -47q103 0 173.5 52.5t74.5 156.5h161q0 -6 1 -19.5t1 -19.5q0 -80 -33.5 -143t-90 -100t-124.5 -56t-145 -20zM500 1090l-115 53l158 383l186 -74z" />
    <glyph glyph-name="etatonos" unicode="&#x3ae;" horiz-adv-x="1110" 
d="M530 1090l-114 53l157 383l187 -74zM614 1008q70 0 126.5 -13.5t95 -35.5t67 -56t44.5 -69t25 -81.5t12 -86t3 -88.5v-578h-184v573q0 68 -10 117t-34.5 90t-71 61.5t-114.5 20.5q-65 0 -118.5 -28.5t-85.5 -75t-49 -102t-17 -113.5v-543h-180v991h135q39 -56 39 -139h8
q53 74 143 115t166 41z" />
    <glyph glyph-name="iotatonos" unicode="&#x3af;" horiz-adv-x="532" 
d="M172 0v991h182v-991h-182zM283 1090l-115 53l158 383l186 -74z" />
    <glyph glyph-name="upsilondieresistonos" unicode="&#x3b0;" horiz-adv-x="1089" 
d="M967 383q0 -198 -111 -297.5t-315 -99.5q-418 0 -418 397v608h184v-590q0 -260 236 -260q243 0 243 260v590h181v-608zM537 1090l-115 53l158 383l186 -74zM201 1239q0 43 30.5 73.5t73.5 30.5t74 -30.5t31 -73.5t-31 -73.5t-74 -30.5t-73.5 30.5t-30.5 73.5zM707 1239
q0 43 30.5 73.5t73.5 30.5t73.5 -30.5t30.5 -73.5t-30.5 -73.5t-73.5 -30.5t-73.5 30.5t-30.5 73.5z" />
    <glyph glyph-name="alpha" unicode="&#x3b1;" horiz-adv-x="1122" 
d="M528 1008q207 0 301 -138h9q0 73 32 121h129v-991h-139q-29 48 -29 131h-8q-48 -79 -130.5 -114t-170.5 -35q-225 0 -322.5 133t-97.5 381q0 105 25 195.5t75 162t134 113t192 41.5zM549 139q72 0 127 30t84.5 78.5t44 101t14.5 106.5v114q0 128 -71.5 209.5t-194.5 81.5
q-268 0 -268 -360q0 -361 264 -361z" />
    <glyph glyph-name="beta" unicode="&#x3b2;" horiz-adv-x="1118" 
d="M793 866v-10q121 -36 178 -141.5t57 -255.5q0 -95 -25.5 -177.5t-77 -150.5t-140.5 -107.5t-205 -39.5q-98 0 -164.5 28t-110.5 88h-8v-428h-174v1338q0 200 106.5 326t307.5 126q191 0 297 -95.5t106 -254.5q0 -25 -6 -55.5t-20.5 -68t-46 -71t-74.5 -51.5zM543 1315
q-58 0 -102.5 -19.5t-69.5 -48t-40.5 -69t-20.5 -76t-5 -74.5v-596q0 -130 68.5 -212.5t206.5 -82.5q121 0 192.5 86.5t71.5 245.5q0 92 -22 155.5t-62 95t-84 44t-101 12.5h-114v146h119q81 0 130.5 59t49.5 133q0 95 -65.5 148t-151.5 53z" />
    <glyph glyph-name="gamma" unicode="&#x3b3;" horiz-adv-x="962" 
d="M498 250h12q28 153 98 346l146 393h188l-350 -928v-479h-180v449l-289 774q-12 31 -30.5 40t-63.5 9l-17 119q69 35 142 35q52 0 76 -29.5t53 -106.5l123 -317q47 -119 92 -305z" />
    <glyph glyph-name="delta" unicode="&#x3b4;" horiz-adv-x="1126" 
d="M514 1270l-4 -10q115 -73 204 -151t161 -172t110.5 -204t38.5 -231q0 -252 -124 -384t-339 -132q-223 0 -341 121.5t-118 361.5q0 81 14.5 153.5t48.5 140t85 116t130.5 77.5t178.5 29h37q-2 2 -25.5 22.5t-30 26t-32.5 26.5t-43 33t-50.5 36t-65.5 44.5t-77.5 49
t-97.5 59.5v143h774v-155h-434zM289 479q0 -164 75.5 -250t202.5 -86q124 0 198.5 88t74.5 240q0 112 -27 199.5t-92 171.5q-55 8 -113 8q-174 0 -246.5 -96.5t-72.5 -274.5z" />
    <glyph glyph-name="epsilon" unicode="&#x3b5;" horiz-adv-x="964" 
d="M520 -16q-206 0 -310 78.5t-104 213.5q0 70 37 134.5t121 95.5v8q-141 46 -141 193q0 133 98 216t283 83q170 0 276.5 -72t106.5 -211q0 -6 -1 -17.5t-1 -17.5l-166 -2q-4 44 -24 76.5t-52 50.5t-69.5 26.5t-81.5 8.5q-81 0 -133 -39.5t-52 -99.5q0 -61 40.5 -88
t98.5 -27h195v-154h-195q-72 -1 -114.5 -40.5t-42.5 -104.5q0 -68 54 -115t159 -47q103 0 173.5 52.5t74.5 156.5h161q0 -6 1 -19.5t1 -19.5q0 -80 -33.5 -143t-90 -100t-124.5 -56t-145 -20z" />
    <glyph glyph-name="zeta" unicode="&#x3b6;" horiz-adv-x="886" 
d="M666 1260l-2 10h-506v155h774v-135q-278 -226 -452.5 -462t-174.5 -390q0 -20 2 -37t10 -33t15 -28t25 -26.5t32 -24.5t43.5 -25t52.5 -25t66.5 -27.5t77 -30t92.5 -34.5q103 -38 141.5 -80t38.5 -104q0 -52 -60.5 -145.5t-125.5 -163.5l-119 78q106 170 106 202
q0 25 -31.5 41t-152.5 60q-89 32 -140 53.5t-108 55t-86 69.5t-48 89t-19 122q0 150 146 383t403 453z" />
    <glyph glyph-name="eta" unicode="&#x3b7;" horiz-adv-x="1110" 
d="M614 1008q70 0 126.5 -13.5t95 -35.5t67 -56t44.5 -69t25 -81.5t12 -86t3 -88.5v-578h-184v573q0 68 -10 117t-34.5 90t-71 61.5t-114.5 20.5q-65 0 -118.5 -28.5t-85.5 -75t-49 -102t-17 -113.5v-543h-180v991h135q39 -56 39 -139h8q53 74 143 115t166 41z" />
    <glyph glyph-name="theta" unicode="&#x3b8;" horiz-adv-x="1126" 
d="M565 1462q83 0 150 -22t114 -59t82.5 -93t56.5 -117.5t34 -140t17.5 -152t4.5 -161.5q0 -83 -4.5 -153.5t-17.5 -147t-34 -138t-56.5 -118t-82.5 -94t-114.5 -60t-149.5 -22.5q-108 0 -189.5 36.5t-133 99t-83.5 157t-44.5 199.5t-12.5 237q0 133 13 241t46 204.5
t84.5 162t132.5 103.5t187 38zM565 135q83 0 138.5 38.5t85.5 117t42 175.5t13 236h-559q0 -135 12 -232t42 -176t86 -119t140 -40zM565 1311q-63 0 -110.5 -24.5t-77.5 -65t-50 -102.5t-29 -127.5t-13 -149.5h557q-4 108 -18.5 188t-45 146t-84 100.5t-129.5 34.5z" />
    <glyph glyph-name="iota" unicode="&#x3b9;" horiz-adv-x="532" 
d="M176 0v991h182v-991h-182z" />
    <glyph glyph-name="kappa" unicode="&#x3ba;" horiz-adv-x="983" 
d="M301 991v-405h129l330 403h201l-373 -457l389 -532h-215l-313 440h-148v-440h-178v991h178z" />
    <glyph glyph-name="lambda" unicode="&#x3bb;" horiz-adv-x="954" 
d="M539 1219l307 -1026q5 -20 12 -32.5t11 -19t18.5 -9.5t19.5 -3h29l8 -111q-63 -34 -121 -34q-57 0 -86.5 32t-62.5 136l-103 335q-8 26 -25.5 83t-27.5 90t-21 78t-16 79h-10q-27 -113 -90 -297l-180 -520h-185q61 176 351 993h53l-66 205q-23 69 -54.5 89t-98.5 20h-62
v151h117q72 0 120.5 -15.5t79.5 -51t47.5 -72.5t35.5 -100z" />
    <glyph glyph-name="nu" unicode="&#x3bd;" horiz-adv-x="997" 
d="M494 186h18q43 182 154 476l120 327h179l-375 -993h-187l-372 993h184l123 -332q100 -269 156 -471z" />
    <glyph glyph-name="xi" unicode="&#x3be;" horiz-adv-x="903" 
d="M535 1460q73 0 137.5 -13.5t120 -42t88 -80t32.5 -120.5q0 -13 -4 -49l-155 -2q-6 77 -66.5 113.5t-150.5 36.5q-74 0 -127.5 -34t-76 -79t-22.5 -92q0 -207 248 -207h209v-156h-217q-70 0 -122.5 -23.5t-82 -64.5t-43.5 -89.5t-14 -104.5q0 -46 17.5 -83t42.5 -62
t73.5 -49.5t89.5 -40t110 -39.5q10 -3 15 -5q110 -39 168 -74t75 -65.5t17 -75.5q0 -95 -170 -303l-125 74q100 161 100 200q0 26 -35 46.5t-137 54.5q-226 73 -325 168.5t-99 249.5q0 111 51 204t154 146v12q-84 30 -134 106.5t-50 182.5q0 45 12 91.5t42.5 95.5t75 87
t117 62t161.5 24z" />
    <glyph glyph-name="omicron" unicode="&#x3bf;" horiz-adv-x="1126" 
d="M573 1006q98 0 176 -28t128.5 -74.5t83.5 -111.5t47 -135t14 -149q0 -80 -14.5 -152.5t-49 -141t-87 -118.5t-134 -80t-184.5 -30q-453 0 -453 491q0 113 29 208t85.5 167.5t148.5 113t210 40.5zM571 842q-286 0 -286 -350q0 -173 66.5 -261t209.5 -88q128 0 201.5 88.5
t73.5 262.5q0 169 -59.5 258.5t-205.5 89.5z" />
    <glyph glyph-name="pi" unicode="&#x3c0;" horiz-adv-x="1130" 
d="M823 838h-520v-838h-180v989h885v-989h-185v838z" />
    <glyph glyph-name="rho" unicode="&#x3c1;" horiz-adv-x="1114" 
d="M565 139q132 0 198 93.5t66 267.5q0 350 -266 350q-125 0 -195.5 -83t-70.5 -212v-111q0 -60 15.5 -113t46.5 -97t84 -69.5t122 -25.5zM113 -416v905q0 109 26 200.5t79.5 164t143.5 113.5t209 41t206.5 -40.5t137.5 -113t73.5 -160.5t23.5 -194q0 -86 -14.5 -161.5
t-47 -141.5t-80.5 -112.5t-119 -73.5t-159 -27q-204 0 -289 133h-10v-533h-180z" />
    <glyph glyph-name="sigma1" unicode="&#x3c2;" horiz-adv-x="944" 
d="M539 844q-136 0 -200.5 -82.5t-64.5 -265.5q0 -63 14 -105t52.5 -77t88.5 -60.5t140 -60.5q77 -30 129 -58.5t79 -49t40.5 -47.5t16 -43t2.5 -46q0 -20 -10.5 -51t-51.5 -97.5t-108 -142.5l-125 76q98 158 98 194q0 30 -35 55.5t-119 55.5q-126 46 -203 90t-119.5 100
t-56.5 114.5t-14 148.5q0 114 25 205.5t76.5 162.5t139.5 109.5t206 38.5q166 0 272.5 -72.5t106.5 -210.5q0 -7 -2 -19.5t-3 -17.5h-157q-13 156 -217 156z" />
    <glyph glyph-name="sigma" unicode="&#x3c3;" horiz-adv-x="1136" 
d="M907 846l-6 -10q123 -115 123 -344q0 -68 -12.5 -133.5t-45 -135t-81.5 -121.5t-129.5 -85t-182.5 -33q-104 0 -183.5 25.5t-131.5 70t-85 109t-46.5 138t-13.5 162.5q0 110 26.5 199.5t80.5 158t144 106.5t209 38h506v-153h-65q-60 0 -107 8zM573 844q-278 0 -278 -355
q0 -166 67.5 -259t210.5 -93q126 0 197.5 103t71.5 252q0 75 -13.5 135t-43 110.5t-83.5 78.5t-129 28z" />
    <glyph glyph-name="tau" unicode="&#x3c4;" horiz-adv-x="823" 
d="M45 989l725 2v-153h-324v-519q0 -105 39.5 -145.5t135.5 -40.5q82 0 153 8v-141q-81 -16 -176 -16q-94 0 -154 15t-101.5 53.5t-59 104.5t-17.5 169v512h-221v151z" />
    <glyph glyph-name="upsilon" unicode="&#x3c5;" horiz-adv-x="1089" 
d="M967 383q0 -198 -111 -297.5t-315 -99.5q-418 0 -418 397v608h184v-590q0 -260 236 -260q243 0 243 260v590h181v-608z" />
    <glyph glyph-name="phi" unicode="&#x3c6;" horiz-adv-x="1363" 
d="M770 846v-707q146 9 228.5 104t82.5 251q0 164 -75.5 257.5t-235.5 94.5zM590 143v861h170q115 0 203.5 -28.5t144 -76t91 -115t49.5 -138t14 -152.5q0 -93 -29.5 -178t-87 -156.5t-154.5 -117.5t-221 -52v-410h-180v408q-86 4 -156.5 20.5t-120.5 42.5t-88 63t-61 77.5
t-37 91.5t-19.5 99t-5.5 105q0 82 18.5 157.5t56.5 143t104 116.5t153 67l49 -131q-198 -87 -198 -353q0 -332 305 -344z" />
    <glyph glyph-name="chi" unicode="&#x3c7;" horiz-adv-x="944" 
d="M717 0l-246 387l-244 -387h-207l351 518l-324 473h209l215 -344q135 207 217 344h207l-324 -473l353 -518h-207z" />
    <glyph glyph-name="psi" unicode="&#x3c8;" horiz-adv-x="1294" 
d="M549 -420v406q-217 12 -326.5 117t-109.5 319v569h184v-565q0 -129 66.5 -201t185.5 -84v850h182v-850q266 20 266 285v565h185v-569q0 -203 -118 -316t-333 -124v-402h-182z" />
    <glyph glyph-name="omega" unicode="&#x3c9;" horiz-adv-x="1601" 
d="M1499 494q0 -79 -11.5 -148.5t-41 -137.5t-76 -116.5t-121 -78t-170.5 -29.5t-173 45t-111 118h-13q-101 -163 -307 -163q-197 0 -285 126.5t-88 362.5q0 110 23.5 200.5t73 165t136 117t204.5 45.5v-161q-140 -7 -197 -96.5t-57 -254.5q0 -64 4.5 -112t18.5 -95.5
t37 -77.5t62 -48.5t93 -18.5q48 0 85.5 16.5t60 42.5t37 61.5t19.5 70t5 71.5v289h178v-291q0 -119 51.5 -189.5t150.5 -70.5q63 0 108.5 27.5t71 77.5t37 111t11.5 136q0 164 -57 254t-197 97v161q117 -3 204 -44.5t137 -113t73.5 -158.5t23.5 -191z" />
    <glyph glyph-name="iotadieresis" unicode="&#x3ca;" horiz-adv-x="532" 
d="M176 0v991h182v-991h-182zM-20 1266q0 43 30.5 73.5t73.5 30.5t73.5 -30.5t30.5 -73.5t-30.5 -74t-73.5 -31t-73.5 31t-30.5 74zM342 1266q0 43 30.5 73.5t73.5 30.5t74 -30.5t31 -73.5t-31 -74t-74 -31t-73.5 31t-30.5 74z" />
    <glyph glyph-name="upsilondieresis" unicode="&#x3cb;" horiz-adv-x="1089" 
d="M967 383q0 -198 -111 -297.5t-315 -99.5q-418 0 -418 397v608h184v-590q0 -260 236 -260q243 0 243 260v590h181v-608zM264 1266q0 43 31 73.5t74 30.5t73.5 -30.5t30.5 -73.5t-30.5 -74t-73.5 -31t-74 31t-31 74zM627 1266q0 43 30.5 73.5t73.5 30.5t74 -30.5t31 -73.5
t-31 -74t-74 -31t-73.5 31t-30.5 74z" />
    <glyph glyph-name="omicrontonos" unicode="&#x3cc;" horiz-adv-x="1126" 
d="M573 1006q98 0 176 -28t128.5 -74.5t83.5 -111.5t47 -135t14 -149q0 -80 -14.5 -152.5t-49 -141t-87 -118.5t-134 -80t-184.5 -30q-453 0 -453 491q0 113 29 208t85.5 167.5t148.5 113t210 40.5zM571 842q-286 0 -286 -350q0 -173 66.5 -261t209.5 -88q128 0 201.5 88.5
t73.5 262.5q0 169 -59.5 258.5t-205.5 89.5zM590 1090l-115 53l158 383l186 -74z" />
    <glyph glyph-name="upsilontonos" unicode="&#x3cd;" horiz-adv-x="1089" 
d="M967 383q0 -198 -111 -297.5t-315 -99.5q-418 0 -418 397v608h184v-590q0 -260 236 -260q243 0 243 260v590h181v-608zM571 1090l-114 53l157 383l187 -74z" />
    <glyph glyph-name="omegatonos" unicode="&#x3ce;" horiz-adv-x="1601" 
d="M1499 494q0 -79 -11.5 -148.5t-41 -137.5t-76 -116.5t-121 -78t-170.5 -29.5t-173 45t-111 118h-13q-101 -163 -307 -163q-197 0 -285 126.5t-88 362.5q0 110 23.5 200.5t73 165t136 117t204.5 45.5v-161q-140 -7 -197 -96.5t-57 -254.5q0 -64 4.5 -112t18.5 -95.5
t37 -77.5t62 -48.5t93 -18.5q48 0 85.5 16.5t60 42.5t37 61.5t19.5 70t5 71.5v289h178v-291q0 -119 51.5 -189.5t150.5 -70.5q63 0 108.5 27.5t71 77.5t37 111t11.5 136q0 164 -57 254t-197 97v161q117 -3 204 -44.5t137 -113t73.5 -158.5t23.5 -191zM817 1090l-115 53
l158 383l187 -74z" />
    <glyph glyph-name="Sampigreek" unicode="&#x3e0;" horiz-adv-x="1351" 
d="M63 1239l15 117q226 -11 413 -69t321.5 -154.5t227.5 -227.5t138 -287.5t45 -334.5q0 -191 -64 -435l-131 21q31 174 31 332q0 174 -49 329l-572 -321l-86 129l606 328q-54 115 -108 176q-28 -16 -172 -96t-270.5 -150.5t-137.5 -77.5l-94 129l569 305q-220 234 -682 287
z" />
    <glyph glyph-name="sampigreek" unicode="&#x3e1;" horiz-adv-x="1191" 
d="M84 907l12 111q240 -11 428.5 -85t307.5 -196.5t181 -283t62 -349.5q0 -155 -55 -370l-123 18q27 158 27 285q0 144 -39 268l-484 -270l-75 119l514 276q-51 101 -86 141l-492 -274l-84 117l479 260q-183 189 -573 233z" />
    <glyph glyph-name="endash" unicode="&#x2013;" horiz-adv-x="1064" 
d="M57 449v145h951v-145h-951z" />
    <glyph glyph-name="emdash" unicode="&#x2014;" horiz-adv-x="2088" 
d="M80 449v145h1929v-145h-1929z" />
    <glyph glyph-name="afii00208" unicode="&#x2015;" horiz-adv-x="2088" 
d="M80 449v145h1929v-145h-1929z" />
    <glyph glyph-name="quoteleft" unicode="&#x2018;" horiz-adv-x="534" 
d="M412 1104q0 -58 -40.5 -98.5t-99.5 -40.5q-61 0 -100 38t-39 97q0 36 19 76l170 327l73 -26l-80 -242q42 -12 69.5 -49t27.5 -82z" />
    <glyph glyph-name="quoteright" unicode="&#x2019;" horiz-adv-x="534" 
d="M123 1354q0 58 40.5 98.5t98.5 40.5q61 0 100 -38t39 -97q0 -38 -18 -76l-170 -328l-74 27l80 242q-42 12 -69 49t-27 82z" />
    <glyph glyph-name="quotesinglbase" unicode="&#x201a;" horiz-adv-x="528" 
d="M127 115q0 59 40.5 99t98.5 40q61 0 100.5 -38t39.5 -97q0 -36 -19 -76l-199 -401l-75 28l108 314q-41 12 -67.5 48.5t-26.5 82.5z" />
    <glyph glyph-name="quotedblleft" unicode="&#x201c;" horiz-adv-x="868" 
d="M412 1104q0 -58 -40.5 -98.5t-99.5 -40.5q-61 0 -100 38t-39 97q0 36 19 76l170 327l73 -26l-80 -242q42 -12 69.5 -49t27.5 -82zM745 1104q0 -58 -40.5 -98.5t-98.5 -40.5q-61 0 -100 38t-39 97q0 38 18 76l170 327l74 -26l-80 -242q42 -12 69 -49t27 -82z" />
    <glyph glyph-name="quotedblright" unicode="&#x201d;" horiz-adv-x="868" 
d="M457 1354q0 58 40.5 98.5t98.5 40.5q61 0 100 -38t39 -97q0 -38 -18 -76l-170 -328l-74 27l80 242q-42 12 -69 49t-27 82zM123 1354q0 58 40.5 98.5t98.5 40.5q61 0 100 -38t39 -97q0 -38 -18 -76l-170 -328l-74 27l80 242q-42 12 -69 49t-27 82z" />
    <glyph glyph-name="quotedblbase" unicode="&#x201e;" horiz-adv-x="878" 
d="M127 115q0 59 40.5 99t98.5 40q61 0 100.5 -38t39.5 -97q0 -36 -19 -76l-199 -401l-75 28l108 314q-41 12 -67.5 48.5t-26.5 82.5zM477 115q0 59 40.5 99t98.5 40q61 0 100.5 -38t39.5 -97q0 -36 -19 -76l-198 -401l-76 28l108 314q-41 12 -67.5 48.5t-26.5 82.5z" />
    <glyph glyph-name="dagger" unicode="&#x2020;" horiz-adv-x="1177" 
d="M659 879v-1098h-192v1098h-330v157h328v377h192v-377h324v-157h-322z" />
    <glyph glyph-name="daggerdbl" unicode="&#x2021;" horiz-adv-x="1177" 
d="M467 463v416h-330v157h328v377h192v-377h324v-157h-322v-416h322v-158h-322v-524h-192v524h-330v158h330z" />
    <glyph glyph-name="bullet" unicode="&#x2022;" horiz-adv-x="1067" 
d="M244 532q0 120 84 205.5t204 85.5t205.5 -85.5t85.5 -205.5t-85.5 -204t-205.5 -84t-204 84t-84 204z" />
    <glyph glyph-name="trianglebullet" unicode="&#x2023;" horiz-adv-x="1036" 
d="M166 977l805 -410l-805 -432v842z" />
    <glyph glyph-name="ellipsis" unicode="&#x2026;" horiz-adv-x="1595" 
d="M127 115q0 59 40.5 99t98.5 40q59 0 99.5 -40.5t40.5 -98.5q0 -59 -41 -99.5t-99 -40.5t-98.5 40.5t-40.5 99.5zM662 115q0 59 40 99t99 40t99 -40t40 -99t-40.5 -99.5t-98.5 -40.5t-98.5 40.5t-40.5 99.5zM1190 115q0 59 40 99t99 40t99 -40t40 -99t-40.5 -99.5
t-98.5 -40.5t-98.5 40.5t-40.5 99.5z" />
    <glyph glyph-name="perthousand" unicode="&#x2030;" horiz-adv-x="2580" 
d="M522 -57h-155l872 1503h160zM397 1397q82 0 146.5 -23t105.5 -61.5t67.5 -93.5t37 -114t10.5 -128q0 -82 -18.5 -150.5t-59 -127.5t-114.5 -92.5t-175 -33.5q-103 0 -176.5 29t-115 84.5t-60 126.5t-18.5 164q0 195 91 307.5t279 112.5zM395 1270q-115 0 -164 -76.5
t-49 -216.5q0 -279 213 -279q99 0 154 70t55 209q0 293 -209 293zM1376 815q82 0 146.5 -23t105.5 -61.5t67.5 -93.5t37 -114t10.5 -128q0 -82 -18.5 -150.5t-59 -127t-114.5 -92t-175 -33.5q-103 0 -176.5 29t-115 84t-60 126t-18.5 164q0 195 91 307.5t279 112.5z
M1374 688q-115 0 -164 -76.5t-49 -216.5q0 -278 213 -278q99 0 154 69.5t55 208.5q0 293 -209 293zM2187 815q82 0 146.5 -23t105.5 -61.5t67.5 -93.5t37 -114t10.5 -128q0 -82 -18.5 -150.5t-59 -127t-114.5 -92t-175 -33.5q-103 0 -176.5 29t-115 84t-60 126t-18.5 164
q0 195 91 307.5t279 112.5zM2185 688q-115 0 -164 -76.5t-49 -216.5q0 -278 213 -278q99 0 154 69.5t55 208.5q0 293 -209 293z" />
    <glyph glyph-name="guilsinglleft" unicode="&#x2039;" horiz-adv-x="731" 
d="M315 469l271 -363l-103 -86l-360 420v58l360 411l103 -78z" />
    <glyph glyph-name="guilsinglright" unicode="&#x203a;" horiz-adv-x="694" 
d="M125 106l270 363l-270 362l102 78l361 -411v-58l-361 -420z" />
    <glyph glyph-name="fraction" unicode="&#x2044;" horiz-adv-x="450" 
d="M-152 -57h-155l872 1503h160z" />
    <glyph glyph-name="fraction" unicode="&#x2215;" horiz-adv-x="450" 
d="M-152 -57h-155l872 1503h160z" />
    <glyph glyph-name="foursuperior" unicode="&#x2074;" horiz-adv-x="792" 
d="M494 1573h127v-494h137v-127h-137v-186h-160v186h-432v99zM236 1079h225v260z" />
    <glyph glyph-name="Euro" unicode="&#x20ac;" 
d="M739 1348q115 0 213 -37.5t160 -112.5t62 -174q0 -7 -5 -27h-153q-43 189 -283 189q-316 0 -364 -375h579v-102h-870v102h106q16 121 55 216.5t105 168.5t166 112.5t229 39.5zM754 141q72 0 124 17t82.5 49.5t47 71.5t24.5 92h154q4 -16 4 -29q0 -116 -62.5 -199
t-162.5 -122t-224 -39q-141 0 -245 37t-169 110t-100 169t-47 224h-102v101h868v-101h-579q20 -186 110 -283.5t277 -97.5z" />
    <glyph glyph-name="trademark" unicode="&#x2122;" horiz-adv-x="1499" 
d="M696 621v761h160l182 -370h11l182 370h155v-761h-135v530h-8l-153 -334h-95l-151 322h-8v-518h-140zM639 1382v-106h-221v-655h-137v655h-199v106h557z" />
    <glyph glyph-name="onethird" horiz-adv-x="1771" 
d="M666 707v-125h-605v125h222v524l-189 -23v111l213 67h131v-679h228zM506 -57h-156l873 1503h159zM1413 670l-4 10h-344v121h582v-101l-217 -182l4 -12q115 -14 181 -73.5t66 -164.5q0 -125 -100 -200.5t-250 -75.5q-136 0 -218.5 54t-82.5 149q0 24 4 49h127
q10 -77 53 -103t117 -26q87 0 143 38t56 119q0 69 -56 101.5t-139 32.5q-41 0 -102 -11l-49 88z" />
    <glyph glyph-name="twothirds" horiz-adv-x="1771" 
d="M397 1393q154 0 228.5 -61t74.5 -158q0 -45 -21.5 -86.5t-59.5 -77t-76 -61.5t-86 -52q-11 -6 -39.5 -21t-38 -20.5t-33 -18.5t-32 -19.5t-25.5 -18.5t-24 -20.5t-16.5 -20t-14.5 -23t-7 -24.5h482v-129h-639v65q0 62 17.5 110t59.5 89t87.5 71t125.5 74q103 57 138 89
q46 44 47 87q0 46 -36.5 74.5t-102.5 28.5q-71 0 -120 -37.5t-53 -118.5h-118q-6 27 -6 53q0 100 84 163t204 63zM555 -57h-156l873 1503h160zM1444 670l-4 10h-344v121h581v-101l-217 -182l4 -12q115 -14 181.5 -73.5t66.5 -164.5q0 -125 -100 -200.5t-250 -75.5
q-136 0 -218.5 54t-82.5 149q0 24 4 49h127q10 -77 53 -103t117 -26q87 0 143 38t56 119q0 69 -56 101.5t-139 32.5q-42 0 -102 -11l-50 88z" />
    <glyph glyph-name="onefifth" horiz-adv-x="1771" 
d="M672 707v-125h-604v125h221v524l-189 -23v111l213 67h131v-679h228zM549 -57h-156l873 1503h159zM1669 270q0 -128 -92.5 -203t-241.5 -75q-50 0 -98.5 9t-93 28t-74.5 48.5t-43 70.5t2 94h127q8 -67 55.5 -97t116.5 -30q85 0 138 38t53 121q0 75 -55 113.5t-146 38.5
q-92 0 -174 -39l-88 51l59 367h514v-123h-383l-24 -147q49 10 98 10q75 0 136.5 -15t110.5 -46t76 -85.5t27 -128.5z" />
    <glyph glyph-name="twofifths" horiz-adv-x="1771" 
d="M395 1393q154 0 228.5 -61t74.5 -158q0 -45 -21.5 -86.5t-59.5 -77t-76 -61.5t-86 -52q-11 -6 -39.5 -21t-38 -20.5t-33 -18.5t-32 -19.5t-25.5 -18.5t-24 -20.5t-16.5 -20t-14.5 -23t-7 -24.5h482v-129h-639v65q0 62 17.5 110t59.5 89t87.5 71t125.5 74q103 57 138 89
q46 44 47 87q0 46 -37 74.5t-103 28.5q-71 0 -119.5 -37t-52.5 -119h-118q-7 32 -7 53q0 100 84.5 163t204.5 63zM571 -57h-155l872 1503h160zM1686 270q0 -128 -92.5 -203t-241.5 -75q-50 0 -98.5 9t-93.5 28t-74.5 48.5t-43 70.5t1.5 94h127q8 -67 55.5 -97t116.5 -30
q85 0 138 38t53 121q0 75 -55 113.5t-146 38.5q-92 0 -174 -39l-88 51l59 367h515v-123h-383l-25 -147q49 10 98 10q75 0 136.5 -15t111 -46t76.5 -85.5t27 -128.5z" />
    <glyph glyph-name="threefifths" horiz-adv-x="1771" 
d="M455 1255l-4 11h-345v120h582v-100l-217 -182l4 -12q115 -14 181.5 -73.5t66.5 -164.5q0 -125 -100 -200.5t-250 -75.5q-136 0 -218.5 53.5t-82.5 148.5q0 24 4 49h127q10 -77 53 -103t117 -26q87 0 142.5 38.5t55.5 119.5q0 69 -55.5 101t-138.5 32q-48 0 -103 -10
l-49 88zM524 -57h-155l872 1503h160zM1686 270q0 -128 -92.5 -203t-241.5 -75q-50 0 -98.5 9t-93.5 28t-74.5 48.5t-43 70.5t1.5 94h127q8 -67 55.5 -97t116.5 -30q85 0 138 38t53 121q0 75 -55 113.5t-146 38.5q-92 0 -174 -39l-88 51l59 367h515v-123h-383l-25 -147
q49 10 98 10q75 0 136.5 -15t111 -46t76.5 -85.5t27 -128.5z" />
    <glyph glyph-name="fourfifths" horiz-adv-x="1771" 
d="M502 1389h127v-494h137v-127h-137v-186h-160v186h-432v98zM244 895h225v260zM571 -57h-155l872 1503h160zM1700 270q0 -128 -92.5 -203t-241.5 -75q-50 0 -98.5 9t-93 28t-74.5 48.5t-43 70.5t2 94h127q8 -67 55.5 -97t116.5 -30q85 0 137.5 38t52.5 121q0 75 -55 113.5
t-145 38.5q-92 0 -174 -39l-89 51l60 367h514v-123h-383l-25 -147q49 10 99 10q75 0 136.5 -15t110.5 -46t76 -85.5t27 -128.5z" />
    <glyph glyph-name="onesixth" horiz-adv-x="1771" 
d="M672 707v-125h-604v125h221v524l-189 -23v111l213 67h131v-679h228zM553 -57h-156l873 1503h160zM1374 528q141 0 224 -70.5t83 -193.5q0 -118 -88 -196t-235 -78q-344 0 -344 385q0 48 5.5 92.5t18.5 97t39.5 95t64.5 78.5t97.5 56.5t134.5 20.5q110 0 192.5 -47.5
t82.5 -138.5q0 -11 -4 -39h-123q-7 49 -51 75.5t-107 26.5q-97 0 -149.5 -68.5t-57.5 -179.5l8 -2q96 86 209 86zM1360 109q89 0 131.5 44t42.5 105q0 70 -45 110t-125 40q-74 0 -123 -41t-49 -109q0 -64 42 -106.5t126 -42.5z" />
    <glyph glyph-name="fivesixths" horiz-adv-x="1771" 
d="M725 854q0 -128 -92.5 -203.5t-241.5 -75.5q-50 0 -98.5 9t-93 28t-74.5 48.5t-43 70.5t2 94h127q8 -67 55.5 -97t116.5 -30q85 0 137.5 38.5t52.5 121.5q0 75 -55 113.5t-145 38.5q-92 0 -174 -39l-88 51l59 367h514v-123h-383l-25 -148q49 10 99 10q75 0 136.5 -14.5
t110.5 -46t76 -85.5t27 -128zM551 -57h-156l873 1503h159zM1393 528q141 0 224 -70.5t83 -193.5q0 -118 -88.5 -196t-235.5 -78q-344 0 -344 385q0 40 3.5 78t14 83t26.5 83.5t44.5 75.5t65 63t90 41.5t117.5 15.5q110 0 192 -47.5t82 -138.5q0 -11 -4 -39h-123
q-7 49 -51 75.5t-107 26.5q-97 0 -149 -68t-57 -180l8 -2q96 86 209 86zM1378 109q89 0 131.5 44t42.5 105q0 70 -45 110t-125 40q-74 0 -123 -41t-49 -109q0 -64 42 -106.5t126 -42.5z" />
    <glyph glyph-name="oneeighth" horiz-adv-x="1771" 
d="M672 707v-125h-604v125h221v524l-189 -23v111l213 67h131v-679h228zM541 -57h-156l872 1503h160zM1341 817q86 0 149 -20t95.5 -54t47 -70.5t14.5 -76.5q0 -25 -7 -49.5t-34.5 -56.5t-73.5 -52v-8q147 -48 147 -201q0 -98 -92.5 -167.5t-245.5 -69.5q-150 0 -241.5 64.5
t-91.5 172.5q0 35 10.5 70.5t43 73.5t81.5 57l4 10q-107 44 -107 156q0 38 18 76t53.5 71t95 53.5t134.5 20.5zM1522 227q0 52 -47.5 95.5t-128.5 58.5q-78 -17 -127.5 -60.5t-49.5 -93.5q0 -55 52.5 -82.5t119.5 -27.5q76 0 128.5 27t52.5 83zM1341 688q-60 0 -100.5 -24
t-40.5 -66q0 -36 45.5 -69.5t106.5 -49.5q57 10 98 46.5t41 72.5q0 45 -39.5 67.5t-110.5 22.5z" />
    <glyph glyph-name="threeeighths" horiz-adv-x="1771" 
d="M455 1255l-4 11h-345v120h582v-100l-217 -182l4 -12q115 -14 181.5 -73.5t66.5 -164.5q0 -125 -100 -200.5t-250 -75.5q-136 0 -218.5 53.5t-82.5 148.5q0 24 4 49h127q10 -77 53 -103t117 -26q87 0 142.5 38.5t55.5 119.5q0 69 -55.5 101t-138.5 32q-48 0 -103 -10
l-49 88zM543 -57h-156l873 1503h159zM1356 817q70 0 124.5 -14t87.5 -35.5t55 -51.5t30 -59t8 -61q0 -25 -7 -49.5t-34.5 -56.5t-73.5 -52v-8q148 -49 148 -201q0 -98 -92.5 -167.5t-245.5 -69.5q-150 0 -242 64.5t-92 172.5q0 35 10.5 70.5t43 73.5t81.5 57l4 10
q-106 44 -106 156q0 38 18 76t53.5 71t95 53.5t134.5 20.5zM1536 227q0 52 -47.5 95.5t-128.5 58.5q-77 -17 -126.5 -60.5t-49.5 -93.5q0 -55 52.5 -82.5t119.5 -27.5q76 0 128 27t52 83zM1356 688q-60 0 -101 -24t-41 -66q0 -36 45.5 -69.5t106.5 -49.5q57 10 98 46.5
t41 72.5q0 90 -149 90z" />
    <glyph glyph-name="fiveeighths" horiz-adv-x="1771" 
d="M725 854q0 -128 -92.5 -203.5t-241.5 -75.5q-50 0 -98.5 9t-93 28t-74.5 48.5t-43 70.5t2 94h127q8 -67 55.5 -97t116.5 -30q85 0 137.5 38.5t52.5 121.5q0 75 -55 113.5t-145 38.5q-92 0 -174 -39l-88 51l59 367h514v-123h-383l-25 -148q49 10 99 10q75 0 136.5 -14.5
t110.5 -46t76 -85.5t27 -128zM541 -57h-156l872 1503h160zM1358 817q70 0 124.5 -14t87.5 -35.5t55 -51.5t30 -59t8 -61q0 -25 -7 -49.5t-34.5 -56.5t-73.5 -52v-8q148 -49 148 -201q0 -98 -92.5 -167.5t-245.5 -69.5q-150 0 -242 64.5t-92 172.5q0 35 10.5 70.5t43 73.5
t81.5 57l4 10q-106 44 -106 156q0 38 18 76t53.5 71t95 53.5t134.5 20.5zM1538 227q0 52 -47.5 95.5t-128.5 58.5q-77 -17 -126.5 -60.5t-49.5 -93.5q0 -55 52.5 -82.5t119.5 -27.5q76 0 128 27t52 83zM1358 688q-60 0 -100.5 -24t-40.5 -66q0 -36 45 -69.5t106 -49.5
q57 10 98 46.5t41 72.5q0 90 -149 90z" />
    <glyph glyph-name="seveneighths" horiz-adv-x="1771" 
d="M381 582h-166l393 682h-483v122h663v-90zM444 -57h-155l872 1503h160zM1284 817q70 0 124.5 -14t87.5 -35.5t55 -51.5t30 -59t8 -61q0 -109 -114 -158v-8q147 -48 147 -201q0 -98 -92.5 -167.5t-245.5 -69.5q-150 0 -242 64.5t-92 172.5q0 35 10.5 70.5t43 73.5t81.5 57
l5 10q-107 44 -107 156q0 38 18 76t53.5 71t95 53.5t134.5 20.5zM1464 227q0 52 -47.5 95.5t-128.5 58.5q-77 -17 -126.5 -60.5t-49.5 -93.5q0 -55 52.5 -82.5t119.5 -27.5q76 0 128 27t52 83zM1284 688q-60 0 -100.5 -24t-40.5 -66q0 -36 45 -69.5t106 -49.5
q57 10 98.5 46.5t41.5 72.5q0 45 -39.5 67.5t-110.5 22.5z" />
    <glyph glyph-name="arrowup" unicode="&#x2191;" horiz-adv-x="993" 
d="M571 1176v-1174h-131v1174l-295 -291l-92 94l453 451l455 -451l-93 -94z" />
    <glyph glyph-name="arrowdown" unicode="&#x2193;" horiz-adv-x="993" 
d="M571 1432v-1182l297 299l93 -94l-455 -451l-453 451l92 94l297 -299l-2 1182h131z" />
    <glyph glyph-name="minus" unicode="&#x2212;" 
d="M1030 479h-833v146h833v-146z" />
    <glyph glyph-name="zero.numerator" horiz-adv-x="798" 
d="M401 1397q82 0 146.5 -23t105.5 -61.5t67.5 -93.5t37 -114t10.5 -128q0 -82 -18.5 -150.5t-59 -127.5t-114.5 -92.5t-175 -33.5q-103 0 -176.5 29t-115 84.5t-60 126.5t-18.5 164q0 195 91 307.5t279 112.5zM399 1270q-115 0 -164 -76.5t-49 -216.5q0 -279 213 -279
q99 0 154 70t55 209q0 293 -209 293z" />
    <glyph glyph-name="one.numerator" horiz-adv-x="718" 
d="M662 707v-125h-605v125h222v524l-189 -23v111l213 67h131v-679h228z" />
    <glyph glyph-name="two.numerator" horiz-adv-x="747" 
d="M381 1393q154 0 228.5 -61t74.5 -158q0 -143 -244 -277q-10 -6 -35 -19t-35 -18.5t-30.5 -17t-29.5 -17.5t-25 -16.5t-23 -17.5t-18 -17.5t-16 -19.5t-10 -20t-7 -23h481v-129h-639v65q0 50 13.5 91.5t34.5 73t61 64t79.5 56.5t102.5 59q104 58 139 91q45 42 45 85
q0 46 -36.5 74.5t-102.5 28.5q-71 0 -119.5 -37t-52.5 -119h-119q-6 27 -6 53q0 100 84.5 163t204.5 63z" />
    <glyph glyph-name="three.numerator" horiz-adv-x="737" 
d="M416 1255l-4 11h-344v120h581v-100l-217 -182l4 -12q115 -14 181.5 -73.5t66.5 -164.5q0 -125 -100 -200.5t-250 -75.5q-136 0 -218.5 53.5t-82.5 148.5q0 24 4 49h127q10 -77 53 -103t117 -26q87 0 142.5 38.5t55.5 119.5q0 47 -28.5 78t-70.5 43t-95 12q-47 0 -102 -10
l-50 88z" />
    <glyph glyph-name="four.numerator" horiz-adv-x="792" 
d="M494 1389h127v-494h137v-127h-137v-186h-160v186h-432v98zM236 895h225v260z" />
    <glyph glyph-name="five.numerator" horiz-adv-x="749" 
d="M705 854q0 -128 -92.5 -203.5t-241.5 -75.5q-50 0 -98.5 9t-93.5 28t-74.5 48.5t-43 70.5t1.5 94h127q8 -67 55.5 -97t116.5 -30q85 0 138 38.5t53 121.5q0 75 -55 113.5t-146 38.5q-92 0 -174 -39l-88 51l60 367h514v-123h-383l-25 -148q49 10 98 10q75 0 136.5 -14.5
t111 -46t76.5 -85.5t27 -128z" />
    <glyph glyph-name="six.numerator" horiz-adv-x="759" 
d="M408 1110q141 0 224 -70.5t83 -193.5q0 -119 -88.5 -197t-235.5 -78q-344 0 -344 385q0 58 7.5 111.5t30.5 116t61 107.5t105.5 75.5t156.5 30.5q110 0 192 -48t82 -139q0 -11 -4 -39h-123q-7 49 -51 76t-107 27q-97 0 -149.5 -68.5t-57.5 -179.5l9 -2q96 86 209 86z
M393 690q89 0 131.5 44.5t42.5 105.5q0 70 -45 109.5t-125 39.5q-74 0 -123 -41t-49 -108q0 -64 42 -107t126 -43z" />
    <glyph glyph-name="seven.numerator" horiz-adv-x="700" 
d="M274 582h-165l393 682h-484v122h664v-90z" />
    <glyph glyph-name="eight.numerator" horiz-adv-x="741" 
d="M369 1399q70 0 124.5 -14t87.5 -35.5t55 -51.5t30 -59t8 -61q0 -25 -7 -49.5t-34.5 -56.5t-73.5 -52v-8q148 -49 148 -201q0 -98 -92.5 -168t-245.5 -70q-150 0 -242 65t-92 173q0 35 10.5 70.5t43 73.5t81.5 57l4 10q-106 44 -106 156q0 38 18 76t53.5 71t95 53.5
t134.5 20.5zM549 809q0 52 -47.5 95.5t-128.5 58.5q-77 -17 -126.5 -60.5t-49.5 -93.5q0 -55 53 -83t119 -28q75 0 127.5 27.5t52.5 83.5zM369 1270q-60 0 -101 -24t-41 -66q0 -36 45.5 -69.5t106.5 -49.5q57 10 98 46.5t41 72.5q0 90 -149 90z" />
    <glyph glyph-name="nine.numerator" horiz-adv-x="749" 
d="M352 1397q164 0 254 -102.5t90 -295.5q0 -426 -366 -426q-124 0 -206.5 53.5t-82.5 129.5q0 21 6 37h123q9 -47 52 -74t108 -27q106 0 161 68t60 176l-8 4q-69 -82 -203 -82q-141 0 -224 69.5t-83 198.5q0 115 86.5 193t232.5 78zM348 1274q-87 0 -128.5 -45t-41.5 -109
q0 -67 44 -105t126 -38q77 0 122.5 39t45.5 106q0 63 -42.5 107.5t-125.5 44.5z" />
    <glyph glyph-name="parenleft.numerator" horiz-adv-x="428" 
d="M197 958q0 -228 204 -446l-92 -80q-116 110 -190 246t-74 274q0 141 74 279t190 250l97 -78q-94 -104 -151.5 -219.5t-57.5 -225.5z" />
    <glyph glyph-name="parenright.numerator" horiz-adv-x="428" 
d="M238 958q0 110 -57 226t-152 219l96 78q116 -113 190 -251t74 -278q0 -132 -75 -266t-193 -244l-90 70q207 221 207 446z" />
    <glyph glyph-name="comma.numerator" horiz-adv-x="333" 
d="M70 653q0 43 30.5 74t73.5 31q45 0 75 -29t30 -72q0 -29 -15 -59l-129 -248l-57 21l63 186q-32 7 -51.5 34t-19.5 62z" />
    <glyph glyph-name="period.numerator" horiz-adv-x="333" 
d="M66 659q0 43 30 74t72 31q43 0 73.5 -31t30.5 -74t-30.5 -72.5t-73.5 -29.5t-72.5 29.5t-29.5 72.5z" />
    <glyph glyph-name="zero.denominator" horiz-adv-x="798" 
d="M401 815q82 0 146.5 -23t105.5 -61.5t67.5 -93.5t37 -114t10.5 -128q0 -82 -18.5 -150.5t-59 -127t-114.5 -92t-175 -33.5q-103 0 -176.5 29t-115 84t-60 126t-18.5 164q0 195 91 307.5t279 112.5zM399 688q-115 0 -164 -76.5t-49 -216.5q0 -278 213 -278q99 0 154 69.5
t55 208.5q0 293 -209 293z" />
    <glyph glyph-name="one.denominator" horiz-adv-x="718" 
d="M662 125v-125h-605v125h222v524l-189 -22v110l213 68h131v-680h228z" />
    <glyph glyph-name="two.denominator" horiz-adv-x="747" 
d="M391 811q154 0 228.5 -61t74.5 -158q0 -45 -21.5 -86.5t-59.5 -77t-76 -61.5t-86 -52q-11 -6 -39.5 -21t-38 -20.5t-33 -18.5t-32 -19.5t-25.5 -18.5t-24 -20.5t-16.5 -20t-14.5 -23t-7 -24.5h481v-129h-639v66q0 50 13.5 91.5t34.5 73t61 64t79.5 56.5t102.5 59
q103 57 138 89q46 44 47 87q0 45 -37 73.5t-103 28.5q-71 0 -119.5 -37t-52.5 -119h-118q-7 32 -7 54q0 100 84 162.5t205 62.5z" />
    <glyph glyph-name="three.denominator" horiz-adv-x="737" 
d="M416 670l-4 10h-344v121h581v-101l-217 -182l4 -12q115 -14 181.5 -73.5t66.5 -164.5q0 -125 -100 -200.5t-250 -75.5q-136 0 -218.5 54t-82.5 149q0 24 4 49h127q10 -77 53 -103t117 -26q87 0 142.5 38t55.5 119q0 69 -55.5 101.5t-138.5 32.5q-42 0 -102 -11l-50 88z
" />
    <glyph glyph-name="four.denominator" horiz-adv-x="792" 
d="M494 807h127v-494h137v-127h-137v-186h-160v186h-432v99zM236 313h225v260z" />
    <glyph glyph-name="five.denominator" horiz-adv-x="749" 
d="M700 270q0 -128 -92 -203t-241 -75q-50 0 -98.5 9t-93.5 28t-74.5 48.5t-43 70.5t1.5 94h127q8 -67 55.5 -97t116.5 -30q85 0 138 38t53 121q0 75 -55 113.5t-146 38.5q-92 0 -174 -39l-88 51l59 367h514v-123h-383l-24 -147q49 10 98 10q75 0 136.5 -15t110.5 -46
t76 -85.5t27 -128.5z" />
    <glyph glyph-name="six.denominator" horiz-adv-x="759" 
d="M408 528q141 0 224 -70.5t83 -193.5q0 -118 -88.5 -196t-235.5 -78q-344 0 -344 385q0 40 3.5 78t14 83t26.5 83.5t44.5 75.5t65 63t90 41.5t117.5 15.5q110 0 192 -47.5t82 -138.5q0 -11 -4 -39h-123q-7 49 -51 75.5t-107 26.5q-97 0 -149.5 -68.5t-57.5 -179.5l9 -2
q96 86 209 86zM393 109q89 0 131.5 44t42.5 105q0 70 -45 110t-125 40q-74 0 -123 -41t-49 -109q0 -64 42 -106.5t126 -42.5z" />
    <glyph glyph-name="seven.denominator" horiz-adv-x="700" 
d="M276 0h-165l393 682h-484v123h664v-90z" />
    <glyph glyph-name="eight.denominator" horiz-adv-x="741" 
d="M373 817q70 0 124.5 -14t87.5 -35.5t55 -51.5t30 -59t8 -61q0 -25 -7 -49.5t-34.5 -56.5t-73.5 -52v-8q148 -49 148 -201q0 -98 -92.5 -167.5t-245.5 -69.5q-150 0 -242 64.5t-92 172.5q0 35 10.5 70.5t43 73.5t81.5 57l4 10q-106 44 -106 156q0 38 18 76t53.5 71
t95 53.5t134.5 20.5zM553 227q0 52 -47.5 95.5t-128.5 58.5q-77 -17 -126.5 -60.5t-49.5 -93.5q0 -55 52.5 -82.5t119.5 -27.5q76 0 128 27t52 83zM373 688q-60 0 -101 -24t-41 -66q0 -36 45.5 -69.5t106.5 -49.5q57 10 98 46.5t41 72.5q0 90 -149 90z" />
    <glyph glyph-name="nine.denominator" horiz-adv-x="749" 
d="M354 817q164 0 254 -102t90 -295q0 -426 -366 -426q-124 0 -206.5 53t-82.5 129q0 21 6 37h123q9 -47 52 -73.5t108 -26.5q106 0 161 67.5t60 175.5l-8 4q-68 -81 -203 -81q-141 0 -224 69.5t-83 198.5q0 114 86.5 192t232.5 78zM350 694q-87 0 -128.5 -44.5
t-41.5 -108.5q0 -67 44 -105.5t126 -38.5q77 0 122.5 39.5t45.5 106.5q0 63 -42.5 107t-125.5 44z" />
    <glyph glyph-name="parenleft.denominator" horiz-adv-x="428" 
d="M197 377q0 -229 204 -447l-92 -80q-116 110 -190 246.5t-74 274.5q0 141 73.5 278.5t190.5 249.5l97 -78q-94 -104 -151.5 -219t-57.5 -225z" />
    <glyph glyph-name="parenright.denominator" horiz-adv-x="428" 
d="M238 377q0 110 -57 225.5t-152 218.5l96 78q116 -113 190 -250.5t74 -277.5q0 -132 -75 -266t-193 -244l-90 69q207 221 207 447z" />
    <glyph glyph-name="comma.denominator" horiz-adv-x="333" 
d="M68 70q0 43 30.5 73.5t73.5 30.5q45 0 74.5 -28.5t29.5 -71.5q0 -32 -14 -60l-129 -247l-57 20l63 186q-32 7 -51.5 34t-19.5 63z" />
    <glyph glyph-name="period.denominator" horiz-adv-x="333" 
d="M63 88q0 43 30 74t73 31t73.5 -31t30.5 -74t-30.5 -72.5t-73.5 -29.5t-73 29.5t-30 72.5z" />
    </font>
</defs>
</svg>
