<?xml version="1.0" standalone="no"?>
<!DOCTYPE svg PUBLIC "-//W3C//DTD SVG 1.1//EN" "http://www.w3.org/Graphics/SVG/1.1/DTD/svg11.dtd" >
<svg xmlns="http://www.w3.org/2000/svg" xmlns:xlink="http://www.w3.org/1999/xlink" version="1.1">
<metadata>
Created by FontForge 20170731 at Mon Feb 15 11:08:50 2021
 By Aleksey,,,
Copyright (c) 2010 Parachute :, www.parachute.gr.  All rights reserved.
</metadata>
<defs>
<font id="PFRegalDisplayPro-UBlack" horiz-adv-x="655" >
  <font-face 
    font-family="PF Regal Display Pro UBlack"
    font-weight="1000"
    font-stretch="normal"
    units-per-em="1000"
    panose-1="2 0 5 5 0 0 0 2 0 4"
    ascent="800"
    descent="-200"
    x-height="435"
    cap-height="674"
    bbox="-273 -299 1319 940"
    underline-thickness="60"
    underline-position="-280"
    unicode-range="U+0020-2122"
  />
<missing-glyph horiz-adv-x="432" 
d="M2 0v700h429v-700h-429zM111 75h210l-105 200zM216 425l105 200h-211zM73 539v-377l101 188zM260 350l98 -188v378z" />
    <glyph glyph-name="f_t" unicode="ft" horiz-adv-x="739" 
d="M69 416h-55v18q36 2 56 4q0 112 81 205.5t205 93.5q54 0 94 -31t40 -85q0 -38 -24 -63t-62 -25q-45 0 -68 30.5t-23 76.5q0 42 19 77q-25 -5 -35.5 -35t-10.5 -92v-155h124q153 52 199 217h17v-216h100v-20h-99v-296q0 -70 49 -70q24 0 55 16l5 -16q-84 -65 -191 -65
q-76 0 -106.5 38.5t-30.5 109.5v283h-121v-324q0 -28 8.5 -44.5t19 -20.5t19 -9t8.5 -12v-6h-329v6q0 7 8.5 12t19.5 9.5t19.5 20.5t8.5 44v324z" />
    <glyph glyph-name="f_f_t" unicode="fft" horiz-adv-x="1062" 
d="M69 92v324h-55v18l56 3q0 121 83.5 202t229.5 81q34 0 69.5 -13t57.5 -35q79 71 180 71q54 0 93.5 -30.5t39.5 -85.5q0 -38 -24 -63t-61 -25q-46 0 -69 29t-23 74q0 43 20 81q-48 -10 -48 -127v-161h112q77 26 128 82.5t74 134.5h17v-216h99v-20h-99v-296q0 -70 49 -70
q23 0 56 16l4 -16q-83 -65 -190 -65q-76 0 -106.5 38.5t-30.5 109.5v283h-112v-324q0 -28 8.5 -44t19.5 -20.5t19.5 -9.5t8.5 -12v-6h-321v6q0 7 7.5 12t17 9t17 20.5t7.5 44.5v324h-117v-324q0 -28 7.5 -45t16.5 -21t16.5 -8.5t7.5 -11.5v-6h-321v6q0 7 8.5 12t19.5 9.5
t19.5 20.5t8.5 44zM286 555v-119h117q0 48 15 93q-63 24 -63 100q0 35 15 72q-42 -2 -63 -35t-21 -111z" />
    <glyph glyph-name="fj" unicode="fj" horiz-adv-x="667" 
d="M617 83q0 -78 -30 -147.5t-97 -111.5q-43 -26 -80.5 -38.5t-93.5 -12.5q-60 0 -100 23.5t-40 69.5q0 33 23.5 58.5t59.5 25.5q50 0 77.5 -42.5t22.5 -108.5q25 10 32.5 34t7.5 64v453q0 66 -62 66h-51q0 -53 0.5 -161.5t0.5 -162.5q0 -30 7 -46.5t16 -19t16 -7t7 -13.5
v-6h-320v6q0 9 8.5 13.5t19.5 7.5t19.5 19t8.5 46v324h-54v18l56 3q0 125 83.5 213t240.5 88q70 0 118.5 -32.5t48.5 -92.5q0 -39 -26.5 -67.5t-68.5 -28.5q-52 0 -78.5 33t-26.5 85q0 40 19 81q-47 -4 -71 -36t-24 -107v-137h25q51 0 158.5 7t141.5 13l6 -7v-366z" />
    <glyph glyph-name="ffj" unicode="ffj" horiz-adv-x="1023" 
d="M287 554v-118h117q0 58 13 93q-62 25 -62 103q0 35 15 68q-42 -5 -62.5 -36.5t-20.5 -109.5zM621 416v-324q0 -24 5 -39.5t12 -21t14 -8t12 -6t5 -11.5v-6h-315v6q0 8 5 11.5t12.5 6t15 8t12.5 21t5 39.5v324h-116v-324q0 -24 5 -39.5t12 -21t14 -8t12 -6t5 -11.5v-6
h-323v6q0 7 8.5 12t19.5 9.5t19.5 20.5t8.5 44v324h-55v18l56 3q0 121 83.5 202t229.5 81q84 0 129 -49q87 67 219 67q71 0 119 -31.5t48 -91.5q0 -41 -26 -69t-68 -28q-50 0 -77.5 32.5t-27.5 82.5q0 43 17 83q-47 -4 -71 -36t-24 -107v-137h25q51 0 158.5 7t141.5 13l6 -7
v-366q0 -78 -30 -147.5t-97 -111.5q-43 -26 -80.5 -38.5t-93.5 -12.5q-60 0 -100 23.5t-40 69.5q0 33 23.5 58.5t59.5 25.5q50 0 77.5 -42.5t22.5 -108.5q25 10 32.5 34t7.5 64v453q0 66 -62 66h-51z" />
    <glyph glyph-name="fb" unicode="fb" horiz-adv-x="981" 
d="M618 760v-224q0 -114 -31 -171q1 0 2.5 -0.5t2.5 -0.5q25 50 68.5 72t90.5 22q80 0 140.5 -61t60.5 -173q0 -95 -56.5 -166.5t-154.5 -71.5q-111 0 -149 70q-99 -23 -173 -83h-19v681q0 62 -41 62q-73 0 -73 -141v-139h75v-20h-75v-324q0 -30 7.5 -46.5t16 -19t16 -7
t7.5 -13.5v-6h-318v6q0 9 8.5 13.5t18.5 7.5t18.5 19t8.5 46v324h-55v18l56 3q0 125 84.5 213t241.5 88q10 0 30 -2l188 28zM657 396q-31 0 -51 -41v-289q7 -13 21 -23.5t30 -10.5q32 0 45.5 40t13.5 145q0 92 -12.5 135.5t-46.5 43.5z" />
    <glyph glyph-name="ffb" unicode="ffb" horiz-adv-x="1315" 
d="M953 758q1 -42 0 -119.5t-1 -102.5q0 -112 -32 -171q1 0 2.5 -0.5t2.5 -0.5q17 35 46.5 57t57 29.5t56.5 7.5q80 0 140 -61t60 -173q0 -95 -56.5 -166.5t-154.5 -71.5q-111 0 -148 70q-100 -23 -174 -83h-19v673q0 71 -40 71q-74 0 -74 -141v-140h79v-20h-79v-324
q0 -30 7.5 -46.5t16.5 -19t16.5 -7t7.5 -13.5v-6h-314v6q0 8 5 11.5t12.5 6t14.5 8t12 21t5 39.5v324h-116v-324q0 -24 5 -39.5t12 -21t14 -8t12 -6t5 -11.5v-6h-321v6q0 7 8.5 12t19.5 9.5t19.5 20.5t8.5 44v324h-55v18l56 3q0 121 83 202t227 81q37 0 73 -13.5t58 -36.5
q81 67 213 67q23 0 35 -1l188 28zM286 555v-119h116q0 49 15 93q-60 24 -60 99q0 37 13 73q-42 -2 -63 -35t-21 -111zM991 396q-31 0 -52 -41v-289q7 -13 21.5 -23.5t30.5 -10.5q32 0 45.5 40t13.5 145q0 92 -12.5 135.5t-46.5 43.5z" />
    <glyph glyph-name="fh" unicode="fh" horiz-adv-x="997" 
d="M614 342v-250q0 -28 6 -44.5t13 -20.5t13 -9t6 -12v-6h-301v6q0 7 7.5 11.5t17 8.5t17 20.5t7.5 45.5v537q0 48 -9 67.5t-32 19.5q-40 0 -56.5 -40.5t-16.5 -123.5v-116h75v-20h-75v-324q0 -29 7 -46t15.5 -20.5t15.5 -8t7 -11.5v-6h-316v6q0 7 8 12t18 9t18.5 20.5
t9.5 44.5v324h-55v18l56 3q0 125 84.5 213t241.5 88q10 0 30 -2l188 28q1 -3 4 -4v-263q0 -83 -21 -143h4q58 103 184 103q64 0 106 -34t42 -107v-230q0 -26 7.5 -41t17 -19t17 -8t7.5 -11v-7h-308v8q0 5 6.5 9t14 7.5t14 17.5t6.5 37v263q0 53 -35 53q-37 0 -66 -53z" />
    <glyph glyph-name="ffh" unicode="ffh" horiz-adv-x="1331" 
d="M716 738q13 0 43 -3l188 28q1 -3 4 -4v-263q0 -83 -21 -143h4q58 103 184 103q64 0 106 -34t42 -107v-229q0 -26 7.5 -41t17 -19t17 -8t7.5 -11v-7h-308v8q0 5 6.5 9t14 7.5t14 17.5t6.5 37v262q0 53 -35 53q-37 0 -66 -53v-249q0 -28 6 -44.5t13 -20.5t13 -9t6 -12v-6
h-301v6q0 7 7.5 11.5t17 8.5t17 20.5t7.5 45.5v536q0 48 -9 67.5t-32 19.5q-73 0 -73 -139v-140h79v-20h-79v-324q0 -29 7.5 -45.5t16.5 -20t16.5 -8.5t7.5 -12v-6h-313v6q0 7 7.5 11.5t16.5 8.5t16.5 21t7.5 45v324h-116v-324q0 -28 7.5 -45t16.5 -21t16.5 -8.5t7.5 -11.5
v-6h-321v6q0 7 8.5 12t19.5 9.5t19.5 20.5t8.5 44v324h-55v18l56 3q0 121 83 202t227 81q37 0 73 -13.5t58 -36.5q87 68 205 68zM286 555v-119h116q0 49 15 93q-60 25 -60 103q0 33 13 69q-42 -2 -63 -35t-21 -111z" />
    <glyph glyph-name="fk" unicode="fk" horiz-adv-x="983" 
d="M618 760v-544h26q17 17 52 51.5t51 51.5l24 25q17 18 17 30q0 13 -15 21.5t-32.5 11t-32.5 7.5t-15 12v10h261v-7q0 -10 -21 -14t-59 -18t-69 -45l-24 -24l98 -199q21 -43 42.5 -68t34.5 -30.5t21 -10.5t8 -13v-7h-263q-32 80 -90 197h-14v-109q0 -27 6.5 -42.5t15 -19
t15 -8t6.5 -11.5v-7h-317v6q0 7 9 12t19 9.5t19 20.5t9 44v537q0 48 -9 67.5t-32 19.5q-73 0 -73 -141v-139h75v-20h-75v-324q0 -28 7 -44.5t15 -20.5t15 -9t7 -12v-6h-315v6q0 7 8.5 12t18.5 9t18.5 20.5t8.5 44.5v324h-55v18l56 3q0 125 84.5 213t241.5 88q10 0 30 -2
l188 28z" />
    <glyph glyph-name="ffk" unicode="ffk" horiz-adv-x="1315" 
d="M721 737q29 0 39 -1l188 28l4 -4v-544h26q17 17 52 51.5t51 51.5l24 25q17 18 17 30q0 13 -15 21.5t-32.5 11t-32.5 7.5t-15 12v10h261v-7q0 -10 -21 -14t-59 -18t-69 -45l-24 -24l98 -199q21 -43 42.5 -68t34.5 -30.5t21 -10.5t8 -13v-7h-263q-32 80 -90 197h-14v-109
q0 -27 6.5 -42.5t15 -19t15 -8t6.5 -11.5v-7h-317v6q0 7 9 12t19 9.5t19 20.5t9 44v537q0 48 -9.5 68t-31.5 20q-74 0 -74 -141v-140h79v-20h-79v-324q0 -29 7.5 -45.5t16.5 -20t16.5 -8.5t7.5 -12v-6h-314v6q0 7 7.5 12t17 9t17 20.5t7.5 44.5v324h-116v-324q0 -28 7.5 -45
t16.5 -21t16.5 -8.5t7.5 -11.5v-6h-321v6q0 7 8.5 12t19.5 9.5t19.5 20.5t8.5 44v324h-55v18l56 3q0 121 83 202t227 81q37 0 73 -13.5t58 -36.5q81 67 210 67zM286 555v-119h116q0 49 15 93q-60 24 -60 101q0 36 13 71q-42 -2 -63 -35t-21 -111z" />
    <glyph glyph-name="f_y" unicode="fy" horiz-adv-x="917" 
d="M431 -227q-47 0 -78 26.5t-31 68.5q0 38 25.5 63.5t62.5 25.5q49 0 76.5 -34t32.5 -77q15 13 39.5 53.5t40.5 79.5l7 18l-17 1l-183 342q-28 51 -42.5 63.5t-44.5 12.5h-32v-324q0 -28 8.5 -44.5t19 -20.5t19 -9t8.5 -12v-6h-329v6q0 7 8.5 12t19.5 9.5t19.5 20.5t8.5 44
v324h-55v18q36 2 56 4q0 112 81 205.5t205 93.5q54 0 94 -31t40 -85q0 -38 -24 -63t-62 -25q-45 0 -68 30.5t-23 76.5q0 42 19 77q-19 -4 -32.5 -26.5t-13.5 -59.5v-196h399v-9q0 -8 -28.5 -16.5t-28.5 -29.5q-1 -14 14 -43l72 -130l63 138q8 17 8 30q0 15 -9.5 23.5
t-21 10.5t-21 6t-9.5 11v9h187v-8q0 -7 -12 -11.5t-29 -8.5t-39 -24.5t-39 -55.5l-182 -377q-86 -177 -179 -177z" />
    <glyph glyph-name="f_f_y" unicode="ffy" horiz-adv-x="1249" 
d="M286 555v-119h117q0 46 15 93q-59 22 -59 98q0 41 11 74q-42 -2 -63 -35t-21 -111zM619 416v-324q0 -28 8.5 -44t19.5 -20.5t19.5 -9.5t8.5 -12v-6h-321v6q0 7 7.5 12t17 9t17 20.5t7.5 44.5v324h-117v-324q0 -28 7.5 -45t16.5 -21t16.5 -8.5t7.5 -11.5v-6h-321v6
q0 7 8.5 12t19.5 9.5t19.5 20.5t8.5 44v324h-55v18l56 3q0 121 83.5 202t229.5 81q34 0 69.5 -13t57.5 -35q79 71 180 71q54 0 93.5 -30.5t39.5 -85.5q0 -39 -24.5 -63.5t-60.5 -24.5q-45 0 -68 30.5t-23 76.5q0 42 19 77q-48 -10 -48 -127v-161h399v-9q0 -8 -28.5 -16.5
t-28.5 -29.5q-1 -14 14 -43l72 -130l63 138q8 17 8 30q0 15 -9.5 23.5t-21 10.5t-21 6t-9.5 11v9h187v-8q0 -7 -12 -11.5t-29 -8.5t-39 -24.5t-39 -55.5l-182 -377q-86 -177 -179 -177q-47 0 -78 26.5t-31 68.5q0 38 25.5 63.5t62.5 25.5q49 0 76.5 -34t32.5 -77
q15 13 39.5 53.5t40.5 79.5l7 18l-17 1l-183 342q-28 51 -42.5 63.5t-44.5 12.5h-32z" />
    <glyph glyph-name="k_y" unicode="ky" horiz-adv-x="1169" 
d="M838 7l-176 325q-44 81 -84 81q-44 0 -99 -52l-32 -30l95 -202q20 -42 41 -67.5t34 -31t22 -10.5t9 -13v-7h-261l-89 197h-14v-109q0 -27 7 -42.5t15 -19t15 -8t7 -11.5v-7h-318v6q0 7 9 12t19 9.5t19 20.5t9 44v522q0 33 -14.5 46.5t-29 16.5t-14.5 11v7q180 26 270 38
l6 -6v-511h21l137 136q16 15 16 29q-1 13 -19 20t-35 12t-17 13v9h549v-9q0 -8 -14 -11.5t-28.5 -11.5t-14.5 -26q0 -14 14 -40l68 -127h3l49 100q18 37 18 60q0 19 -9.5 29t-21 11.5t-21 5t-9.5 10.5v9h198v-8q0 -7 -12.5 -11.5t-31 -10.5t-44 -32t-46.5 -69l-173 -357
q-42 -85 -83.5 -131.5t-102.5 -46.5q-49 0 -77.5 27.5t-28.5 69.5q0 36 25.5 61.5t64.5 25.5q49 0 78.5 -32t34.5 -75q30 28 75 120l19 41h-28z" />
    <glyph glyph-name="t_y" unicode="ty" horiz-adv-x="899" 
d="M278 416l-1 -296q0 -71 51 -71q24 0 54 17l5 -16q-84 -65 -190 -65q-77 0 -107 38t-30 110v283h-51v17l55 6q150 50 196 213h17v-217h399v-9q0 -8 -28.5 -16.5t-28.5 -29.5q-1 -14 14 -43l72 -130l63 138q8 17 8 30q0 19 -15 27t-30.5 11.5t-15.5 12.5v9h187v-8
q0 -7 -12 -11.5t-29 -8.5t-39 -24.5t-39 -55.5l-182 -377q-86 -177 -179 -177q-47 0 -78 26.5t-31 68.5q0 38 25.5 63.5t62.5 25.5q49 0 76.5 -34t32.5 -77q15 13 39.5 53.5t40.5 79.5l7 18l-17 1l-183 342q-28 51 -42.5 63.5t-44.5 12.5h-32z" />
    <glyph glyph-name="t_w" unicode="tw" horiz-adv-x="1143" 
d="M277 436h369v-8q0 -7 -11 -10.5t-22 -11t-11 -23.5q0 -22 11 -45l47 -102h4l42 104q12 28 12 47q0 20 -23.5 26.5t-23.5 16.5v6h254v-8q0 -6 -5.5 -9.5t-12 -5.5t-12 -8.5t-5.5 -17.5q0 -15 13 -45l48 -107h4l35 83q15 36 15 58q0 15 -9 23.5t-19.5 10.5t-19.5 6t-9 10
v10h190v-8q0 -7 -13.5 -12.5t-32 -11.5t-43 -31.5t-42.5 -67.5l-143 -322l-20 -2q-87 184 -136 302h-2l-134 -300l-21 -2l-176 382q-15 32 -31 42.5t-49 10.5h-18v-296q0 -71 51 -71q24 0 54 17l5 -16q-84 -65 -190 -65q-77 0 -107 38t-30 110v283h-51v17l55 6
q150 50 196 213h17v-216z" />
    <glyph glyph-name="ff" unicode="ff" horiz-adv-x="716" 
d="M69 92v324h-55v18l56 3q0 121 83.5 202t229.5 81q34 0 69.5 -13t57.5 -35q79 71 180 71q54 0 93.5 -30.5t39.5 -85.5q0 -38 -23.5 -63t-60.5 -25q-48 0 -70.5 29.5t-22.5 74.5q0 40 20 80q-48 -10 -48 -127v-160h98v-20h-97v-324q0 -28 8.5 -44t19.5 -20.5t19.5 -9.5
t8.5 -12v-6h-321v6q0 7 7.5 12t17 9t17 20.5t7.5 44.5v324h-117v-324q0 -28 7.5 -45t16.5 -21t16.5 -8.5t7.5 -11.5v-6h-321v6q0 7 8.5 12t19.5 9.5t19.5 20.5t8.5 44zM286 555v-119h117q0 48 15 93q-62 24 -62 101q0 31 14 71q-42 -2 -63 -35t-21 -111z" />
    <glyph glyph-name="f_i" unicode="fi" horiz-adv-x="689" 
d="M69 92v324h-55v18l56 3q0 125 83.5 213t240.5 88q71 0 119 -31.5t48 -91.5q0 -41 -25 -68.5t-67 -27.5q-50 0 -77.5 32.5t-27.5 82.5q0 46 16 82q-47 -4 -70.5 -36t-23.5 -107v-137h25q51 0 159 7t142 13l6 -7v-357q0 -28 9 -44t19 -20.5t19 -9.5t9 -12v-6h-322v6
q0 7 7.5 11.5t16.5 8.5t16.5 21t7.5 45v258q0 66 -64 66h-50q0 -53 0.5 -161.5t0.5 -162.5q0 -28 7 -44.5t16 -20.5t16 -9t7 -12v-6h-320v6q0 7 8.5 12t19.5 9.5t19.5 20.5t8.5 44z" />
    <glyph glyph-name="f_l" unicode="fl" horiz-adv-x="685" 
d="M400 654q0 62 -41 62q-40 0 -56.5 -40.5t-16.5 -123.5v-116h75v-20h-75v-324q0 -28 7.5 -44.5t16 -20.5t16 -9t7.5 -12v-6h-318v6q0 7 8.5 12t18.5 9t18.5 20.5t8.5 44.5v324h-55v18l56 3q0 125 84.5 213t241.5 88q10 0 30 -2l188 28q1 -3 4 -4v-668q0 -28 8.5 -44.5
t18.5 -20.5t18.5 -9t8.5 -12v-6h-318v6q0 7 7 12t16 9t16 20.5t7 44.5v562z" />
    <glyph glyph-name="ffi" unicode="ffi" horiz-adv-x="1023" 
d="M404 92v324h-116v-324q0 -28 7.5 -45t16.5 -21t16.5 -8.5t7.5 -11.5v-6h-323v6q0 7 8.5 12t19.5 9.5t19.5 20.5t8.5 44v324h-55v18l56 3q0 121 83.5 202t229.5 81q84 0 129 -49q87 67 219 67q71 0 119 -31.5t48 -91.5q0 -41 -25 -68.5t-67 -27.5q-52 0 -79.5 33.5
t-27.5 85.5q0 38 17 78q-47 -4 -71 -36t-24 -107v-137h25q51 0 159 7t143 13l6 -6v-358q0 -28 8.5 -44.5t19 -20.5t19 -9t8.5 -12v-6h-321v6q0 7 7.5 11.5t16 8.5t16 21t7.5 45v258q0 66 -63 66h-51v-324q0 -28 7.5 -45t16.5 -21t16.5 -8.5t7.5 -11.5v-6h-315v6q0 7 8 12
t17 9t17 20.5t8 44.5zM287 554v-118h117q0 58 13 93q-62 25 -62 103q0 35 15 68q-42 -5 -62.5 -36.5t-20.5 -109.5z" />
    <glyph glyph-name="ffl" unicode="ffl" horiz-adv-x="1019" 
d="M733 646q0 71 -40 71q-74 0 -74 -141v-140h79v-20h-79v-324q0 -29 7.5 -45.5t16.5 -20t16.5 -8.5t7.5 -12v-6h-314v6q0 7 7.5 12t17 9t17 20.5t7.5 44.5v324h-116v-324q0 -28 7.5 -45t16.5 -21t16.5 -8.5t7.5 -11.5v-6h-321v6q0 7 8.5 12t19.5 9.5t19.5 20.5t8.5 44v324
h-55v18l56 3q0 121 83 202t227 81q37 0 73 -13.5t58 -36.5q87 68 205 68q13 0 43 -2l188 28l6 -6v-666q0 -28 8.5 -44.5t18 -20.5t18 -9t8.5 -12v-6h-321v6q0 7 7.5 12t16.5 8.5t16.5 20t7.5 45.5v554zM286 555v-119h116q0 49 15 93q-61 24 -61 101q0 31 14 71
q-42 -2 -63 -35t-21 -111z" />
    <glyph glyph-name=".notdef" horiz-adv-x="432" 
d="M2 0v700h429v-700h-429zM111 75h210l-105 200zM216 425l105 200h-211zM73 539v-377l101 188zM260 350l98 -188v378z" />
    <glyph glyph-name=".null" horiz-adv-x="0" 
 />
    <glyph glyph-name="nonmarkingreturn" horiz-adv-x="333" 
 />
    <glyph glyph-name="space" unicode=" " horiz-adv-x="264" 
 />
    <glyph glyph-name="exclam" unicode="!" horiz-adv-x="396" 
d="M212 216h-23l-114 349q-18 52 16 104t108 52q77 0 108.5 -51.5t12.5 -108.5zM103 81q0 40 28.5 68.5t67.5 28.5q40 0 68.5 -28.5t28.5 -68.5t-28.5 -68.5t-68.5 -28.5q-39 0 -67.5 28.5t-28.5 68.5z" />
    <glyph glyph-name="quotedbl" unicode="&#x22;" horiz-adv-x="406" 
d="M132 395h-19l-63 231q-8 33 11 60.5t60 27.5q42 0 59.5 -27.5t8.5 -63.5zM296 395h-18l-62 231q-9 33 9.5 60.5t60.5 27.5q43 0 60.5 -27.5t7.5 -63.5z" />
    <glyph glyph-name="numbersign" unicode="#" 
d="M342 30l30 184h-140l-31 -184h-47l32 184h-87v47h94l24 146h-90v46h98l28 173h46l-28 -173h140l29 173h47l-30 -173h88v-46h-96l-24 -146h93v-47h-100l-31 -184h-45zM263 407l-24 -146h140l24 146h-140z" />
    <glyph glyph-name="dollar" unicode="$" 
d="M342 -92v836h19v-70q116 -5 167.5 -45.5t51.5 -93.5q0 -38 -24 -61t-59 -23q-42 0 -66.5 30.5t-24.5 79.5t15 87q-24 5 -60 7v-196q38 -19 49.5 -25t47 -26t49.5 -31.5t39.5 -34t36 -41.5t20 -46t9.5 -55q0 -84 -65.5 -142.5t-185.5 -67.5v-82h-19zM416 101q0 44 -55 85
v-169q55 19 55 84zM294 744v-836h-19v81q-123 7 -181.5 59t-58.5 114q0 40 25 64.5t60 24.5q48 0 71.5 -35t23.5 -86q0 -64 -30 -105q31 -16 90 -18v226q-39 20 -54 28t-49.5 28.5t-50.5 36t-36.5 38.5t-29 48.5t-8.5 54.5q0 89 64 142t164 63v72h19zM222 577q0 -38 53 -74
v144q-53 -18 -53 -70z" />
    <glyph glyph-name="percent" unicode="%" horiz-adv-x="855" 
d="M602 720l-335 -759h-22l336 759h21zM20 498q0 86 52.5 144t144.5 58q100 0 149 -60t49 -142t-51 -144.5t-148 -62.5q-96 0 -146 60.5t-50 146.5zM180 494q0 -108 7.5 -147.5t30.5 -39.5t30.5 41t7.5 146q0 106 -7.5 148.5t-31.5 42.5q-22 0 -29.5 -47.5t-7.5 -143.5z
M439 198q0 86 52.5 144t144.5 58q100 0 149 -60t49 -142t-51 -144.5t-148 -62.5q-96 0 -146 60.5t-50 146.5zM599 194q0 -108 7.5 -147.5t30.5 -39.5t30.5 41t7.5 146q0 106 -7.5 148.5t-31.5 42.5q-22 0 -29.5 -47.5t-7.5 -143.5z" />
    <glyph glyph-name="ampersand" unicode="&#x26;" horiz-adv-x="901" 
d="M439 -35q-186 0 -289 65t-103 164q0 29 7.5 56.5t29.5 57.5t56.5 52.5t93 38t134.5 17.5v4q-266 0 -266 141q0 70 77.5 115t208.5 45q118 0 175 -41t57 -94q0 -39 -24 -62t-60 -23q-46 0 -68 35t-22 84q0 35 15 73q-13 3 -34 3q-51 -1 -73 -40t-22 -91q0 -41 12 -69
t34 -41t39.5 -18.5t41.5 -7.5l-1 -21q-68 -9 -109 -63.5t-41 -146.5q0 -100 34 -155t121 -55q134 0 213.5 72t79.5 176q0 61 -36.5 100t-103.5 39q-66 0 -100 -24.5t-34 -62.5q0 -35 26.5 -58t76.5 -23q-5 13 -5 32q0 27 13.5 45t38.5 18q19 0 30.5 -13t11.5 -32
q0 -33 -25 -50.5t-61 -17.5q-59 0 -92.5 28t-33.5 76q0 52 28 88t69.5 52t90.5 28.5t90.5 19t69.5 21.5t28 38q0 21 -19 32t-45 11q-18 0 -30 -5q7 -17 7 -32q0 -23 -13.5 -40t-37.5 -17q-15 0 -26 10.5t-11 28.5q0 33 35 53t72 20q50 0 76 -22t26 -56q0 -16 -5.5 -32.5
t-20 -37.5t-47 -40t-80.5 -32q56 -57 56 -142q0 -49 -18.5 -95.5t-56.5 -87.5t-105.5 -66t-155.5 -25z" />
    <glyph glyph-name="quotesingle" unicode="'" horiz-adv-x="258" 
d="M141 395h-19l-62 231q-9 33 10 60.5t60 27.5q43 0 60.5 -27.5t8.5 -63.5z" />
    <glyph glyph-name="parenleft" unicode="(" horiz-adv-x="386" 
d="M47 262q0 137 81 272t227 213l8 -11q-82 -65 -118.5 -198.5t-36.5 -273.5q0 -330 152 -458l-9 -12q-148 80 -226 206t-78 262z" />
    <glyph glyph-name="parenright" unicode=")" horiz-adv-x="386" 
d="M338 262q0 -136 -78 -262t-226 -206l-8 13q151 128 151 457q0 140 -36.5 273.5t-118.5 198.5q7 10 8 11q146 -78 227 -213t81 -272z" />
    <glyph glyph-name="asterisk" unicode="*" horiz-adv-x="428" 
d="M214 715q26 0 40 -13.5t14 -31.5q0 -6 -3 -14l-43 -105h-15l-45 105q-3 15 -3 16q0 18 16.5 30.5t38.5 12.5zM38 563q0 30 15.5 46.5t33.5 16.5q13 0 25 -10l81 -78l-5 -14l-103 -8q-21 -2 -34 11t-13 36zM85 409q0 22 17 34l93 68l11 -7l-20 -117q-6 -35 -41 -35
q-24 0 -42 19.5t-18 37.5zM391 562q0 -22 -11 -34.5t-28 -11.5l-111 8l-4 14l80 78q11 9 25 9q19 0 34 -16.5t15 -46.5zM345 410q0 -22 -19.5 -39.5t-41.5 -17.5q-34 0 -39 32l-22 117l12 9l93 -67q17 -13 17 -34z" />
    <glyph glyph-name="plus" unicode="+" 
d="M365 526v-188h185v-57h-185v-201h-54v201h-185v57h185v188h54z" />
    <glyph glyph-name="comma" unicode="," horiz-adv-x="271" 
d="M133 189q47 0 73 -33.5t26 -77.5q0 -74 -44 -160.5t-111 -138.5l-12 15q50 49 79.5 108.5t35.5 108.5q-18 -13 -50 -13q-42 0 -67 26.5t-25 66.5q0 38 26.5 68t68.5 30z" />
    <glyph glyph-name="hyphen" unicode="-" horiz-adv-x="351" 
d="M40 286h273v-80h-273v80z" />
    <glyph glyph-name="period" unicode="." horiz-adv-x="272" 
d="M37 89q0 42 28.5 71.5t69.5 29.5q42 0 71 -29.5t29 -71.5q0 -41 -29 -70t-71 -29q-41 0 -69.5 29t-28.5 70z" />
    <glyph glyph-name="slash" unicode="/" horiz-adv-x="296" 
d="M296 737l-259 -818h-38l259 818h38z" />
    <glyph glyph-name="zero" unicode="0" 
d="M25 335q0 94 33.5 170.5t103 124.5t164.5 48q65 0 117 -20t86.5 -53.5t57.5 -78.5t33 -92.5t10 -98.5q0 -65 -18 -125.5t-54 -111.5t-96 -82t-137 -31q-76 0 -135 29.5t-94 79.5t-53 111t-18 130zM265 329q0 -188 12.5 -257.5t51.5 -69.5q37 0 49 71.5t12 255.5
q0 185 -12 258t-51 73q-36 0 -49 -82.5t-13 -248.5z" />
    <glyph glyph-name="one" unicode="1" 
d="M439 677v-584q0 -28 13 -44.5t29 -20.5t29 -9t13 -12v-7h-389v6q0 7 13 12.5t29 9.5t29 20.5t13 43.5l-1 456q0 23 -13 33.5t-29 9.5t-30 2t-15 14l-1 9l304 68z" />
    <glyph glyph-name="two" unicode="2" 
d="M528 0h-513l-3 10q34 58 79 110t79.5 85.5t66 71.5t48.5 87t17 113q0 42 -8.5 77t-33.5 62.5t-64 27.5q-12 0 -19 -1q46 -40 46 -107q0 -41 -24.5 -71t-70.5 -30q-37 0 -58.5 23.5t-21.5 57.5q0 13 4 29t19 41t38.5 44.5t69 33.5t105.5 14q130 0 192 -53t62 -125
q0 -51 -31.5 -94t-81.5 -73.5t-101.5 -57.5t-101 -58t-71.5 -62l3 -3h295q33 0 57.5 10.5t36.5 25t20 29t14.5 23.5t14.5 8l6 -1z" />
    <glyph glyph-name="three" unicode="3" 
d="M342 361q120 -1 182.5 -51.5t62.5 -124.5q0 -87 -77.5 -143.5t-213.5 -56.5q-131 0 -197.5 47.5t-66.5 118.5q0 62 44.5 94t107.5 32q18 0 33 -3l5 -15q-20 -31 -20 -111q0 -66 14.5 -105t57.5 -39q76 0 76 170q0 84 -36.5 128.5t-106.5 44.5q-7 0 -39 -4l-3 18
q94 18 125.5 64t31.5 113q0 48 -21.5 81t-55.5 33q-11 0 -17 -1q27 -33 27 -82q0 -46 -25.5 -78.5t-70.5 -32.5q-38 0 -59.5 23.5t-21.5 58.5q0 14 3 28.5t17 35.5t37 36t68 26.5t106 11.5q125 0 187 -47t62 -114q0 -61 -55 -105.5t-161 -46.5v-4z" />
    <glyph glyph-name="four" unicode="4" 
d="M528 428q2 0 6 -2v-224h77v-20h-77v-89q0 -28 13 -44.5t28.5 -20.5t28.5 -9t13 -12v-7h-382v6q0 7 12.5 12.5t27 9.5t27 20.5t12.5 43.5v90h-295v19q127 198 248 460h264q-39 -72 -106.5 -148t-141.5 -136.5t-135 -104t-108 -70.5h274v131q126 25 214 95z" />
    <glyph glyph-name="five" unicode="5" 
d="M353 401q109 0 173 -56t64 -146q0 -92 -75.5 -153t-225.5 -61q-118 0 -179 44t-61 114q0 71 56.5 108t124.5 24l7 -16q-8 -16 -14 -52t-6 -59q0 -29 2 -50.5t8 -46t21 -37.5t37 -13q75 0 75 175q0 84 -34.5 127.5t-96.5 43.5q-45 0 -92 -20l-18 5l40 317h295q41 0 67 13
t33.5 28.5t15.5 27.5t17 10l6 -1l-52 -244q-105 15 -258 15h-124l-20 -153q90 56 214 56z" />
    <glyph glyph-name="six" unicode="6" 
d="M325 -15q-151 0 -220.5 68t-69.5 180q0 153 131.5 274.5t351.5 172.5l5 -17q-139 -47 -200 -159t-61 -291q0 -125 14 -168t51 -43q67 0 67 198q0 21 -2.5 44t-9.5 54t-24 53t-42 27l-1 17q45 10 83 10q93 0 157 -49t64 -146q0 -95 -79 -160t-215 -65z" />
    <glyph glyph-name="seven" unicode="7" 
d="M595 661l5 -5q-86 -129 -138.5 -303t-70.5 -353h-274q121 275 380 507h-257q-51 0 -73.5 -11.5t-44.5 -41.5q-3 -4 -7 -10.5t-7 -10t-6 -7.5t-6.5 -5t-7.5 0l-6 2l68 253q118 -15 305 -15h140z" />
    <glyph glyph-name="eight" unicode="8" 
d="M568 534q0 -44 -33 -79t-96 -45q82 -48 129.5 -97.5t47.5 -114.5q0 -57 -25 -100t-68.5 -66.5t-94 -35t-108.5 -11.5q-42 0 -86.5 8.5t-88.5 27t-72 53.5t-28 81q0 57 42 99.5t105 53.5q-119 88 -119 174q0 94 75.5 145t183.5 51q43 0 82.5 -8t75 -24t57 -45t21.5 -67z
M420 99q0 29 -21.5 57t-44.5 44.5t-74 48t-73 46.5q-35 -48 -35 -120q0 -73 39 -121.5t115 -48.5q42 0 68 28t26 66zM246 572q0 -12 4 -23.5t15 -23t20 -20t29 -21t31 -19t37.5 -22t37.5 -21.5q14 50 14 97q0 60 -23.5 99.5t-79.5 39.5q-38 0 -61.5 -25t-23.5 -61z" />
    <glyph glyph-name="nine" unicode="9" 
d="M324 679q151 0 220.5 -68t69.5 -181q0 -153 -131.5 -274.5t-351.5 -171.5l-5 17q140 48 200.5 159.5t60.5 290.5q0 124 -14.5 167t-51.5 43q-67 0 -67 -197q0 -21 2.5 -44t9.5 -54t24 -53t42 -27l1 -18q-43 -10 -82 -10q-93 0 -157 49.5t-64 146.5q0 95 79 160t215 65z
" />
    <glyph glyph-name="colon" unicode=":" horiz-adv-x="272" 
d="M39 348q0 41 28 69.5t69 28.5t69 -28.5t28 -69.5q0 -40 -28.5 -68.5t-68.5 -28.5t-68.5 28.5t-28.5 68.5zM40 89q0 41 28.5 69.5t68.5 28.5t68.5 -28.5t28.5 -69.5t-28.5 -69.5t-68.5 -28.5t-68.5 28.5t-28.5 69.5z" />
    <glyph glyph-name="semicolon" unicode=";" horiz-adv-x="272" 
d="M38 348q0 40 28.5 69t68.5 29t68.5 -29t28.5 -69q0 -41 -28.5 -69.5t-68.5 -28.5t-68.5 28.5t-28.5 69.5zM133 189q46 0 72.5 -33.5t26.5 -76.5q0 -75 -44 -162.5t-111 -139.5l-12 15q49 48 79 108.5t36 111.5q-19 -14 -50 -14q-42 0 -67 26.5t-25 67.5q0 38 26.5 67.5
t68.5 29.5z" />
    <glyph glyph-name="less" unicode="&#x3c;" 
d="M594 112v-66l-531 242v43l531 243v-66l-442 -198z" />
    <glyph glyph-name="equal" unicode="=" 
d="M550 183h-424v57h424v-57zM550 376h-424v57h424v-57z" />
    <glyph glyph-name="greater" unicode="&#x3e;" 
d="M63 46v66l443 198l-443 198v66l531 -243v-43z" />
    <glyph glyph-name="question" unicode="?" horiz-adv-x="589" 
d="M82 339q0 35 27 67.5t65 57.5t76.5 49t65.5 52.5t27 58.5q0 37 -27 53.5t-67 16.5q-29 0 -53 -6q24 -32 24 -80q0 -46 -25.5 -79t-70.5 -33q-33 0 -55 22t-22 60q0 56 58 98.5t180 42.5q115 0 190.5 -40.5t75.5 -129.5q0 -47 -28.5 -86t-68.5 -65t-80.5 -48.5t-69 -45
t-28.5 -44.5q0 -29 54 -44l-6 -18q-123 2 -182.5 41.5t-59.5 99.5zM166 73q0 40 28 68.5t68 28.5t68.5 -28.5t28.5 -68.5t-28.5 -68t-68.5 -28t-68 28t-28 68z" />
    <glyph glyph-name="at" unicode="@" horiz-adv-x="972" 
d="M358 94q-53 0 -85 25t-32 73q0 72 66.5 105.5t154.5 33.5q36 0 49 -2v63q0 101 -66 101q-10 0 -26 -2q16 -28 16 -59q0 -38 -22 -64t-62 -26q-29 0 -45 17t-16 43q0 46 46.5 80t157.5 34q113 0 160.5 -45.5t47.5 -117.5v-178q0 -36 27 -36q66 0 114 72.5t48 169.5
q0 162 -107.5 254t-270.5 92q-185 0 -304.5 -119.5t-119.5 -300.5q0 -188 109 -309t283 -121q81 0 144 21q0 -2 2.5 -12.5t3.5 -16.5q-62 -21 -155 -21q-181 0 -298.5 130t-117.5 326q0 191 128.5 321t324.5 130q179 0 292.5 -99t113.5 -274q0 -125 -73.5 -209t-209.5 -84
q-106 0 -122 67q-56 -60 -156 -62zM511 312q-78 -4 -78 -77q0 -30 12 -52.5t31 -22.5q17 0 35 15v137z" />
    <glyph glyph-name="A" unicode="A" horiz-adv-x="760" 
d="M430 102l-39 109h-202l-17 -49q-22 -62 -22 -81q0 -33 22.5 -45.5t45.5 -15.5t23 -12v-8h-235v7q0 8 14.5 12.5t34 9t42.5 27.5t38 63l153 424q12 35 12 55q0 22 -12 34t-26 14.5t-26 6.5t-12 12v9h257l204 -582q10 -30 23.5 -46.5t22.5 -19t15.5 -6t6.5 -12.5v-8h-367v7
q0 7 8 11.5t18 7.5t18 13t8 27q0 15 -8 36zM289 491l-93 -261h189l-92 261h-4z" />
    <glyph glyph-name="B" unicode="B" horiz-adv-x="775" 
d="M467 0h-444v8q0 7 11.5 11t26 7t26 19t11.5 45v494q0 28 -11 44t-25 19t-25 7.5t-11 11.5v8h427q132 0 191 -45.5t59 -110.5q0 -53 -47 -97.5t-148 -49.5v-4q68 -3 117 -21t73.5 -45.5t35 -55t10.5 -57.5q0 -33 -14.5 -64.5t-45 -60t-86.5 -46t-131 -17.5zM345 355v-269
q0 -32 12 -49t44 -17q41 0 63.5 42t22.5 116q0 85 -33 131t-94 46h-15zM345 653v-279h9q46 0 73.5 37.5t27.5 99.5q0 142 -102 142h-8z" />
    <glyph glyph-name="C" unicode="C" horiz-adv-x="684" 
d="M397 690q88 0 183 -30l35 47q2 0 5.5 -0.5t4.5 -0.5l9 -276h-4q-8 0 -10.5 4t-11.5 28q-36 99 -74.5 152.5t-92.5 53.5q-63 0 -92.5 -81.5t-29.5 -258.5q0 -125 16.5 -197.5t43 -96.5t68.5 -24q59 0 107.5 69t71.5 166q10 44 21 44h6l-11 -308q-1 0 -5 -0.5t-6 -0.5
l-33 48q-104 -42 -202 -42q-165 0 -261.5 96t-96.5 248q0 153 98.5 256.5t260.5 103.5z" />
    <glyph glyph-name="D" unicode="D" horiz-adv-x="831" 
d="M410 0h-387v8q0 7 11.5 11t26 7t26 19t11.5 45v494q0 28 -11 44t-25 19t-25 7.5t-11 11.5v8h372q176 0 285.5 -87.5t109.5 -249.5q0 -40 -9.5 -81.5t-36 -88.5t-67 -83t-111 -60t-159.5 -24zM346 653v-573q0 -60 59 -60q112 0 112 292q0 186 -34 263.5t-124 77.5h-13z
" />
    <glyph glyph-name="E" unicode="E" horiz-adv-x="700" 
d="M369 674q140 0 242 36l6 -2l27 -276q-2 0 -4 -1q-9 0 -12.5 4.5t-10.5 22.5q-44 112 -93.5 153.5t-140.5 41.5h-36v-290h23q41 0 65.5 21t30 46t12 46t15.5 21h6v-298h-7q-11 0 -17 22.5t-11 49.5t-28 49.5t-63 22.5h-26v-254q0 -34 12.5 -51t55.5 -17h17
q68 0 119.5 54.5t108.5 187.5l4.5 9t3.5 7.5t2.5 5.5t3 4t3.5 2t4 1t8 -2q-40 -244 -52 -314l-5 -2q-63 26 -187 26h-424v8q0 7 12 11t26.5 7t26.5 19t12 45v493q0 28 -11.5 44t-25.5 19t-25.5 7.5t-11.5 11.5v9h345z" />
    <glyph glyph-name="F" unicode="F" horiz-adv-x="644" 
d="M98 90v493q0 36 -18.5 51t-37 18.5t-18.5 12.5v9h382q138 0 202 32l6 -3l27 -271q-2 0 -4 -1q-8 0 -13 6.5t-12 25.5t-13 30q-49 93 -92.5 126.5t-126.5 33.5h-33v-304h32q41 0 65.5 21t30 46.5t12 46.5t15.5 21h6v-298h-7q-11 0 -17 22.5t-10.5 49t-27.5 49t-64 22.5
h-35v-239q0 -37 20 -52t40 -18.5t20 -11.5v-8h-406v8q0 7 12 11t26.5 7t26.5 19t12 45z" />
    <glyph glyph-name="G" unicode="G" horiz-adv-x="772" 
d="M703 4q-1 -1 -11 -4l-73 49q-123 -63 -229 -63q-161 0 -256.5 96.5t-95.5 247.5q0 155 105 258t288 103q103 0 190 -38l38 54q1 0 4.5 -0.5t5.5 -0.5l10 -285h-3q-8 0 -13.5 6.5t-11.5 29.5q-25 87 -74.5 149.5t-116.5 62.5q-140 0 -140 -341q0 -184 19 -253.5t72 -69.5
q47 0 74 51v184q0 28 -11.5 44t-24.5 19t-24.5 7.5t-11.5 11.5v8h353v-8q0 -8 -16 -12t-31.5 -19t-15.5 -51v-236z" />
    <glyph glyph-name="H" unicode="H" horiz-adv-x="857" 
d="M834 0h-384v8q0 8 15 11.5t30.5 18.5t15.5 51v257h-166v-257q0 -36 15 -51t30 -18.5t15 -11.5v-8h-383v8q0 7 11.5 11t25.5 7.5t25.5 19.5t11.5 44v494q0 28 -11 43.5t-24.5 18.5t-24.5 7.5t-11 11.5v9h380v-9q0 -8 -15 -12t-30 -18.5t-15 -50.5v-218h166v218
q0 28 -9.5 43.5t-21 18.5t-21 7.5t-9.5 11.5v9h381v-9q0 -7 -11.5 -11.5t-24.5 -7.5t-24.5 -18.5t-11.5 -43.5v-494q0 -28 11.5 -44t26 -19.5t26 -7.5t11.5 -11v-8z" />
    <glyph glyph-name="I" unicode="I" horiz-adv-x="457" 
d="M427 0h-398v8q0 8 18.5 11.5t37.5 18.5t19 51v495q0 28 -11.5 43.5t-26 18.5t-26 7.5t-11.5 11.5v9h398v-9q0 -7 -11.5 -11.5t-26 -7.5t-26 -18.5t-11.5 -43.5v-495q0 -36 19 -51t37.5 -18.5t18.5 -11.5v-8z" />
    <glyph glyph-name="J" unicode="J" horiz-adv-x="429" 
d="M346 584q0 -74 0.5 -221.5t0.5 -220.5q0 -98 -41 -185t-132 -142q-101 -62 -210 -62q-55 0 -97 26t-42 81q0 40 26 68t67 28q54 0 80.5 -39t26.5 -98q0 -19 -3 -39q18 3 30 10.5t23 26.5t16.5 57t5.5 95v615q0 28 -11.5 43.5t-25.5 18.5t-25.5 7.5t-11.5 11.5v9h397v-9
q0 -7 -11.5 -11.5t-25.5 -7.5t-25.5 -18.5t-11.5 -43.5z" />
    <glyph glyph-name="K" unicode="K" horiz-adv-x="812" 
d="M516 473l205 -383q15 -27 32.5 -43t29.5 -19.5t20.5 -8t8.5 -12.5v-7h-368v8q0 7 19.5 15t19.5 24q0 15 -12 36l-123 230h-14v-224q0 -36 16 -51t31.5 -18.5t15.5 -11.5v-8h-375v8q0 8 16 11.5t32 18.5t16 51v495q0 36 -16 50.5t-32 18.5t-16 12v9h375v-9q0 -7 -10 -11.5
t-21.5 -7.5t-21.5 -18.5t-10 -43.5v-250h24l194 205q41 42 43 73q0 19 -23.5 27.5t-46.5 13t-23 13.5v8h277v-7q0 -7 -8 -10.5t-25 -7.5t-38.5 -11.5t-53.5 -30t-65 -57.5z" />
    <glyph glyph-name="L" unicode="L" horiz-adv-x="690" 
d="M630 -23l-5 -2q-55 25 -202 25h-401v8q0 7 12 11t26 7t26 19t12 45v494q0 36 -18.5 50.5t-37.5 18.5t-19 12v9h398v-9q0 -7 -11.5 -11.5t-26 -7.5t-26 -18.5t-11.5 -43.5v-495q0 -34 13 -51t56 -17h8q75 0 122 54t107 194l6 13q6 16 16 16q2 0 8 -2z" />
    <glyph glyph-name="M" unicode="M" horiz-adv-x="1013" 
d="M675 579h-4l-141 -389l56 -141l-17 -9l-9 18q-61 120 -247 102l-153 426h-4l-7 -417q0 -41 8.5 -70.5t21.5 -42.5t28 -21t28 -10t21.5 -6t8.5 -11v-8h-255v8q0 8 13 12t30.5 7t36 18t27.5 42q13 40 14 85q4 274 7 411q0 29 -13.5 45t-29.5 19t-29.5 7t-13.5 11v9h306
l163 -458l166 458h312v-9q0 -8 -20.5 -12t-40.5 -18.5t-20 -50.5q4 -164 10 -494q1 -29 12.5 -45t25.5 -19t25.5 -7t11.5 -11v-8h-386v8q0 7 10.5 11t22.5 7.5t22.5 19t10.5 42.5q0 56 -2.5 258t-5.5 233z" />
    <glyph glyph-name="N" unicode="N" horiz-adv-x="814" 
d="M130 149v434q0 29 -13 45t-29 19t-29 7t-13 11v9h335l282 -378l3 2v229q0 50 -18.5 79t-40 35t-40 11t-18.5 13v9h255v-9q0 -8 -12.5 -11.5t-30 -8.5t-34.5 -17t-29.5 -45t-12.5 -85v-508l-100 -9l-433 596l-1 -1h-2v-430q0 -41 12 -67.5t29 -36.5t34 -15t29 -8.5
t12 -10.5v-8h-254v8q0 7 12.5 10t29.5 8t34.5 16t30 38t12.5 69z" />
    <glyph glyph-name="O" unicode="O" horiz-adv-x="821" 
d="M38 341q0 151 97.5 250.5t273.5 99.5q80 0 145 -20t107 -54t70 -79.5t40 -94.5t12 -102q0 -67 -22.5 -129t-66 -113.5t-117.5 -82.5t-169 -31q-94 0 -167 29.5t-116.5 80t-65 113t-21.5 133.5zM320 336q0 -173 20.5 -253t71.5 -80q52 0 71 80t19 253q0 181 -19 258.5
t-73 77.5q-51 0 -70.5 -89t-19.5 -247z" />
    <glyph glyph-name="P" unicode="P" horiz-adv-x="744" 
d="M346 259v-169q0 -28 11.5 -44t26 -19.5t26 -7.5t11.5 -11v-8h-398v8q0 8 18.5 12t37 19t18.5 51v493q0 28 -11 44.5t-24.5 19.5t-24.5 7.5t-11 11.5v8h434q53 0 98.5 -10t86.5 -32t65 -63t24 -98q0 -71 -43.5 -122t-109.5 -73.5t-148 -22.5q-43 0 -87 6zM346 653v-374
q60 0 93 56t33 135q0 82 -27 132.5t-84 50.5h-15z" />
    <glyph glyph-name="Q" unicode="Q" horiz-adv-x="820" 
d="M38 341q0 150 97 250t272 100q99 0 174 -30.5t117.5 -81.5t63.5 -111t21 -127q0 -65 -21.5 -125.5t-64 -111.5t-112.5 -83t-158 -35q27 -16 83.5 -21.5t78.5 0.5q106 -90 158 -90q39 0 79 33l12 -9q-36 -64 -89.5 -106.5t-96.5 -42.5q-69 0 -141.5 72t-111.5 163
q-91 1 -162 31t-113.5 80t-64 112t-21.5 133zM320 337q0 -164 20.5 -249.5t71.5 -85.5t70 85t19 250q0 171 -19.5 253.5t-72.5 82.5q-89 0 -89 -336z" />
    <glyph glyph-name="R" unicode="R" horiz-adv-x="829" 
d="M345 653v-312h8q53 0 83 43t30 112q0 70 -30 113.5t-91 43.5zM383 318q18 -30 66.5 -43.5t102.5 -13.5q44 0 90 8l113 -204q11 -19 24 -30t22 -12.5t15.5 -5.5t6.5 -11v-6h-288q-60 107 -182 321h-8v-232q0 -28 11.5 -44t26 -19t26 -7t11.5 -11v-8h-397v8q0 8 18.5 12
t37 19t18.5 50v494q0 28 -11 44t-24.5 19t-24.5 7.5t-11 11.5v9h464q97 0 167.5 -45.5t70.5 -131.5q0 -91 -75 -137.5t-193 -46.5q-34 0 -77 5z" />
    <glyph glyph-name="S" unicode="S" horiz-adv-x="658" 
d="M299 -15q-137 0 -209.5 52t-72.5 115q0 43 25 68t62 25q47 0 72.5 -36t25.5 -86q0 -58 -24 -97q40 -15 86 -15q54 0 90 23t36 74q0 32 -26 63t-65 54.5t-84.5 51.5t-84.5 54.5t-65 64t-26 78.5q0 110 84 163.5t209 53.5q134 0 198 -44.5t64 -102.5q0 -40 -24.5 -63
t-60.5 -23q-37 0 -66.5 27t-29.5 77q0 54 15 95q-22 7 -66 7q-43 0 -68.5 -21t-25.5 -53q0 -34 38 -67t92.5 -63t108.5 -63.5t92 -81.5t38 -103q0 -107 -89.5 -167t-248.5 -60z" />
    <glyph glyph-name="T" unicode="T" horiz-adv-x="704" 
d="M476 653v-564q0 -36 18.5 -51t37 -18.5t18.5 -11.5v-8h-397v8q0 8 18.5 11.5t37 18.5t18.5 51v564h-6q-117 0 -187 -206q-5 -15 -10 -21.5t-13 -5.5l-5 1q16 160 26 279l3 3q99 -29 324 -29q224 0 311 29l4 -3l25 -277l-6 -1q-6 -1 -11 5t-10 22q-34 106 -85.5 154.5
t-104.5 49.5h-6z" />
    <glyph glyph-name="U" unicode="U" horiz-adv-x="806" 
d="M671 283v244q0 41 -12.5 67.5t-29.5 37t-34.5 15t-30 8t-12.5 10.5v9h256v-9q0 -7 -12 -10t-29.5 -8t-35 -15.5t-29.5 -38t-12 -69.5v-226q0 -71 -12 -123t-42 -97.5t-88.5 -69t-145.5 -23.5q-170 0 -244.5 77t-74.5 223l-1 299q0 36 -16.5 51t-33.5 19t-17 12v8h387v-8
q0 -8 -18 -12t-35.5 -19t-17.5 -51v-349q0 -103 37.5 -157t124.5 -54q83 0 130.5 69t47.5 190z" />
    <glyph glyph-name="V" unicode="V" horiz-adv-x="742" 
d="M380 -9l-61 -8l-240 600q-11 27 -25.5 42.5t-25 18.5t-18 8t-7.5 13v9h388v-8q0 -7 -8.5 -12t-19.5 -7.5t-19.5 -12t-8.5 -24.5q0 -17 9 -38l121 -307h5l65 165q48 120 48 158q0 26 -14.5 40.5t-32.5 17.5t-32.5 7.5t-14.5 11.5v9h252v-8q0 -10 -18.5 -14t-49.5 -20
t-54 -53q-17 -27 -34 -70z" />
    <glyph glyph-name="W" unicode="W" horiz-adv-x="1112" 
d="M443 297l81 254q15 44 5.5 65t-26 25t-33 9t-16.5 16v8h352v-7q0 -8 -8.5 -13.5t-19 -8t-19 -12.5t-8.5 -27q0 -10 8 -34l97 -272h4l70 218q14 40 14 65q0 37 -23 50.5t-46.5 17t-23.5 14.5v9h257v-8q0 -8 -16.5 -14t-39 -13.5t-51 -40.5t-47.5 -89l-183 -520l-56 -6
l-182 501h-4l-172 -495l-56 -6l-222 600q-10 27 -24.5 43t-25 19.5t-18.5 8t-8 11.5v9h394v-8q0 -9 -15.5 -13.5t-30.5 -15t-15 -33.5q0 -14 7 -32l96 -275h4z" />
    <glyph glyph-name="X" unicode="X" horiz-adv-x="774" 
d="M373 109l-86 152l-51 -81q-49 -77 -49 -111q0 -19 13 -29.5t28 -12.5t28 -6.5t13 -12.5v-8h-264v8q0 9 16.5 13t50.5 19t65 48q47 49 96 124l43 66l-178 317q-13 23 -28 36.5t-25 16.5t-17 7t-7 11v8h417v-8q0 -9 -15 -13t-30.5 -12t-15.5 -28q0 -25 36 -85l59 -98l40 62
q48 75 48 114q0 22 -18.5 31t-37 13.5t-18.5 14.5v9h258v-9q0 -9 -17.5 -13.5t-52 -20t-65.5 -47.5q-38 -39 -88 -113l-39 -58l185 -321q16 -28 35.5 -44.5t33 -20.5t23 -8.5t9.5 -11.5v-7h-443v7q0 7 15.5 11t31 13.5t15.5 31.5q0 21 -14 46z" />
    <glyph glyph-name="Y" unicode="Y" horiz-adv-x="734" 
d="M162 8q0 8 18.5 11.5t37 18.5t18.5 51v166l-155 328q-12 26 -28 41.5t-27.5 19.5t-19 9t-7.5 12v9h408v-8q0 -9 -17.5 -14t-35 -14.5t-17.5 -28.5q0 -15 12 -37l122 -240h2l86 192q17 40 17 61q0 27 -16 41.5t-35 17.5t-35 8t-16 13v9h259v-9q0 -8 -11.5 -12.5t-28 -8
t-40.5 -23t-44 -51.5q-18 -28 -32 -60l-92 -201v-220q0 -36 18.5 -51t37 -18.5t18.5 -11.5v-8h-397v8z" />
    <glyph glyph-name="Z" unicode="Z" horiz-adv-x="708" 
d="M660 674v-19l-349 -634h116q68 0 119.5 55t109.5 189q12 27 16 29h4t5 -0.5t4 -0.5q-9 -54 -27.5 -160.5t-26.5 -156.5l-4 -2q-66 26 -191 26h-420v19q59 106 177.5 317t177.5 317h-43q-94 0 -141 -40t-97 -160q-11 -28 -20 -28q-4 0 -7 2l31 275l4 2q74 -30 214 -30h348
z" />
    <glyph glyph-name="bracketleft" unicode="[" horiz-adv-x="340" 
d="M66 -186v921h246v-20h-84v-882h84v-19h-246z" />
    <glyph glyph-name="backslash" unicode="\" horiz-adv-x="296" 
d="M257 -81l-258 818h37l260 -818h-39z" />
    <glyph glyph-name="bracketright" unicode="]" horiz-adv-x="340" 
d="M274 735v-921h-246v19h84v882h-84v20h246z" />
    <glyph glyph-name="asciicircum" unicode="^" horiz-adv-x="536" 
d="M109 357h-66l207 347h42l208 -347h-71l-160 269z" />
    <glyph glyph-name="underscore" unicode="_" horiz-adv-x="475" 
d="M475 -109h-475v51h475v-51z" />
    <glyph glyph-name="grave" unicode="`" horiz-adv-x="609" 
d="M408 517l-6 -13q-70 16 -122 40.5t-77 50.5t-36 46.5t-11 37.5q0 26 17.5 46t50.5 20q24 0 39.5 -15t29.5 -44q1 -1 13 -30.5t21 -46t31 -44t50 -48.5z" />
    <glyph glyph-name="a" unicode="a" horiz-adv-x="599" 
d="M319 228q-48 0 -62.5 -22.5t-14.5 -71.5q0 -83 35 -83q18 0 44 32q-2 16 -2 39v106zM536 264v-163q0 -33 9.5 -44.5t33.5 -13.5l2 -18q-22 -17 -62.5 -27t-70.5 -10q-108 0 -124 74q-32 -44 -79 -62.5t-88 -18.5q-59 0 -95.5 28t-36.5 82q0 56 39.5 93t93 51.5
t115.5 14.5q20 0 46 -2v55q0 65 -18 95.5t-60 30.5q-19 0 -46 -8q29 -31 29 -76q0 -34 -20 -59.5t-59 -25.5q-31 0 -48 20t-17 47q0 15 4.5 29.5t19 33.5t38 33t66.5 24t100 10q228 0 228 -193z" />
    <glyph glyph-name="b" unicode="b" horiz-adv-x="646" 
d="M382 217q0 93 -12.5 136.5t-45.5 43.5q-30 0 -52 -42v-289q7 -13 21 -23.5t31 -10.5q31 0 44.5 40.5t13.5 144.5zM284 728v-191q0 -114 -31 -172l5 -1q25 50 68.5 72t90.5 22q80 0 140 -61t60 -173q0 -95 -56 -166.5t-154 -71.5q-112 0 -149 70q-31 -2 -89.5 -30
t-83.5 -53h-19v636q0 35 -15 49t-30.5 17t-15.5 11v8l274 41z" />
    <glyph glyph-name="c" unicode="c" horiz-adv-x="512" 
d="M311 457q93 0 135 -34.5t42 -83.5q0 -34 -23.5 -57t-57.5 -23q-42 0 -64 27.5t-22 68.5q0 37 19 77q-81 -16 -81 -201q0 -101 32.5 -145t99.5 -44q50 0 101 30l8 -15q-83 -71 -215 -71q-124 0 -190.5 62t-66.5 161q0 103 74.5 175.5t208.5 72.5z" />
    <glyph glyph-name="d" unicode="d" horiz-adv-x="665" 
d="M598 728v-631q0 -33 14 -46.5t28.5 -16.5t14.5 -11v-8q-41 -6 -129.5 -15.5t-134.5 -16.5l-6 7l5 82h-3q-60 -87 -159 -87q-105 0 -152.5 65t-47.5 167q0 113 63 177t149 64q82 0 135 -39h4v190q0 35 -15.5 49t-31 17t-15.5 11v8l274 40zM326 417q-34 0 -48 -45t-14 -139
q0 -96 14 -139t48 -43q28 0 52 39v305q-24 22 -52 22z" />
    <glyph glyph-name="e" unicode="e" horiz-adv-x="571" 
d="M254 260l100 4q-1 85 -11 129.5t-39 44.5t-39.5 -44.5t-10.5 -133.5zM306 457q102 0 167.5 -53t68.5 -149l-4 -9l-284 -6q0 -98 36.5 -148t103.5 -50q75 0 141 60l9 -12q-84 -104 -242 -104q-134 0 -204 65t-70 167t74 170.5t204 68.5z" />
    <glyph glyph-name="f" unicode="f" horiz-adv-x="390" 
d="M68 92l1 324h-55v18q36 2 56 4q0 112 81 205.5t205 93.5q54 0 94.5 -31t40.5 -85q0 -38 -24.5 -63t-62.5 -25q-48 0 -71 30.5t-23 76.5q0 40 20 77q-41 -8 -44 -86v-195h97v-20h-96v-324q0 -28 8.5 -44.5t19 -20.5t19 -9t8.5 -12v-6h-330v6q0 7 9 12t19 9t19 20.5t9 44.5
z" />
    <glyph glyph-name="g" unicode="g" horiz-adv-x="629" 
d="M292 -227q-270 0 -270 122q0 35 20 58t61 23q43 0 65 -30t22 -74q0 -37 -16 -72q25 -5 53 -5q56 0 96.5 20.5t40.5 66.5q0 33 -25 53.5t-62 28t-81 14t-81 11t-62 18.5t-25 37q0 22 24 50.5t66 45.5q-74 48 -74 134q0 77 67 130t188 53q65 0 120 -15q28 41 65 67t72 26
q42 0 68 -19.5t26 -56.5q0 -29 -21 -47t-45 -18q-31 0 -57.5 23.5t-29.5 74.5q-29 -15 -61 -56q63 -23 92.5 -64.5t29.5 -92.5q0 -74 -65.5 -127.5t-193.5 -53.5q-100 0 -164 32q-37 -18 -37 -34q0 -20 52 -25.5t126.5 -5.5t149.5 -6t127 -37.5t52 -89.5q0 -68 -82.5 -113.5
t-230.5 -45.5zM252 276q0 -82 10 -122.5t42 -40.5q28 0 37.5 42t9.5 121q0 85 -9.5 124t-41.5 39q-48 0 -48 -163z" />
    <glyph glyph-name="h" unicode="h" horiz-adv-x="668" 
d="M70 92v515q0 35 -15 49.5t-30.5 18t-15.5 11.5v8l274 40l6 -6v-187q0 -126 -21 -187h4q58 103 183 103q64 0 106 -34t42 -107v-224q0 -28 8.5 -44.5t18 -20.5t18 -9t8.5 -12v-6h-309v6q0 7 6 12t13.5 9t13.5 20.5t6 44.5v250q0 53 -36 53t-65 -53v-250q0 -28 6 -44.5
t13 -20.5t13 -9t6 -12v-6h-309v6q0 7 9 12t19 9t19 20.5t9 44.5z" />
    <glyph glyph-name="i" unicode="i" horiz-adv-x="368" 
d="M291 458q1 -3 5 -7v-359q0 -28 8.5 -44.5t19 -20.5t19 -9t8.5 -12v-6h-329v6q0 7 9 12t19 9t19 20.5t9 44.5v243q0 33 -14 46.5t-28.5 16.5t-14.5 11v8q105 15 270 41zM185 729q48 0 81.5 -33.5t33.5 -80.5q0 -48 -33.5 -81.5t-81.5 -33.5q-47 0 -80 33.5t-33 81.5
q0 47 33.5 80.5t79.5 33.5z" />
    <glyph glyph-name="j" unicode="j" horiz-adv-x="341" 
d="M-14 -227q-60 0 -100 23.5t-40 69.5q0 33 23.5 58.5t59.5 25.5q50 0 77.5 -42.5t22.5 -108.5q25 10 32.5 34t7.5 64v434q0 25 -8.5 38.5t-18.5 16.5t-18.5 7t-8.5 13v10l265 41l7 -7v-367q0 -78 -30 -147.5t-97 -111.5q-43 -26 -80.5 -38.5t-93.5 -12.5zM172 729
q48 0 81.5 -33.5t33.5 -80.5q0 -48 -33.5 -82t-81.5 -34q-47 0 -80 34t-33 82q0 47 33 80.5t80 33.5z" />
    <glyph glyph-name="k" unicode="k" horiz-adv-x="647" 
d="M278 733l6 -6v-511h26q16 17 51 51.5t52 51.5l24 25q17 18 17 30q0 13 -15 21.5t-32.5 11t-32.5 7.5t-15 12v10h261v-7q0 -10 -21 -14t-59 -18t-69 -45l-24 -24l98 -199q21 -43 42.5 -68t34.5 -30.5t21 -10.5t8 -13v-7h-263q-32 80 -90 197h-14v-109q0 -27 6.5 -42.5
t15 -19t15 -8t6.5 -11.5v-7h-317v6q0 7 9 12t19 9.5t19 20.5t9 44v522q0 33 -14.5 46.5t-29 16.5t-14.5 11v7q180 26 270 38z" />
    <glyph glyph-name="l" unicode="l" horiz-adv-x="366" 
d="M289 733l5 -6v-635q0 -28 8.5 -44.5t19 -20.5t19 -9t8.5 -12v-6h-328v6q0 7 8.5 12t19 9t19 20.5t8.5 44.5v522q0 33 -14 46.5t-28.5 16.5t-14.5 11v7q157 23 270 38z" />
    <glyph glyph-name="m" unicode="m" horiz-adv-x="952" 
d="M637 0v8q0 5 5 9t11 7t11 16.5t5 37.5v279q0 35 -25 35q-27 0 -59 -50q3 -15 3 -30v-236q0 -24 5 -37t10.5 -16t10.5 -6t5 -9v-8h-281v8q0 5 5 8.5t11 7t11 17.5t5 37v279q0 36 -24 36q-29 0 -59 -49v-270q0 -22 5 -35t11.5 -15.5t11.5 -6t5 -9.5v-8h-304v6q0 8 8.5 13
t19 9t19 20t8.5 44v243q0 33 -14 46.5t-28.5 16.5t-14.5 11v8l263 40l6 -6l-12 -94q1 0 2 -0.5t2 -0.5q60 101 169 101q49 0 86.5 -22.5t50.5 -70.5q59 93 162 93q60 0 102 -34t42 -106v-225q0 -28 8 -44t17 -20t17 -9t8 -13v-6h-300z" />
    <glyph glyph-name="n" unicode="n" horiz-adv-x="669" 
d="M70 92v243q0 33 -14 46.5t-28 16.5t-14 11v8q54 8 261 41l6 -7l-11 -91h4q34 52 84.5 74.5t97.5 22.5q63 0 105 -34t42 -107v-224q0 -28 8 -44.5t17.5 -20.5t17.5 -9t8 -12v-6h-307v8q0 5 6 8.5t13.5 7.5t13.5 18t6 37v241q0 74 -35 74q-15 0 -33.5 -13.5t-32.5 -35.5
v-271q0 -22 6 -34.5t13.5 -15.5t13.5 -6.5t6 -9.5v-8h-310v6q0 7 9 12t19 9t19 20.5t9 44.5z" />
    <glyph glyph-name="o" unicode="o" horiz-adv-x="646" 
d="M28 223q0 101 77.5 167.5t216.5 66.5q151 0 223.5 -68.5t72.5 -165.5t-76 -167.5t-221 -70.5t-219 68.5t-74 169.5zM265 220q0 -116 12 -167t47 -51t46.5 50.5t11.5 167.5q0 121 -11.5 169.5t-47.5 48.5q-34 0 -46 -55.5t-12 -162.5z" />
    <glyph glyph-name="p" unicode="p" horiz-adv-x="666" 
d="M286 19v-137q0 -28 8.5 -44.5t19 -20.5t19 -9t8.5 -12v-6h-328v6q0 7 8.5 12t19 9t19 20.5t8.5 44.5v453q0 33 -14 46.5t-28.5 16.5t-14.5 11v8q102 15 265 41l6 -7l-12 -91h4q30 53 75.5 74.5t87.5 21.5q104 0 152 -66t48 -169q0 -112 -63 -174.5t-149 -62.5
q-84 0 -134 36q-1 0 -2.5 -0.5t-2.5 -0.5zM340 21q34 0 48.5 46t14.5 140q0 97 -14 139.5t-49 42.5q-29 0 -52 -38v-306q24 -24 52 -24z" />
    <glyph glyph-name="q" unicode="q" horiz-adv-x="645" 
d="M590 466v-584q0 -28 9 -44.5t19 -20.5t19 -9t9 -12v-7h-325v7q0 7 8.5 12t19 9t19 20.5t8.5 44.5v173h-3q-51 -73 -147 -73q-82 0 -140 59.5t-58 174.5q0 97 56.5 167.5t156.5 70.5q97 0 141 -59q106 13 190 71h18zM319 43q30 0 52 42v291q-6 12 -20 21t-28 9
q-34 0 -48 -41t-14 -143q0 -92 12.5 -135.5t45.5 -43.5z" />
    <glyph glyph-name="r" unicode="r" horiz-adv-x="526" 
d="M76 92v243q0 33 -14 46.5t-28.5 16.5t-14.5 11v8l265 39q4 -4 5 -6l-15 -164q1 -1 2 -1q2 -1 3 -1q22 84 62.5 128.5t94.5 44.5q42 0 72.5 -26t30.5 -66t-26.5 -63.5t-64.5 -23.5q-41 0 -69 32t-28 76q-26 -23 -41.5 -68.5t-15.5 -78.5v-147q0 -28 8.5 -44.5t19 -20.5
t19 -9t8.5 -12v-6h-329v6q0 7 9 12t19 9t19 20.5t9 44.5z" />
    <glyph glyph-name="s" unicode="s" horiz-adv-x="528" 
d="M269 458q109 0 161.5 -33t52.5 -82q0 -32 -19.5 -50.5t-47.5 -18.5q-42 0 -65.5 26.5t-23.5 65.5q0 36 13 65q-2 0 -7 0.5t-8 0.5q-34 0 -57 -17t-23 -50q0 -23 27 -43.5t65 -38t76 -37.5t65 -51t27 -69q0 -70 -71 -105.5t-184 -35.5q-119 0 -173 34.5t-54 80.5
q0 34 20 51.5t48 17.5q41 0 63.5 -28t22.5 -68q0 -36 -13 -61q24 -6 44 -6q36 0 56.5 17t20.5 47q0 22 -25 42t-60.5 37t-71.5 36.5t-61 49.5t-25 66q0 79 63.5 118t163.5 39z" />
    <glyph glyph-name="t" unicode="t" horiz-adv-x="393" 
d="M197 -15q-137 0 -137 132v299h-51v17l55 6q74 24 124.5 81.5t71.5 131.5h17v-216h95v-20h-95v-296q0 -71 51 -71q24 0 54 17l5 -16q-84 -65 -190 -65z" />
    <glyph glyph-name="u" unicode="u" horiz-adv-x="668" 
d="M596 452v-348q0 -33 15 -46.5t29.5 -16.5t14.5 -11v-8q-41 -6 -129.5 -15.5t-134.5 -16.5l-6 7l5 82h-3q-60 -94 -175 -94q-61 0 -102 33t-41 105v211q0 26 -9 40.5t-19.5 17.5t-19.5 6.5t-9 9.5v8q168 24 269 38l6 -6v-350q0 -49 32 -49q31 0 60 48v241q0 26 -9 40.5
t-19.5 17.5t-19.5 6.5t-9 9.5v8l268 39z" />
    <glyph glyph-name="v" unicode="v" horiz-adv-x="584" 
d="M380 217h4l33 68q29 61 29 89q0 17 -9 26t-20 11t-20 5t-9 10v10h191v-8q0 -7 -11 -12t-28 -10.5t-43 -32.5t-49 -72l-164 -314l-14 -2l-203 380q-10 19 -22 31t-20 15t-13.5 6.5t-5.5 10.5v8h355v-8q0 -8 -14.5 -12t-28.5 -11.5t-14 -23.5q0 -20 13 -43z" />
    <glyph glyph-name="w" unicode="w" horiz-adv-x="837" 
d="M357 236l42 104q12 28 12 47q0 20 -23.5 26.5t-23.5 16.5v6h254v-8q0 -6 -5.5 -9.5t-12 -5.5t-12 -8.5t-5.5 -17.5q0 -15 13 -45l48 -107h4l35 83q15 36 15 58q0 19 -14 27t-28.5 11.5t-14.5 11.5v10h190v-8q0 -7 -13.5 -12.5t-32 -11.5t-43 -31.5t-42.5 -67.5l-143 -322
l-20 -2q-87 184 -136 302h-2l-134 -300l-21 -2l-176 382q-10 21 -22 33t-20 15t-14 7t-6 11v7h333v-8q0 -7 -11 -10.5t-22 -11t-11 -23.5q0 -22 11 -45l47 -102h4z" />
    <glyph glyph-name="x" unicode="x" horiz-adv-x="617" 
d="M351 342l50 -78l38 64q23 38 23 58q0 21 -26 27.5t-26 13.5v8h186v-8q0 -6 -11.5 -10t-29.5 -9.5t-46.5 -30t-55.5 -66.5l-41 -63l108 -165q21 -32 43.5 -47.5t33.5 -19t11 -10.5v-6h-373v7q0 7 13.5 11t27 11t13.5 23q0 10 -31 58l-47 74l-44 -69q-27 -43 -27 -64
t27.5 -29t27.5 -15v-7h-190v7q0 6 11.5 10t29 9.5t45.5 30t55 64.5l54 81l-97 150q-17 26 -33 41.5t-25.5 19t-15 7t-5.5 9.5v7h356v-8q0 -6 -11 -9.5t-22.5 -11.5t-11.5 -25q0 -15 16 -40z" />
    <glyph glyph-name="y" unicode="y" horiz-adv-x="587" 
d="M378 210h3l49 100q18 37 18 60q0 24 -15 33t-30.5 12t-15.5 11v9h198v-8q0 -7 -12.5 -11.5t-31 -10.5t-44 -32t-46.5 -69l-173 -357q-42 -85 -83.5 -131.5t-102.5 -46.5q-49 0 -77.5 27.5t-28.5 69.5q0 36 25.5 61.5t64.5 25.5q49 0 78.5 -32t34.5 -75q30 28 75 120
l19 41h-28l-182 335q-14 27 -29 44t-24 21t-14.5 8.5t-5.5 11.5v8h353v-9q0 -8 -14.5 -11.5t-28.5 -11.5t-14 -26q0 -14 14 -40z" />
    <glyph glyph-name="z" unicode="z" horiz-adv-x="566" 
d="M520 435v-15q-160 -268 -241 -402h39q63 0 106.5 37.5t90.5 136.5q11 26 19 26q2 0 4 -0.5t4 -0.5l-39 -234l-6 -4q-63 21 -183 21h-297v14l241 404h-23q-51 0 -90 -31.5t-71 -113.5q-1 -2 -2.5 -6.5t-2.5 -6t-2.5 -5t-2.5 -5t-3 -3.5t-4 -2h-4l-5 1q5 29 31 211l7 4
q36 -12 78.5 -18t71.5 -7t84 -1h200z" />
    <glyph glyph-name="braceleft" unicode="{" horiz-adv-x="391" 
d="M279 112v-187q0 -25 2 -38.5t10 -28t25.5 -20.5t46.5 -6v-16q-27 -3 -50 -3q-194 0 -194 180v177q0 37 -4 60.5t-21 43t-47 23.5v16q44 13 58 40.5t14 87.5v102q0 84 47.5 138.5t157.5 54.5q10 0 38 -2v-16q-24 0 -40 -7t-24.5 -16.5t-13 -26.5t-5 -28.5t-0.5 -30.5v-106
q0 -185 -172 -195v-4q91 -7 131.5 -49.5t40.5 -142.5z" />
    <glyph glyph-name="bar" unicode="|" horiz-adv-x="302" 
d="M134 -141v885h38v-885h-38z" />
    <glyph glyph-name="braceright" unicode="}" horiz-adv-x="391" 
d="M113 -75v187q0 100 40.5 142.5t131.5 49.5v4q-172 10 -172 195v106q0 19 -1 30.5t-5.5 28.5t-12.5 26.5t-24.5 16.5t-40.5 7v16q26 2 38 2q57 0 98.5 -16t64 -44t33 -61t10.5 -72v-102q0 -60 14 -87.5t58 -40.5v-16q-30 -4 -47 -23.5t-21 -43t-4 -60.5v-177
q0 -180 -194 -180q-23 0 -50 3v16q47 0 65.5 20.5t18.5 72.5z" />
    <glyph glyph-name="asciitilde" unicode="~" 
d="M541 376l15 -4q-16 -72 -52 -122t-93 -50q-28 0 -95 16t-99 16q-77 0 -101 -47l-15 4q5 34 18 69t44.5 67t73.5 32q23 0 100 -17t107 -17q37 0 58.5 10t38.5 43z" />
    <glyph glyph-name="exclamdown" unicode="&#xa1;" horiz-adv-x="396" 
d="M190 222h22l108 -345q19 -57 -12 -109t-108 -52q-75 0 -109 52t-16 105zM105 357q0 40 28 69t67 29q40 0 68 -28.5t28 -69.5t-28 -69.5t-68 -28.5q-39 0 -67 29t-28 69z" />
    <glyph glyph-name="cent" unicode="&#xa2;" 
d="M315 -47l10 119q-114 4 -172.5 64t-58.5 153q0 100 72 170t199 71l9 110h22l-10 -111q83 -3 124 -35t41 -73q0 -32 -19 -52.5t-47 -20.5q-38 0 -57.5 27.5t-19.5 67.5q0 34 14 62q-8 2 -15 2q-9 0 -23 -4l-30 -340q35 -21 88 -21q45 0 96 15l8 -14q-32 -29 -89.5 -49
t-109.5 -22l-11 -119h-21zM296 311q0 -88 39 -130l27 314q-35 -24 -50.5 -77.5t-15.5 -106.5z" />
    <glyph glyph-name="sterling" unicode="&#xa3;" horiz-adv-x="649" 
d="M352 671q112 0 165.5 -44t53.5 -95q0 -37 -22 -59.5t-54 -22.5q-44 0 -64 30t-20 75q0 53 17 87q-20 3 -35 3q-91 0 -91 -105q0 -37 13 -108.5t14 -90.5h163v-24h-164q-5 -52 -41 -94q-31 -37 -89 -71v-5h273q40 0 67 15t37 33t19.5 33t17.5 15h2l5 -1l-68 -242h-506v16
q10 11 44 46.5t53.5 58t38 54.5t18.5 56q0 39 -40 86h-111v24h90q-59 67 -59 135q0 94 77 144.5t196 50.5z" />
    <glyph glyph-name="currency" unicode="&#xa4;" 
d="M168 390l-61 63l57 63l65 -63q53 33 103 33q53 0 103 -31l61 61l60 -63l-61 -63q30 -58 30 -108q0 -58 -29 -108l61 -61l-58 -64l-62 62q-50 -32 -105 -32q-54 0 -104 32l-61 -59l-60 59l60 62q-31 50 -31 107t32 110zM212 281q0 -52 35.5 -89t84.5 -37q50 0 85.5 37
t35.5 89q0 53 -35.5 89t-85.5 36q-49 0 -84.5 -36t-35.5 -89z" />
    <glyph glyph-name="yen" unicode="&#xa5;" 
d="M559 290h-481v20h105q-16 37 -111 260q-11 26 -25 42.5t-24 20.5t-17 8t-7 11v8h366v-7q0 -7 -8 -11.5t-18 -7.5t-18 -11.5t-8 -23.5q0 -18 12.5 -52.5t34.5 -84.5t28 -67l33 -86h1l80 205q15 38 15 66q0 26 -13.5 39.5t-29 15t-29 5.5t-13.5 12v8h231v-8q0 -8 -14 -13.5
t-33.5 -11.5t-46.5 -36t-47 -81l-80 -200h117v-20zM78 220h481v-20h-123v-112q0 -36 15.5 -51t31 -18t15.5 -11v-8h-353v8q0 7 9.5 10.5t21.5 6.5t21.5 19t9.5 44v112h-129v20z" />
    <glyph glyph-name="brokenbar" unicode="&#xa6;" horiz-adv-x="302" 
d="M172 366h-37v378h37v-378zM135 271h37v-412h-37v412z" />
    <glyph glyph-name="section" unicode="&#xa7;" horiz-adv-x="693" 
d="M286 377q-31 34 -50 57t-36.5 58.5t-17.5 66.5q0 44 28 77q-77 -39 -77 -111q0 -89 132 -221q17 -17 60.5 -58.5t65.5 -64.5t51 -57.5t41.5 -65t12.5 -59.5q0 -19 -6 -49.5t-14 -40.5q76 39 76 110q0 45 -28.5 95t-61 84.5t-91 92t-85.5 86.5zM371 -52q0 34 -32.5 78
t-78.5 89t-92 92t-78.5 103t-32.5 107q0 120 87.5 199t245.5 79q97 0 147.5 -36t50.5 -88q0 -39 -22 -61.5t-58 -22.5q-44 0 -68.5 34t-24.5 82q0 35 15 68q-12 2 -21 2q-41 0 -67 -21.5t-26 -57.5q0 -38 33 -79.5t80 -80.5t94 -83t80 -104t33 -126q0 -51 -20.5 -98
t-63 -87.5t-117 -64.5t-171.5 -24q-95 0 -140 38t-45 86q0 39 23.5 62.5t53.5 23.5q43 0 68 -33t25 -79q0 -45 -15 -75q12 -2 35 -2q39 0 70.5 22t31.5 58z" />
    <glyph glyph-name="dieresis" unicode="&#xa8;" horiz-adv-x="609" 
d="M119 623q0 37 26.5 63.5t63.5 26.5t63.5 -26.5t26.5 -63.5q0 -38 -26 -64.5t-64 -26.5t-64 26.5t-26 64.5zM332 623q0 37 26.5 63.5t63.5 26.5t63.5 -26.5t26.5 -63.5q0 -38 -26 -64.5t-64 -26.5t-64 26.5t-26 64.5z" />
    <glyph glyph-name="copyright" unicode="&#xa9;" horiz-adv-x="806" 
d="M413 563q55 0 113 -21l20 26h9v-172h-4q-13 0 -18 24q-10 50 -36.5 88t-63.5 38q-71 0 -71 -215q0 -81 11 -127t26 -59t38 -13q24 0 42 10t29.5 30t17.5 37.5t12 42.5q12 52 22 52h5v-189h-9l-22 25q-54 -27 -128 -27q-103 0 -164.5 62t-61.5 158q0 97 65 163.5t168 66.5
zM403 30q125 0 208.5 90.5t83.5 219.5t-83.5 220t-208.5 91q-126 0 -209 -91t-83 -220q0 -131 80.5 -220.5t211.5 -89.5zM403 -6q-151 0 -244 99t-93 247q0 145 96.5 246t240.5 101t240 -101t96 -246q0 -146 -96 -246t-240 -100z" />
    <glyph glyph-name="ordfeminine" unicode="&#xaa;" horiz-adv-x="430" 
d="M200 341q11 0 21 12v96q-47 -2 -47 -58q0 -50 26 -50zM410 328l3 -9q-35 -28 -101 -28q-75 0 -88 46q-41 -49 -110 -49q-42 0 -68 19.5t-26 55.5q0 38 28 62t64.5 32.5t80.5 8.5q20 0 27 -1v36q0 80 -51 80q-8 0 -13 -1q14 -22 14 -47q0 -23 -15.5 -41t-43.5 -18
q-22 0 -34 13t-12 31q0 32 31.5 57.5t116.5 25.5q88 0 125.5 -35.5t37.5 -89.5v-121q0 -16 7.5 -22t26.5 -5z" />
    <glyph glyph-name="guillemotleft" unicode="&#xab;" horiz-adv-x="487" 
d="M164 206l112 -201l-10 -11l-211 186q-15 14 -15 25q0 13 15 27l209 187l12 -11zM337 206l113 -201l-12 -11l-210 186q-15 15 -15 25q0 13 15 27l210 187l11 -11z" />
    <glyph glyph-name="logicalnot" unicode="&#xac;" 
d="M126 338h424v-258h-55v201h-369v57z" />
    <glyph glyph-name="sfthyphen" unicode="&#xad;" horiz-adv-x="351" 
d="M40 286h273v-80h-273v80z" />
    <glyph glyph-name="registered" unicode="&#xae;" horiz-adv-x="640" 
d="M319 171q-122 0 -197 80.5t-75 198.5t77.5 199.5t194.5 81.5t195.5 -81.5t78.5 -199.5q0 -117 -78.5 -198t-195.5 -81zM320 206q106 0 169.5 69t63.5 175q0 107 -66 176.5t-167 69.5q-102 0 -167 -67.5t-65 -178.5q0 -109 65.5 -176.5t166.5 -67.5zM290 593v-129h5
q22 0 35.5 18.5t13.5 45.5q0 29 -12.5 47t-37.5 18h-4zM310 454q26 -32 114 -24l48 -85q5 -10 13.5 -14.5t8.5 -7.5v-4h-114l-81 136h-9v-99q0 -19 9.5 -24.5t9.5 -7.5v-5h-147v5q0 4 6 5.5t11.5 7t5.5 19.5v209q0 11 -3.5 17t-8 7t-8 3t-3.5 6v4h193q40 0 69 -18t29 -58
q0 -43 -41.5 -59.5t-101.5 -12.5z" />
    <glyph glyph-name="macron" unicode="&#xaf;" horiz-adv-x="608" 
d="M486 653l-2 -109q-141 12 -341 0v89q99 15 343 20z" />
    <glyph glyph-name="degree" unicode="&#xb0;" horiz-adv-x="336" 
d="M85 565q0 -39 24.5 -64.5t61.5 -25.5q36 0 60.5 25.5t24.5 64.5q0 38 -24.5 64t-60.5 26q-37 0 -61.5 -26t-24.5 -64zM47 565q0 53 36 90.5t88 37.5q50 0 86.5 -37.5t36.5 -90.5q0 -54 -36 -91t-87 -37q-52 0 -88 37t-36 91z" />
    <glyph glyph-name="plusminus" unicode="&#xb1;" 
d="M123 55h424v-55h-424v55zM363 529v-174h184v-57h-184v-186h-54v186h-186v57h186v174h54z" />
    <glyph glyph-name="twosuperior" unicode="&#xb2;" horiz-adv-x="426" 
d="M345 300h-337l-3 13q25 30 65 68.5t63 62t41.5 61.5t18.5 83q0 43 -19 71t-56 17q24 -18 24 -61q0 -25 -15 -44t-43 -19q-26 0 -41 16t-15 39q0 10 5 23t19.5 31t48.5 29.5t83 11.5q86 0 126 -32t40 -77q0 -48 -39.5 -82t-108.5 -66.5t-93 -50.5h176q28 0 48 9t25.5 16.5
t12.5 20.5t16 12l5 -1z" />
    <glyph glyph-name="threesuperior" unicode="&#xb3;" horiz-adv-x="426" 
d="M251 515q65 -6 98 -35t33 -70q0 -52 -51 -85.5t-139 -33.5q-87 0 -130.5 28.5t-43.5 71.5q0 38 28 56.5t75 18.5q14 0 22 -1l4 -12q-14 -17 -14 -64q0 -82 44 -82q46 0 46 97q0 98 -87 98q-4 0 -12 -0.5t-12 -0.5l-3 14q32 6 53 17t29.5 26.5t11 28t2.5 30.5
q0 23 -11.5 44t-31.5 21q-7 0 -9 -1q14 -19 14 -45q0 -28 -17 -48.5t-46 -20.5q-27 0 -41.5 15t-14.5 37q0 11 4.5 22.5t18 26.5t46.5 24.5t82 9.5q83 0 123.5 -28.5t40.5 -68.5q0 -31 -29 -57.5t-83 -32.5z" />
    <glyph glyph-name="acute" unicode="&#xb4;" horiz-adv-x="609" 
d="M224 503l-6 15q28 21 49.5 48t31 44.5t21 44.5t13.5 31q14 30 29 44.5t39 14.5q33 0 51 -20t18 -46q0 -17 -11 -38t-36 -46.5t-77 -50.5t-122 -41z" />
    <glyph glyph-name="mu" unicode="&#xb5;" horiz-adv-x="668" 
d="M596 452v-348q0 -33 15 -46.5t29.5 -16.5t14.5 -11v-8q-41 -6 -129.5 -15.5t-134.5 -16.5l-6 7l5 82h-3q-39 -61 -101 -82v-115q0 -28 8.5 -44.5t19 -20.5t19 -9t8.5 -12v-6h-328v6q0 7 8.5 12t19.5 9.5t19.5 20.5t8.5 44v452q0 26 -9 40.5t-19.5 17.5t-19.5 6.5t-9 9.5
v8q168 24 269 38l6 -6v-350q0 -49 32 -49q31 0 60 48v241q0 26 -9 40.5t-19.5 17.5t-19.5 6.5t-9 9.5v8l268 39z" />
    <glyph glyph-name="mu" unicode="&#x3bc;" horiz-adv-x="668" 
d="M596 452v-348q0 -33 15 -46.5t29.5 -16.5t14.5 -11v-8q-41 -6 -129.5 -15.5t-134.5 -16.5l-6 7l5 82h-3q-39 -61 -101 -82v-115q0 -28 8.5 -44.5t19 -20.5t19 -9t8.5 -12v-6h-328v6q0 7 8.5 12t19.5 9.5t19.5 20.5t8.5 44v452q0 26 -9 40.5t-19.5 17.5t-19.5 6.5t-9 9.5
v8q168 24 269 38l6 -6v-350q0 -49 32 -49q31 0 60 48v241q0 26 -9 40.5t-19.5 17.5t-19.5 6.5t-9 9.5v8l268 39z" />
    <glyph glyph-name="paragraph" unicode="&#xb6;" horiz-adv-x="711" 
d="M347 -151v-5q47 16 76 53.5t38.5 76.5t9.5 84v596h-45v-634q0 -124 -79 -171zM243 -190q-96 0 -141 41t-45 92q0 40 24.5 64.5t55.5 24.5q47 0 72 -33t25 -82q0 -42 -19 -82q5 -1 14 -1q55 0 73.5 48t18.5 162v196h-37q-96 0 -157 63t-61 156q0 91 61.5 153t156.5 62h369
v-8q0 -10 -19 -13t-38 -18t-19 -54v-457q0 -142 -86 -228t-248 -86z" />
    <glyph glyph-name="periodcentered" unicode="&#xb7;" horiz-adv-x="272" 
d="M39 246q0 41 28 69.5t69 28.5t69 -28.5t28 -69.5t-28.5 -69.5t-68.5 -28.5t-68.5 28.5t-28.5 69.5z" />
    <glyph glyph-name="cedilla" unicode="&#xb8;" horiz-adv-x="514" 
d="M235 9l-33 -67q103 -1 154.5 -30.5t51.5 -72.5q0 -46 -57 -78.5t-156 -32.5q-34 0 -61 2v17q79 -1 109.5 22t30.5 56q0 25 -30 43t-86 19l61 126z" />
    <glyph glyph-name="onesuperior" unicode="&#xb9;" horiz-adv-x="406" 
d="M280 692v-334q0 -19 11 -28t22.5 -12.5t11.5 -8.5v-9h-246v7q0 6 13 10t26 13.5t13 29.5v256q0 20 -24 22q-2 0 -6 0.5t-6 1t-5 1t-4.5 1t-3.5 2t-2.5 3t-0.5 3.5v8l192 43z" />
    <glyph glyph-name="ordmasculine" unicode="&#xba;" horiz-adv-x="451" 
d="M19 447q0 67 53.5 110.5t151.5 43.5q106 0 156 -45t50 -109t-52.5 -110.5t-154.5 -46.5t-153 45t-51 112zM189 445q0 -67 7 -103t29 -36q35 0 35 139q0 67 -7 103.5t-28 36.5q-36 0 -36 -140z" />
    <glyph glyph-name="guillemotright" unicode="&#xbb;" horiz-adv-x="487" 
d="M213 5l113 201l-112 202l11 11l211 -187q14 -14 14 -27q0 -11 -14 -25l-211 -186zM40 5l113 201l-113 202l12 11l210 -187q14 -13 14 -27q0 -11 -14 -25l-211 -186z" />
    <glyph glyph-name="onequarter" unicode="&#xbc;" horiz-adv-x="847" 
d="M584 720l-335 -759h-22l336 759h21zM276 692v-334q0 -19 11 -28t22.5 -12.5t11.5 -8.5v-9h-246v7q0 6 13 10t26 13.5t13 29.5v256q0 20 -24 22q-2 0 -6 0.5t-6 1t-5 1t-4.5 1t-3.5 2t-2.5 3t-0.5 3.5v8l192 43zM577 107h-191v15q85 118 163 270h176q-47 -79 -141 -152
t-173 -116h166v74q81 15 140 54q2 0 6 -2v-126h51v-17h-51v-49q0 -19 10.5 -28t21.5 -12.5t11 -8.5v-9h-237v7q0 6 12 10t24 13.5t12 29.5v47z" />
    <glyph glyph-name="onehalf" unicode="&#xbd;" horiz-adv-x="847" 
d="M555 720l-335 -759h-22l336 759h21zM264 692v-334q0 -19 11 -28t22.5 -12.5t11.5 -8.5v-9h-246v7q0 6 13 10t26 13.5t13 29.5v256q0 20 -24 22q-2 0 -6 0.5t-6 1t-5 1t-4.5 1t-3.5 2t-2.5 3t-0.5 3.5v8l192 43zM748 0h-337l-3 13q25 30 65 68.5t63 62t41.5 61.5t18.5 83
q0 43 -19 71t-56 17q24 -18 24 -61q0 -25 -15 -44t-43 -19q-26 0 -41 16t-15 39q0 10 5 23t19.5 31t48.5 29.5t83 11.5q86 0 126 -32t40 -77q0 -48 -39.5 -82t-108.5 -66.5t-93 -50.5h176q28 0 48 9t25.5 16.5t12.5 20.5t16 12l5 -1z" />
    <glyph glyph-name="threequarters" unicode="&#xbe;" horiz-adv-x="847" 
d="M627 720l-335 -759h-22l336 759h21zM263 515q65 -6 98 -35t33 -70q0 -52 -51 -85.5t-139 -33.5q-87 0 -130.5 28.5t-43.5 71.5q0 38 28 56.5t75 18.5q14 0 22 -1l4 -12q-14 -17 -14 -64q0 -82 44 -82q46 0 46 97q0 98 -87 98q-4 0 -12 -0.5t-12 -0.5l-3 14q32 6 53 17
t29.5 26.5t11 28t2.5 30.5q0 23 -11.5 44t-31.5 21q-7 0 -9 -1q14 -19 14 -45q0 -28 -17 -48.5t-46 -20.5q-27 0 -41.5 15t-14.5 37q0 11 4.5 22.5t18 26.5t46.5 24.5t82 9.5q83 0 123.5 -28.5t40.5 -68.5q0 -31 -29 -57.5t-83 -32.5zM618 107h-191v15q85 118 163 270h176
q-47 -79 -141 -152t-173 -116h166v74q81 15 140 54q2 0 6 -2v-126h51v-17h-51v-49q0 -19 11 -28t21.5 -12.5t10.5 -8.5v-9h-237v7q0 6 12 10t24 13.5t12 29.5v47z" />
    <glyph glyph-name="questiondown" unicode="&#xbf;" horiz-adv-x="589" 
d="M296 -299q-73 0 -130 15t-96.5 54.5t-39.5 100.5q0 47 28.5 86t69 65t80.5 48t68.5 44.5t28.5 44.5q0 30 -53 45l5 18q123 -2 183 -41.5t60 -99.5q0 -35 -27 -67.5t-65.5 -57.5t-77 -49.5t-65.5 -53t-27 -58.5q0 -37 27 -53.5t67 -16.5q32 0 53 7q-24 33 -24 79
q0 47 25.5 80t70.5 33q33 0 55 -22t22 -60q0 -56 -58 -98.5t-180 -42.5zM221 351q0 40 28.5 68t68.5 28t68 -28t28 -68t-28 -68.5t-68 -28.5t-68.5 28.5t-28.5 68.5z" />
    <glyph glyph-name="Agrave" unicode="&#xc0;" horiz-adv-x="760" 
d="M430 102l-39 109h-202l-17 -49q-22 -62 -22 -81q0 -33 22.5 -45.5t45.5 -15.5t23 -12v-8h-235v7q0 8 14.5 12.5t34 9t42.5 27.5t38 63l153 424q12 35 12 55q0 22 -12 34t-26 14.5t-26 6.5t-12 12v9h257l204 -582q10 -30 23.5 -46.5t22.5 -19t15.5 -6t6.5 -12.5v-8h-367v7
q0 7 8 11.5t18 7.5t18 13t8 27q0 15 -8 36zM289 491l-93 -261h189l-92 261h-4zM496 743l-4 -15q-66 4 -117.5 17.5t-79 30t-45.5 36.5t-23 33.5t-5 24.5q0 25 18 45.5t52 20.5q36 0 63 -45q3 -4 18.5 -28t28 -40.5t38 -40t56.5 -39.5z" />
    <glyph glyph-name="Aacute" unicode="&#xc1;" horiz-adv-x="760" 
d="M430 102l-39 109h-202l-17 -49q-22 -62 -22 -81q0 -33 22.5 -45.5t45.5 -15.5t23 -12v-8h-235v7q0 8 14.5 12.5t34 9t42.5 27.5t38 63l153 424q12 35 12 55q0 22 -12 34t-26 14.5t-26 6.5t-12 12v9h257l204 -582q10 -30 23.5 -46.5t22.5 -19t15.5 -6t6.5 -12.5v-8h-367v7
q0 7 8 11.5t18 7.5t18 13t8 27q0 15 -8 36zM289 491l-93 -261h189l-92 261h-4zM289 728q-1 3 -2.5 8t-1.5 7q25 13 46 29.5t36.5 35t25 31t20.5 30.5t13 22q29 45 64 45q33 0 51 -20.5t18 -45.5q0 -11 -5 -24.5t-23 -33.5t-45.5 -36.5t-79 -30t-117.5 -17.5z" />
    <glyph glyph-name="Acircumflex" unicode="&#xc2;" horiz-adv-x="760" 
d="M430 102l-39 109h-202l-17 -49q-22 -62 -22 -81q0 -33 22.5 -45.5t45.5 -15.5t23 -12v-8h-235v7q0 8 14.5 12.5t34 9t42.5 27.5t38 63l153 424q12 35 12 55q0 22 -12 34t-26 14.5t-26 6.5t-12 12v9h257l204 -582q10 -30 23.5 -46.5t22.5 -19t15.5 -6t6.5 -12.5v-8h-367v7
q0 7 8 11.5t18 7.5t18 13t8 27q0 15 -8 36zM289 491l-93 -261h189l-92 261h-4zM569 722l-172 77l-180 -76l-11 15l172 176q13 13 22 13q10 0 21 -13l159 -179z" />
    <glyph glyph-name="Atilde" unicode="&#xc3;" horiz-adv-x="760" 
d="M430 102l-39 109h-202l-17 -49q-22 -62 -22 -81q0 -33 22.5 -45.5t45.5 -15.5t23 -12v-8h-235v7q0 8 14.5 12.5t34 9t42.5 27.5t38 63l153 424q12 35 12 55q0 22 -12 34t-26 14.5t-26 6.5t-12 12v9h257l204 -582q10 -30 23.5 -46.5t22.5 -19t15.5 -6t6.5 -12.5v-8h-367v7
q0 7 8 11.5t18 7.5t18 13t8 27q0 15 -8 36zM289 491l-93 -261h189l-92 261h-4zM581 885l13 -4q-11 -64 -42 -105t-80 -41q-24 0 -88.5 15t-91.5 15q-60 0 -83 -44l-13 4q4 23 10.5 44t19.5 46.5t36 41t52 15.5q20 0 94 -15.5t100 -15.5q30 0 46 8.5t27 35.5z" />
    <glyph glyph-name="Adieresis" unicode="&#xc4;" horiz-adv-x="760" 
d="M430 102l-39 109h-202l-17 -49q-22 -62 -22 -81q0 -33 22.5 -45.5t45.5 -15.5t23 -12v-8h-235v7q0 8 14.5 12.5t34 9t42.5 27.5t38 63l153 424q12 35 12 55q0 22 -12 34t-26 14.5t-26 6.5t-12 12v9h257l204 -582q10 -30 23.5 -46.5t22.5 -19t15.5 -6t6.5 -12.5v-8h-367v7
q0 7 8 11.5t18 7.5t18 13t8 27q0 15 -8 36zM289 491l-93 -261h189l-92 261h-4zM189 829q0 37 26 63t63 26t63.5 -26t26.5 -63t-26 -63.5t-64 -26.5q-37 0 -63 26t-26 64zM406 829q0 37 26 63t63 26t63.5 -26t26.5 -63t-26.5 -63.5t-63.5 -26.5t-63 26t-26 64z" />
    <glyph glyph-name="Aring" unicode="&#xc5;" horiz-adv-x="760" 
d="M430 102l-39 109h-202l-17 -49q-22 -62 -22 -81q0 -33 22.5 -45.5t45.5 -15.5t23 -12v-8h-235v7q0 8 14.5 12.5t34 9t42.5 27.5t38 63l153 424q12 35 12 55q0 22 -12 34t-26 14.5t-26 6.5t-12 12v9h257l204 -582q10 -30 23.5 -46.5t22.5 -19t15.5 -6t6.5 -12.5v-8h-367v7
q0 7 8 11.5t18 7.5t18 13t8 27q0 15 -8 36zM289 491l-93 -261h189l-92 261h-4zM385 710q-49 0 -81.5 31.5t-32.5 79.5q0 47 32.5 79.5t81.5 32.5q47 0 79 -32t32 -80t-32 -79.5t-79 -31.5zM385 896q-33 0 -54 -21.5t-21 -53.5q0 -33 21 -54.5t54 -21.5q31 0 51.5 22t20.5 54
t-20.5 53.5t-51.5 21.5z" />
    <glyph glyph-name="AE" unicode="&#xc6;" horiz-adv-x="1079" 
d="M414 665v9h339q140 0 242 36l6 -2l27 -276q-2 0 -4 -1q-9 0 -12.5 4.5t-10.5 22.5q-44 112 -93.5 153.5t-140.5 41.5h-36v-290h23q41 0 65.5 21t30 46t12 46t15.5 21h6v-298h-7q-11 0 -17 22.5t-11 49.5t-28 49.5t-63 22.5h-26v-254q0 -34 12.5 -51t55.5 -17h17
q68 0 119.5 54.5t108.5 187.5l4.5 9t3.5 7.5t2.5 5.5t3 4t3.5 2t4 1t8 -2q-40 -244 -52 -314l-5 -2q-63 26 -187 26h-415v8q0 8 17 11.5t34 18.5t17 51v145h-236l-69 -103q-28 -42 -28 -67q0 -23 22.5 -32.5t45 -12.5t22.5 -11v-8h-245v7q0 8 13 12.5t33 9.5t50.5 30
t58.5 66l329 484q-4 22 -20.5 31t-30 13t-13.5 12zM480 579q-43 -63 -123 -181t-98 -145h223v326h-2z" />
    <glyph glyph-name="Ccedilla" unicode="&#xc7;" horiz-adv-x="684" 
d="M397 690q88 0 183 -30l35 47q2 0 5.5 -0.5t4.5 -0.5l9 -276h-4q-8 0 -10.5 4t-11.5 28q-36 99 -74.5 152.5t-92.5 53.5q-63 0 -92.5 -81.5t-29.5 -258.5q0 -125 16.5 -197.5t43 -96.5t68.5 -24q59 0 107.5 69t71.5 166q10 44 21 44h6l-11 -308q-1 0 -5 -0.5t-6 -0.5
l-33 48q-104 -42 -202 -42q-6 0 -16 0.5t-15 0.5l-22 -45q103 -1 154.5 -30.5t51.5 -72.5q0 -46 -57 -78.5t-156 -32.5q-34 0 -61 2v17q79 -1 109.5 22t30.5 56q0 25 -30 43t-86 19l49 102q-144 14 -227 107.5t-83 233.5q0 153 98.5 256.5t260.5 103.5z" />
    <glyph glyph-name="Egrave" unicode="&#xc8;" horiz-adv-x="700" 
d="M369 674q140 0 242 36l6 -2l27 -276q-2 0 -4 -1q-9 0 -12.5 4.5t-10.5 22.5q-44 112 -93.5 153.5t-140.5 41.5h-36v-290h23q41 0 65.5 21t30 46t12 46t15.5 21h6v-298h-7q-11 0 -17 22.5t-11 49.5t-28 49.5t-63 22.5h-26v-254q0 -34 12.5 -51t55.5 -17h17
q68 0 119.5 54.5t108.5 187.5l4.5 9t3.5 7.5t2.5 5.5t3 4t3.5 2t4 1t8 -2q-40 -244 -52 -314l-5 -2q-63 26 -187 26h-424v8q0 7 12 11t26.5 7t26.5 19t12 45v493q0 28 -11.5 44t-25.5 19t-25.5 7.5t-11.5 11.5v9h345zM470 743l-4 -15q-66 4 -117.5 17.5t-79 30t-45.5 36.5
t-23 33.5t-5 24.5q0 25 18 45.5t52 20.5q36 0 63 -45q3 -4 18.5 -28t28 -40.5t38 -40t56.5 -39.5z" />
    <glyph glyph-name="Eacute" unicode="&#xc9;" horiz-adv-x="700" 
d="M369 674q140 0 242 36l6 -2l27 -276q-2 0 -4 -1q-9 0 -12.5 4.5t-10.5 22.5q-44 112 -93.5 153.5t-140.5 41.5h-36v-290h23q41 0 65.5 21t30 46t12 46t15.5 21h6v-298h-7q-11 0 -17 22.5t-11 49.5t-28 49.5t-63 22.5h-26v-254q0 -34 12.5 -51t55.5 -17h17
q68 0 119.5 54.5t108.5 187.5l4.5 9t3.5 7.5t2.5 5.5t3 4t3.5 2t4 1t8 -2q-40 -244 -52 -314l-5 -2q-63 26 -187 26h-424v8q0 7 12 11t26.5 7t26.5 19t12 45v493q0 28 -11.5 44t-25.5 19t-25.5 7.5t-11.5 11.5v9h345zM234 728q-1 3 -2.5 8t-1.5 7q25 13 46 29.5t36.5 35
t25 31t20.5 30.5t13 22q29 45 64 45q33 0 51 -20.5t18 -45.5q0 -11 -5 -24.5t-23 -33.5t-45.5 -36.5t-79 -30t-117.5 -17.5z" />
    <glyph glyph-name="Ecircumflex" unicode="&#xca;" horiz-adv-x="700" 
d="M369 674q140 0 242 36l6 -2l27 -276q-2 0 -4 -1q-9 0 -12.5 4.5t-10.5 22.5q-44 112 -93.5 153.5t-140.5 41.5h-36v-290h23q41 0 65.5 21t30 46t12 46t15.5 21h6v-298h-7q-11 0 -17 22.5t-11 49.5t-28 49.5t-63 22.5h-26v-254q0 -34 12.5 -51t55.5 -17h17
q68 0 119.5 54.5t108.5 187.5l4.5 9t3.5 7.5t2.5 5.5t3 4t3.5 2t4 1t8 -2q-40 -244 -52 -314l-5 -2q-63 26 -187 26h-424v8q0 7 12 11t26.5 7t26.5 19t12 45v493q0 28 -11.5 44t-25.5 19t-25.5 7.5t-11.5 11.5v9h345zM523 732l-172 77l-180 -76l-11 15l172 176q13 13 22 13
q10 0 21 -13l159 -179z" />
    <glyph glyph-name="Edieresis" unicode="&#xcb;" horiz-adv-x="700" 
d="M369 674q140 0 242 36l6 -2l27 -276q-2 0 -4 -1q-9 0 -12.5 4.5t-10.5 22.5q-44 112 -93.5 153.5t-140.5 41.5h-36v-290h23q41 0 65.5 21t30 46t12 46t15.5 21h6v-298h-7q-11 0 -17 22.5t-11 49.5t-28 49.5t-63 22.5h-26v-254q0 -34 12.5 -51t55.5 -17h17
q68 0 119.5 54.5t108.5 187.5l4.5 9t3.5 7.5t2.5 5.5t3 4t3.5 2t4 1t8 -2q-40 -244 -52 -314l-5 -2q-63 26 -187 26h-424v8q0 7 12 11t26.5 7t26.5 19t12 45v493q0 28 -11.5 44t-25.5 19t-25.5 7.5t-11.5 11.5v9h345zM146 829q0 37 26 63t63 26t63.5 -26t26.5 -63
t-26.5 -63.5t-63.5 -26.5t-63 26t-26 64zM363 829q0 37 26 63t63 26t63.5 -26t26.5 -63t-26 -63.5t-64 -26.5q-37 0 -63 26t-26 64z" />
    <glyph glyph-name="Igrave" unicode="&#xcc;" horiz-adv-x="457" 
d="M427 0h-398v8q0 8 18.5 11.5t37.5 18.5t19 51v495q0 28 -11.5 43.5t-26 18.5t-26 7.5t-11.5 11.5v9h398v-9q0 -7 -11.5 -11.5t-26 -7.5t-26 -18.5t-11.5 -43.5v-495q0 -36 19 -51t37.5 -18.5t18.5 -11.5v-8zM362 743l-4 -15q-66 4 -117.5 17.5t-79 30t-45.5 36.5
t-23 33.5t-5 24.5q0 25 18 45.5t52 20.5q36 0 63 -45q3 -4 18.5 -28t28 -40.5t38 -40t56.5 -39.5z" />
    <glyph glyph-name="Iacute" unicode="&#xcd;" horiz-adv-x="457" 
d="M427 0h-398v8q0 8 18.5 11.5t37.5 18.5t19 51v495q0 28 -11.5 43.5t-26 18.5t-26 7.5t-11.5 11.5v9h398v-9q0 -7 -11.5 -11.5t-26 -7.5t-26 -18.5t-11.5 -43.5v-495q0 -36 19 -51t37.5 -18.5t18.5 -11.5v-8zM115 728q-1 3 -2.5 8t-1.5 7q25 13 46 29.5t36.5 35t25 31
t20.5 30.5t13 22q29 45 64 45q33 0 51 -20.5t18 -45.5q0 -11 -5 -24.5t-23 -33.5t-45.5 -36.5t-79 -30t-117.5 -17.5z" />
    <glyph glyph-name="Icircumflex" unicode="&#xce;" horiz-adv-x="457" 
d="M427 0h-398v8q0 8 18.5 11.5t37.5 18.5t19 51v495q0 28 -11.5 43.5t-26 18.5t-26 7.5t-11.5 11.5v9h398v-9q0 -7 -11.5 -11.5t-26 -7.5t-26 -18.5t-11.5 -43.5v-495q0 -36 19 -51t37.5 -18.5t18.5 -11.5v-8zM405 732l-172 77l-180 -76l-11 15l172 176q13 13 22 13
q10 0 21 -13l159 -179z" />
    <glyph glyph-name="Idieresis" unicode="&#xcf;" horiz-adv-x="457" 
d="M427 0h-398v8q0 8 18.5 11.5t37.5 18.5t19 51v495q0 28 -11.5 43.5t-26 18.5t-26 7.5t-11.5 11.5v9h398v-9q0 -7 -11.5 -11.5t-26 -7.5t-26 -18.5t-11.5 -43.5v-495q0 -36 19 -51t37.5 -18.5t18.5 -11.5v-8zM33 829q0 37 26 63t63 26t63.5 -26t26.5 -63t-26 -63.5
t-64 -26.5q-37 0 -63 26t-26 64zM250 829q0 37 26 63t63 26t63.5 -26t26.5 -63t-26.5 -63.5t-63.5 -26.5t-63 26t-26 64z" />
    <glyph glyph-name="Eth" unicode="&#xd0;" horiz-adv-x="824" 
d="M414 0h-386v8q0 7 10 11t22 7.5t22 19.5t10 44v256h-66v20h66v218q0 27 -10 43t-22 19.5t-22 8t-10 11.5v8h374q174 0 279 -87t105 -250q0 -41 -8 -81.5t-33 -88.5t-64.5 -83.5t-108.5 -59.5t-158 -24zM340 653v-287h85v-20h-85v-266q0 -60 59 -60q112 0 112 292
q0 186 -34 263.5t-124 77.5h-13z" />
    <glyph glyph-name="Ntilde" unicode="&#xd1;" horiz-adv-x="814" 
d="M130 149v434q0 29 -13 45t-29 19t-29 7t-13 11v9h335l282 -378l3 2v229q0 50 -18.5 79t-40 35t-40 11t-18.5 13v9h255v-9q0 -8 -12.5 -11.5t-30 -8.5t-34.5 -17t-29.5 -45t-12.5 -85v-508l-100 -9l-433 596l-1 -1h-2v-430q0 -41 12 -67.5t29 -36.5t34 -15t29 -8.5
t12 -10.5v-8h-254v8q0 7 12.5 10t29.5 8t34.5 16t30 38t12.5 69zM615 901l13 -4q-11 -64 -42 -105t-80 -41q-24 0 -88.5 15t-91.5 15q-60 0 -83 -44l-13 4q4 23 10.5 44t19.5 46.5t36 41t52 15.5q20 0 94 -15.5t100 -15.5q30 0 46 8.5t27 35.5z" />
    <glyph glyph-name="Ograve" unicode="&#xd2;" horiz-adv-x="821" 
d="M38 341q0 151 97.5 250.5t273.5 99.5q80 0 145 -20t107 -54t70 -79.5t40 -94.5t12 -102q0 -67 -22.5 -129t-66 -113.5t-117.5 -82.5t-169 -31q-94 0 -167 29.5t-116.5 80t-65 113t-21.5 133.5zM320 336q0 -173 20.5 -253t71.5 -80q52 0 71 80t19 253q0 181 -19 258.5
t-73 77.5q-51 0 -70.5 -89t-19.5 -247zM540 746l-4 -15q-66 4 -117.5 17.5t-79 30t-45.5 36.5t-23 33.5t-5 24.5q0 25 18 45.5t52 20.5q36 0 63 -45q3 -4 18.5 -28t28 -40.5t38 -40t56.5 -39.5z" />
    <glyph glyph-name="Oacute" unicode="&#xd3;" horiz-adv-x="821" 
d="M38 341q0 151 97.5 250.5t273.5 99.5q80 0 145 -20t107 -54t70 -79.5t40 -94.5t12 -102q0 -67 -22.5 -129t-66 -113.5t-117.5 -82.5t-169 -31q-94 0 -167 29.5t-116.5 80t-65 113t-21.5 133.5zM320 336q0 -173 20.5 -253t71.5 -80q52 0 71 80t19 253q0 181 -19 258.5
t-73 77.5q-51 0 -70.5 -89t-19.5 -247zM309 732q-1 3 -2.5 8t-1.5 7q25 13 46 29.5t36.5 35t25 31t20.5 30.5t13 22q29 45 64 45q33 0 51 -20.5t18 -45.5q0 -11 -5 -24.5t-23 -33.5t-45.5 -36.5t-79 -30t-117.5 -17.5z" />
    <glyph glyph-name="Ocircumflex" unicode="&#xd4;" horiz-adv-x="821" 
d="M38 341q0 151 97.5 250.5t273.5 99.5q80 0 145 -20t107 -54t70 -79.5t40 -94.5t12 -102q0 -67 -22.5 -129t-66 -113.5t-117.5 -82.5t-169 -31q-94 0 -167 29.5t-116.5 80t-65 113t-21.5 133.5zM320 336q0 -173 20.5 -253t71.5 -80q52 0 71 80t19 253q0 181 -19 258.5
t-73 77.5q-51 0 -70.5 -89t-19.5 -247zM587 732l-172 77l-180 -76l-11 15l172 176q13 13 22 13q10 0 21 -13l159 -179z" />
    <glyph glyph-name="Otilde" unicode="&#xd5;" horiz-adv-x="821" 
d="M38 341q0 151 97.5 250.5t273.5 99.5q80 0 145 -20t107 -54t70 -79.5t40 -94.5t12 -102q0 -67 -22.5 -129t-66 -113.5t-117.5 -82.5t-169 -31q-94 0 -167 29.5t-116.5 80t-65 113t-21.5 133.5zM320 336q0 -173 20.5 -253t71.5 -80q52 0 71 80t19 253q0 181 -19 258.5
t-73 77.5q-51 0 -70.5 -89t-19.5 -247zM599 912l13 -4q-11 -64 -42 -105t-80 -41q-24 0 -88.5 15t-91.5 15q-60 0 -83 -44l-13 4q4 23 10.5 44t19.5 46.5t36 41t52 15.5q20 0 94 -15.5t100 -15.5q30 0 46 8.5t27 35.5z" />
    <glyph glyph-name="Odieresis" unicode="&#xd6;" horiz-adv-x="821" 
d="M38 341q0 151 97.5 250.5t273.5 99.5q80 0 145 -20t107 -54t70 -79.5t40 -94.5t12 -102q0 -67 -22.5 -129t-66 -113.5t-117.5 -82.5t-169 -31q-94 0 -167 29.5t-116.5 80t-65 113t-21.5 133.5zM320 336q0 -173 20.5 -253t71.5 -80q52 0 71 80t19 253q0 181 -19 258.5
t-73 77.5q-51 0 -70.5 -89t-19.5 -247zM212 829q0 37 26 63t63 26t63.5 -26t26.5 -63t-26.5 -63.5t-63.5 -26.5t-63 26t-26 64zM429 829q0 37 26 63t63 26t63.5 -26t26.5 -63t-26 -63.5t-64 -26.5q-37 0 -63 26t-26 64z" />
    <glyph glyph-name="multiply" unicode="&#xd7;" 
d="M324 269l-133 -140q-7 8 -21.5 23.5t-15.5 16.5l132 140l-129 136l38 39l129 -136l129 135l37 -39l-128 -135l129 -136q-7 -8 -21.5 -23.5t-15.5 -16.5q-15 15 -41 42.5t-48 50.5t-41 43z" />
    <glyph glyph-name="Oslash" unicode="&#xd8;" horiz-adv-x="821" 
d="M38 341q0 151 97.5 250.5t273.5 99.5q111 0 196 -41l35 53l16 -11l-34 -51q82 -46 121.5 -126.5t39.5 -173.5q0 -67 -22.5 -129t-66 -113.5t-117.5 -82.5t-169 -31q-112 0 -196 42l-37 -57l-16 11l37 56q-79 46 -118.5 126.5t-39.5 177.5zM502 336q0 67 -3 121l-175 -262
q13 -192 88 -192q52 0 71 80t19 253zM320 336q0 -77 2 -110l176 262q-7 96 -27.5 140t-60.5 44q-51 0 -70.5 -89t-19.5 -247z" />
    <glyph glyph-name="Ugrave" unicode="&#xd9;" horiz-adv-x="806" 
d="M671 283v244q0 41 -12.5 67.5t-29.5 37t-34.5 15t-30 8t-12.5 10.5v9h256v-9q0 -7 -12 -10t-29.5 -8t-35 -15.5t-29.5 -38t-12 -69.5v-226q0 -71 -12 -123t-42 -97.5t-88.5 -69t-145.5 -23.5q-170 0 -244.5 77t-74.5 223l-1 299q0 36 -16.5 51t-33.5 19t-17 12v8h387v-8
q0 -8 -18 -12t-35.5 -19t-17.5 -51v-349q0 -103 37.5 -157t124.5 -54q83 0 130.5 69t47.5 190zM556 743l-4 -15q-66 4 -117.5 17.5t-79 30t-45.5 36.5t-23 33.5t-5 24.5q0 25 18 45.5t52 20.5q36 0 63 -45q3 -4 18.5 -28t28 -40.5t38 -40t56.5 -39.5z" />
    <glyph glyph-name="Uacute" unicode="&#xda;" horiz-adv-x="806" 
d="M671 283v244q0 41 -12.5 67.5t-29.5 37t-34.5 15t-30 8t-12.5 10.5v9h256v-9q0 -7 -12 -10t-29.5 -8t-35 -15.5t-29.5 -38t-12 -69.5v-226q0 -71 -12 -123t-42 -97.5t-88.5 -69t-145.5 -23.5q-170 0 -244.5 77t-74.5 223l-1 299q0 36 -16.5 51t-33.5 19t-17 12v8h387v-8
q0 -8 -18 -12t-35.5 -19t-17.5 -51v-349q0 -103 37.5 -157t124.5 -54q83 0 130.5 69t47.5 190zM321 728q-1 3 -2.5 8t-1.5 7q25 13 46 29.5t36.5 35t25 31t20.5 30.5t13 22q29 45 64 45q33 0 51 -20.5t18 -45.5q0 -11 -5 -24.5t-23 -33.5t-45.5 -36.5t-79 -30t-117.5 -17.5z
" />
    <glyph glyph-name="Ucircumflex" unicode="&#xdb;" horiz-adv-x="806" 
d="M671 283v244q0 41 -12.5 67.5t-29.5 37t-34.5 15t-30 8t-12.5 10.5v9h256v-9q0 -7 -12 -10t-29.5 -8t-35 -15.5t-29.5 -38t-12 -69.5v-226q0 -71 -12 -123t-42 -97.5t-88.5 -69t-145.5 -23.5q-170 0 -244.5 77t-74.5 223l-1 299q0 36 -16.5 51t-33.5 19t-17 12v8h387v-8
q0 -8 -18 -12t-35.5 -19t-17.5 -51v-349q0 -103 37.5 -157t124.5 -54q83 0 130.5 69t47.5 190zM595 732l-172 77l-180 -76l-11 15l172 176q13 13 22 13q10 0 21 -13l159 -179z" />
    <glyph glyph-name="Udieresis" unicode="&#xdc;" horiz-adv-x="806" 
d="M671 283v244q0 41 -12.5 67.5t-29.5 37t-34.5 15t-30 8t-12.5 10.5v9h256v-9q0 -7 -12 -10t-29.5 -8t-35 -15.5t-29.5 -38t-12 -69.5v-226q0 -71 -12 -123t-42 -97.5t-88.5 -69t-145.5 -23.5q-170 0 -244.5 77t-74.5 223l-1 299q0 36 -16.5 51t-33.5 19t-17 12v8h387v-8
q0 -8 -18 -12t-35.5 -19t-17.5 -51v-349q0 -103 37.5 -157t124.5 -54q83 0 130.5 69t47.5 190zM209 829q0 37 26 63t63 26t63.5 -26t26.5 -63t-26 -63.5t-64 -26.5q-37 0 -63 26t-26 64zM426 829q0 37 26 63t63 26t63.5 -26t26.5 -63t-26.5 -63.5t-63.5 -26.5t-63 26t-26 64
z" />
    <glyph glyph-name="Yacute" unicode="&#xdd;" horiz-adv-x="734" 
d="M162 8q0 8 18.5 11.5t37 18.5t18.5 51v166l-155 328q-12 26 -28 41.5t-27.5 19.5t-19 9t-7.5 12v9h408v-8q0 -9 -17.5 -14t-35 -14.5t-17.5 -28.5q0 -15 12 -37l122 -240h2l86 192q17 40 17 61q0 27 -16 41.5t-35 17.5t-35 8t-16 13v9h259v-9q0 -8 -11.5 -12.5t-28 -8
t-40.5 -23t-44 -51.5q-18 -28 -32 -60l-92 -201v-220q0 -36 18.5 -51t37 -18.5t18.5 -11.5v-8h-397v8zM275 728q-1 3 -2.5 8t-1.5 7q25 13 46 29.5t36.5 35t25 31t20.5 30.5t13 22q29 45 64 45q33 0 51 -20.5t18 -45.5q0 -11 -5 -24.5t-23 -33.5t-45.5 -36.5t-79 -30
t-117.5 -17.5z" />
    <glyph glyph-name="Thorn" unicode="&#xde;" horiz-adv-x="724" 
d="M393 0h-376v8q0 8 16 11.5t32 18.5t16 51v495q0 36 -16 50.5t-32 18.5t-16 12v9h376v-9q0 -7 -10 -11.5t-21.5 -7.5t-21.5 -18.5t-10 -43.5v-37q58 9 113 9q39 0 75 -6t72.5 -21t63 -38t43.5 -60t17 -85q0 -103 -84.5 -157.5t-212.5 -54.5q-53 0 -87 5v-50q0 -36 16 -51
t31.5 -18.5t15.5 -11.5v-8zM330 529v-372q61 0 92.5 56t31.5 138q0 79 -26 127t-98 51z" />
    <glyph glyph-name="germandbls" unicode="&#xdf;" horiz-adv-x="698" 
d="M334 731q131 0 192 -49.5t61 -121.5q0 -50 -36.5 -93.5t-109.5 -57.5v-4q56 -2 99 -17.5t67 -36.5t39 -50t19.5 -53.5t4.5 -51.5q0 -87 -57.5 -149t-149.5 -62q-32 0 -62.5 6.5t-58 20t-44.5 38t-17 56.5q0 29 19 48t43 19q29 0 46 -21.5t17 -51.5q0 -48 -34 -76
q25 4 40 18.5t21 44.5t7.5 52.5t1.5 69.5q0 178 -117 188l-2 19q66 12 66 158q0 137 -64 137q-25 0 -41 -20.5t-16 -52.5v-630l-6 -8h-267v6q0 7 8.5 12t19.5 9t19.5 19t8.5 40v326q0 133 72.5 226t210.5 93z" />
    <glyph glyph-name="agrave" unicode="&#xe0;" horiz-adv-x="599" 
d="M319 228q-48 0 -62.5 -22.5t-14.5 -71.5q0 -83 35 -83q18 0 44 32q-2 16 -2 39v106zM536 264v-163q0 -33 9.5 -44.5t33.5 -13.5l2 -18q-22 -17 -62.5 -27t-70.5 -10q-108 0 -124 74q-32 -44 -79 -62.5t-88 -18.5q-59 0 -95.5 28t-36.5 82q0 56 39.5 93t93 51.5
t115.5 14.5q20 0 46 -2v55q0 65 -18 95.5t-60 30.5q-19 0 -46 -8q29 -31 29 -76q0 -34 -20 -59.5t-59 -25.5q-31 0 -48 20t-17 47q0 15 4.5 29.5t19 33.5t38 33t66.5 24t100 10q228 0 228 -193zM419 517l-6 -13q-70 16 -122 40.5t-77 50.5t-36 46.5t-11 37.5q0 26 17.5 46
t50.5 20q24 0 39.5 -15t29.5 -44q1 -1 13 -30.5t21 -46t31 -44t50 -48.5z" />
    <glyph glyph-name="aacute" unicode="&#xe1;" horiz-adv-x="599" 
d="M319 228q-48 0 -62.5 -22.5t-14.5 -71.5q0 -83 35 -83q18 0 44 32q-2 16 -2 39v106zM536 264v-163q0 -33 9.5 -44.5t33.5 -13.5l2 -18q-22 -17 -62.5 -27t-70.5 -10q-108 0 -124 74q-32 -44 -79 -62.5t-88 -18.5q-59 0 -95.5 28t-36.5 82q0 56 39.5 93t93 51.5
t115.5 14.5q20 0 46 -2v55q0 65 -18 95.5t-60 30.5q-19 0 -46 -8q29 -31 29 -76q0 -34 -20 -59.5t-59 -25.5q-31 0 -48 20t-17 47q0 15 4.5 29.5t19 33.5t38 33t66.5 24t100 10q228 0 228 -193zM209 503l-6 15q28 21 49.5 48t31 44.5t21 44.5t13.5 31q14 30 29 44.5t39 14.5
q33 0 51 -20t18 -46q0 -17 -11 -38t-36 -46.5t-77 -50.5t-122 -41z" />
    <glyph glyph-name="acircumflex" unicode="&#xe2;" horiz-adv-x="599" 
d="M319 228q-48 0 -62.5 -22.5t-14.5 -71.5q0 -83 35 -83q18 0 44 32q-2 16 -2 39v106zM536 264v-163q0 -33 9.5 -44.5t33.5 -13.5l2 -18q-22 -17 -62.5 -27t-70.5 -10q-108 0 -124 74q-32 -44 -79 -62.5t-88 -18.5q-59 0 -95.5 28t-36.5 82q0 56 39.5 93t93 51.5
t115.5 14.5q20 0 46 -2v55q0 65 -18 95.5t-60 30.5q-19 0 -46 -8q29 -31 29 -76q0 -34 -20 -59.5t-59 -25.5q-31 0 -48 20t-17 47q0 15 4.5 29.5t19 33.5t38 33t66.5 24t100 10q228 0 228 -193zM487 522l-173 88l-180 -88l-11 13l172 192q13 13 22 13q10 0 21 -13l159 -192z
" />
    <glyph glyph-name="atilde" unicode="&#xe3;" horiz-adv-x="599" 
d="M319 228q-48 0 -62.5 -22.5t-14.5 -71.5q0 -83 35 -83q18 0 44 32q-2 16 -2 39v106zM536 264v-163q0 -33 9.5 -44.5t33.5 -13.5l2 -18q-22 -17 -62.5 -27t-70.5 -10q-108 0 -124 74q-32 -44 -79 -62.5t-88 -18.5q-59 0 -95.5 28t-36.5 82q0 56 39.5 93t93 51.5
t115.5 14.5q20 0 46 -2v55q0 65 -18 95.5t-60 30.5q-19 0 -46 -8q29 -31 29 -76q0 -34 -20 -59.5t-59 -25.5q-31 0 -48 20t-17 47q0 15 4.5 29.5t19 33.5t38 33t66.5 24t100 10q228 0 228 -193zM496 688l13 -4q-11 -64 -42 -105t-80 -41q-24 0 -88.5 15t-91.5 15
q-60 0 -83 -44l-13 4q4 23 10.5 44t19.5 46.5t36 41t52 15.5q20 0 94 -15.5t100 -15.5q30 0 46 8.5t27 35.5z" />
    <glyph glyph-name="adieresis" unicode="&#xe4;" horiz-adv-x="599" 
d="M319 228q-48 0 -62.5 -22.5t-14.5 -71.5q0 -83 35 -83q18 0 44 32q-2 16 -2 39v106zM536 264v-163q0 -33 9.5 -44.5t33.5 -13.5l2 -18q-22 -17 -62.5 -27t-70.5 -10q-108 0 -124 74q-32 -44 -79 -62.5t-88 -18.5q-59 0 -95.5 28t-36.5 82q0 56 39.5 93t93 51.5
t115.5 14.5q20 0 46 -2v55q0 65 -18 95.5t-60 30.5q-19 0 -46 -8q29 -31 29 -76q0 -34 -20 -59.5t-59 -25.5q-31 0 -48 20t-17 47q0 15 4.5 29.5t19 33.5t38 33t66.5 24t100 10q228 0 228 -193zM114 623q0 37 26.5 63.5t63.5 26.5t63.5 -26.5t26.5 -63.5q0 -38 -26 -64.5
t-64 -26.5t-64 26.5t-26 64.5zM327 623q0 37 26.5 63.5t63.5 26.5t63.5 -26.5t26.5 -63.5q0 -38 -26 -64.5t-64 -26.5t-64 26.5t-26 64.5z" />
    <glyph glyph-name="aring" unicode="&#xe5;" horiz-adv-x="599" 
d="M319 228q-48 0 -62.5 -22.5t-14.5 -71.5q0 -83 35 -83q18 0 44 32q-2 16 -2 39v106zM536 264v-163q0 -33 9.5 -44.5t33.5 -13.5l2 -18q-22 -17 -62.5 -27t-70.5 -10q-108 0 -124 74q-32 -44 -79 -62.5t-88 -18.5q-59 0 -95.5 28t-36.5 82q0 56 39.5 93t93 51.5
t115.5 14.5q20 0 46 -2v55q0 65 -18 95.5t-60 30.5q-19 0 -46 -8q29 -31 29 -76q0 -34 -20 -59.5t-59 -25.5q-31 0 -48 20t-17 47q0 15 4.5 29.5t19 33.5t38 33t66.5 24t100 10q228 0 228 -193zM304 512q-49 0 -81.5 31.5t-32.5 79.5q0 47 32.5 79.5t81.5 32.5q47 0 79 -32
t32 -80t-32 -79.5t-79 -31.5zM304 698q-33 0 -54 -21.5t-21 -53.5q0 -33 21 -54.5t54 -21.5q31 0 51.5 22t20.5 54t-20.5 53.5t-51.5 21.5z" />
    <glyph glyph-name="ae" unicode="&#xe6;" horiz-adv-x="853" 
d="M824 236l-284 -4q0 -113 24 -156t83 -43q46 0 93.5 19t78.5 50l10 -12q-86 -104 -241 -104q-147 0 -218 82q-85 -88 -213 -88q-59 0 -96 29.5t-37 83.5q0 42 22.5 74t60 49t79.5 25.5t88 8.5q29 0 41 -1q2 18 2 66q0 116 -83 116q-16 0 -35 -4q34 -31 34 -78
q0 -37 -23 -65t-66 -28q-32 0 -50 20.5t-18 48.5q0 52 48 92.5t163 40.5q102 0 158 -55q54 54 152 54q106 0 167 -55.5t65 -156.5zM539 252l101 5q0 38 -1.5 63t-6.5 56t-15.5 46.5t-26.5 15.5q-51 0 -51 -186zM359 81q-42 52 -44 148q-43 -1 -57 -25.5t-14 -63.5
q0 -95 48 -95q29 0 67 36z" />
    <glyph glyph-name="ccedilla" unicode="&#xe7;" horiz-adv-x="512" 
d="M311 457q93 0 135 -34.5t42 -83.5q0 -34 -23.5 -57t-57.5 -23q-42 0 -64 27.5t-22 68.5q0 37 19 77q-81 -16 -81 -201q0 -101 32.5 -145t99.5 -44q50 0 101 30l8 -15q-83 -71 -215 -71q-13 0 -37 2l-22 -46q103 -1 154.5 -30.5t51.5 -72.5q0 -46 -57 -78.5t-156 -32.5
q-34 0 -61 2v17q79 -1 109.5 22t30.5 56q0 25 -30 43t-86 19l49 103q-99 12 -151 72t-52 147q0 103 74.5 175.5t208.5 72.5z" />
    <glyph glyph-name="egrave" unicode="&#xe8;" horiz-adv-x="571" 
d="M254 260l100 4q-1 85 -11 129.5t-39 44.5t-39.5 -44.5t-10.5 -133.5zM306 457q102 0 167.5 -53t68.5 -149l-4 -9l-284 -6q0 -98 36.5 -148t103.5 -50q75 0 141 60l9 -12q-84 -104 -242 -104q-134 0 -204 65t-70 167t74 170.5t204 68.5zM405 517l-6 -13q-70 16 -122 40.5
t-77 50.5t-36 46.5t-11 37.5q0 26 17.5 46t50.5 20q24 0 39.5 -15t29.5 -44q1 -1 13 -30.5t21 -46t31 -44t50 -48.5z" />
    <glyph glyph-name="eacute" unicode="&#xe9;" horiz-adv-x="571" 
d="M254 260l100 4q-1 85 -11 129.5t-39 44.5t-39.5 -44.5t-10.5 -133.5zM306 457q102 0 167.5 -53t68.5 -149l-4 -9l-284 -6q0 -98 36.5 -148t103.5 -50q75 0 141 60l9 -12q-84 -104 -242 -104q-134 0 -204 65t-70 167t74 170.5t204 68.5zM193 503l-6 15q28 21 49.5 48
t31 44.5t21 44.5t13.5 31q14 30 29 44.5t39 14.5q33 0 51 -20t18 -46q0 -17 -11 -38t-36 -46.5t-77 -50.5t-122 -41z" />
    <glyph glyph-name="ecircumflex" unicode="&#xea;" horiz-adv-x="571" 
d="M254 260l100 4q-1 85 -11 129.5t-39 44.5t-39.5 -44.5t-10.5 -133.5zM306 457q102 0 167.5 -53t68.5 -149l-4 -9l-284 -6q0 -98 36.5 -148t103.5 -50q75 0 141 60l9 -12q-84 -104 -242 -104q-134 0 -204 65t-70 167t74 170.5t204 68.5zM475 522l-173 88l-180 -88l-11 13
l172 192q13 13 22 13q10 0 21 -13l159 -192z" />
    <glyph glyph-name="edieresis" unicode="&#xeb;" horiz-adv-x="571" 
d="M254 260l100 4q-1 85 -11 129.5t-39 44.5t-39.5 -44.5t-10.5 -133.5zM306 457q102 0 167.5 -53t68.5 -149l-4 -9l-284 -6q0 -98 36.5 -148t103.5 -50q75 0 141 60l9 -12q-84 -104 -242 -104q-134 0 -204 65t-70 167t74 170.5t204 68.5zM101 623q0 37 26.5 63.5t63.5 26.5
t63.5 -26.5t26.5 -63.5q0 -38 -26 -64.5t-64 -26.5t-64 26.5t-26 64.5zM314 623q0 37 26.5 63.5t63.5 26.5t63.5 -26.5t26.5 -63.5q0 -38 -26 -64.5t-64 -26.5t-64 26.5t-26 64.5z" />
    <glyph glyph-name="igrave" unicode="&#xec;" horiz-adv-x="368" 
d="M290 517l-6 -13q-70 16 -122 40.5t-77 50.5t-36 46.5t-11 37.5q0 26 17.5 46t50.5 20q24 0 39.5 -15t29.5 -44q1 -1 13 -30.5t21 -46t31 -44t50 -48.5zM291 458q1 -3 5 -7v-359q0 -28 8.5 -44.5t19 -20.5t19 -9t8.5 -12v-6h-329v6q0 7 9 12t19 9t19 20.5t9 44.5v243
q0 33 -14 46.5t-28.5 16.5t-14.5 11v8q105 15 270 41z" />
    <glyph glyph-name="iacute" unicode="&#xed;" horiz-adv-x="368" 
d="M75 503l-6 15q28 21 49.5 48t31 44.5t21 44.5t13.5 31q14 30 29 44.5t39 14.5q33 0 51 -20t18 -46q0 -17 -11 -38t-36 -46.5t-77 -50.5t-122 -41zM291 458q1 -3 5 -7v-359q0 -28 8.5 -44.5t19 -20.5t19 -9t8.5 -12v-6h-329v6q0 7 9 12t19 9t19 20.5t9 44.5v243
q0 33 -14 46.5t-28.5 16.5t-14.5 11v8q105 15 270 41z" />
    <glyph glyph-name="icircumflex" unicode="&#xee;" horiz-adv-x="368" 
d="M291 458q1 -3 5 -7v-359q0 -28 8.5 -44.5t19 -20.5t19 -9t8.5 -12v-6h-329v6q0 7 9 12t19 9t19 20.5t9 44.5v243q0 33 -14 46.5t-28.5 16.5t-14.5 11v8q105 15 270 41zM363 522l-173 88l-180 -88l-11 13l172 192q13 13 22 13q10 0 21 -13l159 -192z" />
    <glyph glyph-name="idieresis" unicode="&#xef;" horiz-adv-x="368" 
d="M-16 623q0 37 26.5 63.5t63.5 26.5t63.5 -26.5t26.5 -63.5q0 -38 -26 -64.5t-64 -26.5t-64 26.5t-26 64.5zM197 623q0 37 26.5 63.5t63.5 26.5t63.5 -26.5t26.5 -63.5q0 -38 -26 -64.5t-64 -26.5t-64 26.5t-26 64.5zM291 458q1 -3 5 -7v-359q0 -28 8.5 -44.5t19 -20.5
t19 -9t8.5 -12v-6h-329v6q0 7 9 12t19 9t19 20.5t9 44.5v243q0 33 -14 46.5t-28.5 16.5t-14.5 11v8q105 15 270 41z" />
    <glyph glyph-name="eth" unicode="&#xf0;" horiz-adv-x="652" 
d="M231 537l99 72q-62 84 -145 127l7 17q130 -35 215 -89l86 62l11 -16l-80 -57q199 -133 199 -371q0 -54 -16 -104t-49 -95t-93.5 -71.5t-140.5 -26.5q-147 0 -221.5 68.5t-74.5 169.5q0 98 73 167t201 69q60 0 99 -23l7 5q-18 79 -66 152l-100 -72zM265 220
q0 -116 12 -167t47 -51t46.5 50.5t11.5 167.5q0 121 -11.5 169.5t-47.5 48.5q-34 0 -46 -55.5t-12 -162.5z" />
    <glyph glyph-name="ntilde" unicode="&#xf1;" horiz-adv-x="669" 
d="M70 92v243q0 33 -14 46.5t-28 16.5t-14 11v8q54 8 261 41l6 -7l-11 -91h4q34 52 84.5 74.5t97.5 22.5q63 0 105 -34t42 -107v-224q0 -28 8 -44.5t17.5 -20.5t17.5 -9t8 -12v-6h-307v8q0 5 6 8.5t13.5 7.5t13.5 18t6 37v241q0 74 -35 74q-15 0 -33.5 -13.5t-32.5 -35.5
v-271q0 -22 6 -34.5t13.5 -15.5t13.5 -6.5t6 -9.5v-8h-310v6q0 7 9 12t19 9t19 20.5t9 44.5zM512 688l13 -4q-11 -64 -42 -105t-80 -41q-24 0 -88.5 15t-91.5 15q-60 0 -83 -44l-13 4q4 23 10.5 44t19.5 46.5t36 41t52 15.5q20 0 94 -15.5t100 -15.5q30 0 46 8.5t27 35.5z
" />
    <glyph glyph-name="ograve" unicode="&#xf2;" horiz-adv-x="646" 
d="M28 223q0 101 77.5 167.5t216.5 66.5q151 0 223.5 -68.5t72.5 -165.5t-76 -167.5t-221 -70.5t-219 68.5t-74 169.5zM265 220q0 -116 12 -167t47 -51t46.5 50.5t11.5 167.5q0 121 -11.5 169.5t-47.5 48.5q-34 0 -46 -55.5t-12 -162.5zM443 517l-6 -13q-70 16 -122 40.5
t-77 50.5t-36 46.5t-11 37.5q0 26 17.5 46t50.5 20q24 0 39.5 -15t29.5 -44q1 -1 13 -30.5t21 -46t31 -44t50 -48.5z" />
    <glyph glyph-name="oacute" unicode="&#xf3;" horiz-adv-x="646" 
d="M28 223q0 101 77.5 167.5t216.5 66.5q151 0 223.5 -68.5t72.5 -165.5t-76 -167.5t-221 -70.5t-219 68.5t-74 169.5zM265 220q0 -116 12 -167t47 -51t46.5 50.5t11.5 167.5q0 121 -11.5 169.5t-47.5 48.5q-34 0 -46 -55.5t-12 -162.5zM237 503l-6 15q28 21 49.5 48
t31 44.5t21 44.5t13.5 31q14 30 29 44.5t39 14.5q33 0 51 -20t18 -46q0 -17 -11 -38t-36 -46.5t-77 -50.5t-122 -41z" />
    <glyph glyph-name="ocircumflex" unicode="&#xf4;" horiz-adv-x="646" 
d="M28 223q0 101 77.5 167.5t216.5 66.5q151 0 223.5 -68.5t72.5 -165.5t-76 -167.5t-221 -70.5t-219 68.5t-74 169.5zM265 220q0 -116 12 -167t47 -51t46.5 50.5t11.5 167.5q0 121 -11.5 169.5t-47.5 48.5q-34 0 -46 -55.5t-12 -162.5zM501 522l-173 88l-180 -88l-11 13
l172 192q13 13 22 13q10 0 21 -13l159 -192z" />
    <glyph glyph-name="otilde" unicode="&#xf5;" horiz-adv-x="646" 
d="M28 223q0 101 77.5 167.5t216.5 66.5q151 0 223.5 -68.5t72.5 -165.5t-76 -167.5t-221 -70.5t-219 68.5t-74 169.5zM265 220q0 -116 12 -167t47 -51t46.5 50.5t11.5 167.5q0 121 -11.5 169.5t-47.5 48.5q-34 0 -46 -55.5t-12 -162.5zM513 688l13 -4q-11 -64 -42 -105
t-80 -41q-24 0 -88.5 15t-91.5 15q-60 0 -83 -44l-13 4q4 23 10.5 44t19.5 46.5t36 41t52 15.5q20 0 94 -15.5t100 -15.5q30 0 46 8.5t27 35.5z" />
    <glyph glyph-name="odieresis" unicode="&#xf6;" horiz-adv-x="646" 
d="M28 223q0 101 77.5 167.5t216.5 66.5q151 0 223.5 -68.5t72.5 -165.5t-76 -167.5t-221 -70.5t-219 68.5t-74 169.5zM265 220q0 -116 12 -167t47 -51t46.5 50.5t11.5 167.5q0 121 -11.5 169.5t-47.5 48.5q-34 0 -46 -55.5t-12 -162.5zM129 623q0 37 26.5 63.5t63.5 26.5
t63.5 -26.5t26.5 -63.5q0 -38 -26 -64.5t-64 -26.5t-64 26.5t-26 64.5zM342 623q0 37 26.5 63.5t63.5 26.5t63.5 -26.5t26.5 -63.5q0 -38 -26 -64.5t-64 -26.5t-64 26.5t-26 64.5z" />
    <glyph glyph-name="divide" unicode="&#xf7;" 
d="M116 333h424v-57h-424v57zM329 376q-27 0 -47 20.5t-20 49.5q0 30 20 51t47 21q29 0 48.5 -21t19.5 -51q0 -29 -19.5 -49.5t-48.5 -20.5zM331 88q-28 0 -47.5 20t-19.5 50q0 29 19.5 50.5t47.5 21.5q29 0 48.5 -21t19.5 -51t-19.5 -50t-48.5 -20z" />
    <glyph glyph-name="oslash" unicode="&#xf8;" horiz-adv-x="646" 
d="M28 223q0 101 77.5 167.5t216.5 66.5q80 0 140 -22l27 38l16 -11l-24 -34q70 -30 103.5 -85t33.5 -120q0 -97 -76 -167.5t-221 -70.5q-76 0 -136 22l-33 -47l-16 11l30 42q-69 30 -103.5 86t-34.5 124zM265 220q0 -51 1 -64l113 160q-4 66 -16.5 94t-39.5 28
q-34 0 -46 -55.5t-12 -162.5zM382 220q0 13 -0.5 34.5t-0.5 30.5l-113 -160q4 -64 16.5 -93.5t39.5 -29.5q35 0 46.5 50.5t11.5 167.5z" />
    <glyph glyph-name="ugrave" unicode="&#xf9;" horiz-adv-x="668" 
d="M596 452v-348q0 -33 15 -46.5t29.5 -16.5t14.5 -11v-8q-41 -6 -129.5 -15.5t-134.5 -16.5l-6 7l5 82h-3q-60 -94 -175 -94q-61 0 -102 33t-41 105v211q0 26 -9 40.5t-19.5 17.5t-19.5 6.5t-9 9.5v8q168 24 269 38l6 -6v-350q0 -49 32 -49q31 0 60 48v241q0 26 -9 40.5
t-19.5 17.5t-19.5 6.5t-9 9.5v8l268 39zM436 517l-6 -13q-70 16 -122 40.5t-77 50.5t-36 46.5t-11 37.5q0 26 17.5 46t50.5 20q24 0 39.5 -15t29.5 -44q1 -1 13 -30.5t21 -46t31 -44t50 -48.5z" />
    <glyph glyph-name="uacute" unicode="&#xfa;" horiz-adv-x="668" 
d="M596 452v-348q0 -33 15 -46.5t29.5 -16.5t14.5 -11v-8q-41 -6 -129.5 -15.5t-134.5 -16.5l-6 7l5 82h-3q-60 -94 -175 -94q-61 0 -102 33t-41 105v211q0 26 -9 40.5t-19.5 17.5t-19.5 6.5t-9 9.5v8q168 24 269 38l6 -6v-350q0 -49 32 -49q31 0 60 48v241q0 26 -9 40.5
t-19.5 17.5t-19.5 6.5t-9 9.5v8l268 39zM241 503l-6 15q28 21 49.5 48t31 44.5t21 44.5t13.5 31q14 30 29 44.5t39 14.5q33 0 51 -20t18 -46q0 -17 -11 -38t-36 -46.5t-77 -50.5t-122 -41z" />
    <glyph glyph-name="ucircumflex" unicode="&#xfb;" horiz-adv-x="668" 
d="M596 452v-348q0 -33 15 -46.5t29.5 -16.5t14.5 -11v-8q-41 -6 -129.5 -15.5t-134.5 -16.5l-6 7l5 82h-3q-60 -94 -175 -94q-61 0 -102 33t-41 105v211q0 26 -9 40.5t-19.5 17.5t-19.5 6.5t-9 9.5v8q168 24 269 38l6 -6v-350q0 -49 32 -49q31 0 60 48v241q0 26 -9 40.5
t-19.5 17.5t-19.5 6.5t-9 9.5v8l268 39zM505 522l-173 88l-180 -88l-11 13l172 192q13 13 22 13q10 0 21 -13l159 -192z" />
    <glyph glyph-name="udieresis" unicode="&#xfc;" horiz-adv-x="668" 
d="M596 452v-348q0 -33 15 -46.5t29.5 -16.5t14.5 -11v-8q-41 -6 -129.5 -15.5t-134.5 -16.5l-6 7l5 82h-3q-60 -94 -175 -94q-61 0 -102 33t-41 105v211q0 26 -9 40.5t-19.5 17.5t-19.5 6.5t-9 9.5v8q168 24 269 38l6 -6v-350q0 -49 32 -49q31 0 60 48v241q0 26 -9 40.5
t-19.5 17.5t-19.5 6.5t-9 9.5v8l268 39zM123 623q0 37 26.5 63.5t63.5 26.5t63.5 -26.5t26.5 -63.5q0 -38 -26 -64.5t-64 -26.5t-64 26.5t-26 64.5zM336 623q0 37 26.5 63.5t63.5 26.5t63.5 -26.5t26.5 -63.5q0 -38 -26 -64.5t-64 -26.5t-64 26.5t-26 64.5z" />
    <glyph glyph-name="yacute" unicode="&#xfd;" horiz-adv-x="587" 
d="M378 210h3l49 100q18 37 18 60q0 24 -15 33t-30.5 12t-15.5 11v9h198v-8q0 -7 -12.5 -11.5t-31 -10.5t-44 -32t-46.5 -69l-173 -357q-42 -85 -83.5 -131.5t-102.5 -46.5q-49 0 -77.5 27.5t-28.5 69.5q0 36 25.5 61.5t64.5 25.5q49 0 78.5 -32t34.5 -75q30 28 75 120
l19 41h-28l-182 335q-14 27 -29 44t-24 21t-14.5 8.5t-5.5 11.5v8h353v-9q0 -8 -14.5 -11.5t-28.5 -11.5t-14 -26q0 -14 14 -40zM221 503l-6 15q28 21 49.5 48t31 44.5t21 44.5t13.5 31q14 30 29 44.5t39 14.5q33 0 51 -20t18 -46q0 -17 -11 -38t-36 -46.5t-77 -50.5
t-122 -41z" />
    <glyph glyph-name="thorn" unicode="&#xfe;" horiz-adv-x="666" 
d="M68 -118v725q0 35 -15 49.5t-30.5 18t-15.5 11.5v8l274 40l6 -6v-194q0 -110 -17 -168h5q32 49 77.5 69.5t87.5 20.5q103 0 150 -66t47 -169q0 -112 -63 -174.5t-149 -62.5q-84 0 -134 36q-1 0 -2.5 -0.5t-2.5 -0.5v-137q0 -28 8.5 -44.5t19 -20.5t19 -9t8.5 -12v-6h-328
v6q0 7 8.5 12t19 9t19 20.5t8.5 44.5zM338 21q33 0 47 45.5t14 139.5q0 96 -14 139t-47 43q-29 0 -50 -39v-304q24 -24 50 -24z" />
    <glyph glyph-name="ydieresis" unicode="&#xff;" horiz-adv-x="587" 
d="M378 210h3l49 100q18 37 18 60q0 24 -15 33t-30.5 12t-15.5 11v9h198v-8q0 -7 -12.5 -11.5t-31 -10.5t-44 -32t-46.5 -69l-173 -357q-42 -85 -83.5 -131.5t-102.5 -46.5q-49 0 -77.5 27.5t-28.5 69.5q0 36 25.5 61.5t64.5 25.5q49 0 78.5 -32t34.5 -75q30 28 75 120
l19 41h-28l-182 335q-14 27 -29 44t-24 21t-14.5 8.5t-5.5 11.5v8h353v-9q0 -8 -14.5 -11.5t-28.5 -11.5t-14 -26q0 -14 14 -40zM108 623q0 37 26.5 63.5t63.5 26.5t63.5 -26.5t26.5 -63.5q0 -38 -26 -64.5t-64 -26.5t-64 26.5t-26 64.5zM321 623q0 37 26.5 63.5t63.5 26.5
t63.5 -26.5t26.5 -63.5q0 -38 -26 -64.5t-64 -26.5t-64 26.5t-26 64.5z" />
    <glyph glyph-name="dotlessi" unicode="&#x131;" horiz-adv-x="368" 
d="M291 458q1 -3 5 -7v-359q0 -28 8.5 -44.5t19 -20.5t19 -9t8.5 -12v-6h-329v6q0 7 9 12t19 9t19 20.5t9 44.5v243q0 33 -14 46.5t-28.5 16.5t-14.5 11v8q105 15 270 41z" />
    <glyph glyph-name="OE" unicode="&#x152;" horiz-adv-x="1071" 
d="M528 0q-60 -15 -121 -15q-94 0 -166.5 29.5t-116 80t-65 113t-21.5 133.5q0 151 97 250.5t273 99.5q70 0 132 -17h230q120 0 218 36l6 -4l28 -274l-5 -1q-8 -1 -11.5 3.5t-10.5 23.5q-42 112 -91 153.5t-144 41.5h-36v-290h24q40 0 64.5 21t30.5 46t12 46t14 21h7v-298
h-7q-10 0 -16 22.5t-11 49.5t-28 49.5t-63 22.5h-27v-254q0 -34 13 -51t55 -17h18q66 0 115.5 53.5t111.5 188.5q13 29 22 29q2 0 8 -2l-52 -312l-5 -4q-68 26 -202 26h-280zM412 2q32 0 51 28.5t19 65.5v478q0 42 -19.5 69.5t-53.5 27.5q-50 0 -69.5 -87t-19.5 -248
q0 -176 20 -255t72 -79z" />
    <glyph glyph-name="oe" unicode="&#x153;" horiz-adv-x="940" 
d="M674 457q104 0 170 -52.5t69 -152.5l-4 -6l-284 -6q0 -85 14 -131t37 -61t63 -15q91 0 167 69l9 -12q-87 -104 -245 -104q-113 0 -171 64q-77 -65 -178 -65q-145 0 -219 68.5t-74 169.5t77.5 167.5t216.5 66.5q119 0 184 -65q67 65 168 65zM264 220q0 -116 11.5 -167
t46.5 -51t46.5 50t11.5 168q0 121 -11.5 169.5t-47.5 48.5q-34 0 -45.5 -55t-11.5 -163zM625 260l100 4q-1 85 -11 129.5t-39 44.5t-39.5 -44.5t-10.5 -133.5z" />
    <glyph glyph-name="circumflex" unicode="&#x2c6;" horiz-adv-x="609" 
d="M490 522l-173 88l-180 -88l-11 13l172 192q13 13 22 13q10 0 21 -13l159 -192z" />
    <glyph glyph-name="ring" unicode="&#x2da;" horiz-adv-x="609" 
d="M308 523q-49 0 -81.5 31.5t-32.5 79.5q0 47 32.5 79.5t81.5 32.5q47 0 79 -32t32 -80t-32 -79.5t-79 -31.5zM308 709q-33 0 -54 -21.5t-21 -53.5q0 -33 21 -54.5t54 -21.5q31 0 51.5 22t20.5 54t-20.5 53.5t-51.5 21.5z" />
    <glyph glyph-name="tilde" unicode="&#x2dc;" horiz-adv-x="661" 
d="M509 688l13 -4q-11 -64 -42 -105t-80 -41q-24 0 -88.5 15t-91.5 15q-60 0 -83 -44l-13 4q4 23 10.5 44t19.5 46.5t36 41t52 15.5q20 0 94 -15.5t100 -15.5q30 0 46 8.5t27 35.5z" />
    <glyph glyph-name="tonos" unicode="&#x384;" horiz-adv-x="609" 
d="M224 503l-6 15q28 21 49.5 48t31 44.5t21 44.5t13.5 31q14 30 29 44.5t39 14.5q33 0 51 -20t18 -46q0 -17 -11 -38t-36 -46.5t-77 -50.5t-122 -41z" />
    <glyph glyph-name="dieresistonos" unicode="&#x385;" horiz-adv-x="609" 
d="M229 487l-12 12q23 42 32 76t11 77t2 46q12 86 80 86q26 0 42 -17.5t16 -44.5q0 -28 -12 -60t-53 -80.5t-106 -94.5zM62 619q0 36 25.5 62t61.5 26q37 0 62.5 -26t25.5 -62q0 -37 -25.5 -63t-62.5 -26q-36 0 -61.5 26t-25.5 63zM392 619q0 36 25.5 62t61.5 26
q37 0 62.5 -26t25.5 -62q0 -37 -25.5 -63t-62.5 -26t-62 26t-25 63z" />
    <glyph glyph-name="Alphatonos" unicode="&#x386;" horiz-adv-x="760" 
d="M430 102l-39 109h-202l-17 -49q-22 -62 -22 -81q0 -33 22.5 -45.5t45.5 -15.5t23 -12v-8h-235v7q0 8 14.5 12.5t34 9t42.5 27.5t38 63l153 424q12 35 12 55q0 22 -12 34t-26 14.5t-26 6.5t-12 12v9h257l204 -582q10 -30 23.5 -46.5t22.5 -19t15.5 -6t6.5 -12.5v-8h-367v7
q0 7 8 11.5t18 7.5t18 13t8 27q0 15 -8 36zM289 491l-93 -261h189l-92 261h-4zM-62 461l-6 15q28 21 49.5 48t31 44.5t21 44.5t13.5 31q14 30 29 44.5t39 14.5q33 0 51 -20t18 -46q0 -17 -11 -38t-36 -46.5t-77 -50.5t-122 -41z" />
    <glyph glyph-name="anoteleia" unicode="&#x387;" horiz-adv-x="272" 
d="M39 350q0 41 28 69.5t68 28.5t68.5 -28.5t28.5 -69.5t-28.5 -70t-68.5 -29t-68 29t-28 70z" />
    <glyph glyph-name="Epsilontonos" unicode="&#x388;" horiz-adv-x="700" 
d="M369 674q140 0 242 36l6 -2l27 -276q-2 0 -4 -1q-9 0 -12.5 4.5t-10.5 22.5q-44 112 -93.5 153.5t-140.5 41.5h-36v-290h23q41 0 65.5 21t30 46t12 46t15.5 21h6v-298h-7q-11 0 -17 22.5t-11 49.5t-28 49.5t-63 22.5h-26v-254q0 -34 12.5 -51t55.5 -17h17
q68 0 119.5 54.5t108.5 187.5l4.5 9t3.5 7.5t2.5 5.5t3 4t3.5 2t4 1t8 -2q-40 -244 -52 -314l-5 -2q-63 26 -187 26h-424v8q0 7 12 11t26.5 7t26.5 19t12 45v493q0 28 -11.5 44t-25.5 19t-25.5 7.5t-11.5 11.5v9h345zM-238 461l-6 15q28 21 49.5 48t31 44.5t21 44.5t13.5 31
q14 30 29 44.5t39 14.5q33 0 51 -20t18 -46q0 -17 -11 -38t-36 -46.5t-77 -50.5t-122 -41z" />
    <glyph glyph-name="Etatonos" unicode="&#x389;" horiz-adv-x="857" 
d="M834 0h-384v8q0 8 15 11.5t30.5 18.5t15.5 51v257h-166v-257q0 -36 15 -51t30 -18.5t15 -11.5v-8h-383v8q0 7 11.5 11t25.5 7.5t25.5 19.5t11.5 44v494q0 28 -11 43.5t-24.5 18.5t-24.5 7.5t-11 11.5v9h380v-9q0 -8 -15 -12t-30 -18.5t-15 -50.5v-218h166v218
q0 28 -9.5 43.5t-21 18.5t-21 7.5t-9.5 11.5v9h381v-9q0 -7 -11.5 -11.5t-24.5 -7.5t-24.5 -18.5t-11.5 -43.5v-494q0 -28 11.5 -44t26 -19.5t26 -7.5t11.5 -11v-8zM-242 461l-6 15q28 21 49.5 48t31 44.5t21 44.5t13.5 31q14 30 29 44.5t39 14.5q33 0 51 -20t18 -46
q0 -17 -11 -38t-36 -46.5t-77 -50.5t-122 -41z" />
    <glyph glyph-name="Iotatonos" unicode="&#x38a;" horiz-adv-x="457" 
d="M427 0h-398v8q0 8 18.5 11.5t37.5 18.5t19 51v495q0 28 -11.5 43.5t-26 18.5t-26 7.5t-11.5 11.5v9h398v-9q0 -7 -11.5 -11.5t-26 -7.5t-26 -18.5t-11.5 -43.5v-495q0 -36 19 -51t37.5 -18.5t18.5 -11.5v-8zM-233 461l-6 15q28 21 49.5 48t31 44.5t21 44.5t13.5 31
q14 30 29 44.5t39 14.5q33 0 51 -20t18 -46q0 -17 -11 -38t-36 -46.5t-77 -50.5t-122 -41z" />
    <glyph glyph-name="Omicrontonos" unicode="&#x38c;" horiz-adv-x="821" 
d="M38 341q0 151 97.5 250.5t273.5 99.5q80 0 145 -20t107 -54t70 -79.5t40 -94.5t12 -102q0 -67 -22.5 -129t-66 -113.5t-117.5 -82.5t-169 -31q-94 0 -167 29.5t-116.5 80t-65 113t-21.5 133.5zM320 336q0 -173 20.5 -253t71.5 -80q52 0 71 80t19 253q0 181 -19 258.5
t-73 77.5q-51 0 -70.5 -89t-19.5 -247zM-177 461l-6 15q28 21 49.5 48t31 44.5t21 44.5t13.5 31q14 30 29 44.5t39 14.5q33 0 51 -20t18 -46q0 -17 -11 -38t-36 -46.5t-77 -50.5t-122 -41z" />
    <glyph glyph-name="Upsilontonos" unicode="&#x38e;" horiz-adv-x="734" 
d="M162 8q0 8 18.5 11.5t37 18.5t18.5 51v166l-155 328q-12 26 -28 41.5t-27.5 19.5t-19 9t-7.5 12v9h408v-8q0 -9 -17.5 -14t-35 -14.5t-17.5 -28.5q0 -15 12 -37l122 -240h2l86 192q17 40 17 61q0 27 -16 41.5t-35 17.5t-35 8t-16 13v9h259v-9q0 -8 -11.5 -12.5t-28 -8
t-40.5 -23t-44 -51.5q-18 -28 -32 -60l-92 -201v-220q0 -36 18.5 -51t37 -18.5t18.5 -11.5v-8h-397v8zM-267 461l-6 15q28 21 49.5 48t31 44.5t21 44.5t13.5 31q14 30 29 44.5t39 14.5q33 0 51 -20t18 -46q0 -17 -11 -38t-36 -46.5t-77 -50.5t-122 -41z" />
    <glyph glyph-name="Omegatonos" unicode="&#x38f;" horiz-adv-x="859" 
d="M69 -19l-4 2l-54 277l7 2q9 0 14 -6.5t14 -26.5q26 -57 46.5 -90.5t49 -63t64.5 -42t85 -12.5h84q-7 24 -34 43t-61.5 31.5t-74 35t-71.5 51t-53.5 81.5t-21.5 124q0 39 12.5 80t41.5 82t71.5 72.5t108.5 51.5t146 20q100 0 175.5 -27.5t118 -73.5t63 -97.5t20.5 -107.5
q0 -69 -21.5 -121.5t-53.5 -82t-71 -53.5t-73.5 -37.5t-61.5 -32t-34 -39.5h47q58 0 100.5 12.5t74 42t53 63t48.5 90.5q15 32 28 33l6 -2l-54 -277l-3 -2q-128 19 -253 19h-74q2 25 14.5 48t25.5 45t24 91.5t11 178.5q0 310 -110 310q-112 0 -112 -311q0 -101 11 -169.5
t24 -93.5t25.5 -50t14.5 -49h-65q-160 0 -268 -19zM-183 457l-6 15q28 21 49.5 48t31 44.5t21 44.5t13.5 31q14 30 29 44.5t39 14.5q33 0 51 -20t18 -46q0 -17 -11 -38t-36 -46.5t-77 -50.5t-122 -41z" />
    <glyph glyph-name="iotadieresistonos" unicode="&#x390;" horiz-adv-x="371" 
d="M211 -14q-22 0 -42 4.5t-41.5 15t-34.5 33.5t-13 55l-1 241q0 33 -14 46.5t-28.5 16.5t-14.5 11v8q90 13 270 41l5 -7l1 -352q0 -32 12 -44t37 -14l2 -18q-22 -17 -65 -27t-73 -10zM105 487l-12 12q23 42 32 76t11 77t2 46q12 86 80 86q26 0 42 -17.5t16 -44.5
q0 -28 -12 -60t-53 -80.5t-106 -94.5zM-62 619q0 36 25.5 62t61.5 26q37 0 62.5 -26t25.5 -62q0 -37 -25.5 -63t-62.5 -26q-36 0 -61.5 26t-25.5 63zM268 619q0 36 25.5 62t61.5 26q37 0 62.5 -26t25.5 -62q0 -37 -25.5 -63t-62.5 -26t-62 26t-25 63z" />
    <glyph glyph-name="Alpha" unicode="&#x391;" horiz-adv-x="760" 
d="M430 102l-39 109h-202l-17 -49q-22 -62 -22 -81q0 -33 22.5 -45.5t45.5 -15.5t23 -12v-8h-235v7q0 8 14.5 12.5t34 9t42.5 27.5t38 63l153 424q12 35 12 55q0 22 -12 34t-26 14.5t-26 6.5t-12 12v9h257l204 -582q10 -30 23.5 -46.5t22.5 -19t15.5 -6t6.5 -12.5v-8h-367v7
q0 7 8 11.5t18 7.5t18 13t8 27q0 15 -8 36zM289 491l-93 -261h189l-92 261h-4z" />
    <glyph glyph-name="Beta" unicode="&#x392;" horiz-adv-x="775" 
d="M467 0h-444v8q0 7 11.5 11t26 7t26 19t11.5 45v494q0 28 -11 44t-25 19t-25 7.5t-11 11.5v8h427q132 0 191 -45.5t59 -110.5q0 -53 -47 -97.5t-148 -49.5v-4q68 -3 117 -21t73.5 -45.5t35 -55t10.5 -57.5q0 -33 -14.5 -64.5t-45 -60t-86.5 -46t-131 -17.5zM345 355v-269
q0 -32 12 -49t44 -17q41 0 63.5 42t22.5 116q0 85 -33 131t-94 46h-15zM345 653v-279h9q46 0 73.5 37.5t27.5 99.5q0 142 -102 142h-8z" />
    <glyph glyph-name="Gamma" unicode="&#x393;" horiz-adv-x="646" 
d="M347 653v-563q0 -29 12 -45t27 -19.5t27 -7t12 -10.5v-8h-402v8q0 8 19 11.5t38 18.5t19 52v494q0 28 -11.5 44t-25 19t-25 7.5t-11.5 11.5v8h343q166 0 241 32l7 -4l27 -269l-5 -1q-6 -1 -10.5 4.5t-11.5 21.5q-46 112 -94 153.5t-140 41.5h-36z" />
    <glyph glyph-name="Delta" unicode="&#x394;" horiz-adv-x="724" 
d="M705 18v-18h-686v20l278 654l149 14zM252 507l-143 -336h278l-131 336h-4z" />
    <glyph glyph-name="Epsilon" unicode="&#x395;" horiz-adv-x="700" 
d="M369 674q140 0 242 36l6 -2l27 -276q-2 0 -4 -1q-9 0 -12.5 4.5t-10.5 22.5q-44 112 -93.5 153.5t-140.5 41.5h-36v-290h23q41 0 65.5 21t30 46t12 46t15.5 21h6v-298h-7q-11 0 -17 22.5t-11 49.5t-28 49.5t-63 22.5h-26v-254q0 -34 12.5 -51t55.5 -17h17
q68 0 119.5 54.5t108.5 187.5l4.5 9t3.5 7.5t2.5 5.5t3 4t3.5 2t4 1t8 -2q-40 -244 -52 -314l-5 -2q-63 26 -187 26h-424v8q0 7 12 11t26.5 7t26.5 19t12 45v493q0 28 -11.5 44t-25.5 19t-25.5 7.5t-11.5 11.5v9h345z" />
    <glyph glyph-name="Zeta" unicode="&#x396;" horiz-adv-x="708" 
d="M660 674v-19l-349 -634h116q68 0 119.5 55t109.5 189q12 27 16 29h4t5 -0.5t4 -0.5q-9 -54 -27.5 -160.5t-26.5 -156.5l-4 -2q-66 26 -191 26h-420v19q59 106 177.5 317t177.5 317h-43q-94 0 -141 -40t-97 -160q-11 -28 -20 -28q-4 0 -7 2l31 275l4 2q74 -30 214 -30h348
z" />
    <glyph glyph-name="Eta" unicode="&#x397;" horiz-adv-x="857" 
d="M834 0h-384v8q0 8 15 11.5t30.5 18.5t15.5 51v257h-166v-257q0 -36 15 -51t30 -18.5t15 -11.5v-8h-383v8q0 7 11.5 11t25.5 7.5t25.5 19.5t11.5 44v494q0 28 -11 43.5t-24.5 18.5t-24.5 7.5t-11 11.5v9h380v-9q0 -8 -15 -12t-30 -18.5t-15 -50.5v-218h166v218
q0 28 -9.5 43.5t-21 18.5t-21 7.5t-9.5 11.5v9h381v-9q0 -7 -11.5 -11.5t-24.5 -7.5t-24.5 -18.5t-11.5 -43.5v-494q0 -28 11.5 -44t26 -19.5t26 -7.5t11.5 -11v-8z" />
    <glyph glyph-name="Theta" unicode="&#x398;" horiz-adv-x="902" 
d="M38 341q0 148 113 249t298 101q103 0 185 -30.5t130.5 -81t74 -111.5t25.5 -127t-27 -128.5t-77.5 -114t-131.5 -82.5t-180 -31q-192 0 -301 104.5t-109 251.5zM320 336q0 -334 133 -334q131 0 131 334q0 175 -33 255.5t-101 80.5q-65 0 -97.5 -89t-32.5 -247zM555 411
l15 -5q-14 -114 -84 -114q-16 0 -48 10.5t-46 10.5q-27 0 -45 -27l-16 8q27 113 94 113q13 0 43.5 -12.5t44.5 -13.5q29 0 42 30z" />
    <glyph glyph-name="Iota" unicode="&#x399;" horiz-adv-x="457" 
d="M427 0h-398v8q0 8 18.5 11.5t37.5 18.5t19 51v495q0 28 -11.5 43.5t-26 18.5t-26 7.5t-11.5 11.5v9h398v-9q0 -7 -11.5 -11.5t-26 -7.5t-26 -18.5t-11.5 -43.5v-495q0 -36 19 -51t37.5 -18.5t18.5 -11.5v-8z" />
    <glyph glyph-name="Kappa" unicode="&#x39a;" horiz-adv-x="812" 
d="M516 473l205 -383q15 -27 32.5 -43t29.5 -19.5t20.5 -8t8.5 -12.5v-7h-368v8q0 7 19.5 15t19.5 24q0 15 -12 36l-123 230h-14v-224q0 -36 16 -51t31.5 -18.5t15.5 -11.5v-8h-375v8q0 8 16 11.5t32 18.5t16 51v495q0 36 -16 50.5t-32 18.5t-16 12v9h375v-9q0 -7 -10 -11.5
t-21.5 -7.5t-21.5 -18.5t-10 -43.5v-250h24l194 205q41 42 43 73q0 19 -23.5 27.5t-46.5 13t-23 13.5v8h277v-7q0 -7 -8 -10.5t-25 -7.5t-38.5 -11.5t-53.5 -30t-65 -57.5z" />
    <glyph glyph-name="Lambda" unicode="&#x39b;" horiz-adv-x="760" 
d="M289 491l-128 -361q-11 -31 -11 -51q0 -25 14 -38t31.5 -15.5t31.5 -6t14 -11.5v-8h-235v7q0 8 14.5 12.5t34 9t42.5 27.5t38 63l201 555l141 13l208 -595q10 -30 23.5 -46.5t22.5 -19t15.5 -6t6.5 -12.5v-8h-367v7q0 7 8 11.5t17.5 7.5t17.5 13t8 27t-7 36l-137 389h-4z
" />
    <glyph glyph-name="Mu" unicode="&#x39c;" horiz-adv-x="1013" 
d="M675 579h-4l-141 -389l56 -141l-17 -9l-9 18q-61 120 -247 102l-153 426h-4l-7 -417q0 -41 8.5 -70.5t21.5 -42.5t28 -21t28 -10t21.5 -6t8.5 -11v-8h-255v8q0 8 13 12t30.5 7t36 18t27.5 42q13 40 14 85q4 274 7 411q0 29 -13.5 45t-29.5 19t-29.5 7t-13.5 11v9h306
l163 -458l166 458h312v-9q0 -8 -20.5 -12t-40.5 -18.5t-20 -50.5q4 -164 10 -494q1 -29 12.5 -45t25.5 -19t25.5 -7t11.5 -11v-8h-386v8q0 7 10.5 11t22.5 7.5t22.5 19t10.5 42.5q0 56 -2.5 258t-5.5 233z" />
    <glyph glyph-name="Nu" unicode="&#x39d;" horiz-adv-x="814" 
d="M130 149v434q0 29 -13 45t-29 19t-29 7t-13 11v9h335l282 -378l3 2v229q0 50 -18.5 79t-40 35t-40 11t-18.5 13v9h255v-9q0 -8 -12.5 -11.5t-30 -8.5t-34.5 -17t-29.5 -45t-12.5 -85v-508l-100 -9l-433 596l-1 -1h-2v-430q0 -41 12 -67.5t29 -36.5t34 -15t29 -8.5
t12 -10.5v-8h-254v8q0 7 12.5 10t29.5 8t34.5 16t30 38t12.5 69z" />
    <glyph glyph-name="Xi" unicode="&#x39e;" horiz-adv-x="663" 
d="M623 -17l-5 -3q-110 20 -278 20q-175 0 -293 -20l-6 2l-26 289l5 1q11 2 15.5 -2.5t12.5 -24.5q20 -49 39.5 -62t76.5 -13h336q56 0 77 14.5t41 63.5q7 18 11.5 23.5t14.5 3.5l5 -1zM51 692l4 2q109 -19 283 -19q180 0 263 19l4 -2l15 -245l-5 -1q-8 -1 -14 5t-14 22
q-11 23 -28 30.5t-53 7.5h-365q-18 0 -28.5 -1.5t-24 -9.5t-20.5 -24q-9 -19 -13.5 -23.5t-13.5 -3.5l-6 1zM503 435l20 -1q-4 -84 -42.5 -126t-94.5 -42q-34 0 -82.5 16.5t-66.5 16.5q-54 0 -70 -49l-20 2q19 166 157 166q25 0 74 -14.5t73 -14.5q22 0 34 9t18 37z" />
    <glyph glyph-name="Omicron" unicode="&#x39f;" horiz-adv-x="821" 
d="M38 341q0 151 97.5 250.5t273.5 99.5q80 0 145 -20t107 -54t70 -79.5t40 -94.5t12 -102q0 -67 -22.5 -129t-66 -113.5t-117.5 -82.5t-169 -31q-94 0 -167 29.5t-116.5 80t-65 113t-21.5 133.5zM320 336q0 -173 20.5 -253t71.5 -80q52 0 71 80t19 253q0 181 -19 258.5
t-73 77.5q-51 0 -70.5 -89t-19.5 -247z" />
    <glyph glyph-name="Pi" unicode="&#x3a0;" horiz-adv-x="848" 
d="M504 651h-161v-562q0 -36 15 -51t30 -18.5t15 -11.5v-8h-372v8q0 8 16 11.5t32 18.5t16 51v495q0 28 -10.5 43.5t-23 18.5t-23 7.5t-10.5 11.5v9h791v-9q0 -8 -16.5 -11t-33.5 -18t-17 -52v-495q0 -36 16 -51t31.5 -18.5t15.5 -11.5v-8h-371v8q0 8 15 11.5t30 18.5t15 51
v562z" />
    <glyph glyph-name="Rho" unicode="&#x3a1;" horiz-adv-x="744" 
d="M346 259v-169q0 -28 11.5 -44t26 -19.5t26 -7.5t11.5 -11v-8h-398v8q0 8 18.5 12t37 19t18.5 51v493q0 28 -11 44.5t-24.5 19.5t-24.5 7.5t-11 11.5v8h434q53 0 98.5 -10t86.5 -32t65 -63t24 -98q0 -71 -43.5 -122t-109.5 -73.5t-148 -22.5q-43 0 -87 6zM346 653v-374
q60 0 93 56t33 135q0 82 -27 132.5t-84 50.5h-15z" />
    <glyph glyph-name="Sigma" unicode="&#x3a3;" horiz-adv-x="670" 
d="M12 0v20l241 243l-241 390q0 7 2 21h338q155 0 238 35l7 -4l27 -267q-2 0 -4 -1q-10 0 -13.5 5t-10.5 24q-42 110 -91 148.5t-142 38.5h-77l143 -241l1 -4l-237 -235h267q74 0 111.5 21.5t63.5 89.5q1 3 2.5 7t2.5 6.5t2 5.5t2 4.5t2 3.5t2 3t2.5 1.5l3 1t3.5 0.5l6 -2
l-36 -317q-156 2 -255 2h-360z" />
    <glyph glyph-name="Tau" unicode="&#x3a4;" horiz-adv-x="704" 
d="M476 653v-564q0 -36 18.5 -51t37 -18.5t18.5 -11.5v-8h-397v8q0 8 18.5 11.5t37 18.5t18.5 51v564h-6q-117 0 -187 -206q-5 -15 -10 -21.5t-13 -5.5l-5 1q16 160 26 279l3 3q99 -29 324 -29q224 0 311 29l4 -3l25 -277l-6 -1q-6 -1 -11 5t-10 22q-34 106 -85.5 154.5
t-104.5 49.5h-6z" />
    <glyph glyph-name="Upsilon" unicode="&#x3a5;" horiz-adv-x="734" 
d="M162 8q0 8 18.5 11.5t37 18.5t18.5 51v166l-155 328q-12 26 -28 41.5t-27.5 19.5t-19 9t-7.5 12v9h408v-8q0 -9 -17.5 -14t-35 -14.5t-17.5 -28.5q0 -15 12 -37l122 -240h2l86 192q17 40 17 61q0 27 -16 41.5t-35 17.5t-35 8t-16 13v9h259v-9q0 -8 -11.5 -12.5t-28 -8
t-40.5 -23t-44 -51.5q-18 -28 -32 -60l-92 -201v-220q0 -36 18.5 -51t37 -18.5t18.5 -11.5v-8h-397v8z" />
    <glyph glyph-name="Phi" unicode="&#x3a6;" horiz-adv-x="1025" 
d="M712 0h-398v8q0 7 11.5 11t26 7t26 19t11.5 44v21q-182 15 -272.5 77.5t-90.5 161.5q0 95 96.5 156t266.5 71v8q0 36 -18.5 50.5t-37.5 18.5t-19 12v9h398v-9q0 -8 -19 -12t-37.5 -18.5t-18.5 -50.5v-7q165 -4 262.5 -67.5t97.5 -156.5q0 -97 -88 -162.5t-272 -80.5v-21
q0 -28 11.5 -44t26 -19t26 -7t11.5 -11v-8zM286 347q0 -102 31 -158t72 -59v424q-45 -12 -74 -65t-29 -142zM738 339q0 90 -27.5 147.5t-73.5 67.5v-423q45 9 73 66.5t28 141.5z" />
    <glyph glyph-name="Chi" unicode="&#x3a7;" horiz-adv-x="774" 
d="M373 109l-86 152l-51 -81q-49 -77 -49 -111q0 -19 13 -29.5t28 -12.5t28 -6.5t13 -12.5v-8h-264v8q0 9 16.5 13t50.5 19t65 48q47 49 96 124l43 66l-178 317q-13 23 -28 36.5t-25 16.5t-17 7t-7 11v8h417v-8q0 -9 -15 -13t-30.5 -12t-15.5 -28q0 -25 36 -85l59 -98l40 62
q48 75 48 114q0 22 -18.5 31t-37 13.5t-18.5 14.5v9h258v-9q0 -9 -17.5 -13.5t-52 -20t-65.5 -47.5q-38 -39 -88 -113l-39 -58l185 -321q16 -28 35.5 -44.5t33 -20.5t23 -8.5t9.5 -11.5v-7h-443v7q0 7 15.5 11t31 13.5t15.5 31.5q0 21 -14 46z" />
    <glyph glyph-name="Psi" unicode="&#x3a8;" horiz-adv-x="1059" 
d="M651 210q42 9 68.5 48t26.5 110v32q0 44 0.5 133t0.5 133q0 1 5 8h297v-9q0 -8 -15.5 -12t-31 -18.5t-15.5 -50.5v-74q0 -51 -16 -98.5t-51.5 -95.5t-104.5 -82t-164 -45v-100q0 -36 18.5 -51t37 -18.5t18.5 -11.5v-8h-394v8q0 8 18.5 11.5t37 18.5t18.5 51v100
q-95 11 -163.5 42.5t-104 75t-51.5 89t-16 95.5v92q0 36 -15.5 50.5t-31 18t-15.5 12.5v7l295 5q1 -1 2.5 -4t2.5 -4v-300q0 -71 29 -112t68 -46v374q0 36 -15.5 50.5t-31.5 18.5t-16 12v9h372v-9q0 -8 -16 -12t-31.5 -18.5t-15.5 -50.5v-374z" />
    <glyph glyph-name="Omega" unicode="&#x3a9;" horiz-adv-x="874" 
d="M70 -19l-4 2l-54 277l7 2q9 0 14 -6.5t14 -26.5q26 -57 46.5 -90.5t49 -63t64.5 -42t85 -12.5h84q-7 24 -34 43t-61.5 31.5t-74 35t-71.5 51t-53.5 81.5t-21.5 124q0 39 12.5 80t41.5 82t71.5 72.5t108.5 51.5t146 20q100 0 175.5 -27.5t118 -73.5t63 -97.5t20.5 -107.5
q0 -69 -21.5 -121.5t-53.5 -82t-71 -53.5t-73.5 -37.5t-61.5 -32t-34 -39.5h47q58 0 100.5 12.5t74 42t53 63t48.5 90.5q15 32 28 33l6 -2l-54 -277l-3 -2q-128 19 -253 19h-74q2 25 14.5 48t25.5 45t24 91.5t11 178.5q0 310 -110 310q-112 0 -112 -311q0 -101 11 -169.5
t24 -93.5t25.5 -50t14.5 -49h-65q-160 0 -268 -19z" />
    <glyph glyph-name="Iotadieresis" unicode="&#x3aa;" horiz-adv-x="457" 
d="M427 0h-398v8q0 8 18.5 11.5t37.5 18.5t19 51v495q0 28 -11.5 43.5t-26 18.5t-26 7.5t-11.5 11.5v9h398v-9q0 -7 -11.5 -11.5t-26 -7.5t-26 -18.5t-11.5 -43.5v-495q0 -36 19 -51t37.5 -18.5t18.5 -11.5v-8zM33 817q0 37 26.5 63.5t63.5 26.5t63.5 -26.5t26.5 -63.5
q0 -38 -26 -64.5t-64 -26.5t-64 26.5t-26 64.5zM246 817q0 37 26.5 63.5t63.5 26.5t63.5 -26.5t26.5 -63.5q0 -38 -26 -64.5t-64 -26.5t-64 26.5t-26 64.5z" />
    <glyph glyph-name="Upsilondieresis" unicode="&#x3ab;" horiz-adv-x="734" 
d="M162 8q0 8 18.5 11.5t37 18.5t18.5 51v166l-155 328q-12 26 -28 41.5t-27.5 19.5t-19 9t-7.5 12v9h408v-8q0 -9 -17.5 -14t-35 -14.5t-17.5 -28.5q0 -15 12 -37l122 -240h2l86 192q17 40 17 61q0 27 -16 41.5t-35 17.5t-35 8t-16 13v9h259v-9q0 -8 -11.5 -12.5t-28 -8
t-40.5 -23t-44 -51.5q-18 -28 -32 -60l-92 -201v-220q0 -36 18.5 -51t37 -18.5t18.5 -11.5v-8h-397v8zM181 815q0 37 26.5 63.5t63.5 26.5t63.5 -26.5t26.5 -63.5q0 -38 -26 -64.5t-64 -26.5t-64 26.5t-26 64.5zM394 815q0 37 26.5 63.5t63.5 26.5t63.5 -26.5t26.5 -63.5
q0 -38 -26 -64.5t-64 -26.5t-64 26.5t-26 64.5z" />
    <glyph glyph-name="alphatonos" unicode="&#x3ac;" horiz-adv-x="651" 
d="M590 283v-182q0 -33 9.5 -44.5t33.5 -13.5l2 -18q-22 -17 -62.5 -27t-70.5 -10q-110 0 -126 71q-52 -78 -150 -78q-83 0 -140.5 59t-57.5 175q0 98 55.5 168.5t156.5 70.5q99 0 142 -57q107 12 193 68h18q-3 -99 -3 -182zM319 43q31 0 52 42v293q-19 29 -50 29
q-32 0 -46 -42.5t-14 -144.5q0 -95 12.5 -136t45.5 -41zM238 503l-6 15q28 21 49.5 48t31 44.5t21 44.5t13.5 31q14 30 29 44.5t39 14.5q33 0 51 -20t18 -46q0 -17 -11 -38t-36 -46.5t-77 -50.5t-122 -41z" />
    <glyph glyph-name="epsilontonos" unicode="&#x3ad;" horiz-adv-x="493" 
d="M159 503l-6 15q28 21 49.5 48t31 44.5t21 44.5t13.5 31q14 30 29 44.5t39 14.5q33 0 51 -20t18 -46q0 -17 -11 -38t-36 -46.5t-77 -50.5t-122 -41zM359 241v-19q-106 -12 -106 -101q0 -47 27.5 -69.5t71.5 -22.5q70 0 124 41l8 -13q-90 -73 -232 -73q-110 0 -169 35
t-59 92q0 39 31 75t98 48v5q-61 7 -87 34.5t-26 60.5q0 54 59.5 89t169.5 35q102 0 148.5 -32t46.5 -81q0 -28 -18.5 -49t-50.5 -21q-39 0 -60 24.5t-21 67.5q0 40 14 65q-42 0 -65 -25.5t-23 -68.5q0 -96 119 -97z" />
    <glyph glyph-name="etatonos" unicode="&#x3ae;" horiz-adv-x="669" 
d="M607 316l-1 -217q0 -33 11 -44.5t36 -13.5l2 -18q-22 -17 -65 -27t-73 -10q-54 0 -91 26.5t-37 86.5v243q0 52 -36 52q-33 0 -64 -49v-271q0 -22 6 -34.5t13.5 -15.5t13.5 -6.5t6 -9.5v-8h-310v6q0 7 9 12t19 9t19 20.5t9 44.5v243q0 33 -14 46.5t-28.5 16.5t-14.5 11v8
q71 11 262 41l6 -7l-11 -91h4q34 52 83.5 74.5t96.5 22.5q64 0 106.5 -34t42.5 -107zM225 503l-6 15q28 21 49.5 48t31 44.5t21 44.5t13.5 31q14 30 29 44.5t39 14.5q33 0 51 -20t18 -46q0 -17 -11 -38t-36 -46.5t-77 -50.5t-122 -41z" />
    <glyph glyph-name="iotatonos" unicode="&#x3af;" horiz-adv-x="371" 
d="M211 -14q-22 0 -42 4.5t-41.5 15t-34.5 33.5t-13 55l-1 241q0 33 -14 46.5t-28.5 16.5t-14.5 11v8q90 13 270 41l5 -7l1 -352q0 -32 12 -44t37 -14l2 -18q-22 -17 -65 -27t-73 -10zM76 503l-6 15q28 21 49.5 48t31 44.5t21 44.5t13.5 31q14 30 29 44.5t39 14.5
q33 0 51 -20t18 -46q0 -17 -11 -38t-36 -46.5t-77 -50.5t-122 -41z" />
    <glyph glyph-name="upsilondieresistonos" unicode="&#x3b0;" horiz-adv-x="649" 
d="M70 186v151q0 33 -14 46.5t-28.5 16.5t-14.5 11v7l269 39l6 -7q0 -66 -0.5 -198t-0.5 -199q0 -51 39 -51q61 0 61 221q0 97 -9.5 152t-36.5 70l4 18q73 -1 128 -20t87 -52t47.5 -74t15.5 -89q0 -45 -17.5 -87t-52 -77.5t-94 -57t-135.5 -21.5q-120 0 -187 59t-67 142z
M247 487l-12 12q23 42 32 76t11 77t2 46q12 86 80 86q26 0 42 -17.5t16 -44.5q0 -28 -12 -60t-53 -80.5t-106 -94.5zM80 619q0 36 25.5 62t61.5 26q37 0 62.5 -26t25.5 -62q0 -37 -25.5 -63t-62.5 -26q-36 0 -61.5 26t-25.5 63zM410 619q0 36 25.5 62t61.5 26q37 0 62.5 -26
t25.5 -62q0 -37 -25.5 -63t-62.5 -26t-62 26t-25 63z" />
    <glyph glyph-name="alpha" unicode="&#x3b1;" horiz-adv-x="651" 
d="M590 283v-182q0 -33 9.5 -44.5t33.5 -13.5l2 -18q-22 -17 -62.5 -27t-70.5 -10q-110 0 -126 71q-52 -78 -150 -78q-83 0 -140.5 59t-57.5 175q0 98 55.5 168.5t156.5 70.5q99 0 142 -57q107 12 193 68h18q-3 -99 -3 -182zM319 43q31 0 52 42v293q-19 29 -50 29
q-32 0 -46 -42.5t-14 -144.5q0 -95 12.5 -136t45.5 -41z" />
    <glyph glyph-name="beta" unicode="&#x3b2;" horiz-adv-x="635" 
d="M55 -225h-21q3 315 3 362v275q0 129 76.5 224t199.5 95q118 0 176.5 -50t58.5 -121q0 -54 -39 -100.5t-119 -50.5v-4q56 -3 98.5 -21t64 -40t34.5 -51.5t16 -49.5t3 -40q0 -101 -60 -159.5t-154 -58.5q-100 0 -141 30q-1 0 -3 -1l-2 -161q-98 -10 -191 -78zM283 397v21
q35 8 49.5 41t14.5 111q0 142 -48 142q-43 0 -43 -69v-604q26 -17 46 -17q67 0 67 207q0 49 -6 83t-26 59t-54 26z" />
    <glyph glyph-name="gamma" unicode="&#x3b3;" horiz-adv-x="585" 
d="M167 -243l1 316l-82 230q-14 37 -26.5 52.5t-31.5 15.5q-4 0 -16 -2l-7 17q29 28 79.5 49.5t94.5 21.5q51 0 76.5 -19.5t44.5 -74.5l77 -220h6l65 202q7 18 7 31q0 17 -11.5 25t-25 9t-25 5.5t-11.5 14.5v6h198v-9q0 -10 -21 -13t-49.5 -18.5t-41.5 -54.5l-84 -243v-263
q-104 -11 -196 -78h-21z" />
    <glyph glyph-name="delta" unicode="&#x3b4;" horiz-adv-x="648" 
d="M247 422l2 5q-140 81 -140 170q0 52 34.5 87t82 48.5t103.5 13.5q113 0 165.5 -34t52.5 -83q0 -32 -21.5 -51.5t-49.5 -19.5q-43 0 -67 28t-24 70q0 30 14 66q-19 4 -37 4q-77 0 -77 -51q0 -21 18.5 -44.5t47.5 -46t64 -48.5t70.5 -57.5t64.5 -66t47.5 -81t18.5 -97.5
q0 -44 -16 -86t-48.5 -79.5t-91.5 -60.5t-137 -23q-144 0 -219.5 64t-75.5 159q0 36 11.5 70.5t35.5 66.5t68.5 53t103.5 24zM387 174q0 75 -21.5 127.5t-83.5 102.5q-21 -64 -21 -193q0 -115 13.5 -162t50.5 -47q62 0 62 172z" />
    <glyph glyph-name="epsilon" unicode="&#x3b5;" horiz-adv-x="493" 
d="M359 241v-19q-106 -12 -106 -101q0 -47 27.5 -69.5t71.5 -22.5q70 0 124 41l8 -13q-90 -73 -232 -73q-110 0 -169 35t-59 92q0 39 31 75t98 48v5q-61 7 -87 34.5t-26 60.5q0 54 59.5 89t169.5 35q102 0 148.5 -32t46.5 -81q0 -28 -18.5 -49t-50.5 -21q-39 0 -60 24.5
t-21 67.5q0 40 14 65q-42 0 -65 -25.5t-23 -68.5q0 -96 119 -97z" />
    <glyph glyph-name="zeta" unicode="&#x3b6;" horiz-adv-x="487" 
d="M527 731l8 -11q-51 -32 -90.5 -59.5t-89.5 -68.5t-83 -78t-56 -82.5t-23 -87.5q0 -29 11.5 -54t38.5 -49t49.5 -39.5t65.5 -42.5q61 -39 94 -74.5t33 -84.5q0 -66 -66.5 -119.5t-213.5 -64.5q0 3 -1 9.5t-1 9.5q128 14 128 66q0 16 -22.5 33.5t-56.5 32.5t-74 38.5
t-74 49t-56.5 66t-22.5 87.5q0 57 27.5 114.5t79.5 112.5t111 103t138 102l-3 3q-113 -73 -202 -73q-50 0 -80 25t-30 78q0 57 33 101h17q18 -96 189 -96q125 0 222 53z" />
    <glyph glyph-name="eta" unicode="&#x3b7;" horiz-adv-x="669" 
d="M607 316l-1 -217q0 -33 11 -44.5t36 -13.5l2 -18q-22 -17 -65 -27t-73 -10q-54 0 -91 26.5t-37 86.5v243q0 52 -36 52q-33 0 -64 -49v-271q0 -22 6 -34.5t13.5 -15.5t13.5 -6.5t6 -9.5v-8h-310v6q0 7 9 12t19 9t19 20.5t9 44.5v243q0 33 -14 46.5t-28.5 16.5t-14.5 11v8
q71 11 262 41l6 -7l-11 -91h4q34 52 83.5 74.5t96.5 22.5q64 0 106.5 -34t42.5 -107z" />
    <glyph glyph-name="theta" unicode="&#x3b8;" horiz-adv-x="647" 
d="M28 368q0 174 75 275t220 101q80 0 139 -29.5t92 -83t48.5 -118.5t15.5 -145q0 -64 -10.5 -120t-33 -104.5t-56.5 -83.5t-84 -55t-112 -20q-151 0 -222.5 104t-71.5 279zM324 2q35 0 47.5 79t12.5 283h-120q0 -212 11.5 -287t48.5 -75zM323 726q-34 0 -46.5 -84
t-12.5 -256h120q0 190 -12 265t-49 75z" />
    <glyph glyph-name="iota" unicode="&#x3b9;" horiz-adv-x="371" 
d="M211 -14q-22 0 -42 4.5t-41.5 15t-34.5 33.5t-13 55l-1 241q0 33 -14 46.5t-28.5 16.5t-14.5 11v8q90 13 270 41l5 -7l1 -352q0 -32 12 -44t37 -14l2 -18q-22 -17 -65 -27t-73 -10z" />
    <glyph glyph-name="kappa" unicode="&#x3ba;" horiz-adv-x="653" 
d="M316 218l124 125q17 17 17 31q0 13 -15 21.5t-33 12t-33 8.5t-15 11v9h261v-7q0 -10 -21 -14t-59 -18t-68 -45l-26 -28l103 -200q21 -41 42.5 -65t33.5 -29t20 -9.5t8 -13.5v-7h-256l-100 199h-13v-111q0 -27 8 -42.5t17.5 -19t17.5 -8t8 -11.5v-7h-325v6q0 8 8.5 13.5
t19 9t19 19.5t8.5 44v243q0 33 -14 46.5t-28.5 16.5t-14.5 11v7q79 10 269 31l7 -6v-223h30z" />
    <glyph glyph-name="lambda" unicode="&#x3bb;" horiz-adv-x="580" 
d="M229 367h-3l-93 -271q-12 -32 -3 -47.5t24.5 -18.5t30 -7.5t14.5 -15.5v-7h-197v8q0 9 13.5 14t31 8.5t38 22t31.5 50.5l103 299l-50 191q-10 37 -22.5 52.5t-40.5 15.5q-10 0 -17 -1l-6 17q29 24 74.5 43.5t79.5 19.5q57 0 88.5 -26t47.5 -87l131 -495q9 -36 22 -54
t42 -19l4 -17q-68 -57 -139 -57q-57 0 -87 26t-46 87z" />
    <glyph glyph-name="nu" unicode="&#x3bd;" horiz-adv-x="584" 
d="M380 217h4l33 68q29 61 29 89q0 17 -9 26t-20 11t-20 5t-9 10v10h191v-8q0 -7 -11 -12t-28 -10.5t-43 -32.5t-49 -72l-164 -314l-14 -2l-203 380q-10 19 -22 31t-20 15t-13.5 6.5t-5.5 10.5v8h355v-8q0 -8 -14.5 -12t-28.5 -11.5t-14 -23.5q0 -20 13 -43z" />
    <glyph glyph-name="xi" unicode="&#x3be;" horiz-adv-x="507" 
d="M422 423l-3 -21q-200 -2 -200 -94q0 -28 29 -58t70.5 -56.5t83.5 -55t71 -65.5t29 -76q0 -63 -62.5 -115.5t-208.5 -75.5q0 2 -1 5.5t-1.5 6.5t-0.5 6q112 25 112 71q0 22 -32 44.5t-78 45.5t-92.5 51t-78.5 72.5t-32 98.5q0 78 67.5 136t184.5 65l1 2v2q-123 0 -182 46
t-59 110q0 73 64.5 122.5t181.5 49.5q58 0 101.5 -13t65 -33.5t31.5 -41t10 -40.5q0 -33 -21.5 -54.5t-52.5 -21.5q-45 0 -67.5 28t-22.5 70q0 41 20 79q-15 3 -26 3q-49 0 -75.5 -37.5t-26.5 -102.5q0 -145 201 -153z" />
    <glyph glyph-name="omicron" unicode="&#x3bf;" horiz-adv-x="646" 
d="M28 223q0 101 77.5 167.5t216.5 66.5q151 0 223.5 -68.5t72.5 -165.5t-76 -167.5t-221 -70.5t-219 68.5t-74 169.5zM265 220q0 -116 12 -167t47 -51t46.5 50.5t11.5 167.5q0 121 -11.5 169.5t-47.5 48.5q-34 0 -46 -55.5t-12 -162.5z" />
    <glyph glyph-name="pi" unicode="&#x3c0;" horiz-adv-x="672" 
d="M385 415h-95v-331q0 -33 12.5 -46.5t25 -16.5t12.5 -11v-10h-322v10q0 7 8.5 12t18.5 8t18.5 18t8.5 40v327h-60v21h645v-21h-54v-316q0 -33 11.5 -44.5t36.5 -13.5l2 -18q-22 -16 -67 -26.5t-76 -10.5q-125 0 -125 117v312z" />
    <glyph glyph-name="rho" unicode="&#x3c1;" horiz-adv-x="637" 
d="M37 -246l1 426q0 42 9 80.5t30.5 75t53.5 63.5t82 43t113 16q142 0 212 -69t70 -176q0 -112 -76 -171.5t-177 -59.5q-53 0 -98 12h-1l-2 -1v-164q-108 -11 -196 -75h-21zM372 215q0 120 -12 172t-47 52q-57 0 -57 -142v-283q22 -6 38 -6q45 0 61.5 51.5t16.5 155.5z" />
    <glyph glyph-name="sigma1" unicode="&#x3c2;" horiz-adv-x="516" 
d="M209 -180l-3 19q107 21 107 62q0 19 -29.5 41t-71 46t-83.5 54.5t-71.5 78t-29.5 105.5q0 101 74 166t199 65q99 0 144.5 -38t45.5 -88q0 -35 -23 -57.5t-55 -22.5q-46 0 -69.5 29t-23.5 72q0 36 21 80q-14 2 -22 2q-39 0 -67 -24.5t-28 -69.5q0 -39 26.5 -75.5t65 -65.5
t76.5 -57t64.5 -62t26.5 -69q0 -154 -274 -191z" />
    <glyph glyph-name="sigma" unicode="&#x3c3;" horiz-adv-x="648" 
d="M319 436h116h104.5h79.5v-22h-140q0 -1 -1 -2v-2q61 -23 97.5 -77t36.5 -115q0 -43 -18 -83.5t-52 -74.5t-92.5 -54.5t-131.5 -20.5q-141 0 -215.5 66t-74.5 161q0 96 77.5 160t213.5 64zM264 210q0 -107 11 -157.5t46 -50.5q34 0 47.5 53.5t13.5 154.5
q0 104 -13.5 155.5t-48.5 51.5q-56 0 -56 -207z" />
    <glyph glyph-name="tau" unicode="&#x3c4;" horiz-adv-x="423" 
d="M226 -15q-76 0 -106 41.5t-30 114.5v276h-87v19h415v-19h-112v-288q0 -66 63 -66q17 0 41 4l3 -17q-82 -65 -187 -65z" />
    <glyph glyph-name="upsilon" unicode="&#x3c5;" horiz-adv-x="649" 
d="M70 186v151q0 33 -14 46.5t-28.5 16.5t-14.5 11v7l269 39l6 -7q0 -66 -0.5 -198t-0.5 -199q0 -51 39 -51q61 0 61 221q0 97 -9.5 152t-36.5 70l4 18q73 -1 128 -20t87 -52t47.5 -74t15.5 -89q0 -45 -17.5 -87t-52 -77.5t-94 -57t-135.5 -21.5q-120 0 -187 59t-67 142z
" />
    <glyph glyph-name="phi" unicode="&#x3c6;" horiz-adv-x="889" 
d="M330 -246l2 223q-154 16 -229 82t-75 164q0 97 77.5 162t222.5 72q2 -12 2 -17q-33 -16 -50.5 -65t-17.5 -175q0 -108 15.5 -153.5t54.5 -49.5v183q0 53 13 99.5t41.5 88t81.5 66t125 24.5q137 0 202.5 -65t65.5 -165q0 -101 -75.5 -169t-238.5 -82v-148
q-108 -11 -196 -75h-21zM547 381v-384q77 7 77 208q0 141 -9 187.5t-35 46.5q-33 0 -33 -58z" />
    <glyph glyph-name="chi" unicode="&#x3c7;" horiz-adv-x="617" 
d="M351 342l50 -78l38 64q23 38 23 58q0 21 -26 27.5t-26 13.5v8h186v-8q0 -6 -11.5 -10t-29.5 -9.5t-46.5 -30t-55.5 -66.5l-41 -63l108 -165q21 -32 43.5 -47.5t33.5 -19t11 -10.5v-6h-373v7q0 7 13.5 11t27 11t13.5 23q0 10 -31 58l-47 74l-44 -69q-27 -43 -27 -64
t27.5 -29t27.5 -15v-7h-190v7q0 6 11.5 10t29 9.5t45.5 30t55 64.5l54 81l-97 150q-17 26 -33 41.5t-25.5 19t-15 7t-5.5 9.5v7h356v-8q0 -6 -11 -9.5t-22.5 -11.5t-11.5 -25q0 -15 16 -40z" />
    <glyph glyph-name="psi" unicode="&#x3c8;" horiz-adv-x="908" 
d="M61 246v88q0 26 -9 40.5t-19.5 17.5t-19.5 6.5t-9 9.5v8l264 39l6 -7v-268q0 -84 14.5 -127.5t62.5 -53.5v503q0 26 -9 40.5t-19.5 17.5t-19.5 6.5t-9 9.5v8l267 36l6 -7v-615q72 13 72 145v168q0 86 35 115.5t94 29.5q29 0 68.5 -10t61.5 -27l-2 -16q-26 -2 -35 -12
t-9 -47v-69q0 -55 -13 -101t-43 -89.5t-88.5 -71.5t-140.5 -36v-96q0 -30 8.5 -46.5t19 -19.5t19 -7t8.5 -13v-7h-326v7q0 9 8.5 13t19 7t19 19.5t8.5 46.5v96q-78 8 -136 33.5t-90.5 63.5t-48 81t-15.5 91z" />
    <glyph glyph-name="omega" unicode="&#x3c9;" horiz-adv-x="911" 
d="M883 223q0 -101 -67.5 -169.5t-188.5 -68.5q-96 0 -115 76q-62 -76 -195 -76q-147 0 -218 68t-71 170q0 98 73.5 164t206.5 70l2 -19q-41 -29 -41 -218q0 -131 9 -175t40 -44q19 0 31 19.5t12 53.5v167q0 24 -7 37.5t-15 16t-15 6.5t-7 10v8l248 39q1 -1 3 -3.5t4 -3.5
v-88q0 -117 -45 -184q5 -33 21.5 -50t33.5 -17q31 0 45.5 44t14.5 161q0 194 -43 221q2 14 4 19q133 -4 206.5 -70t73.5 -164z" />
    <glyph glyph-name="iotadieresis" unicode="&#x3ca;" horiz-adv-x="371" 
d="M211 -14q-22 0 -42 4.5t-41.5 15t-34.5 33.5t-13 55l-1 241q0 33 -14 46.5t-28.5 16.5t-14.5 11v8q90 13 270 41l5 -7l1 -352q0 -32 12 -44t37 -14l2 -18q-22 -17 -65 -27t-73 -10zM-17 623q0 37 26.5 63.5t63.5 26.5t63.5 -26.5t26.5 -63.5q0 -38 -26 -64.5t-64 -26.5
t-64 26.5t-26 64.5zM196 623q0 37 26.5 63.5t63.5 26.5t63.5 -26.5t26.5 -63.5q0 -38 -26 -64.5t-64 -26.5t-64 26.5t-26 64.5z" />
    <glyph glyph-name="upsilondieresis" unicode="&#x3cb;" horiz-adv-x="649" 
d="M70 186v151q0 33 -14 46.5t-28.5 16.5t-14.5 11v7l269 39l6 -7q0 -66 -0.5 -198t-0.5 -199q0 -51 39 -51q61 0 61 221q0 97 -9.5 152t-36.5 70l4 18q73 -1 128 -20t87 -52t47.5 -74t15.5 -89q0 -45 -17.5 -87t-52 -77.5t-94 -57t-135.5 -21.5q-120 0 -187 59t-67 142z
M123 623q0 37 26.5 63.5t63.5 26.5t63.5 -26.5t26.5 -63.5q0 -38 -26 -64.5t-64 -26.5t-64 26.5t-26 64.5zM336 623q0 37 26.5 63.5t63.5 26.5t63.5 -26.5t26.5 -63.5q0 -38 -26 -64.5t-64 -26.5t-64 26.5t-26 64.5z" />
    <glyph glyph-name="omicrontonos" unicode="&#x3cc;" horiz-adv-x="646" 
d="M28 223q0 101 77.5 167.5t216.5 66.5q151 0 223.5 -68.5t72.5 -165.5t-76 -167.5t-221 -70.5t-219 68.5t-74 169.5zM265 220q0 -116 12 -167t47 -51t46.5 50.5t11.5 167.5q0 121 -11.5 169.5t-47.5 48.5q-34 0 -46 -55.5t-12 -162.5zM239 503l-6 15q28 21 49.5 48
t31 44.5t21 44.5t13.5 31q14 30 29 44.5t39 14.5q33 0 51 -20t18 -46q0 -17 -11 -38t-36 -46.5t-77 -50.5t-122 -41z" />
    <glyph glyph-name="upsilontonos" unicode="&#x3cd;" horiz-adv-x="649" 
d="M226 503l-6 15q28 21 49.5 48t31 44.5t21 44.5t13.5 31q14 30 29 44.5t39 14.5q33 0 51 -20t18 -46q0 -17 -11 -38t-36 -46.5t-77 -50.5t-122 -41zM70 186v151q0 33 -14 46.5t-28.5 16.5t-14.5 11v7l269 39l6 -7q0 -66 -0.5 -198t-0.5 -199q0 -51 39 -51q61 0 61 221
q0 97 -9.5 152t-36.5 70l4 18q73 -1 128 -20t87 -52t47.5 -74t15.5 -89q0 -45 -17.5 -87t-52 -77.5t-94 -57t-135.5 -21.5q-120 0 -187 59t-67 142z" />
    <glyph glyph-name="omegatonos" unicode="&#x3ce;" horiz-adv-x="911" 
d="M883 223q0 -101 -67.5 -169.5t-188.5 -68.5q-96 0 -115 76q-62 -76 -195 -76q-147 0 -218 68t-71 170q0 98 73.5 164t206.5 70l2 -19q-41 -29 -41 -218q0 -131 9 -175t40 -44q19 0 31 19.5t12 53.5v167q0 24 -7 37.5t-15 16t-15 6.5t-7 10v8l248 39q1 -1 3 -3.5t4 -3.5
v-88q0 -117 -45 -184q5 -33 21.5 -50t33.5 -17q31 0 45.5 44t14.5 161q0 194 -43 221q2 14 4 19q133 -4 206.5 -70t73.5 -164zM366 503l-6 15q28 21 49.5 48t31 44.5t21 44.5t13.5 31q14 30 29 44.5t39 14.5q33 0 51 -20t18 -46q0 -17 -11 -38t-36 -46.5t-77 -50.5t-122 -41
z" />
    <glyph glyph-name="endash" unicode="&#x2013;" horiz-adv-x="658" 
d="M617 236h-571v51h571v-51z" />
    <glyph glyph-name="emdash" unicode="&#x2014;" horiz-adv-x="945" 
d="M901 236h-855v51h855v-51z" />
    <glyph glyph-name="afii00208" unicode="&#x2015;" horiz-adv-x="945" 
d="M901 236h-855v51h855v-51z" />
    <glyph glyph-name="quoteleft" unicode="&#x2018;" horiz-adv-x="263" 
d="M134 406q-44 0 -67 30.5t-23 71.5q0 66 36.5 140.5t94.5 124.5l12 -14q-42 -44 -67.5 -95t-29.5 -95q19 15 51 15q37 0 59 -26t22 -62q0 -35 -25 -62.5t-63 -27.5z" />
    <glyph glyph-name="quoteright" unicode="&#x2019;" horiz-adv-x="263" 
d="M133 751q43 0 66.5 -31t23.5 -71q0 -66 -36.5 -140.5t-94.5 -124.5l-12 14q42 43 67 94.5t30 95.5q-20 -16 -48 -16q-39 0 -61.5 25.5t-22.5 63.5q0 35 25 62.5t63 27.5z" />
    <glyph glyph-name="quotesinglbase" unicode="&#x201a;" horiz-adv-x="263" 
d="M130 164q44 0 67 -30.5t23 -71.5q0 -65 -36.5 -139t-94.5 -124l-12 14q42 43 67.5 94.5t29.5 93.5q-20 -14 -48 -14q-39 0 -61.5 25t-22.5 62q0 35 25 62.5t63 27.5z" />
    <glyph glyph-name="quotedblleft" unicode="&#x201c;" horiz-adv-x="453" 
d="M134 404q-44 0 -67 31t-23 72q0 66 36.5 140.5t94.5 124.5l12 -14q-42 -44 -67.5 -95.5t-29.5 -94.5q19 15 48 15q38 0 61 -25.5t23 -62.5q0 -36 -25 -63.5t-63 -27.5zM329 404q-44 0 -67.5 31t-23.5 72q0 66 37 140.5t95 124.5l12 -14q-86 -91 -97 -190q20 15 48 15
q38 0 61 -25.5t23 -62.5q0 -36 -25 -63.5t-63 -27.5z" />
    <glyph glyph-name="quotedblright" unicode="&#x201d;" horiz-adv-x="453" 
d="M129 752q44 0 67 -31t23 -72q0 -66 -36.5 -140.5t-94.5 -124.5l-12 14q42 44 67.5 95.5t29.5 94.5q-19 -15 -48 -15q-39 0 -61.5 25.5t-22.5 62.5q0 36 25 63.5t63 27.5zM323 752q44 0 67 -31t23 -72q0 -66 -36.5 -140.5t-94.5 -124.5l-12 14q86 91 97 190
q-20 -15 -48 -15q-39 0 -61.5 25.5t-22.5 62.5q0 36 25 63.5t63 27.5z" />
    <glyph glyph-name="quotedblbase" unicode="&#x201e;" horiz-adv-x="453" 
d="M130 164q44 0 67 -30.5t23 -71.5q0 -65 -36.5 -139t-94.5 -124l-12 14q42 43 67.5 94.5t29.5 93.5q-20 -14 -48 -14q-39 0 -61.5 25t-22.5 62q0 35 25 62.5t63 27.5zM324 164q44 0 67 -30.5t23 -71.5q0 -65 -36.5 -139t-94.5 -124l-12 14q42 43 67.5 94.5t29.5 93.5
q-20 -14 -48 -14q-39 0 -61.5 25t-22.5 62q0 35 25 62.5t63 27.5z" />
    <glyph glyph-name="dagger" unicode="&#x2020;" horiz-adv-x="551" 
d="M281 482q9 -86 63 -234q-58 -304 -61 -486h-16q0 97 -18 237.5t-42 248.5q38 115 60 234q-118 -64 -163 -64q-29 0 -49.5 19.5t-20.5 55.5q0 38 20.5 55.5t47.5 17.5q41 0 163 -66q-61 136 -61 181q0 31 19.5 52t53.5 21q38 0 54 -21t16 -50q0 -24 -22.5 -83.5
t-41.5 -98.5q31 19 87 43t78 24q27 0 46.5 -17.5t19.5 -55.5q0 -36 -20 -56.5t-48 -20.5q-43 0 -165 64z" />
    <glyph glyph-name="daggerdbl" unicode="&#x2021;" horiz-adv-x="551" 
d="M209 250q38 113 60 234q-120 -63 -163 -63q-29 0 -49 19t-20 55q0 38 20 55.5t47 17.5q43 0 163 -65q-61 134 -61 180q0 31 19.5 52.5t53.5 21.5q37 0 53.5 -21t16.5 -51q0 -24 -22.5 -83t-41.5 -98q29 17 85.5 41.5t78.5 24.5q28 0 47.5 -17t19.5 -56q0 -36 -20 -56
t-49 -20q-42 0 -164 64q7 -80 63 -235q-56 -153 -63 -234q122 64 164 64q29 0 49 -20t20 -56q0 -39 -19.5 -56t-47.5 -17q-22 0 -78.5 24.5t-85.5 41.5q19 -39 41.5 -98t22.5 -83q0 -30 -16.5 -51t-53.5 -21q-34 0 -53.5 21.5t-19.5 51.5q0 47 61 181q-120 -65 -163 -65
q-28 0 -47.5 17t-19.5 55q0 35 20 55t49 20q43 0 163 -63q-22 118 -60 233z" />
    <glyph glyph-name="bullet" unicode="&#x2022;" horiz-adv-x="452" 
d="M378 227q0 -65 -44.5 -110.5t-108.5 -45.5q-63 0 -107 45.5t-44 110.5q0 67 44 113t107 46q64 0 108.5 -46t44.5 -113z" />
    <glyph glyph-name="trianglebullet" unicode="&#x2023;" horiz-adv-x="481" 
d="M77 477l373 -200l-373 -211v411z" />
    <glyph glyph-name="ellipsis" unicode="&#x2026;" horiz-adv-x="785" 
d="M37 89q0 42 28.5 71.5t69.5 29.5q42 0 71 -29.5t29 -71.5q0 -41 -29 -70t-71 -29q-41 0 -69.5 29t-28.5 70zM293 89q0 42 28.5 71.5t69.5 29.5q42 0 71 -29.5t29 -71.5q0 -41 -29 -70t-71 -29q-41 0 -69.5 29t-28.5 70zM550 89q0 42 29 71.5t70 29.5t70 -29.5t29 -71.5
q0 -41 -29 -70t-70 -29t-70 29t-29 70z" />
    <glyph glyph-name="perthousand" unicode="&#x2030;" horiz-adv-x="1284" 
d="M603 720l-335 -759h-22l336 759h21zM21 498q0 86 52.5 144t144.5 58q100 0 149 -60t49 -142t-51 -144.5t-148 -62.5q-96 0 -146 60.5t-50 146.5zM181 494q0 -108 7.5 -147.5t30.5 -39.5t30.5 41t7.5 146q0 106 -7.5 148.5t-31.5 42.5q-22 0 -29.5 -47.5t-7.5 -143.5z
M440 198q0 86 52.5 144t144.5 58q100 0 149 -60t49 -142t-51 -144.5t-148 -62.5q-96 0 -146 60.5t-50 146.5zM600 194q0 -108 7.5 -147.5t30.5 -39.5t30.5 41t7.5 146q0 106 -7.5 148.5t-31.5 42.5q-22 0 -29.5 -47.5t-7.5 -143.5zM869 198q0 86 52.5 144t144.5 58
q100 0 149 -60t49 -142t-51 -144.5t-148 -62.5q-96 0 -146 60.5t-50 146.5zM1029 194q0 -108 7.5 -147.5t30.5 -39.5t30.5 41t7.5 146q0 106 -7.5 148.5t-31.5 42.5q-22 0 -29.5 -47.5t-7.5 -143.5z" />
    <glyph glyph-name="guilsinglleft" unicode="&#x2039;" horiz-adv-x="313" 
d="M164 206l112 -201l-10 -11l-211 186q-15 14 -15 25q0 13 15 27l209 187l12 -11z" />
    <glyph glyph-name="guilsinglright" unicode="&#x203a;" horiz-adv-x="313" 
d="M40 5l113 201l-113 202l12 11l210 -187q14 -13 14 -27q0 -11 -14 -25l-211 -186z" />
    <glyph glyph-name="fraction" unicode="&#x2044;" horiz-adv-x="133" 
d="M241 720l-335 -759h-22l336 759h21z" />
    <glyph glyph-name="fraction" unicode="&#x2215;" horiz-adv-x="133" 
d="M241 720l-335 -759h-22l336 759h21z" />
    <glyph glyph-name="foursuperior" unicode="&#x2074;" horiz-adv-x="426" 
d="M201 497h-191v15q85 118 163 270h176q-47 -79 -141 -152t-173 -116h166v74q81 15 140 54q2 0 6 -2v-126h51v-17h-51v-49q0 -19 10.5 -28t21.5 -12.5t11 -8.5v-9h-237v7q0 6 12 10t24 13.5t12 29.5v47z" />
    <glyph glyph-name="Euro" unicode="&#x20ac;" 
d="M493 365h-470v20h56q19 130 105 208t216 78q59 0 104 -14t69 -36t35.5 -44.5t11.5 -44.5q0 -37 -22 -59.5t-54 -22.5q-45 0 -66.5 30.5t-21.5 76.5q0 47 20 87q-15 4 -31 4q-126 0 -126 -263h174v-20zM23 302h470v-20h-175q0 -57 5 -100t17.5 -84.5t37.5 -63.5t62 -22
q17 0 44 8q-18 38 -18 79q0 47 22.5 79t66.5 32q32 0 54 -22.5t22 -58.5q0 -52 -58 -96t-181 -44q-135 0 -220.5 79t-96.5 214h-52v20z" />
    <glyph glyph-name="trademark" unicode="&#x2122;" horiz-adv-x="861" 
d="M28 553l14 132q77 -11 157 -11q98 -3 155 11l14 -132l-2 -1q-5 -1 -8 2.5t-6 12.5q-22 50 -40.5 72t-46.5 22h-5v-277q0 -15 3.5 -23t7.5 -9.5t7.5 -3.5t3.5 -6v-6h-171v6q0 5 6.5 7.5t13 10.5t6.5 26v275h-4q-28 0 -48 -23t-40 -71q-4 -10 -6.5 -13t-7.5 -2zM610 479
l69 195h149v-6q0 -4 -7 -6t-14.5 -10t-7.5 -26v-242q0 -14 4 -22t9 -9.5t9 -4t4 -6.5v-6h-174v6q0 5 6.5 7.5t13 10.5t6.5 26v243l-106 -295l-24 -1l-124 293v-236q0 -22 11.5 -30.5t23.5 -11t12 -8.5v-4h-109v4q0 7 12 9.5t24 10.5t12 30v226q0 23 -5 31.5t-17 12.5
q-8 2 -9 9v5h150z" />
    <glyph glyph-name="onethird" horiz-adv-x="847" 
d="M572 720l-335 -759h-22l336 759h21zM280 692v-334q0 -19 11 -28t22.5 -12.5t11.5 -8.5v-9h-246v7q0 6 13 10t26 13.5t13 29.5v256q0 20 -24 22q-2 0 -6 0.5t-6 1t-5 1t-4.5 1t-3.5 2t-2.5 3t-0.5 3.5v8l192 43zM650 215q65 -6 98 -35t33 -70q0 -52 -51 -85.5t-139 -33.5
q-87 0 -130.5 28.5t-43.5 71.5q0 38 28 56.5t75 18.5q14 0 22 -1l4 -12q-14 -17 -14 -64q0 -82 44 -82q46 0 46 97q0 98 -87 98q-4 0 -12 -0.5t-12 -0.5l-3 14q32 6 53 17t29.5 26.5t11 28t2.5 30.5q0 23 -11.5 44t-31.5 21q-7 0 -9 -1q14 -19 14 -45q0 -28 -17 -48.5
t-46 -20.5q-27 0 -41.5 15t-14.5 37q0 11 4.5 22.5t18 26.5t46.5 24.5t82 9.5q83 0 123.5 -28.5t40.5 -68.5q0 -31 -29 -57.5t-83 -32.5z" />
    <glyph glyph-name="twothirds" horiz-adv-x="847" 
d="M623 720l-335 -759h-22l336 759h21zM374 300h-337l-3 13q25 30 65 68.5t63 62t41.5 61.5t18.5 83q0 43 -19 71t-56 17q24 -18 24 -61q0 -25 -15 -44t-43 -19q-26 0 -41 16t-15 39q0 10 5 23t19.5 31t48.5 29.5t83 11.5q86 0 126 -32t40 -77q0 -48 -39.5 -82t-108.5 -66.5
t-93 -50.5h176q28 0 48 9t25.5 16.5t12.5 20.5t16 12l5 -1zM682 215q65 -6 98 -35t33 -70q0 -52 -51 -85.5t-139 -33.5q-87 0 -130.5 28.5t-43.5 71.5q0 38 28 56.5t75 18.5q14 0 22 -1l4 -12q-14 -17 -14 -64q0 -82 44 -82q46 0 46 97q0 98 -87 98q-4 0 -12 -0.5t-12 -0.5
l-3 14q32 6 53 17t29.5 26.5t11 28t2.5 30.5q0 23 -11.5 44t-31.5 21q-7 0 -9 -1q14 -19 14 -45q0 -28 -17 -48.5t-46 -20.5q-27 0 -41.5 15t-14.5 37q0 11 4.5 22.5t18 26.5t46.5 24.5t82 9.5q83 0 123.5 -28.5t40.5 -68.5q0 -31 -29 -57.5t-83 -32.5z" />
    <glyph glyph-name="onefifth" horiz-adv-x="847" 
d="M581 720l-335 -759h-22l336 759h21zM275 692v-334q0 -19 11.5 -28t22.5 -12.5t11 -8.5v-9h-246v7q0 6 13 10t26 13.5t13 29.5v256q0 20 -24 22q-2 0 -6 0.5t-6 1t-5 1t-4.5 1t-3.5 2t-2.5 3t-0.5 3.5v8l192 43zM463 191l29 192h184q29 0 47.5 6.5t23.5 12.5t13 18
q6 11 14 10l6 -1l-36 -149q-107 10 -179 10h-68l-14 -84q60 33 135 33t116.5 -33.5t41.5 -88.5t-50 -91t-150 -36q-78 0 -118.5 27t-40.5 68q0 38 28.5 59t70.5 21q7 0 25 -2l6 -14q-15 -20 -15 -61q0 -82 41 -82q47 0 47 98q0 96 -84 96q-30 0 -59 -13z" />
    <glyph glyph-name="twofifths" horiz-adv-x="847" 
d="M631 720l-335 -759h-22l336 759h21zM377 300h-337l-3 13q25 30 65 68.5t63 62t41.5 61.5t18.5 83q0 43 -19 71t-56 17q24 -18 24 -61q0 -25 -15 -44t-43 -19q-26 0 -41 16t-15 39q0 10 5 23t19.5 31t48.5 29.5t83 11.5q86 0 126 -32t40 -77q0 -48 -39.5 -82t-108.5 -66.5
t-93 -50.5h176q28 0 48 9t25.5 16.5t12.5 20.5t16 12l5 -1zM495 191l29 192h184q29 0 47.5 6.5t23.5 12.5t13 18q6 11 14 10l6 -1l-36 -149q-107 10 -179 10h-68l-14 -84q60 33 135 33t116.5 -33.5t41.5 -88.5t-50 -91t-150 -36q-78 0 -118.5 27t-40.5 68q0 38 28.5 59
t70.5 21q7 0 25 -2l6 -14q-15 -20 -15 -61q0 -82 41 -82q47 0 47 98q0 96 -84 96q-30 0 -59 -13z" />
    <glyph glyph-name="threefifths" horiz-adv-x="847" 
d="M622 720l-335 -759h-22l336 759h21zM281 515q65 -6 98 -35t33 -70q0 -52 -51 -85.5t-139 -33.5q-87 0 -130.5 28.5t-43.5 71.5q0 38 28 56.5t75 18.5q14 0 22 -1l4 -12q-14 -17 -14 -64q0 -82 44 -82q46 0 46 97q0 98 -87 98q-4 0 -12 -0.5t-12 -0.5l-3 14q32 6 53 17
t29.5 26.5t11 28t2.5 30.5q0 23 -11.5 44t-31.5 21q-7 0 -9 -1q14 -19 14 -45q0 -28 -17 -48.5t-46 -20.5q-27 0 -41.5 15t-14.5 37q0 11 4.5 22.5t18 26.5t46.5 24.5t82 9.5q83 0 123.5 -28.5t40.5 -68.5q0 -31 -29 -57.5t-83 -32.5zM489 191l29 192h184q29 0 47.5 6.5
t23.5 12.5t13 18q6 11 14 10l6 -1l-36 -149q-108 10 -179 10h-68l-14 -84q60 33 135 33t116.5 -33.5t41.5 -88.5t-50 -91t-150 -36q-78 0 -118.5 27t-40.5 68q0 38 28.5 59t70.5 21q7 0 25 -2l6 -14q-15 -20 -15 -61q0 -82 41 -82q47 0 47 98q0 96 -84 96q-30 0 -59 -13z
" />
    <glyph glyph-name="fourfifths" horiz-adv-x="847" 
d="M646 720l-335 -759h-22l336 759h21zM221 407h-191v15q85 118 163 270h176q-47 -79 -141 -152t-173 -116h166v74q81 15 140 54q2 0 6 -2v-126h51v-17h-51v-49q0 -19 10.5 -28t21.5 -12.5t11 -8.5v-9h-237v7q0 6 12 10t24 13.5t12 29.5v47zM500 191l29 192h184
q29 0 47.5 6.5t23.5 12.5t13 18q6 11 14 10l6 -1l-36 -149q-108 10 -179 10h-68l-14 -84q60 33 135 33t116.5 -33.5t41.5 -88.5t-50 -91t-150 -36q-78 0 -118.5 27t-40.5 68q0 38 28.5 59t70.5 21q7 0 25 -2l6 -14q-15 -20 -15 -61q0 -82 41 -82q47 0 47 98q0 96 -84 96
q-30 0 -59 -13z" />
    <glyph glyph-name="onesixth" horiz-adv-x="847" 
d="M575 720l-335 -759h-22l336 759h21zM281 692v-334q0 -19 11.5 -28t22.5 -12.5t11 -8.5v-9h-246v7q0 6 13 10t26 13.5t13 29.5v256q0 20 -24 22q-2 0 -6 0.5t-6 1t-5 1t-4.5 1t-3.5 2t-2.5 3t-0.5 3.5v8l192 43zM585 -9q-99 0 -144 40.5t-45 108.5q0 90 86 162t229 102
l5 -15q-169 -50 -169 -262q0 -71 9 -95.5t31 -24.5q42 0 42 113q0 13 -1.5 26t-6 31.5t-15 30.5t-25.5 14l-1 14q21 5 53 5q61 0 102.5 -28t41.5 -87q0 -57 -51 -96t-141 -39z" />
    <glyph glyph-name="fivesixths" horiz-adv-x="847" 
d="M616 720l-335 -759h-22l336 759h21zM90 492l29 192h184q29 0 47.5 6.5t23.5 12.5t13 18q6 11 14 10l6 -1l-36 -149q-107 10 -179 10h-68l-14 -84q60 33 135 33t116.5 -33.5t41.5 -88.5t-50 -91t-150 -36q-78 0 -118.5 27t-40.5 68q0 38 28.5 59t70.5 21q7 0 25 -2l6 -14
q-15 -20 -15 -61q0 -82 41 -82q47 0 47 98q0 96 -84 96q-30 0 -59 -13zM614 -9q-99 0 -144 40.5t-45 108.5q0 90 86 162t229 102l5 -15q-169 -50 -169 -262q0 -71 9 -95.5t31 -24.5q42 0 42 113q0 13 -1.5 26t-6 31.5t-15 30.5t-25.5 14l-1 14q21 5 53 5q61 0 102.5 -28
t41.5 -87q0 -57 -51 -96t-141 -39z" />
    <glyph glyph-name="oneeighth" horiz-adv-x="847" 
d="M566 720l-335 -759h-22l336 759h21zM280 692v-334q0 -19 11 -28t22.5 -12.5t11.5 -8.5v-9h-246v7q0 6 13 10t26 13.5t13 29.5v256q0 20 -24 22q-2 0 -6 0.5t-6 1t-5 1t-4.5 1t-3.5 2t-2.5 3t-0.5 3.5v8l192 43zM752 314q0 -26 -20 -46.5t-59 -27.5q51 -29 80 -57.5
t29 -65.5q0 -65 -56 -95.5t-136 -30.5q-38 0 -76.5 8.5t-71 32.5t-32.5 60q0 34 26 59t67 33q-74 52 -74 99q0 56 48.5 86.5t119.5 30.5q62 0 108.5 -21t46.5 -65zM651 59q0 42 -86 89l-44 24q-24 -30 -24 -67q0 -41 24.5 -69.5t71.5 -28.5q25 0 41.5 15.5t16.5 36.5z
M596 384q-24 0 -37.5 -12.5t-13.5 -33.5t25 -39.5t82 -47.5q8 30 8 67q0 28 -16 47t-48 19z" />
    <glyph glyph-name="threeeighths" horiz-adv-x="847" 
d="M609 720l-335 -759h-22l336 759h21zM276 515q65 -6 98 -35t33 -70q0 -52 -51 -85.5t-139 -33.5q-87 0 -130.5 28.5t-43.5 71.5q0 38 28 56.5t75 18.5q14 0 22 -1l4 -12q-14 -17 -14 -64q0 -82 44 -82q46 0 46 97q0 98 -87 98q-4 0 -12 -0.5t-12 -0.5l-3 14q32 6 53 17
t29.5 26.5t11 28t2.5 30.5q0 23 -11.5 44t-31.5 21q-7 0 -9 -1q14 -19 14 -45q0 -28 -17 -48.5t-46 -20.5q-27 0 -41.5 15t-14.5 37q0 11 4.5 22.5t18 26.5t46.5 24.5t82 9.5q83 0 123.5 -28.5t40.5 -68.5q0 -31 -29 -57.5t-83 -32.5zM778 314q0 -26 -20 -46.5t-59 -27.5
q51 -29 80 -57.5t29 -65.5q0 -65 -56 -95.5t-136 -30.5q-38 0 -76.5 8.5t-71 32.5t-32.5 60q0 34 26 59t67 33q-74 52 -74 99q0 56 48.5 86.5t119.5 30.5q62 0 108.5 -21t46.5 -65zM677 59q0 42 -86 89l-44 24q-24 -30 -24 -67q0 -41 24.5 -69.5t71.5 -28.5q25 0 41.5 15.5
t16.5 36.5zM622 384q-24 0 -37.5 -12.5t-13.5 -33.5t25 -39.5t82 -47.5q8 30 8 67q0 28 -16 47t-48 19z" />
    <glyph glyph-name="fiveeighths" horiz-adv-x="847" 
d="M600 720l-335 -759h-22l336 759h21zM89 492l29 192h184q29 0 47.5 6.5t23.5 12.5t13 18q6 11 14 10l6 -1l-36 -149q-107 10 -179 10h-68l-14 -84q60 33 135 33t116.5 -33.5t41.5 -88.5t-50 -91t-150 -36q-78 0 -118.5 27t-40.5 68q0 38 28.5 59t70.5 21q7 0 25 -2l6 -14
q-15 -20 -15 -61q0 -82 41 -82q47 0 47 98q0 96 -84 96q-30 0 -59 -13zM775 314q0 -26 -20 -46.5t-59 -27.5q51 -29 80 -57.5t29 -65.5q0 -65 -56 -95.5t-136 -30.5q-38 0 -76.5 8.5t-71 32.5t-32.5 60q0 34 26 59t67 33q-74 52 -74 99q0 56 48.5 86.5t119.5 30.5
q62 0 108.5 -21t46.5 -65zM674 59q0 42 -86 89l-44 24q-24 -30 -24 -67q0 -41 24.5 -69.5t71.5 -28.5q25 0 41.5 15.5t16.5 36.5zM619 384q-24 0 -37.5 -12.5t-13.5 -33.5t25 -39.5t82 -47.5q8 30 8 67q0 28 -16 47t-48 19z" />
    <glyph glyph-name="seveneighths" horiz-adv-x="847" 
d="M553 720l-335 -759h-22l336 759h21zM397 690l6 -9q-104 -145 -137 -381q-30 -1 -90 -2t-90 -2q20 66 91 150.5t144 147.5h-158q-31 0 -49.5 -8t-24 -17t-11 -16t-13.5 -6l-6 1l44 152q87 -10 198 -10h96zM757 314q0 -26 -20 -46.5t-59 -27.5q51 -29 80 -57.5t29 -65.5
q0 -65 -56 -95.5t-136 -30.5q-38 0 -76.5 8.5t-71 32.5t-32.5 60q0 34 26 59t67 33q-74 52 -74 99q0 56 48.5 86.5t119.5 30.5q62 0 108.5 -21t46.5 -65zM656 59q0 42 -86 89l-44 24q-24 -30 -24 -67q0 -41 24.5 -69.5t71.5 -28.5q25 0 41.5 15.5t16.5 36.5zM601 384
q-24 0 -37.5 -12.5t-13.5 -33.5t25 -39.5t82 -47.5q8 30 8 67q0 28 -16 47t-48 19z" />
    <glyph glyph-name="zero.numerator" horiz-adv-x="426" 
d="M14 498q0 86 52.5 144t144.5 58q100 0 149 -60t49 -142t-51 -144.5t-148 -62.5q-96 0 -146 60.5t-50 146.5zM174 494q0 -108 7.5 -147.5t30.5 -39.5t30.5 41t7.5 146q0 106 -7.5 148.5t-31.5 42.5q-22 0 -29.5 -47.5t-7.5 -143.5z" />
    <glyph glyph-name="one.numerator" horiz-adv-x="406" 
d="M280 692v-334q0 -19 11 -28t22.5 -12.5t11.5 -8.5v-9h-246v7q0 6 13 10t26 13.5t13 29.5v256q0 20 -24 22q-2 0 -6 0.5t-6 1t-5 1t-4.5 1t-3.5 2t-2.5 3t-0.5 3.5v8l192 43z" />
    <glyph glyph-name="two.numerator" horiz-adv-x="426" 
d="M345 300h-337l-3 13q25 30 65 68.5t63 62t41.5 61.5t18.5 83q0 43 -19 71t-56 17q24 -18 24 -61q0 -25 -15 -44t-43 -19q-26 0 -41 16t-15 39q0 10 5 23t19.5 31t48.5 29.5t83 11.5q86 0 126 -32t40 -77q0 -48 -39.5 -82t-108.5 -66.5t-93 -50.5h176q28 0 48 9t25.5 16.5
t12.5 20.5t16 12l5 -1z" />
    <glyph glyph-name="three.numerator" horiz-adv-x="426" 
d="M251 515q65 -6 98 -35t33 -70q0 -52 -51 -85.5t-139 -33.5q-87 0 -130.5 28.5t-43.5 71.5q0 38 28 56.5t75 18.5q14 0 22 -1l4 -12q-14 -17 -14 -64q0 -82 44 -82q46 0 46 97q0 98 -87 98q-4 0 -12 -0.5t-12 -0.5l-3 14q32 6 53 17t29.5 26.5t11 28t2.5 30.5
q0 23 -11.5 44t-31.5 21q-7 0 -9 -1q14 -19 14 -45q0 -28 -17 -48.5t-46 -20.5q-27 0 -41.5 15t-14.5 37q0 11 4.5 22.5t18 26.5t46.5 24.5t82 9.5q83 0 123.5 -28.5t40.5 -68.5q0 -31 -29 -57.5t-83 -32.5z" />
    <glyph glyph-name="four.numerator" horiz-adv-x="426" 
d="M201 407h-191v15q85 118 163 270h176q-47 -79 -141 -152t-173 -116h166v74q81 15 140 54q2 0 6 -2v-126h51v-17h-51v-49q0 -19 10.5 -28t21.5 -12.5t11 -8.5v-9h-237v7q0 6 12 10t24 13.5t12 29.5v47z" />
    <glyph glyph-name="five.numerator" horiz-adv-x="426" 
d="M73 492l29 192h184q29 0 47.5 6.5t23.5 12.5t13 18q6 11 14 10l6 -1l-36 -149q-107 10 -179 10h-68l-14 -84q60 33 135 33t116.5 -33.5t41.5 -88.5t-50 -91t-150 -36q-78 0 -118.5 27t-40.5 68q0 38 28.5 59t70.5 21q7 0 25 -2l6 -14q-15 -20 -15 -61q0 -82 41 -82
q47 0 47 98q0 96 -84 96q-30 0 -59 -13z" />
    <glyph glyph-name="six.numerator" horiz-adv-x="426" 
d="M210 291q-99 0 -144 40.5t-45 108.5q0 90 86 162t229 102l5 -15q-169 -50 -169 -262q0 -71 9 -95.5t31 -24.5q42 0 42 113q0 13 -1.5 26t-6 31.5t-15 30.5t-25.5 14l-1 14q21 5 53 5q61 0 102.5 -28t41.5 -87q0 -57 -51 -96t-141 -39z" />
    <glyph glyph-name="seven.numerator" horiz-adv-x="409" 
d="M374 690l6 -9q-104 -145 -137 -381q-30 -1 -90 -2t-90 -2q20 66 91 150.5t144 147.5h-158q-31 0 -49.5 -8t-24 -17t-11 -16t-13.5 -6l-6 1l44 152q87 -10 198 -10h96z" />
    <glyph glyph-name="eight.numerator" horiz-adv-x="426" 
d="M369 614q0 -26 -20 -46.5t-59 -27.5q51 -29 80 -57.5t29 -65.5q0 -65 -56 -95.5t-136 -30.5q-38 0 -76.5 8.5t-71 32.5t-32.5 60q0 34 26 59t67 33q-74 52 -74 99q0 56 48.5 86.5t119.5 30.5q62 0 108.5 -21t46.5 -65zM268 359q0 42 -86 89l-44 24q-24 -30 -24 -67
q0 -41 24.5 -69.5t71.5 -28.5q25 0 41.5 15.5t16.5 36.5zM213 684q-24 0 -37.5 -12.5t-13.5 -33.5t25 -39.5t82 -47.5q8 30 8 67q0 28 -16 47t-48 19z" />
    <glyph glyph-name="nine.numerator" horiz-adv-x="426" 
d="M210 702q99 0 144 -40t45 -108q0 -90 -86 -162t-229 -103l-5 14q169 53 169 263q0 71 -8.5 95.5t-30.5 24.5q-42 0 -42 -113q0 -12 1.5 -25.5t6 -31.5t15 -30.5t25.5 -13.5v-15q-28 -5 -54 -5q-61 0 -102.5 28t-41.5 88q0 57 51.5 95.5t141.5 38.5z" />
    <glyph glyph-name="zero.denominator" horiz-adv-x="426" 
d="M14 198q0 86 52.5 144t144.5 58q100 0 149 -60t49 -142t-51 -144.5t-148 -62.5q-96 0 -146 60.5t-50 146.5zM174 194q0 -108 7.5 -147.5t30.5 -39.5t30.5 41t7.5 146q0 106 -7.5 148.5t-31.5 42.5q-22 0 -29.5 -47.5t-7.5 -143.5z" />
    <glyph glyph-name="one.denominator" horiz-adv-x="406" 
d="M280 392v-334q0 -19 11 -28t22.5 -12.5t11.5 -8.5v-9h-246v7q0 6 13 10t26 13.5t13 29.5v256q0 20 -24 22q-2 0 -6 0.5t-6 1t-5 1t-4.5 1t-3.5 2t-2.5 3t-0.5 3.5v8l192 43z" />
    <glyph glyph-name="two.denominator" horiz-adv-x="426" 
d="M345 0h-337l-3 13q25 30 65 68.5t63 62t41.5 61.5t18.5 83q0 43 -19 71t-56 17q24 -18 24 -61q0 -25 -15 -44t-43 -19q-26 0 -41 16t-15 39q0 10 5 23t19.5 31t48.5 29.5t83 11.5q86 0 126 -32t40 -77q0 -48 -39.5 -82t-108.5 -66.5t-93 -50.5h176q28 0 48 9t25.5 16.5
t12.5 20.5t16 12l5 -1z" />
    <glyph glyph-name="three.denominator" horiz-adv-x="426" 
d="M251 215q65 -6 98 -35t33 -70q0 -52 -51 -85.5t-139 -33.5q-87 0 -130.5 28.5t-43.5 71.5q0 38 28 56.5t75 18.5q14 0 22 -1l4 -12q-14 -17 -14 -64q0 -82 44 -82q46 0 46 97q0 98 -87 98q-4 0 -12 -0.5t-12 -0.5l-3 14q32 6 53 17t29.5 26.5t11 28t2.5 30.5
q0 23 -11.5 44t-31.5 21q-7 0 -9 -1q14 -19 14 -45q0 -28 -17 -48.5t-46 -20.5q-27 0 -41.5 15t-14.5 37q0 11 4.5 22.5t18 26.5t46.5 24.5t82 9.5q83 0 123.5 -28.5t40.5 -68.5q0 -31 -29 -57.5t-83 -32.5z" />
    <glyph glyph-name="four.denominator" horiz-adv-x="426" 
d="M201 107h-191v15q85 118 163 270h176q-47 -79 -141 -152t-173 -116h166v74q81 15 140 54q2 0 6 -2v-126h51v-17h-51v-49q0 -19 10.5 -28t21.5 -12.5t11 -8.5v-9h-237v7q0 6 12 10t24 13.5t12 29.5v47z" />
    <glyph glyph-name="five.denominator" horiz-adv-x="426" 
d="M72 191l29 192h184q29 0 47.5 6.5t23.5 12.5t13 18q6 11 14 10l6 -1l-36 -149q-108 10 -179 10h-68l-14 -84q60 33 135 33t116.5 -33.5t41.5 -88.5t-50 -91t-150 -36q-78 0 -118.5 27t-40.5 68q0 38 28.5 59t70.5 21q7 0 25 -2l6 -14q-15 -20 -15 -61q0 -82 41 -82
q47 0 47 98q0 96 -84 96q-30 0 -59 -13z" />
    <glyph glyph-name="six.denominator" horiz-adv-x="426" 
d="M210 -9q-99 0 -144 40.5t-45 108.5q0 90 86 162t229 102l5 -15q-169 -50 -169 -262q0 -71 9 -95.5t31 -24.5q42 0 42 113q0 13 -1.5 26t-6 31.5t-15 30.5t-25.5 14l-1 14q21 5 53 5q61 0 102.5 -28t41.5 -87q0 -57 -51 -96t-141 -39z" />
    <glyph glyph-name="seven.denominator" horiz-adv-x="409" 
d="M374 390l6 -9q-104 -145 -137 -381q-30 -1 -90 -2t-90 -2q20 66 91 150.5t144 147.5h-158q-31 0 -49.5 -8t-24 -17t-11 -16t-13.5 -6l-6 1l44 152q87 -10 198 -10h96z" />
    <glyph glyph-name="eight.denominator" horiz-adv-x="426" 
d="M369 314q0 -26 -20 -46.5t-59 -27.5q51 -29 80 -57.5t29 -65.5q0 -65 -56 -95.5t-136 -30.5q-38 0 -76.5 8.5t-71 32.5t-32.5 60q0 34 26 59t67 33q-74 52 -74 99q0 56 48.5 86.5t119.5 30.5q62 0 108.5 -21t46.5 -65zM268 59q0 42 -86 89l-44 24q-24 -30 -24 -67
q0 -41 24.5 -69.5t71.5 -28.5q25 0 41.5 15.5t16.5 36.5zM213 384q-24 0 -37.5 -12.5t-13.5 -33.5t25 -39.5t82 -47.5q8 30 8 67q0 28 -16 47t-48 19z" />
    <glyph glyph-name="nine.denominator" horiz-adv-x="426" 
d="M210 402q99 0 144 -40t45 -108q0 -90 -86 -162t-229 -103l-5 14q169 53 169 263q0 71 -8.5 95.5t-30.5 24.5q-42 0 -42 -113q0 -12 1.5 -25.5t6 -31.5t15 -30.5t25.5 -13.5v-15q-28 -5 -54 -5q-61 0 -102.5 28t-41.5 88q0 57 51.5 95.5t141.5 38.5z" />
    </font>
</defs>
</svg>
