<?xml version="1.0" standalone="no"?>
<!DOCTYPE svg PUBLIC "-//W3C//DTD SVG 1.1//EN" "http://www.w3.org/Graphics/SVG/1.1/DTD/svg11.dtd" >
<svg xmlns="http://www.w3.org/2000/svg" xmlns:xlink="http://www.w3.org/1999/xlink" version="1.1">
<metadata>
Created by FontForge 20170731 at Mon Feb 15 11:08:52 2021
 By Aleksey,,,
Copyright (c) 2010 Parachute :, www.parachute.gr.  All rights reserved.
</metadata>
<defs>
<font id="PFRegalDisplayPro-UBlackItalic" horiz-adv-x="606" >
  <font-face 
    font-family="PF Regal Display Pro UBlack"
    font-weight="1000"
    font-style="italic"
    font-stretch="normal"
    units-per-em="1000"
    panose-1="2 0 5 3 0 0 0 9 0 4"
    ascent="800"
    descent="-200"
    x-height="457"
    cap-height="674"
    bbox="-216 -298 1229 942"
    underline-thickness="60"
    underline-position="-290"
    unicode-range="U+0020-2122"
  />
<missing-glyph horiz-adv-x="432" 
d="M2 0v700h429v-700h-429zM111 75h210l-105 200zM216 425l105 200h-211zM73 539v-377l101 188zM260 350l98 -188v378z" />
    <glyph glyph-name="f_t" unicode="ft" horiz-adv-x="655" 
d="M288 436h116q78 16 133.5 68.5t82.5 129.5h17l-37 -198h101q0 -2 -1.5 -9t-1.5 -10h-101q-54 -296 -68 -376q52 36 92 83l12 -12q-105 -127 -191 -127q-48 0 -75 22.5t-27 66.5q0 39 7 76l53 267h-114l-7 -48q-33 -219 -84 -354q-91 -238 -280 -238q-45 0 -70.5 22.5
t-25.5 53.5t19.5 49.5t47.5 18.5q41 0 62.5 -31.5t20.5 -86.5q15 3 25.5 23t21.5 71q16 75 38 269t34 251h-80q0 9 2 19h82q37 153 122.5 229.5t189.5 76.5q45 0 70.5 -22t25.5 -53t-21 -49t-52 -18q-29 0 -53.5 24.5t-24.5 75.5q0 12 1 19q-29 -12 -51 -191z" />
    <glyph glyph-name="f_f_t" unicode="fft" horiz-adv-x="950" 
d="M394 417h-105l-73 -402q-81 -2 -137 -58t-77 -160l-3 -15h-20q31 173 116 635h-81l4 19h82q19 77 56 134.5t84.5 88t96.5 45t100 14.5q65 0 91 -41q81 74 182 74q42 0 69 -20t27 -55q0 -31 -21.5 -49t-52.5 -18q-27 0 -52 21.5t-25 74.5q0 15 1 23q-13 -6 -23.5 -38.5
t-15 -64.5t-10.5 -79q-1 -12 -2 -18l-11 -92h106q79 16 134.5 68.5t82.5 129.5h17l-37 -198h100q-2 -14 -2 -19h-101l-69 -376q49 33 92 83l12 -12q-105 -127 -191 -127q-48 0 -75 22.5t-27 66.5q0 28 5 54l55 289h-105q-31 -253 -92 -409q-91 -237 -280 -237q-44 0 -70 23
t-26 53t19 47.5t47 17.5q36 0 59.5 -31t23.5 -77v-6q29 10 42 65q15 69 40.5 280.5t39.5 273.5zM292 436h106q20 81 53 142q-25 3 -45.5 29.5t-20.5 68.5q0 10 3 24q-31 -9 -51 -65.5t-45 -198.5z" />
    <glyph glyph-name="fj" unicode="fj" horiz-adv-x="621" 
d="M16 436h81q30 131 115 218.5t213 87.5q65 0 101 -24.5t36 -63.5q0 -35 -21 -53.5t-52 -18.5q-38 0 -63.5 27t-25.5 72q0 20 6 41q-16 0 -28.5 -7.5t-23 -27.5t-18 -39.5t-16 -58t-14 -68.5t-14.5 -85h26q66 0 151 7.5t131 17.5l4 -4l-62 -362q-34 -195 -168 -276
q-91 -54 -180 -54q-47 0 -74.5 24t-27.5 55q0 32 21 52.5t54 20.5q44 0 65 -34t16 -92q26 11 41.5 58.5t31.5 132.5l66 367q3 15 3 34q0 34 -51 34h-51l-62 -374q-90 -6 -146 -56.5t-77 -164.5l-4 -21h-20q29 159 113 616h-80z" />
    <glyph glyph-name="ffj" unicode="ffj" horiz-adv-x="925" 
d="M438 718q68 0 94 -45q84 69 206 69q60 0 93.5 -25t33.5 -63q0 -35 -20.5 -53.5t-52.5 -18.5q-39 0 -63.5 27.5t-24.5 75.5q0 17 6 37q-16 0 -28.5 -7.5t-23.5 -27.5t-18 -39t-16 -58.5t-14 -68.5t-15 -85h27q66 0 151 7.5t131 17.5l3 -4q-17 -100 -62 -362
q-17 -98 -56.5 -165.5t-111.5 -110.5q-91 -54 -186 -54q-43 0 -69 24t-26 55q0 32 21 52.5t53 20.5q44 0 65.5 -35.5t15.5 -90.5q23 4 36 28.5t22 77.5l82 452q3 15 3 34q0 34 -52 34h-50l-63 -374q-91 -6 -146 -56.5t-77 -164.5l-4 -21h-20q22 120 63.5 343.5t50.5 272.5
h-105l-75 -414q-178 -5 -216 -222l-3 -15h-20l120 651h-81l3 19h82q19 77 56.5 134.5t85 88t96 45t99.5 14.5zM293 436h107q21 86 53 141q-27 7 -47 31.5t-20 68.5q0 11 3 24q-32 -9 -52.5 -67.5t-43.5 -197.5z" />
    <glyph glyph-name="fb" unicode="fb" horiz-adv-x="909" 
d="M307 -28q42 222 124 668q5 25 5 37q0 40 -30 40q-33 0 -57.5 -32t-35.5 -97l-25 -152h70l-3 -19h-70l-8 -48q-41 -245 -83 -354q-91 -237 -279 -237q-45 0 -70.5 22.5t-25.5 53.5q0 30 18.5 47.5t46.5 17.5q41 0 63 -31.5t21 -82.5q25 5 37 48q19 70 44.5 287.5
t38.5 276.5h-81q0 3 1 10t1 9h82q28 135 117 218t222 83q20 0 42 -1l179 28l4 -4l-46 -241q-35 -179 -66 -285h1l2 -1q40 114 87.5 169t114.5 55q54 0 92.5 -36t38.5 -112q0 -132 -68 -227.5t-180 -95.5q-89 0 -130 60q-96 -15 -175 -74h-19zM564 28q31 0 59 63t42.5 133.5
t14.5 112.5q0 47 -28 47q-25 0 -58.5 -68.5t-61.5 -193.5l-15 -67q19 -27 47 -27z" />
    <glyph glyph-name="ffb" unicode="ffb" horiz-adv-x="1214" 
d="M1053 457q54 0 92.5 -36t38.5 -112q0 -132 -68 -227.5t-180 -95.5q-89 0 -130 60q-96 -15 -175 -74h-19l118 639q10 50 10 66q0 40 -30 40q-48 0 -72 -65t-44 -216h70q0 -1 -3 -19h-70q-3 -18 -7 -49q-30 -216 -86 -361q-91 -237 -279 -237q-44 0 -70 23t-26 52
q0 32 18.5 48.5t47.5 16.5q38 0 60.5 -33.5t22.5 -80.5q28 10 41 65q15 70 41 282t40 274h-105q-48 -264 -71 -395q-178 -5 -218 -224q0 -8 -1 -12h-20q22 123 65 352t52 279h-81l3 19h82q19 77 56 134.5t84.5 88t96.5 45t100 14.5q70 0 94 -47q84 66 206 66q20 0 30 -1h11
l179 28l2 -4l-44 -236q-32 -171 -67 -290h1q1 -1 2 -1q40 114 87.5 169t114.5 55zM869 28q31 0 59 63t42.5 133.5t14.5 112.5q0 47 -28 47q-25 0 -58 -68t-61 -194l-16 -67q19 -27 47 -27zM397 436q18 80 54 141q-26 6 -45.5 29.5t-19.5 64.5q0 17 2 26q-29 -9 -49 -55
t-35 -137l-12 -69h105z" />
    <glyph glyph-name="fh" unicode="fh" horiz-adv-x="936" 
d="M655 760q-8 -39 -32 -165.5t-40 -204t-35 -148.5h1l1 -1q37 104 86.5 160t127.5 56q60 0 101 -39.5t41 -129.5q0 -134 -85.5 -239t-181.5 -105q-47 0 -74.5 23.5t-27.5 57.5q0 27 15 45.5t41 18.5q30 0 47 -22.5t17 -58.5q0 -16 -7 -44q24 21 42.5 117t18.5 195
q0 110 -46 110q-30 0 -70.5 -77.5t-66.5 -205.5l-21 -103h-195l113 605q11 66 11 72q0 40 -30 40q-33 0 -57.5 -32t-35.5 -97l-25 -152h70l-3 -19h-70l-9 -51q-46 -258 -82 -351q-91 -237 -279 -237q-45 0 -70.5 22.5t-25.5 53.5q0 30 18.5 47.5t46.5 17.5q42 0 64 -31
t20 -83q27 5 37 48q22 71 46 290t37 274h-81q0 3 1 10t1 9h82q28 137 118 219.5t227 82.5q10 0 36 -2l179 28z" />
    <glyph glyph-name="ffh" unicode="ffh" horiz-adv-x="1240" 
d="M767 736l189 28l3 -4l-64 -338q-20 -103 -43 -180h1l1 -1q37 104 86.5 160t128.5 56q60 0 101 -39.5t41 -129.5q0 -134 -86 -238t-182 -104q-47 0 -74.5 23.5t-27.5 57.5q0 27 15 45.5t41 18.5q31 0 47.5 -23.5t16.5 -60.5q0 -21 -7 -41l1 -1q23 23 42 118.5t19 192.5
q0 110 -46 110q-31 0 -70 -76.5t-67 -206.5l-22 -103h-195l115 612q9 45 9 65q0 40 -30 40q-33 0 -55 -33.5t-35 -90.5t-26 -157h70l-3 -19h-70q-3 -14 -7 -49q-33 -224 -86 -364q-91 -237 -280 -237q-45 0 -70.5 22.5t-25.5 53.5t19 48t48 17q40 0 62.5 -33t19.5 -81
q15 3 25 18.5t13.5 30t8.5 44.5q10 60 36 262.5t40 267.5h-105l-73 -402q-178 -5 -216 -224l-2 -12h-21q39 212 119 638h-81l3 19h82q19 77 56 134.5t84.5 88t96.5 45t100 14.5q70 0 94 -47q84 66 206 66q20 0 30 -1zM397 436q18 80 54 141q-26 6 -45.5 29.5t-19.5 64.5
q0 17 2 26q-29 -9 -49 -55t-35 -137l-12 -69h105z" />
    <glyph glyph-name="fk" unicode="fk" horiz-adv-x="900" 
d="M655 760l-64 -328q-20 -107 -55 -222h4q39 123 99 184.5t129 61.5q43 0 66.5 -23.5t23.5 -58.5q0 -40 -34.5 -77t-94.5 -57q28 -114 69 -193q33 24 83 76l12 -11q-53 -62 -98.5 -94.5t-107.5 -32.5q-33 0 -56 16.5t-35 48t-17 62t-8 73.5q69 21 111.5 54t42.5 70
q0 20 -11 36t-34 16q-46 0 -86 -68t-66 -199l-19 -94h-200q74 386 122 640q5 25 5 37q0 40 -30 40q-33 0 -57.5 -32t-35.5 -97l-25 -152h70l-3 -19h-70l-9 -51q-46 -258 -82 -351q-91 -237 -279 -237q-43 0 -69.5 23t-26.5 53t18.5 47.5t46.5 17.5q42 0 64 -31.5t20 -82.5
q14 3 23.5 17.5t13.5 29.5t10 45q12 67 35.5 262t37.5 258h-81l2 19h82q28 137 118 219.5t227 82.5q10 0 36 -2l179 28z" />
    <glyph glyph-name="ffk" unicode="ffk" horiz-adv-x="1205" 
d="M767 736l189 28l3 -4l-62 -323q-17 -90 -56 -227h4q39 123 99 184.5t129 61.5q43 0 66.5 -23.5t23.5 -58.5q0 -40 -34.5 -77t-94.5 -57q28 -114 69 -193q33 24 83 76l12 -11q-53 -62 -98.5 -94.5t-107.5 -32.5q-33 0 -56 16.5t-35 48t-17 62t-8 73.5q69 21 111.5 54
t42.5 70q0 20 -11 36t-34 16q-46 0 -86 -68t-66 -199l-19 -94h-200l117 619q9 45 9 58q0 40 -30 40q-33 0 -55 -33.5t-35 -90.5t-26 -157h70q0 -1 -3 -19h-70q-3 -18 -7 -49q-33 -220 -86 -361q-91 -237 -280 -237q-45 0 -70.5 22t-25.5 53t19 48t48 17q41 0 62 -30.5
t20 -83.5q29 10 42 65q15 70 41 282t40 274h-105l-72 -398q-177 -5 -217 -224q0 -8 -1 -12h-20q22 124 65.5 356.5t51.5 277.5h-81l2 19h83q19 77 56 134.5t84.5 88t96.5 45t100 14.5q70 0 94 -47q84 66 206 66q20 0 30 -1zM397 436q18 80 54 141q-26 6 -45.5 29.5
t-19.5 64.5q0 17 2 26q-29 -9 -49 -55t-35 -137l-12 -69h105z" />
    <glyph glyph-name="ff" unicode="ff" horiz-adv-x="625" 
d="M593 436h94q-2 -14 -2 -19h-94l-8 -52q-33 -220 -83 -350q-92 -238 -280 -238q-47 0 -71.5 22.5t-24.5 53.5q0 32 20 51.5t50 19.5q41 0 61 -32t18 -87q26 11 39 48q25 71 47.5 292.5t34.5 271.5h-105q-50 -276 -74 -414q-178 -5 -217 -225l-2 -12h-21q80 434 121 651
h-81q0 7 2 19h83q19 77 56 134.5t84.5 88t96.5 45t100 14.5q65 0 91 -41q81 74 182 74q39 0 67.5 -20t28.5 -55q0 -31 -21.5 -49t-52.5 -18q-27 0 -52 21.5t-25 74.5q0 15 1 23q-29 -13 -49 -181q-1 -11 -2 -16zM388 696q-55 -17 -84 -190l-12 -70h105q20 81 53 142
q-25 6 -44.5 29t-19.5 63q0 17 2 26z" />
    <glyph glyph-name="f_i" unicode="fi" horiz-adv-x="638" 
d="M345 417h-61l-7 -48q-32 -217 -84 -354q-91 -237 -278 -237q-46 0 -71 22.5t-25 53.5t18 48t47 17q39 0 61.5 -33t22.5 -81q26 7 36 48q21 70 46 289.5t38 274.5h-81l2 19h84q31 135 105 212q89 94 222 94q62 0 99.5 -24.5t37.5 -62.5q0 -35 -21 -54t-52 -19
q-41 0 -65 28t-24 69q0 20 8 44q-46 0 -71 -70t-44 -217h23q66 0 151 7.5t131 17.5l4 -4l-78 -416q45 31 92 83l11 -12q-105 -127 -191 -127q-101 0 -101 99q0 22 4 42q12 61 43 226q3 24 3 26q0 39 -35 39z" />
    <glyph glyph-name="f_l" unicode="fl" horiz-adv-x="641" 
d="M656 760l-135 -719q52 36 91 83l12 -12q-105 -127 -191 -127q-100 0 -100 97q0 23 4 44l94 514q5 25 5 37q0 40 -30 40q-33 0 -57.5 -32t-35.5 -97l-25 -152h70l-3 -19h-70l-9 -51q-46 -258 -82 -351q-91 -237 -279 -237q-45 0 -70.5 22.5t-25.5 53.5t20 50.5t49 19.5
q42 0 63.5 -32.5t16.5 -86.5q27 5 37 48q22 71 46 290t37 274h-81q0 3 1 10t1 9h82q28 135 117 218t222 83q20 0 31 -1h11l181 28z" />
    <glyph glyph-name="ffi" unicode="ffi" horiz-adv-x="943" 
d="M648 417h-57q-50 -292 -92 -402q-91 -238 -280 -238q-45 0 -70 22.5t-25 53.5t19 48t47 17q41 0 63 -30t20 -83q21 5 30.5 27t17.5 68q13 69 36 262t37 255h-105q-50 -276 -74 -414q-178 -5 -217 -225l-2 -12h-21l121 651h-81l2 19h83q19 77 56 134.5t84.5 88t96.5 45
t100 14.5q68 0 94 -45q84 69 194 69q69 0 103 -27t34 -64q0 -33 -21.5 -52t-52.5 -19q-41 0 -64 29.5t-23 71.5q0 23 7 43q-48 -4 -71 -69.5t-43 -218.5h23q67 0 152 7.5t131 17.5l1 -1q1 -2 2 -3l-78 -416q49 33 92 83l12 -12q-105 -127 -192 -127q-100 0 -100 97
q0 23 4 44q21 117 42 220q3 24 3 28q0 13 -1.5 20.5t-10.5 15t-26 7.5zM398 436q18 79 53 141q-26 6 -45.5 29.5t-19.5 64.5q0 17 2 26q-29 -9 -49 -55t-35 -137l-12 -69h106z" />
    <glyph glyph-name="ffl" unicode="ffl" horiz-adv-x="948" 
d="M960 760l-135 -719q49 33 92 83l12 -12q-105 -127 -192 -127q-99 0 -101 91q0 20 5 50l96 521q0 5 1.5 15t1.5 15q0 40 -30 40q-33 0 -55 -33.5t-35 -90.5t-26 -157h70l-3 -19h-70l-8 -52q-32 -216 -84 -350q-92 -238 -280 -238q-43 0 -69 23.5t-26 52.5q0 32 19.5 51.5
t49.5 19.5q42 0 63.5 -33.5t16.5 -86.5q21 10 30.5 31.5t17.5 64.5q13 69 36 262t37 255h-105q-50 -276 -74 -414q-178 -5 -217 -225l-2 -12h-21l121 651h-81l2 19h83q19 77 56.5 134.5t84.5 88t94.5 45t95.5 14.5q35 0 62 -13t38 -34q84 66 206 66q20 0 30 -1h11l179 28z
M397 436q18 80 54 141q-26 6 -45.5 29.5t-19.5 64.5q0 17 2 26q-29 -9 -49 -55t-35 -137l-12 -69h105z" />
    <glyph glyph-name=".notdef" horiz-adv-x="432" 
d="M2 0v700h429v-700h-429zM111 75h210l-105 200zM216 425l105 200h-211zM73 539v-377l101 188zM260 350l98 -188v378z" />
    <glyph glyph-name=".null" horiz-adv-x="0" 
 />
    <glyph glyph-name="nonmarkingreturn" horiz-adv-x="333" 
 />
    <glyph glyph-name="space" unicode=" " horiz-adv-x="250" 
 />
    <glyph glyph-name="exclam" unicode="!" horiz-adv-x="365" 
d="M176 180q32 0 53.5 -23t21.5 -58q0 -46 -32.5 -81.5t-76.5 -35.5q-31 0 -52 23t-21 57q0 46 32.5 82t74.5 36zM192 216h-21l-45 348q-1 6 -1 19q0 56 35.5 98t100.5 42q53 0 77.5 -29.5t24.5 -72.5q0 -34 -13 -61q-19 -40 -73.5 -159.5t-84.5 -184.5z" />
    <glyph glyph-name="quotedbl" unicode="&#x22;" horiz-adv-x="373" 
d="M148 395h-17l-18 231v8q0 32 21.5 56.5t57.5 24.5q28 0 41.5 -15.5t13.5 -39.5q-2 -22 -8 -37zM300 395h-17l-18 231q-1 2 -1 7q0 23 22 52.5t58 29.5q28 0 41.5 -15.5t13.5 -39.5q-2 -22 -8 -37z" />
    <glyph glyph-name="numbersign" unicode="#" 
d="M281 30l59 184h-129l-60 -184h-43l60 184h-80l7 47h87l47 146h-83l7 46h91l56 173h42l-56 -173h130l56 173h42l-56 -173h82l-8 -46h-88l-47 -146h85l-7 -47h-92l-60 -184h-42zM272 407l-47 -146h129l48 146h-130z" />
    <glyph glyph-name="dollar" unicode="$" 
d="M262 -92l149 836h17l-12 -71q94 -10 134.5 -48.5t40.5 -89.5q0 -39 -23.5 -65t-56.5 -26q-41 0 -62 27t-21 69q0 60 33 106q-22 6 -49 9l-36 -204q36 -23 52.5 -34.5t47.5 -37t46 -46t27.5 -51t12.5 -62.5q0 -95 -72.5 -158t-195.5 -75l-13 -79h-19zM362 744l-149 -836
h-17l13 78q-99 6 -147.5 50.5t-48.5 100.5q0 50 25.5 76.5t61.5 26.5q41 0 63.5 -29t22.5 -71q0 -71 -46 -120q26 -13 72 -15l42 236q-40 29 -60 45.5t-50 46t-43.5 61t-13.5 67.5q0 97 73.5 152t170.5 60l13 71h18zM361 117q0 34 -31 68l-30 -166q28 13 44.5 39.5
t16.5 58.5zM269 565q0 -32 32 -62l25 144q-57 -15 -57 -82z" />
    <glyph glyph-name="percent" unicode="%" horiz-adv-x="843" 
d="M644 720l-410 -759h-21l411 759h20zM286 700q82 0 120 -44.5t38 -112.5q0 -41 -14.5 -84t-41.5 -81.5t-72 -62.5t-100 -24q-77 0 -115.5 45.5t-38.5 116.5q0 100 62 173.5t162 73.5zM221 307q28 0 56.5 130.5t28.5 201.5q0 46 -22 46q-29 0 -57 -134.5t-28 -200.5
q0 -43 22 -43zM653 400q82 0 120 -44.5t38 -112.5q0 -57 -23.5 -112.5t-77.5 -97.5t-127 -42q-77 0 -115 45.5t-38 116.5q0 100 62 173.5t161 73.5zM589 7q28 0 56.5 130.5t28.5 201.5q0 46 -23 46q-29 0 -56.5 -134.5t-27.5 -200.5q0 -43 22 -43z" />
    <glyph glyph-name="ampersand" unicode="&#x26;" horiz-adv-x="881" 
d="M383 -35q-169 0 -257 56.5t-88 147.5q0 29 9 58.5t34 63.5t63 60t102.5 44.5t146.5 20.5l1 4q-238 0 -238 118q0 79 86.5 131t224.5 52q102 0 153 -38t51 -89q0 -40 -26 -65t-64 -25t-58.5 25.5t-20.5 64.5q0 60 31 99q-15 3 -29 3q-60 0 -92 -49.5t-32 -118.5
q0 -89 104 -99l-5 -21q-81 -11 -136 -88.5t-55 -202.5q0 -133 123 -133q140 0 236.5 86t96.5 198q0 48 -29 77.5t-86 29.5q-71 0 -109 -29t-38 -72q0 -30 21.5 -50t64.5 -20q-3 12 -3 24q0 30 16 48.5t42 18.5q17 0 27 -11.5t10 -27.5q0 -32 -28 -49.5t-63 -17.5
q-50 0 -79 26t-29 66q0 63 43 103.5t104.5 57t122.5 28t104 29t43 48.5q0 19 -17.5 28.5t-40.5 9.5q-22 0 -31 -4q6 -15 6 -31q0 -23 -14 -39t-37 -16q-13 0 -23 9t-10 23q0 37 34 55.5t74 18.5q43 0 64 -19t21 -48q0 -14 -5.5 -30t-21 -40t-53.5 -46.5t-93 -36.5
q33 -44 33 -96q0 -41 -13 -83.5t-43 -85.5t-73 -76t-108.5 -54t-143.5 -21z" />
    <glyph glyph-name="quotesingle" unicode="'" horiz-adv-x="237" 
d="M157 395h-18l-17 231v7q0 32 20 56.5t58 24.5q55 0 55 -56q0 -14 -7 -35q-60 -152 -91 -228z" />
    <glyph glyph-name="parenleft" unicode="(" horiz-adv-x="355" 
d="M413 747l6 -11q-117 -106 -178 -291.5t-61 -366.5q0 -186 81 -272l-11 -12q-101 65 -152.5 169.5t-51.5 218.5q0 104 39 207t123.5 199t204.5 159z" />
    <glyph glyph-name="parenright" unicode=")" horiz-adv-x="355" 
d="M115 747q102 -66 154 -175t52 -230q0 -158 -96.5 -305.5t-265.5 -241.5l-7 11q113 92 173.5 277.5t60.5 369.5q0 201 -81 283z" />
    <glyph glyph-name="asterisk" unicode="*" horiz-adv-x="396" 
d="M277 715q21 0 33 -10.5t12 -26.5q0 -11 -10 -32t-30 -55t-23 -40h-14q-26 112 -26 116q0 21 16.5 34t41.5 14zM87 553q0 30 16 52.5t39 22.5q13 0 24 -14l5 -5q19 -24 59 -72q-2 -2 -4.5 -7l-3.5 -7l-94 -6q-41 0 -41 36zM105 406q0 23 21 39l100 66l9 -8l-37 -118
q-10 -31 -41 -31q-21 0 -36.5 16.5t-15.5 35.5zM420 574q0 -24 -11.5 -41.5t-33.5 -17.5l-103 8l-2 15l87 77q12 9 25 9q17 0 27.5 -14t10.5 -36zM351 414q0 -23 -20.5 -42t-47.5 -19q-14 0 -22.5 9t-8.5 23q0 19 -0.5 59t-0.5 59q8 6 12 8l75 -67q13 -12 13 -30z" />
    <glyph glyph-name="plus" unicode="+" 
d="M381 526l-32 -188h171l-10 -57h-170l-34 -201h-49l33 201h-171l9 57h172l31 188h50z" />
    <glyph glyph-name="comma" unicode="," horiz-adv-x="250" 
d="M114 191q40 0 59.5 -25t19.5 -63q0 -74 -61.5 -172.5t-140.5 -155.5l-12 14q57 50 97 110.5t54 109.5q-22 -14 -51 -14q-36 0 -54.5 20t-18.5 54q0 45 30.5 83.5t77.5 38.5z" />
    <glyph glyph-name="hyphen" unicode="-" horiz-adv-x="325" 
d="M46 286h253l-13 -80h-253z" />
    <glyph glyph-name="period" unicode="." horiz-adv-x="251" 
d="M123 192q33 0 54.5 -23.5t21.5 -58.5q0 -48 -33 -84t-79 -36q-34 0 -55.5 23.5t-21.5 58.5q0 47 35 83.5t78 36.5z" />
    <glyph glyph-name="slash" unicode="/" horiz-adv-x="287" 
d="M372 737l-375 -818h-36l376 818h35z" />
    <glyph glyph-name="zero" unicode="0" 
d="M376 678q81 0 135 -37.5t75 -93.5t21 -128q0 -56 -13.5 -115.5t-42.5 -116.5t-69 -102t-98 -72.5t-125 -27.5q-114 0 -170 73t-56 188q0 110 41 207.5t121 161t181 63.5zM375 660q-35 0 -70.5 -123.5t-54.5 -259t-19 -202.5q0 -73 32 -73q35 0 70.5 117.5t55 253
t19.5 212.5q0 39 -7.5 57t-25.5 18z" />
    <glyph glyph-name="one" unicode="1" 
d="M482 677l-100 -593q-4 -24 6.5 -38t25.5 -17t27 -7.5t10 -11.5l-2 -10h-365l1 10q1 8 14.5 13t29.5 8.5t31.5 19t19.5 41.5l76 461q4 23 -8.5 34t-30 10.5t-31.5 2.5t-13 12l1 9l303 63z" />
    <glyph glyph-name="two" unicode="2" 
d="M445 0h-477l-1 10q42 61 98.5 116.5t99 92t81.5 79.5t60 101t21 134q0 45 -21 75.5t-61 30.5q-15 0 -28 -4q33 -31 33 -87q0 -45 -24.5 -77.5t-67.5 -32.5q-31 0 -51 20t-20 49q0 75 74.5 123t166.5 48q111 0 164.5 -46t53.5 -112q0 -61 -52.5 -116t-118.5 -89.5
t-142.5 -79t-108.5 -80.5l2 -3h270q35 0 63 16.5t41.5 36t26 33.5t20.5 11l5 -2z" />
    <glyph glyph-name="three" unicode="3" 
d="M339 361q99 -1 148.5 -43t49.5 -107q0 -96 -84.5 -161t-219.5 -65q-110 0 -164.5 39.5t-54.5 101.5q0 52 33 88.5t75 50t83 10.5l5 -16q-21 -27 -33 -82.5t-12 -102.5q0 -70 49 -70q47 0 75.5 72t28.5 152q0 117 -110 117q-21 0 -33 -2v18q51 9 88 33t55.5 55t26.5 59.5
t8 55.5q0 84 -64 84q-13 0 -21 -2q26 -29 26 -76q0 -45 -26 -78t-71 -33q-31 0 -50.5 20.5t-19.5 47.5q0 52 36 87.5t86.5 49.5t110.5 14q105 0 155 -40.5t50 -100.5q0 -64 -55 -115t-170 -57q0 -1 -0.5 -2t-0.5 -2z" />
    <glyph glyph-name="four" unicode="4" 
d="M558 661l1 -5q-120 -150 -272 -274t-254 -180h253l21 131q120 25 214 95q2 0 6 -2q-28 -162 -38 -224h71l-3 -20h-72l-14 -89q-2 -12 -2 -17q0 -26 17 -38.5t34 -17t17 -12.5q0 -6 -1 -8h-353q1 2 1 6q3 9 21 15t37 21.5t26 49.5l14 90h-273l3 19q152 198 307 460h239z
" />
    <glyph glyph-name="five" unicode="5" 
d="M217 649h275q37 0 62.5 12.5t35 27t18.5 26t17 9.5l6 -1l-82 -235q-85 10 -209 10h-147l-47 -153q94 56 210 56q92 0 142 -44.5t50 -119.5q0 -49 -19.5 -93t-57.5 -80t-101 -57.5t-143 -21.5q-101 0 -151.5 36.5t-50.5 95.5q0 77 52 119t114 42q14 0 29 -3l4 -16
q-45 -69 -45 -188q0 -70 47 -70q44 0 74.5 72.5t30.5 156.5q0 58 -26 87.5t-74 29.5q-40 0 -89 -20l-17 5z" />
    <glyph glyph-name="six" unicode="6" 
d="M259 -15q-121 0 -177.5 51.5t-56.5 139.5q0 174 147.5 310.5t380.5 193.5l2 -17q-108 -35 -185.5 -130.5t-113 -214t-35.5 -247.5q0 -69 43 -69q40 0 71 90.5t31 178.5q0 96 -50 107l3 17q43 10 78 10q76 0 126 -40.5t50 -119.5q0 -109 -86.5 -184.5t-227.5 -75.5z" />
    <glyph glyph-name="seven" unicode="7" 
d="M625 661l4 -5q-103 -130 -182 -304.5t-125 -351.5h-257q159 275 443 507h-229q-52 0 -76.5 -9t-45.5 -33q-4 -5 -9 -10.5t-7 -8t-5.5 -6.5t-4.5 -4.5t-4 -3t-4 -1t-5 0.5l-4 1l91 242q101 -14 298 -14h122z" />
    <glyph glyph-name="eight" unicode="8" 
d="M382 678q83 0 140.5 -31t57.5 -94q0 -48 -40 -90.5t-105 -53.5q59 -42 94.5 -87t35.5 -100q0 -62 -26 -109t-71 -74t-99 -40.5t-115 -13.5q-41 0 -79 7.5t-73 23.5t-56.5 45.5t-21.5 69.5q0 64 49 114t117 62q-83 76 -83 155q0 71 42.5 121.5t103 72.5t129.5 22zM263 4
q47 0 75.5 32t28.5 76q0 25 -17 51t-35 42t-56.5 45.5t-55.5 44.5q-53 -61 -53 -160q0 -58 27.5 -94.5t85.5 -36.5zM377 658q-38 0 -65.5 -26.5t-27.5 -71.5q0 -11 3.5 -21t12 -21t15.5 -18.5t22.5 -19.5t24 -18.5t29 -20.5t29.5 -20q30 72 30 143q0 41 -17.5 67.5
t-55.5 26.5z" />
    <glyph glyph-name="nine" unicode="9" 
d="M374 679q121 0 177 -53.5t56 -145.5q0 -173 -145 -307.5t-382 -188.5l-3 16q84 29 149.5 91.5t105 144.5t59.5 173t20 184q0 68 -41 68t-71.5 -90t-30.5 -179q0 -95 48 -106l-1 -18q-43 -10 -79 -10q-74 0 -123.5 40.5t-49.5 117.5q0 109 85 186t226 77z" />
    <glyph glyph-name="colon" unicode=":" horiz-adv-x="251" 
d="M123 194q34 0 55.5 -23.5t21.5 -59.5q0 -48 -33.5 -84.5t-79.5 -36.5q-34 0 -55.5 23.5t-21.5 59.5q0 48 35 84.5t78 36.5zM166 448q33 0 54.5 -23.5t21.5 -59.5q0 -49 -33 -85t-79 -36q-34 0 -55.5 23.5t-21.5 58.5q0 48 34.5 85t78.5 37z" />
    <glyph glyph-name="semicolon" unicode=";" horiz-adv-x="251" 
d="M115 191q40 0 59.5 -25t19.5 -63q0 -74 -61.5 -172.5t-140.5 -155.5l-12 14q57 50 97 110.5t54 109.5q-22 -14 -51 -14q-36 0 -54.5 20t-18.5 54q0 45 30.5 83.5t77.5 38.5zM165 447q34 0 55.5 -23.5t21.5 -59.5q0 -48 -33.5 -84.5t-78.5 -36.5q-34 0 -55.5 23.5
t-21.5 58.5q0 49 34.5 85.5t77.5 36.5z" />
    <glyph glyph-name="less" unicode="&#x3c;" 
d="M522 111l-10 -65l-450 242l7 43l531 243l-11 -67l-441 -197z" />
    <glyph glyph-name="equal" unicode="=" 
d="M494 183h-392l10 57h392zM526 376h-391l9 57h392z" />
    <glyph glyph-name="greater" unicode="&#x3e;" 
d="M23 46l11 67l441 199l-375 197l11 65l449 -243l-7 -43z" />
    <glyph glyph-name="question" unicode="?" horiz-adv-x="544" 
d="M345 719q97 0 158.5 -33.5t61.5 -107.5q0 -53 -31.5 -97t-76 -73t-89.5 -53.5t-76.5 -49.5t-31.5 -50t43 -39l-9 -18q-103 2 -153 35.5t-50 85.5q0 41 30 78t73.5 64.5t86.5 53.5t73 58t30 66q0 56 -76 56q-28 0 -51 -6q19 -30 19 -74q0 -49 -27.5 -83.5t-74.5 -34.5
q-30 0 -49.5 18.5t-19.5 48.5q0 61 58 108t182 47zM235 171q32 0 53.5 -23.5t21.5 -58.5q0 -46 -32.5 -81.5t-76.5 -35.5q-32 0 -53 23.5t-21 58.5q0 46 33 81.5t75 35.5z" />
    <glyph glyph-name="at" unicode="@" horiz-adv-x="903" 
d="M709 523q-40 -194 -75 -403q94 17 159 118.5t65 217.5q0 129 -82 200.5t-216 71.5q-128 0 -238 -70t-174 -191.5t-64 -263.5q0 -148 79 -237t215 -89q76 0 138 21l2 -28q-62 -22 -148 -22q-142 0 -227.5 97.5t-85.5 255.5q0 149 67.5 276.5t184.5 202.5t255 75
q139 0 230 -77.5t91 -215.5q0 -62 -19.5 -125.5t-55 -119t-93 -90.5t-125.5 -35q-63 0 -86.5 26t-23.5 76q0 28 10 71l-2 1q-52 -181 -170 -181q-47 0 -81.5 32.5t-34.5 100.5q0 120 59 205.5t157 85.5q80 0 112 -45q88 11 166 59h11zM480 472q-40 0 -70 -104.5t-30 -173.5
q0 -40 22 -40q26 0 57 74.5t60 218.5q-15 25 -39 25z" />
    <glyph glyph-name="A" unicode="A" horiz-adv-x="681" 
d="M496 674l92 -582q4 -28 14.5 -45t20.5 -20.5t18 -7t8 -9.5q0 -2 -0.5 -5.5t-0.5 -4.5h-347q1 2 1 7q1 9 16.5 14t29.5 17.5t14 39.5q0 17 -3 40t-8.5 51t-7.5 42h-182l-39 -81q-19 -41 -19 -63q0 -24 18 -34t36 -13.5t18 -10.5t-1 -9h-214q0 13 12.5 18t31 8t44.5 26
t48 67q175 353 211 424q20 40 20 67q0 21 -14.5 30t-29 12t-14.5 11q0 2 0.5 5.5t0.5 5.5h226zM302 491h-4q-14 -29 -58.5 -120.5t-68.5 -141.5h169l-15 96q-9 56 -23 166z" />
    <glyph glyph-name="B" unicode="B" horiz-adv-x="703" 
d="M399 0h-416l1 8q1 7 12 11t24.5 7.5t26.5 19.5t18 44l84 494q5 27 -3.5 42.5t-21 19t-22.5 8t-8 12.5v8h399q102 0 149 -38t47 -95q0 -60 -57 -113.5t-170 -57.5l-1 -4q61 -3 105 -17.5t67 -38t33 -48t10 -52.5q0 -35 -14.5 -69.5t-44.5 -67t-86.5 -53t-131.5 -20.5z
M384 653l-95 -567q-1 -8 -1 -22q0 -44 43 -44q46 0 80 63.5t34 155.5q0 56 -20 84.5t-66 32.5l4 21q53 4 81 56t28 129q0 91 -80 91h-8z" />
    <glyph glyph-name="C" unicode="C" horiz-adv-x="614" 
d="M439 691q85 0 160 -29l38 45q1 0 4 -0.5t4 -0.5l-38 -282h-5q-7 0 -9.5 6.5t-4.5 28.5q-23 210 -110 210q-51 0 -96.5 -91t-69.5 -211.5t-24 -222.5q0 -73 21 -103.5t60 -30.5q56 0 108 67.5t90 167.5q17 44 28 44h5l-55 -308h-8l-27 47q-91 -42 -196 -42
q-127 0 -197 78.5t-70 204.5q0 180 109.5 301t282.5 121z" />
    <glyph glyph-name="D" unicode="D" horiz-adv-x="752" 
d="M343 0h-360v8q1 8 18 11.5t36 18.5t25 51l82 481q0 2 1.5 9.5t2.5 14t1 8.5q0 24 -14 35t-28.5 15t-14.5 11v11h340q142 0 225.5 -70.5t83.5 -206.5q0 -29 -6.5 -64.5t-21.5 -82.5t-45 -89.5t-71.5 -79.5t-107.5 -59t-146 -22zM381 653l-96 -573q-1 -12 -1 -19
q0 -41 45 -41q49 0 89 84.5t59.5 192.5t19.5 203q0 80 -26 116.5t-79 36.5h-11z" />
    <glyph glyph-name="E" unicode="E" horiz-adv-x="639" 
d="M91 674h297q153 0 240 35l5 -2l-19 -271q-2 -2 -7 -2q-3 0 -4 0.5t-3.5 7t-5.5 20.5q-23 115 -59.5 153t-130.5 38h-19l-49 -290h32q34 0 59 20.5t35.5 45.5t20 45.5t16.5 20.5h5l-48 -293h-6q-8 0 -10 22t-3 48.5t-18 48.5t-52 22h-34l-44 -257q-2 -16 -2 -22
q0 -44 54 -44h14q65 0 122 54t131 184q20 29 27 31q2 0 8 -2q-77 -235 -104 -312l-4 -1q-62 26 -191 26h-361v8q1 9 19 12.5t38 18t26 50.5l83 495q2 14 2 18q0 25 -15 36t-30.5 14.5t-15.5 10.5q0 2 0.5 5.5t0.5 5.5z" />
    <glyph glyph-name="F" unicode="F" horiz-adv-x="580" 
d="M66 89l83 495q1 6 1 18q0 25 -14 36t-28.5 14.5t-14.5 10.5q0 2 0.5 5.5t0.5 5.5h302q154 0 233 35l4 -2l-20 -271q-1 -1 -6 -1q-9 0 -14 27q-22 116 -58 153.5t-130 37.5h-21q-19 -119 -50 -307h34q35 0 60 21t34.5 45.5t19 45.5t16.5 21h5l-47 -293h-7q-9 0 -11 22
t-2 48.5t-17 48.5t-52 22h-36l-40 -238q-2 -14 -2 -18q0 -26 16.5 -37t32.5 -14.5t16 -10.5t-1 -9h-370q0 12 11 17t24.5 7t28 18t19.5 47z" />
    <glyph glyph-name="G" unicode="G" horiz-adv-x="697" 
d="M593 1l-49 49q-120 -64 -230 -64q-127 0 -198 77.5t-71 203.5q0 185 115.5 304.5t286.5 119.5q115 0 181 -32l53 48q1 0 3 -0.5t4 -0.5l-39 -281h-4q-7 0 -8 2q-5 6 -7 34q-9 91 -42.5 149.5t-96.5 58.5q-61 0 -107.5 -92.5t-74.5 -246.5q-26 -137 -26 -229q0 -96 53 -96
q39 0 74 51q6 32 16 93t15 91q2 14 2 19q0 25 -14 36t-28 14.5t-14 10.5q0 2 2 10h319q0 -12 -8.5 -17.5t-20 -7.5t-23.5 -18t-17 -47l-38 -237z" />
    <glyph glyph-name="H" unicode="H" horiz-adv-x="777" 
d="M726 0h-359q1 2 1 8q1 8 16 11t32 18t23 52l43 257h-150l-43 -257q-2 -8 -2 -22q0 -24 11.5 -34t23.5 -13.5t12 -9.5q0 -8 -1 -10h-350q0 12 10.5 17.5t23.5 7t27 17.5t19 47l84 495q1 7 1 18q0 19 -8.5 30.5t-19 14t-19 6.5t-8.5 10v11h347v-9q-2 -8 -16.5 -12
t-30 -18.5t-21.5 -50.5l-37 -219h150q13 73 37 219q2 16 2 21q0 23 -11 33.5t-22.5 14t-11.5 10.5v11h347q0 -13 -10 -18.5t-23 -7t-26.5 -17.5t-18.5 -47q-56 -330 -83 -495q-2 -14 -2 -18q0 -26 16 -37t32 -14.5t16 -10.5q0 -2 -0.5 -5t-0.5 -4z" />
    <glyph glyph-name="I" unicode="I" horiz-adv-x="419" 
d="M358 0h-366q0 12 10.5 17t24 7t27.5 18t19 47l82 495q2 14 2 19q0 24 -14 34.5t-28 14.5t-14 11v11h359q-1 -3 -1 -9q-1 -8 -18 -12t-35.5 -18.5t-24.5 -50.5l-83 -495q-2 -14 -2 -19q0 -20 10 -31.5t21.5 -14t21.5 -6t10 -9.5q0 -7 -1 -9z" />
    <glyph glyph-name="J" unicode="J" horiz-adv-x="489" 
d="M462 610l-3 5q-142 -89 -244 -89q-58 0 -120 27q-4 -10 -12.5 -44.5t-13.5 -53.5l-14 2q38 252 142 252q48 0 129 -36t116 -36q46 0 98 37l9 -11q-58 -38 -77.5 -94.5t-43.5 -214.5q-4 -25 -6 -38h91l-4 -23h-91q-30 -190 -84.5 -296t-155.5 -164q-53 -30 -94.5 -45
t-93.5 -15q-49 0 -86 28t-37 77q0 40 27 65.5t64 25.5q54 0 85.5 -39.5t31.5 -95.5q0 -18 -2 -26q32 21 61 181q48 262 60 304h-99l4 23h102q29 91 88 161.5t173 132.5z" />
    <glyph glyph-name="K" unicode="K" horiz-adv-x="762" 
d="M515 471l147 -381q13 -35 32.5 -50t32 -18.5t12.5 -11.5q0 -7 -1 -10h-343l1 8q1 7 23 15t22 28q0 12 -7 32l-90 231h-18l-38 -225q-2 -14 -2 -19q0 -25 15 -36t30 -14.5t15 -9.5q0 -2 -0.5 -5.5t-0.5 -4.5h-362q0 12 10.5 17t24 7t27 18t18.5 47l83 495q2 14 2 19
q0 24 -14 35t-28 14.5t-14 10.5q0 8 1 11h358v-9q-2 -8 -19 -12t-36 -18.5t-25 -50.5l-42 -250h20l212 210q52 50 52 75q0 20 -38 28t-38 17v10h253q0 -13 -12.5 -19.5t-34.5 -11.5t-66 -32t-93 -74z" />
    <glyph glyph-name="L" unicode="L" horiz-adv-x="610" 
d="M372 584l-83 -495q-3 -14 -3 -26q0 -42 54 -42h9q69 0 120 52t132 199q9 15 18 15q1 0 4 -0.5t4 -0.5l-98 -313l-6 -1q-56 28 -191 28h-349q0 12 10.5 17t24 7t27.5 18t19 48l83 494q2 14 2 19q0 24 -14 34.5t-28 14.5t-14 11q0 2 0.5 5.5t0.5 5.5h359q0 -13 -10.5 -18.5
t-24 -7t-27.5 -17.5t-19 -47z" />
    <glyph glyph-name="M" unicode="M" horiz-adv-x="914" 
d="M661 579h-3l-193 -389l27 -141l-17 -4q-37 133 -209 115l-67 426h-4l-76 -417q-9 -53 -4 -81t18.5 -42t28 -18t25 -8t9.5 -12l-1 -8h-231l1 8q2 8 15 12t29 7t35.5 18t31.5 42q13 24 25 85l78 411q5 29 -4 45t-23.5 19t-26 7t-9.5 11l1 9h275l69 -457l227 457h281l-1 -9
q-2 -8 -21.5 -12t-40 -18.5t-25.5 -50.5l-74 -494q-4 -29 5 -45t22.5 -19t24.5 -7t9 -11l-1 -8h-355l1 8q2 8 18 12t33.5 18.5t22.5 49.5z" />
    <glyph glyph-name="N" unicode="N" horiz-adv-x="727" 
d="M100 149l72 434q2 14 2 19q0 26 -16 37t-32 14t-16 10v11h304l192 -386l4 2l38 237q4 28 4 38q0 34 -14 54t-30 24.5t-30 9t-14 10.5q0 8 1 11h233q0 -14 -11 -18.5t-27.5 -9t-34.5 -14.5t-35.5 -43t-26.5 -88l-87 -510l-92 -6l-293 592h-3l-71 -431q-4 -28 -4 -38
q0 -34 14 -54t31.5 -24.5t31.5 -8.5t14 -11q0 -2 -0.5 -5.5t-0.5 -4.5h-235v8q1 7 13 10t28.5 8t34.5 16t33.5 38t22.5 69z" />
    <glyph glyph-name="O" unicode="O" horiz-adv-x="747" 
d="M449 691q77 0 135 -22t90.5 -61.5t48 -87t15.5 -103.5q0 -59 -15.5 -118.5t-49 -116t-80.5 -100.5t-115 -70.5t-148 -26.5q-143 0 -213 77t-70 199q0 113 47.5 210.5t140.5 158.5t214 61zM447 672q-44 0 -83.5 -113t-59.5 -241t-20 -206q0 -109 54 -109q43 0 82.5 110
t60 239.5t20.5 215.5q0 104 -54 104z" />
    <glyph glyph-name="P" unicode="P" horiz-adv-x="664" 
d="M385 653q-23 -143 -62 -374q48 0 84 40t52 98t16 123q0 113 -75 113h-15zM94 674h387q89 0 158.5 -45t69.5 -136q0 -80 -46.5 -136t-115 -80t-149.5 -24q-42 0 -79 6q-7 -47 -29 -170q-2 -12 -2 -17q0 -26 16.5 -37t33 -14.5t16.5 -11.5q0 -7 -1 -9h-370q-1 13 9.5 18.5
t24.5 7t28.5 17t19.5 46.5q41 247 84 495q1 7 1 18q0 25 -14 36t-28.5 14.5t-14.5 10.5q0 2 0.5 5.5t0.5 5.5z" />
    <glyph glyph-name="Q" unicode="Q" horiz-adv-x="747" 
d="M449 691q77 0 134.5 -22.5t90 -61.5t48 -86.5t15.5 -103.5q0 -71 -26 -144.5t-73.5 -137t-125.5 -104.5t-172 -44v-2q20 -27 70.5 -38t89.5 -2q37 -39 68 -61t65 -22q24 0 68 42l13 -12q-49 -71 -92.5 -103t-89.5 -32q-34 0 -65 16t-52.5 37.5t-43.5 57t-33.5 59.5
t-27.5 60q-133 7 -198 82t-65 191q0 114 47 211t140.5 158.5t214.5 61.5zM447 672q-44 0 -83.5 -113.5t-59.5 -242t-20 -206.5q0 -108 53 -108q43 0 83 110t60.5 240t20.5 216q0 104 -54 104z" />
    <glyph glyph-name="R" unicode="R" horiz-adv-x="747" 
d="M326 321l-36 -213q-5 -35 -5 -37q0 -26 16 -37t32 -14.5t16 -10.5t-1 -9h-364v8q1 7 11.5 11t23.5 7.5t25.5 19t17.5 43.5l83 495q2 14 2 20q0 24 -13.5 34.5t-27 14t-13.5 10.5t1 11h421q86 0 142 -36.5t56 -114.5q0 -102 -84 -154.5t-210 -52.5q-21 0 -57 2
q17 -32 67 -47t106 -15q33 0 60 5l75 -196q7 -18 17.5 -28.5t19.5 -12.5t15 -6t6 -10v-8h-269l-120 321h-13zM382 653l-53 -312h13q56 0 94.5 60t38.5 146q0 48 -21.5 77t-63.5 29h-8z" />
    <glyph glyph-name="S" unicode="S" horiz-adv-x="634" 
d="M245 -15q-121 0 -181.5 45.5t-60.5 104.5q0 49 26 74t64 25q41 0 66 -29.5t25 -67.5q0 -72 -37 -118q26 -11 68 -11q63 0 110.5 28.5t47.5 87.5q0 35 -29.5 68.5t-71 62t-83 59.5t-71 72.5t-29.5 88.5q0 56 27.5 99.5t72 68t93.5 36.5t99 12q134 0 191 -41.5t57 -98.5
q0 -38 -23.5 -62t-58.5 -24q-43 0 -65.5 26t-22.5 65q0 56 33 101q-24 8 -67 8q-49 0 -80.5 -24.5t-31.5 -61.5q0 -26 21.5 -52.5t54 -48t70 -49t70 -55t54 -66.5t21.5 -83q0 -108 -100 -174t-259 -66z" />
    <glyph glyph-name="T" unicode="T" horiz-adv-x="629" 
d="M495 653l-93 -564q-2 -14 -2 -19q0 -25 16 -36t32 -14.5t16 -10.5q0 -2 -0.5 -5t-0.5 -4h-369q-1 13 10 18.5t25 7t29 18t20 48.5l92 561h-6q-104 0 -203 -205q-13 -27 -23 -27q-4 0 -6 2l68 275l7 5q58 -29 164 -29h234q101 0 174 29l5 -5l-23 -276q-3 -1 -8 -1
q-9 0 -13 26q-32 204 -138 206h-7z" />
    <glyph glyph-name="U" unicode="U" horiz-adv-x="727" 
d="M617 284l41 243q6 36 2 59.5t-14.5 36t-24 19t-25.5 8.5t-19.5 5.5t-6.5 9.5l1 9h236l-1 -9q-1 -7 -12.5 -10t-28 -8t-34.5 -15.5t-33.5 -38t-22.5 -69.5l-38 -226q-12 -71 -31.5 -123t-54 -97.5t-91.5 -69t-136 -23.5q-154 0 -209 78.5t-31 221.5l50 299q5 28 -3 44
t-20 19t-22 7.5t-9 11.5v8h360l-1 -8q-1 -8 -18.5 -12t-36.5 -19t-25 -51l-59 -349q-17 -103 8 -157t103 -54q76 0 130.5 69t75.5 191z" />
    <glyph glyph-name="V" unicode="V" horiz-adv-x="659" 
d="M297 -12l-55 -5l-118 600q-7 34 -21.5 49.5t-26 19.5t-11.5 9q0 3 0.5 7t0.5 6h354q0 -13 -9.5 -19.5t-21 -8.5t-21 -14t-9.5 -34q0 -11 3 -26l58 -307h4l132 253q25 47 25 79q0 26 -18.5 38t-37 16t-18.5 12q0 7 1 11h231q-1 -3 -1 -8q-2 -8 -17.5 -14.5t-37 -14.5
t-53 -40.5t-59.5 -85.5z" />
    <glyph glyph-name="W" unicode="W" horiz-adv-x="997" 
d="M413 297l115 254q20 44 15 65t-19.5 25t-28.5 9t-12 16l2 8h316v-7q0 -8 -9.5 -13.5t-21 -9.5t-21 -15t-9.5 -28q0 -5 2 -29l43 -272h4l98 218q20 45 24 65q4 29 -6.5 44t-26 17.5t-28 7t-10.5 13.5l2 9h231l-1 -8q-1 -10 -17 -16.5t-38 -14t-53 -40t-57 -86.5l-249 -520
l-52 -6l-81 501h-4l-236 -495l-51 -6l-102 600q-5 27 -15 43t-19.5 19.5t-16 8t-4.5 11.5l2 9h354v-8q0 -9 -10.5 -15t-23.5 -9.5t-23.5 -15t-10.5 -30.5t6 -49l38 -250h4z" />
    <glyph glyph-name="X" unicode="X" horiz-adv-x="702" 
d="M84 674h388q3 -13 -7 -19t-23.5 -7.5t-25 -12.5t-11.5 -32q0 -24 16 -66l40 -105l69 93q42 56 42 88q0 19 -14 26.5t-28.5 11t-14.5 12.5q0 2 0.5 5.5t0.5 5.5h233q2 -15 -8 -20.5t-28.5 -7.5t-53 -23t-69.5 -59q-18 -19 -48 -58l-74 -93l115 -321q12 -34 32.5 -51
t34.5 -21t14 -11q0 -6 -1 -9h-406q1 2 1 7q1 9 18 13.5t33 15t16 34.5q0 29 -13 64l-45 123l-68 -87q-55 -72 -55 -108q0 -16 10 -24.5t21.5 -10.5t21.5 -6t10 -11q0 -2 -0.5 -5t-0.5 -5h-239q0 13 9.5 18.5t25.5 8t45.5 19.5t60.5 49q40 41 88 102l63 81l-101 292
q-11 31 -25 49.5t-25 23.5t-18.5 9.5t-7.5 12.5q0 3 2 9z" />
    <glyph glyph-name="Y" unicode="Y" horiz-adv-x="657" 
d="M106 8q2 7 13 11.5t24.5 8t26.5 19t17 42.5l28 166l-86 328q-7 26 -18.5 41.5t-21.5 19.5t-17 8.5t-6 12.5l1 9h375v-8q0 -10 -11.5 -15.5t-26 -8t-26 -13t-11.5 -28.5q0 -11 5 -29l69 -240h2l109 192q27 47 27 76q0 19 -12.5 30t-27.5 14t-27 8t-10 13l1 9h233l-1 -9
q-2 -8 -13.5 -13t-27.5 -9t-40.5 -23t-47.5 -50q-16 -21 -40 -62l-117 -199l-37 -217q-5 -28 4 -44.5t22 -20t24 -8t9 -11.5v-8h-365v8z" />
    <glyph glyph-name="Z" unicode="Z" horiz-adv-x="649" 
d="M665 674q-2 -12 -2 -19l-412 -634h85q79 0 135 54t148 204q10 15 16 15q1 0 4 -0.5t5 -0.5l-103 -316l-5 -3q-54 26 -182 26h-380l3 19q94 144 418 634h-51q-87 0 -136 -40.5t-113 -161.5q-14 -26 -23 -26q-6 0 -7 2q11 43 37 135.5t39 139.5l5 2q40 -19 88.5 -24.5
t130.5 -5.5h300z" />
    <glyph glyph-name="bracketleft" unicode="[" horiz-adv-x="313" 
d="M-9 -186l154 921h226l-3 -20h-76l-148 -882h76l-2 -19h-227z" />
    <glyph glyph-name="backslash" unicode="\" horiz-adv-x="300" 
d="M199 -81l-107 818h34l108 -818h-35z" />
    <glyph glyph-name="bracketright" unicode="]" horiz-adv-x="313" 
d="M336 735l-154 -921h-224l3 19h76l148 882h-77l3 20h225z" />
    <glyph glyph-name="asciicircum" unicode="^" horiz-adv-x="493" 
d="M119 357h-58l249 347h40l131 -347h-58l-105 281z" />
    <glyph glyph-name="underscore" unicode="_" horiz-adv-x="437" 
d="M382 -99h-436l6 41h437z" />
    <glyph glyph-name="grave" unicode="`" horiz-adv-x="609" 
d="M450 528l-5 -14q-65 14 -112.5 35t-70.5 39t-35.5 39.5t-14.5 31.5t-2 21q0 23 14 39t43 16q28 0 47.5 -21t31 -49.5t39 -68.5t65.5 -68z" />
    <glyph glyph-name="a" unicode="a" horiz-adv-x="641" 
d="M602 465q-40 -184 -77 -424q47 33 92 85l12 -12q-105 -128 -191 -128q-97 0 -97 91q0 37 25 133h-1q-1 1 -2 1q-31 -113 -80.5 -169.5t-122.5 -56.5q-54 0 -93 35.5t-39 112.5q0 132 67.5 227.5t179.5 95.5q91 0 129 -52q118 14 186 61h12zM344 416q-32 0 -60 -63
t-42 -134t-14 -114q0 -47 27 -47q25 0 58 67.5t62 193.5l16 69q-17 28 -47 28z" />
    <glyph glyph-name="b" unicode="b" horiz-adv-x="607" 
d="M448 457q53 0 91.5 -36t38.5 -112q0 -132 -67.5 -227.5t-180.5 -95.5q-88 0 -129 60q-98 -15 -178 -74h-15l118 637q2 14 2 20q0 24 -14 33.5t-28.5 12.5t-14.5 9q0 1 0.5 4.5t0.5 5.5l272 40q2 -2 4 -6q-41 -223 -61 -320q-19 -94 -45 -174h2l2 -1q36 114 85 169t117 55
zM263 28q45 0 80.5 117.5t35.5 191.5q0 47 -27 47q-25 0 -58 -68.5t-61 -193.5l-16 -67q17 -27 46 -27z" />
    <glyph glyph-name="c" unicode="c" horiz-adv-x="484" 
d="M328 457q77 0 114 -32.5t37 -75.5q0 -35 -21.5 -55.5t-53.5 -20.5q-35 0 -53.5 24.5t-18.5 60.5q0 44 29 75q-53 0 -90.5 -93.5t-37.5 -196.5q0 -55 25 -81t66 -26q53 0 107 35q2 -5 8 -13q-88 -73 -207 -73q-100 0 -152 50.5t-52 129.5q0 120 82.5 206t217.5 86z" />
    <glyph glyph-name="d" unicode="d" horiz-adv-x="639" 
d="M653 728l-128 -687q47 33 92 85l12 -12q-105 -128 -191 -128q-47 0 -72 23.5t-25 63.5q0 47 24 137q-1 0 -2 0.5t-2 0.5q-61 -226 -201 -226q-54 0 -93 35.5t-39 112.5q0 132 67.5 227.5t179.5 95.5q79 0 116 -37q1 0 3 1h1l34 189q2 14 2 20q0 24 -14 34t-28 12.5
t-14 8.5q0 1 0.5 4.5t0.5 5.5l272 40q1 -2 5 -6zM344 416q-33 0 -61 -63t-41.5 -133.5t-13.5 -114.5q0 -47 27 -47q17 0 39 33t48.5 113t44.5 190q-17 22 -43 22z" />
    <glyph glyph-name="e" unicode="e" horiz-adv-x="529" 
d="M469 105l9 -11q-94 -108 -238 -108q-108 0 -160 50t-52 132q0 118 87.5 203.5t230.5 85.5q172 0 172 -113q0 -47 -29.5 -81.5t-75.5 -52t-90.5 -25t-87.5 -7.5q-2 -22 -2 -32q0 -104 90 -104q36 0 76 17.5t70 45.5zM339 437q-32 0 -62.5 -74t-38.5 -159q62 5 97 65
t35 122q0 46 -31 46z" />
    <glyph glyph-name="f" unicode="f" horiz-adv-x="341" 
d="M288 436h94l-3 -19h-94q-30 -242 -90 -402q-91 -238 -280 -238q-45 0 -70.5 22.5t-25.5 53.5t19 48t48 17q39 0 60.5 -34t22.5 -79q16 7 26 25t21 67q16 75 38 269t34 251h-80l2 19h82q37 153 122.5 229.5t189.5 76.5q45 0 70.5 -22t25.5 -53t-21 -49t-52 -18
q-29 0 -53.5 24.5t-24.5 75.5q0 12 1 19q-11 -5 -19.5 -22.5t-15 -54.5t-8.5 -52.5t-8 -61.5z" />
    <glyph glyph-name="g" unicode="g" horiz-adv-x="582" 
d="M321 438q-26 0 -48 -60t-31 -120.5t-9 -90.5q0 -52 31 -52q36 0 62 103.5t26 166.5q0 53 -31 53zM324 457q31 0 58 -6q16 68 61.5 114t101.5 46q33 0 55.5 -19t22.5 -50q0 -34 -22.5 -53.5t-53.5 -19.5q-27 0 -55.5 21.5t-30.5 64.5q-42 -32 -63 -108q63 -14 101 -51
t38 -92q0 -79 -74.5 -142.5t-204.5 -63.5q-96 0 -147 32q-35 -17 -35 -34q0 -18 45 -23.5t108.5 -6.5t127.5 -6.5t109 -32t45 -75.5q0 -74 -95 -130t-249 -56q-210 0 -210 116q0 31 18.5 54t49.5 23q34 0 53.5 -25t19.5 -63q0 -45 -21 -75q22 -5 46 -5q61 0 110 24.5
t49 73.5q0 31 -29.5 50t-71.5 27t-84 14.5t-71.5 20t-29.5 36.5q0 24 25 53t75 49q-50 39 -50 99q0 88 74.5 153.5t203.5 65.5z" />
    <glyph glyph-name="h" unicode="h" horiz-adv-x="631" 
d="M345 734l3 -3l-57 -309q-13 -71 -44 -180q1 0 2 -0.5t2 -0.5q36 104 85.5 160t127.5 56q56 0 97 -39.5t41 -128.5q0 -136 -80 -235t-182 -99q-47 0 -74.5 23.5t-27.5 57.5q0 27 15 45t41 18q31 0 47.5 -23t16.5 -60q0 -21 -7 -42h2q23 22 41 113.5t18 188.5
q0 110 -47 110q-30 0 -69 -76.5t-67 -206.5l-22 -103h-195l114 609q2 14 2 20q0 24 -14 33.5t-28.5 12.5t-14.5 9q0 1 0.5 4.5t0.5 5.5z" />
    <glyph glyph-name="i" unicode="i" horiz-adv-x="368" 
d="M262 728q42 0 67.5 -28.5t25.5 -69.5q0 -52 -38.5 -90.5t-87.5 -38.5q-38 0 -63.5 26.5t-27.5 65.5q0 53 36.5 94t87.5 41zM66 126l53 277q-32 -22 -94 -88l-12 13q61 73 103.5 102t83.5 29q49 0 77.5 -26.5t29.5 -72.5q0 -21 -4 -41q-49 -255 -53 -278q49 33 92 83
l11 -12q-103 -127 -191 -127q-101 0 -101 94q0 20 5 47z" />
    <glyph glyph-name="j" unicode="j" horiz-adv-x="334" 
d="M200 459q50 0 78 -27t28 -76q0 -24 -5 -56q-3 -17 -11 -64t-10.5 -62.5t-10.5 -55t-13 -55t-14.5 -47.5t-18.5 -47.5t-23 -40t-29 -39.5t-34.5 -32t-42.5 -31q-90 -53 -181 -53q-47 0 -73.5 22.5t-26.5 55.5t21 54t54 21q32 0 57.5 -25.5t25.5 -84.5q0 -2 -0.5 -8
t-0.5 -9q22 11 33.5 32t21.5 71q77 411 94 501q-32 -22 -94 -88l-12 13q61 73 103.5 102t83.5 29zM258 728q42 0 67.5 -28.5t25.5 -69.5q0 -52 -38.5 -90.5t-87.5 -38.5q-38 0 -63.5 26.5t-27.5 65.5q0 52 36.5 93.5t87.5 41.5z" />
    <glyph glyph-name="k" unicode="k" horiz-adv-x="603" 
d="M352 729l-57 -294q-23 -119 -56 -225h4q44 125 104 187t128 62q44 0 67.5 -24t23.5 -58q0 -41 -36.5 -79t-97.5 -58q27 -109 69 -194q23 16 84 77l11 -11q-36 -42 -60 -65.5t-63.5 -44t-81.5 -20.5q-27 0 -46 9t-31.5 24t-21 41.5t-13 53.5t-8.5 68q68 24 109.5 63
t41.5 76q0 19 -10 29t-23 10q-45 0 -89 -68.5t-69 -193.5l-19 -94h-198l110 583q6 36 6 46q0 25 -14 34.5t-28 12t-14 8.5t1 10l273 40z" />
    <glyph glyph-name="l" unicode="l" horiz-adv-x="340" 
d="M355 730l-130 -689q51 35 93 83l11 -12q-105 -127 -191 -127q-102 0 -102 96q0 18 5 45l84 445q9 51 9 58q0 24 -14.5 34t-29 12.5t-14.5 8.5q0 2 2 10l273 40z" />
    <glyph glyph-name="m" unicode="m" horiz-adv-x="920" 
d="M471 457q47 0 74.5 -23t27.5 -62q0 -43 -36 -166q1 0 2 -0.5t2 -0.5q40 132 96.5 192t109.5 60q107 0 107 -106q0 -27 -6 -57l-49 -253q49 33 92 83l12 -12q-105 -127 -192 -127q-101 0 -101 92q0 20 4.5 49t9.5 50t14.5 59.5t12.5 51.5q9 45 9 51q0 20 -17 20
q-13 0 -33.5 -32t-42 -95t-35.5 -138l-17 -93h-196l61 318q1 5 1 16q0 24 -17 24q-27 0 -63.5 -102t-61.5 -256h-199l75 402q-34 -24 -94 -87l-11 13q61 73 102.5 101t83.5 28q48 0 74 -23t26 -62q0 -38 -35 -166q1 0 2 -0.5t2 -0.5q38 133 95 192.5t111 59.5z" />
    <glyph glyph-name="n" unicode="n" horiz-adv-x="654" 
d="M199 457q47 0 73.5 -23t26.5 -62q0 -42 -35 -166h2l2 -1q42 131 103 191.5t115 60.5q107 0 107 -106q0 -27 -6 -57l-49 -253q49 33 92 83l11 -12q-105 -127 -192 -127q-100 0 -100 93q0 29 5 53l36 160q8 34 8 50q0 24 -17 24q-26 0 -66 -87t-61 -206l-13 -72h-198
l75 402q-29 -20 -95 -88l-12 13q60 73 103 101.5t85 28.5z" />
    <glyph glyph-name="o" unicode="o" horiz-adv-x="602" 
d="M344 457q124 0 177 -53t53 -138q0 -114 -86 -197.5t-241 -83.5q-116 0 -167.5 51.5t-51.5 134.5q0 123 86.5 204.5t229.5 81.5zM342 438q-31 0 -58.5 -67t-41.5 -149.5t-14 -145.5q0 -74 33 -74q37 0 66 74.5t40.5 154t11.5 131.5q0 76 -37 76z" />
    <glyph glyph-name="p" unicode="p" horiz-adv-x="639" 
d="M243 21q-5 -23 -13 -69t-12 -68q-3 -14 -3 -24q0 -25 15.5 -36t31 -15t15.5 -12q0 -5 -1 -7h-336v6q0 10 15.5 14.5t35 21t26.5 52.5l97 518q-44 -33 -95 -88l-11 12q61 74 104 102.5t84 28.5q49 0 74.5 -24t25.5 -64q0 -49 -23 -137q1 0 2 -0.5t2 -0.5q62 226 202 226
q54 0 93 -36t39 -112q0 -132 -67.5 -227t-180.5 -95q-80 0 -118 35q-1 0 -1 -0.5t-1 -0.5zM293 23q33 0 61.5 63.5t42.5 134.5t14 115q0 47 -27 47q-16 0 -36 -27.5t-43 -90t-41 -149.5l-15 -72q17 -21 44 -21z" />
    <glyph glyph-name="q" unicode="q" horiz-adv-x="604" 
d="M343 416q-31 0 -59 -63.5t-42.5 -135t-14.5 -113.5q0 -47 27 -47q59 0 135 331q-17 28 -46 28zM275 456q87 0 125 -52q102 11 185 66h14l-104 -564q-5 -23 -5 -46q0 -19 8.5 -30.5t19 -14.5t19 -7t8.5 -10q0 -2 -0.5 -4.5t-0.5 -3.5h-336l1 6q1 9 12 14.5t24.5 8.5
t27 19.5t19.5 45.5l33 168q18 82 34 141q-1 0 -3 1q-36 -111 -82 -159.5t-115 -48.5q-54 0 -92.5 35.5t-38.5 111.5q0 132 67.5 227.5t179.5 95.5z" />
    <glyph glyph-name="r" unicode="r" horiz-adv-x="522" 
d="M199 458q47 0 73.5 -23t26.5 -62q0 -40 -33 -162l4 -1q41 129 93 188t100 59q42 0 67.5 -22t25.5 -57q0 -33 -21 -53t-52 -20q-39 0 -63.5 26.5t-23.5 73.5q-37 -29 -77.5 -117t-64.5 -220l-13 -68h-198l75 402q-34 -24 -95 -88l-11 13q61 73 103 102t84 29z" />
    <glyph glyph-name="s" unicode="s" horiz-adv-x="505" 
d="M309 458q90 0 133.5 -32t43.5 -76q0 -35 -20 -54.5t-45 -19.5q-34 0 -52 22.5t-18 54.5q0 47 25 79q-22 5 -43 5q-35 0 -58.5 -13.5t-23.5 -43.5q0 -21 22 -42.5t53.5 -41.5t62.5 -41.5t53 -52.5t22 -65q0 -77 -73 -114.5t-188 -37.5q-103 0 -146 32.5t-43 77.5
q0 38 20.5 56t44.5 18q32 0 50 -22.5t18 -54.5q0 -48 -25 -80q30 -8 61 -8q89 0 89 57q0 23 -31.5 50.5t-69 50t-69 58t-31.5 72.5q0 58 39.5 97.5t90.5 54t108 14.5z" />
    <glyph glyph-name="t" unicode="t" horiz-adv-x="351" 
d="M93 417h-56q0 6 2 18h58q78 17 134 69.5t84 129.5h16l-37 -198h101l-3 -19h-101q-54 -296 -68 -376q49 33 92 83l12 -12q-105 -127 -191 -127q-101 0 -103 95q0 26 5 48z" />
    <glyph glyph-name="u" unicode="u" horiz-adv-x="645" 
d="M601 456q1 0 2.5 -1t2.5 -2t2 -1q-49 -247 -79 -413q33 24 93 87l12 -14q-60 -71 -103 -99t-84 -28q-49 0 -74 22t-25 62q0 48 32 166l-2 1h-2q-40 -134 -97 -192.5t-111 -58.5q-107 0 -107 106q0 27 6 56l50 252q-52 -37 -94 -85l-12 13q107 130 191 130q104 0 104 -98
q0 -17 -7 -49l-35 -161q-8 -37 -8 -45q0 -22 16 -22q23 0 57 75.5t58 189.5l12 58q121 8 202 51z" />
    <glyph glyph-name="v" unicode="v" horiz-adv-x="512" 
d="M335 162q84 79 116 133q-40 8 -62 34.5t-22 61.5q0 3 0.5 8.5t4.5 18.5t10 22.5t20 17.5t33 8q28 0 47.5 -22.5t19.5 -63.5q0 -43 -36.5 -98.5t-81 -100t-104 -102t-85.5 -89.5h-25q-53 261 -86 382q-28 -23 -69 -76l-12 11q104 151 197 151q23 0 40.5 -10.5t36 -39.5
t33.5 -91t25 -155z" />
    <glyph glyph-name="w" unicode="w" horiz-adv-x="795" 
d="M342 328l-13 12q90 116 173 116q36 0 57.5 -17t42 -82t33.5 -190q66 67 103 131q-41 8 -64.5 33.5t-23.5 60.5q0 29 18.5 52t49.5 23q29 0 48.5 -22.5t19.5 -63.5q0 -43 -34 -99t-74.5 -99.5t-98.5 -103t-83 -89.5h-26l-49 246q-37 -48 -120 -133t-106 -113h-25
q-53 261 -86 382q-28 -23 -69 -76l-12 11q104 151 203 151q33 0 54 -19t41 -84.5t34 -189.5q43 44 80 96l-27 115q-20 -16 -46 -48z" />
    <glyph glyph-name="x" unicode="x" horiz-adv-x="607" 
d="M390 280l64 -210q26 26 62 71l13 -11q-32 -43 -56 -70t-61 -51.5t-72 -24.5q-31 0 -48 8t-35 42t-35 102q-37 -78 -73 -118t-86 -40q-34 0 -56.5 19t-22.5 51q0 31 22.5 49t46.5 18q38 0 58.5 -25.5t23.5 -56.5q38 39 78 131l-60 207q-12 -11 -64 -72l-12 11
q32 43 55.5 70.5t61 52.5t72.5 25q31 0 46 -8.5t31.5 -40t39.5 -102.5q34 72 69.5 110.5t84.5 38.5q35 0 57 -19t22 -52q0 -31 -22.5 -48.5t-46.5 -17.5q-37 0 -58 25.5t-24 55.5q-34 -34 -75 -120z" />
    <glyph glyph-name="y" unicode="y" horiz-adv-x="502" 
d="M492 384q0 -57 -37.5 -119.5t-90.5 -117t-106 -105.5t-90.5 -100.5t-37.5 -86.5q0 -52 38 -62q0 47 24 79t59 32q28 0 44.5 -16t16.5 -40q0 -39 -30.5 -61.5t-72.5 -22.5q-46 0 -74.5 23t-28.5 67q0 55 66 132q-4 16 -20 85.5t-25.5 108.5t-25.5 95t-29 93
q-26 -25 -66 -70l-11 11q21 30 38 51t42 45t53.5 36.5t59.5 12.5q20 0 34 -5t31 -23.5t29.5 -51.5t24.5 -91.5t20 -140.5q96 101 114 145q-83 27 -83 108q0 21 15 44.5t49 23.5q30 0 50 -22.5t20 -56.5z" />
    <glyph glyph-name="z" unicode="z" horiz-adv-x="539" 
d="M169 463q52 0 156 -31t122 -31q41 0 84 62l13 -9q-35 -61 -104.5 -121t-136 -100t-140 -87t-106.5 -79v-3q92 74 165 74q43 0 120.5 -42t104.5 -42q17 0 27 6q-39 4 -61.5 24.5t-27 36.5t-4.5 32q0 24 15.5 45.5t47.5 21.5q31 0 47 -24t16 -59q0 -69 -51.5 -134.5
t-127.5 -65.5q-53 0 -98.5 26.5t-84.5 53t-75 26.5q-18 0 -40.5 -15t-41.5 -42l-13 10q28 50 88.5 100t123 86t140 88t126.5 100l-2 2q-98 -87 -211 -87q-68 0 -168 36q-3 -10 -10.5 -41.5t-12.5 -51.5l-13 3q5 37 12.5 70t22.5 73.5t40 64.5t58 24z" />
    <glyph glyph-name="braceleft" unicode="{" horiz-adv-x="360" 
d="M240 131l-34 -198q-16 -95 69 -101l-2 -17q-132 -14 -176.5 39.5t-28.5 146.5l30 174q12 47 4 84.5t-47 42.5l2 20q44 13 61.5 41t26.5 87l14 93q7 44 21 77.5t42 64t78 43.5t119 7l-2 -18q-27 -1 -46 -11t-28.5 -28t-14 -32.5t-7.5 -37.5l-19 -110q-15 -92 -64 -136.5
t-141 -46.5l-1 -4q88 0 124.5 -40.5t19.5 -139.5z" />
    <glyph glyph-name="bar" unicode="|" horiz-adv-x="302" 
d="M146 -141v885h37v-885h-37z" />
    <glyph glyph-name="braceright" unicode="}" horiz-adv-x="360" 
d="M149 487l21 126q3 25 3 46.5t-16.5 37t-49.5 17.5l1 17q69 8 115 -5t64 -40t24.5 -64t-3.5 -77l-17 -102q-5 -28 -6 -46.5t1.5 -37.5t14.5 -29.5t33 -13.5l-3 -20q-43 -13 -60 -40.5t-27 -87.5l-27 -165q-7 -45 -21 -78t-42 -63.5t-78 -43.5t-119 -7l3 18q27 1 45.5 11
t28.5 28t14 32.5t8 37.5l30 182q16 92 65 136.5t141 46.5l1 4q-89 0 -125 40.5t-19 139.5z" />
    <glyph glyph-name="asciitilde" unicode="~" horiz-adv-x="603" 
d="M522 376l13 -4q-14 -77 -59.5 -124.5t-102.5 -47.5q-24 0 -88 18.5t-96 18.5q-66 0 -90 -52l-13 4q10 69 51.5 118.5t100.5 49.5q22 0 91 -18t102 -18q65 0 91 55z" />
    <glyph glyph-name="exclamdown" unicode="&#xa1;" horiz-adv-x="365" 
d="M188 254q-33 0 -54 23.5t-21 58.5q0 46 32.5 82t76.5 36q31 0 52 -23.5t21 -58.5q0 -46 -32.5 -82t-74.5 -36zM171 220h20l41 -323q6 -36 6 -45q0 -56 -35.5 -97.5t-100.5 -41.5q-52 0 -77 27.5t-25 70.5q0 35 13 65z" />
    <glyph glyph-name="cent" unicode="&#xa2;" 
d="M256 -42l25 109q-95 2 -143.5 50.5t-48.5 125.5q0 119 81.5 204.5t215.5 86.5l24 107h17l-23 -108q73 -2 107.5 -34.5t34.5 -73.5q0 -34 -21.5 -54.5t-51.5 -20.5q-33 0 -50.5 23t-17.5 59q0 48 30 77q-24 2 -39 -5l-80 -358q26 -26 70 -26q51 0 106 34l9 -15
q-84 -70 -202 -72l-25 -109h-18zM286 233q0 -47 15 -74l75 337q-42 -31 -66 -114t-24 -149z" />
    <glyph glyph-name="sterling" unicode="&#xa3;" 
d="M36 317l3 21h112q-27 75 -27 129q0 95 68 151t171 56q118 0 170 -41.5t52 -91.5q0 -38 -22 -59.5t-53 -21.5q-37 0 -54 23.5t-17 61.5q0 54 28 96q-29 8 -51 8q-85 0 -85 -117q0 -13 1 -42.5t1 -47.5q0 -59 -9 -104h128l-4 -21h-128q-39 -156 -218 -256l2 -4
q76 46 141 46q44 0 102.5 -23.5t109.5 -47.5t77 -24q17 0 30 7q-41 4 -65 25t-28.5 37.5t-4.5 31.5q0 26 15.5 48t49.5 22q32 0 49.5 -25t17.5 -60q0 -70 -53.5 -133t-133.5 -63q-44 0 -88.5 21.5t-74 48t-65 48t-63.5 21.5q-18 0 -47.5 -12t-41.5 -19l-48 -28l-9 17
q116 67 158.5 122.5t42.5 117.5q0 32 -18 82h-121z" />
    <glyph glyph-name="currency" unicode="&#xa4;" horiz-adv-x="624" 
d="M161 390l-61 63l57 63l65 -63q53 33 103 33q53 0 103 -31l61 61l60 -63l-61 -63q30 -58 30 -108q0 -58 -29 -108l61 -61l-58 -64l-62 62q-50 -32 -105 -32q-54 0 -104 32l-61 -59l-60 59l60 62q-31 50 -31 107t32 110zM206 281q0 -52 35 -89t84 -37q50 0 85.5 37t35.5 89
q0 53 -35.5 89t-85.5 36q-49 0 -84 -36t-35 -89z" />
    <glyph glyph-name="yen" unicode="&#xa5;" 
d="M397 218l-21 -123q-3 -25 0 -37t11 -19t16 -9.5t13.5 -6.5t4.5 -12l-1 -11h-323l1 11q2 10 16.5 14.5t30.5 20.5t22 53l18 119h-148l4 24h508l-4 -24h-148zM414 317h147l-3 -24h-508l4 24h125l-53 235q-8 34 -20 53t-21.5 22t-15.5 8.5t-4 17.5l1 7h342l-1 -9
q-1 -12 -11.5 -17.5t-21 -8t-16.5 -17.5t1 -48l44 -214h5l102 189q24 42 19.5 63t-19.5 25.5t-30.5 10t-13.5 17.5l1 9h214l-1 -8q-2 -12 -16.5 -17t-33 -8.5t-45.5 -26t-50 -64.5z" />
    <glyph glyph-name="brokenbar" unicode="&#xa6;" horiz-adv-x="302" 
d="M177 366h-36v378h36v-378zM141 271h36v-412h-36v412z" />
    <glyph glyph-name="section" unicode="&#xa7;" horiz-adv-x="638" 
d="M294 -38q0 38 -33.5 92t-73 101.5t-73 111t-33.5 118.5q0 128 100.5 219t246.5 91q90 0 131.5 -37.5t41.5 -89.5q0 -36 -21.5 -60.5t-55.5 -24.5q-40 0 -59.5 27t-19.5 67q0 51 26 93q-12 3 -24 3q-42 0 -69.5 -27t-27.5 -72q0 -33 23 -69.5t55.5 -71.5t64.5 -73
t55 -88.5t23 -104.5q0 -55 -22.5 -109.5t-67 -102.5t-122 -78t-175.5 -30q-79 0 -116.5 36.5t-37.5 82.5q0 48 24 73.5t57 25.5q39 0 59.5 -28t20.5 -67q0 -60 -34 -99q15 -3 32 -3q47 0 76 25.5t29 68.5zM252 624l-4 5q-78 -47 -78 -129q0 -81 94 -206q10 -13 42.5 -54
t45.5 -59.5t33.5 -51t28.5 -59.5t8 -54q0 -50 -29 -95l2 -6q80 48 80 134q0 40 -20 85.5t-43.5 78t-64 84.5t-59.5 80q-67 96 -67 160q0 45 31 87z" />
    <glyph glyph-name="dieresis" unicode="&#xa8;" horiz-adv-x="560" 
d="M266 721q33 0 53 -22t20 -56q0 -44 -31 -75.5t-71 -31.5q-31 0 -51.5 21.5t-20.5 53.5q0 43 30 76.5t71 33.5zM471 721q33 0 53 -22t20 -56q0 -43 -31 -75t-70 -32q-31 0 -51.5 21.5t-20.5 53.5q0 43 29.5 76.5t70.5 33.5z" />
    <glyph glyph-name="copyright" unicode="&#xa9;" horiz-adv-x="806" 
d="M413 563q52 0 112 -22l21 25h9v-170h-4q-13 0 -18 24q-10 49 -36.5 87.5t-59.5 38.5q-75 0 -75 -220q0 -112 20 -153t55 -41q33 0 57 27t34 59t19 59t17 27h5l-4 -189h-9l-19 25q-71 -27 -131 -27q-103 0 -164.5 62t-61.5 158q0 97 65 163.5t168 66.5zM403 30
q125 0 208.5 90.5t83.5 219.5t-83.5 220t-208.5 91q-126 0 -209 -91t-83 -220q0 -131 80.5 -220.5t211.5 -89.5zM403 -6q-151 0 -244 99t-93 247q0 145 96.5 246t240.5 101t240 -101t96 -246q0 -146 -96 -246t-240 -100z" />
    <glyph glyph-name="ordfeminine" unicode="&#xaa;" horiz-adv-x="424" 
d="M211 598q55 0 88 -33q69 6 123 37h16q-9 -44 -26 -133.5t-26 -134.5q33 20 60 51l10 -10q-73 -84 -134 -84q-39 0 -54.5 15.5t-15.5 54.5q0 20 6 44q-3 0 -4 1q-18 -55 -52.5 -85.5t-73.5 -30.5q-37 0 -62.5 23.5t-25.5 74.5q0 86 46.5 148t124.5 62zM259 565
q-32 0 -53.5 -70t-21.5 -119q0 -20 15 -20q19 0 36 42.5t49 156.5q-13 10 -25 10z" />
    <glyph glyph-name="guillemotleft" unicode="&#xab;" horiz-adv-x="448" 
d="M144 206l72 -201l-12 -11l-167 186q-10 14 -10 23q0 12 19 29l229 187l9 -11zM304 206l72 -201l-12 -11l-166 186q-10 13 -10 22q0 15 19 30l228 187l9 -11z" />
    <glyph glyph-name="logicalnot" unicode="&#xac;" 
d="M121 338h390l-42 -258h-50l34 201h-340z" />
    <glyph glyph-name="sfthyphen" unicode="&#xad;" horiz-adv-x="323" 
d="M46 286h252l-13 -80h-252z" />
    <glyph glyph-name="registered" unicode="&#xae;" horiz-adv-x="640" 
d="M319 171q-122 0 -197 80.5t-75 198.5t77.5 199.5t194.5 81.5t195.5 -81.5t78.5 -199.5q0 -117 -78.5 -198t-195.5 -81zM320 206q106 0 169.5 69t63.5 175q0 107 -66 176.5t-167 69.5q-102 0 -167 -67.5t-65 -178.5q0 -109 65.5 -176.5t166.5 -67.5zM290 596v-134h5
q22 0 35.5 19.5t13.5 46.5q0 29 -12.5 48.5t-37.5 19.5h-4zM378 436q21 0 42 3l53 -95q4 -7 8 -11t6.5 -5t4.5 -2.5t2 -3.5v-3h-111q-3 0 -5 3l-83 134h-5v-99q0 -15 5 -22t9.5 -9t4.5 -4v-3h-147v3q0 3 6 5t11.5 8.5t5.5 21.5v208q0 20 -11.5 26t-11.5 8v3h193q40 0 69 -18
t29 -58q0 -31 -23 -49.5t-56.5 -21t-71.5 0.5q19 -20 76 -20z" />
    <glyph glyph-name="macron" unicode="&#xaf;" horiz-adv-x="559" 
d="M518 653l-20 -109q-128 12 -310 0l16 89q91 15 314 20z" />
    <glyph glyph-name="degree" unicode="&#xb0;" horiz-adv-x="326" 
d="M122 568q0 -38 23.5 -63t59.5 -25t60 25t24 63t-24 63t-60 25t-59.5 -25t-23.5 -63zM85 568q0 52 35 89t85 37t85.5 -37t35.5 -89q0 -53 -35.5 -89t-85.5 -36q-52 0 -86 35.5t-34 89.5z" />
    <glyph glyph-name="plusminus" unicode="&#xb1;" horiz-adv-x="603" 
d="M77 55h391l-8 -55h-391zM378 529l-28 -174h170l-11 -57h-169l-32 -186h-50l31 186h-170l9 57h172l28 174h50z" />
    <glyph glyph-name="twosuperior" unicode="&#xb2;" horiz-adv-x="418" 
d="M140 396h166q29 0 49 10.5t28 22.5t15 20t13 6l5 -2l-69 -153h-318v9q21 29 53 58t59.5 51t53.5 49t41 63.5t15 82.5q0 24 -12 42t-36 18q-7 0 -11 -1q21 -24 21 -53q0 -30 -18 -52.5t-48 -22.5q-24 0 -36 16t-12 35q0 51 52.5 78.5t112.5 27.5q74 0 108 -26.5t34 -65.5
q0 -41 -33 -75t-74.5 -53t-90 -42.5t-68.5 -42.5z" />
    <glyph glyph-name="threesuperior" unicode="&#xb3;" horiz-adv-x="418" 
d="M295 516l-1 -2q50 -7 76 -32t26 -61q0 -53 -54 -91.5t-147 -38.5q-75 0 -112 24t-37 62q0 45 36 67.5t91 22.5l4 -11q-26 -28 -26 -105q0 -44 32 -44q29 0 46 40t17 85q0 42 -22.5 55t-69.5 14l-1 14q111 20 111 121q0 20 -9.5 33t-27.5 13q-7 0 -11 -1q11 -17 11 -39
q0 -30 -18 -53.5t-50 -23.5q-25 0 -37 13.5t-12 32.5q0 42 44 66.5t113 24.5q75 0 109 -24t34 -60q0 -33 -29.5 -63t-85.5 -39z" />
    <glyph glyph-name="acute" unicode="&#xb4;" horiz-adv-x="560" 
d="M266 509l-5 14q43 29 74 70.5t44 71.5t33 52t48 22q27 0 42 -15.5t15 -36.5q0 -9 -3.5 -21.5t-18.5 -34.5t-40 -42t-74.5 -42t-114.5 -38z" />
    <glyph glyph-name="mu" unicode="&#xb5;" horiz-adv-x="645" 
d="M600 456l7 -5l-78 -412q33 24 93 87l12 -14q-60 -71 -103 -99t-84 -28q-49 0 -74 22t-25 62q0 48 32 166l-2 1h-2q-51 -171 -138 -228l-20 -124q-2 -9 -2 -23q0 -25 15 -36t30.5 -15t15.5 -12q0 -6 -1 -8h-334q0 11 10 16.5t22.5 8.5t26 20.5t19.5 48.5l97 515
q-52 -37 -94 -85l-12 13q107 130 191 130q104 0 104 -98q0 -17 -7 -49l-35 -161q-8 -35 -8 -44q0 -23 18 -23q20 0 54 76t59 189l12 58q119 7 201 51z" />
    <glyph glyph-name="mu" unicode="&#x3bc;" horiz-adv-x="645" 
d="M600 456l7 -5l-78 -412q33 24 93 87l12 -14q-60 -71 -103 -99t-84 -28q-49 0 -74 22t-25 62q0 48 32 166l-2 1h-2q-51 -171 -138 -228l-20 -124q-2 -9 -2 -23q0 -25 15 -36t30.5 -15t15.5 -12q0 -6 -1 -8h-334q0 11 10 16.5t22.5 8.5t26 20.5t19.5 48.5l97 515
q-52 -37 -94 -85l-12 13q107 130 191 130q104 0 104 -98q0 -17 -7 -49l-35 -161q-8 -35 -8 -44q0 -23 18 -23q20 0 54 76t59 189l12 58q119 7 201 51z" />
    <glyph glyph-name="paragraph" unicode="&#xb6;" horiz-adv-x="662" 
d="M254 -151v-5q46 16 79 53.5t48.5 76.5t22.5 84l100 596h-41l-107 -634q-22 -121 -102 -171zM152 -190q-78 0 -113.5 33.5t-35.5 77.5q0 51 24.5 79.5t61.5 28.5q38 0 58.5 -26.5t20.5 -65.5q0 -63 -38 -104q4 -1 11 -1q46 0 73 40t37 100l46 268h-31q-79 0 -124.5 51
t-45.5 134q0 104 70.5 176.5t168.5 72.5h341q-1 -3 -1 -8q-1 -8 -13 -12t-26 -7t-28 -19.5t-19 -46.5q-48 -279 -77 -457q-24 -144 -115.5 -229t-244.5 -85z" />
    <glyph glyph-name="periodcentered" unicode="&#xb7;" horiz-adv-x="250" 
d="M145 349q33 0 54.5 -24t21.5 -60q0 -49 -33 -85.5t-78 -36.5q-34 0 -55.5 23.5t-21.5 59.5q0 49 34.5 86t77.5 37z" />
    <glyph glyph-name="cedilla" unicode="&#xb8;" horiz-adv-x="473" 
d="M179 9l-42 -67q88 -1 131.5 -26.5t43.5 -64.5q0 -49 -59 -86t-157 -37q-32 0 -56 2l3 17q60 0 100.5 21.5t40.5 62.5q0 24 -24 39.5t-72 16.5l77 126z" />
    <glyph glyph-name="onesuperior" unicode="&#xb9;" horiz-adv-x="398" 
d="M348 697l-55 -339q-2 -15 3 -24t12.5 -11.5t13.5 -5.5t5 -8l-1 -9h-228l1 7q1 7 12 10t23.5 11t15.5 26l42 262q4 22 -17 27q-2 0 -6 1q-18 5 -18 12l1 7l191 38z" />
    <glyph glyph-name="ordmasculine" unicode="&#xba;" horiz-adv-x="415" 
d="M274 600q85 0 123.5 -35t38.5 -90q0 -73 -59 -129t-166 -56q-81 0 -118 34.5t-37 89.5q0 79 59.5 132.5t158.5 53.5zM272 583q-28 0 -51.5 -87.5t-23.5 -148.5q0 -41 22 -41q29 0 51.5 86.5t22.5 146.5q0 44 -21 44z" />
    <glyph glyph-name="guillemotright" unicode="&#xbb;" horiz-adv-x="448" 
d="M162 5l140 201l-72 202l12 11l167 -187q9 -12 9 -23q0 -14 -18 -29l-229 -186zM-1 5l141 201l-73 202l13 11l166 -187q9 -10 9 -22q0 -15 -18 -30l-229 -186z" />
    <glyph glyph-name="onequarter" unicode="&#xbc;" horiz-adv-x="779" 
d="M613 720l-410 -759h-21l411 759h20zM341 697l-55 -339q-2 -15 3 -24t12.5 -11.5t13.5 -5.5t5 -8l-1 -9h-228l1 7q1 7 12 10t23.5 11t15.5 26l42 262q4 22 -17 27q-2 0 -6 1q-18 5 -18 12l1 7l191 38zM713 393l1 -2q-96 -148 -339 -266h157l13 74q82 16 144 54l4 -2
l-21 -126h47l-3 -17h-47q-8 -38 -8 -60q0 -20 18 -26t18 -13v-8h-229l1 9q1 5 17 10q13 5 19.5 10.5t13 24t10.5 53.5h-180q0 5 2 15q95 111 199 270h163z" />
    <glyph glyph-name="onehalf" unicode="&#xbd;" horiz-adv-x="780" 
d="M588 720l-410 -759h-21l411 759h20zM322 697l-55 -339q-2 -15 3 -24t12.5 -11.5t13.5 -5.5t5 -8l-1 -9h-228l1 7q1 7 12 10t23.5 11t15.5 26l42 262q4 22 -17 27q-2 0 -6 1q-18 5 -18 12l1 7l191 38zM466 96h166q29 0 49 10.5t28 22.5t15 20t13 6l5 -2l-69 -153h-318v9
q21 29 53 58t59.5 51t53.5 49t41 63.5t15 82.5q0 24 -12 42t-36 18q-7 0 -11 -1q21 -24 21 -53q0 -30 -18 -52.5t-48 -22.5q-24 0 -36 16t-12 35q0 51 52.5 78.5t112.5 27.5q74 0 108 -26.5t34 -65.5q0 -41 -33 -75t-74.5 -53t-90 -42.5t-68.5 -42.5z" />
    <glyph glyph-name="threequarters" unicode="&#xbe;" horiz-adv-x="786" 
d="M650 720l-410 -759h-21l411 759h20zM296 516l-1 -2q50 -7 76 -32t26 -61q0 -53 -54 -91.5t-147 -38.5q-75 0 -112 24t-37 62q0 45 36 67.5t91 22.5l4 -11q-26 -28 -26 -105q0 -44 32 -44q29 0 46 40t17 85q0 42 -22.5 55t-69.5 14l-1 14q111 20 111 121q0 20 -9.5 33
t-27.5 13q-7 0 -11 -1q11 -17 11 -39q0 -30 -18 -53.5t-50 -23.5q-24 0 -36.5 13.5t-12.5 32.5q0 42 44 66.5t113 24.5q75 0 109 -24t34 -60q0 -33 -29.5 -63t-85.5 -39zM746 393l1 -2q-96 -148 -339 -266h157l13 74q82 16 144 54l4 -2l-21 -126h47l-3 -17h-47
q-8 -38 -8 -60q0 -20 18 -26t18 -13v-8h-229l1 9q1 5 17 10q13 5 19.5 10.5t13 24t10.5 53.5h-180q0 5 2 15q95 111 199 270h163z" />
    <glyph glyph-name="questiondown" unicode="&#xbf;" horiz-adv-x="541" 
d="M187 -298q-97 0 -158.5 33.5t-61.5 107.5q0 53 31.5 97t76 73t89.5 53.5t76.5 49.5t31.5 50t-43 39l8 18q104 -2 153.5 -35.5t49.5 -85.5q0 -41 -30 -78t-73.5 -64.5t-86.5 -53.5t-73 -58t-30 -66q0 -56 76 -56q29 0 52 6q-19 30 -19 74q0 49 27.5 83.5t74.5 34.5
q30 0 49 -18.5t19 -48.5q0 -61 -58 -108t-181 -47zM298 250q-31 0 -52.5 23.5t-21.5 58.5q0 46 32.5 81.5t75.5 35.5q32 0 53 -23.5t21 -58.5q0 -46 -33 -81.5t-75 -35.5z" />
    <glyph glyph-name="Agrave" unicode="&#xc0;" horiz-adv-x="681" 
d="M496 674l92 -582q4 -28 14.5 -45t20.5 -20.5t18 -7t8 -9.5q0 -2 -0.5 -5.5t-0.5 -4.5h-347q1 2 1 7q1 9 16.5 14t29.5 17.5t14 39.5q0 17 -3 40t-8.5 51t-7.5 42h-182l-39 -81q-19 -41 -19 -63q0 -24 18 -34t36 -13.5t18 -10.5t-1 -9h-214q0 13 12.5 18t31 8t44.5 26
t48 67q175 353 211 424q20 40 20 67q0 21 -14.5 30t-29 12t-14.5 11q0 2 0.5 5.5t0.5 5.5h226zM302 491h-4q-14 -29 -58.5 -120.5t-68.5 -141.5h169l-15 96q-9 56 -23 166zM539 752l-6 -15q-65 5 -115 19t-75.5 31t-41.5 37t-20 32.5t-4 21.5q0 24 16.5 42.5t49.5 18.5
q26 0 46.5 -20t34.5 -47.5t44.5 -62.5t70.5 -57z" />
    <glyph glyph-name="Aacute" unicode="&#xc1;" horiz-adv-x="681" 
d="M496 674l92 -582q4 -28 14.5 -45t20.5 -20.5t18 -7t8 -9.5q0 -2 -0.5 -5.5t-0.5 -4.5h-347q1 2 1 7q1 9 16.5 14t29.5 17.5t14 39.5q0 17 -3 40t-8.5 51t-7.5 42h-182l-39 -81q-19 -41 -19 -63q0 -24 18 -34t36 -13.5t18 -10.5t-1 -9h-214q0 13 12.5 18t31 8t44.5 26
t48 67q175 353 211 424q20 40 20 67q0 21 -14.5 30t-29 12t-14.5 11q0 2 0.5 5.5t0.5 5.5h226zM302 491h-4q-14 -29 -58.5 -120.5t-68.5 -141.5h169l-15 96q-9 56 -23 166zM316 728q0 3 -0.5 8t-0.5 7q26 14 49 30.5t41.5 36t29 32t25 32t16.5 22.5q32 40 63 40
q27 0 40.5 -16t13.5 -39q0 -7 -1 -11q-2 -11 -9 -24.5t-27 -33.5t-48.5 -36.5t-78.5 -30t-113 -17.5z" />
    <glyph glyph-name="Acircumflex" unicode="&#xc2;" horiz-adv-x="681" 
d="M496 674l92 -582q4 -28 14.5 -45t20.5 -20.5t18 -7t8 -9.5q0 -2 -0.5 -5.5t-0.5 -4.5h-347q1 2 1 7q1 9 16.5 14t29.5 17.5t14 39.5q0 17 -3 40t-8.5 51t-7.5 42h-182l-39 -81q-19 -41 -19 -63q0 -24 18 -34t36 -13.5t18 -10.5t-1 -9h-214q0 13 12.5 18t31 8t44.5 26
t48 67q175 353 211 424q20 40 20 67q0 21 -14.5 30t-29 12t-14.5 11q0 2 0.5 5.5t0.5 5.5h226zM302 491h-4q-14 -29 -58.5 -120.5t-68.5 -141.5h169l-15 96q-9 56 -23 166zM580 717l-150 85l-186 -83l-7 14l195 185q16 14 22 14q10 0 19 -14l118 -187z" />
    <glyph glyph-name="Atilde" unicode="&#xc3;" horiz-adv-x="681" 
d="M496 674l92 -582q4 -28 14.5 -45t20.5 -20.5t18 -7t8 -9.5q0 -2 -0.5 -5.5t-0.5 -4.5h-347q1 2 1 7q1 9 16.5 14t29.5 17.5t14 39.5q0 17 -3 40t-8.5 51t-7.5 42h-182l-39 -81q-19 -41 -19 -63q0 -24 18 -34t36 -13.5t18 -10.5t-1 -9h-214q0 13 12.5 18t31 8t44.5 26
t48 67q175 353 211 424q20 40 20 67q0 21 -14.5 30t-29 12t-14.5 11q0 2 0.5 5.5t0.5 5.5h226zM302 491h-4q-14 -29 -58.5 -120.5t-68.5 -141.5h169l-15 96q-9 56 -23 166zM619 893l11 -4q-21 -63 -57.5 -105.5t-82.5 -42.5q-23 0 -76 14.5t-77 14.5q-62 0 -89 -41l-12 4
q17 56 52 101.5t84 45.5q18 0 78.5 -16t84.5 -16q29 0 47.5 8t36.5 37z" />
    <glyph glyph-name="Adieresis" unicode="&#xc4;" horiz-adv-x="681" 
d="M496 674l92 -582q4 -28 14.5 -45t20.5 -20.5t18 -7t8 -9.5q0 -2 -0.5 -5.5t-0.5 -4.5h-347q1 2 1 7q1 9 16.5 14t29.5 17.5t14 39.5q0 17 -3 40t-8.5 51t-7.5 42h-182l-39 -81q-19 -41 -19 -63q0 -24 18 -34t36 -13.5t18 -10.5t-1 -9h-214q0 13 12.5 18t31 8t44.5 26
t48 67q175 353 211 424q20 40 20 67q0 21 -14.5 30t-29 12t-14.5 11q0 2 0.5 5.5t0.5 5.5h226zM302 491h-4q-14 -29 -58.5 -120.5t-68.5 -141.5h169l-15 96q-9 56 -23 166zM340 928q33 0 53.5 -22.5t20.5 -56.5q0 -43 -31 -74.5t-71 -31.5q-31 0 -52 21.5t-21 53.5
q0 43 30 76.5t71 33.5zM553 928q33 0 53.5 -22.5t20.5 -56.5q0 -43 -31.5 -74.5t-71.5 -31.5q-31 0 -51.5 21.5t-20.5 53.5q0 43 30 76.5t71 33.5z" />
    <glyph glyph-name="Aring" unicode="&#xc5;" horiz-adv-x="681" 
d="M496 674l92 -582q4 -28 14.5 -45t20.5 -20.5t18 -7t8 -9.5q0 -2 -0.5 -5.5t-0.5 -4.5h-347q1 2 1 7q1 9 16.5 14t29.5 17.5t14 39.5q0 17 -3 40t-8.5 51t-7.5 42h-182l-39 -81q-19 -41 -19 -63q0 -24 18 -34t36 -13.5t18 -10.5t-1 -9h-214q0 13 12.5 18t31 8t44.5 26
t48 67q175 353 211 424q20 40 20 67q0 21 -14.5 30t-29 12t-14.5 11q0 2 0.5 5.5t0.5 5.5h226zM302 491h-4q-14 -29 -58.5 -120.5t-68.5 -141.5h169l-15 96q-9 56 -23 166zM413 691q-42 0 -67.5 25t-25.5 64q0 54 38 93t92 39q38 0 63 -25t25 -63q0 -55 -36.5 -94t-88.5 -39
zM445 876q-35 0 -60.5 -27.5t-25.5 -62.5q0 -26 16.5 -43.5t43.5 -17.5q31 0 56 27t25 62q0 26 -14.5 44t-40.5 18z" />
    <glyph glyph-name="AE" unicode="&#xc6;" horiz-adv-x="969" 
d="M118 114q72 97 209 277.5t161 212.5q0 23 -13 33.5t-26 14.5t-13 11q0 2 0.5 5.5t0.5 5.5h305q132 0 214 35l6 -4l-19 -269q-3 -2 -7 -2h-2q-1 0 -1.5 0.5l-2 2t-3 4.5t-3 8.5t-2.5 12.5q-12 58 -23 90.5t-30 57.5t-47 34t-72 9h-27l-48 -290h29q33 0 57 20.5t33.5 45.5
t18 45.5t15.5 20.5h6q-13 -82 -47 -293h-6q-9 0 -11 22t-1.5 48.5t-15.5 48.5t-51 22h-31l-42 -257q-3 -12 -3 -24q0 -42 54 -42h8q65 0 122 56t137 196q9 17 18 17q4 0 7 -2l-101 -309q-2 -2 -6 -4q-67 26 -207 26h-331q1 2 1 8q1 8 18 11.5t36 18.5t25 51q13 82 22 134
h-207l-69 -97q-34 -48 -34 -67t18.5 -27t36.5 -12t18 -11q0 -6 -1 -9h-224q1 2 1 7q2 9 21 13t56 25.5t73 68.5zM485 572l-247 -330h194l48 290q4 26 7 40h-2z" />
    <glyph glyph-name="Ccedilla" unicode="&#xc7;" horiz-adv-x="614" 
d="M439 691q85 0 160 -29l38 45q1 0 4 -0.5t4 -0.5l-38 -282h-5q-7 0 -9.5 6.5t-4.5 28.5q-23 210 -110 210q-51 0 -96.5 -91t-69.5 -211.5t-24 -222.5q0 -73 21 -103.5t60 -30.5q56 0 108 67.5t90 167.5q17 44 28 44h5l-55 -308h-8l-27 47q-91 -42 -196 -42h-12l-27 -44
q88 -1 131.5 -26.5t43.5 -64.5q0 -49 -59 -86t-157 -37q-32 0 -56 2l3 17q60 0 100.5 21.5t40.5 62.5q0 24 -24 39.5t-72 16.5l61 100q-115 9 -177.5 86t-62.5 196q0 180 109.5 301t282.5 121z" />
    <glyph glyph-name="Egrave" unicode="&#xc8;" horiz-adv-x="639" 
d="M91 674h297q153 0 240 35l5 -2l-19 -271q-2 -2 -7 -2q-3 0 -4 0.5t-3.5 7t-5.5 20.5q-23 115 -59.5 153t-130.5 38h-19l-49 -290h32q34 0 59 20.5t35.5 45.5t20 45.5t16.5 20.5h5l-48 -293h-6q-8 0 -10 22t-3 48.5t-18 48.5t-52 22h-34l-44 -257q-2 -16 -2 -22
q0 -44 54 -44h14q65 0 122 54t131 184q20 29 27 31q2 0 8 -2q-77 -235 -104 -312l-4 -1q-62 26 -191 26h-361v8q1 9 19 12.5t38 18t26 50.5l83 495q2 14 2 18q0 25 -15 36t-30.5 14.5t-15.5 10.5q0 2 0.5 5.5t0.5 5.5zM520 752l-6 -15q-65 5 -115 19t-75.5 31t-41.5 37
t-20 32.5t-4 21.5q0 24 16.5 42.5t49.5 18.5q26 0 46.5 -20t34.5 -47.5t44.5 -62.5t70.5 -57z" />
    <glyph glyph-name="Eacute" unicode="&#xc9;" horiz-adv-x="639" 
d="M91 674h297q153 0 240 35l5 -2l-19 -271q-2 -2 -7 -2q-3 0 -4 0.5t-3.5 7t-5.5 20.5q-23 115 -59.5 153t-130.5 38h-19l-49 -290h32q34 0 59 20.5t35.5 45.5t20 45.5t16.5 20.5h5l-48 -293h-6q-8 0 -10 22t-3 48.5t-18 48.5t-52 22h-34l-44 -257q-2 -16 -2 -22
q0 -44 54 -44h14q65 0 122 54t131 184q20 29 27 31q2 0 8 -2q-77 -235 -104 -312l-4 -1q-62 26 -191 26h-361v8q1 9 19 12.5t38 18t26 50.5l83 495q2 14 2 18q0 25 -15 36t-30.5 14.5t-15.5 10.5q0 2 0.5 5.5t0.5 5.5zM261 728q0 3 -0.5 8t-0.5 7q26 14 49 30.5t41.5 36
t29 32t25 32t16.5 22.5q32 40 63 40q27 0 40.5 -16t13.5 -39q0 -7 -1 -11q-2 -11 -9 -24.5t-27 -33.5t-48.5 -36.5t-78.5 -30t-113 -17.5z" />
    <glyph glyph-name="Ecircumflex" unicode="&#xca;" horiz-adv-x="639" 
d="M91 674h297q153 0 240 35l5 -2l-19 -271q-2 -2 -7 -2q-3 0 -4 0.5t-3.5 7t-5.5 20.5q-23 115 -59.5 153t-130.5 38h-19l-49 -290h32q34 0 59 20.5t35.5 45.5t20 45.5t16.5 20.5h5l-48 -293h-6q-8 0 -10 22t-3 48.5t-18 48.5t-52 22h-34l-44 -257q-2 -16 -2 -22
q0 -44 54 -44h14q65 0 122 54t131 184q20 29 27 31q2 0 8 -2q-77 -235 -104 -312l-4 -1q-62 26 -191 26h-361v8q1 9 19 12.5t38 18t26 50.5l83 495q2 14 2 18q0 25 -15 36t-30.5 14.5t-15.5 10.5q0 2 0.5 5.5t0.5 5.5zM539 727l-150 85l-186 -83l-7 14l195 185q16 14 22 14
q10 0 19 -14l118 -187z" />
    <glyph glyph-name="Edieresis" unicode="&#xcb;" horiz-adv-x="639" 
d="M91 674h297q153 0 240 35l5 -2l-19 -271q-2 -2 -7 -2q-3 0 -4 0.5t-3.5 7t-5.5 20.5q-23 115 -59.5 153t-130.5 38h-19l-49 -290h32q34 0 59 20.5t35.5 45.5t20 45.5t16.5 20.5h5l-48 -293h-6q-8 0 -10 22t-3 48.5t-18 48.5t-52 22h-34l-44 -257q-2 -16 -2 -22
q0 -44 54 -44h14q65 0 122 54t131 184q20 29 27 31q2 0 8 -2q-77 -235 -104 -312l-4 -1q-62 26 -191 26h-361v8q1 9 19 12.5t38 18t26 50.5l83 495q2 14 2 18q0 25 -15 36t-30.5 14.5t-15.5 10.5q0 2 0.5 5.5t0.5 5.5zM297 928q33 0 53.5 -22.5t20.5 -56.5q0 -43 -31 -74.5
t-71 -31.5q-31 0 -52 21.5t-21 53.5q0 43 30 76.5t71 33.5zM510 928q33 0 53.5 -22.5t20.5 -56.5q0 -43 -31.5 -74.5t-71.5 -31.5q-31 0 -51.5 21.5t-20.5 53.5q0 43 30 76.5t71 33.5z" />
    <glyph glyph-name="Igrave" unicode="&#xcc;" horiz-adv-x="419" 
d="M358 0h-366q0 12 10.5 17t24 7t27.5 18t19 47l82 495q2 14 2 19q0 24 -14 34.5t-28 14.5t-14 11v11h359q-1 -3 -1 -9q-1 -8 -18 -12t-35.5 -18.5t-24.5 -50.5l-83 -495q-2 -14 -2 -19q0 -20 10 -31.5t21.5 -14t21.5 -6t10 -9.5q0 -7 -1 -9zM428 752l-6 -15q-65 5 -115 19
t-75.5 31t-41.5 37t-20 32.5t-4 21.5q0 24 16.5 42.5t49.5 18.5q26 0 46.5 -20t34.5 -47.5t44.5 -62.5t70.5 -57z" />
    <glyph glyph-name="Iacute" unicode="&#xcd;" horiz-adv-x="419" 
d="M358 0h-366q0 12 10.5 17t24 7t27.5 18t19 47l82 495q2 14 2 19q0 24 -14 34.5t-28 14.5t-14 11v11h359q-1 -3 -1 -9q-1 -8 -18 -12t-35.5 -18.5t-24.5 -50.5l-83 -495q-2 -14 -2 -19q0 -20 10 -31.5t21.5 -14t21.5 -6t10 -9.5q0 -7 -1 -9zM175 728q0 3 -0.5 8t-0.5 7
q26 14 49 30.5t41.5 36t29 32t25 32t16.5 22.5q32 40 63 40q27 0 40.5 -16t13.5 -39q0 -7 -1 -11q-2 -11 -9 -24.5t-27 -33.5t-48.5 -36.5t-78.5 -30t-113 -17.5z" />
    <glyph glyph-name="Icircumflex" unicode="&#xce;" horiz-adv-x="419" 
d="M358 0h-366q0 12 10.5 17t24 7t27.5 18t19 47l82 495q2 14 2 19q0 24 -14 34.5t-28 14.5t-14 11v11h359q-1 -3 -1 -9q-1 -8 -18 -12t-35.5 -18.5t-24.5 -50.5l-83 -495q-2 -14 -2 -19q0 -20 10 -31.5t21.5 -14t21.5 -6t10 -9.5q0 -7 -1 -9zM458 727l-150 85l-186 -83
l-7 14l195 185q16 14 22 14q10 0 19 -14l118 -187z" />
    <glyph glyph-name="Idieresis" unicode="&#xcf;" horiz-adv-x="419" 
d="M358 0h-366q0 12 10.5 17t24 7t27.5 18t19 47l82 495q2 14 2 19q0 24 -14 34.5t-28 14.5t-14 11v11h359q-1 -3 -1 -9q-1 -8 -18 -12t-35.5 -18.5t-24.5 -50.5l-83 -495q-2 -14 -2 -19q0 -20 10 -31.5t21.5 -14t21.5 -6t10 -9.5q0 -7 -1 -9zM224 928q33 0 53.5 -22.5
t20.5 -56.5q0 -43 -31 -74.5t-71 -31.5q-31 0 -52 21.5t-21 53.5q0 43 30 76.5t71 33.5zM437 928q33 0 53.5 -22.5t20.5 -56.5q0 -43 -31.5 -74.5t-71.5 -31.5q-31 0 -51.5 21.5t-20.5 53.5q0 43 30 76.5t71 33.5z" />
    <glyph glyph-name="Eth" unicode="&#xd0;" horiz-adv-x="753" 
d="M344 0h-360q1 2 1 8q1 8 18 11.5t35.5 18.5t24.5 51q7 44 22 130.5t22 130.5h-65q2 7 4 19h64q11 60 31 181q0 2 2.5 14.5t4 24t1.5 13.5q0 25 -14 36t-28 14.5t-14 10.5q0 2 0.5 5.5t0.5 5.5h339q142 0 226 -70.5t84 -206.5q0 -24 -4 -53.5t-16 -68.5t-30.5 -76t-50 -74
t-71.5 -64t-99 -44t-128 -17zM382 653l-48 -284h85q-1 -3 -2 -9.5t-2 -9.5h-84q-7 -45 -22 -135t-22 -135q-2 -6 -2 -19q0 -41 45 -41q49 0 89 84.5t59.5 192.5t19.5 203q0 80 -26 116.5t-79 36.5h-11z" />
    <glyph glyph-name="Ntilde" unicode="&#xd1;" horiz-adv-x="727" 
d="M100 149l72 434q2 14 2 19q0 26 -16 37t-32 14t-16 10v11h304l192 -386l4 2l38 237q4 28 4 38q0 34 -14 54t-30 24.5t-30 9t-14 10.5q0 8 1 11h233q0 -14 -11 -18.5t-27.5 -9t-34.5 -14.5t-35.5 -43t-26.5 -88l-87 -510l-92 -6l-293 592h-3l-71 -431q-4 -28 -4 -38
q0 -34 14 -54t31.5 -24.5t31.5 -8.5t14 -11q0 -2 -0.5 -5.5t-0.5 -4.5h-235v8q1 7 13 10t28.5 8t34.5 16t33.5 38t22.5 69zM649 901l11 -4q-21 -63 -57.5 -105.5t-82.5 -42.5q-23 0 -76 14.5t-77 14.5q-62 0 -89 -41l-12 4q17 56 52 101.5t84 45.5q18 0 78.5 -16t84.5 -16
q29 0 47.5 8t36.5 37z" />
    <glyph glyph-name="Ograve" unicode="&#xd2;" horiz-adv-x="747" 
d="M449 691q77 0 135 -22t90.5 -61.5t48 -87t15.5 -103.5q0 -59 -15.5 -118.5t-49 -116t-80.5 -100.5t-115 -70.5t-148 -26.5q-143 0 -213 77t-70 199q0 113 47.5 210.5t140.5 158.5t214 61zM447 672q-44 0 -83.5 -113t-59.5 -241t-20 -206q0 -109 54 -109q43 0 82.5 110
t60 239.5t20.5 215.5q0 104 -54 104zM586 749l-6 -15q-65 5 -115 19t-75.5 31t-41.5 37t-20 32.5t-4 21.5q0 24 16.5 42.5t49.5 18.5q26 0 46.5 -20t34.5 -47.5t44.5 -62.5t70.5 -57z" />
    <glyph glyph-name="Oacute" unicode="&#xd3;" horiz-adv-x="747" 
d="M449 691q77 0 135 -22t90.5 -61.5t48 -87t15.5 -103.5q0 -59 -15.5 -118.5t-49 -116t-80.5 -100.5t-115 -70.5t-148 -26.5q-143 0 -213 77t-70 199q0 113 47.5 210.5t140.5 158.5t214 61zM447 672q-44 0 -83.5 -113t-59.5 -241t-20 -206q0 -109 54 -109q43 0 82.5 110
t60 239.5t20.5 215.5q0 104 -54 104zM367 732q0 3 -0.5 8t-0.5 7q26 14 49 30.5t41.5 36t29 32t25 32t16.5 22.5q32 40 63 40q27 0 40.5 -16t13.5 -39q0 -7 -1 -11q-2 -11 -9 -24.5t-27 -33.5t-48.5 -36.5t-78.5 -30t-113 -17.5z" />
    <glyph glyph-name="Ocircumflex" unicode="&#xd4;" horiz-adv-x="747" 
d="M449 691q77 0 135 -22t90.5 -61.5t48 -87t15.5 -103.5q0 -59 -15.5 -118.5t-49 -116t-80.5 -100.5t-115 -70.5t-148 -26.5q-143 0 -213 77t-70 199q0 113 47.5 210.5t140.5 158.5t214 61zM447 672q-44 0 -83.5 -113t-59.5 -241t-20 -206q0 -109 54 -109q43 0 82.5 110
t60 239.5t20.5 215.5q0 104 -54 104zM632 727l-150 85l-186 -83l-7 14l195 185q16 14 22 14q10 0 19 -14l118 -187z" />
    <glyph glyph-name="Otilde" unicode="&#xd5;" horiz-adv-x="747" 
d="M449 691q77 0 135 -22t90.5 -61.5t48 -87t15.5 -103.5q0 -59 -15.5 -118.5t-49 -116t-80.5 -100.5t-115 -70.5t-148 -26.5q-143 0 -213 77t-70 199q0 113 47.5 210.5t140.5 158.5t214 61zM447 672q-44 0 -83.5 -113t-59.5 -241t-20 -206q0 -109 54 -109q43 0 82.5 110
t60 239.5t20.5 215.5q0 104 -54 104zM676 908l11 -4q-21 -63 -57.5 -105.5t-82.5 -42.5q-23 0 -76 14.5t-77 14.5q-62 0 -89 -41l-12 4q17 56 52 101.5t84 45.5q18 0 78.5 -16t84.5 -16q29 0 47.5 8t36.5 37z" />
    <glyph glyph-name="Odieresis" unicode="&#xd6;" horiz-adv-x="747" 
d="M449 691q77 0 135 -22t90.5 -61.5t48 -87t15.5 -103.5q0 -59 -15.5 -118.5t-49 -116t-80.5 -100.5t-115 -70.5t-148 -26.5q-143 0 -213 77t-70 199q0 113 47.5 210.5t140.5 158.5t214 61zM447 672q-44 0 -83.5 -113t-59.5 -241t-20 -206q0 -109 54 -109q43 0 82.5 110
t60 239.5t20.5 215.5q0 104 -54 104zM394 928q33 0 53.5 -22.5t20.5 -56.5q0 -43 -31 -74.5t-71 -31.5q-31 0 -52 21.5t-21 53.5q0 43 30 76.5t71 33.5zM607 928q33 0 53.5 -22.5t20.5 -56.5q0 -43 -31.5 -74.5t-71.5 -31.5q-31 0 -51.5 21.5t-20.5 53.5q0 43 30 76.5
t71 33.5z" />
    <glyph glyph-name="multiply" unicode="&#xd7;" horiz-adv-x="603" 
d="M311 265l-147 -140l-27 40q2 2 146 140q-10 13 -97 136l41 39q17 -23 49 -68.5t48 -67.5l141 135q5 -6 14 -19.5t14 -19.5l-141 -135q23 -32 96 -137l-41 -40z" />
    <glyph glyph-name="Oslash" unicode="&#xd8;" horiz-adv-x="747" 
d="M449 691q99 0 171 -40l40 52q4 -4 12 -10l-39 -51q104 -71 104 -225q0 -59 -15.5 -118.5t-48.5 -116t-80 -100.5t-115 -70.5t-148 -26.5q-102 0 -170 41q-3 -4 -44 -56l-11 12l42 53q-100 73 -100 226q0 113 47 210t140.5 158.5t214.5 61.5zM447 672q-52 0 -95 -143
t-60 -305l205 267q4 58 4 77q0 104 -54 104zM338 2q52 0 95.5 147t60.5 312l-205 -267q-5 -62 -5 -78q0 -114 54 -114z" />
    <glyph glyph-name="Ugrave" unicode="&#xd9;" horiz-adv-x="727" 
d="M617 284l41 243q6 36 2 59.5t-14.5 36t-24 19t-25.5 8.5t-19.5 5.5t-6.5 9.5l1 9h236l-1 -9q-1 -7 -12.5 -10t-28 -8t-34.5 -15.5t-33.5 -38t-22.5 -69.5l-38 -226q-12 -71 -31.5 -123t-54 -97.5t-91.5 -69t-136 -23.5q-154 0 -209 78.5t-31 221.5l50 299q5 28 -3 44
t-20 19t-22 7.5t-9 11.5v8h360l-1 -8q-1 -8 -18.5 -12t-36.5 -19t-25 -51l-59 -349q-17 -103 8 -157t103 -54q76 0 130.5 69t75.5 191zM605 752l-6 -15q-65 5 -115 19t-75.5 31t-41.5 37t-20 32.5t-4 21.5q0 24 16.5 42.5t49.5 18.5q26 0 46.5 -20t34.5 -47.5t44.5 -62.5
t70.5 -57z" />
    <glyph glyph-name="Uacute" unicode="&#xda;" horiz-adv-x="727" 
d="M617 284l41 243q6 36 2 59.5t-14.5 36t-24 19t-25.5 8.5t-19.5 5.5t-6.5 9.5l1 9h236l-1 -9q-1 -7 -12.5 -10t-28 -8t-34.5 -15.5t-33.5 -38t-22.5 -69.5l-38 -226q-12 -71 -31.5 -123t-54 -97.5t-91.5 -69t-136 -23.5q-154 0 -209 78.5t-31 221.5l50 299q5 28 -3 44
t-20 19t-22 7.5t-9 11.5v8h360l-1 -8q-1 -8 -18.5 -12t-36.5 -19t-25 -51l-59 -349q-17 -103 8 -157t103 -54q76 0 130.5 69t75.5 191zM342 728q0 3 -0.5 8t-0.5 7q26 14 49 30.5t41.5 36t29 32t25 32t16.5 22.5q32 40 63 40q27 0 40.5 -16t13.5 -39q0 -7 -1 -11
q-2 -11 -9 -24.5t-27 -33.5t-48.5 -36.5t-78.5 -30t-113 -17.5z" />
    <glyph glyph-name="Ucircumflex" unicode="&#xdb;" horiz-adv-x="727" 
d="M617 284l41 243q6 36 2 59.5t-14.5 36t-24 19t-25.5 8.5t-19.5 5.5t-6.5 9.5l1 9h236l-1 -9q-1 -7 -12.5 -10t-28 -8t-34.5 -15.5t-33.5 -38t-22.5 -69.5l-38 -226q-12 -71 -31.5 -123t-54 -97.5t-91.5 -69t-136 -23.5q-154 0 -209 78.5t-31 221.5l50 299q5 28 -3 44
t-20 19t-22 7.5t-9 11.5v8h360l-1 -8q-1 -8 -18.5 -12t-36.5 -19t-25 -51l-59 -349q-17 -103 8 -157t103 -54q76 0 130.5 69t75.5 191zM636 727l-150 85l-186 -83l-7 14l195 185q16 14 22 14q10 0 19 -14l118 -187z" />
    <glyph glyph-name="Udieresis" unicode="&#xdc;" horiz-adv-x="727" 
d="M617 284l41 243q6 36 2 59.5t-14.5 36t-24 19t-25.5 8.5t-19.5 5.5t-6.5 9.5l1 9h236l-1 -9q-1 -7 -12.5 -10t-28 -8t-34.5 -15.5t-33.5 -38t-22.5 -69.5l-38 -226q-12 -71 -31.5 -123t-54 -97.5t-91.5 -69t-136 -23.5q-154 0 -209 78.5t-31 221.5l50 299q5 28 -3 44
t-20 19t-22 7.5t-9 11.5v8h360l-1 -8q-1 -8 -18.5 -12t-36.5 -19t-25 -51l-59 -349q-17 -103 8 -157t103 -54q76 0 130.5 69t75.5 191zM379 928q33 0 53.5 -22.5t20.5 -56.5q0 -43 -31 -74.5t-71 -31.5q-31 0 -52 21.5t-21 53.5q0 43 30 76.5t71 33.5zM592 928
q33 0 53.5 -22.5t20.5 -56.5q0 -43 -31.5 -74.5t-71.5 -31.5q-31 0 -51.5 21.5t-20.5 53.5q0 43 30 76.5t71 33.5z" />
    <glyph glyph-name="Yacute" unicode="&#xdd;" horiz-adv-x="657" 
d="M106 8q2 7 13 11.5t24.5 8t26.5 19t17 42.5l28 166l-86 328q-7 26 -18.5 41.5t-21.5 19.5t-17 8.5t-6 12.5l1 9h375v-8q0 -10 -11.5 -15.5t-26 -8t-26 -13t-11.5 -28.5q0 -11 5 -29l69 -240h2l109 192q27 47 27 76q0 19 -12.5 30t-27.5 14t-27 8t-10 13l1 9h233l-1 -9
q-2 -8 -13.5 -13t-27.5 -9t-40.5 -23t-47.5 -50q-16 -21 -40 -62l-117 -199l-37 -217q-5 -28 4 -44.5t22 -20t24 -8t9 -11.5v-8h-365v8zM310 728q0 3 -0.5 8t-0.5 7q26 14 49 30.5t41.5 36t29 32t25 32t16.5 22.5q32 40 63 40q27 0 40.5 -16t13.5 -39q0 -7 -1 -11
q-2 -11 -9 -24.5t-27 -33.5t-48.5 -36.5t-78.5 -30t-113 -17.5z" />
    <glyph glyph-name="Thorn" unicode="&#xde;" horiz-adv-x="672" 
d="M292 141l-8 -52q-2 -14 -2 -18q0 -26 16 -37t31.5 -14.5t15.5 -10.5t-1 -9h-367q0 13 10.5 18t24.5 6.5t28 17.5t19 47q27 165 83 495q1 6 1 17q0 25 -14 36t-28.5 15t-14.5 11v11h358q0 -14 -10 -19.5t-22.5 -6.5t-25.5 -17t-19 -47l-6 -32q39 7 84 7q44 0 83 -8.5
t75.5 -28t58 -57t21.5 -89.5q0 -80 -46 -136t-114.5 -80.5t-150.5 -24.5q-42 0 -80 6zM358 531l-62 -369q49 0 85 40t52 97.5t16 123.5q0 44 -23.5 75.5t-67.5 32.5z" />
    <glyph glyph-name="germandbls" unicode="&#xdf;" horiz-adv-x="647" 
d="M394 -15q-84 0 -120.5 33t-36.5 75q0 39 21 56.5t46 17.5q33 0 50 -24.5t17 -58.5q0 -49 -25 -77q12 -4 25 -4q60 0 60 81q0 48 -27.5 100.5t-55 97.5t-27.5 77t16 53t38.5 34.5t45.5 30.5t39 53t16 90q0 39 -16 71t-52 32q-92 0 -119 -204l-14 -102q-37 -264 -90 -402
q-47 -122 -113 -180t-166 -58q-46 0 -72 23t-26 55q0 33 21.5 51.5t52.5 18.5q36 0 60 -32.5t20 -90.5q34 11 55 124t36.5 276.5t25.5 214.5q33 166 122.5 245.5t206.5 79.5q94 0 148.5 -32.5t54.5 -94.5q0 -42 -32.5 -74.5t-71.5 -48t-71.5 -31.5t-32.5 -29q0 -11 22 -27
t54 -36.5t64 -46t54 -65.5t22 -87q0 -83 -62.5 -134t-162.5 -51z" />
    <glyph glyph-name="agrave" unicode="&#xe0;" horiz-adv-x="641" 
d="M602 465q-40 -184 -77 -424q47 33 92 85l12 -12q-105 -128 -191 -128q-97 0 -97 91q0 37 25 133h-1q-1 1 -2 1q-31 -113 -80.5 -169.5t-122.5 -56.5q-54 0 -93 35.5t-39 112.5q0 132 67.5 227.5t179.5 95.5q91 0 129 -52q118 14 186 61h12zM344 416q-32 0 -60 -63
t-42 -134t-14 -114q0 -47 27 -47q25 0 58 67.5t62 193.5l16 69q-17 28 -47 28zM479 528l-5 -14q-65 14 -112.5 35t-70.5 39t-35.5 39.5t-14.5 31.5t-2 21q0 23 14 39t43 16q28 0 47.5 -21t31 -49.5t39 -68.5t65.5 -68z" />
    <glyph glyph-name="aacute" unicode="&#xe1;" horiz-adv-x="641" 
d="M602 465q-40 -184 -77 -424q47 33 92 85l12 -12q-105 -128 -191 -128q-97 0 -97 91q0 37 25 133h-1q-1 1 -2 1q-31 -113 -80.5 -169.5t-122.5 -56.5q-54 0 -93 35.5t-39 112.5q0 132 67.5 227.5t179.5 95.5q91 0 129 -52q118 14 186 61h12zM344 416q-32 0 -60 -63
t-42 -134t-14 -114q0 -47 27 -47q25 0 58 67.5t62 193.5l16 69q-17 28 -47 28zM266 509l-5 14q43 29 74 70.5t44 71.5t33 52t48 22q27 0 42 -15.5t15 -36.5q0 -9 -3.5 -21.5t-18.5 -34.5t-40 -42t-74.5 -42t-114.5 -38z" />
    <glyph glyph-name="acircumflex" unicode="&#xe2;" horiz-adv-x="641" 
d="M602 465q-40 -184 -77 -424q47 33 92 85l12 -12q-105 -128 -191 -128q-97 0 -97 91q0 37 25 133h-1q-1 1 -2 1q-31 -113 -80.5 -169.5t-122.5 -56.5q-54 0 -93 35.5t-39 112.5q0 132 67.5 227.5t179.5 95.5q91 0 129 -52q118 14 186 61h12zM344 416q-32 0 -60 -63
t-42 -134t-14 -114q0 -47 27 -47q25 0 58 67.5t62 193.5l16 69q-17 28 -47 28zM514 522l-148 88l-183 -88l-7 13l193 192q13 13 22 13q10 0 18 -13l116 -192z" />
    <glyph glyph-name="atilde" unicode="&#xe3;" horiz-adv-x="641" 
d="M602 465q-40 -184 -77 -424q47 33 92 85l12 -12q-105 -128 -191 -128q-97 0 -97 91q0 37 25 133h-1q-1 1 -2 1q-31 -113 -80.5 -169.5t-122.5 -56.5q-54 0 -93 35.5t-39 112.5q0 132 67.5 227.5t179.5 95.5q91 0 129 -52q118 14 186 61h12zM344 416q-32 0 -60 -63
t-42 -134t-14 -114q0 -47 27 -47q25 0 58 67.5t62 193.5l16 69q-17 28 -47 28zM563 688l11 -4q-21 -63 -57.5 -105.5t-82.5 -42.5q-23 0 -76 14.5t-77 14.5q-62 0 -89 -41l-12 4q17 56 52 101.5t84 45.5q18 0 78.5 -16t84.5 -16q29 0 47.5 8t36.5 37z" />
    <glyph glyph-name="adieresis" unicode="&#xe4;" horiz-adv-x="641" 
d="M602 465q-40 -184 -77 -424q47 33 92 85l12 -12q-105 -128 -191 -128q-97 0 -97 91q0 37 25 133h-1q-1 1 -2 1q-31 -113 -80.5 -169.5t-122.5 -56.5q-54 0 -93 35.5t-39 112.5q0 132 67.5 227.5t179.5 95.5q91 0 129 -52q118 14 186 61h12zM344 416q-32 0 -60 -63
t-42 -134t-14 -114q0 -47 27 -47q25 0 58 67.5t62 193.5l16 69q-17 28 -47 28zM271 721q33 0 53 -22t20 -56q0 -44 -31 -75.5t-71 -31.5q-31 0 -51.5 21.5t-20.5 53.5q0 43 30 76.5t71 33.5zM476 721q33 0 53 -22t20 -56q0 -43 -31 -75t-70 -32q-31 0 -51.5 21.5t-20.5 53.5
q0 43 29.5 76.5t70.5 33.5z" />
    <glyph glyph-name="aring" unicode="&#xe5;" horiz-adv-x="641" 
d="M602 465q-40 -184 -77 -424q47 33 92 85l12 -12q-105 -128 -191 -128q-97 0 -97 91q0 37 25 133h-1q-1 1 -2 1q-31 -113 -80.5 -169.5t-122.5 -56.5q-54 0 -93 35.5t-39 112.5q0 132 67.5 227.5t179.5 95.5q91 0 129 -52q118 14 186 61h12zM344 416q-32 0 -60 -63
t-42 -134t-14 -114q0 -47 27 -47q25 0 58 67.5t62 193.5l16 69q-17 28 -47 28zM372 524q-42 0 -67.5 25t-25.5 64q0 54 38 93t92 39q38 0 63 -25t25 -63q0 -55 -36.5 -94t-88.5 -39zM404 709q-35 0 -60.5 -27.5t-25.5 -62.5q0 -26 16.5 -43.5t43.5 -17.5q31 0 56 27t25 62
q0 26 -14.5 44t-40.5 18z" />
    <glyph glyph-name="ae" unicode="&#xe6;" horiz-adv-x="792" 
d="M735 105l12 -11q-96 -108 -241 -108q-130 0 -182 79q-90 -86 -211 -86q-108 0 -108 87q0 65 41 108.5t98.5 60.5t126.5 17q15 0 37 -2q1 4 5 25t7 42t3 40q0 75 -60 75q-12 0 -32 -5q15 -26 15 -64q0 -40 -23 -68.5t-65 -28.5q-26 0 -42 18t-16 43q0 55 54.5 92.5
t145.5 37.5q43 0 80.5 -15.5t56.5 -43.5q70 59 170 59q175 0 175 -113q0 -73 -71.5 -108.5t-169.5 -35.5q-11 0 -33 2q-1 -9 -1 -33q0 -125 90 -125q32 0 71.5 17.5t66.5 43.5zM602 437q-32 0 -57.5 -66t-34.5 -148q62 0 92.5 51.5t30.5 119.5q0 43 -31 43zM304 230
q-46 -3 -66.5 -38.5t-20.5 -77.5q0 -27 12.5 -42.5t31.5 -15.5q26 0 55 23q-19 43 -19 80q0 27 7 71z" />
    <glyph glyph-name="ccedilla" unicode="&#xe7;" horiz-adv-x="484" 
d="M328 457q77 0 114 -32.5t37 -75.5q0 -35 -21.5 -55.5t-53.5 -20.5q-35 0 -53.5 24.5t-18.5 60.5q0 44 29 75q-53 0 -90.5 -93.5t-37.5 -196.5q0 -55 25 -81t66 -26q53 0 107 35q2 -5 8 -13q-88 -73 -207 -73q-27 0 -55 5l-30 -48q88 -1 131.5 -26.5t43.5 -64.5
q0 -49 -59 -86t-157 -37q-32 0 -56 2l3 17q60 0 100.5 21.5t40.5 62.5q0 24 -24 39.5t-72 16.5l64 106q-66 16 -100 62t-34 110q0 120 82.5 206t217.5 86z" />
    <glyph glyph-name="egrave" unicode="&#xe8;" horiz-adv-x="529" 
d="M469 105l9 -11q-94 -108 -238 -108q-108 0 -160 50t-52 132q0 118 87.5 203.5t230.5 85.5q172 0 172 -113q0 -47 -29.5 -81.5t-75.5 -52t-90.5 -25t-87.5 -7.5q-2 -22 -2 -32q0 -104 90 -104q36 0 76 17.5t70 45.5zM339 437q-32 0 -62.5 -74t-38.5 -159q62 5 97 65
t35 122q0 46 -31 46zM445 528l-5 -14q-65 14 -112.5 35t-70.5 39t-35.5 39.5t-14.5 31.5t-2 21q0 23 14 39t43 16q28 0 47.5 -21t31 -49.5t39 -68.5t65.5 -68z" />
    <glyph glyph-name="eacute" unicode="&#xe9;" horiz-adv-x="529" 
d="M469 105l9 -11q-94 -108 -238 -108q-108 0 -160 50t-52 132q0 118 87.5 203.5t230.5 85.5q172 0 172 -113q0 -47 -29.5 -81.5t-75.5 -52t-90.5 -25t-87.5 -7.5q-2 -22 -2 -32q0 -104 90 -104q36 0 76 17.5t70 45.5zM339 437q-32 0 -62.5 -74t-38.5 -159q62 5 97 65
t35 122q0 46 -31 46zM225 509l-5 14q43 29 74 70.5t44 71.5t33 52t48 22q27 0 42 -15.5t15 -36.5q0 -9 -3.5 -21.5t-18.5 -34.5t-40 -42t-74.5 -42t-114.5 -38z" />
    <glyph glyph-name="ecircumflex" unicode="&#xea;" horiz-adv-x="529" 
d="M469 105l9 -11q-94 -108 -238 -108q-108 0 -160 50t-52 132q0 118 87.5 203.5t230.5 85.5q172 0 172 -113q0 -47 -29.5 -81.5t-75.5 -52t-90.5 -25t-87.5 -7.5q-2 -22 -2 -32q0 -104 90 -104q36 0 76 17.5t70 45.5zM339 437q-32 0 -62.5 -74t-38.5 -159q62 5 97 65
t35 122q0 46 -31 46zM494 522l-148 88l-183 -88l-7 13l193 192q13 13 22 13q10 0 18 -13l116 -192z" />
    <glyph glyph-name="edieresis" unicode="&#xeb;" horiz-adv-x="529" 
d="M469 105l9 -11q-94 -108 -238 -108q-108 0 -160 50t-52 132q0 118 87.5 203.5t230.5 85.5q172 0 172 -113q0 -47 -29.5 -81.5t-75.5 -52t-90.5 -25t-87.5 -7.5q-2 -22 -2 -32q0 -104 90 -104q36 0 76 17.5t70 45.5zM339 437q-32 0 -62.5 -74t-38.5 -159q62 5 97 65
t35 122q0 46 -31 46zM246 721q33 0 53 -22t20 -56q0 -44 -31 -75.5t-71 -31.5q-31 0 -51.5 21.5t-20.5 53.5q0 43 30 76.5t71 33.5zM451 721q33 0 53 -22t20 -56q0 -43 -31 -75t-70 -32q-31 0 -51.5 21.5t-20.5 53.5q0 43 29.5 76.5t70.5 33.5z" />
    <glyph glyph-name="igrave" unicode="&#xec;" horiz-adv-x="368" 
d="M331 528l-5 -14q-65 14 -112.5 35t-70.5 39t-35.5 39.5t-14.5 31.5t-2 21q0 23 14 39t43 16q28 0 47.5 -21t31 -49.5t39 -68.5t65.5 -68zM66 126l53 277q-32 -22 -94 -88l-12 13q61 73 103.5 102t83.5 29q49 0 77.5 -26.5t29.5 -72.5q0 -21 -4 -41q-11 -67 -28.5 -153.5
t-24.5 -124.5q49 33 92 83l11 -12q-103 -127 -191 -127q-101 0 -101 94q0 20 5 47z" />
    <glyph glyph-name="iacute" unicode="&#xed;" horiz-adv-x="368" 
d="M118 509l-5 14q43 29 74 70.5t44 71.5t33 52t48 22q27 0 42 -15.5t15 -36.5q0 -9 -3.5 -21.5t-18.5 -34.5t-40 -42t-74.5 -42t-114.5 -38zM66 126l53 277q-32 -22 -94 -88l-12 13q61 73 103.5 102t83.5 29q49 0 77.5 -26.5t29.5 -72.5q0 -21 -4 -41q-11 -67 -28.5 -153.5
t-24.5 -124.5q49 33 92 83l11 -12q-103 -127 -191 -127q-101 0 -101 94q0 20 5 47z" />
    <glyph glyph-name="icircumflex" unicode="&#xee;" horiz-adv-x="368" 
d="M66 126l53 277q-32 -22 -94 -88l-12 13q61 73 103.5 102t83.5 29q49 0 77.5 -26.5t29.5 -72.5q0 -21 -4 -41q-11 -67 -28.5 -153.5t-24.5 -124.5q49 33 92 83l11 -12q-103 -127 -191 -127q-101 0 -101 94q0 20 5 47zM377 522l-148 88l-183 -88l-7 13l193 192q13 13 22 13
q10 0 18 -13l116 -192z" />
    <glyph glyph-name="idieresis" unicode="&#xef;" horiz-adv-x="368" 
d="M127 721q33 0 53 -22t20 -56q0 -44 -31 -75.5t-71 -31.5q-31 0 -51.5 21.5t-20.5 53.5q0 43 30 76.5t71 33.5zM332 721q33 0 53 -22t20 -56q0 -43 -31 -75t-70 -32q-31 0 -51.5 21.5t-20.5 53.5q0 43 29.5 76.5t70.5 33.5zM66 126l53 277q-32 -22 -94 -88l-12 13
q61 73 103.5 102t83.5 29q49 0 77.5 -26.5t29.5 -72.5q0 -21 -4 -41q-11 -67 -28.5 -153.5t-24.5 -124.5q49 33 92 83l11 -12q-103 -127 -191 -127q-101 0 -101 94q0 20 5 47z" />
    <glyph glyph-name="eth" unicode="&#xf0;" horiz-adv-x="617" 
d="M287 548l105 71q-36 82 -120 119l7 15q109 -28 184 -87l92 62l9 -14l-87 -59q122 -107 122 -274q0 -45 -8.5 -93t-32 -103.5t-59.5 -98.5t-98.5 -72t-141.5 -29q-123 0 -177.5 52t-54.5 137q0 113 80.5 199t213.5 86q60 0 97 -28l6 3q2 106 -24 170l-105 -70zM342 438
q-46 0 -80 -131t-34 -234q0 -71 33 -71q35 0 63.5 72t41 153.5t12.5 139.5q0 71 -36 71z" />
    <glyph glyph-name="ntilde" unicode="&#xf1;" horiz-adv-x="654" 
d="M199 457q47 0 73.5 -23t26.5 -62q0 -42 -35 -166h2l2 -1q42 131 103 191.5t115 60.5q107 0 107 -106q0 -27 -6 -57l-49 -253q49 33 92 83l11 -12q-105 -127 -192 -127q-100 0 -100 93q0 29 5 53l36 160q8 34 8 50q0 24 -17 24q-26 0 -66 -87t-61 -206l-13 -72h-198
l75 402q-29 -20 -95 -88l-12 13q60 73 103 101.5t85 28.5zM565 688l11 -4q-21 -63 -57.5 -105.5t-82.5 -42.5q-23 0 -76 14.5t-77 14.5q-62 0 -89 -41l-12 4q17 56 52 101.5t84 45.5q18 0 78.5 -16t84.5 -16q29 0 47.5 8t36.5 37z" />
    <glyph glyph-name="ograve" unicode="&#xf2;" horiz-adv-x="602" 
d="M344 457q124 0 177 -53t53 -138q0 -114 -86 -197.5t-241 -83.5q-116 0 -167.5 51.5t-51.5 134.5q0 123 86.5 204.5t229.5 81.5zM342 438q-31 0 -58.5 -67t-41.5 -149.5t-14 -145.5q0 -74 33 -74q37 0 66 74.5t40.5 154t11.5 131.5q0 76 -37 76zM462 528l-5 -14
q-65 14 -112.5 35t-70.5 39t-35.5 39.5t-14.5 31.5t-2 21q0 23 14 39t43 16q28 0 47.5 -21t31 -49.5t39 -68.5t65.5 -68z" />
    <glyph glyph-name="oacute" unicode="&#xf3;" horiz-adv-x="602" 
d="M344 457q124 0 177 -53t53 -138q0 -114 -86 -197.5t-241 -83.5q-116 0 -167.5 51.5t-51.5 134.5q0 123 86.5 204.5t229.5 81.5zM342 438q-31 0 -58.5 -67t-41.5 -149.5t-14 -145.5q0 -74 33 -74q37 0 66 74.5t40.5 154t11.5 131.5q0 76 -37 76zM263 509l-5 14
q43 29 74 70.5t44 71.5t33 52t48 22q27 0 42 -15.5t15 -36.5q0 -9 -3.5 -21.5t-18.5 -34.5t-40 -42t-74.5 -42t-114.5 -38z" />
    <glyph glyph-name="ocircumflex" unicode="&#xf4;" horiz-adv-x="602" 
d="M344 457q124 0 177 -53t53 -138q0 -114 -86 -197.5t-241 -83.5q-116 0 -167.5 51.5t-51.5 134.5q0 123 86.5 204.5t229.5 81.5zM342 438q-31 0 -58.5 -67t-41.5 -149.5t-14 -145.5q0 -74 33 -74q37 0 66 74.5t40.5 154t11.5 131.5q0 76 -37 76zM517 522l-148 88l-183 -88
l-7 13l193 192q13 13 22 13q10 0 18 -13l116 -192z" />
    <glyph glyph-name="otilde" unicode="&#xf5;" horiz-adv-x="602" 
d="M344 457q124 0 177 -53t53 -138q0 -114 -86 -197.5t-241 -83.5q-116 0 -167.5 51.5t-51.5 134.5q0 123 86.5 204.5t229.5 81.5zM342 438q-31 0 -58.5 -67t-41.5 -149.5t-14 -145.5q0 -74 33 -74q37 0 66 74.5t40.5 154t11.5 131.5q0 76 -37 76zM553 688l11 -4
q-21 -63 -57.5 -105.5t-82.5 -42.5q-23 0 -76 14.5t-77 14.5q-62 0 -89 -41l-12 4q17 56 52 101.5t84 45.5q18 0 78.5 -16t84.5 -16q29 0 47.5 8t36.5 37z" />
    <glyph glyph-name="odieresis" unicode="&#xf6;" horiz-adv-x="602" 
d="M344 457q124 0 177 -53t53 -138q0 -114 -86 -197.5t-241 -83.5q-116 0 -167.5 51.5t-51.5 134.5q0 123 86.5 204.5t229.5 81.5zM342 438q-31 0 -58.5 -67t-41.5 -149.5t-14 -145.5q0 -74 33 -74q37 0 66 74.5t40.5 154t11.5 131.5q0 76 -37 76zM277 721q33 0 53 -22
t20 -56q0 -44 -31 -75.5t-71 -31.5q-31 0 -51.5 21.5t-20.5 53.5q0 43 30 76.5t71 33.5zM482 721q33 0 53 -22t20 -56q0 -43 -31 -75t-70 -32q-31 0 -51.5 21.5t-20.5 53.5q0 43 29.5 76.5t70.5 33.5z" />
    <glyph glyph-name="divide" unicode="&#xf7;" horiz-adv-x="603" 
d="M351 518q24 0 38.5 -16.5t14.5 -40.5q0 -33 -23.5 -58t-53.5 -25q-22 0 -36.5 16t-14.5 40q0 33 23.5 58.5t51.5 25.5zM304 228q23 0 37 -16.5t14 -40.5q0 -34 -22.5 -58.5t-52.5 -24.5q-22 0 -36 15.5t-14 39.5q0 33 23 59t51 26zM124 333h390l-10 -57h-390z" />
    <glyph glyph-name="oslash" unicode="&#xf8;" horiz-adv-x="602" 
d="M344 457q68 0 121 -20l34 41l12 -11l-31 -37q94 -46 94 -164q0 -114 -86 -197.5t-241 -83.5q-65 0 -117 20l-39 -48l-12 11l36 44q-87 45 -87 159q0 123 86.5 204.5t229.5 81.5zM261 2q24 0 44.5 30.5t34 78.5t22 96.5t13.5 95.5l-145 -177q-2 -15 -2 -50q0 -74 33 -74z
M342 438q-37 0 -67.5 -88.5t-41.5 -194.5l145 176v31q0 76 -36 76z" />
    <glyph glyph-name="ugrave" unicode="&#xf9;" horiz-adv-x="645" 
d="M601 456q1 0 2.5 -1t2.5 -2t2 -1q-49 -247 -79 -413q33 24 93 87l12 -14q-60 -71 -103 -99t-84 -28q-49 0 -74 22t-25 62q0 48 32 166l-2 1h-2q-40 -134 -97 -192.5t-111 -58.5q-107 0 -107 106q0 27 6 56l50 252q-52 -37 -94 -85l-12 13q107 130 191 130q104 0 104 -98
q0 -17 -7 -49l-35 -161q-8 -37 -8 -45q0 -22 16 -22q23 0 57 75.5t58 189.5l12 58q121 8 202 51zM487 528l-5 -14q-65 14 -112.5 35t-70.5 39t-35.5 39.5t-14.5 31.5t-2 21q0 23 14 39t43 16q28 0 47.5 -21t31 -49.5t39 -68.5t65.5 -68z" />
    <glyph glyph-name="uacute" unicode="&#xfa;" horiz-adv-x="645" 
d="M601 456q1 0 2.5 -1t2.5 -2t2 -1q-49 -247 -79 -413q33 24 93 87l12 -14q-60 -71 -103 -99t-84 -28q-49 0 -74 22t-25 62q0 48 32 166l-2 1h-2q-40 -134 -97 -192.5t-111 -58.5q-107 0 -107 106q0 27 6 56l50 252q-52 -37 -94 -85l-12 13q107 130 191 130q104 0 104 -98
q0 -17 -7 -49l-35 -161q-8 -37 -8 -45q0 -22 16 -22q23 0 57 75.5t58 189.5l12 58q121 8 202 51zM280 509l-5 14q43 29 74 70.5t44 71.5t33 52t48 22q27 0 42 -15.5t15 -36.5q0 -9 -3.5 -21.5t-18.5 -34.5t-40 -42t-74.5 -42t-114.5 -38z" />
    <glyph glyph-name="ucircumflex" unicode="&#xfb;" horiz-adv-x="645" 
d="M601 456q1 0 2.5 -1t2.5 -2t2 -1q-49 -247 -79 -413q33 24 93 87l12 -14q-60 -71 -103 -99t-84 -28q-49 0 -74 22t-25 62q0 48 32 166l-2 1h-2q-40 -134 -97 -192.5t-111 -58.5q-107 0 -107 106q0 27 6 56l50 252q-52 -37 -94 -85l-12 13q107 130 191 130q104 0 104 -98
q0 -17 -7 -49l-35 -161q-8 -37 -8 -45q0 -22 16 -22q23 0 57 75.5t58 189.5l12 58q121 8 202 51zM525 522l-148 88l-183 -88l-7 13l193 192q13 13 22 13q10 0 18 -13l116 -192z" />
    <glyph glyph-name="udieresis" unicode="&#xfc;" horiz-adv-x="645" 
d="M601 456q1 0 2.5 -1t2.5 -2t2 -1q-49 -247 -79 -413q33 24 93 87l12 -14q-60 -71 -103 -99t-84 -28q-49 0 -74 22t-25 62q0 48 32 166l-2 1h-2q-40 -134 -97 -192.5t-111 -58.5q-107 0 -107 106q0 27 6 56l50 252q-52 -37 -94 -85l-12 13q107 130 191 130q104 0 104 -98
q0 -17 -7 -49l-35 -161q-8 -37 -8 -45q0 -22 16 -22q23 0 57 75.5t58 189.5l12 58q121 8 202 51zM288 721q33 0 53 -22t20 -56q0 -44 -31 -75.5t-71 -31.5q-31 0 -51.5 21.5t-20.5 53.5q0 43 30 76.5t71 33.5zM493 721q33 0 53 -22t20 -56q0 -43 -31 -75t-70 -32
q-31 0 -51.5 21.5t-20.5 53.5q0 43 29.5 76.5t70.5 33.5z" />
    <glyph glyph-name="yacute" unicode="&#xfd;" horiz-adv-x="502" 
d="M492 384q0 -57 -37.5 -119.5t-90.5 -117t-106 -105.5t-90.5 -100.5t-37.5 -86.5q0 -52 38 -62q0 47 24 79t59 32q28 0 44.5 -16t16.5 -40q0 -39 -30.5 -61.5t-72.5 -22.5q-46 0 -74.5 23t-28.5 67q0 55 66 132q-4 16 -20 85.5t-25.5 108.5t-25.5 95t-29 93
q-26 -25 -66 -70l-11 11q21 30 38 51t42 45t53.5 36.5t59.5 12.5q20 0 34 -5t31 -23.5t29.5 -51.5t24.5 -91.5t20 -140.5q96 101 114 145q-83 27 -83 108q0 21 15 44.5t49 23.5q30 0 50 -22.5t20 -56.5zM224 509l-5 14q43 29 74 70.5t44 71.5t33 52t48 22q27 0 42 -15.5
t15 -36.5q0 -9 -3.5 -21.5t-18.5 -34.5t-40 -42t-74.5 -42t-114.5 -38z" />
    <glyph glyph-name="thorn" unicode="&#xfe;" horiz-adv-x="639" 
d="M273 232q1 0 2 -0.5t2 -0.5q62 226 202 226q54 0 93 -36t39 -112q0 -132 -67.5 -227t-180.5 -95q-80 0 -118 35h-4l-23 -138q-3 -14 -3 -24q0 -25 15.5 -36t31 -15t15.5 -12q0 -5 -1 -7h-336v6q2 9 18 14t34 21t25 53l135 726q2 16 2 21q0 24 -14.5 33.5t-29 12
t-14.5 9.5q0 1 1 4t1 5q182 26 273 40q0 -1 1.5 -3t2.5 -4l-47 -249q-17 -104 -55 -247zM293 23q33 0 61.5 63.5t42.5 134.5t14 115q0 47 -27 47q-25 0 -58.5 -68t-61.5 -196l-15 -75q17 -21 44 -21z" />
    <glyph glyph-name="ydieresis" unicode="&#xff;" horiz-adv-x="502" 
d="M492 384q0 -57 -37.5 -119.5t-90.5 -117t-106 -105.5t-90.5 -100.5t-37.5 -86.5q0 -52 38 -62q0 47 24 79t59 32q28 0 44.5 -16t16.5 -40q0 -39 -30.5 -61.5t-72.5 -22.5q-46 0 -74.5 23t-28.5 67q0 55 66 132q-4 16 -20 85.5t-25.5 108.5t-25.5 95t-29 93
q-26 -25 -66 -70l-11 11q21 30 38 51t42 45t53.5 36.5t59.5 12.5q20 0 34 -5t31 -23.5t29.5 -51.5t24.5 -91.5t20 -140.5q96 101 114 145q-83 27 -83 108q0 21 15 44.5t49 23.5q30 0 50 -22.5t20 -56.5zM223 721q33 0 53 -22t20 -56q0 -44 -31 -75.5t-71 -31.5
q-31 0 -51.5 21.5t-20.5 53.5q0 43 30 76.5t71 33.5zM428 721q33 0 53 -22t20 -56q0 -43 -31 -75t-70 -32q-31 0 -51.5 21.5t-20.5 53.5q0 43 29.5 76.5t70.5 33.5z" />
    <glyph glyph-name="dotlessi" unicode="&#x131;" horiz-adv-x="368" 
d="M66 126l53 277q-32 -22 -94 -88l-12 13q61 73 103.5 102t83.5 29q49 0 77.5 -26.5t29.5 -72.5q0 -21 -4 -41q-11 -67 -28.5 -153.5t-24.5 -124.5q49 33 92 83l11 -12q-103 -127 -191 -127q-101 0 -101 94q0 20 5 47z" />
    <glyph glyph-name="OE" unicode="&#x152;" horiz-adv-x="991" 
d="M676 0h-228q-58 -15 -115 -15q-145 0 -215.5 77t-70.5 199q0 114 47 210.5t141 158t217 61.5q64 0 120 -17h190q131 0 218 35l6 -4l-20 -269q-3 -2 -7 -2q-5 0 -7.5 5t-6.5 23q-23 111 -57.5 151t-119.5 40h-32l-48 -290h33q34 0 59 20.5t34.5 45.5t19 45.5t17.5 20.5h5
l-48 -293h-7q-10 0 -10 26q0 22 -2 38t-9 36t-24 30.5t-42 10.5h-30q-26 -157 -43 -257q-2 -16 -2 -23q0 -43 54 -43h13q66 0 123.5 56t137.5 196q7 15 19 17q1 0 9 -2q-20 -58 -54.5 -164.5t-47.5 -144.5q-1 -1 -3 -2l-3 -2q-67 26 -211 26zM417 92l73 428q11 68 11 91
q0 28 -13.5 44.5t-37.5 16.5q-82 0 -138 -336q-25 -145 -25 -224q0 -110 54 -110q29 0 49.5 25.5t26.5 64.5z" />
    <glyph glyph-name="oe" unicode="&#x153;" horiz-adv-x="866" 
d="M803 106q2 -4 8 -12q-96 -108 -238 -108q-92 0 -141 56q-72 -57 -185 -57q-116 0 -167.5 51.5t-51.5 134.5q0 123 86.5 204.5t229.5 81.5q98 0 158 -66q78 66 171 66q173 0 173 -113q0 -75 -81 -117t-196 -49q0 -79 23.5 -108t69.5 -29q67 0 141 65zM342 438
q-31 0 -59 -67t-42 -150t-14 -146q0 -74 34 -74q37 0 65.5 74.5t40.5 154.5t12 132q0 76 -37 76zM667 437q-33 0 -60 -71t-35 -162q60 12 92.5 68t32.5 123q0 42 -30 42z" />
    <glyph glyph-name="circumflex" unicode="&#x2c6;" horiz-adv-x="560" 
d="M504 522l-148 88l-183 -88l-7 13l193 192q13 13 22 13q10 0 18 -13l116 -192z" />
    <glyph glyph-name="ring" unicode="&#x2da;" horiz-adv-x="568" 
d="M349 524q-42 0 -67.5 25t-25.5 64q0 54 38 93t92 39q38 0 63 -25t25 -63q0 -55 -36.5 -94t-88.5 -39zM381 709q-35 0 -60.5 -27.5t-25.5 -62.5q0 -26 16.5 -43.5t43.5 -17.5q31 0 56 27t25 62q0 26 -14.5 44t-40.5 18z" />
    <glyph glyph-name="tilde" unicode="&#x2dc;" horiz-adv-x="608" 
d="M552 688l11 -4q-21 -63 -57.5 -105.5t-82.5 -42.5q-23 0 -76 14.5t-77 14.5q-62 0 -89 -41l-12 4q17 56 52 101.5t84 45.5q18 0 78.5 -16t84.5 -16q29 0 47.5 8t36.5 37z" />
    <glyph glyph-name="tonos" unicode="&#x384;" horiz-adv-x="568" 
d="M265 503l-3 14q31 22 57 50t38.5 46.5t28.5 46.5t18 31q17 27 32.5 40t37.5 13q27 0 40 -14.5t13 -36.5q0 -10 -4.5 -24t-21.5 -37.5t-44 -45.5t-77 -45t-115 -38z" />
    <glyph glyph-name="dieresistonos" unicode="&#x385;" horiz-adv-x="568" 
d="M267 487l-9 12q28 42 43 77.5t24 74t12 47.5q27 86 90 86q21 0 32.5 -13t11.5 -34q0 -42 -47 -109.5t-157 -140.5zM231 708q31 0 50 -20.5t19 -51.5q0 -41 -30 -71t-68 -30q-28 0 -47.5 20.5t-19.5 49.5q0 40 28.5 71.5t67.5 31.5zM541 708q31 0 49.5 -20.5t18.5 -51.5
q0 -41 -29.5 -71t-67.5 -30q-29 0 -48 20t-19 50q0 40 28.5 71.5t67.5 31.5z" />
    <glyph glyph-name="Alphatonos" unicode="&#x386;" horiz-adv-x="681" 
d="M496 674l92 -582q4 -28 14.5 -45t20.5 -20.5t18 -7t8 -9.5q0 -2 -0.5 -5.5t-0.5 -4.5h-347q1 2 1 7q1 9 16.5 14t29.5 17.5t14 39.5q0 17 -3 40t-8.5 51t-7.5 42h-182l-39 -81q-19 -41 -19 -63q0 -24 18 -34t36 -13.5t18 -10.5t-1 -9h-214q0 13 12.5 18t31 8t44.5 26
t48 67q175 353 211 424q20 40 20 67q0 21 -14.5 30t-29 12t-14.5 11q0 2 0.5 5.5t0.5 5.5h226zM302 491h-4q-14 -29 -58.5 -120.5t-68.5 -141.5h169l-15 96q-9 56 -23 166zM-41 462l-3 14q31 22 57 50t38.5 46.5t28.5 46.5t18 31q17 27 32.5 40t37.5 13q27 0 40 -14.5
t13 -36.5q0 -10 -4.5 -24t-21.5 -37.5t-44 -45.5t-77 -45t-115 -38z" />
    <glyph glyph-name="anoteleia" unicode="&#x387;" horiz-adv-x="253" 
d="M165 446q34 0 55.5 -23.5t21.5 -58.5q0 -48 -34 -84t-80 -36q-34 0 -55.5 23t-21.5 58q0 48 35.5 84.5t78.5 36.5z" />
    <glyph glyph-name="Epsilontonos" unicode="&#x388;" horiz-adv-x="639" 
d="M91 674h297q153 0 240 35l5 -2l-19 -271q-2 -2 -7 -2q-3 0 -4 0.5t-3.5 7t-5.5 20.5q-23 115 -59.5 153t-130.5 38h-19l-49 -290h32q34 0 59 20.5t35.5 45.5t20 45.5t16.5 20.5h5l-48 -293h-6q-8 0 -10 22t-3 48.5t-18 48.5t-52 22h-34l-44 -257q-2 -16 -2 -22
q0 -44 54 -44h14q65 0 122 54t131 184q20 29 27 31q2 0 8 -2q-77 -235 -104 -312l-4 -1q-62 26 -191 26h-361v8q1 9 19 12.5t38 18t26 50.5l83 495q2 14 2 18q0 25 -15 36t-30.5 14.5t-15.5 10.5q0 2 0.5 5.5t0.5 5.5zM-193 461l-3 14q31 22 57 50t38.5 46.5t28.5 46.5
t18 31q17 27 32.5 40t37.5 13q27 0 40 -14.5t13 -36.5q0 -10 -4.5 -24t-21.5 -37.5t-44 -45.5t-77 -45t-115 -38z" />
    <glyph glyph-name="Etatonos" unicode="&#x389;" horiz-adv-x="777" 
d="M726 0h-359q1 2 1 8q1 8 16 11t32 18t23 52l43 257h-150l-43 -257q-2 -8 -2 -22q0 -24 11.5 -34t23.5 -13.5t12 -9.5q0 -8 -1 -10h-350q0 12 10.5 17.5t23.5 7t27 17.5t19 47l84 495q1 7 1 18q0 19 -8.5 30.5t-19 14t-19 6.5t-8.5 10v11h347v-9q-2 -8 -16.5 -12
t-30 -18.5t-21.5 -50.5l-37 -219h150q13 73 37 219q2 16 2 21q0 23 -11 33.5t-22.5 14t-11.5 10.5v11h347q0 -13 -10 -18.5t-23 -7t-26.5 -17.5t-18.5 -47q-56 -330 -83 -495q-2 -14 -2 -18q0 -26 16 -37t32 -14.5t16 -10.5q0 -2 -0.5 -5t-0.5 -4zM-187 461l-3 14
q31 22 57 50t38.5 46.5t28.5 46.5t18 31q17 27 32.5 40t37.5 13q27 0 40 -14.5t13 -36.5q0 -10 -4.5 -24t-21.5 -37.5t-44 -45.5t-77 -45t-115 -38z" />
    <glyph glyph-name="Iotatonos" unicode="&#x38a;" horiz-adv-x="419" 
d="M358 0h-366q0 12 10.5 17t24 7t27.5 18t19 47l82 495q2 14 2 19q0 24 -14 34.5t-28 14.5t-14 11v11h359q-1 -3 -1 -9q-1 -8 -18 -12t-35.5 -18.5t-24.5 -50.5l-83 -495q-2 -14 -2 -19q0 -20 10 -31.5t21.5 -14t21.5 -6t10 -9.5q0 -7 -1 -9zM-182 461l-3 14q31 22 57 50
t38.5 46.5t28.5 46.5t18 31q17 27 32.5 40t37.5 13q27 0 40 -14.5t13 -36.5q0 -10 -4.5 -24t-21.5 -37.5t-44 -45.5t-77 -45t-115 -38z" />
    <glyph glyph-name="Omicrontonos" unicode="&#x38c;" horiz-adv-x="747" 
d="M449 691q77 0 135 -22t90.5 -61.5t48 -87t15.5 -103.5q0 -59 -15.5 -118.5t-49 -116t-80.5 -100.5t-115 -70.5t-148 -26.5q-143 0 -213 77t-70 199q0 113 47.5 210.5t140.5 158.5t214 61zM447 672q-44 0 -83.5 -113t-59.5 -241t-20 -206q0 -109 54 -109q43 0 82.5 110
t60 239.5t20.5 215.5q0 104 -54 104zM-154 461l-3 14q31 22 57 50t38.5 46.5t28.5 46.5t18 31q17 27 32.5 40t37.5 13q27 0 40 -14.5t13 -36.5q0 -10 -4.5 -24t-21.5 -37.5t-44 -45.5t-77 -45t-115 -38z" />
    <glyph glyph-name="Upsilontonos" unicode="&#x38e;" horiz-adv-x="657" 
d="M106 8q2 7 13 11.5t24.5 8t26.5 19t17 42.5l28 166l-86 328q-7 26 -18.5 41.5t-21.5 19.5t-17 8.5t-6 12.5l1 9h375v-8q0 -10 -11.5 -15.5t-26 -8t-26 -13t-11.5 -28.5q0 -11 5 -29l69 -240h2l109 192q27 47 27 76q0 19 -12.5 30t-27.5 14t-27 8t-10 13l1 9h233l-1 -9
q-2 -8 -13.5 -13t-27.5 -9t-40.5 -23t-47.5 -50q-16 -21 -40 -62l-117 -199l-37 -217q-5 -28 4 -44.5t22 -20t24 -8t9 -11.5v-8h-365v8zM-213 461l-3 14q31 22 57 50t38.5 46.5t28.5 46.5t18 31q17 27 32.5 40t37.5 13q27 0 40 -14.5t13 -36.5q0 -10 -4.5 -24t-21.5 -37.5
t-44 -45.5t-77 -45t-115 -38z" />
    <glyph glyph-name="Omegatonos" unicode="&#x38f;" horiz-adv-x="785" 
d="M309 1l-1 -1h-46q-138 0 -241 -20l-2 1q0 37 3 289q1 0 3.5 0.5t3.5 0.5q8 0 14 -33q22 -116 68 -166.5t133 -50.5h43q-4 25 -28 47t-55.5 42.5t-62.5 46.5t-52 71t-21 104q0 150 110 255.5t288 105.5q78 0 136 -22.5t90 -59.5t47 -79t15 -88q0 -82 -31 -148t-78 -106.5
t-94.5 -70t-90 -54.5t-54.5 -44h34q59 0 101 12t77 44t58 64.5t62 96.5q12 20 18 26.5t12 6.5q1 0 3.5 -0.5t3.5 -0.5l-91 -289l-2 -1q-112 19 -276 20h-29l-1 1q2 15 18.5 40.5t37 61.5t40.5 89t34 145t14 207q0 67 -13.5 98t-44.5 31q-47 0 -89.5 -91t-65 -206t-22.5 -205
q0 -58 12 -102.5t12 -67.5zM-153 461l-3 14q31 22 57 50t38.5 46.5t28.5 46.5t18 31q17 27 32.5 40t37.5 13q27 0 40 -14.5t13 -36.5q0 -10 -4.5 -24t-21.5 -37.5t-44 -45.5t-77 -45t-115 -38z" />
    <glyph glyph-name="iotadieresistonos" unicode="&#x390;" horiz-adv-x="368" 
d="M66 126l53 277q-32 -22 -94 -88l-12 13q61 73 103.5 102t83.5 29q49 0 77.5 -26.5t29.5 -72.5q0 -21 -4 -41q-8 -46 -26.5 -138.5t-26.5 -139.5q49 33 92 83l11 -12q-103 -127 -191 -127q-101 0 -101 94q0 20 5 47zM129 487l-9 12q28 42 43 77.5t24 74t12 47.5
q27 86 90 86q21 0 32.5 -13t11.5 -34q0 -42 -47 -109.5t-157 -140.5zM93 708q31 0 50 -20.5t19 -51.5q0 -41 -30 -71t-68 -30q-28 0 -47.5 20.5t-19.5 49.5q0 40 28.5 71.5t67.5 31.5zM403 708q31 0 49.5 -20.5t18.5 -51.5q0 -41 -29.5 -71t-67.5 -30q-29 0 -48 20t-19 50
q0 40 28.5 71.5t67.5 31.5z" />
    <glyph glyph-name="Alpha" unicode="&#x391;" horiz-adv-x="681" 
d="M496 674l92 -582q4 -28 14.5 -45t20.5 -20.5t18 -7t8 -9.5q0 -2 -0.5 -5.5t-0.5 -4.5h-347q1 2 1 7q1 9 16.5 14t29.5 17.5t14 39.5q0 17 -3 40t-8.5 51t-7.5 42h-182l-39 -81q-19 -41 -19 -63q0 -24 18 -34t36 -13.5t18 -10.5t-1 -9h-214q0 13 12.5 18t31 8t44.5 26
t48 67q175 353 211 424q20 40 20 67q0 21 -14.5 30t-29 12t-14.5 11q0 2 0.5 5.5t0.5 5.5h226zM302 491h-4q-14 -29 -58.5 -120.5t-68.5 -141.5h169l-15 96q-9 56 -23 166z" />
    <glyph glyph-name="Beta" unicode="&#x392;" horiz-adv-x="703" 
d="M399 0h-416l1 8q1 7 12 11t24.5 7.5t26.5 19.5t18 44l84 494q5 27 -3.5 42.5t-21 19t-22.5 8t-8 12.5v8h399q102 0 149 -38t47 -95q0 -60 -57 -113.5t-170 -57.5l-1 -4q61 -3 105 -17.5t67 -38t33 -48t10 -52.5q0 -35 -14.5 -69.5t-44.5 -67t-86.5 -53t-131.5 -20.5z
M384 653l-95 -567q-1 -8 -1 -22q0 -44 43 -44q46 0 80 63.5t34 155.5q0 56 -20 84.5t-66 32.5l4 21q53 4 81 56t28 129q0 91 -80 91h-8z" />
    <glyph glyph-name="Gamma" unicode="&#x393;" horiz-adv-x="580" 
d="M291 89q-2 -14 -2 -18q0 -26 16.5 -37t32.5 -14.5t16 -10.5t-1 -9h-370q0 12 11 17t24.5 7t28 18t19.5 47l83 495q1 6 1 18q0 25 -14 36t-28.5 14.5t-14.5 10.5q0 2 0.5 5.5t0.5 5.5h302q154 0 233 35l4 -2l-20 -271q-1 -1 -6 -1q-8 0 -14 27q-28 117 -65.5 154
t-122.5 37h-21q-23 -144 -93 -564z" />
    <glyph glyph-name="Delta" unicode="&#x394;" horiz-adv-x="658" 
d="M601 0h-618q0 6 2 18l359 656l137 14l122 -670q-2 -12 -2 -18zM276 519q-40 -75 -121 -223.5t-121 -222.5h327l-48 253q-19 97 -33 193h-4z" />
    <glyph glyph-name="Epsilon" unicode="&#x395;" horiz-adv-x="639" 
d="M91 674h297q153 0 240 35l5 -2l-19 -271q-2 -2 -7 -2q-3 0 -4 0.5t-3.5 7t-5.5 20.5q-23 115 -59.5 153t-130.5 38h-19l-49 -290h32q34 0 59 20.5t35.5 45.5t20 45.5t16.5 20.5h5l-48 -293h-6q-8 0 -10 22t-3 48.5t-18 48.5t-52 22h-34l-44 -257q-2 -16 -2 -22
q0 -44 54 -44h14q65 0 122 54t131 184q20 29 27 31q2 0 8 -2q-77 -235 -104 -312l-4 -1q-62 26 -191 26h-361v8q1 9 19 12.5t38 18t26 50.5l83 495q2 14 2 18q0 25 -15 36t-30.5 14.5t-15.5 10.5q0 2 0.5 5.5t0.5 5.5z" />
    <glyph glyph-name="Zeta" unicode="&#x396;" horiz-adv-x="649" 
d="M665 674q-2 -12 -2 -19l-412 -634h85q79 0 135 54t148 204q10 15 16 15q1 0 4 -0.5t5 -0.5l-103 -316l-5 -3q-54 26 -182 26h-380l3 19q94 144 418 634h-51q-87 0 -136 -40.5t-113 -161.5q-14 -26 -23 -26q-6 0 -7 2q11 43 37 135.5t39 139.5l5 2q40 -19 88.5 -24.5
t130.5 -5.5h300z" />
    <glyph glyph-name="Eta" unicode="&#x397;" horiz-adv-x="777" 
d="M726 0h-359q1 2 1 8q1 8 16 11t32 18t23 52l43 257h-150l-43 -257q-2 -8 -2 -22q0 -24 11.5 -34t23.5 -13.5t12 -9.5q0 -8 -1 -10h-350q0 12 10.5 17.5t23.5 7t27 17.5t19 47l84 495q1 7 1 18q0 19 -8.5 30.5t-19 14t-19 6.5t-8.5 10v11h347v-9q-2 -8 -16.5 -12
t-30 -18.5t-21.5 -50.5l-37 -219h150q13 73 37 219q2 16 2 21q0 23 -11 33.5t-22.5 14t-11.5 10.5v11h347q0 -13 -10 -18.5t-23 -7t-26.5 -17.5t-18.5 -47q-56 -330 -83 -495q-2 -14 -2 -18q0 -26 16 -37t32 -14.5t16 -10.5q0 -2 -0.5 -5t-0.5 -4z" />
    <glyph glyph-name="Theta" unicode="&#x398;" horiz-adv-x="798" 
d="M482 691q82 0 145 -24.5t100 -66.5t55 -93.5t18 -110.5q0 -75 -30 -147.5t-83.5 -131.5t-138.5 -95.5t-185 -36.5q-153 0 -234.5 82.5t-81.5 207.5q0 169 124 292.5t311 123.5zM481 672q-44 0 -82 -54.5t-61.5 -135t-36.5 -165.5t-13 -154q0 -161 80 -161q42 0 79.5 53
t61 132.5t37.5 166t14 158.5q0 160 -79 160zM531 411l13 -5q-32 -114 -96 -114q-14 0 -40.5 10.5t-39.5 10.5q-26 0 -46 -27l-13 8q44 113 104 113q12 0 37.5 -12.5t38.5 -13.5q26 0 42 30z" />
    <glyph glyph-name="Iota" unicode="&#x399;" horiz-adv-x="419" 
d="M358 0h-366q0 12 10.5 17t24 7t27.5 18t19 47l82 495q2 14 2 19q0 24 -14 34.5t-28 14.5t-14 11v11h359q-1 -3 -1 -9q-1 -8 -18 -12t-35.5 -18.5t-24.5 -50.5l-83 -495q-2 -14 -2 -19q0 -20 10 -31.5t21.5 -14t21.5 -6t10 -9.5q0 -7 -1 -9z" />
    <glyph glyph-name="Kappa" unicode="&#x39a;" horiz-adv-x="762" 
d="M515 471l147 -381q13 -35 32.5 -50t32 -18.5t12.5 -11.5q0 -7 -1 -10h-343l1 8q1 7 23 15t22 28q0 12 -7 32l-90 231h-18l-38 -225q-2 -14 -2 -19q0 -25 15 -36t30 -14.5t15 -9.5q0 -2 -0.5 -5.5t-0.5 -4.5h-362q0 12 10.5 17t24 7t27 18t18.5 47l83 495q2 14 2 19
q0 24 -14 35t-28 14.5t-14 10.5q0 8 1 11h358v-9q-2 -8 -19 -12t-36 -18.5t-25 -50.5l-42 -250h20l212 210q52 50 52 75q0 20 -38 28t-38 17v10h253q0 -13 -12.5 -19.5t-34.5 -11.5t-66 -32t-93 -74z" />
    <glyph glyph-name="Lambda" unicode="&#x39b;" horiz-adv-x="680" 
d="M361 85q-45 296 -59 406h-4l-176 -361q-19 -38 -19 -63q0 -24 18 -34t36 -13.5t18 -10.5t-1 -9h-215q0 13 13 18t31 8t44.5 26t47.5 67l273 555h128l92 -582q4 -28 14.5 -45t20.5 -20.5t18 -7t8 -9.5q0 -2 -0.5 -5.5t-0.5 -4.5h-347l1 7q1 9 18.5 15.5t31 20t9.5 42.5z
" />
    <glyph glyph-name="Mu" unicode="&#x39c;" horiz-adv-x="920" 
d="M666 579h-3l-193 -389l27 -141l-17 -4q-37 133 -209 115l-67 426h-4l-76 -417q-9 -53 -4 -81t18.5 -42t28 -18t25 -8t9.5 -12l-1 -8h-231l1 8q2 8 15 12t29 7t35.5 18t31.5 42q13 24 25 85l78 411q5 29 -4 45t-23.5 19t-26 7t-9.5 11l1 9h275l69 -457l227 457h281l-1 -9
q-2 -8 -21.5 -12t-40 -18.5t-25.5 -50.5l-74 -494q-4 -29 5 -45t22.5 -19t24.5 -7t9 -11l-1 -8h-355l1 8q2 8 18 12t33.5 18.5t22.5 49.5z" />
    <glyph glyph-name="Nu" unicode="&#x39d;" horiz-adv-x="727" 
d="M100 149l72 434q2 14 2 19q0 26 -16 37t-32 14t-16 10v11h304l192 -386l4 2l38 237q4 28 4 38q0 34 -14 54t-30 24.5t-30 9t-14 10.5q0 8 1 11h233q0 -14 -11 -18.5t-27.5 -9t-34.5 -14.5t-35.5 -43t-26.5 -88l-87 -510l-92 -6l-293 592h-3l-71 -431q-4 -28 -4 -38
q0 -34 14 -54t31.5 -24.5t31.5 -8.5t14 -11q0 -2 -0.5 -5.5t-0.5 -4.5h-235v8q1 7 13 10t28.5 8t34.5 16t33.5 38t22.5 69z" />
    <glyph glyph-name="Xi" unicode="&#x39e;" horiz-adv-x="627" 
d="M538 -17l-6 -3q-96 20 -251 20q-162 0 -273 -20l-5 2l27 289l5 1q8 2 11 -3t7 -24q10 -48 26 -61.5t68 -13.5h312q50 0 72 15t48 63q9 17 15 23t14 4l4 -1zM138 692l3 2q97 -19 257 -19q168 0 245 19l3 -2l-30 -245h-5q-8 0 -11 5t-7 22q-5 23 -20 31.5t-48 8.5h-338
q-50 0 -73 -38q-12 -19 -16.5 -23.5t-11.5 -3.5l-6 1zM509 435l18 -1q-18 -84 -63 -126t-96 -42q-30 0 -73 16.5t-60 16.5q-47 0 -71 -49l-18 2q48 166 176 166q22 0 66.5 -14.5t65.5 -14.5q19 0 32 9t23 37z" />
    <glyph glyph-name="Omicron" unicode="&#x39f;" horiz-adv-x="747" 
d="M449 691q77 0 135 -22t90.5 -61.5t48 -87t15.5 -103.5q0 -59 -15.5 -118.5t-49 -116t-80.5 -100.5t-115 -70.5t-148 -26.5q-143 0 -213 77t-70 199q0 113 47.5 210.5t140.5 158.5t214 61zM447 672q-44 0 -83.5 -113t-59.5 -241t-20 -206q0 -109 54 -109q43 0 82.5 110
t60 239.5t20.5 215.5q0 104 -54 104z" />
    <glyph glyph-name="Pi" unicode="&#x3a0;" horiz-adv-x="771" 
d="M528 652h-145q-57 -344 -94 -563q-2 -8 -2 -22q0 -23 11.5 -33.5t22.5 -14t11 -9.5q0 -2 -0.5 -5.5t-0.5 -4.5h-345q0 12 10.5 17t24 7t27 18t18.5 47l83 495q2 14 2 18q0 25 -14.5 36t-29.5 14.5t-15 10.5q0 2 0.5 5.5t0.5 5.5h728q0 -13 -10.5 -18t-24 -6.5t-28 -17.5
t-19.5 -48l-83 -495q-2 -14 -2 -17q0 -26 15.5 -37.5t31 -15t15.5 -9.5q0 -8 -1 -10h-354q1 2 1 8q1 8 15.5 11.5t32 19t23.5 50.5q26 156 95 563z" />
    <glyph glyph-name="Rho" unicode="&#x3a1;" horiz-adv-x="664" 
d="M385 653q-23 -143 -62 -374q48 0 84 40t52 98t16 123q0 113 -75 113h-15zM94 674h387q89 0 158.5 -45t69.5 -136q0 -80 -46.5 -136t-115 -80t-149.5 -24q-42 0 -79 6q-7 -47 -29 -170q-2 -12 -2 -17q0 -26 16.5 -37t33 -14.5t16.5 -11.5q0 -7 -1 -9h-370q-1 13 9.5 18.5
t24.5 7t28.5 17t19.5 46.5q41 247 84 495q1 7 1 18q0 25 -14 36t-28.5 14.5t-14.5 10.5q0 2 0.5 5.5t0.5 5.5z" />
    <glyph glyph-name="Sigma" unicode="&#x3a3;" horiz-adv-x="603" 
d="M418 411l-1 -5l-249 -230h237q68 0 102 20t68 88q9 18 14 26t11 7q2 0 6 -2l-81 -312l-5 -5q-136 2 -226 2h-320l3 22q37 36 79.5 76t95 88.5t80.5 75.5q-31 78 -155 389l6 23h290q154 0 241 35l5 -4q-6 -89 -20 -267q-3 0 -4 -1q-9 0 -12 5.5t-6 23.5
q-20 110 -56.5 148.5t-120.5 38.5h-78z" />
    <glyph glyph-name="Tau" unicode="&#x3a4;" horiz-adv-x="632" 
d="M498 653l-93 -564q-2 -14 -2 -19q0 -25 16 -36t32 -14.5t16 -10.5q0 -2 -0.5 -5t-0.5 -4h-369q-1 13 10 18.5t25 7t29 18t20 48.5l92 561h-6q-104 0 -203 -205q-13 -27 -23 -27q-4 0 -6 2l68 275l7 5q58 -29 164 -29h234q102 0 174 29l5 -5l-23 -276q-3 -1 -8 -1
q-9 0 -13 26q-32 204 -138 206h-7z" />
    <glyph glyph-name="Upsilon" unicode="&#x3a5;" horiz-adv-x="657" 
d="M106 8q2 7 13 11.5t24.5 8t26.5 19t17 42.5l28 166l-86 328q-7 26 -18.5 41.5t-21.5 19.5t-17 8.5t-6 12.5l1 9h375v-8q0 -10 -11.5 -15.5t-26 -8t-26 -13t-11.5 -28.5q0 -11 5 -29l69 -240h2l109 192q27 47 27 76q0 19 -12.5 30t-27.5 14t-27 8t-10 13l1 9h233l-1 -9
q-2 -8 -13.5 -13t-27.5 -9t-40.5 -23t-47.5 -50q-16 -21 -40 -62l-117 -199l-37 -217q-5 -28 4 -44.5t22 -20t24 -8t9 -11.5v-8h-365v8z" />
    <glyph glyph-name="Phi" unicode="&#x3a6;" horiz-adv-x="921" 
d="M607 0h-366q0 12 10.5 17t24 7t27.5 18t19 47l3 21q-145 14 -216 66.5t-71 136.5q0 113 100.5 183t263.5 80l2 8q2 14 2 19q0 24 -14 34.5t-28 14.5t-14 11v11h359q-1 -3 -1 -9q-1 -8 -18 -12t-35.5 -18.5t-24.5 -50.5l-2 -9q141 -7 215.5 -60.5t74.5 -138.5
q0 -105 -94 -177.5t-274 -88.5l-3 -21q-2 -14 -2 -19q0 -25 15.5 -36t31.5 -14.5t16 -10.5t-1 -9zM625 553q-54 -322 -70 -413l-1 -8q53 11 94 94t41 193q0 55 -17 91t-47 43zM266 264q0 -60 18 -94t45 -38l69 419q-57 -20 -94.5 -100t-37.5 -187z" />
    <glyph glyph-name="Chi" unicode="&#x3a7;" horiz-adv-x="702" 
d="M84 674h388q3 -13 -7 -19t-23.5 -7.5t-25 -12.5t-11.5 -32q0 -24 16 -66l40 -105l69 93q42 56 42 88q0 19 -14 26.5t-28.5 11t-14.5 12.5q0 2 0.5 5.5t0.5 5.5h233q2 -15 -8 -20.5t-28.5 -7.5t-53 -23t-69.5 -59q-18 -19 -48 -58l-74 -93l115 -321q12 -34 32.5 -51
t34.5 -21t14 -11q0 -6 -1 -9h-406q1 2 1 7q1 9 18 13.5t33 15t16 34.5q0 29 -13 64l-45 123l-68 -87q-55 -72 -55 -108q0 -16 10 -24.5t21.5 -10.5t21.5 -6t10 -11q0 -2 -0.5 -5t-0.5 -5h-239q0 13 9.5 18.5t25.5 8t45.5 19.5t60.5 49q40 41 88 102l63 81l-101 292
q-11 31 -25 49.5t-25 23.5t-18.5 9.5t-7.5 12.5q0 3 2 9z" />
    <glyph glyph-name="Psi" unicode="&#x3a8;" horiz-adv-x="952" 
d="M581 210q39 7 72 50.5t45 114.5l49 292l6 7h268q0 -13 -10 -18.5t-22.5 -7t-25.5 -17.5t-18 -47l-12 -81q-6 -41 -20 -80t-42 -79t-66 -71t-96.5 -54t-130.5 -30q-2 -12 -7.5 -37t-8.5 -45t-3 -36q0 -26 15.5 -37t30.5 -14.5t15 -9.5q0 -8 -1 -10h-362q-1 14 9.5 19.5
t24 7t28 16.5t19.5 46l17 100q-137 19 -196.5 86t-59.5 161q0 31 6 61l15 82q2 14 2 19q0 19 -8.5 30t-18 13.5t-17.5 7t-8 12.5v7l272 10l4 -8l-51 -295q-5 -32 -5 -53q0 -51 19.5 -79.5t48.5 -33.5l64 375q2 14 2 20q0 24 -12 34.5t-24.5 14t-12.5 10.5q0 2 0.5 5.5
t0.5 5.5h342q-1 -3 -1 -9q-2 -8 -17 -11.5t-32 -18t-23 -51.5z" />
    <glyph glyph-name="Omega" unicode="&#x3a9;" horiz-adv-x="785" 
d="M309 1l-1 -1h-46q-138 0 -241 -20l-2 1q0 37 3 289q1 0 3.5 0.5t3.5 0.5q8 0 14 -33q22 -116 68 -166.5t133 -50.5h43q-4 25 -28 47t-55.5 42.5t-62.5 46.5t-52 71t-21 104q0 150 110 255.5t288 105.5q78 0 136 -22.5t90 -59.5t47 -79t15 -88q0 -82 -31 -148t-78 -106.5
t-94.5 -70t-90 -54.5t-54.5 -44h34q59 0 101 12t77 44t58 64.5t62 96.5q12 20 18 26.5t12 6.5q1 0 3.5 -0.5t3.5 -0.5l-91 -289l-2 -1q-112 19 -276 20h-29l-1 1q2 15 18.5 40.5t37 61.5t40.5 89t34 145t14 207q0 67 -13.5 98t-44.5 31q-47 0 -89.5 -91t-65 -206t-22.5 -205
q0 -58 12 -102.5t12 -67.5z" />
    <glyph glyph-name="Iotadieresis" unicode="&#x3aa;" horiz-adv-x="419" 
d="M358 0h-366q0 12 10.5 17t24 7t27.5 18t19 47l82 495q2 14 2 19q0 24 -14 34.5t-28 14.5t-14 11v11h359q-1 -3 -1 -9q-1 -8 -18 -12t-35.5 -18.5t-24.5 -50.5l-83 -495q-2 -14 -2 -19q0 -20 10 -31.5t21.5 -14t21.5 -6t10 -9.5q0 -7 -1 -9zM213 915q33 0 53 -22t20 -56
q0 -44 -31 -75.5t-71 -31.5q-31 0 -51.5 21.5t-20.5 53.5q0 43 30 76.5t71 33.5zM418 915q33 0 53 -22t20 -56q0 -43 -31 -75t-70 -32q-31 0 -51.5 21.5t-20.5 53.5q0 43 29.5 76.5t70.5 33.5z" />
    <glyph glyph-name="Upsilondieresis" unicode="&#x3ab;" horiz-adv-x="657" 
d="M106 8q2 7 13 11.5t24.5 8t26.5 19t17 42.5l28 166l-86 328q-7 26 -18.5 41.5t-21.5 19.5t-17 8.5t-6 12.5l1 9h375v-8q0 -10 -11.5 -15.5t-26 -8t-26 -13t-11.5 -28.5q0 -11 5 -29l69 -240h2l109 192q27 47 27 76q0 19 -12.5 30t-27.5 14t-27 8t-10 13l1 9h233l-1 -9
q-2 -8 -13.5 -13t-27.5 -9t-40.5 -23t-47.5 -50q-16 -21 -40 -62l-117 -199l-37 -217q-5 -28 4 -44.5t22 -20t24 -8t9 -11.5v-8h-365v8zM334 913q33 0 53 -22t20 -56q0 -44 -31 -75.5t-71 -31.5q-31 0 -51.5 21.5t-20.5 53.5q0 43 30 76.5t71 33.5zM539 913q33 0 53 -22
t20 -56q0 -43 -31 -75t-70 -32q-31 0 -51.5 21.5t-20.5 53.5q0 43 29.5 76.5t70.5 33.5z" />
    <glyph glyph-name="alphatonos" unicode="&#x3ac;" horiz-adv-x="641" 
d="M602 465q-40 -184 -77 -424q47 33 92 85l12 -12q-105 -128 -191 -128q-47 0 -72 23.5t-25 63.5q0 37 25 137h-1q-1 1 -2 1q-31 -113 -80.5 -169.5t-122.5 -56.5q-54 0 -93 35.5t-39 112.5q0 132 67.5 227.5t179.5 95.5q91 0 129 -52q112 13 181 61h17zM344 416
q-32 0 -60 -63t-42 -134t-14 -114q0 -47 27 -47q25 0 58 67.5t62 193.5l16 69q-17 28 -47 28zM261 503l-3 14q31 22 57 50t38.5 46.5t28.5 46.5t18 31q17 27 32.5 40t37.5 13q27 0 40 -14.5t13 -36.5q0 -10 -4.5 -24t-21.5 -37.5t-44 -45.5t-77 -45t-115 -38z" />
    <glyph glyph-name="epsilontonos" unicode="&#x3ad;" horiz-adv-x="475" 
d="M202 503l-3 14q31 22 57 50t38.5 46.5t28.5 46.5t18 31q17 27 32.5 40t37.5 13q27 0 40 -14.5t13 -36.5q0 -10 -4.5 -24t-21.5 -37.5t-44 -45.5t-77 -45t-115 -38zM363 236l-2 -18q-66 -11 -99 -44.5t-33 -72.5q0 -36 21 -54.5t55 -18.5q71 0 138 47l9 -13
q-98 -77 -243 -77q-193 0 -193 115q0 42 36.5 80.5t123.5 49.5l2 4q-53 6 -80 32t-27 60q0 54 58 92t168 38q85 0 129 -30.5t44 -73.5q0 -31 -19.5 -52t-49.5 -21q-36 0 -55.5 23.5t-19.5 58.5q0 38 20 69q-45 0 -68.5 -32.5t-23.5 -75.5q0 -83 109 -86z" />
    <glyph glyph-name="etatonos" unicode="&#x3ae;" horiz-adv-x="636" 
d="M199 457q47 0 73.5 -23t26.5 -62q0 -42 -35 -166h2l2 -1q42 131 103 191.5t115 60.5q107 0 107 -106q0 -27 -6 -57l-81 -405q51 36 92 83q1 -1 3.5 -4t4.5 -5t4 -3q-105 -128 -192 -128q-101 0 -101 93q0 23 6 53l66 307q9 40 9 56q0 24 -17 24q-14 0 -37 -33.5
t-47.5 -98.5t-38.5 -140l-17 -93h-198l75 402q-29 -20 -95 -88l-12 13q60 73 103 101.5t85 28.5zM270 503l-3 14q31 22 57 50t38.5 46.5t28.5 46.5t18 31q17 27 32.5 40t37.5 13q27 0 40 -14.5t13 -36.5q0 -10 -4.5 -24t-21.5 -37.5t-44 -45.5t-77 -45t-115 -38z" />
    <glyph glyph-name="iotatonos" unicode="&#x3af;" horiz-adv-x="368" 
d="M66 126l53 277q-32 -22 -94 -88l-12 13q61 73 103.5 102t83.5 29q49 0 77.5 -26.5t29.5 -72.5q0 -21 -4 -41q-8 -46 -26.5 -138.5t-26.5 -139.5q49 33 92 83l11 -12q-103 -127 -191 -127q-101 0 -101 94q0 20 5 47zM117 503l-3 14q31 22 57 50t38.5 46.5t28.5 46.5t18 31
q17 27 32.5 40t37.5 13q27 0 40 -14.5t13 -36.5q0 -10 -4.5 -24t-21.5 -37.5t-44 -45.5t-77 -45t-115 -38z" />
    <glyph glyph-name="upsilondieresistonos" unicode="&#x3b0;" horiz-adv-x="623" 
d="M199 457q50 0 77 -26.5t27 -70.5q0 -25 -5.5 -58t-19.5 -105.5t-24 -126.5q-4 -24 -4 -38q0 -31 25 -31q42 0 77 124.5t35 233.5q0 65 -14 86q2 3 4 9l3 9q112 -1 163.5 -54t51.5 -136q0 -50 -19 -99.5t-56 -92.5t-100.5 -69.5t-144.5 -26.5q-98 0 -150 46.5t-52 117.5
q0 13 4 37l40 215q-40 -27 -94 -88l-12 14q61 74 104 102t84 28zM266 487l-9 12q28 42 43 77.5t24 74t12 47.5q27 86 90 86q21 0 32.5 -13t11.5 -34q0 -42 -47 -109.5t-157 -140.5zM230 708q31 0 50 -20.5t19 -51.5q0 -41 -30 -71t-68 -30q-28 0 -47.5 20.5t-19.5 49.5
q0 40 28.5 71.5t67.5 31.5zM540 708q31 0 49.5 -20.5t18.5 -51.5q0 -41 -29.5 -71t-67.5 -30q-29 0 -48 20t-19 50q0 40 28.5 71.5t67.5 31.5z" />
    <glyph glyph-name="alpha" unicode="&#x3b1;" horiz-adv-x="641" 
d="M602 465q-40 -184 -77 -424q47 33 92 85l12 -12q-105 -128 -191 -128q-47 0 -72 23.5t-25 63.5q0 37 25 137h-1q-1 1 -2 1q-31 -113 -80.5 -169.5t-122.5 -56.5q-54 0 -93 35.5t-39 112.5q0 132 67.5 227.5t179.5 95.5q91 0 129 -52q112 13 181 61h17zM344 416
q-32 0 -60 -63t-42 -134t-14 -114q0 -47 27 -47q25 0 58 67.5t62 193.5l16 69q-17 28 -47 28z" />
    <glyph glyph-name="beta" unicode="&#x3b2;" horiz-adv-x="591" 
d="M65 365q20 158 106.5 260.5t220.5 102.5q91 0 135 -38t44 -96q0 -63 -50 -120t-158 -62l-1 -1v-2q61 -1 103.5 -18.5t62 -45.5t27 -53t7.5 -52q0 -116 -75 -185.5t-172 -69.5q-78 0 -120 33h-2q-30 -112 -110 -177t-180 -65q-47 0 -73 22.5t-26 54.5q0 31 19.5 49.5
t47.5 18.5q41 0 63.5 -33.5t19.5 -85.5q30 14 47 95q13 62 64 468zM298 403l3 18q41 5 70.5 77.5t29.5 161.5q0 52 -31 52q-40 0 -55 -73q-108 -567 -115 -601q22 -17 48 -17q34 0 61.5 51.5t40 112.5t12.5 107q0 42 -15.5 74t-48.5 37z" />
    <glyph glyph-name="gamma" unicode="&#x3b3;" horiz-adv-x="519" 
d="M443 470q28 0 49.5 -23.5t21.5 -65.5q0 -62 -54.5 -131.5t-139.5 -146.5q-4 -51 -11.5 -96.5t-24.5 -92.5t-41 -80.5t-61.5 -54.5t-85.5 -21q-61 0 -84.5 26t-23.5 58q0 45 35.5 91.5t100.5 87.5q7 87 -3 194.5t-38 178.5q-20 -20 -80 -90l-10 11q20 29 35 48t40.5 44.5
t55.5 39t62 13.5q77 0 109 -84q37 -91 27 -245q82 70 139 160q-91 31 -91 113q0 21 18 43.5t55 22.5zM123 -2q-99 -80 -99 -143q0 -28 26 -28q28 0 47.5 52t25.5 119z" />
    <glyph glyph-name="delta" unicode="&#x3b4;" horiz-adv-x="601" 
d="M260 -15q-120 0 -177.5 52.5t-57.5 136.5q0 26 8.5 55.5t28.5 61t48 57t72.5 43t97.5 19.5q-38 24 -73.5 71.5t-35.5 95.5q0 85 63 127t155 42q52 0 91.5 -9t67.5 -34.5t28 -64.5q0 -31 -20 -54t-51 -23q-33 0 -52.5 23.5t-19.5 59.5q0 45 22 77q-12 3 -25 3
q-31 0 -55.5 -17.5t-24.5 -52.5q0 -24 23.5 -53.5t56.5 -62t66.5 -70.5t57 -90.5t23.5 -109.5q0 -50 -19 -99t-56 -90.5t-100 -67.5t-142 -26zM265 1q35 0 66.5 87t31.5 167q0 77 -64 139q-29 -53 -49 -160.5t-20 -168.5q0 -64 35 -64z" />
    <glyph glyph-name="epsilon" unicode="&#x3b5;" horiz-adv-x="475" 
d="M363 236l-2 -18q-66 -11 -99 -44.5t-33 -72.5q0 -36 21 -54.5t55 -18.5q71 0 138 47l9 -13q-98 -77 -243 -77q-193 0 -193 115q0 42 36.5 80.5t123.5 49.5l2 4q-53 6 -80 32t-27 60q0 54 58 92t168 38q85 0 129 -30.5t44 -73.5q0 -31 -19.5 -52t-49.5 -21
q-36 0 -55.5 23.5t-19.5 58.5q0 38 20 69q-45 0 -68.5 -32.5t-23.5 -75.5q0 -83 109 -86z" />
    <glyph glyph-name="zeta" unicode="&#x3b6;" horiz-adv-x="428" 
d="M214 775q12 -92 166 -92q55 0 111 12.5t91 29.5l7 -17q-67 -34 -133.5 -78t-130.5 -99t-104 -118t-40 -120q0 -33 23 -61.5t56 -50t66.5 -44t56.5 -54t23 -68.5q0 -31 -14.5 -61t-45 -60t-89.5 -51t-138 -27l-2 19q70 8 107 29t37 46q0 17 -24.5 35t-59.5 37.5t-70 43.5
t-59.5 62.5t-24.5 84.5q0 49 23.5 101t60.5 96.5t94.5 94.5t112 89.5t125.5 86.5l-2 3q-117 -73 -205 -73q-84 0 -84 76q0 69 50 128h16z" />
    <glyph glyph-name="eta" unicode="&#x3b7;" horiz-adv-x="636" 
d="M199 457q47 0 73.5 -23t26.5 -62q0 -42 -35 -166h2l2 -1q42 131 103 191.5t115 60.5q107 0 107 -106q0 -27 -6 -57l-81 -405q51 36 92 83q1 -1 3.5 -4t4.5 -5t4 -3q-105 -128 -192 -128q-101 0 -101 93q0 23 6 53l66 307q9 40 9 56q0 24 -17 24q-14 0 -37 -33.5
t-47.5 -98.5t-38.5 -140l-17 -93h-198l75 402q-29 -20 -95 -88l-12 13q60 73 103 101.5t85 28.5z" />
    <glyph glyph-name="theta" unicode="&#x3b8;" horiz-adv-x="596" 
d="M392 744q216 0 216 -257q0 -132 -38 -243.5t-119 -185t-192 -73.5q-216 0 -216 256q0 68 12 136t39 135t66.5 118t99.5 82.5t132 31.5zM263 1q32 0 57.5 84.5t61.5 281.5h-110q-39 -214 -39 -296q0 -70 30 -70zM389 726q-55 0 -114 -337h111q35 217 35 273q0 64 -32 64z
" />
    <glyph glyph-name="iota" unicode="&#x3b9;" horiz-adv-x="368" 
d="M66 126l53 277q-32 -22 -94 -88l-12 13q61 73 103.5 102t83.5 29q49 0 77.5 -26.5t29.5 -72.5q0 -21 -4 -41q-8 -46 -26.5 -138.5t-26.5 -139.5q49 33 92 83l11 -12q-103 -127 -191 -127q-101 0 -101 94q0 20 5 47z" />
    <glyph glyph-name="kappa" unicode="&#x3ba;" horiz-adv-x="646" 
d="M199 457q101 0 101 -105q-4 -66 -28 -160h2l2 -1q23 74 60.5 130t78 85t76 43t64.5 14q43 0 67 -22.5t24 -58.5q0 -28 -21 -47t-54 -19q-41 0 -63 32.5t-19 79.5q-41 -18 -70 -43q6 -18 26 -79.5t32 -97t30 -84t33 -79.5q39 25 84 78q2 -1 6 -5t7 -6q-53 -62 -99 -94.5
t-108 -32.5q-99 0 -130 227q-29 -69 -41 -136l-15 -76h-200q50 268 74 402q-32 -24 -94 -88l-12 13q62 74 104 102t83 28z" />
    <glyph glyph-name="lambda" unicode="&#x3bb;" horiz-adv-x="531" 
d="M239 98l-16 271l-142 -277q-16 -30 -8.5 -44.5t22.5 -18t29.5 -8.5t13.5 -15l-1 -6h-195l1 9q2 8 15.5 13t31 8t39.5 20.5t37 47.5l154 304l-17 282q-37 -34 -94 -99l-12 11q66 82 106.5 113t92.5 31q54 0 80 -26.5t30 -86.5l38 -578q12 11 26.5 27t35 39.5t33.5 38.5
l10 -10q-62 -83 -105.5 -121t-93.5 -38q-54 0 -80.5 26.5t-30.5 86.5z" />
    <glyph glyph-name="nu" unicode="&#x3bd;" horiz-adv-x="512" 
d="M335 162q84 79 116 133q-40 8 -62 34.5t-22 61.5q0 3 0.5 8.5t4.5 18.5t10 22.5t20 17.5t33 8q28 0 47.5 -22.5t19.5 -63.5q0 -43 -36.5 -98.5t-81 -100t-104 -102t-85.5 -89.5h-25q-53 261 -86 382q-28 -23 -69 -76l-12 11q104 151 197 151q23 0 40.5 -10.5t36 -39.5
t33.5 -91t25 -155z" />
    <glyph glyph-name="xi" unicode="&#x3be;" horiz-adv-x="423" 
d="M328 740q98 0 143 -32.5t45 -76.5q0 -36 -20 -56t-47 -20q-35 0 -53 24t-18 60q0 42 21 75q-8 2 -24 2q-53 0 -86 -48.5t-33 -123.5q0 -114 155 -120l-4 -21q-224 -2 -224 -109q0 -29 25 -59.5t60.5 -57t70.5 -54t60 -60t25 -64.5q0 -65 -63 -120t-207 -71l-3 19
q130 21 130 66q0 21 -26 44t-63.5 47t-75 51t-63.5 65.5t-26 80.5q0 92 70.5 158t208.5 72l2 4q-94 2 -157.5 39.5t-63.5 108.5q0 80 69.5 128.5t171.5 48.5z" />
    <glyph glyph-name="omicron" unicode="&#x3bf;" horiz-adv-x="602" 
d="M344 457q124 0 177 -53t53 -138q0 -114 -86 -197.5t-241 -83.5q-116 0 -167.5 51.5t-51.5 134.5q0 123 86.5 204.5t229.5 81.5zM342 438q-31 0 -58.5 -67t-41.5 -149.5t-14 -145.5q0 -74 33 -74q37 0 66 74.5t40.5 154t11.5 131.5q0 76 -37 76z" />
    <glyph glyph-name="pi" unicode="&#x3c0;" horiz-adv-x="656" 
d="M391 417h-87l-45 -256q-19 -108 -58 -169.5t-114 -105.5q-89 -53 -184 -53q-43 0 -67 22t-24 53q0 30 21 48t52 18t58 -27t27 -87q31 7 48 100l85 457h-71l2 19h623l-3 -19h-62l-71 -381q41 28 91 84l12 -10q-105 -126 -190 -126q-47 0 -74.5 25.5t-27.5 74.5q0 17 5 42z
" />
    <glyph glyph-name="rho" unicode="&#x3c1;" horiz-adv-x="646" 
d="M164 -234q-47 0 -80.5 16.5t-50 43.5t-23.5 55t-7 58q0 55 11.5 118.5t40.5 135.5t72 129.5t113.5 95.5t156.5 38q103 0 163 -49.5t60 -138.5q0 -115 -89 -199t-203 -84q-47 0 -74.5 23.5t-27.5 58.5q0 27 15 44.5t41 17.5q30 0 47.5 -25.5t17.5 -61.5q0 -20 -6 -38l3 -1
q22 10 51.5 125t29.5 205q0 105 -47 105q-50 0 -95 -86t-69 -200.5t-24 -212.5q0 -115 85 -115q21 0 60 14.5t67 39.5l10 -12q-119 -100 -248 -100z" />
    <glyph glyph-name="sigma1" unicode="&#x3c2;" horiz-adv-x="469" 
d="M133 -154l-3 18q118 17 118 64q0 16 -22.5 35t-55 40.5t-65 47.5t-55 65.5t-22.5 84.5q0 113 79.5 184.5t204.5 71.5q77 0 114 -32.5t37 -75.5q0 -33 -20 -55t-52 -22q-34 0 -55 24.5t-21 60.5q0 43 26 76h-15q-54 0 -90.5 -36t-36.5 -91q0 -33 20.5 -63.5t49.5 -54.5
t58 -48.5t49.5 -54.5t20.5 -63q0 -29 -10.5 -54.5t-37 -52t-82 -45t-134.5 -24.5z" />
    <glyph glyph-name="sigma" unicode="&#x3c3;" horiz-adv-x="601" 
d="M471 417l-2 -5q51 -19 76.5 -62.5t25.5 -96.5q0 -47 -19.5 -93t-56.5 -86t-100 -64.5t-141 -24.5q-115 0 -173 51.5t-58 131.5q0 111 87.5 189.5t228.5 78.5h271l-3 -19h-136zM337 419q-42 0 -75.5 -137.5t-33.5 -222.5q0 -59 32 -59q31 0 58 71t40.5 151t13.5 129
q0 68 -35 68z" />
    <glyph glyph-name="tau" unicode="&#x3c4;" horiz-adv-x="392" 
d="M117 417h-104l2 19h412l-3 -19h-104l-72 -380q33 22 92 85l11 -10q-105 -127 -192 -127q-48 0 -75.5 25t-27.5 74q0 6 5 44z" />
    <glyph glyph-name="upsilon" unicode="&#x3c5;" horiz-adv-x="623" 
d="M199 457q50 0 77 -26.5t27 -70.5q0 -25 -5.5 -58t-19.5 -105.5t-24 -126.5q-4 -24 -4 -38q0 -31 25 -31q42 0 77 124.5t35 233.5q0 65 -14 86q2 3 4 9l3 9q112 -1 163.5 -54t51.5 -136q0 -50 -19 -99.5t-56 -92.5t-100.5 -69.5t-144.5 -26.5q-98 0 -150 46.5t-52 117.5
q0 13 4 37l40 215q-40 -27 -94 -88l-12 14q61 74 104 102t84 28z" />
    <glyph glyph-name="phi" unicode="&#x3c6;" horiz-adv-x="826" 
d="M268 -3l34 184q10 53 32 100.5t56.5 88.5t87.5 65t117 24q106 0 157 -51t51 -134q0 -117 -85 -199.5t-261 -97.5q-7 -31 -25 -62t-52 -65t-94 -55.5t-137 -21.5q-50 0 -78 22t-28 53t21 49t52 18t58.5 -27.5t27.5 -87.5q29 7 47 101l15 76q-122 14 -180 66.5t-58 133.5
q0 113 86 193.5t236 87.5l1 -20q-56 -37 -89.5 -157t-33.5 -212q0 -66 42 -72zM580 439q-33 0 -43 -58l-70 -384q33 2 60.5 57.5t43 128t24 131.5t8.5 81q0 44 -23 44z" />
    <glyph glyph-name="chi" unicode="&#x3c7;" horiz-adv-x="545" 
d="M149 176l-58 195q-24 -24 -62 -71l-12 11q24 33 40.5 53t41.5 44.5t51 36.5t53 12q18 0 28.5 -2.5t24 -11t24 -28t20.5 -51.5l21 -69q36 80 70.5 120.5t83.5 40.5q35 0 57.5 -19t22.5 -51q0 -30 -22.5 -47.5t-46.5 -17.5q-39 0 -60.5 26t-21.5 53q-30 -36 -76 -131
l61 -199q24 24 62 71l12 -11q-24 -33 -40.5 -53t-41.5 -44.5t-51 -36.5t-53 -12q-18 0 -28.5 2.5t-24 11t-24 28t-20.5 51.5l-21 69q-19 -52 -47 -104t-64 -102.5t-81 -82t-89 -31.5q-35 0 -58.5 19t-23.5 51q0 31 22 49t48 18q39 0 61 -28.5t23 -62.5q105 62 199 304z" />
    <glyph glyph-name="psi" unicode="&#x3c8;" horiz-adv-x="847" 
d="M486 -22l-18 -94q-3 -14 -3 -24q0 -25 15.5 -36t31 -15t15.5 -11q0 -6 -1 -8h-336v6q0 9 10 14.5t22.5 9t26 20t19.5 44.5l19 94q-115 13 -169.5 71.5t-54.5 141.5q0 26 6 55l30 156q-44 -32 -94 -89q-3 2 -6 6.5t-6 6.5q61 74 103.5 102.5t82.5 28.5q51 0 78 -25.5
t27 -71.5q0 -16 -2 -34q-3 -13 -12.5 -58.5t-14 -68t-9 -55t-4.5 -54.5q0 -82 49 -91q31 164 91 494q2 16 2 21q0 24 -14 33t-28.5 12t-14.5 9q0 1 0.5 4t0.5 5l272 41l5 -7l-116 -612q68 11 95 145l32 167q9 46 23.5 76t35 44.5t39.5 19.5t45 5q27 0 61.5 -10t51.5 -27
l-6 -18q-24 0 -34 -14.5t-15 -43.5l-13 -72q-10 -54 -30.5 -100t-57 -88t-95 -69.5t-135.5 -35.5z" />
    <glyph glyph-name="omega" unicode="&#x3c9;" horiz-adv-x="843" 
d="M428 375q47 0 77 -25t30 -70q0 -118 -64 -202q3 -35 15.5 -51t26.5 -16q28 0 47 44t35 162q9 66 9 127q0 76 -22 93l7 20q112 -4 171 -58.5t59 -138.5q0 -114 -80 -194.5t-196 -80.5q-39 0 -61.5 20.5t-24.5 55.5q-71 -76 -192 -76q-118 0 -177 52t-59 134
q0 118 73.5 199.5t215.5 86.5l2 -20q-37 -22 -61 -158.5t-24 -219.5q0 -58 31 -58q35 0 57.5 78t22.5 170q0 65 -32 72l-2 17q51 37 116 37z" />
    <glyph glyph-name="iotadieresis" unicode="&#x3ca;" horiz-adv-x="368" 
d="M66 126l53 277q-32 -22 -94 -88l-12 13q61 73 103.5 102t83.5 29q49 0 77.5 -26.5t29.5 -72.5q0 -21 -4 -41q-8 -46 -26.5 -138.5t-26.5 -139.5q49 33 92 83l11 -12q-103 -127 -191 -127q-101 0 -101 94q0 20 5 47zM139 721q33 0 53 -22t20 -56q0 -44 -31 -75.5
t-71 -31.5q-31 0 -51.5 21.5t-20.5 53.5q0 43 30 76.5t71 33.5zM344 721q33 0 53 -22t20 -56q0 -43 -31 -75t-70 -32q-31 0 -51.5 21.5t-20.5 53.5q0 43 29.5 76.5t70.5 33.5z" />
    <glyph glyph-name="upsilondieresis" unicode="&#x3cb;" horiz-adv-x="623" 
d="M199 457q50 0 77 -26.5t27 -70.5q0 -25 -5.5 -58t-19.5 -105.5t-24 -126.5q-4 -24 -4 -38q0 -31 25 -31q42 0 77 124.5t35 233.5q0 65 -14 86q2 3 4 9l3 9q112 -1 163.5 -54t51.5 -136q0 -50 -19 -99.5t-56 -92.5t-100.5 -69.5t-144.5 -26.5q-98 0 -150 46.5t-52 117.5
q0 13 4 37l40 215q-40 -27 -94 -88l-12 14q61 74 104 102t84 28zM271 721q33 0 53 -22t20 -56q0 -44 -31 -75.5t-71 -31.5q-31 0 -51.5 21.5t-20.5 53.5q0 43 30 76.5t71 33.5zM476 721q33 0 53 -22t20 -56q0 -43 -31 -75t-70 -32q-31 0 -51.5 21.5t-20.5 53.5
q0 43 29.5 76.5t70.5 33.5z" />
    <glyph glyph-name="omicrontonos" unicode="&#x3cc;" horiz-adv-x="602" 
d="M344 457q124 0 177 -53t53 -138q0 -114 -86 -197.5t-241 -83.5q-116 0 -167.5 51.5t-51.5 134.5q0 123 86.5 204.5t229.5 81.5zM342 438q-31 0 -58.5 -67t-41.5 -149.5t-14 -145.5q0 -74 33 -74q37 0 66 74.5t40.5 154t11.5 131.5q0 76 -37 76zM262 503l-3 14
q31 22 57 50t38.5 46.5t28.5 46.5t18 31q17 27 32.5 40t37.5 13q27 0 40 -14.5t13 -36.5q0 -10 -4.5 -24t-21.5 -37.5t-44 -45.5t-77 -45t-115 -38z" />
    <glyph glyph-name="upsilontonos" unicode="&#x3cd;" horiz-adv-x="623" 
d="M255 503l-3 14q31 22 57 50t38.5 46.5t28.5 46.5t18 31q17 27 32.5 40t37.5 13q27 0 40 -14.5t13 -36.5q0 -10 -4.5 -24t-21.5 -37.5t-44 -45.5t-77 -45t-115 -38zM199 457q50 0 77 -26.5t27 -70.5q0 -25 -5.5 -58t-19.5 -105.5t-24 -126.5q-4 -24 -4 -38q0 -31 25 -31
q42 0 77 124.5t35 233.5q0 65 -14 86q2 3 4 9l3 9q112 -1 163.5 -54t51.5 -136q0 -50 -19 -99.5t-56 -92.5t-100.5 -69.5t-144.5 -26.5q-98 0 -150 46.5t-52 117.5q0 13 4 37l40 215q-40 -27 -94 -88l-12 14q61 74 104 102t84 28z" />
    <glyph glyph-name="omegatonos" unicode="&#x3ce;" horiz-adv-x="843" 
d="M428 375q47 0 77 -25t30 -70q0 -118 -64 -202q3 -35 15.5 -51t26.5 -16q28 0 47 44t35 162q9 66 9 127q0 76 -22 93l7 20q112 -4 171 -58.5t59 -138.5q0 -114 -80 -194.5t-196 -80.5q-39 0 -61.5 20.5t-24.5 55.5q-71 -76 -192 -76q-118 0 -177 52t-59 134
q0 118 73.5 199.5t215.5 86.5l2 -20q-37 -22 -61 -158.5t-24 -219.5q0 -58 31 -58q35 0 57.5 78t22.5 170q0 65 -32 72l-2 17q51 37 116 37zM390 503l-3 14q31 22 57 50t38.5 46.5t28.5 46.5t18 31q17 27 32.5 40t37.5 13q27 0 40 -14.5t13 -36.5q0 -10 -4.5 -24
t-21.5 -37.5t-44 -45.5t-77 -45t-115 -38z" />
    <glyph glyph-name="endash" unicode="&#x2013;" 
d="M570 236h-526l7 51h526z" />
    <glyph glyph-name="emdash" unicode="&#x2014;" horiz-adv-x="869" 
d="M830 236h-786l7 51h788z" />
    <glyph glyph-name="afii00208" unicode="&#x2015;" horiz-adv-x="869" 
d="M830 236h-786l7 51h788z" />
    <glyph glyph-name="quoteleft" unicode="&#x2018;" horiz-adv-x="242" 
d="M154 409q-34 0 -51.5 23t-17.5 57q0 63 50 146t118 138l12 -13q-46 -44 -79.5 -95t-45.5 -94q23 15 49 15q29 0 45 -18.5t16 -47.5q0 -43 -25.5 -77t-70.5 -34z" />
    <glyph glyph-name="quoteright" unicode="&#x2019;" horiz-adv-x="242" 
d="M208 748q34 0 51 -22.5t17 -57.5q0 -63 -50 -147.5t-117 -138.5l-11 13q46 44 79 95.5t45 94.5q-22 -14 -46 -14q-31 0 -47.5 18t-16.5 48q0 42 27 76.5t69 34.5z" />
    <glyph glyph-name="quotesinglbase" unicode="&#x201a;" horiz-adv-x="242" 
d="M107 165q35 0 52.5 -22.5t17.5 -56.5q0 -64 -49.5 -148t-117.5 -139q-7 7 -10 14q46 44 78.5 95t44.5 94q-24 -14 -49 -14q-30 0 -46 18.5t-16 47.5q0 41 27 76t68 35z" />
    <glyph glyph-name="quotedblleft" unicode="&#x201c;" horiz-adv-x="417" 
d="M154 407q-35 0 -52 22.5t-17 56.5q0 64 50 147.5t118 138.5l12 -13q-98 -95 -124 -189q20 14 46 14q30 0 46.5 -18.5t16.5 -47.5q0 -42 -27 -76.5t-69 -34.5zM332 407q-34 0 -51 22.5t-17 56.5q0 64 50.5 148t118.5 138l11 -12q-46 -44 -79.5 -96t-45.5 -94q20 14 47 14
q30 0 46.5 -18.5t16.5 -48.5q0 -43 -27 -76.5t-70 -33.5z" />
    <glyph glyph-name="quotedblright" unicode="&#x201d;" horiz-adv-x="417" 
d="M205 748q35 0 52 -23t17 -57q0 -63 -50 -147t-117 -139l-13 15q99 93 125 188q-20 -14 -46 -14q-31 0 -47.5 18t-16.5 48q0 41 27.5 76t68.5 35zM384 748q34 0 50.5 -23t16.5 -57q0 -63 -49.5 -147.5t-116.5 -138.5l-12 13q46 44 79.5 96t45.5 94q-22 -14 -47 -14
q-31 0 -47 18t-16 48q0 41 27.5 76t68.5 35z" />
    <glyph glyph-name="quotedblbase" unicode="&#x201e;" horiz-adv-x="417" 
d="M107 165q35 0 52.5 -22.5t17.5 -56.5q0 -64 -49.5 -148t-117.5 -139q-7 7 -10 14q46 44 78.5 95t44.5 94q-24 -14 -49 -14q-30 0 -46 18.5t-16 47.5q0 41 27 76t68 35zM287 165q34 0 51.5 -23t17.5 -56q0 -64 -49.5 -148t-116.5 -139q-2 2 -6 7.5t-5 6.5q46 44 79 95.5
t45 93.5q-24 -14 -49 -14q-30 0 -46 18.5t-16 47.5q0 41 27 76t68 35z" />
    <glyph glyph-name="dagger" unicode="&#x2020;" horiz-adv-x="507" 
d="M301 482q-2 -13 -2 -39q0 -66 20 -195q-106 -319 -137 -486h-15q28 173 28 404q0 57 -1 82q55 119 94 234q-120 -64 -161 -64q-23 0 -38 15t-15 42q0 46 24 68.5t51 22.5q21 0 66 -23t74 -43q-27 112 -27 162q0 37 22 64.5t59 27.5q53 0 53 -55q0 -53 -90 -198
q30 18 86.5 42.5t76.5 24.5t35.5 -13t15.5 -41q0 -44 -24.5 -70t-53.5 -26q-40 0 -141 64z" />
    <glyph glyph-name="daggerdbl" unicode="&#x2021;" horiz-adv-x="507" 
d="M196 250q55 119 94 234q-120 -64 -161 -64q-23 0 -38 15t-15 42q0 46 24 68.5t51 22.5q20 0 65 -23t74 -43q-26 116 -26 162q0 36 22 64t59 28q53 0 53 -54q0 -33 -27 -91t-64 -107q34 19 89 42.5t74 23.5q21 0 36 -12.5t15 -40.5q0 -45 -24.5 -71t-53.5 -26
q-40 0 -140 65q-2 -13 -2 -41q0 -68 20 -194q-74 -146 -97 -235q120 65 163 65q21 0 36 -15.5t15 -42.5q0 -48 -24 -69.5t-51 -21.5q-20 0 -67.5 24t-72.5 42q29 -102 29 -167q0 -32 -19.5 -58.5t-57.5 -26.5q-27 0 -41.5 16t-14.5 41q0 43 87 197q-32 -19 -86 -42.5
t-75 -23.5t-36 13t-15 41q0 42 24 67.5t54 25.5q40 0 140 -64q-2 124 -16 234z" />
    <glyph glyph-name="bullet" unicode="&#x2022;" horiz-adv-x="452" 
d="M377 227q0 -65 -44 -110.5t-108 -45.5q-62 0 -105.5 45.5t-43.5 110.5q0 66 43.5 112t105.5 46q64 0 108 -46t44 -112z" />
    <glyph glyph-name="trianglebullet" unicode="&#x2023;" horiz-adv-x="481" 
d="M77 477l373 -200l-373 -211v411z" />
    <glyph glyph-name="ellipsis" unicode="&#x2026;" horiz-adv-x="722" 
d="M121 192q32 0 53.5 -23.5t21.5 -58.5q0 -47 -34 -83.5t-76 -36.5q-33 0 -54.5 23t-21.5 58q0 48 34 84.5t77 36.5zM358 192q33 0 54.5 -23t21.5 -59q0 -47 -34 -83.5t-76 -36.5q-33 0 -54.5 23t-21.5 59q0 48 34 84t76 36zM597 192q33 0 54 -23t21 -59q0 -48 -34 -84
t-76 -36q-33 0 -53.5 23t-20.5 58q0 48 33.5 84.5t75.5 36.5z" />
    <glyph glyph-name="perthousand" unicode="&#x2030;" horiz-adv-x="1268" 
d="M645 720l-410 -759h-21l411 759h20zM286 700q82 0 120 -44.5t38 -112.5q0 -41 -14.5 -84t-41.5 -81.5t-72 -62.5t-100 -24q-77 0 -115.5 45.5t-38.5 116.5q0 100 62 173.5t162 73.5zM221 307q28 0 56.5 130.5t28.5 201.5q0 46 -22 46q-29 0 -57 -134.5t-28 -200.5
q0 -43 22 -43zM653 400q82 0 120 -44.5t38 -112.5q0 -57 -23.5 -112.5t-77.5 -97.5t-127 -42q-77 0 -115 45.5t-38 116.5q0 100 62 173.5t161 73.5zM589 7q28 0 56.5 130.5t28.5 201.5q0 46 -23 46q-29 0 -56.5 -134.5t-27.5 -200.5q0 -43 22 -43zM1071 400q82 0 120 -44.5
t38 -112.5q0 -57 -23.5 -112.5t-77.5 -97.5t-127 -42q-77 0 -115 45.5t-38 116.5q0 100 62 173.5t161 73.5zM1007 7q28 0 56.5 130.5t28.5 201.5q0 46 -23 46q-29 0 -56.5 -134.5t-27.5 -200.5q0 -43 22 -43z" />
    <glyph glyph-name="guilsinglleft" unicode="&#x2039;" horiz-adv-x="288" 
d="M144 206l72 -201l-12 -11l-167 186q-10 14 -10 23q0 12 19 29l229 187l9 -11z" />
    <glyph glyph-name="guilsinglright" unicode="&#x203a;" horiz-adv-x="288" 
d="M-2 5l140 201l-72 202l13 11l166 -187q8 -9 10 -22q0 -14 -19 -30l-229 -186z" />
    <glyph glyph-name="fraction" unicode="&#x2044;" horiz-adv-x="133" 
d="M276 720l-410 -759h-21l411 759h20z" />
    <glyph glyph-name="fraction" unicode="&#x2215;" horiz-adv-x="133" 
d="M276 720l-410 -759h-21l411 759h20z" />
    <glyph glyph-name="foursuperior" unicode="&#x2074;" horiz-adv-x="376" 
d="M397 782l1 -2q-96 -148 -339 -266h157l13 74q82 16 144 54l4 -2l-21 -126h47l-3 -17h-47q-8 -38 -8 -60q0 -20 18 -26t18 -13v-8h-229l1 9q1 5 17 10q13 5 19.5 10.5t13 24t10.5 53.5h-180q0 5 2 15q95 111 199 270h163z" />
    <glyph glyph-name="Euro" unicode="&#x20ac;" 
d="M473 365h-432l4 20h51q39 140 126 213t205 73q58 0 99.5 -13t60.5 -34.5t27 -42.5t8 -44q0 -39 -21.5 -63t-55.5 -24q-37 0 -55 26.5t-18 66.5q0 27 10 56.5t24 44.5q-12 3 -25 3q-115 0 -164 -262h160zM30 302h432l-3 -20h-161q-16 -90 -16 -143q0 -125 88 -125
q28 0 55 9q-26 26 -26 78q0 45 23 79.5t65 34.5q28 0 49.5 -20t21.5 -58q0 -23 -11.5 -46t-36 -47.5t-74.5 -39.5t-117 -15q-119 0 -183 66t-64 182q0 30 3 45h-48z" />
    <glyph glyph-name="trademark" unicode="&#x2122;" horiz-adv-x="860" 
d="M281 660l1 -277q0 -14 4.5 -22t10.5 -9.5t10.5 -4t4.5 -7.5v-4h-185v4q0 6 15 14.5t15 28.5v277h-4q-30 0 -50 -22.5t-40 -72.5q-6 -14 -13 -14h-4q1 11 6.5 59.5t10.5 74.5q73 -12 157 -12q94 0 155 12l16 -133h-1l-2 -1q-7 0 -13 15q-36 94 -90 94h-4zM622 484l66 190
h148v-5q0 -6 -5 -8t-10.5 -2.5t-10 -8t-4.5 -22.5l3 -245q0 -13 4.5 -20.5t10 -9.5t10 -5t4.5 -7v-5h-179v5q0 5 7 8t14 12t7 29l-3 235q0 1 -1 1l-102 -288h-16l-127 288q0 -24 -2 -103.5t-2 -123.5q0 -27 12 -38t23.5 -13t11.5 -8v-4h-106v4q0 6 12 8t24 13t12 38
q0 37 2 111t2 111q0 17 -4.5 25.5t-10 10t-10 4t-4.5 8.5v5h146z" />
    <glyph glyph-name="onethird" horiz-adv-x="731" 
d="M608 720l-410 -759h-21l411 759h20zM336 697l-55 -339q-2 -15 3 -24t12.5 -11.5t13.5 -5.5t5 -8l-1 -9h-228l1 7q1 7 12 10t23.5 11t15.5 26l42 262q4 22 -17 27q-2 0 -6 1q-18 5 -18 12l1 7l191 38zM623 215l-1 -2q50 -7 76 -32t26 -61q0 -53 -54 -91.5t-147 -38.5
q-75 0 -112 24t-37 62q0 45 36 67.5t91 22.5l4 -11q-26 -28 -26 -105q0 -44 32 -44q29 0 46 40t17 85q0 42 -22.5 55t-69.5 14l-1 14q111 20 111 121q0 20 -9.5 33t-27.5 13q-7 0 -11 -1q11 -17 11 -39q0 -30 -18 -53.5t-50 -23.5q-25 0 -37 13.5t-12 32.5q0 42 44 66.5
t113 24.5q75 0 109 -24t34 -60q0 -33 -29.5 -63t-85.5 -39z" />
    <glyph glyph-name="twothirds" horiz-adv-x="731" 
d="M633 720l-410 -759h-21l411 759h20zM140 396h166q29 0 49 10.5t28 22.5t15 20t13 6l5 -2l-69 -153h-318v9q21 29 53 58t59.5 51t53.5 49t41 63.5t15 82.5q0 24 -12 42t-36 18q-7 0 -11 -1q21 -24 21 -53q0 -30 -18 -52.5t-48 -22.5q-24 0 -36 16t-12 35q0 51 52.5 78.5
t112.5 27.5q74 0 108 -26.5t34 -65.5q0 -41 -33 -75t-74.5 -53t-90 -42.5t-68.5 -42.5zM643 215l-1 -2q50 -7 76 -32t26 -61q0 -53 -54 -91.5t-147 -38.5q-75 0 -112 24t-37 62q0 45 36 67.5t91 22.5l4 -11q-26 -28 -26 -105q0 -44 32 -44q29 0 46 40t17 85q0 42 -22.5 55
t-69.5 14l-1 14q111 20 111 121q0 20 -9.5 33t-27.5 13q-7 0 -11 -1q11 -17 11 -39q0 -30 -18 -53.5t-50 -23.5q-25 0 -37 13.5t-12 32.5q0 42 44 66.5t113 24.5q75 0 109 -24t34 -60q0 -33 -29.5 -63t-85.5 -39z" />
    <glyph glyph-name="onefifth" horiz-adv-x="731" 
d="M608 720l-410 -759h-21l411 759h20zM331 697l-55 -339q-2 -15 3 -24t12.5 -11.5t13.5 -5.5t5 -8l-1 -9h-228l1 7q1 7 12 10t23.5 11t15.5 26l42 262q4 22 -17 27q-2 0 -6 1q-18 5 -18 12l1 7l191 38zM512 383h170q29 0 48.5 8.5t25.5 19t12 17t13 3.5l5 -2l-55 -144
q-64 8 -154 8h-74l-24 -81q56 25 122 25q62 0 96.5 -28t34.5 -74q0 -61 -53.5 -103t-155.5 -42q-68 0 -102.5 22.5t-34.5 58.5q0 50 45 76t92 15l4 -12q-26 -37 -26 -107q0 -35 22 -35q23 0 39.5 39.5t16.5 85.5q0 68 -58 68q-24 0 -56 -12l-8 6z" />
    <glyph glyph-name="twofifths" horiz-adv-x="731" 
d="M643 720l-410 -759h-21l411 759h20zM143 396h166q29 0 49 10.5t28 22.5t15 20t13 6l5 -2l-69 -153h-318v9q21 29 53 58t59.5 51t53.5 49t41 63.5t15 82.5q0 24 -12 42t-36 18q-7 0 -11 -1q21 -24 21 -53q0 -30 -18 -52.5t-48 -22.5q-24 0 -36 16t-12 35q0 51 52.5 78.5
t112.5 27.5q74 0 108 -26.5t34 -65.5q0 -41 -33 -75t-74.5 -53t-90 -42.5t-68.5 -42.5zM521 383h170q29 0 48.5 8.5t25.5 19t12 17t13 3.5l5 -2l-55 -144q-64 8 -154 8h-74l-24 -81q56 25 122 25q62 0 96.5 -28t34.5 -74q0 -61 -53.5 -103t-155.5 -42q-68 0 -102.5 22.5
t-34.5 58.5q0 50 45 76t92 15l4 -12q-26 -37 -26 -107q0 -35 22 -35q23 0 39.5 39.5t16.5 85.5q0 68 -58 68q-24 0 -56 -12l-8 6z" />
    <glyph glyph-name="threefifths" horiz-adv-x="731" 
d="M632 720l-410 -759h-21l411 759h20zM296 516l-1 -2q50 -7 76 -32t26 -61q0 -53 -54 -91.5t-147 -38.5q-75 0 -112 24t-37 62q0 45 36 67.5t91 22.5l4 -11q-26 -28 -26 -105q0 -44 32 -44q29 0 46 40t17 85q0 42 -22.5 55t-69.5 14l-1 14q111 20 111 121q0 20 -9.5 33
t-27.5 13q-7 0 -11 -1q11 -17 11 -39q0 -30 -18 -53.5t-50 -23.5q-24 0 -36.5 13.5t-12.5 32.5q0 42 44 66.5t113 24.5q75 0 109 -24t34 -60q0 -33 -29.5 -63t-85.5 -39zM509 383h170q29 0 48.5 8.5t25.5 19t12 17t13 3.5l5 -2l-55 -144q-64 8 -154 8h-74l-24 -81
q56 25 122 25q62 0 96.5 -28t34.5 -74q0 -61 -53.5 -103t-155.5 -42q-68 0 -102.5 22.5t-34.5 58.5q0 50 45 76t92 15l4 -12q-26 -37 -26 -107q0 -35 22 -35q23 0 39.5 39.5t16.5 85.5q0 68 -58 68q-24 0 -56 -12l-8 6z" />
    <glyph glyph-name="fourfifths" horiz-adv-x="731" 
d="M668 720l-410 -759h-21l411 759h20zM409 692l1 -2q-96 -148 -339 -266h157l13 74q82 16 144 54l4 -2l-21 -126h47l-3 -17h-47q-8 -38 -8 -60q0 -20 18 -26t18 -13v-8h-229l1 9q1 5 17 10q13 5 19.5 10.5t13 24t10.5 53.5h-180q0 5 2 15q95 111 199 270h163zM526 383h170
q29 0 48.5 8.5t25.5 19t12 17t13 3.5l5 -2l-55 -144q-64 8 -154 8h-74l-24 -81q56 25 122 25q62 0 96.5 -28t34.5 -74q0 -61 -53.5 -103t-155.5 -42q-68 0 -102.5 22.5t-34.5 58.5q0 50 45 76t92 15l4 -12q-26 -37 -26 -107q0 -35 22 -35q23 0 39.5 39.5t16.5 85.5
q0 68 -58 68q-24 0 -56 -12l-8 6z" />
    <glyph glyph-name="onesixth" horiz-adv-x="731" 
d="M612 720l-410 -759h-21l411 759h20zM349 697l-55 -339q-2 -15 3 -24t12.5 -11.5t13.5 -5.5t5 -8l-1 -9h-228l1 7q1 7 12 10t23.5 11t15.5 26l42 262q4 22 -17 27q-2 0 -6 1q-18 5 -18 12l1 7l191 38zM527 -9q-157 0 -157 117q0 99 96 181t250 115l3 -15
q-108 -36 -161 -125.5t-53 -215.5q0 -41 27 -41q26 0 44 46.5t18 107.5q0 57 -32 61l3 14q19 5 50 5q51 0 85 -22.5t34 -69.5q0 -65 -56.5 -111.5t-150.5 -46.5z" />
    <glyph glyph-name="fivesixths" horiz-adv-x="731" 
d="M633 720l-410 -759h-21l411 759h20zM175 684h170q29 0 48.5 8.5t25.5 19t12 17t13 3.5l5 -2l-55 -144q-64 8 -154 8h-74l-24 -81q56 25 122 25q62 0 96.5 -28t34.5 -74q0 -61 -53.5 -103t-155.5 -42q-68 0 -102.5 22.5t-34.5 58.5q0 50 45 76t92 15l4 -12
q-26 -37 -26 -107q0 -35 22 -35q23 0 39.5 39.5t16.5 85.5q0 68 -58 68q-24 0 -56 -12l-8 6zM541 -9q-157 0 -157 117q0 99 96 181t250 115l3 -15q-108 -36 -161 -125.5t-53 -215.5q0 -41 27 -41q26 0 44 46.5t18 107.5q0 57 -32 61l3 14q19 5 50 5q51 0 85 -22.5t34 -69.5
q0 -65 -56.5 -111.5t-150.5 -46.5z" />
    <glyph glyph-name="oneeighth" horiz-adv-x="731" 
d="M617 720l-410 -759h-21l411 759h20zM360 697l-55 -339q-2 -15 3 -24t12.5 -11.5t13.5 -5.5t5 -8l-1 -9h-228l1 7q1 7 12 10t23.5 11t15.5 26l42 262q4 22 -17 27q-2 0 -6 1q-18 5 -18 12l1 7l191 38zM531 -9q-56 0 -105.5 21.5t-49.5 66.5q0 38 30.5 67.5t74.5 38.5
q-56 46 -56 88q0 60 56 93.5t125 33.5q53 0 93 -18.5t40 -55.5q0 -30 -23 -54t-65 -31q84 -55 84 -109q0 -50 -34 -83t-77.5 -45.5t-92.5 -12.5zM536 7q27 0 45.5 18.5t18.5 41.5q0 13 -6.5 25.5t-20 24t-24 19.5t-29 20t-24.5 16q-36 -36 -36 -88q0 -34 19 -55.5t57 -21.5z
M602 384q-24 0 -40.5 -15t-16.5 -37q0 -12 10 -24t20.5 -19.5t30.5 -20t27 -17.5q19 44 19 78q0 55 -50 55z" />
    <glyph glyph-name="threeeighths" horiz-adv-x="731" 
d="M620 720l-410 -759h-21l411 759h20zM299 516l-1 -2q50 -7 76 -32t26 -61q0 -53 -54 -91.5t-147 -38.5q-75 0 -112 24t-37 62q0 45 36 67.5t91 22.5l4 -11q-26 -28 -26 -105q0 -44 32 -44q29 0 46 40t17 85q0 42 -22.5 55t-69.5 14l-1 14q111 20 111 121q0 20 -9.5 33
t-27.5 13q-7 0 -11 -1q11 -17 11 -39q0 -30 -18 -53.5t-50 -23.5q-25 0 -37 13.5t-12 32.5q0 42 44 66.5t113 24.5q75 0 109 -24t34 -60q0 -33 -29.5 -63t-85.5 -39zM528 -9q-56 0 -105.5 21.5t-49.5 66.5q0 38 30.5 67.5t74.5 38.5q-56 46 -56 88q0 60 56 93.5t125 33.5
q53 0 93 -18.5t40 -55.5q0 -30 -23 -54t-65 -31q84 -55 84 -109q0 -50 -34 -83t-77.5 -45.5t-92.5 -12.5zM533 7q27 0 45.5 18.5t18.5 41.5q0 13 -6.5 25.5t-20 24t-24 19.5t-29 20t-24.5 16q-36 -36 -36 -88q0 -34 19 -55.5t57 -21.5zM599 384q-24 0 -40.5 -15t-16.5 -37
q0 -12 10 -24t20.5 -19.5t30.5 -20t27 -17.5q19 44 19 78q0 55 -50 55z" />
    <glyph glyph-name="fiveeighths" horiz-adv-x="731" 
d="M623 720l-410 -759h-21l411 759h20zM176 684h170q29 0 48.5 8.5t25.5 19t12 17t13 3.5l5 -2l-55 -144q-64 8 -154 8h-74l-24 -81q56 25 122 25q62 0 96.5 -28t34.5 -74q0 -61 -53.5 -103t-155.5 -42q-68 0 -102.5 22.5t-34.5 58.5q0 50 45 76t92 15l4 -12
q-26 -37 -26 -107q0 -35 22 -35q23 0 39.5 39.5t16.5 85.5q0 68 -58 68q-24 0 -56 -12l-8 6zM539 -9q-56 0 -105.5 21.5t-49.5 66.5q0 38 30.5 67.5t74.5 38.5q-56 46 -56 88q0 60 56 93.5t125 33.5q53 0 93 -18.5t40 -55.5q0 -30 -23 -54t-65 -31q84 -55 84 -109
q0 -50 -34 -83t-77.5 -45.5t-92.5 -12.5zM544 7q27 0 45.5 18.5t18.5 41.5q0 13 -6.5 25.5t-20 24t-24 19.5t-29 20t-24.5 16q-36 -36 -36 -88q0 -34 19 -55.5t57 -21.5zM610 384q-24 0 -40.5 -15t-16.5 -37q0 -12 10 -24t20.5 -19.5t30.5 -20t27 -17.5q19 44 19 78
q0 55 -50 55z" />
    <glyph glyph-name="seveneighths" horiz-adv-x="731" 
d="M596 720l-410 -759h-21l411 759h20zM459 689l2 -6q-123 -132 -187 -383h-180q53 86 131 164.5t155 129.5h-161q-28 0 -46.5 -7.5t-25 -16.5t-13 -16t-13.5 -5l-5 1l63 147q75 -8 175 -8h105zM534 -9q-56 0 -105.5 21.5t-49.5 66.5q0 38 30.5 67.5t74.5 38.5
q-56 46 -56 88q0 60 56 93.5t125 33.5q53 0 93 -18.5t40 -55.5q0 -30 -23 -54t-65 -31q84 -55 84 -109q0 -50 -34 -83t-77.5 -45.5t-92.5 -12.5zM539 7q27 0 45.5 18.5t18.5 41.5q0 13 -6.5 25.5t-20 24t-24 19.5t-29 20t-24.5 16q-36 -36 -36 -88q0 -34 19 -55.5t57 -21.5z
M605 384q-24 0 -40.5 -15t-16.5 -37q0 -12 10 -24t20.5 -19.5t30.5 -20t27 -17.5q19 44 19 78q0 55 -50 55z" />
    <glyph glyph-name="zero.numerator" horiz-adv-x="404" 
d="M279 700q82 0 120 -44.5t38 -112.5q0 -41 -14.5 -84t-41.5 -81.5t-72 -62.5t-100 -24q-77 0 -115.5 45.5t-38.5 116.5q0 100 62 173.5t162 73.5zM214 307q28 0 56.5 130.5t28.5 201.5q0 46 -22 46q-29 0 -57 -134.5t-28 -200.5q0 -43 22 -43z" />
    <glyph glyph-name="one.numerator" horiz-adv-x="386" 
d="M345 697l-55 -339q-2 -15 3 -24t12.5 -11.5t13.5 -5.5t5 -8l-1 -9h-228l1 7q1 7 12 10t23.5 11t15.5 26l42 262q4 22 -17 27q-2 0 -6 1q-18 5 -18 12l1 7l191 38z" />
    <glyph glyph-name="two.numerator" horiz-adv-x="404" 
d="M133 396h166q29 0 49 10.5t28 22.5t15 20t13 6l5 -2l-69 -153h-318v9q21 29 53 58t59.5 51t53.5 49t41 63.5t15 82.5q0 24 -12 42t-36 18q-7 0 -11 -1q21 -24 21 -53q0 -30 -18 -52.5t-48 -22.5q-24 0 -36 16t-12 35q0 51 52.5 78.5t112.5 27.5q74 0 108 -26.5t34 -65.5
q0 -41 -33 -75t-74.5 -53t-90 -42.5t-68.5 -42.5z" />
    <glyph glyph-name="three.numerator" horiz-adv-x="404" 
d="M293 516l-1 -2q50 -7 76 -32t26 -61q0 -53 -54 -91.5t-147 -38.5q-75 0 -112 24t-37 62q0 45 36 67.5t91 22.5l4 -11q-26 -28 -26 -105q0 -44 32 -44q29 0 46 40t17 85q0 42 -22.5 55t-69.5 14l-1 14q111 20 111 121q0 20 -9.5 33t-27.5 13q-7 0 -11 -1q11 -17 11 -39
q0 -30 -18 -53.5t-50 -23.5q-25 0 -37 13.5t-12 32.5q0 42 44 66.5t113 24.5q75 0 109 -24t34 -60q0 -33 -29.5 -63t-85.5 -39z" />
    <glyph glyph-name="four.numerator" horiz-adv-x="404" 
d="M404 692l1 -2q-96 -148 -339 -266h157l13 74q82 16 144 54l4 -2l-21 -126h47l-3 -17h-47q-8 -38 -8 -60q0 -20 18 -26t18 -13v-8h-229l1 9q1 5 17 10q13 5 19.5 10.5t13 24t10.5 53.5h-180q0 5 2 15q95 111 199 270h163z" />
    <glyph glyph-name="five.numerator" horiz-adv-x="404" 
d="M174 684h170q29 0 48.5 8.5t25.5 19t12 17t13 3.5l5 -2l-55 -144q-64 8 -154 8h-74l-24 -81q56 25 122 25q62 0 96.5 -28t34.5 -74q0 -61 -53.5 -103t-155.5 -42q-68 0 -102.5 22.5t-34.5 58.5q0 50 45 76t92 15l4 -12q-26 -37 -26 -107q0 -35 22 -35q23 0 39.5 39.5
t16.5 85.5q0 68 -58 68q-24 0 -56 -12l-8 6z" />
    <glyph glyph-name="six.numerator" horiz-adv-x="404" 
d="M210 291q-159 0 -159 117q0 100 96.5 181.5t251.5 114.5l2 -15q-108 -36 -161 -125.5t-53 -215.5q0 -41 27 -41q26 0 44 46.5t18 107.5q0 57 -31 61l2 14q19 5 51 5q51 0 85 -22.5t34 -69.5q0 -65 -56.5 -111.5t-150.5 -46.5z" />
    <glyph glyph-name="seven.numerator" horiz-adv-x="389" 
d="M436 689l2 -6q-123 -132 -187 -383h-180q53 86 131 164.5t155 129.5h-161q-28 0 -46.5 -7.5t-25 -16.5t-13 -16t-13.5 -5l-5 1l63 147q75 -8 175 -8h105z" />
    <glyph glyph-name="eight.numerator" horiz-adv-x="404" 
d="M207 291q-56 0 -105.5 21.5t-49.5 66.5q0 38 30.5 67.5t74.5 38.5q-55 47 -55 88q0 60 56 93.5t124 33.5q54 0 94 -18.5t40 -55.5q0 -29 -23 -53.5t-64 -31.5q39 -27 61 -52t22 -57q0 -50 -34 -83t-78 -45.5t-93 -12.5zM213 307q26 0 45 18.5t19 41.5q0 13 -6.5 25
t-20.5 24.5t-24 20t-30 20t-24 15.5q-36 -37 -36 -88q0 -34 19.5 -55.5t57.5 -21.5zM279 684q-24 0 -41 -15t-17 -37q0 -15 12.5 -28t41.5 -30.5t35 -22.5q19 44 19 78q0 55 -50 55z" />
    <glyph glyph-name="nine.numerator" horiz-adv-x="404" 
d="M277 702q159 0 159 -117q0 -99 -96.5 -181t-250.5 -115l-3 15q107 34 160.5 125t53.5 217q0 41 -27 41q-26 0 -43.5 -47t-17.5 -108q0 -58 31 -60l-2 -15q-27 -5 -52 -5q-51 0 -85 23t-34 69q0 65 56.5 111.5t150.5 46.5z" />
    <glyph glyph-name="zero.denominator" horiz-adv-x="404" 
d="M227 400q82 0 120 -44.5t38 -112.5q0 -57 -23.5 -112.5t-77.5 -97.5t-127 -42q-77 0 -115 45.5t-38 116.5q0 100 62 173.5t161 73.5zM163 7q28 0 56.5 130.5t28.5 201.5q0 46 -23 46q-29 0 -56.5 -134.5t-27.5 -200.5q0 -43 22 -43z" />
    <glyph glyph-name="one.denominator" horiz-adv-x="386" 
d="M293 397l-55 -339q-2 -15 3 -24t12.5 -11.5t13.5 -5.5t5 -8l-1 -9h-228l1 7q1 7 12 10t23.5 11t15.5 26l42 262q4 22 -17 27q-22 4 -24 9v4l1 7l191 38z" />
    <glyph glyph-name="two.denominator" horiz-adv-x="404" 
d="M101 96h166q29 0 49 10.5t28 22.5t15 20t13 6l5 -2l-69 -153h-318v9q21 29 53 58t59.5 51t53.5 49t41 63.5t15 82.5q0 24 -12 42t-36 18q-7 0 -11 -1q21 -24 21 -53q0 -30 -18 -52.5t-48 -22.5q-24 0 -36 16t-12 35q0 51 52.5 78.5t112.5 27.5q74 0 108 -26.5t34 -65.5
q0 -41 -33 -75t-74.5 -53t-90 -42.5t-68.5 -42.5z" />
    <glyph glyph-name="three.denominator" horiz-adv-x="404" 
d="M244 215l-1 -2q50 -7 76 -32t26 -61q0 -53 -54 -91.5t-147 -38.5q-75 0 -112 24t-37 62q0 45 36 67.5t91 22.5l4 -11q-26 -28 -26 -105q0 -44 32 -44q29 0 46 40t17 85q0 42 -22.5 55t-69.5 14l-1 14q111 20 111 121q0 20 -9.5 33t-27.5 13q-7 0 -11 -1q11 -17 11 -39
q0 -30 -18 -53.5t-50 -23.5q-24 0 -36.5 13.5t-12.5 32.5q0 42 44 66.5t113 24.5q75 0 109 -24t34 -60q0 -33 -29.5 -63t-85.5 -39z" />
    <glyph glyph-name="four.denominator" horiz-adv-x="404" 
d="M352 393l1 -2q-96 -148 -339 -266h157l13 74q82 16 144 54l4 -2l-21 -126h47l-3 -17h-47q-8 -38 -8 -60q0 -20 18 -26t18 -13v-8h-229l1 9q1 5 17 10q13 5 19.5 10.5t13 24t10.5 53.5h-180q0 5 2 15q95 111 199 270h163z" />
    <glyph glyph-name="five.denominator" horiz-adv-x="404" 
d="M126 383h170q29 0 48.5 8.5t25.5 19t12 17t13 3.5l5 -2l-55 -144q-64 8 -154 8h-74l-24 -81q56 25 122 25q62 0 96.5 -28t34.5 -74q0 -61 -53.5 -103t-155.5 -42q-68 0 -102.5 22.5t-34.5 58.5q0 50 45 76t92 15l4 -12q-26 -37 -26 -107q0 -35 22 -35q23 0 39.5 39.5
t16.5 85.5q0 68 -58 68q-24 0 -56 -12l-8 6z" />
    <glyph glyph-name="six.denominator" horiz-adv-x="404" 
d="M158 -9q-157 0 -157 117q0 99 96 181t250 115l3 -15q-108 -36 -161 -125.5t-53 -215.5q0 -41 27 -41q26 0 44 46.5t18 107.5q0 57 -32 61l3 14q19 5 50 5q51 0 85 -22.5t34 -69.5q0 -65 -56.5 -111.5t-150.5 -46.5z" />
    <glyph glyph-name="seven.denominator" horiz-adv-x="389" 
d="M383 389l2 -6q-123 -132 -187 -383h-180q53 86 131 164.5t155 129.5h-161q-28 0 -46.5 -7.5t-25 -16.5t-13 -16t-13.5 -5l-5 1l63 147q75 -8 175 -8h105z" />
    <glyph glyph-name="eight.denominator" horiz-adv-x="404" 
d="M156 -9q-56 0 -105.5 21.5t-49.5 66.5q0 38 30.5 67.5t74.5 38.5q-56 46 -56 88q0 60 56 93.5t125 33.5q53 0 93 -18.5t40 -55.5q0 -30 -23 -54t-65 -31q84 -55 84 -109q0 -50 -34 -83t-77.5 -45.5t-92.5 -12.5zM161 7q27 0 45.5 18.5t18.5 41.5q0 13 -6.5 25.5t-20 24
t-24 19.5t-29 20t-24.5 16q-36 -36 -36 -88q0 -34 19 -55.5t57 -21.5zM227 384q-24 0 -40.5 -15t-16.5 -37q0 -12 10 -24t20.5 -19.5t30.5 -20t27 -17.5q19 44 19 78q0 55 -50 55z" />
    <glyph glyph-name="nine.denominator" horiz-adv-x="404" 
d="M226 402q158 0 158 -116q0 -100 -96 -182t-251 -115l-3 15q109 35 162 125t53 216q0 42 -27 42q-26 0 -43.5 -47.5t-17.5 -108.5q0 -57 30 -59l-2 -15q-25 -5 -51 -5q-51 0 -85 23t-34 69q0 65 56.5 111.5t150.5 46.5z" />
    </font>
</defs>
</svg>
