<?xml version="1.0" encoding="utf-8"?>
<!-- Generator: Adobe Illustrator 24.1.3, SVG Export Plug-In . SVG Version: 6.00 Build 0)  -->
<svg version="1.1" id="Layer_1" xmlns="http://www.w3.org/2000/svg" xmlns:xlink="http://www.w3.org/1999/xlink" x="0px" y="0px"
	 viewBox="0 0 452.23 130.48" style="enable-background:new 0 0 452.23 130.48;" xml:space="preserve">
<style type="text/css">
	.st0{fill:#FAE400;}
	.st1{fill:#45B0E3;}
	.st2{fill:#F7931F;}
	.st3{fill:#48B648;}
	.st4{fill:#915BA3;}
	.st5{fill:#005889;}
	.st6{fill:#016A38;}
	.st7{fill:#E81F79;}
	.st8{fill:#EA2327;}
	.st9{fill:#BE272C;}
</style>
<g>
	<g>
		<path d="M156.62,108.9l2.24-2.57c5.08,4.69,9.77,6.86,16.56,6.86c6.93,0,11.68-3.89,11.68-9.17v-0.13c0-4.88-2.57-7.72-13.07-9.83
			c-11.09-2.24-15.57-6-15.57-13v-0.13c0-6.86,6.27-12.14,14.85-12.14c6.73,0,11.15,1.85,15.84,5.61l-2.18,2.71
			c-4.36-3.76-8.71-5.21-13.79-5.21c-6.8,0-11.29,3.89-11.29,8.71v0.13c0,4.88,2.51,7.85,13.46,10.1c10.69,2.18,15.18,6,15.18,12.74
			v0.13c0,7.46-6.4,12.6-15.31,12.6C167.84,116.29,162.16,113.85,156.62,108.9z"/>
		<path d="M199.19,69.44h3.43v21.38h29.57V69.44h3.43v46.2h-3.43V93.99h-29.57v21.65h-3.43V69.44z"/>
		<path d="M247.17,69.44h3.43v46.2h-3.43V69.44z"/>
		<path d="M262.15,69.44h16.76c10.16,0,17.16,5.21,17.16,14.12v0.13c0,9.7-8.38,14.72-18.02,14.72h-12.47v17.22h-3.43V69.44z
			 M278.25,95.24c8.58,0,14.39-4.49,14.39-11.35v-0.13c0-7.33-5.67-11.15-13.99-11.15h-13.07v22.64H278.25z"/>
		<path d="M303.6,69.44h16.76c10.16,0,17.16,5.21,17.16,14.12v0.13c0,9.7-8.38,14.72-18.02,14.72h-12.47v17.22h-3.43V69.44z
			 M319.7,95.24c8.58,0,14.39-4.49,14.39-11.35v-0.13c0-7.33-5.67-11.15-13.99-11.15h-13.07v22.64H319.7z"/>
		<path d="M345.51,69.44h3.43v46.2h-3.43V69.44z"/>
		<path d="M360.49,69.44h3.23l31.88,40.19V69.44h3.3v46.2h-2.57l-32.54-41.05v41.05h-3.3V69.44z"/>
		<path d="M407.94,92.67v-0.13c0-12.47,9.04-23.89,22.83-23.89c7.52,0,12.28,2.24,16.89,6.07l-2.24,2.57
			c-3.63-3.17-7.85-5.54-14.85-5.54c-11.22,0-19.07,9.5-19.07,20.66v0.13c0,11.95,7.46,20.85,19.8,20.85
			c5.87,0,11.35-2.44,14.72-5.28V94.85h-15.44v-3.17h18.74v17.82c-4.16,3.7-10.62,6.93-18.15,6.93
			C416.59,116.43,407.94,105.67,407.94,92.67z"/>
	</g>
	<g>
		<path d="M158.27,9.9h35.18v9.24h-25.01v9.83h22.04v9.24h-22.04V56.1h-10.16V9.9z"/>
		<path d="M197.07,9.9h10.16v36.96h23.03v9.24h-33.2V9.9z"/>
		<path d="M233.44,9.9h34.85v9.04h-24.75v9.37h21.78v9.04h-21.78v9.7h25.08v9.04h-35.18V9.9z"/>
		<path d="M313.23,9.9l-15.44,22.57l16.1,23.63h-11.88l-10.36-15.84L281.22,56.1h-11.55l16.1-23.5L270.33,9.9h11.88l9.64,14.98
			l9.83-14.98H313.23z"/>
		<path d="M317.46,9.9h10.16v46.2h-10.16V9.9z"/>
		<path d="M334.68,9.9h21.45c5.32,0,9.35,1.36,12.08,4.09c2.11,2.11,3.17,4.73,3.17,7.85v0.13c0,4.36-2.02,7.68-6.07,9.97
			c5.76,2.2,8.65,5.98,8.65,11.35v0.13c0,4.14-1.58,7.3-4.75,9.5c-2.99,2.11-7.17,3.17-12.54,3.17h-21.98V9.9z M361.28,23.56
			c0-3.17-2.22-4.75-6.67-4.75h-10.03v9.77h9.37c4.88,0,7.33-1.63,7.33-4.88V23.56z M363.86,42.04c0-3.34-2.51-5.02-7.52-5.02
			h-11.75v10.16h12.08c4.79,0,7.19-1.67,7.19-5.02V42.04z"/>
		<path d="M377.85,9.9h10.16v36.96h23.03v9.24h-33.2V9.9z"/>
		<path d="M414.21,9.9h34.85v9.04h-24.75v9.37h21.78v9.04h-21.78v9.7h25.08v9.04h-35.18V9.9z"/>
	</g>
</g>
<g>
	<polygon id="_x31_" class="st0" points="146.23,62.81 117.04,45.96 117.04,79.67 	"/>
	<polygon id="_x32_" class="st1" points="117.04,45.96 87.84,29.1 87.84,62.81 	"/>
	<polygon id="_x33_" class="st2" points="87.84,62.81 117.04,79.67 117.04,45.96 	"/>
	<polygon id="_x34_" class="st3" points="117.04,79.67 87.84,62.81 87.84,96.53 	"/>
	<polygon id="_x35_" class="st4" points="87.84,29.1 58.64,12.24 58.64,45.96 	"/>
	<polygon id="_x36_" class="st5" points="58.64,45.96 87.84,62.81 87.84,29.1 	"/>
	<polygon id="_x37_" class="st6" points="58.64,79.67 87.84,96.53 87.84,62.81 	"/>
	<polygon id="_x39_" class="st7" points="87.84,96.53 58.64,79.67 58.64,113.38 	"/>
	<polygon id="_x31_0" class="st8" points="65.2,62.81 36,45.96 36,79.67 	"/>
	<polygon id="_x31_1" class="st9" points="29.2,62.81 0,45.96 0,79.67 	"/>
</g>
</svg>
