<svg id="Layer_1" data-name="Layer 1" xmlns="http://www.w3.org/2000/svg" xmlns:xlink="http://www.w3.org/1999/xlink" viewBox="0 0 1221 72.32">
  <defs>
    <style>
      .cls-1 {
        fill: none;
      }

      .cls-2 {
        fill: #191a1d;
      }

      .cls-3 {
        fill: #24262d;
      }

      .cls-4 {
        fill: #d61e48;
      }

      .cls-5 {
        fill: #fff;
      }

      .cls-6 {
        clip-path: url(#clip-path);
      }

      .cls-7 {
        fill: #cf1e46;
      }

      .cls-8 {
        clip-path: url(#clip-path-2);
      }
    </style>
    <clipPath id="clip-path">
      <rect class="cls-1" x="530.97" y="29.2" width="61.7" height="16.2" transform="translate(55.1 282.8) rotate(-29.65)"/>
    </clipPath>
    <clipPath id="clip-path-2">
      <rect class="cls-1" x="653" y="31" width="16.1" height="16.1"/>
    </clipPath>
  </defs>
  <title>black-friday-woo-feed</title>
  <g id="bg">
    <rect class="cls-2" width="1221" height="72"/>
    <path class="cls-3" d="M462.5,0C321.3,66.8,95.33,75.5,0,71.5V0Z"/>
    <path class="cls-3" d="M1221,72V0c-68.27,0-178,20-240,72Z"/>
    <g id="button">
      <path class="cls-4" d="M1070.94,20h98.12A15.93,15.93,0,0,1,1185,35.94h0a15.93,15.93,0,0,1-15.94,15.93h-98.12A15.93,15.93,0,0,1,1055,35.94h0A15.93,15.93,0,0,1,1070.94,20Z"/>
      <path class="cls-5" d="M1074,41l-2.46-4.35h-1.06V41h-2.24V29.83h4.19a4.81,4.81,0,0,1,2.21.47,3,3,0,0,1,1.36,1.23,3.28,3.28,0,0,1,.47,1.73,3.43,3.43,0,0,1-.64,2,3.35,3.35,0,0,1-1.91,1.21l2.67,4.53Zm-3.52-6h1.87a1.93,1.93,0,0,0,1.36-.43,1.67,1.67,0,0,0,.45-1.24,1.53,1.53,0,0,0-.45-1.18,1.88,1.88,0,0,0-1.36-.43h-1.87Zm16.25,1.41a5.61,5.61,0,0,1-.06.86h-6.48a2.15,2.15,0,0,0,.67,1.5,2,2,0,0,0,1.46.55,1.83,1.83,0,0,0,1.77-1.07h2.42a4.16,4.16,0,0,1-1.47,2.11,4.37,4.37,0,0,1-2.68.81,4.64,4.64,0,0,1-2.3-.56,4.08,4.08,0,0,1-1.58-1.61,5.47,5.47,0,0,1,0-4.82,3.94,3.94,0,0,1,1.56-1.6,4.77,4.77,0,0,1,2.32-.56,4.53,4.53,0,0,1,2.26.55,3.74,3.74,0,0,1,1.55,1.55A4.6,4.6,0,0,1,1086.71,36.38Zm-2.32-.64a1.76,1.76,0,0,0-.62-1.38,2.21,2.21,0,0,0-1.49-.53,2.05,2.05,0,0,0-1.41.51,2.25,2.25,0,0,0-.69,1.4Zm12.2.64a5.54,5.54,0,0,1-.07.86H1090a2.24,2.24,0,0,0,.67,1.5,2.06,2.06,0,0,0,1.46.55,1.85,1.85,0,0,0,1.78-1.07h2.41a4,4,0,0,1-1.47,2.11,4.36,4.36,0,0,1-2.67.81,4.67,4.67,0,0,1-2.31-.56,4.08,4.08,0,0,1-1.58-1.61,5.47,5.47,0,0,1,0-4.82,4,4,0,0,1,1.57-1.6,4.71,4.71,0,0,1,2.32-.56,4.52,4.52,0,0,1,2.25.55,3.76,3.76,0,0,1,1.56,1.55A4.6,4.6,0,0,1,1096.59,36.38Zm-2.32-.64a1.74,1.74,0,0,0-.63-1.38,2.19,2.19,0,0,0-1.49-.53,2,2,0,0,0-1.4.51,2.16,2.16,0,0,0-.69,1.4Zm3.38.8a5.25,5.25,0,0,1,.52-2.39,4.09,4.09,0,0,1,1.48-1.6,3.91,3.91,0,0,1,2.06-.56,3.67,3.67,0,0,1,1.65.39,3.17,3.17,0,0,1,1.25,1V29.16h2.27V41h-2.27V39.69a3,3,0,0,1-1.17,1.05,3.64,3.64,0,0,1-1.75.4,3.8,3.8,0,0,1-2-.57,4.15,4.15,0,0,1-1.48-1.62A5.34,5.34,0,0,1,1097.65,36.54Zm7,0a2.83,2.83,0,0,0-.32-1.39,2.14,2.14,0,0,0-.86-.9,2.31,2.31,0,0,0-1.17-.32,2.27,2.27,0,0,0-1.15.3,2.51,2.51,0,0,0-.87.9,2.82,2.82,0,0,0-.32,1.38,3,3,0,0,0,.32,1.4,2.57,2.57,0,0,0,.87.92,2.24,2.24,0,0,0,1.15.32,2.41,2.41,0,0,0,1.17-.31,2.3,2.3,0,0,0,.86-.89A3,3,0,0,0,1104.62,36.57Zm12.68-.19a5.61,5.61,0,0,1-.06.86h-6.48a2.19,2.19,0,0,0,.67,1.5,2.06,2.06,0,0,0,1.46.55,1.83,1.83,0,0,0,1.77-1.07h2.42a4.16,4.16,0,0,1-1.47,2.11,4.36,4.36,0,0,1-2.67.81,4.67,4.67,0,0,1-2.31-.56,4.08,4.08,0,0,1-1.58-1.61,5.47,5.47,0,0,1,0-4.82,3.9,3.9,0,0,1,1.57-1.6,4.71,4.71,0,0,1,2.32-.56,4.52,4.52,0,0,1,2.25.55,3.74,3.74,0,0,1,1.55,1.55A4.49,4.49,0,0,1,1117.3,36.38Zm-2.32-.64a1.73,1.73,0,0,0-.62-1.38,2.19,2.19,0,0,0-1.49-.53,2.07,2.07,0,0,0-1.41.51,2.2,2.2,0,0,0-.68,1.4ZM1130,32a3.47,3.47,0,0,1,2.62,1,3.73,3.73,0,0,1,1,2.78V41h-2.24V36.1a2.19,2.19,0,0,0-.53-1.58,1.89,1.89,0,0,0-1.44-.56,1.93,1.93,0,0,0-1.45.56,2.14,2.14,0,0,0-.53,1.58V41h-2.24V36.1a2.19,2.19,0,0,0-.53-1.58,1.89,1.89,0,0,0-1.44-.56,2,2,0,0,0-1.47.56,2.19,2.19,0,0,0-.53,1.58V41h-2.24V32.14h2.24v1.07a3,3,0,0,1,1.1-.88,3.44,3.44,0,0,1,1.51-.32,3.75,3.75,0,0,1,1.85.45,3,3,0,0,1,1.27,1.24,3.21,3.21,0,0,1,1.25-1.23A3.59,3.59,0,0,1,1130,32Zm19.12,9h-2.24l-5.07-7.66V41h-2.24V29.82h2.24l5.07,7.68V29.82h2.24Zm6.15.14a4.64,4.64,0,0,1-2.3-.56A4.11,4.11,0,0,1,1151.3,39a5,5,0,0,1-.58-2.4,4.7,4.7,0,0,1,.6-2.4,4.07,4.07,0,0,1,1.64-1.6,4.67,4.67,0,0,1,2.32-.58,4.62,4.62,0,0,1,2.32.58,4,4,0,0,1,1.64,1.6,4.7,4.7,0,0,1,.6,2.4,4.57,4.57,0,0,1-.62,2.4,4.28,4.28,0,0,1-1.66,1.61A4.82,4.82,0,0,1,1155.22,41.14Zm0-2a2.28,2.28,0,0,0,1.14-.29,2.17,2.17,0,0,0,.86-.89,3.06,3.06,0,0,0,.32-1.44,2.63,2.63,0,0,0-.67-1.94,2.15,2.15,0,0,0-1.62-.69,2.12,2.12,0,0,0-1.61.69,2.7,2.7,0,0,0-.64,1.94,2.79,2.79,0,0,0,.62,2A2.11,2.11,0,0,0,1155.22,39.19Zm18.55-7L1171.18,41h-2.41l-1.62-6.19L1165.53,41h-2.43l-2.61-8.86h2.28l1.56,6.75,1.7-6.75h2.37l1.66,6.73,1.57-6.73Z"/>
    </g>
  </g>
  <g id="pattern">
    <g class="cls-6">
      <g>
        <path class="cls-7" d="M574.81,36.58a1.2,1.2,0,1,0,1.64.45A1.15,1.15,0,0,0,574.81,36.58Z"/>
        <path class="cls-7" d="M568.81,40a1.2,1.2,0,1,0,1.64.45A1.16,1.16,0,0,0,568.81,40Z"/>
        <path class="cls-7" d="M562.82,43.4a1.2,1.2,0,1,0,1.63.45A1.16,1.16,0,0,0,562.82,43.4Z"/>
        <path class="cls-7" d="M556.91,46.77a1.2,1.2,0,1,0,1.63.45A1.27,1.27,0,0,0,556.91,46.77Z"/>
        <path class="cls-7" d="M550.91,50.18a1.2,1.2,0,1,0,1.64.45A1.29,1.29,0,0,0,550.91,50.18Z"/>
        <path class="cls-7" d="M544.91,53.59a1.16,1.16,0,0,0-.44,1.64,1.14,1.14,0,0,0,1.63.45,1.16,1.16,0,0,0,.45-1.64A1.23,1.23,0,0,0,544.91,53.59Z"/>
        <path class="cls-7" d="M538.92,57a1.13,1.13,0,0,0-.5,1.55,1.2,1.2,0,1,0,2.09-1.19A1.2,1.2,0,0,0,538.92,57Z"/>
        <path class="cls-7" d="M578.48,26.44a1.2,1.2,0,1,0,1.63.45A1.21,1.21,0,0,0,578.48,26.44Z"/>
        <path class="cls-7" d="M572.48,29.85a1.2,1.2,0,1,0,1.63.45A1.21,1.21,0,0,0,572.48,29.85Z"/>
        <path class="cls-7" d="M566.57,33.22a1.14,1.14,0,0,0-.45,1.63,1.16,1.16,0,0,0,1.64.45,1.17,1.17,0,0,0,.45-1.64A1.38,1.38,0,0,0,566.57,33.22Z"/>
        <path class="cls-7" d="M560.57,36.63a1.2,1.2,0,1,0,1.64.45A1.39,1.39,0,0,0,560.57,36.63Z"/>
        <path class="cls-7" d="M554.58,40a1.2,1.2,0,1,0,1.63.45A1.28,1.28,0,0,0,554.58,40Z"/>
        <path class="cls-7" d="M548.58,43.46a1.14,1.14,0,0,0-.45,1.63,1.16,1.16,0,0,0,1.64.45,1.17,1.17,0,0,0,.45-1.64A1.29,1.29,0,0,0,548.58,43.46Z"/>
        <path class="cls-7" d="M542.58,46.87a1.22,1.22,0,0,0-.45,1.63,1.2,1.2,0,0,0,2.09-1.18A1.29,1.29,0,0,0,542.58,46.87Z"/>
        <path class="cls-7" d="M583.67,15.54a1.16,1.16,0,0,0-.45,1.64,1.14,1.14,0,0,0,1.63.45A1.16,1.16,0,0,0,585.3,16,1.29,1.29,0,0,0,583.67,15.54Z"/>
        <path class="cls-7" d="M577.67,19a1.2,1.2,0,1,0,1.64.45A1.22,1.22,0,0,0,577.67,19Z"/>
        <path class="cls-7" d="M571.67,22.37a1.2,1.2,0,1,0,1.64.45A1.22,1.22,0,0,0,571.67,22.37Z"/>
        <path class="cls-7" d="M565.68,25.78a1.16,1.16,0,0,0-.45,1.64,1.14,1.14,0,0,0,1.63.45,1.16,1.16,0,0,0,.45-1.64A1.22,1.22,0,0,0,565.68,25.78Z"/>
        <path class="cls-7" d="M559.68,29.2a1.2,1.2,0,1,0,1.19,2.08,1.2,1.2,0,1,0-1.19-2.08Z"/>
        <path class="cls-7" d="M553.68,32.61a1.2,1.2,0,1,0,1.64.45A1.16,1.16,0,0,0,553.68,32.61Z"/>
        <path class="cls-7" d="M547.69,36a1.21,1.21,0,0,0-.45,1.64,1.14,1.14,0,0,0,1.63.45A1.2,1.2,0,0,0,547.69,36Z"/>
      </g>
    </g>
    <g class="cls-8">
      <path class="cls-3" d="M669.1,39A8.05,8.05,0,0,1,653,39a8.05,8.05,0,0,1,16.1,0Z"/>
    </g>
    <path class="cls-7" d="M618,18a5,5,0,0,1-10,0,5,5,0,0,1,10,0Z"/>
  </g>
  <path id="sale" class="cls-5" d="M246.21,27.05V38.39a3.77,3.77,0,0,0,.84,2.62,3.13,3.13,0,0,0,2.45.91A3.27,3.27,0,0,0,252,41a3.73,3.73,0,0,0,.86-2.62V27.05h4.62V38.36a8,8,0,0,1-1.08,4.29,6.92,6.92,0,0,1-2.92,2.65,9.06,9.06,0,0,1-4.05.89,9.19,9.19,0,0,1-4-.86,6.69,6.69,0,0,1-2.78-2.65,8.48,8.48,0,0,1-1-4.32V27.05Zm29,6.1a6.21,6.21,0,0,1-.76,3,5.6,5.6,0,0,1-2.32,2.19,8.17,8.17,0,0,1-3.89.84h-2.86V46h-4.62V27.05h7.48a8.52,8.52,0,0,1,3.83.78A5.32,5.32,0,0,1,274.37,30,6.31,6.31,0,0,1,275.16,33.15Zm-7.32,2.37a2.72,2.72,0,0,0,2-.62,2.32,2.32,0,0,0,.65-1.75,2.34,2.34,0,0,0-.65-1.76,2.77,2.77,0,0,0-2-.62h-2.51v4.75Zm23.36-8.47v3.7h-5V46h-4.61V30.75h-5v-3.7Zm11.28,19.14A10,10,0,0,1,297.56,45,9.55,9.55,0,0,1,294,41.49a9.88,9.88,0,0,1-1.29-5,9.78,9.78,0,0,1,1.29-5A9.6,9.6,0,0,1,297.56,28a10,10,0,0,1,4.92-1.24A9.76,9.76,0,0,1,307.36,28a9,9,0,0,1,3.51,3.45,9.69,9.69,0,0,1,1.3,5,9.78,9.78,0,0,1-1.3,5A9.18,9.18,0,0,1,307.36,45,9.76,9.76,0,0,1,302.48,46.19Zm0-4.21a4.62,4.62,0,0,0,3.61-1.51,5.7,5.7,0,0,0,1.38-4,5.64,5.64,0,0,0-1.38-4A4.62,4.62,0,0,0,302.48,31a4.79,4.79,0,0,0-3.68,1.49,5.75,5.75,0,0,0-1.35,4,5.82,5.82,0,0,0,1.35,4A4.79,4.79,0,0,0,302.48,42Zm31.4-11.67h-8.43V34a3.87,3.87,0,0,1,1.52-1,5.56,5.56,0,0,1,2.1-.38,5.68,5.68,0,0,1,3.35.92,5.33,5.33,0,0,1,2,2.37,8.1,8.1,0,0,1,.62,3.16,6.94,6.94,0,0,1-1.78,5,6.65,6.65,0,0,1-5,1.84,9,9,0,0,1-3.76-.73A5.78,5.78,0,0,1,322,43.19a6,6,0,0,1-.95-3h4.51a2.44,2.44,0,0,0,.79,1.4,2.5,2.5,0,0,0,1.7.54,2.27,2.27,0,0,0,1.89-.8,3.5,3.5,0,0,0,.62-2.16,2.89,2.89,0,0,0-.65-2,2.43,2.43,0,0,0-1.89-.7,2.36,2.36,0,0,0-1.51.46,2,2,0,0,0-.79,1.16h-4.45V26.26h12.61Zm3.68,5.57a13,13,0,0,1,1.78-7.32c1.21-1.78,3.14-2.67,5.81-2.67s4.59.89,5.78,2.67a13,13,0,0,1,1.8,7.32,13.08,13.08,0,0,1-1.8,7.37q-1.79,2.67-5.78,2.67c-2.67,0-4.6-.89-5.81-2.67A13.17,13.17,0,0,1,337.56,35.88Zm10.64,0a11.69,11.69,0,0,0-.59-4.19,2.78,2.78,0,0,0-4.92,0,11.69,11.69,0,0,0-.59,4.19,18.42,18.42,0,0,0,.21,3,4,4,0,0,0,.87,1.94,2.53,2.53,0,0,0,2,.73,2.45,2.45,0,0,0,1.94-.73,3.84,3.84,0,0,0,.89-1.94A17.27,17.27,0,0,0,348.2,35.88Zm6.6-4.62A4.45,4.45,0,0,1,356,27.88a4.57,4.57,0,0,1,3.26-1.19,4.2,4.2,0,0,1,4.49,4.57,4.46,4.46,0,0,1-1.24,3.37,4.52,4.52,0,0,1-3.25,1.19A4.57,4.57,0,0,1,356,34.63,4.42,4.42,0,0,1,354.8,31.26ZM373.13,27l-10.4,19h-4.45l10.39-19ZM359.28,29.4c-.87,0-1.3.62-1.3,1.86s.43,1.83,1.3,1.83a1.14,1.14,0,0,0,1-.46,2.25,2.25,0,0,0,.35-1.37Q360.6,29.4,359.28,29.4Zm8.37,12.33a4.44,4.44,0,0,1,1.24-3.37,5,5,0,0,1,6.48,0,4.44,4.44,0,0,1,1.24,3.37,4.45,4.45,0,0,1-1.24,3.38,5,5,0,0,1-6.48,0A4.45,4.45,0,0,1,367.65,41.73Zm4.45-1.86a1.14,1.14,0,0,0-1,.46,2.5,2.5,0,0,0-.32,1.4c0,1.23.43,1.84,1.29,1.84a1.16,1.16,0,0,0,1-.46,2.88,2.88,0,0,0,0-2.75A1.14,1.14,0,0,0,372.1,39.87Zm21.71,6.32A9.92,9.92,0,0,1,388.9,45a9.4,9.4,0,0,1-3.54-3.46,9.88,9.88,0,0,1-1.29-5,9.78,9.78,0,0,1,1.29-5A9.45,9.45,0,0,1,388.9,28a9.92,9.92,0,0,1,4.91-1.24A9.82,9.82,0,0,1,398.7,28a9.09,9.09,0,0,1,3.51,3.45,9.78,9.78,0,0,1,1.3,5,9.88,9.88,0,0,1-1.3,5A9.25,9.25,0,0,1,398.7,45,9.82,9.82,0,0,1,393.81,46.19Zm0-4.21a4.64,4.64,0,0,0,3.62-1.51,5.7,5.7,0,0,0,1.38-4,5.64,5.64,0,0,0-1.38-4A4.64,4.64,0,0,0,393.81,31a4.77,4.77,0,0,0-3.67,1.49,5.75,5.75,0,0,0-1.35,4,5.82,5.82,0,0,0,1.35,4A4.77,4.77,0,0,0,393.81,42Zm24.6-14.93v3.7h-7.72v4h5.78v3.59h-5.78V46h-4.62V27.05Zm14.77,0v3.7h-7.72v4h5.77v3.59h-5.77V46h-4.62V27.05Z"/>
  <g id="woo-feed">
    <path class="cls-5" d="M852.78,28c.36,1.15.71,2.29,1.06,3.52s.8,2.47,1.16,3.7.8,2.37,1.24,3.61.8,2.28,1.16,3.34a37.31,37.31,0,0,0,.88-3.7c.27-1.32.62-2.72.89-4.13s.62-2.91.89-4.31.53-3,.8-4.4h4.08c-.71,3.87-1.51,7.65-2.4,11.26a107.34,107.34,0,0,1-3.1,10.3h-3.82c-1.6-4.14-3.19-8.72-4.7-13.73q-1.2,3.82-2.4,7.13t-2.39,6.6h-3.82q-1.6-4.89-2.93-10.3c-.89-3.61-1.68-7.39-2.4-11.26h4.18c.26,1.4.53,2.81.79,4.31s.54,2.9.89,4.31.62,2.82.89,4.14.62,2.55.89,3.69c.44-1,.79-2.2,1.24-3.34s.8-2.38,1.24-3.61.8-2.46,1.16-3.61.71-2.37,1.06-3.52Z"/>
    <path class="cls-4" d="M906.29,47.53l.09-21.65,13.76.09v3.34h-9.86l-.08,5.46h8.69v3.34H910.2v9.42Z"/>
    <path class="cls-4" d="M922.53,39.52a11,11,0,0,1,.62-3.78,8.43,8.43,0,0,1,1.69-2.64,6.61,6.61,0,0,1,2.48-1.59,7.9,7.9,0,0,1,2.84-.61,6.66,6.66,0,0,1,2.93.44,6.5,6.5,0,0,1,2.4,1.67,8.85,8.85,0,0,1,1.86,6.25v1.4H926.43a3.77,3.77,0,0,0,.36,1.68,5.07,5.07,0,0,0,1,1.4,5.31,5.31,0,0,0,3.64,1.06,13.26,13.26,0,0,0,2.57-.26,7.65,7.65,0,0,0,1.86-.53l.53,3.08a9,9,0,0,1-.88.35,7.1,7.1,0,0,1-1.33.26l-1.51.27a10.7,10.7,0,0,1-1.69.09,10.4,10.4,0,0,1-3.73-.62,6.74,6.74,0,0,1-2.66-1.76A6.63,6.63,0,0,1,923.06,43,8.36,8.36,0,0,1,922.53,39.52Zm11-1.67a8.51,8.51,0,0,0-.17-1.5,3.32,3.32,0,0,0-.62-1.23,2.44,2.44,0,0,0-1.07-.79,2.75,2.75,0,0,0-1.42-.27,2.91,2.91,0,0,0-1.51.36,3.44,3.44,0,0,0-1.15.88,5.49,5.49,0,0,0-.71,1.23,8.11,8.11,0,0,0-.36,1.41Z"/>
    <path class="cls-4" d="M940.81,39.61a11.08,11.08,0,0,1,.62-3.79,8.67,8.67,0,0,1,1.69-2.64,6.71,6.71,0,0,1,2.48-1.58,7.82,7.82,0,0,1,2.84-.53,6.78,6.78,0,0,1,2.93.44,6.54,6.54,0,0,1,2.4,1.67,8.85,8.85,0,0,1,1.86,6.25v1.41H944.8a3.73,3.73,0,0,0,.36,1.67,5,5,0,0,0,1,1.41A5.4,5.4,0,0,0,949.77,45a12.56,12.56,0,0,0,2.58-.27,5.78,5.78,0,0,0,1.77-.53l.54,3.08c-.27.09-.54.27-.89.36a8,8,0,0,1-1.33.26c-.45.09-1,.18-1.51.26a10.64,10.64,0,0,1-1.69.09,10.4,10.4,0,0,1-3.73-.61,6.85,6.85,0,0,1-2.66-1.76,6.77,6.77,0,0,1-1.51-2.64A8.58,8.58,0,0,1,940.81,39.61Zm11-1.67a8.53,8.53,0,0,0-.18-1.5,3.32,3.32,0,0,0-.62-1.23,2.39,2.39,0,0,0-1.07-.79,2.67,2.67,0,0,0-1.42-.27,3,3,0,0,0-1.51.35,3.72,3.72,0,0,0-1.15.88,5.8,5.8,0,0,0-.71,1.24,8,8,0,0,0-.36,1.4Z"/>
    <path class="cls-4" d="M973.91,47.35c-1,.27-1.86.44-2.84.62a25.15,25.15,0,0,1-3.64.26,9.28,9.28,0,0,1-3.46-.61,8.6,8.6,0,0,1-2.66-1.68,8.43,8.43,0,0,1-1.69-2.64,9.76,9.76,0,0,1-.53-3.52,11.86,11.86,0,0,1,.53-3.52A7.87,7.87,0,0,1,961,33.62a6.66,6.66,0,0,1,2.31-1.84,7.55,7.55,0,0,1,3.11-.62,9.13,9.13,0,0,1,2.13.26,13,13,0,0,1,1.59.62V24.12l3.82-.53ZM963,39.61a6.29,6.29,0,0,0,1.15,4,3.54,3.54,0,0,0,1.51,1,3.9,3.9,0,0,0,1.77.36,9.48,9.48,0,0,0,1.6-.09,4.28,4.28,0,0,0,1.06-.18V35.38a4.52,4.52,0,0,0-1.33-.61A5.61,5.61,0,0,0,967,34.5a3.67,3.67,0,0,0-1.69.27,3.93,3.93,0,0,0-1.33,1A6.4,6.4,0,0,0,963,39.61Z"/>
    <path class="cls-4" d="M790.48,14h26.09a5.93,5.93,0,0,1,4.09,1.67,5.8,5.8,0,0,1,1.68,4v34.5a3.73,3.73,0,0,1-1.06,2.64,3.8,3.8,0,0,1-2.67,1H791.46a3.51,3.51,0,0,1-2.48-1,3.08,3.08,0,0,1-1-2.38V16.38a2.42,2.42,0,0,1,.71-1.68A2.48,2.48,0,0,1,790.48,14Z"/>
    <path class="cls-5" d="M822.34,21.83h-3.81a4.2,4.2,0,0,1-2.93-1.23,4,4,0,0,1-1.24-2.9V14c2.13,0,4.79.09,6.38,1.58S822.34,19.72,822.34,21.83Z"/>
    <path class="cls-5" d="M810.1,20.51h-9.85a1.07,1.07,0,0,0-.8.44,1.6,1.6,0,0,0-.36.79,1,1,0,0,0,.36.8,1.22,1.22,0,0,0,.8.44h9.85a1.09,1.09,0,0,0,.8-.44,1.66,1.66,0,0,0,.35-.8,1,1,0,0,0-.35-.79A1.52,1.52,0,0,0,810.1,20.51ZM808,43H796.16a1.14,1.14,0,0,0-.88.35,1.13,1.13,0,0,0-.36.88,1.1,1.1,0,0,0,.36.88,1.11,1.11,0,0,0,.88.36H808a1.11,1.11,0,0,0,.88-.36,1.1,1.1,0,0,0,.36-.88,1.13,1.13,0,0,0-.36-.88A1,1,0,0,0,808,43Zm6.21-5.1h-18a1.06,1.06,0,0,0-.8.44,1.45,1.45,0,0,0-.26.79,1,1,0,0,0,.35.79,1.2,1.2,0,0,0,.8.44h18a1.06,1.06,0,0,0,.8-.44,1.62,1.62,0,0,0,.35-.79,1,1,0,0,0-.35-.79A2.06,2.06,0,0,0,814.18,37.85Zm0-5.19h-18a1.06,1.06,0,0,0-.8.44,1.43,1.43,0,0,0-.26.79,1,1,0,0,0,.35.79.93.93,0,0,0,.71.44h18a1.07,1.07,0,0,0,.8-.44,1.54,1.54,0,0,0,.35-.79,1,1,0,0,0-.35-.79A1.36,1.36,0,0,0,814.18,32.66Z"/>
    <path class="cls-5" d="M812,45.33A1.32,1.32,0,1,0,810.63,44,1.32,1.32,0,0,0,812,45.33Z"/>
    <path class="cls-5" d="M882.69,39.17a11.56,11.56,0,0,1-.54,3.52,8.46,8.46,0,0,1-1.59,2.73,8,8,0,0,1-2.49,1.76,8.21,8.21,0,0,1-3.19.61,8,8,0,0,1-3.2-.61,8.57,8.57,0,0,1-2.48-1.76,8.38,8.38,0,0,1-1.6-2.64,9.33,9.33,0,0,1-.53-3.52,9.33,9.33,0,0,1,.62-3.52,7,7,0,0,1,1.69-2.64,9.56,9.56,0,0,1,2.48-1.76,8.54,8.54,0,0,1,6.39,0,6.05,6.05,0,0,1,2.48,1.76,7.59,7.59,0,0,1,1.6,2.72A20.1,20.1,0,0,1,882.69,39.17Zm-3.91,0a6.09,6.09,0,0,0-1.06-3.87,4,4,0,0,0-1.33-1.06,3.59,3.59,0,0,0-1.6-.35,3.35,3.35,0,0,0-1.6.35,4,4,0,0,0-1.33,1.06,6,6,0,0,0-1.07,3.87,6.29,6.29,0,0,0,1.07,4,3.93,3.93,0,0,0,1.33,1,3.57,3.57,0,0,0,1.69.36,3.77,3.77,0,0,0,1.68-.36,3.83,3.83,0,0,0,1.33-1A7.54,7.54,0,0,0,878.78,39.17Z"/>
    <path class="cls-5" d="M901.85,39.26a9.4,9.4,0,0,1-.62,3.52,8.68,8.68,0,0,1-1.68,2.72,7.86,7.86,0,0,1-2.49,1.76,8.23,8.23,0,0,1-3.19.62,8,8,0,0,1-3.2-.62,7,7,0,0,1-2.48-1.76,8.63,8.63,0,0,1-1.6-2.72,9.53,9.53,0,0,1-.53-3.52,9.53,9.53,0,0,1,.62-3.52,7.06,7.06,0,0,1,1.68-2.64,9.79,9.79,0,0,1,2.49-1.76,8.54,8.54,0,0,1,6.39,0,6,6,0,0,1,2.48,1.76,7.59,7.59,0,0,1,1.6,2.72A10.6,10.6,0,0,1,901.85,39.26Zm-3.9,0a6.52,6.52,0,0,0-1-3.88,3.83,3.83,0,0,0-1.33-1.05A3.41,3.41,0,0,0,894,34a3.17,3.17,0,0,0-1.59.35,4.75,4.75,0,0,0-1.33,1.05,6,6,0,0,0-1.07,3.88,6.24,6.24,0,0,0,1.07,4,3.74,3.74,0,0,0,1.33,1.05,3.52,3.52,0,0,0,1.68.35,3.78,3.78,0,0,0,1.69-.35,3.83,3.83,0,0,0,1.33-1.05A8.63,8.63,0,0,0,898,39.26Z"/>
  </g>
  <g id="black-friday">
    <g>
      <path class="cls-5" d="M56.79,22.13A6,6,0,0,1,58,25.92,5.6,5.6,0,0,1,55.5,30.8Q53,32.51,48.3,32.51H35.8V8.34H47.61c2.94,0,5.21.56,6.78,1.69a5.35,5.35,0,0,1,2.37,4.59,5.81,5.81,0,0,1-3.21,5.32A6.39,6.39,0,0,1,56.79,22.13ZM41.36,12.55v5.7h5.56a5.54,5.54,0,0,0,3.14-.73,2.41,2.41,0,0,0,1.07-2.14,2.38,2.38,0,0,0-1.07-2.12,5.72,5.72,0,0,0-3.14-.71Zm9.86,15a2.49,2.49,0,0,0,1.12-2.24c0-2-1.49-3-4.46-3H41.36v6h6.52A6.15,6.15,0,0,0,51.22,27.57Z"/>
      <path class="cls-5" d="M62.21,8.34h5.6V28H79.93v4.56H62.21Z"/>
      <path class="cls-5" d="M99.2,27.33H88l-2.14,5.18H80.1L90.88,8.34H96.4l10.81,24.17h-5.87Zm-1.76-4.25L93.6,13.83l-3.83,9.25Z"/>
      <path class="cls-5" d="M114.27,31.32a12,12,0,0,1-4.69-4.46,12.23,12.23,0,0,1-1.71-6.44A12.28,12.28,0,0,1,109.58,14a12,12,0,0,1,4.69-4.45,14.95,14.95,0,0,1,12.4-.5,11.32,11.32,0,0,1,4.26,3.18l-3.59,3.31a7.7,7.7,0,0,0-6.07-2.83,8.13,8.13,0,0,0-4,1,7.06,7.06,0,0,0-2.75,2.75,8.12,8.12,0,0,0-1,4,8.13,8.13,0,0,0,1,4,7.13,7.13,0,0,0,2.75,2.75,8.13,8.13,0,0,0,4,1,7.68,7.68,0,0,0,6.07-2.87l3.59,3.32a11.2,11.2,0,0,1-4.28,3.21,14.14,14.14,0,0,1-5.7,1.11A13.89,13.89,0,0,1,114.27,31.32Z"/>
      <path class="cls-5" d="M143.5,23l-3.24,3.39v6.11H134.7V8.34h5.56V19.63L151,8.34h6.22l-10,10.77,10.61,13.4h-6.53Z"/>
    </g>
    <g>
      <path class="cls-4" d="M52,36.72l.15-.13.22-.16A25.63,25.63,0,0,1,55,34.61a31.33,31.33,0,0,1,5.25-2.47.31.31,0,0,1,.19-.09l.18,0,.6-.22.61-.22L63,31.17l1.17-.38h0a1.15,1.15,0,0,1,.33-.1,1.33,1.33,0,0,0,.37-.09l.18-.05a.48.48,0,0,0,.18-.06,1,1,0,0,0,.33-.07l1.67-.35,1.59-.31.92-.13.84-.09a2.11,2.11,0,0,1,.33,0l.33,0c.32,0,.9,0,1.74-.06a24.62,24.62,0,0,1,2.91.17.16.16,0,0,0,.11,0l.15,0a.5.5,0,0,0,.18,0c.29.05.69.14,1.19.26a7,7,0,0,1,1.5.55,5.29,5.29,0,0,1,1.36.95,2.79,2.79,0,0,1,.78,1.5,2.21,2.21,0,0,1,0,.81,3.13,3.13,0,0,1-.23.67,1.21,1.21,0,0,1-.57.57H80.2c-.12,0-.15-.05-.07-.14s0-.18-.06-.15-.13,0-.13-.07a1.78,1.78,0,0,1,0-.26,1.44,1.44,0,0,0,0-.5,1.34,1.34,0,0,0-.26-.54,1.4,1.4,0,0,0-.67-.46h-.11l-.44-.11a14.82,14.82,0,0,0-2-.24q-1.14-.06-2-.06a36.69,36.69,0,0,0-3.94.08,34.18,34.18,0,0,0-3.79.51q-.51,1.32-1.26,3.15c-.5,1.22-1,2.53-1.56,3.92,1.22-.27,2.42-.49,3.59-.68s2.32-.33,3.44-.46l.42,0c.21,0,.42-.05.64-.06l.57,0c.16,0,.23,0,.2.08a.93.93,0,0,1,.41,0,.43.43,0,0,1,.23.14c.07.08.06.2,0,.37a6.25,6.25,0,0,0-.28.73,1.34,1.34,0,0,1-.2.44c0,.1-.2.17-.44.22,0,0,0,.06-.07.11a1.08,1.08,0,0,1-.48.18.46.46,0,0,0,0,.21.28.28,0,0,1,0,.18.38.38,0,0,1-.24.15,3.39,3.39,0,0,1-.68.05c-.93.07-1.89.12-2.89.13a21,21,0,0,0-3,.24l-1.06.16-1.06.17c-.59,1.58-1.13,3.16-1.61,4.72v.11l-.08.15c-.34,1.1-.63,2.14-.88,3.13A24.74,24.74,0,0,0,60,53.16a7.33,7.33,0,0,0,0,2,1.55,1.55,0,0,0,.57,1.1q.15.07.15.18a.78.78,0,0,1,0,.22,2,2,0,0,1-.15.26,1,1,0,0,0-.18.11c-.15.1-.22.2-.22.29s-.1.06-.22-.11l-.22-.29a7.52,7.52,0,0,1-1.13-2.2A10.35,10.35,0,0,1,58,51.88a20,20,0,0,1,.22-3.71,39.69,39.69,0,0,1,1-4.86,5.46,5.46,0,0,0-.66.19c-.22.07-.43.14-.63.22a1,1,0,0,1-.73-.26,2.12,2.12,0,0,0-.44-.4c-.1-.08-.14-.15-.13-.22a.76.76,0,0,1,.08-.21l.09-.16a.13.13,0,0,0,0-.15l0,0c.47-.2.94-.38,1.41-.55l1.45-.52a8.13,8.13,0,0,0-.75-1.7,4.06,4.06,0,0,0-1.15-1.28,4.18,4.18,0,0,0-1.63-.68,5.33,5.33,0,0,0-2.18.11,10.19,10.19,0,0,0-1.1.33l-.92-1.17Zm6.49-1.14-.41.17a.74.74,0,0,1-.44,0,3.19,3.19,0,0,1,.53.3,3.75,3.75,0,0,1,.74.6,8.32,8.32,0,0,1,.8,1,7.81,7.81,0,0,1,.79,1.48c.34-1,.68-2,1-2.78s.65-1.6,1-2.31l-.57.2-.57.21-.82.27a8.29,8.29,0,0,0-.83.31l-.6.24ZM59.32,46c.1-.32.15-.53.17-.63a3.34,3.34,0,0,1,.16-.58c.07-.3.14-.55.18-.75s.14-.49.26-.83v0a2.06,2.06,0,0,0,.11-.3,3.57,3.57,0,0,0,.11-.4,2.44,2.44,0,0,1,.15-.44,1.44,1.44,0,0,0,0-.24.59.59,0,0,1,.09-.24,3.58,3.58,0,0,1,.19-.55,4.27,4.27,0,0,0,.18-.54c.05-.13.09-.25.13-.37a3.3,3.3,0,0,1,.13-.37c.19-.48.36-.94.51-1.37s.27-.75.37-1,.15-.4.18-.46.06-.18.11-.35a1.85,1.85,0,0,1,.13-.29l.09-.22,0-.07h0v.07s0,0,0,.07a.55.55,0,0,0-.07.19.09.09,0,0,0,0,.07.7.7,0,0,0-.14.29c0,.15-.09.25-.11.3l-.19.47c-.05.12-.11.29-.2.5s-.15.37-.2.49a1,1,0,0,0-.09.22l-.13.33a3.56,3.56,0,0,0-.13.39c0,.13-.08.26-.13.38a3.18,3.18,0,0,0-.11.33,1.15,1.15,0,0,1-.11.29,1.31,1.31,0,0,0-.07.19c0,.07,0,.15-.07.25s-.14.39-.19.51a5.67,5.67,0,0,0-.18.59c-.1.27-.16.45-.18.53s-.06.23-.11.42a.27.27,0,0,1,0,.11.31.31,0,0,0,0,.11c-.05.17-.1.35-.16.53s-.12.38-.17.57,0,.25-.07.37a2.47,2.47,0,0,1-.11.36,1.92,1.92,0,0,0-.11.37c0,.12,0,.24-.07.37a1,1,0,0,0-.1.29,1.17,1.17,0,0,1-.09.33c0,.12,0,.23-.05.31a2.61,2.61,0,0,1-.06.27v0s0,0,0,.11v0s0,0,0,0v-.11a3.39,3.39,0,0,0,.11-.37C59.26,46.27,59.3,46.11,59.32,46Zm.15.69v0a.28.28,0,0,1,0,.15.1.1,0,0,1,0,.07.22.22,0,0,0,0,.08.52.52,0,0,0,0,.21.36.36,0,0,1,0,.19.11.11,0,0,1,0,.07.51.51,0,0,1,0,.13.27.27,0,0,0,0,.13v0a.1.1,0,0,1,0-.08.34.34,0,0,1,0-.09.15.15,0,0,0,0-.09v0a.24.24,0,0,1,0-.13.18.18,0,0,1,0-.11l0-.11V47a.57.57,0,0,1,0-.22ZM60,44.92a.27.27,0,0,0,0-.16.56.56,0,0,1,.07-.24,1.12,1.12,0,0,0,0-.22.36.36,0,0,1,0-.11s0-.06,0,0a.1.1,0,0,0,0,.08.89.89,0,0,0-.05.24,1.62,1.62,0,0,1-.1.34v.08a1.21,1.21,0,0,0,0,.14,1.3,1.3,0,0,1-.06.19.39.39,0,0,0,0,.14.12.12,0,0,1,0,.11.39.39,0,0,1,0,.15.89.89,0,0,0,0,.11.09.09,0,0,0,0-.07.12.12,0,0,1,0-.11.55.55,0,0,1,0-.17.3.3,0,0,0,0-.13.19.19,0,0,1,0-.07.19.19,0,0,0,0-.07s0-.08,0-.09a.11.11,0,0,0,0-.06v0Zm-.07-12.05s0,0,.07,0v0c1-.34,1.86-.63,2.64-.88l.57-.18.2-.07c.19-.1.17-.1-.08,0a7.39,7.39,0,0,0-1.06.33l-.53.14a1,1,0,0,0-.2.08l-.17.07-.38.14-.55.21a2.2,2.2,0,0,1-.37.12s0,0,0,0,0,0,0,0,0,0,0,0h0Zm.33,11s0,0,0,0,0-.13.05-.25a1.65,1.65,0,0,0,.11-.26,1,1,0,0,1,.07-.29,2.2,2.2,0,0,0,.08-.26.36.36,0,0,1,0-.11v0a.13.13,0,0,1,0,.08.84.84,0,0,0-.09.22,1.89,1.89,0,0,0-.06.18,1.94,1.94,0,0,0-.05.2c0,.06,0,.15-.06.28A.73.73,0,0,0,60.24,43.86Zm4.17-8.13s0,0-.07,0h-.07a.1.1,0,0,0,0,.08v.14l-.07.08a.09.09,0,0,0,0,.07v0a4.49,4.49,0,0,0-.31.67l-.2.54-.09.23-.13.32q-.07.18-.15.33l-.11.21a1,1,0,0,0-.11.3,1.65,1.65,0,0,1-.11.36,2.44,2.44,0,0,0-.15.44,3.92,3.92,0,0,0-.14.44l-.07.2a1.38,1.38,0,0,1-.08.17s0,0,0,0a.13.13,0,0,0,0,.06l-.08.15a1.45,1.45,0,0,0-.11.29,1.82,1.82,0,0,1-.11.33c0,.12-.08.22-.11.31a1,1,0,0,1-.11.27c0,.1-.05.2-.07.3s-.06.22-.11.36a1.42,1.42,0,0,0-.07.26l-.11.42a3.9,3.9,0,0,0-.11.42v0c0,.12-.05.24-.08.37s0,.24-.07.36l-.06.2a1.94,1.94,0,0,1-.05.2,1.45,1.45,0,0,0-.06.19.78.78,0,0,1-.05.18.93.93,0,0,1-.11.4.27.27,0,0,1,0,.11.31.31,0,0,0,0,.11.18.18,0,0,0,0,.11.08.08,0,0,1,0,.06.08.08,0,0,0,0,0c0,.15-.09.29-.13.42s-.07.27-.09.39a2,2,0,0,0-.07.36.47.47,0,0,0-.06.19.78.78,0,0,1,0,.18,2.73,2.73,0,0,0-.06.31,2.46,2.46,0,0,0,0,.28,0,0,0,0,0,0,0v0a.21.21,0,0,1,0,.15l0,0h0l0,0v0s0,0,0,0,0,0,0,0v0c0-.1.06-.23.11-.4s.1-.36.15-.55a.56.56,0,0,1,.07-.26.31.31,0,0,1,0-.11.19.19,0,0,0,0-.07,1.1,1.1,0,0,0,.07-.29,3.73,3.73,0,0,1,.18-.66,5.23,5.23,0,0,0,.2-.81,9.21,9.21,0,0,1,.24-.92.12.12,0,0,0,0-.1c0-.15.08-.27.11-.37a1.71,1.71,0,0,0,.07-.18c0-.08,0-.16.08-.26s0-.15.07-.24,0-.18.07-.27a3.64,3.64,0,0,1,.19-.55,2.29,2.29,0,0,1,.07-.28,2.4,2.4,0,0,1,.11-.31,3,3,0,0,1,.18-.55.85.85,0,0,0,.09-.25,2,2,0,0,1,.09-.26v0a.62.62,0,0,0,.1-.22.57.57,0,0,1,.09-.22c.19-.56.38-1.08.55-1.55a12,12,0,0,1,.44-1.12,2.54,2.54,0,0,0,.18-.51c0-.15.1-.28.15-.41a1.61,1.61,0,0,0,.09-.25.88.88,0,0,1,0-.15h0l0,0,0,0V35.8S64.44,35.76,64.41,35.73ZM61.12,41a1.33,1.33,0,0,0-.08.3.84.84,0,0,0-.11.27.78.78,0,0,1-.11.28c0,.07,0,.15-.07.24s0,.16-.07.23,0,.07,0,0,.06-.19.11-.32a2.31,2.31,0,0,1,.1-.23,2.18,2.18,0,0,1,.09-.24,1.21,1.21,0,0,0,.09-.3,1.83,1.83,0,0,1,.09-.32l.07-.15.41-1.21a3.3,3.3,0,0,1,.22-.55,2.47,2.47,0,0,1,.11-.4.94.94,0,0,0,.07-.19.43.43,0,0,1,0-.14s.06-.09,0-.11a.12.12,0,0,1,0-.11l-.07.15a1.05,1.05,0,0,0-.15.4,1,1,0,0,0-.09.2l-.09.2-.19.55a1.15,1.15,0,0,1-.07.22.75.75,0,0,0-.07.18.7.7,0,0,0-.08.2.76.76,0,0,1-.07.24.9.9,0,0,0-.07.22,1.63,1.63,0,0,1,0,.18A.58.58,0,0,0,61.12,41Zm9.74-10.58-.7.07c-.24,0-.49.06-.73.11-.51.08-1,.16-1.5.26l-1.32.26c-.78.19-1.48.37-2.09.55-.31.07-.6.14-.84.22l-.62.18a3.65,3.65,0,0,0-.44.13l-.26.09-.51.18-.42.17-.35.12-.07,0a.09.09,0,0,0,.07,0,.4.4,0,0,0,.15,0,.59.59,0,0,0,.22-.08.32.32,0,0,1,.14,0l.9-.33c.28-.1.52-.17.71-.22a5.88,5.88,0,0,0,.74-.22,2.17,2.17,0,0,1,.42-.11l.35-.07c.17-.05.45-.13.86-.22l1.11-.3a3,3,0,0,1,.5-.09,1.24,1.24,0,0,0,.38-.09l.37-.06a2.29,2.29,0,0,0,.44-.09,1.21,1.21,0,0,0,.4-.07l.2,0,.17,0a.48.48,0,0,1,.18,0,.85.85,0,0,0,.22,0l.22,0,.26-.05.29,0,.22,0a.42.42,0,0,1,.16,0,.43.43,0,0,0,.17,0l.27,0,.35-.06h.46l.53-.06h1a10.63,10.63,0,0,1,1.13,0l1.06.07a.6.6,0,0,0,.22,0,.54.54,0,0,1,.22,0h.26a.61.61,0,0,0,.22,0l.48.08.4.07h0s0,0,.07,0h0s0,0-.07,0a.19.19,0,0,1-.11,0l-.5-.07c-.21,0-.45-.06-.71-.11l-.11,0-.08,0h-.14a1,1,0,0,0-.26,0l-.24,0-.16,0h-.33a2.72,2.72,0,0,0-.51,0H72.64c-.21,0-.45,0-.72,0Zm-8.53,7.33a.25.25,0,0,1,0-.13.68.68,0,0,0,.08-.17,2.55,2.55,0,0,1,.18-.4,2,2,0,0,1,.11-.33l.07-.15a.2.2,0,0,1,0-.13,1.46,1.46,0,0,0,.11-.27l.14-.35.11-.24v0s0,0,0-.08,0,0,0,0v0c-.12.29-.25.58-.38.88s-.25.56-.35.8a1.41,1.41,0,0,0-.14.41s0,.07,0,.14S62.28,37.82,62.33,37.75Zm1.5-6.23-.06,0a.14.14,0,0,1,.09,0,.28.28,0,0,0,.15,0l.66-.18a.42.42,0,0,1,.16,0,.47.47,0,0,0,.17,0,.28.28,0,0,1,.15,0,.27.27,0,0,0,.14,0l.35-.09.46-.13a1.07,1.07,0,0,1,.35-.07,1.38,1.38,0,0,0,.31,0,1.68,1.68,0,0,1,.33-.09l.36-.05.3-.09a1.12,1.12,0,0,1,.25-.06,1.3,1.3,0,0,1,.4-.09,2.37,2.37,0,0,0,.41-.06,2.55,2.55,0,0,1,.44-.07,1.29,1.29,0,0,1,.25,0,.5.5,0,0,0,.19,0l.18,0,.22,0a.42.42,0,0,1,.16,0,.43.43,0,0,0,.17,0c.12,0,.12,0,0,0l-.49.05a1.25,1.25,0,0,1-.26,0,.28.28,0,0,0-.15,0,1.69,1.69,0,0,0-.33,0,.81.81,0,0,1-.25,0,.54.54,0,0,0-.22,0,.83.83,0,0,1-.22,0,2,2,0,0,0-.29,0,1.77,1.77,0,0,1-.44.11l-.55.11-.61.13a2.93,2.93,0,0,0-.53.13,8.06,8.06,0,0,0-.86.18l-.6.18a1.21,1.21,0,0,1-.24.08.76.76,0,0,0-.24.07l-.16.07ZM71,30.05c-.07,0-.09,0,0,0H71a1.1,1.1,0,0,0,.37,0,1.12,1.12,0,0,0,.29,0H72l.19,0,.22,0h.29a.24.24,0,0,0,.11,0c.07,0,.07,0,0,0h-.35a1.62,1.62,0,0,0-.4,0h-.22a1.23,1.23,0,0,0-.29,0h-.33Zm2.34-.14q-.11,0,0,0l.11,0h1.5a.85.85,0,0,0,.25,0h.19a.83.83,0,0,1,.2,0h.2v0h-.29a.49.49,0,0,0-.24,0H75a.88.88,0,0,0-.3,0h-.21l0,0H73.31Zm3.81.33.26.07a.62.62,0,0,1,.25,0l.3,0a.83.83,0,0,1,.25.06.4.4,0,0,0,.15,0,.48.48,0,0,0,.18.06.74.74,0,0,1,.19.05s0,0,0,0l0,0H78.7a.13.13,0,0,0-.08,0,.67.67,0,0,0-.33-.08c.08,0,0,0-.11-.07l-.11,0-.07,0h-.07a.18.18,0,0,0-.11,0,.28.28,0,0,0-.15,0,1.15,1.15,0,0,1-.33,0l-.18,0Z"/>
      <path class="cls-4" d="M76.57,48.4a.67.67,0,0,1,0-.18s-.08-.07-.22-.07A.45.45,0,0,1,76,48a.22.22,0,0,1-.08-.15,5.14,5.14,0,0,0,.42-.38l.39-.39A7.43,7.43,0,0,0,77.56,46a8.71,8.71,0,0,0,.51-1,5,5,0,0,0,.26-.71,1.79,1.79,0,0,0,.07-.35,7.5,7.5,0,0,0-.71.66q-.64.61-1.56,1.65a28.65,28.65,0,0,0-1.9,2.41,20.92,20.92,0,0,0-1.76,3,3.2,3.2,0,0,0-.22.49,2.7,2.7,0,0,0-.18.65c-.08.31-.17.42-.3.33s-.18,0-.34.09a.47.47,0,0,1-.46,0,1.25,1.25,0,0,0-.51-.14,1.37,1.37,0,0,1-.55-.18,2.15,2.15,0,0,1-.57-.77,2.72,2.72,0,0,1-.15-1.4,8.83,8.83,0,0,1,.61-2.18,22.45,22.45,0,0,1,1.61-3.13,1.64,1.64,0,0,0,.14-.22,1.83,1.83,0,0,0,.15-.25l.29-.5q.15-.24.3-.45s0,0,0,0l1.19-1.81c.38-.57.61-.94.68-1.08l0,0,.06,0a.29.29,0,0,0,.16,0,.47.47,0,0,1,.17,0,.34.34,0,0,0,.18,0h.18c-.12.2-.24.38-.36.55s-.23.32-.33.44l-.15.26,0,.11c0,.07,0,.06,0,0l.32-.46c.07-.1.12-.16.14-.2l.06-.09,0-.08.13-.18a1,1,0,0,0,.11-.18,1,1,0,0,0,.07-.15c.1.05.15.09.15.11a.91.91,0,0,0,.22.22c.1.07.17.14.22.18l.2.21a.32.32,0,0,1,.13.2c-.39.75-.72,1.43-1,2s-.56,1.25-.88,2-.6,1.44-.84,2.12l.18-.25a29.2,29.2,0,0,1,2-2.49,28,28,0,0,1,2.11-2.13,13.47,13.47,0,0,1,2.47-1.83,1.74,1.74,0,0,1,.18-.22c.15-.15.23-.22.26-.22a.29.29,0,0,0,.16,0,.47.47,0,0,1,.17,0,.3.3,0,0,0,.25.06.26.26,0,0,1,.26.09l.18.18a.28.28,0,0,0,.15,0,.79.79,0,0,0,.33,0,1.21,1.21,0,0,1,.4.07.59.59,0,0,1,.3.18.71.71,0,0,0,.2.22c.11.1.1.27,0,.52A9.46,9.46,0,0,1,81.81,45,13.37,13.37,0,0,1,80.56,47c-.29.34-.58.65-.86.93a6.38,6.38,0,0,1-.82.71,1.61,1.61,0,0,1-.62.33c-.25.08-.48.14-.7.19a6.74,6.74,0,0,1-.8.11c-.13,0-.17,0-.13-.13a.87.87,0,0,0,.05-.28A.92.92,0,0,0,76.57,48.4ZM71.63,46a8.89,8.89,0,0,1,.58-1.1l.37-.64a5.1,5.1,0,0,1,.37-.57l.53-.9a5.08,5.08,0,0,1,.42-.64l.18-.27.15-.24a.91.91,0,0,1,.13-.2l.09-.13v0h0a.13.13,0,0,0,0,.07s0,.05,0,.08l-.07.07a7.63,7.63,0,0,0-.44.7c0,.07-.13.17-.22.31a1.62,1.62,0,0,0-.22.35,3.18,3.18,0,0,0-.22.36l-.3.48c-.09.17-.17.3-.22.38s-.12.2-.22.35l-.18.31-.22.39c-.12.19-.19.32-.22.38a1.62,1.62,0,0,1-.15.28,2.56,2.56,0,0,1-.2.42c-.08.16-.16.31-.23.46s-.16.31-.24.49l-.24.49c0,.13-.1.27-.17.43a2.1,2.1,0,0,0-.12.42s0,0,0,0v0a.16.16,0,0,0,0-.11.19.19,0,0,0,.05-.09.49.49,0,0,1,.06-.13s0-.08,0-.09,0,0,0-.09a.22.22,0,0,0,.08-.15c.12-.24.19-.4.22-.46a3.28,3.28,0,0,1,.18-.38,1.65,1.65,0,0,1,.11-.26.44.44,0,0,1,.15-.25c0-.1.08-.19.1-.26S71.53,46.13,71.63,46Zm-.81,2.41s0,0,0,0a.34.34,0,0,0,0,.11s0,0,0,.11,0,0,0,.08v.07a.16.16,0,0,0,0,.11.09.09,0,0,0,0,.07.24.24,0,0,1,0,.08.14.14,0,0,0,0,.07v0s0,0,0,0,0,0,0,0v0c0-.05,0-.08,0-.08v-.07l.07-.15a0,0,0,0,0,0-.07.42.42,0,0,0,0-.15A.3.3,0,0,0,70.82,48.4Zm.81-1.68s0,0,0,0l0,0a.21.21,0,0,0-.07.14,1.12,1.12,0,0,0,0,.13,1.39,1.39,0,0,1-.06.13l0,0-.11.22a.68.68,0,0,0-.08.19.24.24,0,0,1-.07.18s.07-.05.07-.15a.2.2,0,0,0,.06-.09.41.41,0,0,1,.05-.09.08.08,0,0,1,0-.05.11.11,0,0,0,0-.06s0,0,0,0,0,0,0,0l0,0,.15-.29A1.5,1.5,0,0,0,71.63,46.72Zm.51-1a0,0,0,0,1,0,0,.61.61,0,0,0-.09.12A1.12,1.12,0,0,1,72,46a.3.3,0,0,0-.09.15.44.44,0,0,1-.1.15.67.67,0,0,0-.07.22s0,0,.11-.19a.45.45,0,0,0,.11-.14L72,46a.78.78,0,0,0,.07-.17Zm.44-.73.13-.2a2.39,2.39,0,0,0,.13-.24l.23-.42a3.28,3.28,0,0,1,.32-.46c.07-.12.14-.24.2-.37a1,1,0,0,1,.16-.25c0-.05.08-.09.08-.11a.3.3,0,0,1,0-.11l.08-.15s0,0,0,0a.09.09,0,0,0,0,.07,2.21,2.21,0,0,0-.18.3.35.35,0,0,0-.09.11l-.09.11a1.05,1.05,0,0,0-.08.18.42.42,0,0,1-.11.18.71.71,0,0,0-.09.17.38.38,0,0,1-.09.13.29.29,0,0,0-.09.12.31.31,0,0,1-.09.13.36.36,0,0,0-.08.17.3.3,0,0,1,0,.12.87.87,0,0,0-.19.33.52.52,0,0,0-.12.19.83.83,0,0,1-.13.18,1.38,1.38,0,0,0-.08.17c0,.06,0,.11-.07.16s0,.05,0,0a1.27,1.27,0,0,0,.13-.22,1,1,0,0,1,.09-.16Zm6,.8v0h0l0,0,.07-.07a.48.48,0,0,0,.11-.15,1.74,1.74,0,0,0,.18-.22s0-.06.08-.11,0-.07,0-.07a.1.1,0,0,1,0-.08,1.3,1.3,0,0,0,.15-.33,1.51,1.51,0,0,0,.11-.22.75.75,0,0,1,.07-.18s0-.07,0-.07,0,0,0-.08v-.07h0l0,0v0a0,0,0,0,1,0,0,.34.34,0,0,0,0,.18.41.41,0,0,0,0,.09.15.15,0,0,1-.06.09v0s0,0,0,0,0,0,0,0a.08.08,0,0,1,0,.06.08.08,0,0,0,0,.05.29.29,0,0,1-.06.1.31.31,0,0,0-.05.09.75.75,0,0,0-.07.18.22.22,0,0,0-.08.15.17.17,0,0,1-.07.09.17.17,0,0,0-.07.09s0,.06-.08.11a.09.09,0,0,0,0,.06l0,0-.07.07-.08.08Zm.3.15h0v0l-.07.07,0,0h0v0h.07v0s0,0,0,0Zm.29-.29a0,0,0,1,0,0-.08s0,.05,0,.06a.09.09,0,0,1,0,0l0,0a.09.09,0,0,0,0,.07l0,0h0v0s0,0,0,0l0,0h0Zm.15-.3,0,.08,0,.07s0,0,0,0l0,0,.07-.07v-.08Zm.29-.58a.09.09,0,0,1,0,.07.18.18,0,0,0,0,.11s0,0,0,0,0,0,0,0v.08c-.05,0-.07.08-.07.11a.09.09,0,0,0,0,.07l0,0,0,0s0,0,0,0l0,0s0,0,0-.06a.24.24,0,0,1,0-.11l.07-.15a.19.19,0,0,0,0-.11s0,0,0-.07v-.11l0,0s0,0,0,.07l0,.07Zm.29,1.76-.14.14a.48.48,0,0,0-.11.15l-.11.11,0,0h0a0,0,0,0,0,0,0v0h0v0l.22-.15a.72.72,0,0,0,.15-.11l.07-.15.13-.14.16-.22,0-.08.07-.07a1.33,1.33,0,0,0,.11-.26s.08-.08.08-.11a.11.11,0,0,0,0-.07.13.13,0,0,1,0-.07s0-.06.07-.11a.08.08,0,0,1,0-.06.08.08,0,0,0,0-.05A1,1,0,0,0,81,45,.42.42,0,0,1,81,44.7c0-.07.06-.12,0-.14s0-.06,0-.11v-.11h.07l0,0s0,0,0,0H81v.08l0,0a.42.42,0,0,0,0,.15.4.4,0,0,1,0,.15.08.08,0,0,1,0,0,.11.11,0,0,0,0,.06l-.07.14s0,0,0,.15a.18.18,0,0,0,0,.11.11.11,0,0,1,0,.07c0,.08,0,.13-.08.15l-.11.11a1.12,1.12,0,0,0,0,.13.7.7,0,0,1-.09.16.24.24,0,0,0,0,.13.35.35,0,0,1,0,.13,1.3,1.3,0,0,1-.15.33Zm-.11-2.17a.36.36,0,0,0,0,.11c0,.1,0,.05.07-.14s.07-.08,0-.08,0,0,0-.07V44h0c0,.05,0,.11-.07.17A.37.37,0,0,0,79.83,44.37Z"/>
      <path class="cls-4" d="M83.6,53.13l-.45,0a2,2,0,0,1-.79-.24,2,2,0,0,1-.73-.67,2.23,2.23,0,0,1-.31-1.36,7.34,7.34,0,0,1,.51-2.25,20.44,20.44,0,0,1,1.7-3.39l.15-.22a1.26,1.26,0,0,0,.14-.26,4.07,4.07,0,0,0,.32-.49,2.17,2.17,0,0,1,.27-.42c.42-.64.81-1.24,1.17-1.81s.6-.93.7-1,.08-.07.11-.07a.42.42,0,0,0,.16,0,.47.47,0,0,1,.17,0A.3.3,0,0,0,87,41a.23.23,0,0,1,.26.09,1.13,1.13,0,0,0,.22.22,1.64,1.64,0,0,1,.22.18l.2.2c.09.09.13.16.13.2a7.36,7.36,0,0,1-.35.72c-.23.45-.51,1-.82,1.7s-.65,1.44-1,2.25-.63,1.6-.86,2.33a9.34,9.34,0,0,0-.42,1.92q-.07.83.36,1.05a.72.72,0,0,0,.74-.06A3.69,3.69,0,0,0,86.5,51a11.58,11.58,0,0,0,.91-1.23c.32-.47.63-1,.92-1.48.68-1.2,1.4-2.61,2.16-4.25a.48.48,0,0,1,.18,0,.29.29,0,0,1,.22.08.14.14,0,0,0,.17,0c.06,0,.09,0,.09,0s.12,0,.27,0,.22-.07.17,0a5.93,5.93,0,0,0-.33.79c-.2.5-.45,1.11-.77,1.82S89.8,48.22,89.37,49A17.62,17.62,0,0,1,88,51.24a9.41,9.41,0,0,1-1.5,1.65,2,2,0,0,1-1.54.53l-.59-.14a1.65,1.65,0,0,0-.44-.1A1.94,1.94,0,0,1,83.6,53.13Zm-1.46-2.2c0,.1,0,.21,0,.35s0,.26,0,.38a.36.36,0,0,1,0,.19.4.4,0,0,0,.07.22.89.89,0,0,0,.15.36,1.24,1.24,0,0,0,.18.33l.26.26,0,0v0l-.08,0c-.05,0-.14-.17-.29-.37,0,0,0-.07,0-.07v0a.15.15,0,0,1,0-.06s0,0,0-.05a.1.1,0,0,0,0-.08v0a.13.13,0,0,1,0-.08.13.13,0,0,0,0-.07.14.14,0,0,0,0-.07.31.31,0,0,1,0-.11.37.37,0,0,1-.07-.21.54.54,0,0,0,0-.2v-.88a3.41,3.41,0,0,1,.08-.51,4.51,4.51,0,0,1,.09-.55,2.1,2.1,0,0,1,.13-.44c.07-.27.14-.51.22-.73s.13-.39.18-.51a2.18,2.18,0,0,0,.09-.24,1.27,1.27,0,0,1,.09-.2,1.65,1.65,0,0,0,.11-.26v0s0,0,0,0a.09.09,0,0,0,0,.07s0,0,0,0a2.75,2.75,0,0,0-.22.58,1.63,1.63,0,0,0-.22.52,2.74,2.74,0,0,0-.09.29,3.14,3.14,0,0,1-.13.4,1.21,1.21,0,0,0-.09.3c0,.07,0,.17,0,.29a.27.27,0,0,0,0,.14.28.28,0,0,1,0,.15,1.69,1.69,0,0,1,0,.33.77.77,0,0,1,0,.29Zm.37.29a.24.24,0,0,0,0,.15v-.62s0,0,0,0v.47Zm.25-1.75a.47.47,0,0,0,.06-.19.78.78,0,0,1,.05-.18,1.29,1.29,0,0,0,.09-.29.39.39,0,0,1,.1-.19s0-.08,0-.09,0,0,0-.09v-.11s0,0,0,0a1.8,1.8,0,0,0-.08.25.25.25,0,0,0-.07.19.41.41,0,0,0-.07.29l-.06.11,0,.11a.85.85,0,0,1,0,.22.57.57,0,0,0,0,.22.79.79,0,0,1,0,.26.78.78,0,0,1,0,.14.77.77,0,0,0,0,.15s0,.07,0,.14v.11h0a.49.49,0,0,1,0-.18.16.16,0,0,0,0-.11.18.18,0,0,1,0-.11,1.15,1.15,0,0,1,0-.33A.77.77,0,0,0,82.76,49.47Zm-.22,2.08a1.33,1.33,0,0,0,.08.3v0s0,.08,0,.09a.07.07,0,0,1,0,.06l.08.15a.07.07,0,0,0,0,0s0,0,0,.06h0a0,0,0,0,1,0,0v-.07s0,0,0-.08,0,0,0,0V52a.09.09,0,0,1,0-.07v0a.1.1,0,0,0,0-.07.31.31,0,0,1,0-.11.16.16,0,0,0,0-.11v-.07h0ZM83.42,53v0h0s0,0-.06,0,0,0,0,0l0,0s0,0,0,0,0,0,0-.06h0l-.08-.07a.09.09,0,0,0-.07,0l0,.08.07,0,.07.08s0,0,0,0a0,0,0,0,1,0,0h0a.2.2,0,0,0,.11.07h0Zm.26-5.93a2.82,2.82,0,0,0-.26.44c-.07.14-.13.28-.18.4a1.13,1.13,0,0,0-.07.2v.09c0,.13,0,0,.18-.36a.77.77,0,0,0,.07-.26.56.56,0,0,0,.11-.18l.15-.3Zm2.12-2.42h.08l0,0a.18.18,0,0,0,0-.07l.1-.11a.45.45,0,0,0,.07-.15.2.2,0,0,1,.07-.11l.19-.36a.31.31,0,0,1,.05-.09l0-.09.11-.22.11-.22.11-.22a.21.21,0,0,0,.06-.08l0-.07a.25.25,0,0,0,0-.09.25.25,0,0,1,0-.09.42.42,0,0,1,.11-.22s.06-.09,0-.11a.16.16,0,0,1,0-.11s0,0,0-.08h.07v0l0,0s0,0,0,0l0,0,0,0,0,0s0,0,0,0,0,0,0,0a.31.31,0,0,0-.15.25.2.2,0,0,1-.09.11.24.24,0,0,0-.09.11l-.08.15a.53.53,0,0,1-.07.18.35.35,0,0,1-.07.11l-.11.11a1.39,1.39,0,0,0-.06.13,1.12,1.12,0,0,1,0,.13q-.07.1-.06.15s0,.06,0,.11a.86.86,0,0,1,0,.18L86.1,44a1.3,1.3,0,0,1-.1.15l-.09.14-.07.15a.28.28,0,0,0,0,.15h0v0Zm1.83-4.32a1.45,1.45,0,0,1-.44-.07c-.27-.1-.4-.24-.4-.41s0-.42,0-.62,0-.34,0-.44a4,4,0,0,1,.15-.42,5.57,5.57,0,0,1,.4-.82,8.53,8.53,0,0,1,.55-.83,1.14,1.14,0,0,1,.59-.46l.66-.11h.29a1.12,1.12,0,0,0,.48,0,.53.53,0,0,1,.44.1,1.46,1.46,0,0,0,.51.14c.19,0,.21.17,0,.44s-.21.36-.39.63-.37.55-.57.86-.37.59-.55.86l-.36.58a1.63,1.63,0,0,1-.59.64A.56.56,0,0,1,87.63,40.31Zm-.47-1.5,0,0a.22.22,0,0,1,.08-.15.32.32,0,0,0,0-.14.52.52,0,0,0,.08-.11,1.12,1.12,0,0,0,.05-.13.71.71,0,0,1,.09-.17.19.19,0,0,0,.08-.14l.05-.07a.21.21,0,0,1,.06-.08,2.69,2.69,0,0,1,.22-.36,1.34,1.34,0,0,0,.16-.22.7.7,0,0,1,.13-.19s.07-.08.07-.09,0,0,0-.05a.51.51,0,0,0,0-.11h0s0,0,0,0a1,1,0,0,0-.15.22l-.14.15a.35.35,0,0,0-.08.11l-.07.15a1,1,0,0,0-.15.18l0,.11-.06.11a.84.84,0,0,0-.11.18c0,.1-.08.19-.11.26a.21.21,0,0,0-.07.14.2.2,0,0,0-.07.11.1.1,0,0,0,0,.08.09.09,0,0,1,0,.07.11.11,0,0,1,0,.06s0,0,0,.05Zm.33.11v0s0,0,0,0v0h0V39l0,0h0v0l0,0,0,0Zm.22-.44a.13.13,0,0,0,0-.08s0,0,0,0,0,0-.08.11a.13.13,0,0,1,0,.08v.07a.11.11,0,0,0,0-.07l0,0A.13.13,0,0,0,87.71,38.48Zm.18-.37h0a.13.13,0,0,0,0,.08.08.08,0,0,1,0,.05.08.08,0,0,0,0,0s0,0,0,0l0,0a.26.26,0,0,1,0-.1l0,0Zm.51-.8s0,0,0,0a.09.09,0,0,0,0,.07l-.07.07s0,0,0,0v.07s0,0-.07,0a.12.12,0,0,0,0,.11.13.13,0,0,0,0,.07s0,0,0,.06a.07.07,0,0,0,0,0A.07.07,0,0,0,88,38a.15.15,0,0,0,0,.1A.13.13,0,0,1,88,38L88,38s0,0,0,0,0,0,0-.06l0,0a.52.52,0,0,0,.07-.11l.08-.15s.07-.05.07-.07a.08.08,0,0,1,0-.07s0,0,0,0,0,0,0,0Zm.15-.19s.07-.07,0-.07,0,0,.06-.07a.2.2,0,0,0,.07-.11L88.6,37a1.58,1.58,0,0,1-.12.15l0,.07C88.44,37.28,88.48,37.24,88.55,37.12Z"/>
      <path class="cls-4" d="M107.38,44c0,.05.11,0,.27,0s.21-.07.16,0-.15.29-.38.79-.54,1.11-.92,1.82-.81,1.46-1.3,2.27a22.35,22.35,0,0,1-1.53,2.23,10,10,0,0,1-1.63,1.67,2.15,2.15,0,0,1-1.6.53.24.24,0,0,1-.11,0,1.1,1.1,0,0,1-.29-.07l-.53-.13a2,2,0,0,0-.42,0,.3.3,0,0,0-.22,0,.68.68,0,0,1-.33-.06s0,0,0,0,0,0,0,0a.83.83,0,0,1-.36-.33.35.35,0,0,1-.09-.1L98,52.43a.09.09,0,0,1,0,0s0,0,0-.06,0,0,0,0,0,0,0,0l0,0a.86.86,0,0,0-.08-.18.51.51,0,0,1-.09-.22.78.78,0,0,0-.05-.18.54.54,0,0,1,0-.2,1.16,1.16,0,0,0,0-.28,4.67,4.67,0,0,1-.07-.91c0-.2,0-.38,0-.55a3.88,3.88,0,0,1,0-.44c0-.27.09-.53.11-.77a5.34,5.34,0,0,1,.08-.55.58.58,0,0,0,.05-.24.38.38,0,0,1,0-.2c0-.1,0-.15,0-.17l0-.13v0s0,0,0,0l0,0a.11.11,0,0,1,0,.06s0,0,0,.05v0a2,2,0,0,0-.11.58,1.67,1.67,0,0,0-.07.3,1.1,1.1,0,0,0,0,.25,1.8,1.8,0,0,0-.06.33c0,.15,0,.28,0,.41a2.69,2.69,0,0,1,0,.31,2.54,2.54,0,0,0,0,.31v.91a.44.44,0,0,0,0,.1.37.37,0,0,1,0,.12c0,.13,0,.25,0,.37a1.86,1.86,0,0,0,.1.37l.07.18a1.89,1.89,0,0,0,.29.55,1.31,1.31,0,0,0,.26.29.43.43,0,0,0,.29.18v0h0l-.33-.07a3.18,3.18,0,0,1-.33-.11,2.17,2.17,0,0,1-.68-.55,1.78,1.78,0,0,1-.38-1,3.14,3.14,0,0,1,0-.62,5.49,5.49,0,0,1,.09-.74c-.42.35-.79.64-1.14.88s-.63.44-.87.59-.53.32-.77.44a6.29,6.29,0,0,1-1.72.7,3.85,3.85,0,0,1-2.57-.11,2.93,2.93,0,0,1-1.21-1.21,4.25,4.25,0,0,1-.36-2V49a8.24,8.24,0,0,1,.51-2.38,9.12,9.12,0,0,1,1.46-2.46,8.66,8.66,0,0,1,1.51-1.45,10.36,10.36,0,0,1,1.7-1.06A6.68,6.68,0,0,1,95,41.11a1.84,1.84,0,0,1,1.17.08,1.08,1.08,0,0,1,.39.14,4.21,4.21,0,0,1,.58.39,5.41,5.41,0,0,1,.63.57,3.9,3.9,0,0,1,.53.73,31.64,31.64,0,0,1,1.81-5.09A21.51,21.51,0,0,1,102,34.65a8.59,8.59,0,0,1,1.54-1.74,1.72,1.72,0,0,1,1-.48,2,2,0,0,1,.75.41,9.23,9.23,0,0,1,.83.73c.26.27.49.52.67.75a4.52,4.52,0,0,1,.32.42,2.39,2.39,0,0,1,0,.31,2.22,2.22,0,0,1-.11.39l-.18.51a36.58,36.58,0,0,1-3.61,7,37.19,37.19,0,0,1-3.76,4.72V48.7a8.26,8.26,0,0,0,.08,1.1,3.26,3.26,0,0,0,.31,1.39,1.75,1.75,0,0,0,.57.55.77.77,0,0,0,.77-.06,4.41,4.41,0,0,0,1-.75,12.77,12.77,0,0,0,1.06-1.23c.37-.47.72-1,1.06-1.48.81-1.2,1.66-2.61,2.57-4.25h.18a.34.34,0,0,1,.22.07.1.1,0,0,0,.16,0C107.34,44,107.38,44,107.38,44Zm-18.24,3.7a.07.07,0,0,1,0-.05s0,0,0-.06a.33.33,0,0,0,.08-.16.12.12,0,0,1,0-.09.11.11,0,0,1,0-.06.08.08,0,0,0,0,0l.07-.15a2.93,2.93,0,0,1,.13-.29l.16-.33a2.91,2.91,0,0,0,.17-.28l.2-.34.26-.35a1.6,1.6,0,0,1,.22-.28,3.46,3.46,0,0,1,.36-.49c.13-.13.22-.24.3-.31a.72.72,0,0,0,.12-.15l.1-.11a.63.63,0,0,0,.14-.18h0v0a.09.09,0,0,1-.07,0s0,0,0,0a.93.93,0,0,0-.18.16l-.15.17a.51.51,0,0,1-.12.16l-.17.17a.84.84,0,0,1-.15.2,3,3,0,0,0-.18.24c-.07.1-.13.16-.16.2a.62.62,0,0,0-.13.2.8.8,0,0,1-.13.16,2,2,0,0,0-.17.24,1.44,1.44,0,0,1-.09.2.56.56,0,0,1-.09.17,1.36,1.36,0,0,0-.13.24c0,.08-.08.17-.12.27a2.37,2.37,0,0,0-.15.28,1.45,1.45,0,0,0-.11.31,1.6,1.6,0,0,0-.11.25A.6.6,0,0,0,89,48v0a.13.13,0,0,1,0-.08.27.27,0,0,1,0-.14A.1.1,0,0,1,89.14,47.74Zm.25.22,0,.08,0,.07a.14.14,0,0,1,0,.07.24.24,0,0,0,0,.08v0s0,.05,0,.06a.07.07,0,0,0,0,0s0,0,0,0v-.11s0,0,0,0a.08.08,0,0,0,0-.05s0,0,0,0,0,0,0,0v-.07a.11.11,0,0,1,0-.07Zm.4-1h0a.47.47,0,0,0-.06.09,1.12,1.12,0,0,1,0,.13v0a.12.12,0,0,0,0,.11l-.07.11v.11l0-.08v-.07a0,0,0,0,1,0,0l0-.07,0,0a.08.08,0,0,0,0-.07.24.24,0,0,1,0-.11.52.52,0,0,1,.07-.11Zm.33-.58,0,0a1.49,1.49,0,0,0-.11.15l-.08.15a.7.7,0,0,0,0,.14.2.2,0,0,1,.07-.11.21.21,0,0,0,0-.11.2.2,0,0,1,.07-.11s.07-.07.06-.07,0,0,0,0Zm0-.11s0,0,0,0a.36.36,0,0,1,.09-.12.48.48,0,0,0,.11-.15,1.74,1.74,0,0,1,.18-.22,1.07,1.07,0,0,0,.17-.24,1.09,1.09,0,0,1,.16-.24.47.47,0,0,0,.1-.11l.05-.07a.48.48,0,0,1,.11-.15s0,0,0-.05l0-.06a.08.08,0,0,0,0-.07h0s0,0,0,0a.19.19,0,0,0-.06.07.18.18,0,0,1,0,.07l-.11.11a.86.86,0,0,0-.11.19c0,.05-.08.07-.09.07s0,0-.06.07a.48.48,0,0,0-.11.15l-.07.15a.56.56,0,0,0-.11.18,1,1,0,0,1-.15.18.31.31,0,0,1,0,.09A.64.64,0,0,0,90.16,46.32Zm.51,1.86.08-.22a2.93,2.93,0,0,1,.13-.29,3.3,3.3,0,0,1,.16-.29,3,3,0,0,0,.15-.26l.18-.33a3.32,3.32,0,0,1,.48-.66c.14-.17.27-.33.38-.49a1.1,1.1,0,0,1,.28-.31c.09-.08.14-.13.14-.17a.28.28,0,0,1,.07-.13l.11-.11h.08v-.07s0,0,0,0,0,0,0,0l0,0a.08.08,0,0,1,0,.07.09.09,0,0,1-.07,0,.52.52,0,0,0-.18.18,1,1,0,0,1-.15.19l-.17.14-.16.15a1.12,1.12,0,0,0-.17.22L91.7,46a.84.84,0,0,1-.18.19.59.59,0,0,0-.19.18.8.8,0,0,1-.13.16,1.28,1.28,0,0,0-.12.24L91,46.9A.31.31,0,0,0,91,47a.13.13,0,0,0,0,.07.3.3,0,0,1,0,.11,1.24,1.24,0,0,1-.07.26s0,0,0,.06,0,0,0,.05,0,.08,0,.09,0,0,0,.06L90.6,48a1.33,1.33,0,0,0-.11.26.08.08,0,0,1,0,.05.08.08,0,0,0,0,.06.22.22,0,0,0,0,.14s0,.09,0,.19v.07a.13.13,0,0,0,.07,0v0s0,0,0,0a.37.37,0,0,1,0-.14.21.21,0,0,1,.07-.15.36.36,0,0,0,.08-.15A.36.36,0,0,1,90.67,48.18Zm6.82-1.68c.14-.68.29-1.34.44-2a5.8,5.8,0,0,0-.44-.62l-.33-.4q-.25-.37-.81-.15L96,43.5a4.12,4.12,0,0,0-.53.29h0A13.73,13.73,0,0,0,94,45.22a17.68,17.68,0,0,0-1.36,1.64A11.53,11.53,0,0,0,91.41,49,7.9,7.9,0,0,0,91,50.44a1.38,1.38,0,0,0,.13,1.15c.09.12.28.15.55.07A4.3,4.3,0,0,0,93.26,51a12.85,12.85,0,0,0,2.1-1.74v0l.33-.35.33-.34a9.2,9.2,0,0,0,.64-.81ZM92,44.08a1.62,1.62,0,0,0-.55.51l-.15.15s0,0,.22-.18.15-.16.15-.19l.11-.11a1.16,1.16,0,0,0,.22-.18v0Zm5.75,6v.55s0,0,0-.18v-.59a1.11,1.11,0,0,0,0-.33,1.8,1.8,0,0,1,0-.22,1.41,1.41,0,0,0,0-.18,2.19,2.19,0,0,0,0-.31.53.53,0,0,1,0-.2v-.3l0,0v0a.43.43,0,0,0,0,.22.37.37,0,0,1,0,.12.44.44,0,0,0,0,.1,1.12,1.12,0,0,1,0,.29.27.27,0,0,1,0,.11s0,.06,0,.11v.73Zm.11,1.36v-.15a.51.51,0,0,0,0-.13.57.57,0,0,1,0-.16.5.5,0,0,0,0-.19s0,0,0,0v0a.43.43,0,0,0,0,.22v.11a.11.11,0,0,0,0,.06s0,0,0,0a.14.14,0,0,0,0,.09A.08.08,0,0,1,97.89,51.41Zm.37.88a.08.08,0,0,0,0-.06s0,0,0,0,0,0,0-.08a0,0,0,0,0,0,0s0,0,0-.08l0-.07c0-.05,0-.09,0-.11l0-.11c0-.05,0-.07,0-.07s0,0,0-.08h0v0a.4.4,0,0,0,0,.15.19.19,0,0,0,0,.07.19.19,0,0,1,0,.07,0,0,0,0,1,0,0l.07.15a.2.2,0,0,0,.07.11S98.21,52.24,98.26,52.29Zm0-5.39h0v0a2.91,2.91,0,0,0-.13.47c0,.18-.07.32-.09.44S98,48,98,48.06a.14.14,0,0,1,0,.09c0,.09,0,0,.11-.41a2.35,2.35,0,0,0,0-.25,1.94,1.94,0,0,1,0-.22l.08-.29s0,0,0,0Zm.81,4.69,0,0,0,0a.09.09,0,0,1,0-.07.18.18,0,0,1,0-.11.18.18,0,0,1,0-.11l0,0v0a.1.1,0,0,1,0-.07.07.07,0,0,0,0,0s0,0,0-.06l0-.07,0-.08v-.11a11.34,11.34,0,0,1-.11-.6v-.53a.53.53,0,0,0,0-.13.15.15,0,0,1,0-.13s0-.08,0-.09,0,0,0-.09,0-.07,0-.07h0l0,0,0,0h-.14v0h0s0,0,0,0a.78.78,0,0,0,0,.29.24.24,0,0,1,0,.11.3.3,0,0,0,0,.11,1.13,1.13,0,0,0,.07.33.24.24,0,0,1,0,.16.28.28,0,0,0,0,.13.35.35,0,0,1,0,.13.38.38,0,0,0,0,.13.37.37,0,0,0,0,.14.27.27,0,0,0,.09.11s0,.1.06.13a.31.31,0,0,0,.09.13c0,.05,0,.08,0,.09a.2.2,0,0,1,0,.09s0,.05,0,.08,0,.07,0,.07a1.77,1.77,0,0,0,.14.22v0h0s0,0,0,0,0,0,0,0ZM99,52.8h0l0,0h0l0,0,0,0s0,0-.06,0,0,0,0,0h0s0,0,0,0-.07,0-.07,0,0,0,0,.07h0l0,0s0,0,0,0l.06,0,.07,0,0,0H99v0s0,0,0,0Zm1.13-11.06a.16.16,0,0,0,0,.11.51.51,0,0,1,0,.13.43.43,0,0,0,0,.12c.46-.9,1-1.9,1.45-3s1-2.32,1.59-3.66A8.43,8.43,0,0,0,102,37c-.3.53-.62,1.2-1,2a18.35,18.35,0,0,0-1,2.84Zm3.48-4.87a2.23,2.23,0,0,1-.18.44l-.17.34a2.36,2.36,0,0,1-.16.32,2.93,2.93,0,0,1-.13.29,3.77,3.77,0,0,0-.16.36l-.19.3-.11.25a2.53,2.53,0,0,1-.18.37,3.06,3.06,0,0,0-.18.4.7.7,0,0,0-.13.19l-.13.22c-.1.19-.17.33-.22.4a5.9,5.9,0,0,0-.4.69l0,.08v0h0l0-.07a.69.69,0,0,0,.12-.19,1.86,1.86,0,0,1,.17-.25,2.07,2.07,0,0,0,.2-.37,2.09,2.09,0,0,1,.16-.33l.24-.42.28-.49a1,1,0,0,1,.09-.17,3.33,3.33,0,0,0,.24-.49.81.81,0,0,0,.14-.3l.15-.29.15-.29c0-.1.09-.19.12-.28a1.71,1.71,0,0,1,.13-.23c.12-.3.24-.57.35-.83s.2-.46.28-.6a1.82,1.82,0,0,1,.09-.28l.09-.24a3.18,3.18,0,0,0,.11-.33h0v0h0v0s0,0,0,0,0,0,0,.06a.07.07,0,0,0,0,0v.07a1.72,1.72,0,0,0-.17.37,1.13,1.13,0,0,1-.13.29,1.2,1.2,0,0,0-.14.3,3.05,3.05,0,0,0-.11.29Zm-1.94,4.57-.07.08s0,0,0,0,0,0,0,.06l-.11.22a0,0,0,0,0,0,0,.21.21,0,0,0-.07.15h0s0,0,0,0v0c0-.05.07-.08.07-.11s0,0,.07,0a.72.72,0,0,1,.07-.11.1.1,0,0,0,0-.08.08.08,0,0,1,0,0,.14.14,0,0,0,0-.09Zm.44-.69s0,0,0-.07a.16.16,0,0,1,.07-.11l0-.08a2.8,2.8,0,0,1,.14-.25,1.44,1.44,0,0,0,.11-.19,0,0,0,0,0,0,0s0,0,0,0l-.18.37,0,0a.31.31,0,0,0,0,.09.42.42,0,0,1,0,.09l-.08.09a.09.09,0,0,1,0,.05.22.22,0,0,1-.08.15s.08,0,.08-.11Zm3.08-4a.48.48,0,0,0-.06.18.9.9,0,0,1-.09.26l0,.12-.06.13a2.06,2.06,0,0,1-.11.3,1.59,1.59,0,0,1-.22.42,1.67,1.67,0,0,0-.22.34,3.17,3.17,0,0,0-.16.37c0,.1-.11.24-.2.44l-.19.38c0,.07-.06.17-.11.32s0,.14-.07.22a2.41,2.41,0,0,1-.11.25l-.11.22a1.39,1.39,0,0,0-.06.13.31.31,0,0,1-.09.13c-.1.17-.19.33-.29.47l-.15.28a.86.86,0,0,1-.14.2l-.11.22a.83.83,0,0,0-.15.22,1.41,1.41,0,0,0-.18.33s0,0,0,.07l0,0s0,0,0,0l0,0s0,0,0,0h0v0h0l0,0v0a1.14,1.14,0,0,0,.16-.22l.24-.33a3.94,3.94,0,0,1,.29-.4l.22-.4.15-.28.15-.23.05-.13a.31.31,0,0,1,.09-.13,2.24,2.24,0,0,1,.19-.33l.11-.22a.71.71,0,0,1,.14-.29s0-.11.08-.17a.77.77,0,0,1,.07-.16.32.32,0,0,0,.09-.17.29.29,0,0,1,.09-.16.69.69,0,0,0,.07-.19,1.59,1.59,0,0,1,.08-.18.29.29,0,0,0,.09-.16.6.6,0,0,1,.09-.21.59.59,0,0,0,.07-.16c0-.06,0-.12.08-.17a.71.71,0,0,0,.14-.29,4.19,4.19,0,0,0,.44-1,3.6,3.6,0,0,1,.3-.75.76.76,0,0,0,.13-.34.46.46,0,0,1,0-.28l.11-.26,0,0,0,0v0s0,0,0-.07a.09.09,0,0,1-.07,0H106a.24.24,0,0,1,0,.08.19.19,0,0,0,0,.07l-.07.15a1.82,1.82,0,0,0-.17.44,1.36,1.36,0,0,1-.13.36s-.05.11-.07.17a.81.81,0,0,1-.11.2.81.81,0,0,0-.11.2C105.23,36.65,105.2,36.71,105.18,36.76Zm-2.6,3.11c0,.05,0,0,.07-.15a2.22,2.22,0,0,0,.18-.33l.08-.12a.33.33,0,0,1,0-.1s0,0,0,0a.83.83,0,0,0-.15.22.2.2,0,0,1,0,.13s0,.08-.07.13A.53.53,0,0,0,102.58,39.87Zm.47-.92c0,.08,0,0,.11-.18a.36.36,0,0,0,.08-.15.33.33,0,0,1,.07-.14l.18-.37s.05-.1.08-.16a2.15,2.15,0,0,1,.11-.24,1.33,1.33,0,0,0,.11-.24.43.43,0,0,1,.11-.2c0-.12.09-.24.12-.35a.66.66,0,0,1,.13-.24,1.59,1.59,0,0,1,.08-.18s0-.07,0-.07,0,0,0-.08,0,0,0,0,0,0,0,0a.1.1,0,0,0,0,.08,2.41,2.41,0,0,1-.11.25l-.07.13a.2.2,0,0,0,0,.13.85.85,0,0,0-.15.33s-.07.13-.14.26l-.11.25s-.07.09-.06.13a.16.16,0,0,1,0,.13l-.07.15-.07.14-.1.17-.09.16-.07.15A.37.37,0,0,0,103.05,39Zm1.87-4.21c-.1.2-.19.39-.27.59a4.64,4.64,0,0,0-.21.51,1.67,1.67,0,0,0-.1.24s0,0,0,.09,0,0,0,0a4,4,0,0,0,.21-.4c.08-.22.11-.32.11-.31a1.44,1.44,0,0,0,.11-.24,2.43,2.43,0,0,1,.15-.4Z"/>
      <path class="cls-4" d="M118.36,44.23c0,.07,0,.09.09.05s.1,0,.1,0-.18.32-.52.88-.74,1.19-1.21,1.89-.91,1.36-1.35,2-.76,1.06-1,1.28a2.71,2.71,0,0,1-1,.77,1.36,1.36,0,0,1-.82,0,1,1,0,0,1-.44-.24,3.14,3.14,0,0,1-.5-.47,3.23,3.23,0,0,1-.4-.59,1.31,1.31,0,0,1-.17-.6c-.39.49-.75.94-1.09,1.35s-.59.68-.89,1-.53.55-.67.68a2.77,2.77,0,0,1-.68.38.92.92,0,0,1-.49,0,1.73,1.73,0,0,1-.66-.4c-.24-.22-.46-.4-.65-.55a3.49,3.49,0,0,1-.69-.82,2,2,0,0,1-.33-1.34,12.37,12.37,0,0,1,.6-3.08,9.67,9.67,0,0,1,1.66-3.07,5.41,5.41,0,0,1,1.33-1.23,7.39,7.39,0,0,1,1.54-.81,3.57,3.57,0,0,1,1.43-.22,1.4,1.4,0,0,1,1,.5c.49.58.84,1,1.06,1.33a1.79,1.79,0,0,1,.37.76.17.17,0,0,1-.07.2.33.33,0,0,1-.24,0,1.29,1.29,0,0,1-.29-.19.73.73,0,0,1-.24-.31,1.32,1.32,0,0,0-.46-.58c-.18-.13-.41-.09-.68.11a7.65,7.65,0,0,0-.84.93,15.3,15.3,0,0,0-1.2,1.74,20.84,20.84,0,0,0-1.17,2.27,9.69,9.69,0,0,0-.72,2.53.22.22,0,0,0,.14,0l.22,0a1.09,1.09,0,0,0,.33-.18,4.94,4.94,0,0,0,.65-.65c.25-.28.47-.56.68-.84s.39-.53.56-.75l.33-.44a1.81,1.81,0,0,0,.18-.42l.26-.75a6.2,6.2,0,0,1,.38-.92,5.1,5.1,0,0,1,.57-.88,3.74,3.74,0,0,1,.4-.4,1.55,1.55,0,0,1,.33-.15c.1,0,.18,0,.26.15a1.13,1.13,0,0,0,.18.33.47.47,0,0,0-.15.18.79.79,0,0,0-.12.15l-.13.15-.11.22s0,0,0,0,0-.06.08-.11a.35.35,0,0,0,0-.08l.06-.07.07-.15s0,0,0,0,0,0,0-.06l.08-.09c0-.05.07-.08.07-.11a.2.2,0,0,0,.11.07s.06,0,.11.15.13.18.26.11.16-.05.11.07a2.62,2.62,0,0,1-.19.37c-.09.17-.2.37-.31.59a5.28,5.28,0,0,0-.29.69,3.57,3.57,0,0,0-.17.66c0,.2,0,.28,0,.26a.55.55,0,0,0,.11-.2,3.68,3.68,0,0,0,.15-.41,1.4,1.4,0,0,1,.15-.34c0-.08.08-.22.16-.43l.29-.64a5.59,5.59,0,0,1,.35-.6,1.12,1.12,0,0,1,.33-.35c.2-.07.33-.06.39,0a.44.44,0,0,1,0,.4,1.63,1.63,0,0,0-.13.49,1.43,1.43,0,0,1-.09.43c0,.07-.12.27-.28.6s-.32.69-.49,1.08a10.45,10.45,0,0,0-.42,1.12c-.11.35-.13.58-.06.68a.38.38,0,0,0,.22-.15,3.69,3.69,0,0,0,.7-.77l.75-1L116.42,46l1.39-1.79a.35.35,0,0,1,.08-.11c.07-.08.12-.08.14,0s0,.14.08.07,0-.07,0,0,0,.09.09,0S118.34,44.18,118.36,44.23Zm-12.52,4a1.38,1.38,0,0,0,.12-.36c0-.15.08-.31.13-.48s.11-.33.17-.49.11-.3.16-.42.1-.24.15-.35l.15-.35c0-.1.09-.19.12-.28l.09-.2a1.34,1.34,0,0,0,.13-.22l.09-.14a1.65,1.65,0,0,0,.11-.26l0,0h0v0l0,0a.09.09,0,0,0,0,.07s0,0,0,0a5.57,5.57,0,0,0-.25.51.35.35,0,0,1-.08.11.72.72,0,0,0-.07.11c0,.05,0,.09-.07.13a.18.18,0,0,0,0,.13.67.67,0,0,0-.14.27c0,.14-.1.26-.15.39s-.09.21-.11.27l-.11.28a.34.34,0,0,0,0,.12.35.35,0,0,1,0,.13,1.31,1.31,0,0,0-.11.29.22.22,0,0,1,0,.1.14.14,0,0,0,0,.09.14.14,0,0,1,0,.11.89.89,0,0,1,0,.22,1.25,1.25,0,0,1-.08.33.48.48,0,0,1,0,.18v.18a1.24,1.24,0,0,0-.08.37.16.16,0,0,1,0,.11.16.16,0,0,0,0,.11v.18a1.42,1.42,0,0,0,0,.33v.41s0,0,0,0v-.08a.48.48,0,0,1,0-.18v-.25a.32.32,0,0,1,.06-.22v-.11a1.49,1.49,0,0,1,0-.33.27.27,0,0,1,0-.11.31.31,0,0,0,0-.11.5.5,0,0,1,0-.19.48.48,0,0,1,0-.18.51.51,0,0,1,0-.13A.44.44,0,0,0,105.84,48.18Zm.07,2.06v0a.11.11,0,0,0,0-.06.08.08,0,0,1,0,0v.11l0,.18,0,0,0,.14h0v-.14s0,0,0,0Zm.11-1.36a.42.42,0,0,0,0-.15s0,0,0,0v0a.27.27,0,0,0,0,.15.48.48,0,0,1,0,.18v0l0,.15a.17.17,0,0,0-.07.14v.15s0,0,0-.11l0-.15a.1.1,0,0,0,0-.07V49.1A.82.82,0,0,0,106,48.88Zm.22-.92s0,0,0,0l0,0a.34.34,0,0,0,0,.18.49.49,0,0,1-.07.22v.15s0,0,.07-.11a.92.92,0,0,1,0-.29l0-.11Zm.58-1.57a1.24,1.24,0,0,0,.1-.26A.31.31,0,0,1,107,46a.4.4,0,0,0,0-.15.21.21,0,0,0,0-.11,0,0,0,0,0,0,0,.3.3,0,0,0-.07.11.24.24,0,0,1,0,.11.11.11,0,0,1,0,.07.52.52,0,0,0-.08.11,1.24,1.24,0,0,1-.07.26.31.31,0,0,1,0,.09s0,0-.06.09l-.07.22a3,3,0,0,1-.11.48,1.39,1.39,0,0,0-.06.13l-.05.12a1.42,1.42,0,0,0-.07.26s0,0,.07-.15a2.41,2.41,0,0,0,.11-.25.38.38,0,0,0,0-.13.35.35,0,0,1,.07-.17.85.85,0,0,1,.11-.32.25.25,0,0,1,.07-.19A1.32,1.32,0,0,1,106.82,46.39Zm.77,1.43c0-.17.11-.34.17-.5s.11-.3.16-.42.23-.5.32-.71a4.11,4.11,0,0,1,.23-.5.37.37,0,0,0,.11-.22.25.25,0,0,0,0-.09.25.25,0,0,1,0-.09.41.41,0,0,0,.07-.18h.07s0,0,0,0l0,0a0,0,0,0,0,0,0l0,0h0l0,.07-.08.08a.92.92,0,0,0-.16.31.66.66,0,0,1-.13.24c0,.05-.07.12-.13.23a1.09,1.09,0,0,1-.16.24.71.71,0,0,0-.13.3,3.76,3.76,0,0,1-.13.4,1.72,1.72,0,0,1-.13.27c0,.06-.08.16-.13.28a1.21,1.21,0,0,0,0,.14.47.47,0,0,1-.06.15.35.35,0,0,0,0,.13.73.73,0,0,1,0,.16,1.14,1.14,0,0,0-.07.3v.4a.14.14,0,0,1,0,.09.14.14,0,0,0,0,.09,1.76,1.76,0,0,1,0,.19,1.41,1.41,0,0,0,0,.18v.18a.5.5,0,0,0,0,.19.41.41,0,0,0,0,.22s0,0,0,.07v.4a.51.51,0,0,0,0,.13.51.51,0,0,1,0,.13v.11h.11l0,0h0l0,0v-.18a1,1,0,0,1,0-.26.7.7,0,0,1,0-.32v-.3c0-.14,0-.27,0-.36a3.1,3.1,0,0,1,.09-.44c0-.1.06-.22.1-.37S107.54,48,107.59,47.82Zm.15-3.3c-.2.29-.35.55-.48.77l-.07.18,0,.08c0,.05,0,0,0,0l.2-.31c0-.15.09-.22.11-.22a.35.35,0,0,1,.11-.19l.15-.29,0,0h0Zm4.32,2.27a6.7,6.7,0,0,1,.33-.84,4.26,4.26,0,0,1,.51-1,1.79,1.79,0,0,1,.1-.22.53.53,0,0,1,.09-.11,1.42,1.42,0,0,0,.14-.22l0,0h0v0h0s0,.05,0,.07,0,0,0,0l-.14.24a.86.86,0,0,1-.15.2,1.44,1.44,0,0,1-.11.2,1,1,0,0,1-.14.2,1.42,1.42,0,0,0-.11.24l-.15.35a1.62,1.62,0,0,0-.09.26l-.09.22-.11.25a1.73,1.73,0,0,1-.08.26.22.22,0,0,1,0,.14v.11s0,.09,0,.19a.78.78,0,0,0,0,.29.48.48,0,0,0,0,.18.22.22,0,0,1,0,.15,4.48,4.48,0,0,1-.07.7V49a.79.79,0,0,0,0,.26s0,.07,0,.07v-.48a.57.57,0,0,1,0-.16.51.51,0,0,0,0-.13v-.29a1.34,1.34,0,0,0,0-.33.5.5,0,0,0,0-.19.36.36,0,0,1,0-.11.27.27,0,0,0,0-.11Zm.08,1.36a.4.4,0,0,0,0-.15s0,0,0,0a0,0,0,0,0,0,0v.29l0,0v.37l0-.08V48.4a.1.1,0,0,0,0-.07Zm0,1.28s0,0,0-.06a.08.08,0,0,0,0,0,0,0,0,0,0,0,0V49.1s0,0,0,.07v.08a.26.26,0,0,0,0,.18v0Zm.18-2.09s0,0,0,0v0a.34.34,0,0,0,0,.18.27.27,0,0,1,0,.11.36.36,0,0,0,0,.11s0,.08,0,.08,0,0,0,0a.24.24,0,0,1,0-.11.66.66,0,0,1,0-.25.18.18,0,0,0,0-.11Zm.73-2a0,0,0,0,0,0,0,.68.68,0,0,0-.08.19.28.28,0,0,0-.1.18.29.29,0,0,0-.08.22.31.31,0,0,1,0,.09s0,0-.06.09a1.31,1.31,0,0,0-.07.19.32.32,0,0,0,0,.18.12.12,0,0,0,0,.09.38.38,0,0,1,0,.13.2.2,0,0,1,0,.13.25.25,0,0,0,0,.13.22.22,0,0,0-.08.18c0,.1,0,.05.08-.15,0,0,.06-.08,0-.09s0,0,0-.09a1.12,1.12,0,0,0,0-.13s0-.09.06-.16v0s0,0,0,0,0,0,0,0a.21.21,0,0,1,.07-.15l.11-.33a1.36,1.36,0,0,0,.11-.2c0-.06,0-.12.07-.17s.07-.08.06-.09,0,0,0-.05a.37.37,0,0,1,0-.11Z"/>
      <path class="cls-4" d="M134.4,44.23a3.73,3.73,0,0,1-.71.49l-1.78,1.12-2.51,1.57c-.94.59-1.91,1.21-2.91,1.87-.29.81-.61,1.64-1,2.51s-.75,1.73-1.19,2.58-.92,1.69-1.44,2.51a21,21,0,0,1-1.71,2.29,16,16,0,0,1-2.53,2.51A13.48,13.48,0,0,1,116.6,63a6.49,6.49,0,0,1-1.41.55l-.6.11a.44.44,0,0,1-.4-.3.38.38,0,0,0-.19,0l-.18,0a1.24,1.24,0,0,1-.53-.18l-.35-.22,0,0a2.29,2.29,0,0,1-.87-1.68A4.25,4.25,0,0,1,112.9,59a18.86,18.86,0,0,1,2.31-2.67,35.57,35.57,0,0,1,3.28-2.8c1.23-.94,2.5-1.85,3.79-2.73.1-.22.2-.44.29-.66l.3-.66a8.48,8.48,0,0,1-1.5,1.54,2,2,0,0,1-1.51.47l-.55-.14a1.71,1.71,0,0,0-.45-.09,1.63,1.63,0,0,1-.35-.06l-.44,0a2.4,2.4,0,0,1-.79-.23,1.88,1.88,0,0,1-.73-.68,2.26,2.26,0,0,1-.29-1.34,7.3,7.3,0,0,1,.51-2.23,20.44,20.44,0,0,1,1.7-3.39,3,3,0,0,1,.15-.26,1.48,1.48,0,0,0,.14-.25l.3-.5a3.82,3.82,0,0,1,.29-.42h0l.28-.44a3.1,3.1,0,0,1,.27-.4.67.67,0,0,1,.41-.29l-.08.14-.14.28a1.44,1.44,0,0,0-.11.2.83.83,0,0,0-.15.22c-.05.1-.09.17-.11.22a1,1,0,0,0-.16.25,4,4,0,0,0-.17.37l-.26.51a1.35,1.35,0,0,1-.12.22,1.23,1.23,0,0,0-.13.26,1.62,1.62,0,0,0-.09.26s0,.12-.1.21a.88.88,0,0,0-.05.15.3.3,0,0,1-.09.15,1.8,1.8,0,0,0-.11.29.32.32,0,0,0-.09.17,1.59,1.59,0,0,1-.09.2s0,.1-.08.16,0,.12-.07.17a1,1,0,0,0-.11.29,1.45,1.45,0,0,1-.11.29l0,0h0a3.63,3.63,0,0,0,.18-.48l.15-.29a.38.38,0,0,0,0-.13.21.21,0,0,1,.07-.13,1.88,1.88,0,0,1,.15-.34c0-.09.11-.22.18-.39l.16-.35.2-.42.22-.44.22-.4q.19-.33.33-.6c.1-.19.17-.34.22-.46a.65.65,0,0,0,.11-.22.36.36,0,0,1,.08-.15.31.31,0,0,0,.07-.15.16.16,0,0,1,.07-.1.19.19,0,0,1,.15.1s0,0,0,0,0,0,.06,0a1.36,1.36,0,0,0-.13.24,1.71,1.71,0,0,1-.13.23l-.07.19,0,.07.22-.33q.12-.25.09-.24l.1-.16a1.35,1.35,0,0,0,.29,0c.1,0,.17.06.22.18a1.07,1.07,0,0,0,.16.14l.21.15c0,.05,0,.11-.08.17s-.05.11-.07.16a2.42,2.42,0,0,1-.15.24,1.47,1.47,0,0,1-.18.24,2.37,2.37,0,0,0-.13.31c-.06.16-.12.3-.16.42a.84.84,0,0,1-.17.27.83.83,0,0,0-.16.28c0,.12-.1.21-.13.27s-.09.16-.17.28a2.51,2.51,0,0,0-.09.29,1.62,1.62,0,0,1-.09.26.34.34,0,0,1,0,.16c0,.06,0,.12-.07.17a2.76,2.76,0,0,1-.11.36c-.07.13-.13.25-.18.37l-.11.22a.22.22,0,0,0-.08.15l-.07.16c0,.06,0,.12-.07.17a.43.43,0,0,1,0,.12.51.51,0,0,0,0,.13,0,0,0,0,0,0,0s0,.07,0,.07l0,0h.08v0s0,0,0,0v0l.07-.15a1.6,1.6,0,0,0,.11-.25.55.55,0,0,0,.15-.3,1.12,1.12,0,0,0,0-.13.7.7,0,0,1,.09-.16.24.24,0,0,0,0-.11.24.24,0,0,1,0-.11.62.62,0,0,0,.07-.18.4.4,0,0,0,.11-.19,1.6,1.6,0,0,1,.11-.25l.18-.37q0-.1.09-.24a1.71,1.71,0,0,1,.13-.23,4.5,4.5,0,0,1,.48-1c.15-.27.27-.51.37-.73a4.06,4.06,0,0,1,.25-.51.4.4,0,0,0,.11-.22.62.62,0,0,1,.15.29,1.39,1.39,0,0,1,0,.51c-.32.71-.65,1.47-1,2.29s-.62,1.6-.84,2.33a10,10,0,0,0-.4,1.9c0,.54.07.88.36,1a.76.76,0,0,0,.88-.15,5.89,5.89,0,0,0,1.08-1.06A16.47,16.47,0,0,0,123,47.05c.39-.61.75-1.22,1.1-1.81s.64-1.15.89-1.65.46-.89.61-1.16c0-.07.07-.19.14-.36s.16-.34.26-.52.2-.32.29-.45.19-.19.26-.17a.66.66,0,0,0,.35,0,.93.93,0,0,1,.31,0h.42A.63.63,0,0,1,128,41c0,.08.14.08.29,0s.23-.06.26,0,0,.13,0,.32,0,.4-.07.66-.09.53-.15.84-.13.6-.2.9-.23.89-.4,1.59-.4,1.47-.66,2.32l2.38-1.41,1.9-1.11c.64-.37,1.21-.69,1.72-1l.19-.07c.14,0,.22,0,.22,0s0,.06.09,0l.18-.08.18,0c.06,0,.09,0,.09,0s0,.08.1.08h.33S134.43,44.15,134.4,44.23ZM114.52,61.59a4.16,4.16,0,0,0,1.52-1,13.52,13.52,0,0,0,1.68-2c.57-.79,1.16-1.68,1.76-2.67s1.18-2,1.74-3.13l-1.5,1.13c-.47.35-.88.68-1.25,1a33.74,33.74,0,0,0-3,3,13.42,13.42,0,0,0-.92,1.17,4.82,4.82,0,0,0-.58,1.08,1.38,1.38,0,0,0-.08.88A.83.83,0,0,0,114.52,61.59Zm3.7-15.93,0,.07s0,0,0,0,0,0,0,0a.36.36,0,0,0,0,.11s0,.05,0,.08v.07s0,0,0,.11h0v0a.12.12,0,0,0,0-.11s0,0,0,0a.08.08,0,0,0,0,0l.07-.11v0a.12.12,0,0,1,0-.11Zm.51-1.18a0,0,0,0,0,0,0l-.11.29,0,0a.11.11,0,0,1,0,.06s0,0,0,.09-.1.11-.07.11,0,0,0,0,0,0,0,0v.07l0,0a.15.15,0,0,1,0-.06v-.07a0,0,0,0,1,0,0s0,0,0-.05a.08.08,0,0,0,0-.06.09.09,0,0,0,0-.07h0a.62.62,0,0,1,.07-.18l.07-.15S118.75,44.48,118.73,44.48Zm.14-.22A1.28,1.28,0,0,0,119,44a.68.68,0,0,0,.08-.19v0l0,0A.55.55,0,0,0,119,44l-.11.22a.43.43,0,0,0,0,.14S118.83,44.36,118.87,44.26Zm.26-.58s0,0,.11-.15.07-.08.06-.11,0-.06,0-.11a1.39,1.39,0,0,0,.06-.13.7.7,0,0,1,.09-.16.94.94,0,0,0,.16-.28l.17-.34c.09-.25.16-.39.18-.44s.07-.08.06-.08,0,0,0-.07a.21.21,0,0,0,0-.11l0,0A.31.31,0,0,0,120,42c-.07.07-.11.12-.11.14a1.12,1.12,0,0,0,0,.13.49.49,0,0,1-.06.13.31.31,0,0,1,0,.09l-.06.09,0,.11a.64.64,0,0,1-.06.11.69.69,0,0,1-.07.19,2.41,2.41,0,0,0-.11.25,1.12,1.12,0,0,0,0,.13.2.2,0,0,1-.06.09s0,.09-.07.13A.2.2,0,0,0,119.13,43.68Zm.07,14.39a2.93,2.93,0,0,0,.26-.33.89.89,0,0,0,.2-.24,1.29,1.29,0,0,1,.17-.23,1.65,1.65,0,0,1,.22-.3l0-.07a.19.19,0,0,1,.06-.07l.11-.22a2.33,2.33,0,0,0,.22-.3l.11-.2a1,1,0,0,1,.11-.2l.14-.22.15-.22c.1-.19.17-.33.22-.4.24-.44.44-.79.58-1.06l.19-.37a2.49,2.49,0,0,0,.11-.26l0,0h0v0l0,0a.13.13,0,0,0,0,.07s0,0,0,0l-.08.15a.61.61,0,0,1-.07.14l-.11.22-.11.22a1.21,1.21,0,0,1-.14.22.2.2,0,0,0-.06.11.3.3,0,0,1-.09.15,3.15,3.15,0,0,1-.18.33.85.85,0,0,1-.15.26.69.69,0,0,0-.15.22,1.1,1.1,0,0,1-.13.25l-.16.26-.15.24-.11.16a.88.88,0,0,0,0,.15.28.28,0,0,1-.09.14A1,1,0,0,0,120,57l0,.07a.21.21,0,0,1-.06.08.31.31,0,0,1,0,.09l-.06.09-.11.13-.11.13a.88.88,0,0,1-.18.25.53.53,0,0,0-.09.11.35.35,0,0,1-.09.11v0l0,0h0v0Zm.33.11s0,0-.07,0a.09.09,0,0,1,0,.07.48.48,0,0,1-.11.15l0,0s-.08.08-.08.11h0v0a.07.07,0,0,0,.08-.07s0,0,0,0a.07.07,0,0,0,0-.05.2.2,0,0,0,.11-.07v0l.08-.07Zm.3-.36s0,0,0,0l0,0,0-.07s0,0,0,0l.08-.07a.13.13,0,0,0,0-.07l.15-.15a.53.53,0,0,1,.07-.15v0l0,0s-.09.09-.19.26-.07.08-.07.09,0,0,0,.06a.11.11,0,0,0,0,.07,0,0,0,0,1,0,0A.16.16,0,0,0,119.83,57.82Zm3.88-4.18s0,0,0,0l0,0-.07,0a.1.1,0,0,0-.08,0s0,0,0,0,0,0,0,0v.08l-.08.07a1.53,1.53,0,0,0-.16.35,1.13,1.13,0,0,1-.13.27.86.86,0,0,1-.15.28l-.18.27a.32.32,0,0,0,0,.13.75.75,0,0,1-.1.2.55.55,0,0,0-.11.2.35.35,0,0,1-.11.2,1.15,1.15,0,0,1-.18.3.33.33,0,0,0-.09.14.3.3,0,0,1-.09.15c-.08.12-.13.21-.17.28s-.1.16-.2.31l-.14.29a1.16,1.16,0,0,0-.11.26,7.84,7.84,0,0,1-.41.69,2.78,2.78,0,0,1-.29.39,3.53,3.53,0,0,0-.29.35.13.13,0,0,0-.06.07l-.05.07-.08.08a.09.09,0,0,0,0,0s0,0,0,.05a.38.38,0,0,0-.09.13.31.31,0,0,1-.09.13h0a.09.09,0,0,1,0,.07v0s0,0,0,0h0v0h0v0l0,0h0a.21.21,0,0,0,.06-.08.25.25,0,0,1,.09-.07l.11-.11s0,0,0,0,0,0,0,0,0,0,0,0,0,0,0,0a2.68,2.68,0,0,0,.26-.33,1.48,1.48,0,0,1,.22-.29,1.43,1.43,0,0,1,.14-.2l.15-.17a.83.83,0,0,0,.13-.18,1.68,1.68,0,0,1,.16-.26c.1-.14.18-.27.26-.36l.14-.26a2,2,0,0,0,.15-.26l.33-.55.13-.25a1.59,1.59,0,0,1,.13-.22,4.14,4.14,0,0,0,.44-.77,3.79,3.79,0,0,1,.25-.55c.1-.12.14-.21.13-.26a.38.38,0,0,1,.06-.22l.11-.22h0l0,0Zm-3,2.89a.67.67,0,0,0-.15.19c0,.05,0,.08,0,.09a.17.17,0,0,0-.07.09q-.08.08-.06.09s0,0,0,.06l.11-.11.05-.11a.35.35,0,0,1,.09-.11l.08-.11,0-.08ZM122,54.41l0,0,0,0a1.65,1.65,0,0,1-.11.19.3.3,0,0,1-.11.18.74.74,0,0,0-.11.26.93.93,0,0,1-.15.18.42.42,0,0,0,0,.09l-.08.09a.84.84,0,0,1-.07.18c0,.05,0,.1-.06.13a1.12,1.12,0,0,1,0,.13.48.48,0,0,0-.11.15.3.3,0,0,1-.07.11l-.11.22s0,0,.11-.15.07-.08.07-.11a.2.2,0,0,1,.07-.11.31.31,0,0,0,.09-.13.48.48,0,0,1,.1-.12c0-.08.1-.18.16-.32l.17-.34c0-.08.09-.16.12-.24a.63.63,0,0,1,.13-.2l.07-.15s0,0,0,0S121.93,54.46,122,54.41Zm.62-1.17c-.07.12-.15.25-.23.4a3.15,3.15,0,0,0-.21.4l-.11.19,0,.07c0,.05,0,0,0,0a2,2,0,0,0,.19-.31l.13-.24s0,0,.09-.2l.14-.29v0Zm2.68-7.66a.19.19,0,0,0,.07-.14.28.28,0,0,1,0-.15.88.88,0,0,0,0-.15.59.59,0,0,1,.09-.18c0-.12.13-.33.22-.62s.19-.54.26-.73.13-.38.18-.55a2.61,2.61,0,0,1,.15-.41,1.82,1.82,0,0,0,.11-.33.74.74,0,0,0,0-.18h0v0h0a.08.08,0,0,1,0,.06.08.08,0,0,0,0,.05v0a1.92,1.92,0,0,0-.15.44l-.09.2a.71.71,0,0,0-.05.2,1.32,1.32,0,0,0-.08.22,1.21,1.21,0,0,1-.11.3,1,1,0,0,0-.09.21.84.84,0,0,1-.09.22c0,.08,0,.14-.05.19l-.1.22a.76.76,0,0,0-.07.24.45.45,0,0,1,0,.16.56.56,0,0,0-.07.26,1.28,1.28,0,0,0-.11.25,1,1,0,0,0-.11.28.67.67,0,0,1-.11.27,1.3,1.3,0,0,0-.18.48v0a.32.32,0,0,0,0-.13,1.13,1.13,0,0,1,.09-.2l.1-.24S125.2,45.71,125.25,45.58Zm0,.81,0,.07,0,0a.14.14,0,0,1,0,.09.08.08,0,0,0,0,.06l0,0a.12.12,0,0,1,0,.11s0,0,0,0v0l0-.08v0l.08-.08v0a.13.13,0,0,1,0-.08Zm.41-1s0,0,0,0a1.28,1.28,0,0,0-.11.25c0,.05,0,.08,0,.08s0,0,0,.07a.16.16,0,0,0,0,.11s0,0,0,0v.07a.09.09,0,0,1,0-.07l0-.08v0a.1.1,0,0,0,0-.08.13.13,0,0,0,0-.07l.07-.15A.37.37,0,0,0,125.69,45.44Zm.18-.59,0,.09a.29.29,0,0,1,0,.09s0,0-.08.19v.11a.37.37,0,0,1,0-.11.36.36,0,0,1,.06-.11l.05-.11a1.17,1.17,0,0,0,0-.15Zm.66-1.87,0,0v0a.11.11,0,0,0,0,.07.13.13,0,0,1,0,.07.29.29,0,0,1,0,.09.44.44,0,0,0,0,.1l-.07.22-.07.14a.25.25,0,0,0,0,.09.22.22,0,0,1,0,.1.39.39,0,0,1,0,.14.27.27,0,0,1,0,.11.31.31,0,0,0,0,.11l-.11.22a.27.27,0,0,1,0,.11.25.25,0,0,0,0,.07v0a.24.24,0,0,1,.08-.13,1.71,1.71,0,0,1,.07-.18.38.38,0,0,0,0-.13.39.39,0,0,1,0-.13.42.42,0,0,0,.11-.25.88.88,0,0,1,.11-.29,1,1,0,0,0,.06-.22.74.74,0,0,1,0-.19c0-.05,0-.07,0-.07s0,0,0,0Zm.37-1-.15.36a2.63,2.63,0,0,1-.15.33,1.34,1.34,0,0,1,0,.17v0c0,.08,0,0,.14-.29.05-.12.07-.18.06-.17s0,0,0-.16a1.15,1.15,0,0,1,.08-.26Z"/>
    </g>
  </g>
</svg>
