<svg version="1.1" id="Layer_1" xmlns="http://www.w3.org/2000/svg" x="0" y="0" width="26.3" height="26.3" viewBox="0 0 26.3 26.3" xml:space="preserve"><g fill="#FFF"><path d="M11.179 15.701a4.381 4.381 0 0 0 1.971.475c.677 0 1.34-.16 1.971-.475 1.929-.965 3.277-3.283 3.277-5.638 0-3.149-2.354-5.71-5.248-5.71s-5.248 2.561-5.248 5.71c0 2.355 1.347 4.673 3.277 5.638zM13.15 4.969c2.554 0 4.632 2.285 4.632 5.094 0 2.131-1.207 4.223-2.936 5.087a3.72 3.72 0 0 1-3.391 0c-1.729-.864-2.936-2.956-2.936-5.087-.001-2.809 2.077-5.094 4.631-5.094z"/><path d="M4.324 22.903a13.12 13.12 0 0 0 8.826 3.399c1.022 0 2.031-.118 3.009-.347.461-.108.915-.244 1.361-.401a13.18 13.18 0 0 0 1.463-.613l.013-.007a13.175 13.175 0 0 0 7.307-11.785c0-7.252-5.9-13.152-13.152-13.152S-.002 5.898-.002 13.15c0 3.71 1.577 7.265 4.326 9.753zm16.955-.213l-.205.174-.242.19-.212.163-.248.178-.22.154-.253.164-.228.145-.259.151-.235.135-.266.139-.239.123c-.09.044-.181.085-.272.127l-.245.112c-.092.04-.185.077-.278.114l-.248.101c-.094.036-.189.068-.284.102l-.252.089c-.096.032-.193.06-.289.089l-.255.077c-.099.028-.2.052-.3.077l-.251.064c-.104.024-.208.044-.312.066l-.247.051c-.107.02-.214.035-.322.052l-.244.039c-.113.016-.227.027-.341.039l-.229.026c-.129.012-.259.019-.389.027l-.185.013a12.366 12.366 0 0 1-1.158 0l-.185-.013c-.13-.008-.26-.015-.389-.027l-.229-.026c-.114-.013-.228-.024-.341-.039l-.244-.039c-.107-.017-.215-.033-.322-.052l-.247-.051c-.104-.021-.208-.041-.312-.065l-.251-.064c-.1-.026-.201-.05-.301-.078l-.251-.076c-.098-.03-.196-.058-.293-.09l-.248-.088c-.096-.034-.192-.067-.287-.103l-.246-.1c-.094-.038-.187-.075-.28-.115l-.242-.111c-.092-.042-.184-.083-.274-.128l-.236-.122-.269-.141-.231-.133-.262-.153-.225-.143-.257-.166-.216-.151-.252-.18-.211-.161-.244-.192-.203-.172-.183-.159c.001-1.631 1.151-3.111 2.862-3.683l3.621-1.212a5.061 5.061 0 0 0 3.654 0l3.621 1.212c1.711.572 2.861 2.052 2.862 3.683l-.181.157zM13.15.614c6.912 0 12.536 5.624 12.536 12.536 0 3.316-1.322 6.503-3.649 8.842-.225-1.675-1.469-3.134-3.243-3.727l-3.728-1.248-.215.007a4.446 4.446 0 0 1-3.402 0l-.215-.007-3.728 1.248c-1.774.593-3.018 2.052-3.243 3.727A12.562 12.562 0 0 1 .614 13.15C.614 6.238 6.238.614 13.15.614z"/></g></svg>