<svg version="1.1" id="Layer_1" xmlns="http://www.w3.org/2000/svg" x="0" y="0" width="26.3" height="37.2" viewBox="0 0 26.3 37.2" xml:space="preserve"><path fill="#FFF" d="M13.15.003a5.682 5.682 0 0 0-5.676 5.676v3.753H2.532a.38.38 0 0 0-.378.35L0 36.788a.383.383 0 0 0 .379.41h25.545a.38.38 0 0 0 .379-.41L24.146 9.782a.38.38 0 0 0-.378-.35h-4.942V5.679A5.682 5.682 0 0 0 13.15.003zM8.233 5.679c0-2.711 2.206-4.917 4.917-4.917s4.917 2.206 4.917 4.917v3.753H8.233V5.679zm15.184 4.512l2.094 26.247H.789l2.094-26.247h4.591v3.432H6.166a.38.38 0 1 0 0 .76H9.6a.38.38 0 1 0 0-.76H8.233v-3.432h9.834v3.432H16.7a.38.38 0 1 0 0 .76h3.434a.38.38 0 1 0 0-.76h-1.308v-3.432h4.591z"/></svg>