<svg version="1.1" id="Layer_1" xmlns="http://www.w3.org/2000/svg" x="0" y="0" width="213.57" height="19.43" viewBox="0 0 213.57 19.43" xml:space="preserve"><path fill="#231F20" d="M91.588 8.937V3.175h4.388c1.136 0 2.117.201 2.943.604 1.015.496 1.523 1.208 1.523 2.137 0 .96-.5 1.727-1.497 2.3-.844.48-1.833.72-2.969.72h-4.388zm11.977 8.781c-.568-.403-.895-1.413-.981-3.032-.086-1.618-.155-2.528-.207-2.73-.275-1.162-.955-1.897-2.039-2.207.809-.356 1.446-.883 1.91-1.58a3.983 3.983 0 0 0 .697-2.254c0-1.518-.697-2.71-2.091-3.578-1.205-.743-2.693-1.115-4.466-1.115h-7.357V18.16h2.555v-7.248h5.019c2.207 0 3.324 1.061 3.35 3.183.026 2.122.246 3.477.66 4.065h2.949v-.442zm-17.15-1.649h-11.1v-5.715h10.016V8.379H75.316V3.291h10.893V1.224H72.734V18.16h13.681v-2.091zM68.746 1.224h-2.582V18.16h2.582V1.224zm-5.48 14.822H53.87V1.224h-2.607V18.16h12.003v-2.114zm-14.62.023h-11.1v-5.715h10.016V8.379H37.546V3.291H48.44V1.224H34.965V18.16h13.681v-2.091zM32.392 1.224H17.937v1.998h5.937V18.16h2.581V3.222h5.937V1.224zM6.607 11.12l2.975-7.47 2.931 7.47H6.607zM11 1.224H8.161L1.166 18.16l2.645-.004 2.007-5.06h7.43l1.989 5.063 2.784.001L11 1.224z"/><path fill="#FFF" d="M91.588 8.937h.779V3.955h3.609c1.045 0 1.903.185 2.601.525.423.207.69.434.85.658.158.226.233.455.236.779a1.535 1.535 0 0 1-.248.87c-.167.257-.439.514-.858.754l.003-.002c-.712.404-1.556.617-2.583.618h-4.388v.78h.779-.78v.779h4.388c1.244.001 2.379-.266 3.354-.822l.001-.001.002-.001c.579-.332 1.056-.746 1.388-1.255a3.109 3.109 0 0 0 .501-1.72 2.85 2.85 0 0 0-.526-1.683c-.348-.488-.843-.865-1.435-1.154-.954-.465-2.058-.683-3.284-.683h-5.168v7.32h.779v-.78zm11.977 8.781l.451-.636c-.087-.057-.248-.25-.381-.664-.133-.409-.233-1.008-.273-1.773l-.001-.018.001.018a91.066 91.066 0 0 0-.117-1.913 18.098 18.098 0 0 0-.051-.575c-.018-.157-.029-.257-.062-.394l-.755.194.758-.18c-.161-.683-.457-1.291-.902-1.772-.443-.482-1.025-.819-1.681-1.004l-.214.749.314.713a5.115 5.115 0 0 0 2.245-1.861c.543-.81.83-1.73.828-2.686.001-.877-.206-1.705-.629-2.426-.422-.722-1.047-1.327-1.829-1.813l-.001-.001-.001-.001C99.913.84 98.269.443 96.39.444h-8.136v18.494h4.114V11.69h4.24c.988.002 1.594.235 1.956.581.185.177.328.395.436.693.107.297.173.675.178 1.139.014 1.086.075 1.987.194 2.723.125.737.283 1.308.607 1.781l.233.331h4.133v-1.624l-.329-.233-.451.637h-.779v.441h.779v-.779h-2.949v.779l.637-.448c-.09-.115-.248-.516-.344-1.134-.101-.619-.162-1.457-.174-2.492l-.001-.052.001.052c-.007-.598-.091-1.148-.27-1.646a3.226 3.226 0 0 0-1.449-1.756c-.679-.387-1.491-.55-2.41-.551h-5.798v7.248h-.997V2.003h6.577c1.666.001 3 .347 4.056.999L100.442 3c.611.381 1.032.806 1.307 1.277.274.472.415.999.416 1.639-.002.655-.18 1.238-.566 1.821-.384.572-.889.994-1.576 1.299l-1.975.87 2.075.593c.428.124.728.31.965.564.235.255.416.596.53 1.074l.002.007.002.007.229-.059-.231.05.002.009.229-.059-.231.05c.001 0 .015.092.028.22.041.397.095 1.198.157 2.367.046.853.153 1.569.346 2.171.195.596.481 1.11.962 1.456l.452-.638h-.779.779zm-17.15-1.649v-.779h-10.32v-4.157h10.016V7.6H76.095V4.071h10.893V.445H71.955v18.494h15.239V15.29h-.779v.779h-.779v1.312H73.514V2.003H85.43v.509H74.537v6.646h10.016v.416H74.537v7.274h11.879v-.779h-.779.778zM68.746 1.224V.445h-3.361v18.494h4.14V.445h-.779v.779h-.779v16.157h-1.023V2.003h1.802v-.779h-.779.779zm-5.48 14.822v-.779h-8.617V.445h-4.165v18.494h13.561v-3.672h-.779v.779h-.779v1.335H52.042V2.003h1.049v14.822h10.175v-.779h-.779.779zm-14.62.023v-.779h-10.32v-4.157h10.016V7.6H38.326V4.071h10.893V.445H34.186v18.494h15.239V15.29h-.779v.779h-.779v1.312H35.745V2.003h11.916v.509H36.767v6.646h10.016v.416H36.767v7.274h11.879v-.779h-.779.779zM32.392 1.224V.445H17.157v3.556h5.937v14.938h4.14V4.001h5.937V.445h-.779v.779h-.779v1.219h-5.937v14.938h-1.023V2.443h-5.937v-.44h13.676v-.779h-.779.779zM6.607 11.12l.724.288L9.577 5.77l1.794 4.571H6.608v.779l.724.288-.725-.288v.78h7.049L9.587 1.531 5.458 11.9h1.149v-.78zM11 1.224V.445H7.64L0 18.941l4.341-.007 2.007-5.06h6.37l1.989 5.063 4.482.002L11.521.445H11v.779l-.72.298 6.574 15.858-1.086-.001-1.989-5.063h-8.49l-2.008 5.061-.95.001L8.682 2.003H11v-.779l-.72.298.72-.298z"/><path fill="#231F20" d="M200.775 11.864l2.607-7.248 2.659 7.248h-5.266zm4.827-10.64h-4.439l-6.712 16.936h4.053l1.265-3.485h7.305l1.265 3.485h4.078l-6.815-16.936zm-13.623 0h-3.872V18.16h3.872V1.224zm-14.701 6.853l7.486-6.853h-4.827l-7.357 6.97v-6.97h-3.872V18.16h3.872v-5.947l2.014-1.789 6.143 7.736h4.698l-8.157-10.083zm-11.896-6.853h-3.898v10.461c0 1.067-.301 1.964-.903 2.69-.671.804-1.574 1.206-2.711 1.206-1.153 0-2.074-.402-2.762-1.206-.619-.727-.929-1.623-.929-2.69V1.224h-3.898v10.873c0 1.967.71 3.551 2.13 4.751 1.419 1.2 3.222 1.8 5.407 1.8s3.992-.604 5.421-1.812c1.428-1.208 2.142-2.788 2.142-4.739V1.224zm-30.994 12.479c-.861-1.097-1.291-2.434-1.291-4.011 0-1.561.439-2.898 1.316-4.011.963-1.221 2.288-1.832 3.975-1.832 1.669 0 2.994.618 3.975 1.855.86 1.098 1.291 2.427 1.291 3.988 0 1.577-.431 2.914-1.291 4.011-.981 1.253-2.306 1.878-3.975 1.878-1.686 0-3.019-.626-4-1.878zm10.789 2.323c1.635-1.67 2.453-3.774 2.453-6.311s-.826-4.64-2.478-6.311c-1.721-1.748-3.975-2.622-6.763-2.622-2.805 0-5.068.874-6.788 2.622-1.635 1.671-2.453 3.774-2.453 6.311s.826 4.64 2.478 6.311c1.721 1.748 3.975 2.622 6.763 2.622 2.805 0 5.068-.874 6.788-2.622zm-17.296-.979h-9.215V1.224h-3.872V18.16h13.087v-3.113z"/><path fill="#FFF" d="M200.775 11.864l.733.264 1.881-5.23 1.536 4.187h-4.15v.779l.733.264-.733-.264v.779h6.382l-3.782-10.31-3.708 10.31h1.108v-.779zm4.827-10.64V.445h-4.969l-7.329 18.494h5.746l1.265-3.485h6.213l1.265 3.485h5.778L206.13.445h-.526v.779l-.723.291 6.384 15.866h-2.378l-1.265-3.485h-8.398l-1.265 3.485h-2.36l6.094-15.377h3.91v-.78l-.723.291.722-.291zm-13.623 0V.445h-4.651v18.494h5.43V.445h-.779v.779h-.779v16.157h-2.313V2.003h3.092v-.779h-.779.779zm-14.701 6.853l.526.575 8.964-8.207h-7.142l-6.267 5.937V.445h-5.43v18.494h5.43v-6.376l1.136-1.01 5.865 7.386h6.707l-9.184-11.352-.605.49.526.575-.526-.575-.606.49 7.13 8.813h-2.689l-6.421-8.087-2.891 2.569v5.518h-2.313V2.003h2.313v8.002l8.447-8.002h2.511l-6.547 5.994.461.57.605-.49zm-11.896-6.853V.445h-4.677v11.24c-.004.923-.247 1.611-.724 2.193l.002-.002c-.537.627-1.157.914-2.112.926-.975-.011-1.617-.304-2.17-.934l.001.001c-.492-.584-.738-1.266-.743-2.185V.445h-5.456v11.652c-.012 2.153.816 4.016 2.406 5.346 1.571 1.334 3.586 1.989 5.911 1.985 2.325.004 4.344-.656 5.924-1.996 1.595-1.335 2.43-3.193 2.418-5.334V.445h-.779v.779h-.779v10.873c-.012 1.762-.606 3.064-1.866 4.144-1.278 1.076-2.872 1.623-4.918 1.628-2.047-.004-3.637-.549-4.904-1.616l-.02-.017.02.017c-1.249-1.07-1.842-2.374-1.854-4.156V2.003h2.339v9.681c-.005 1.215.368 2.326 1.115 3.196l.001.001c.824.979 2.024 1.49 3.354 1.479 1.317.012 2.504-.504 3.309-1.486l.003-.004-.002.002c.726-.871 1.087-1.976 1.082-3.187V2.003h3.118v-.779h-.779.78zm-30.994 12.479l.613-.481c-.744-.954-1.121-2.092-1.124-3.53.004-1.417.386-2.555 1.149-3.529l.019-.024-.019.024c.832-1.035 1.861-1.521 3.363-1.535.739.001 1.368.135 1.916.391a3.997 3.997 0 0 1 1.449 1.169l-.003-.004c.745.956 1.121 2.088 1.125 3.507-.004 1.437-.381 2.576-1.125 3.53l-.018.024.018-.023c-.425.542-.902.925-1.449 1.185-.548.258-1.175.394-1.913.395-.748-.001-1.383-.137-1.934-.396a3.98 3.98 0 0 1-1.453-1.184l-.614.481-.613.48a5.543 5.543 0 0 0 2.018 1.634c.782.367 1.657.544 2.596.543.931.001 1.801-.176 2.578-.544a5.56 5.56 0 0 0 2.01-1.633c.976-1.24 1.46-2.776 1.456-4.492.004-1.702-.482-3.229-1.456-4.468l-.001-.001-.002-.002a5.555 5.555 0 0 0-2.011-1.613c-.777-.363-1.645-.537-2.575-.537-1.871-.014-3.493.721-4.587 2.128-.991 1.252-1.488 2.788-1.484 4.493-.004 1.716.479 3.251 1.457 4.492l.614-.48zm10.789 2.323l.557.545c1.781-1.809 2.682-4.154 2.675-6.856.008-2.704-.906-5.05-2.704-6.859l.001.001C143.838.95 141.334-.005 138.388.002c-2.962-.008-5.475.947-7.344 2.855l-.002.003.001-.001c-1.781 1.81-2.682 4.154-2.675 6.856-.008 2.703.905 5.05 2.703 6.859l.003.003-.004-.004c1.868 1.907 4.372 2.862 7.319 2.854 2.962.008 5.475-.946 7.344-2.855l.001-.001-.557-.545-.555-.547c-1.572 1.588-3.586 2.382-6.233 2.389-2.63-.008-4.634-.8-6.208-2.389l-.001-.001c-1.506-1.532-2.245-3.393-2.252-5.763.007-2.372.74-4.234 2.23-5.766l-.002.002c1.572-1.588 3.586-2.382 6.233-2.389 2.629.008 4.634.8 6.207 2.389l.001.001c1.506 1.533 2.246 3.393 2.253 5.763-.007 2.372-.74 4.234-2.23 5.766l-.003.003.004-.004.556.546zm-17.296-.979v-.779h-8.436V.445h-5.43v18.494h14.645v-4.672h-.779v.78h-.779v2.334h-11.529V2.003h2.313v13.823h9.994v-.779h-.779.78z"/></svg>